<svg width="141" height="219" viewBox="0 0 141 219" fill="none" xmlns="http://www.w3.org/2000/svg">
<mask id="path-1-outside-1_189_592" maskUnits="userSpaceOnUse" x="0" y="0" width="141" height="219" fill="black">
<rect fill="white" width="141" height="219"/>
<path d="M112.152 147.554H138.558C137.888 161.905 134.97 174.295 129.804 184.724C124.733 195.056 117.318 202.997 107.559 208.547C97.8963 214.096 85.7934 216.87 71.2508 216.87C60.8223 216.87 51.3983 214.813 42.9789 210.699C34.5596 206.585 27.3361 200.701 21.3086 193.047C15.3768 185.298 10.8322 176.017 7.67493 165.206C4.51766 154.395 2.93903 142.244 2.93903 128.754V90.149C2.93903 76.7545 4.51766 64.6516 7.67493 53.8404C10.9279 43.0291 15.5681 33.7965 21.5956 26.1425C27.7188 18.3928 35.1336 12.461 43.84 8.34699C52.6421 4.23297 62.5923 2.17596 73.6906 2.17596C87.2764 2.17596 98.7574 4.9027 108.133 10.3562C117.605 15.714 124.877 23.6071 129.947 34.0357C135.114 44.3686 137.984 57.0455 138.558 72.0664H112.152C111.482 61.0638 109.76 52.1182 106.985 45.2296C104.211 38.2454 100.097 33.1268 94.6433 29.8738C89.2855 26.5252 82.3013 24.8509 73.6906 24.8509C66.0366 24.8509 59.3872 26.3817 53.7424 29.4433C48.1932 32.5049 43.6008 36.9059 39.9652 42.6464C36.4252 48.2912 33.7463 55.132 31.9285 63.1687C30.2063 71.1097 29.3453 80.0074 29.3453 89.8619V128.754C29.3453 137.939 30.0628 146.501 31.498 154.442C33.0288 162.383 35.4206 169.368 38.6736 175.395C42.0222 181.327 46.3754 185.967 51.7332 189.316C57.091 192.665 63.5969 194.339 71.2508 194.339C80.914 194.339 88.568 192.76 94.2128 189.603C99.8576 186.446 104.019 181.423 106.698 174.534C109.473 167.646 111.291 158.652 112.152 147.554Z"/>
</mask>
<path d="M112.152 147.554V145.554H110.301L110.158 147.399L112.152 147.554ZM138.558 147.554L140.556 147.647L140.654 145.554H138.558V147.554ZM129.804 184.724L128.012 183.836L128.008 183.842L129.804 184.724ZM107.559 208.547L106.571 206.808L106.563 206.812L107.559 208.547ZM21.3086 193.047L19.7204 194.263L19.7288 194.274L19.7373 194.285L21.3086 193.047ZM7.67493 53.8404L5.75974 53.2641L5.7574 53.2719L5.75512 53.2797L7.67493 53.8404ZM21.5956 26.1425L20.0263 24.9026L20.0243 24.9051L21.5956 26.1425ZM43.84 8.34699L42.9932 6.53511L42.9855 6.5387L43.84 8.34699ZM108.133 10.3562L107.128 12.085L107.138 12.091L107.149 12.097L108.133 10.3562ZM129.947 34.0357L128.149 34.9102L128.154 34.9202L128.158 34.9301L129.947 34.0357ZM138.558 72.0664V74.0664H140.636L140.557 71.99L138.558 72.0664ZM112.152 72.0664L110.156 72.1879L110.27 74.0664H112.152V72.0664ZM106.985 45.2296L105.127 45.968L105.13 45.9769L106.985 45.2296ZM94.6433 29.8738L93.5833 31.5698L93.6009 31.5808L93.6188 31.5915L94.6433 29.8738ZM53.7424 29.4433L52.7888 27.6852L52.7825 27.6887L52.7762 27.6921L53.7424 29.4433ZM39.9652 42.6464L38.2755 41.5763L38.2708 41.5838L39.9652 42.6464ZM31.9285 63.1687L29.9778 62.7274L29.9758 62.7361L29.9739 62.7448L31.9285 63.1687ZM31.498 154.442L29.5298 154.798L29.5319 154.81L29.5341 154.821L31.498 154.442ZM38.6736 175.395L36.9135 176.345L36.9226 176.362L36.9319 176.378L38.6736 175.395ZM106.698 174.534L104.843 173.787L104.839 173.798L104.834 173.809L106.698 174.534ZM112.152 149.554H138.558V145.554H112.152V149.554ZM136.56 147.461C135.9 161.599 133.03 173.706 128.012 183.836L131.596 185.611C136.91 174.884 139.876 162.212 140.556 147.647L136.56 147.461ZM128.008 183.842C123.11 193.825 115.971 201.462 106.571 206.808L108.548 210.285C118.665 204.532 126.356 196.288 131.599 185.605L128.008 183.842ZM106.563 206.812C97.2822 212.142 85.5477 214.87 71.2508 214.87V218.87C86.0391 218.87 98.5103 216.049 108.555 210.281L106.563 206.812ZM71.2508 214.87C61.0919 214.87 51.9734 212.868 43.857 208.902L42.1009 212.496C50.8233 216.758 60.5527 218.87 71.2508 218.87V214.87ZM43.857 208.902C35.7186 204.926 28.7289 199.237 22.8799 191.81L19.7373 194.285C25.9433 202.165 33.4005 208.245 42.1009 212.496L43.857 208.902ZM22.8968 191.832C17.1362 184.306 12.6933 175.256 9.59474 164.645L5.75512 165.766C8.97106 176.779 13.6173 186.289 19.7204 194.263L22.8968 191.832ZM9.59474 164.645C6.49994 154.048 4.93903 142.09 4.93903 128.754H0.939028C0.939028 142.397 2.53538 154.741 5.75512 165.766L9.59474 164.645ZM4.93903 128.754V90.149H0.939028V128.754H4.93903ZM4.93903 90.149C4.93903 76.9095 6.49959 64.9995 9.59474 54.401L5.75512 53.2797C2.53573 64.3037 0.939028 76.5995 0.939028 90.149H4.93903ZM9.59012 54.4166C12.7822 43.8077 17.317 34.8083 23.1669 27.3799L20.0243 24.9051C13.8192 32.7847 9.07358 42.2505 5.75974 53.2641L9.59012 54.4166ZM23.1649 27.3824C29.1019 19.8684 36.2743 14.134 44.6945 10.1553L42.9855 6.5387C33.9929 10.788 26.3357 16.9173 20.0263 24.9026L23.1649 27.3824ZM44.6869 10.1589C53.1885 6.18525 62.8433 4.17596 73.6906 4.17596V0.175964C62.3413 0.175964 52.0957 2.2807 42.9932 6.53513L44.6869 10.1589ZM73.6906 4.17596C87.0113 4.17596 98.1253 6.84875 107.128 12.085L109.139 8.62733C99.3894 2.95665 87.5415 0.175964 73.6906 0.175964V4.17596ZM107.149 12.097C116.244 17.2418 123.243 24.821 128.149 34.9102L131.746 33.1611C126.51 22.3932 118.966 14.1861 109.118 8.61536L107.149 12.097ZM128.158 34.9301C133.165 44.9439 135.993 57.3243 136.56 72.1428L140.557 71.99C139.975 56.7667 137.062 43.7932 131.736 33.1413L128.158 34.9301ZM138.558 70.0664H112.152V74.0664H138.558V70.0664ZM114.148 71.9449C113.471 60.8212 111.724 51.6422 108.841 44.4824L105.13 45.9769C107.796 52.5942 109.493 61.3064 110.156 72.1879L114.148 71.9449ZM108.844 44.4912C105.938 37.1754 101.566 31.6742 95.6679 28.1562L93.6188 31.5915C98.6278 34.5793 102.484 39.3153 105.127 45.968L108.844 44.4912ZM95.7033 28.1778C89.9321 24.5708 82.5447 22.8509 73.6906 22.8509V26.8509C82.0579 26.8509 88.639 28.4796 93.5833 31.5698L95.7033 28.1778ZM73.6906 22.8509C65.7673 22.8509 58.7777 24.437 52.7888 27.6852L54.6959 31.2013C59.9966 28.3264 66.3058 26.8509 73.6906 26.8509V22.8509ZM52.7762 27.6921C46.9113 30.9279 42.0778 35.5727 38.2755 41.5763L41.6548 43.7165C45.1238 38.2392 49.4751 34.0818 54.7085 31.1944L52.7762 27.6921ZM38.2708 41.5838C34.5864 47.459 31.834 54.5207 29.9778 62.7274L33.8792 63.6099C35.6586 55.7432 38.264 49.1235 41.6596 43.709L38.2708 41.5838ZM29.9739 62.7448C28.216 70.8508 27.3453 79.8939 27.3453 89.8619H31.3453C31.3453 80.121 32.1967 71.3686 33.8831 63.5925L29.9739 62.7448ZM27.3453 89.8619V128.754H31.3453V89.8619H27.3453ZM27.3453 128.754C27.3453 138.042 28.0708 146.725 29.5298 154.798L33.4661 154.087C32.0548 146.278 31.3453 137.835 31.3453 128.754H27.3453ZM29.5341 154.821C31.0966 162.927 33.5484 170.11 36.9135 176.345L40.4336 174.445C37.2929 168.626 34.9609 161.84 33.4618 154.064L29.5341 154.821ZM36.9319 176.378C40.4315 182.578 45.0103 187.473 50.6732 191.012L52.7932 187.62C47.7404 184.462 43.6129 180.076 40.4152 174.412L36.9319 176.378ZM50.6732 191.012C56.4102 194.598 63.3017 196.339 71.2508 196.339V192.339C63.892 192.339 57.7717 190.731 52.7932 187.62L50.6732 191.012ZM71.2508 196.339C81.0997 196.339 89.1342 194.735 95.1891 191.348L93.2365 187.857C88.0018 190.785 80.7283 192.339 71.2508 192.339V196.339ZM95.1891 191.348C101.297 187.932 105.74 182.515 108.562 175.259L104.834 173.809C102.298 180.33 98.4186 184.959 93.2365 187.857L95.1891 191.348ZM108.554 175.281C111.432 168.134 113.276 158.919 114.146 147.709L110.158 147.399C109.305 158.385 107.514 167.157 104.843 173.787L108.554 175.281Z" fill="white" mask="url(#path-1-outside-1_189_592)"/>
</svg>
