<svg width="152" height="152" viewBox="0 0 152 152" fill="none" xmlns="http://www.w3.org/2000/svg">
<g clip-path="url(#clip0_148_481)">
<path d="M123.669 21.1111H114V29.5556H122.445V135.111H29.5558V29.5556H38.0002V21.1111H29.5558C28.5218 20.9616 27.4678 21.033 26.4634 21.3207C25.459 21.6084 24.5271 22.1058 23.7291 22.7801C22.9311 23.4545 22.2851 24.2903 21.8339 25.2326C21.3827 26.1749 21.1364 27.2022 21.1113 28.2467V136.42C21.1169 137.363 21.308 138.295 21.6738 139.164C22.0397 140.032 22.573 140.821 23.2435 141.483C23.9139 142.146 24.7083 142.67 25.5813 143.025C26.4543 143.381 27.3887 143.561 28.3313 143.556H123.669C124.612 143.561 125.546 143.381 126.419 143.025C127.292 142.67 128.087 142.146 128.757 141.483C129.427 140.821 129.961 140.032 130.327 139.164C130.692 138.295 130.884 137.363 130.889 136.42V28.2467C130.884 27.3041 130.692 26.3718 130.327 25.5031C129.961 24.6343 129.427 23.8462 128.757 23.1836C128.087 22.521 127.292 21.9969 126.419 21.6413C125.546 21.2857 124.612 21.1056 123.669 21.1111Z" fill="white"/>
<path d="M109.778 30.9489C109.767 28.3432 108.727 25.8473 106.884 24.0048C105.041 22.1623 102.546 21.1222 99.9399 21.1111H92.34C91.4098 17.4782 89.297 14.2583 86.3346 11.9588C83.3723 9.65941 79.7289 8.41132 75.9788 8.41132C72.2288 8.41132 68.5854 9.65941 65.623 11.9588C62.6607 14.2583 60.5479 17.4782 59.6177 21.1111H52.0599C49.4542 21.1222 46.9584 22.1623 45.1159 24.0048C43.2733 25.8473 42.2333 28.3432 42.2222 30.9489V46.4444H109.778V30.9489ZM101.333 38H50.6666V30.9489C50.6666 30.7659 50.7027 30.5847 50.7727 30.4157C50.8427 30.2466 50.9453 30.093 51.0747 29.9636C51.2041 29.8343 51.3577 29.7316 51.5267 29.6616C51.6958 29.5916 51.877 29.5555 52.0599 29.5555H67.5555V25.3333C67.5555 23.0937 68.4452 20.9458 70.0288 19.3622C71.6125 17.7786 73.7603 16.8889 75.9999 16.8889C78.2396 16.8889 80.3874 17.7786 81.9711 19.3622C83.5547 20.9458 84.4444 23.0937 84.4444 25.3333V29.5555H99.9399C100.309 29.5555 100.664 29.7023 100.925 29.9636C101.186 30.2249 101.333 30.5793 101.333 30.9489V38Z" fill="white"/>
<path d="M46.4443 59.1111H105.555V67.5555H46.4443V59.1111Z" fill="white"/>
<path d="M46.4443 76H105.555V84.4444H46.4443V76Z" fill="white"/>
<path d="M46.4443 92.8889H105.555V101.333H46.4443V92.8889Z" fill="white"/>
<path d="M46.4443 109.778H105.555V118.222H46.4443V109.778Z" fill="white"/>
</g>
<defs>
<clipPath id="clip0_148_481">
<rect width="152" height="152" fill="white"/>
</clipPath>
</defs>
</svg>
