<svg width="378" height="90" viewBox="0 0 378 90" fill="none" xmlns="http://www.w3.org/2000/svg">
<path d="M105.227 33.6445L103.039 35.2852C104.12 35.0638 105.012 34.9531 105.715 34.9531C106.861 34.9531 107.987 35.1615 109.094 35.5781C109.875 35.8776 110.48 36.0273 110.91 36.0273C111.665 36.0273 112.505 35.7214 113.43 35.1094C113.794 34.875 114.055 34.7578 114.211 34.7578C114.445 34.7578 114.634 34.8294 114.777 34.9727C114.934 35.1289 115.012 35.3307 115.012 35.5781C115.012 35.7734 114.947 35.9427 114.816 36.0859C114.543 36.3984 113.924 36.763 112.961 37.1797C112.232 37.5052 111.516 37.668 110.812 37.668C110.266 37.668 109.51 37.4922 108.547 37.1406C107.583 36.7891 106.652 36.6133 105.754 36.6133C105.116 36.6133 104.328 36.6914 103.391 36.8477C102.076 37.069 101.021 37.2904 100.227 37.5117C99.9661 37.5768 99.7773 37.6094 99.6602 37.6094C99.4388 37.6094 99.25 37.5312 99.0938 37.375C98.9375 37.2188 98.8594 37.0104 98.8594 36.75C98.8594 36.4896 99.0091 36.2552 99.3086 36.0469L102.961 33.4102C100.786 32.8763 98.918 31.5352 97.3555 29.3867C95.806 27.2383 95.0312 24.6536 95.0312 21.6328C95.0312 18.1042 96.0339 15.2201 98.0391 12.9805C100.057 10.7409 102.388 9.62109 105.031 9.62109C107.674 9.62109 109.999 10.7409 112.004 12.9805C114.022 15.2201 115.031 18.1042 115.031 21.6328C115.031 25.1094 114.042 27.974 112.062 30.2266C110.083 32.4661 107.805 33.6055 105.227 33.6445ZM113.371 21.6328C113.371 18.9635 112.596 16.5677 111.047 14.4453C109.497 12.3229 107.492 11.2617 105.031 11.2617C102.727 11.2617 100.754 12.2773 99.1133 14.3086C97.4857 16.3268 96.6719 18.7682 96.6719 21.6328C96.6719 24.6797 97.5247 27.1732 99.2305 29.1133C100.949 31.0404 102.883 32.0039 105.031 32.0039C107.492 32.0039 109.497 30.9492 111.047 28.8398C112.596 26.7174 113.371 24.3151 113.371 21.6328ZM134.641 33V30.5977C132.401 32.6289 129.979 33.6445 127.375 33.6445C125.773 33.6445 124.556 33.2083 123.723 32.3359C122.642 31.1901 122.102 29.8555 122.102 28.332V17.7461H119.895C119.504 17.7461 119.224 17.668 119.055 17.5117C118.885 17.3555 118.801 17.1536 118.801 16.9062C118.801 16.6719 118.885 16.4766 119.055 16.3203C119.224 16.1641 119.504 16.0859 119.895 16.0859H123.742V28.332C123.742 29.3997 124.081 30.2786 124.758 30.9688C125.435 31.6589 126.281 32.0039 127.297 32.0039C129.966 32.0039 132.414 30.7799 134.641 28.332V17.7461H131.613C131.223 17.7461 130.943 17.668 130.773 17.5117C130.604 17.3555 130.52 17.1536 130.52 16.9062C130.52 16.6719 130.604 16.4766 130.773 16.3203C130.943 16.1641 131.223 16.0859 131.613 16.0859H136.281V31.3594H137.668C138.059 31.3594 138.339 31.4375 138.508 31.5938C138.677 31.737 138.762 31.9323 138.762 32.1797C138.762 32.4141 138.677 32.6094 138.508 32.7656C138.339 32.9219 138.059 33 137.668 33H134.641ZM153.859 7.66797V11.9062H151.438V7.66797H153.859ZM153.918 16.0859V31.3594H160.363C160.767 31.3594 161.053 31.4375 161.223 31.5938C161.392 31.737 161.477 31.9323 161.477 32.1797C161.477 32.4141 161.392 32.6094 161.223 32.7656C161.053 32.9219 160.767 33 160.363 33H145.832C145.441 33 145.161 32.9219 144.992 32.7656C144.823 32.6094 144.738 32.4141 144.738 32.1797C144.738 31.9323 144.823 31.737 144.992 31.5938C145.161 31.4375 145.441 31.3594 145.832 31.3594H152.277V17.7461H147.492C147.102 17.7461 146.815 17.668 146.633 17.5117C146.464 17.3555 146.379 17.1602 146.379 16.9258C146.379 16.6784 146.464 16.4766 146.633 16.3203C146.802 16.1641 147.089 16.0859 147.492 16.0859H153.918ZM183.918 17.7461V17.1992C183.918 16.7956 183.996 16.5091 184.152 16.3398C184.309 16.1706 184.504 16.0859 184.738 16.0859C184.986 16.0859 185.188 16.1706 185.344 16.3398C185.5 16.5091 185.578 16.7956 185.578 17.1992V20.9102C185.565 21.3138 185.48 21.6003 185.324 21.7695C185.181 21.9388 184.986 22.0234 184.738 22.0234C184.517 22.0234 184.328 21.9518 184.172 21.8086C184.029 21.6523 183.944 21.3984 183.918 21.0469C183.84 20.1224 183.228 19.2435 182.082 18.4102C180.949 17.5768 179.419 17.1602 177.492 17.1602C175.057 17.1602 173.208 17.9219 171.945 19.4453C170.682 20.9688 170.051 22.7135 170.051 24.6797C170.051 26.8021 170.747 28.5534 172.141 29.9336C173.534 31.3138 175.337 32.0039 177.551 32.0039C178.827 32.0039 180.122 31.7695 181.438 31.3008C182.766 30.832 183.964 30.0768 185.031 29.0352C185.305 28.7747 185.546 28.6445 185.754 28.6445C185.975 28.6445 186.158 28.7227 186.301 28.8789C186.457 29.0221 186.535 29.2044 186.535 29.4258C186.535 29.9857 185.878 30.6953 184.562 31.5547C182.44 32.9479 180.077 33.6445 177.473 33.6445C174.829 33.6445 172.655 32.8047 170.949 31.125C169.257 29.4323 168.41 27.2904 168.41 24.6992C168.41 22.056 169.276 19.862 171.008 18.1172C172.753 16.3724 174.947 15.5 177.59 15.5C180.103 15.5 182.212 16.2487 183.918 17.7461ZM197.766 25.6953V33H193.918C193.527 33 193.247 32.9219 193.078 32.7656C192.909 32.6094 192.824 32.4141 192.824 32.1797C192.824 31.9323 192.909 31.737 193.078 31.5938C193.247 31.4375 193.527 31.3594 193.918 31.3594H196.125V10.1484H193.918C193.527 10.1484 193.247 10.0703 193.078 9.91406C192.909 9.75781 192.824 9.55599 192.824 9.30859C192.824 9.07422 192.909 8.87891 193.078 8.72266C193.247 8.56641 193.527 8.48828 193.918 8.48828H197.766V23.6055L204.738 17.7461H203.898C203.508 17.7461 203.228 17.668 203.059 17.5117C202.889 17.3555 202.805 17.1602 202.805 16.9258C202.805 16.6784 202.889 16.4766 203.059 16.3203C203.228 16.1641 203.508 16.0859 203.898 16.0859H209.152C209.556 16.0859 209.842 16.1641 210.012 16.3203C210.181 16.4766 210.266 16.6784 210.266 16.9258C210.266 17.1602 210.181 17.3555 210.012 17.5117C209.842 17.668 209.556 17.7461 209.152 17.7461H207.258L200.852 23.0977L208.957 31.3594H210.852C211.255 31.3594 211.542 31.4375 211.711 31.5938C211.88 31.737 211.965 31.9323 211.965 32.1797C211.965 32.4141 211.88 32.6094 211.711 32.7656C211.542 32.9219 211.255 33 210.852 33H205.539C205.148 33 204.868 32.9219 204.699 32.7656C204.53 32.6094 204.445 32.4141 204.445 32.1797C204.445 31.9323 204.53 31.737 204.699 31.5938C204.868 31.4375 205.148 31.3594 205.539 31.3594H206.691L199.641 24.1133L197.766 25.6953ZM225.93 7.66797V11.9062H223.508V7.66797H225.93ZM225.988 16.0859V31.3594H232.434C232.837 31.3594 233.124 31.4375 233.293 31.5938C233.462 31.737 233.547 31.9323 233.547 32.1797C233.547 32.4141 233.462 32.6094 233.293 32.7656C233.124 32.9219 232.837 33 232.434 33H217.902C217.512 33 217.232 32.9219 217.062 32.7656C216.893 32.6094 216.809 32.4141 216.809 32.1797C216.809 31.9323 216.893 31.737 217.062 31.5938C217.232 31.4375 217.512 31.3594 217.902 31.3594H224.348V17.7461H219.562C219.172 17.7461 218.885 17.668 218.703 17.5117C218.534 17.3555 218.449 17.1602 218.449 16.9258C218.449 16.6784 218.534 16.4766 218.703 16.3203C218.872 16.1641 219.159 16.0859 219.562 16.0859H225.988ZM258.02 24.9336H241.301C241.587 27.056 242.473 28.7682 243.957 30.0703C245.454 31.3594 247.303 32.0039 249.504 32.0039C250.728 32.0039 252.01 31.8021 253.352 31.3984C254.693 30.9948 255.786 30.4609 256.633 29.7969C256.88 29.6016 257.095 29.5039 257.277 29.5039C257.486 29.5039 257.668 29.5885 257.824 29.7578C257.98 29.9141 258.059 30.1029 258.059 30.3242C258.059 30.5456 257.954 30.7604 257.746 30.9688C257.121 31.6198 256.008 32.2318 254.406 32.8047C252.818 33.3646 251.184 33.6445 249.504 33.6445C246.691 33.6445 244.341 32.7266 242.453 30.8906C240.578 29.0417 239.641 26.8086 239.641 24.1914C239.641 21.8086 240.52 19.7643 242.277 18.0586C244.048 16.3529 246.236 15.5 248.84 15.5C251.522 15.5 253.729 16.3789 255.461 18.1367C257.193 19.8815 258.046 22.1471 258.02 24.9336ZM256.359 23.2734C256.034 21.4635 255.174 19.9922 253.781 18.8594C252.401 17.7266 250.754 17.1602 248.84 17.1602C246.926 17.1602 245.279 17.7201 243.898 18.8398C242.518 19.9596 241.659 21.4375 241.32 23.2734H256.359ZM278.586 17.1602C278.586 16.7826 278.664 16.5091 278.82 16.3398C278.977 16.1706 279.172 16.0859 279.406 16.0859C279.654 16.0859 279.855 16.1706 280.012 16.3398C280.168 16.5091 280.246 16.7956 280.246 17.1992V20.0117C280.246 20.4023 280.168 20.6823 280.012 20.8516C279.855 21.0208 279.654 21.1055 279.406 21.1055C279.185 21.1055 278.996 21.0339 278.84 20.8906C278.697 20.7474 278.612 20.513 278.586 20.1875C278.508 19.4062 278.104 18.7617 277.375 18.2539C276.307 17.5247 274.895 17.1602 273.137 17.1602C271.301 17.1602 269.875 17.5312 268.859 18.2734C268.091 18.8333 267.707 19.4583 267.707 20.1484C267.707 20.9297 268.163 21.5807 269.074 22.1016C269.699 22.4661 270.884 22.7461 272.629 22.9414C274.908 23.1888 276.49 23.4688 277.375 23.7812C278.638 24.237 279.576 24.8685 280.188 25.6758C280.812 26.4831 281.125 27.3555 281.125 28.293C281.125 29.6862 280.454 30.9297 279.113 32.0234C277.772 33.1042 275.806 33.6445 273.215 33.6445C270.624 33.6445 268.501 32.987 266.848 31.6719C266.848 32.1146 266.822 32.401 266.77 32.5312C266.717 32.6615 266.62 32.7721 266.477 32.8633C266.346 32.9544 266.197 33 266.027 33C265.793 33 265.598 32.9154 265.441 32.7461C265.285 32.5768 265.207 32.2969 265.207 31.9062V28.5273C265.207 28.1367 265.279 27.8568 265.422 27.6875C265.578 27.5182 265.78 27.4336 266.027 27.4336C266.262 27.4336 266.457 27.5182 266.613 27.6875C266.783 27.8438 266.867 28.0586 266.867 28.332C266.867 28.931 267.017 29.4323 267.316 29.8359C267.772 30.4609 268.495 30.9818 269.484 31.3984C270.487 31.8021 271.711 32.0039 273.156 32.0039C275.292 32.0039 276.88 31.6068 277.922 30.8125C278.964 30.0182 279.484 29.1784 279.484 28.293C279.484 27.2773 278.957 26.4635 277.902 25.8516C276.835 25.2396 275.279 24.8294 273.234 24.6211C271.203 24.4128 269.745 24.1393 268.859 23.8008C267.974 23.4622 267.284 22.9544 266.789 22.2773C266.294 21.6003 266.047 20.8711 266.047 20.0898C266.047 18.6836 266.737 17.5703 268.117 16.75C269.497 15.9167 271.145 15.5 273.059 15.5C275.324 15.5 277.167 16.0534 278.586 17.1602Z" fill="white"/>
<line y1="47.5" x2="378" y2="47.5" stroke="white"/>
<path d="M103.49 81.36C101.39 81.36 99.58 80.91 98.06 80.01C96.56 79.09 95.4 77.82 94.58 76.2C93.78 74.56 93.38 72.67 93.38 70.53C93.38 68.39 93.78 66.5 94.58 64.86C95.4 63.22 96.56 61.94 98.06 61.02C99.58 60.1 101.39 59.64 103.49 59.64C106.03 59.64 108.11 60.27 109.73 61.53C111.35 62.79 112.36 64.57 112.76 66.87H108.35C108.09 65.75 107.54 64.88 106.7 64.26C105.88 63.62 104.8 63.3 103.46 63.3C102.22 63.3 101.15 63.6 100.25 64.2C99.37 64.78 98.69 65.61 98.21 66.69C97.73 67.75 97.49 69.03 97.49 70.53C97.49 72.01 97.73 73.29 98.21 74.37C98.69 75.45 99.37 76.28 100.25 76.86C101.15 77.44 102.22 77.73 103.46 77.73C104.8 77.73 105.88 77.44 106.7 76.86C107.52 76.26 108.06 75.43 108.32 74.37H112.76C112.36 76.55 111.35 78.26 109.73 79.5C108.11 80.74 106.03 81.36 103.49 81.36ZM123.268 81.36C121.828 81.36 120.528 81.03 119.368 80.37C118.228 79.69 117.318 78.76 116.638 77.58C115.978 76.38 115.648 75.01 115.648 73.47C115.648 71.89 115.978 70.51 116.638 69.33C117.318 68.13 118.238 67.2 119.398 66.54C120.558 65.86 121.858 65.52 123.298 65.52C124.758 65.52 126.058 65.86 127.198 66.54C128.358 67.2 129.268 68.13 129.928 69.33C130.608 70.51 130.948 71.88 130.948 73.44C130.948 75 130.608 76.38 129.928 77.58C129.268 78.76 128.358 79.69 127.198 80.37C126.038 81.03 124.728 81.36 123.268 81.36ZM123.268 77.85C123.948 77.85 124.548 77.69 125.068 77.37C125.608 77.05 126.028 76.56 126.328 75.9C126.648 75.24 126.808 74.42 126.808 73.44C126.808 72.46 126.648 71.65 126.328 71.01C126.028 70.35 125.608 69.86 125.068 69.54C124.548 69.2 123.958 69.03 123.298 69.03C122.658 69.03 122.068 69.2 121.528 69.54C120.988 69.86 120.558 70.35 120.238 71.01C119.938 71.65 119.788 72.46 119.788 73.44C119.788 74.42 119.938 75.24 120.238 75.9C120.558 76.56 120.978 77.05 121.498 77.37C122.038 77.69 122.628 77.85 123.268 77.85ZM134.439 81V65.88H138.009L138.339 67.89C138.819 67.17 139.449 66.6 140.229 66.18C141.029 65.74 141.939 65.52 142.959 65.52C143.719 65.52 144.399 65.62 144.999 65.82C145.599 66.02 146.129 66.31 146.589 66.69C147.069 67.07 147.459 67.55 147.759 68.13C148.319 67.31 149.049 66.67 149.949 66.21C150.849 65.75 151.829 65.52 152.889 65.52C154.209 65.52 155.309 65.79 156.189 66.33C157.069 66.85 157.729 67.61 158.169 68.61C158.629 69.61 158.859 70.84 158.859 72.3V81H154.839V72.66C154.839 71.46 154.599 70.54 154.119 69.9C153.659 69.26 152.939 68.94 151.959 68.94C151.319 68.94 150.749 69.1 150.249 69.42C149.749 69.74 149.359 70.2 149.079 70.8C148.819 71.4 148.689 72.12 148.689 72.96V81H144.639V72.66C144.639 71.46 144.399 70.54 143.919 69.9C143.439 69.26 142.699 68.94 141.699 68.94C141.079 68.94 140.519 69.1 140.019 69.42C139.539 69.74 139.159 70.2 138.879 70.8C138.619 71.4 138.489 72.12 138.489 72.96V81H134.439ZM162.771 81V65.88H166.821V81H162.771ZM164.811 63.81C164.091 63.81 163.491 63.6 163.011 63.18C162.551 62.74 162.321 62.19 162.321 61.53C162.321 60.87 162.551 60.33 163.011 59.91C163.491 59.47 164.091 59.25 164.811 59.25C165.551 59.25 166.151 59.47 166.611 59.91C167.091 60.33 167.331 60.87 167.331 61.53C167.331 62.19 167.091 62.74 166.611 63.18C166.151 63.6 165.551 63.81 164.811 63.81ZM170.914 81V65.88H174.484L174.784 68.34C175.244 67.5 175.894 66.82 176.734 66.3C177.594 65.78 178.614 65.52 179.794 65.52C181.054 65.52 182.114 65.78 182.974 66.3C183.834 66.82 184.484 67.58 184.924 68.58C185.384 69.58 185.614 70.81 185.614 72.27V81H181.594V72.66C181.594 71.46 181.334 70.54 180.814 69.9C180.314 69.26 179.534 68.94 178.474 68.94C177.794 68.94 177.184 69.1 176.644 69.42C176.124 69.74 175.714 70.2 175.414 70.8C175.114 71.38 174.964 72.09 174.964 72.93V81H170.914ZM195.939 87.96C194.499 87.96 193.239 87.78 192.159 87.42C191.079 87.08 190.239 86.55 189.639 85.83C189.059 85.13 188.769 84.26 188.769 83.22C188.769 82.52 188.949 81.86 189.309 81.24C189.669 80.62 190.189 80.06 190.869 79.56C191.569 79.04 192.439 78.6 193.479 78.24L195.009 80.22C194.089 80.52 193.419 80.89 192.999 81.33C192.599 81.79 192.399 82.28 192.399 82.8C192.399 83.26 192.549 83.65 192.849 83.97C193.169 84.29 193.589 84.52 194.109 84.66C194.649 84.82 195.249 84.9 195.909 84.9C196.549 84.9 197.099 84.82 197.559 84.66C198.039 84.5 198.409 84.26 198.669 83.94C198.949 83.64 199.089 83.28 199.089 82.86C199.089 82.32 198.899 81.88 198.519 81.54C198.139 81.2 197.379 80.99 196.239 80.91C195.219 80.83 194.309 80.72 193.509 80.58C192.729 80.42 192.039 80.24 191.439 80.04C190.839 79.82 190.329 79.58 189.909 79.32C189.509 79.06 189.179 78.8 188.919 78.54V77.85L192.129 74.4L195.039 75.33L191.259 79.05L192.399 77.07C192.619 77.19 192.829 77.31 193.029 77.43C193.249 77.53 193.519 77.63 193.839 77.73C194.159 77.81 194.579 77.89 195.099 77.97C195.619 78.05 196.279 78.12 197.079 78.18C198.399 78.3 199.479 78.55 200.319 78.93C201.179 79.31 201.809 79.82 202.209 80.46C202.609 81.08 202.809 81.85 202.809 82.77C202.809 83.67 202.559 84.51 202.059 85.29C201.579 86.09 200.829 86.73 199.809 87.21C198.789 87.71 197.499 87.96 195.939 87.96ZM195.939 76.53C194.679 76.53 193.589 76.29 192.669 75.81C191.769 75.31 191.069 74.65 190.569 73.83C190.089 72.99 189.849 72.06 189.849 71.04C189.849 70.02 190.089 69.1 190.569 68.28C191.069 67.44 191.769 66.77 192.669 66.27C193.589 65.77 194.679 65.52 195.939 65.52C197.219 65.52 198.309 65.77 199.209 66.27C200.129 66.77 200.829 67.44 201.309 68.28C201.789 69.1 202.029 70.02 202.029 71.04C202.029 72.06 201.789 72.99 201.309 73.83C200.829 74.65 200.129 75.31 199.209 75.81C198.309 76.29 197.219 76.53 195.939 76.53ZM195.939 73.44C196.719 73.44 197.349 73.24 197.829 72.84C198.309 72.44 198.549 71.85 198.549 71.07C198.549 70.29 198.309 69.7 197.829 69.3C197.349 68.88 196.719 68.67 195.939 68.67C195.179 68.67 194.549 68.88 194.049 69.3C193.569 69.7 193.329 70.29 193.329 71.07C193.329 71.85 193.569 72.44 194.049 72.84C194.549 73.24 195.179 73.44 195.939 73.44ZM198.459 68.76L197.799 65.88H204.009V68.28L198.459 68.76ZM221.681 81.36C220.161 81.36 218.801 81.1 217.601 80.58C216.421 80.06 215.481 79.3 214.781 78.3C214.101 77.3 213.751 76.09 213.731 74.67H218.021C218.041 75.29 218.201 75.85 218.501 76.35C218.801 76.85 219.211 77.25 219.731 77.55C220.271 77.83 220.911 77.97 221.651 77.97C222.291 77.97 222.841 77.87 223.301 77.67C223.781 77.45 224.151 77.15 224.411 76.77C224.671 76.39 224.801 75.94 224.801 75.42C224.801 74.82 224.651 74.32 224.351 73.92C224.071 73.52 223.671 73.18 223.151 72.9C222.651 72.62 222.061 72.37 221.381 72.15C220.721 71.91 220.021 71.66 219.281 71.4C217.621 70.86 216.351 70.14 215.471 69.24C214.611 68.34 214.181 67.15 214.181 65.67C214.181 64.41 214.481 63.33 215.081 62.43C215.701 61.53 216.551 60.84 217.631 60.36C218.711 59.88 219.941 59.64 221.321 59.64C222.741 59.64 223.981 59.89 225.041 60.39C226.121 60.87 226.971 61.57 227.591 62.49C228.231 63.41 228.561 64.49 228.581 65.73H224.261C224.241 65.27 224.101 64.84 223.841 64.44C223.601 64.02 223.261 63.69 222.821 63.45C222.381 63.19 221.861 63.06 221.261 63.06C220.741 63.04 220.261 63.12 219.821 63.3C219.401 63.48 219.061 63.75 218.801 64.11C218.561 64.45 218.441 64.88 218.441 65.4C218.441 65.9 218.561 66.32 218.801 66.66C219.061 67 219.411 67.3 219.851 67.56C220.291 67.8 220.811 68.03 221.411 68.25C222.011 68.45 222.661 68.66 223.361 68.88C224.401 69.24 225.361 69.67 226.241 70.17C227.121 70.65 227.821 71.28 228.341 72.06C228.861 72.84 229.121 73.87 229.121 75.15C229.121 76.25 228.831 77.27 228.251 78.21C227.671 79.15 226.831 79.91 225.731 80.49C224.651 81.07 223.301 81.36 221.681 81.36ZM239.606 81.36C238.166 81.36 236.866 81.03 235.706 80.37C234.566 79.69 233.656 78.76 232.976 77.58C232.316 76.38 231.986 75.01 231.986 73.47C231.986 71.89 232.316 70.51 232.976 69.33C233.656 68.13 234.576 67.2 235.736 66.54C236.896 65.86 238.196 65.52 239.636 65.52C241.096 65.52 242.396 65.86 243.536 66.54C244.696 67.2 245.606 68.13 246.266 69.33C246.946 70.51 247.286 71.88 247.286 73.44C247.286 75 246.946 76.38 246.266 77.58C245.606 78.76 244.696 79.69 243.536 80.37C242.376 81.03 241.066 81.36 239.606 81.36ZM239.606 77.85C240.286 77.85 240.886 77.69 241.406 77.37C241.946 77.05 242.366 76.56 242.666 75.9C242.986 75.24 243.146 74.42 243.146 73.44C243.146 72.46 242.986 71.65 242.666 71.01C242.366 70.35 241.946 69.86 241.406 69.54C240.886 69.2 240.296 69.03 239.636 69.03C238.996 69.03 238.406 69.2 237.866 69.54C237.326 69.86 236.896 70.35 236.576 71.01C236.276 71.65 236.126 72.46 236.126 73.44C236.126 74.42 236.276 75.24 236.576 75.9C236.896 76.56 237.316 77.05 237.836 77.37C238.376 77.69 238.966 77.85 239.606 77.85ZM257.917 81.36C256.477 81.36 255.177 81.03 254.017 80.37C252.877 79.69 251.967 78.76 251.287 77.58C250.627 76.38 250.297 75.01 250.297 73.47C250.297 71.89 250.627 70.51 251.287 69.33C251.967 68.13 252.887 67.2 254.047 66.54C255.207 65.86 256.507 65.52 257.947 65.52C259.407 65.52 260.707 65.86 261.847 66.54C263.007 67.2 263.917 68.13 264.577 69.33C265.257 70.51 265.597 71.88 265.597 73.44C265.597 75 265.257 76.38 264.577 77.58C263.917 78.76 263.007 79.69 261.847 80.37C260.687 81.03 259.377 81.36 257.917 81.36ZM257.917 77.85C258.597 77.85 259.197 77.69 259.717 77.37C260.257 77.05 260.677 76.56 260.977 75.9C261.297 75.24 261.457 74.42 261.457 73.44C261.457 72.46 261.297 71.65 260.977 71.01C260.677 70.35 260.257 69.86 259.717 69.54C259.197 69.2 258.607 69.03 257.947 69.03C257.307 69.03 256.717 69.2 256.177 69.54C255.637 69.86 255.207 70.35 254.887 71.01C254.587 71.65 254.437 72.46 254.437 73.44C254.437 74.42 254.587 75.24 254.887 75.9C255.207 76.56 255.627 77.05 256.147 77.37C256.687 77.69 257.277 77.85 257.917 77.85ZM269.087 81V65.88H272.657L272.957 68.34C273.417 67.5 274.067 66.82 274.907 66.3C275.767 65.78 276.787 65.52 277.967 65.52C279.227 65.52 280.287 65.78 281.147 66.3C282.007 66.82 282.657 67.58 283.097 68.58C283.557 69.58 283.787 70.81 283.787 72.27V81H279.767V72.66C279.767 71.46 279.507 70.54 278.987 69.9C278.487 69.26 277.707 68.94 276.647 68.94C275.967 68.94 275.357 69.1 274.817 69.42C274.297 69.74 273.887 70.2 273.587 70.8C273.287 71.38 273.137 72.09 273.137 72.93V81H269.087Z" fill="white"/>
</svg>
