<svg width="457" height="90" viewBox="0 0 457 90" fill="none" xmlns="http://www.w3.org/2000/svg">
<path d="M12.8125 11.7891V31.3594H17.0703C17.4609 31.3594 17.7409 31.4375 17.9102 31.5938C18.0794 31.737 18.1641 31.9323 18.1641 32.1797C18.1641 32.4141 18.0794 32.6094 17.9102 32.7656C17.7409 32.9219 17.4609 33 17.0703 33H6.89453C6.50391 33 6.22396 32.9219 6.05469 32.7656C5.88542 32.6094 5.80078 32.4141 5.80078 32.1797C5.80078 31.9323 5.88542 31.737 6.05469 31.5938C6.22396 31.4375 6.50391 31.3594 6.89453 31.3594H11.1523V11.7891H4.43359V17.4727C4.43359 17.8763 4.35547 18.1628 4.19922 18.332C4.05599 18.5013 3.86068 18.5859 3.61328 18.5859C3.37891 18.5859 3.18359 18.5013 3.02734 18.332C2.87109 18.1628 2.79297 17.8763 2.79297 17.4727V10.1484H21.1719V17.4727C21.1719 17.8763 21.0938 18.1628 20.9375 18.332C20.7943 18.5013 20.599 18.5859 20.3516 18.5859C20.1042 18.5859 19.9023 18.5013 19.7461 18.332C19.6029 18.1628 19.5312 17.8763 19.5312 17.4727V11.7891H12.8125ZM30.625 8.48828V18.5859C31.6667 17.4531 32.6628 16.6589 33.6133 16.2031C34.5768 15.7344 35.651 15.5 36.8359 15.5C38.112 15.5 39.1927 15.7279 40.0781 16.1836C40.9766 16.6263 41.7253 17.3164 42.3242 18.2539C42.9232 19.1784 43.2227 20.1549 43.2227 21.1836V31.3594H45.0586C45.4622 31.3594 45.7422 31.4375 45.8984 31.5938C46.0677 31.737 46.1523 31.9323 46.1523 32.1797C46.1523 32.4141 46.0677 32.6094 45.8984 32.7656C45.7422 32.9219 45.4622 33 45.0586 33H39.7266C39.3229 33 39.0365 32.9219 38.8672 32.7656C38.6979 32.6094 38.6133 32.4141 38.6133 32.1797C38.6133 31.9323 38.6979 31.737 38.8672 31.5938C39.0365 31.4375 39.3229 31.3594 39.7266 31.3594H41.5625V21.3008C41.5625 20.1159 41.1328 19.1263 40.2734 18.332C39.4271 17.5378 38.2422 17.1406 36.7188 17.1406C35.5208 17.1406 34.4987 17.4336 33.6523 18.0195C33.0404 18.4362 32.0312 19.4193 30.625 20.9688V31.3594H32.4805C32.8711 31.3594 33.151 31.4375 33.3203 31.5938C33.4896 31.737 33.5742 31.9323 33.5742 32.1797C33.5742 32.4141 33.4896 32.6094 33.3203 32.7656C33.151 32.9219 32.8711 33 32.4805 33H27.1289C26.7383 33 26.4583 32.9219 26.2891 32.7656C26.1198 32.6094 26.0352 32.4141 26.0352 32.1797C26.0352 31.9323 26.1198 31.737 26.2891 31.5938C26.4583 31.4375 26.7383 31.3594 27.1289 31.3594H28.9844V10.1484H26.7773C26.3867 10.1484 26.1068 10.0703 25.9375 9.91406C25.7682 9.75781 25.6836 9.55599 25.6836 9.30859C25.6836 9.07422 25.7682 8.87891 25.9375 8.72266C26.1068 8.56641 26.3867 8.48828 26.7773 8.48828H30.625ZM69.2188 24.582C69.2188 27.082 68.3203 29.2174 66.5234 30.9883C64.7396 32.7591 62.5846 33.6445 60.0586 33.6445C57.5065 33.6445 55.3385 32.7591 53.5547 30.9883C51.7708 29.2044 50.8789 27.069 50.8789 24.582C50.8789 22.082 51.7708 19.9466 53.5547 18.1758C55.3385 16.3919 57.5065 15.5 60.0586 15.5C62.5846 15.5 64.7396 16.3854 66.5234 18.1562C68.3203 19.9271 69.2188 22.069 69.2188 24.582ZM67.5586 24.582C67.5586 22.5247 66.8229 20.7734 65.3516 19.3281C63.8932 17.8828 62.1224 17.1602 60.0391 17.1602C57.9557 17.1602 56.1784 17.8893 54.707 19.3477C53.2487 20.793 52.5195 22.5378 52.5195 24.582C52.5195 26.6133 53.2487 28.3581 54.707 29.8164C56.1784 31.2747 57.9557 32.0039 60.0391 32.0039C62.1224 32.0039 63.8932 31.2812 65.3516 29.8359C66.8229 28.3776 67.5586 26.6263 67.5586 24.582ZM89.6875 33V30.5977C87.4479 32.6289 85.026 33.6445 82.4219 33.6445C80.8203 33.6445 79.6029 33.2083 78.7695 32.3359C77.6888 31.1901 77.1484 29.8555 77.1484 28.332V17.7461H74.9414C74.5508 17.7461 74.2708 17.668 74.1016 17.5117C73.9323 17.3555 73.8477 17.1536 73.8477 16.9062C73.8477 16.6719 73.9323 16.4766 74.1016 16.3203C74.2708 16.1641 74.5508 16.0859 74.9414 16.0859H78.7891V28.332C78.7891 29.3997 79.1276 30.2786 79.8047 30.9688C80.4818 31.6589 81.3281 32.0039 82.3438 32.0039C85.013 32.0039 87.4609 30.7799 89.6875 28.332V17.7461H86.6602C86.2695 17.7461 85.9896 17.668 85.8203 17.5117C85.651 17.3555 85.5664 17.1536 85.5664 16.9062C85.5664 16.6719 85.651 16.4766 85.8203 16.3203C85.9896 16.1641 86.2695 16.0859 86.6602 16.0859H91.3281V31.3594H92.7148C93.1055 31.3594 93.3854 31.4375 93.5547 31.5938C93.724 31.737 93.8086 31.9323 93.8086 32.1797C93.8086 32.4141 93.724 32.6094 93.5547 32.7656C93.3854 32.9219 93.1055 33 92.7148 33H89.6875ZM113.613 19.0938V16.0859H117.461C117.852 16.0859 118.132 16.1641 118.301 16.3203C118.47 16.4766 118.555 16.6784 118.555 16.9258C118.555 17.1602 118.47 17.3555 118.301 17.5117C118.132 17.668 117.852 17.7461 117.461 17.7461H115.254V34.1328C115.254 35.2266 115.02 36.2031 114.551 37.0625C114.238 37.6354 113.717 38.2279 112.988 38.8398C112.259 39.4518 111.595 39.888 110.996 40.1484C110.397 40.4089 109.596 40.5391 108.594 40.5391H103.945C103.555 40.5391 103.275 40.4609 103.105 40.3047C102.936 40.1615 102.852 39.9661 102.852 39.7188C102.852 39.4714 102.936 39.2695 103.105 39.1133C103.275 38.957 103.555 38.8789 103.945 38.8789L108.652 38.8984C109.616 38.8984 110.482 38.651 111.25 38.1562C112.031 37.6615 112.676 36.9388 113.184 35.9883C113.47 35.4414 113.613 34.7448 113.613 33.8984V28.9766C111.855 31.3854 109.59 32.5898 106.816 32.5898C104.564 32.5898 102.617 31.7565 100.977 30.0898C99.349 28.4102 98.5352 26.3919 98.5352 24.0352C98.5352 21.6784 99.349 19.6667 100.977 18C102.617 16.3333 104.564 15.5 106.816 15.5C109.59 15.5 111.855 16.6979 113.613 19.0938ZM113.613 24.0352C113.613 22.1081 112.949 20.4805 111.621 19.1523C110.306 17.8242 108.73 17.1602 106.895 17.1602C105.059 17.1602 103.483 17.8307 102.168 19.1719C100.853 20.5 100.195 22.1211 100.195 24.0352C100.195 25.9622 100.853 27.5964 102.168 28.9375C103.483 30.2656 105.059 30.9297 106.895 30.9297C108.73 30.9297 110.306 30.2656 111.621 28.9375C112.949 27.5964 113.613 25.9622 113.613 24.0352ZM126.719 8.48828V18.5859C127.76 17.4531 128.757 16.6589 129.707 16.2031C130.671 15.7344 131.745 15.5 132.93 15.5C134.206 15.5 135.286 15.7279 136.172 16.1836C137.07 16.6263 137.819 17.3164 138.418 18.2539C139.017 19.1784 139.316 20.1549 139.316 21.1836V31.3594H141.152C141.556 31.3594 141.836 31.4375 141.992 31.5938C142.161 31.737 142.246 31.9323 142.246 32.1797C142.246 32.4141 142.161 32.6094 141.992 32.7656C141.836 32.9219 141.556 33 141.152 33H135.82C135.417 33 135.13 32.9219 134.961 32.7656C134.792 32.6094 134.707 32.4141 134.707 32.1797C134.707 31.9323 134.792 31.737 134.961 31.5938C135.13 31.4375 135.417 31.3594 135.82 31.3594H137.656V21.3008C137.656 20.1159 137.227 19.1263 136.367 18.332C135.521 17.5378 134.336 17.1406 132.812 17.1406C131.615 17.1406 130.592 17.4336 129.746 18.0195C129.134 18.4362 128.125 19.4193 126.719 20.9688V31.3594H128.574C128.965 31.3594 129.245 31.4375 129.414 31.5938C129.583 31.737 129.668 31.9323 129.668 32.1797C129.668 32.4141 129.583 32.6094 129.414 32.7656C129.245 32.9219 128.965 33 128.574 33H123.223C122.832 33 122.552 32.9219 122.383 32.7656C122.214 32.6094 122.129 32.4141 122.129 32.1797C122.129 31.9323 122.214 31.737 122.383 31.5938C122.552 31.4375 122.832 31.3594 123.223 31.3594H125.078V10.1484H122.871C122.48 10.1484 122.201 10.0703 122.031 9.91406C121.862 9.75781 121.777 9.55599 121.777 9.30859C121.777 9.07422 121.862 8.87891 122.031 8.72266C122.201 8.56641 122.48 8.48828 122.871 8.48828H126.719ZM152.773 16.0859H161.68C162.07 16.0859 162.35 16.1641 162.52 16.3203C162.689 16.4766 162.773 16.6784 162.773 16.9258C162.773 17.1602 162.689 17.3555 162.52 17.5117C162.35 17.668 162.07 17.7461 161.68 17.7461H152.773V28.6641C152.773 29.6146 153.151 30.4089 153.906 31.0469C154.674 31.6849 155.794 32.0039 157.266 32.0039C158.372 32.0039 159.57 31.8411 160.859 31.5156C162.148 31.1771 163.151 30.7995 163.867 30.3828C164.128 30.2135 164.342 30.1289 164.512 30.1289C164.72 30.1289 164.902 30.2135 165.059 30.3828C165.215 30.5391 165.293 30.7279 165.293 30.9492C165.293 31.1445 165.208 31.3268 165.039 31.4961C164.622 31.9258 163.607 32.3945 161.992 32.9023C160.391 33.3971 158.854 33.6445 157.383 33.6445C155.469 33.6445 153.945 33.1953 152.812 32.2969C151.68 31.3984 151.113 30.1875 151.113 28.6641V17.7461H148.086C147.695 17.7461 147.415 17.668 147.246 17.5117C147.077 17.3555 146.992 17.1536 146.992 16.9062C146.992 16.6719 147.077 16.4766 147.246 16.3203C147.415 16.1641 147.695 16.0859 148.086 16.0859H151.113V11.2422C151.113 10.8516 151.191 10.5716 151.348 10.4023C151.504 10.2331 151.699 10.1484 151.934 10.1484C152.181 10.1484 152.383 10.2331 152.539 10.4023C152.695 10.5716 152.773 10.8516 152.773 11.2422V16.0859ZM185.586 17.1602C185.586 16.7826 185.664 16.5091 185.82 16.3398C185.977 16.1706 186.172 16.0859 186.406 16.0859C186.654 16.0859 186.855 16.1706 187.012 16.3398C187.168 16.5091 187.246 16.7956 187.246 17.1992V20.0117C187.246 20.4023 187.168 20.6823 187.012 20.8516C186.855 21.0208 186.654 21.1055 186.406 21.1055C186.185 21.1055 185.996 21.0339 185.84 20.8906C185.697 20.7474 185.612 20.513 185.586 20.1875C185.508 19.4062 185.104 18.7617 184.375 18.2539C183.307 17.5247 181.895 17.1602 180.137 17.1602C178.301 17.1602 176.875 17.5312 175.859 18.2734C175.091 18.8333 174.707 19.4583 174.707 20.1484C174.707 20.9297 175.163 21.5807 176.074 22.1016C176.699 22.4661 177.884 22.7461 179.629 22.9414C181.908 23.1888 183.49 23.4688 184.375 23.7812C185.638 24.237 186.576 24.8685 187.188 25.6758C187.812 26.4831 188.125 27.3555 188.125 28.293C188.125 29.6862 187.454 30.9297 186.113 32.0234C184.772 33.1042 182.806 33.6445 180.215 33.6445C177.624 33.6445 175.501 32.987 173.848 31.6719C173.848 32.1146 173.822 32.401 173.77 32.5312C173.717 32.6615 173.62 32.7721 173.477 32.8633C173.346 32.9544 173.197 33 173.027 33C172.793 33 172.598 32.9154 172.441 32.7461C172.285 32.5768 172.207 32.2969 172.207 31.9062V28.5273C172.207 28.1367 172.279 27.8568 172.422 27.6875C172.578 27.5182 172.78 27.4336 173.027 27.4336C173.262 27.4336 173.457 27.5182 173.613 27.6875C173.783 27.8438 173.867 28.0586 173.867 28.332C173.867 28.931 174.017 29.4323 174.316 29.8359C174.772 30.4609 175.495 30.9818 176.484 31.3984C177.487 31.8021 178.711 32.0039 180.156 32.0039C182.292 32.0039 183.88 31.6068 184.922 30.8125C185.964 30.0182 186.484 29.1784 186.484 28.293C186.484 27.2773 185.957 26.4635 184.902 25.8516C183.835 25.2396 182.279 24.8294 180.234 24.6211C178.203 24.4128 176.745 24.1393 175.859 23.8008C174.974 23.4622 174.284 22.9544 173.789 22.2773C173.294 21.6003 173.047 20.8711 173.047 20.0898C173.047 18.6836 173.737 17.5703 175.117 16.75C176.497 15.9167 178.145 15.5 180.059 15.5C182.324 15.5 184.167 16.0534 185.586 17.1602ZM232.852 33L231.602 31.0664C230.43 32.7852 228.919 33.6445 227.07 33.6445C225.508 33.6445 224.134 33.026 222.949 31.7891C221.764 30.5521 221.172 29.0417 221.172 27.2578C221.172 25.8776 221.569 24.6536 222.363 23.5859C223.171 22.5182 224.277 21.776 225.684 21.3594C224.72 19.8099 224.141 18.7943 223.945 18.3125C223.763 17.8177 223.672 17.3099 223.672 16.7891C223.672 15.5 224.16 14.3737 225.137 13.4102C226.113 12.4336 227.285 11.9453 228.652 11.9453C229.095 11.9453 229.538 12.0104 229.98 12.1406C230.423 12.2708 230.866 12.4727 231.309 12.7461C231.868 12.4596 232.214 12.3164 232.344 12.3164C232.565 12.3164 232.754 12.401 232.91 12.5703C233.079 12.7266 233.164 12.9219 233.164 13.1562C233.164 13.3125 233.118 13.4557 233.027 13.5859C232.936 13.7161 232.754 13.8529 232.48 13.9961L231.211 14.6797C230.807 14.3151 230.391 14.0482 229.961 13.8789C229.544 13.6966 229.115 13.6055 228.672 13.6055C227.773 13.6055 226.986 13.9375 226.309 14.6016C225.645 15.2656 225.312 16.0078 225.312 16.8281C225.312 17.6745 225.898 19.0286 227.07 20.8906L231.602 28.0977C232.396 26.6003 233.021 24.8685 233.477 22.9023H235.078C235.469 22.9023 235.749 22.9805 235.918 23.1367C236.087 23.293 236.172 23.4883 236.172 23.7227C236.172 23.8919 236.12 24.0482 236.016 24.1914C235.924 24.3346 235.814 24.4323 235.684 24.4844C235.553 24.5365 235.234 24.5625 234.727 24.5625C234.102 26.763 233.385 28.4688 232.578 29.6797L233.691 31.3594H235.078C235.469 31.3594 235.749 31.4375 235.918 31.5938C236.087 31.737 236.172 31.9323 236.172 32.1797C236.172 32.4141 236.087 32.6094 235.918 32.7656C235.749 32.9219 235.469 33 235.078 33H232.852ZM226.387 22.8047C225.293 23.0651 224.421 23.599 223.77 24.4062C223.132 25.2005 222.812 26.151 222.812 27.2578C222.812 28.5729 223.242 29.6927 224.102 30.6172C224.974 31.5417 225.951 32.0039 227.031 32.0039C228.49 32.0039 229.694 31.1836 230.645 29.543L226.387 22.8047ZM277.09 11.7891V31.3594H282.715C283.105 31.3594 283.385 31.4375 283.555 31.5938C283.724 31.737 283.809 31.9323 283.809 32.1797C283.809 32.4141 283.724 32.6094 283.555 32.7656C283.385 32.9219 283.105 33 282.715 33H269.824C269.434 33 269.154 32.9219 268.984 32.7656C268.815 32.6094 268.73 32.4141 268.73 32.1797C268.73 31.9323 268.815 31.737 268.984 31.5938C269.154 31.4375 269.434 31.3594 269.824 31.3594H275.449V11.7891H269.824C269.434 11.7891 269.154 11.7174 268.984 11.5742C268.815 11.418 268.73 11.2161 268.73 10.9688C268.73 10.7214 268.815 10.526 268.984 10.3828C269.154 10.2266 269.434 10.1484 269.824 10.1484H282.715C283.105 10.1484 283.385 10.2266 283.555 10.3828C283.724 10.526 283.809 10.7214 283.809 10.9688C283.809 11.2161 283.724 11.418 283.555 11.5742C283.385 11.7174 283.105 11.7891 282.715 11.7891H277.09ZM294.98 16.0859V18.5664C296.126 17.4076 297.161 16.6068 298.086 16.1641C299.01 15.7214 300.052 15.5 301.211 15.5C302.461 15.5 303.6 15.7669 304.629 16.3008C305.358 16.6914 306.016 17.3424 306.602 18.2539C307.201 19.1523 307.5 20.0768 307.5 21.0273V31.3594H308.887C309.277 31.3594 309.557 31.4375 309.727 31.5938C309.896 31.737 309.98 31.9323 309.98 32.1797C309.98 32.4141 309.896 32.6094 309.727 32.7656C309.557 32.9219 309.277 33 308.887 33H304.492C304.089 33 303.802 32.9219 303.633 32.7656C303.464 32.6094 303.379 32.4141 303.379 32.1797C303.379 31.9323 303.464 31.737 303.633 31.5938C303.802 31.4375 304.089 31.3594 304.492 31.3594H305.859V21.3008C305.859 20.1419 305.436 19.1654 304.59 18.3711C303.743 17.5638 302.611 17.1602 301.191 17.1602C300.111 17.1602 299.173 17.3815 298.379 17.8242C297.585 18.2539 296.452 19.3346 294.98 21.0664V31.3594H296.836C297.227 31.3594 297.507 31.4375 297.676 31.5938C297.845 31.737 297.93 31.9323 297.93 32.1797C297.93 32.4141 297.845 32.6094 297.676 32.7656C297.507 32.9219 297.227 33 296.836 33H291.484C291.094 33 290.814 32.9219 290.645 32.7656C290.475 32.6094 290.391 32.4141 290.391 32.1797C290.391 31.9323 290.475 31.737 290.645 31.5938C290.814 31.4375 291.094 31.3594 291.484 31.3594H293.34V17.7461H291.953C291.562 17.7461 291.283 17.668 291.113 17.5117C290.944 17.3555 290.859 17.1536 290.859 16.9062C290.859 16.6719 290.944 16.4766 291.113 16.3203C291.283 16.1641 291.562 16.0859 291.953 16.0859H294.98ZM329.727 17.1602C329.727 16.7826 329.805 16.5091 329.961 16.3398C330.117 16.1706 330.312 16.0859 330.547 16.0859C330.794 16.0859 330.996 16.1706 331.152 16.3398C331.309 16.5091 331.387 16.7956 331.387 17.1992V20.0117C331.387 20.4023 331.309 20.6823 331.152 20.8516C330.996 21.0208 330.794 21.1055 330.547 21.1055C330.326 21.1055 330.137 21.0339 329.98 20.8906C329.837 20.7474 329.753 20.513 329.727 20.1875C329.648 19.4062 329.245 18.7617 328.516 18.2539C327.448 17.5247 326.035 17.1602 324.277 17.1602C322.441 17.1602 321.016 17.5312 320 18.2734C319.232 18.8333 318.848 19.4583 318.848 20.1484C318.848 20.9297 319.303 21.5807 320.215 22.1016C320.84 22.4661 322.025 22.7461 323.77 22.9414C326.048 23.1888 327.63 23.4688 328.516 23.7812C329.779 24.237 330.716 24.8685 331.328 25.6758C331.953 26.4831 332.266 27.3555 332.266 28.293C332.266 29.6862 331.595 30.9297 330.254 32.0234C328.913 33.1042 326.947 33.6445 324.355 33.6445C321.764 33.6445 319.642 32.987 317.988 31.6719C317.988 32.1146 317.962 32.401 317.91 32.5312C317.858 32.6615 317.76 32.7721 317.617 32.8633C317.487 32.9544 317.337 33 317.168 33C316.934 33 316.738 32.9154 316.582 32.7461C316.426 32.5768 316.348 32.2969 316.348 31.9062V28.5273C316.348 28.1367 316.419 27.8568 316.562 27.6875C316.719 27.5182 316.921 27.4336 317.168 27.4336C317.402 27.4336 317.598 27.5182 317.754 27.6875C317.923 27.8438 318.008 28.0586 318.008 28.332C318.008 28.931 318.158 29.4323 318.457 29.8359C318.913 30.4609 319.635 30.9818 320.625 31.3984C321.628 31.8021 322.852 32.0039 324.297 32.0039C326.432 32.0039 328.021 31.6068 329.062 30.8125C330.104 30.0182 330.625 29.1784 330.625 28.293C330.625 27.2773 330.098 26.4635 329.043 25.8516C327.975 25.2396 326.419 24.8294 324.375 24.6211C322.344 24.4128 320.885 24.1393 320 23.8008C319.115 23.4622 318.424 22.9544 317.93 22.2773C317.435 21.6003 317.188 20.8711 317.188 20.0898C317.188 18.6836 317.878 17.5703 319.258 16.75C320.638 15.9167 322.285 15.5 324.199 15.5C326.465 15.5 328.307 16.0534 329.727 17.1602ZM349.141 7.66797V11.9062H346.719V7.66797H349.141ZM349.199 16.0859V31.3594H355.645C356.048 31.3594 356.335 31.4375 356.504 31.5938C356.673 31.737 356.758 31.9323 356.758 32.1797C356.758 32.4141 356.673 32.6094 356.504 32.7656C356.335 32.9219 356.048 33 355.645 33H341.113C340.723 33 340.443 32.9219 340.273 32.7656C340.104 32.6094 340.02 32.4141 340.02 32.1797C340.02 31.9323 340.104 31.737 340.273 31.5938C340.443 31.4375 340.723 31.3594 341.113 31.3594H347.559V17.7461H342.773C342.383 17.7461 342.096 17.668 341.914 17.5117C341.745 17.3555 341.66 17.1602 341.66 16.9258C341.66 16.6784 341.745 16.4766 341.914 16.3203C342.083 16.1641 342.37 16.0859 342.773 16.0859H349.199ZM377.871 19.0938V16.0859H381.719C382.109 16.0859 382.389 16.1641 382.559 16.3203C382.728 16.4766 382.812 16.6784 382.812 16.9258C382.812 17.1602 382.728 17.3555 382.559 17.5117C382.389 17.668 382.109 17.7461 381.719 17.7461H379.512V34.1328C379.512 35.2266 379.277 36.2031 378.809 37.0625C378.496 37.6354 377.975 38.2279 377.246 38.8398C376.517 39.4518 375.853 39.888 375.254 40.1484C374.655 40.4089 373.854 40.5391 372.852 40.5391H368.203C367.812 40.5391 367.533 40.4609 367.363 40.3047C367.194 40.1615 367.109 39.9661 367.109 39.7188C367.109 39.4714 367.194 39.2695 367.363 39.1133C367.533 38.957 367.812 38.8789 368.203 38.8789L372.91 38.8984C373.874 38.8984 374.74 38.651 375.508 38.1562C376.289 37.6615 376.934 36.9388 377.441 35.9883C377.728 35.4414 377.871 34.7448 377.871 33.8984V28.9766C376.113 31.3854 373.848 32.5898 371.074 32.5898C368.822 32.5898 366.875 31.7565 365.234 30.0898C363.607 28.4102 362.793 26.3919 362.793 24.0352C362.793 21.6784 363.607 19.6667 365.234 18C366.875 16.3333 368.822 15.5 371.074 15.5C373.848 15.5 376.113 16.6979 377.871 19.0938ZM377.871 24.0352C377.871 22.1081 377.207 20.4805 375.879 19.1523C374.564 17.8242 372.988 17.1602 371.152 17.1602C369.316 17.1602 367.741 17.8307 366.426 19.1719C365.111 20.5 364.453 22.1211 364.453 24.0352C364.453 25.9622 365.111 27.5964 366.426 28.9375C367.741 30.2656 369.316 30.9297 371.152 30.9297C372.988 30.9297 374.564 30.2656 375.879 28.9375C377.207 27.5964 377.871 25.9622 377.871 24.0352ZM390.977 8.48828V18.5859C392.018 17.4531 393.014 16.6589 393.965 16.2031C394.928 15.7344 396.003 15.5 397.188 15.5C398.464 15.5 399.544 15.7279 400.43 16.1836C401.328 16.6263 402.077 17.3164 402.676 18.2539C403.275 19.1784 403.574 20.1549 403.574 21.1836V31.3594H405.41C405.814 31.3594 406.094 31.4375 406.25 31.5938C406.419 31.737 406.504 31.9323 406.504 32.1797C406.504 32.4141 406.419 32.6094 406.25 32.7656C406.094 32.9219 405.814 33 405.41 33H400.078C399.674 33 399.388 32.9219 399.219 32.7656C399.049 32.6094 398.965 32.4141 398.965 32.1797C398.965 31.9323 399.049 31.737 399.219 31.5938C399.388 31.4375 399.674 31.3594 400.078 31.3594H401.914V21.3008C401.914 20.1159 401.484 19.1263 400.625 18.332C399.779 17.5378 398.594 17.1406 397.07 17.1406C395.872 17.1406 394.85 17.4336 394.004 18.0195C393.392 18.4362 392.383 19.4193 390.977 20.9688V31.3594H392.832C393.223 31.3594 393.503 31.4375 393.672 31.5938C393.841 31.737 393.926 31.9323 393.926 32.1797C393.926 32.4141 393.841 32.6094 393.672 32.7656C393.503 32.9219 393.223 33 392.832 33H387.48C387.09 33 386.81 32.9219 386.641 32.7656C386.471 32.6094 386.387 32.4141 386.387 32.1797C386.387 31.9323 386.471 31.737 386.641 31.5938C386.81 31.4375 387.09 31.3594 387.48 31.3594H389.336V10.1484H387.129C386.738 10.1484 386.458 10.0703 386.289 9.91406C386.12 9.75781 386.035 9.55599 386.035 9.30859C386.035 9.07422 386.12 8.87891 386.289 8.72266C386.458 8.56641 386.738 8.48828 387.129 8.48828H390.977ZM417.031 16.0859H425.938C426.328 16.0859 426.608 16.1641 426.777 16.3203C426.947 16.4766 427.031 16.6784 427.031 16.9258C427.031 17.1602 426.947 17.3555 426.777 17.5117C426.608 17.668 426.328 17.7461 425.938 17.7461H417.031V28.6641C417.031 29.6146 417.409 30.4089 418.164 31.0469C418.932 31.6849 420.052 32.0039 421.523 32.0039C422.63 32.0039 423.828 31.8411 425.117 31.5156C426.406 31.1771 427.409 30.7995 428.125 30.3828C428.385 30.2135 428.6 30.1289 428.77 30.1289C428.978 30.1289 429.16 30.2135 429.316 30.3828C429.473 30.5391 429.551 30.7279 429.551 30.9492C429.551 31.1445 429.466 31.3268 429.297 31.4961C428.88 31.9258 427.865 32.3945 426.25 32.9023C424.648 33.3971 423.112 33.6445 421.641 33.6445C419.727 33.6445 418.203 33.1953 417.07 32.2969C415.938 31.3984 415.371 30.1875 415.371 28.6641V17.7461H412.344C411.953 17.7461 411.673 17.668 411.504 17.5117C411.335 17.3555 411.25 17.1536 411.25 16.9062C411.25 16.6719 411.335 16.4766 411.504 16.3203C411.673 16.1641 411.953 16.0859 412.344 16.0859H415.371V11.2422C415.371 10.8516 415.449 10.5716 415.605 10.4023C415.762 10.2331 415.957 10.1484 416.191 10.1484C416.439 10.1484 416.641 10.2331 416.797 10.4023C416.953 10.5716 417.031 10.8516 417.031 11.2422V16.0859ZM449.844 17.1602C449.844 16.7826 449.922 16.5091 450.078 16.3398C450.234 16.1706 450.43 16.0859 450.664 16.0859C450.911 16.0859 451.113 16.1706 451.27 16.3398C451.426 16.5091 451.504 16.7956 451.504 17.1992V20.0117C451.504 20.4023 451.426 20.6823 451.27 20.8516C451.113 21.0208 450.911 21.1055 450.664 21.1055C450.443 21.1055 450.254 21.0339 450.098 20.8906C449.954 20.7474 449.87 20.513 449.844 20.1875C449.766 19.4062 449.362 18.7617 448.633 18.2539C447.565 17.5247 446.152 17.1602 444.395 17.1602C442.559 17.1602 441.133 17.5312 440.117 18.2734C439.349 18.8333 438.965 19.4583 438.965 20.1484C438.965 20.9297 439.421 21.5807 440.332 22.1016C440.957 22.4661 442.142 22.7461 443.887 22.9414C446.165 23.1888 447.747 23.4688 448.633 23.7812C449.896 24.237 450.833 24.8685 451.445 25.6758C452.07 26.4831 452.383 27.3555 452.383 28.293C452.383 29.6862 451.712 30.9297 450.371 32.0234C449.03 33.1042 447.064 33.6445 444.473 33.6445C441.882 33.6445 439.759 32.987 438.105 31.6719C438.105 32.1146 438.079 32.401 438.027 32.5312C437.975 32.6615 437.878 32.7721 437.734 32.8633C437.604 32.9544 437.454 33 437.285 33C437.051 33 436.855 32.9154 436.699 32.7461C436.543 32.5768 436.465 32.2969 436.465 31.9062V28.5273C436.465 28.1367 436.536 27.8568 436.68 27.6875C436.836 27.5182 437.038 27.4336 437.285 27.4336C437.52 27.4336 437.715 27.5182 437.871 27.6875C438.04 27.8438 438.125 28.0586 438.125 28.332C438.125 28.931 438.275 29.4323 438.574 29.8359C439.03 30.4609 439.753 30.9818 440.742 31.3984C441.745 31.8021 442.969 32.0039 444.414 32.0039C446.549 32.0039 448.138 31.6068 449.18 30.8125C450.221 30.0182 450.742 29.1784 450.742 28.293C450.742 27.2773 450.215 26.4635 449.16 25.8516C448.092 25.2396 446.536 24.8294 444.492 24.6211C442.461 24.4128 441.003 24.1393 440.117 23.8008C439.232 23.4622 438.542 22.9544 438.047 22.2773C437.552 21.6003 437.305 20.8711 437.305 20.0898C437.305 18.6836 437.995 17.5703 439.375 16.75C440.755 15.9167 442.402 15.5 444.316 15.5C446.582 15.5 448.424 16.0534 449.844 17.1602Z" fill="white"/>
<line x1="43" y1="47.5" x2="421" y2="47.5" stroke="white"/>
<path d="M146.49 81.36C144.39 81.36 142.58 80.91 141.06 80.01C139.56 79.09 138.4 77.82 137.58 76.2C136.78 74.56 136.38 72.67 136.38 70.53C136.38 68.39 136.78 66.5 137.58 64.86C138.4 63.22 139.56 61.94 141.06 61.02C142.58 60.1 144.39 59.64 146.49 59.64C149.03 59.64 151.11 60.27 152.73 61.53C154.35 62.79 155.36 64.57 155.76 66.87H151.35C151.09 65.75 150.54 64.88 149.7 64.26C148.88 63.62 147.8 63.3 146.46 63.3C145.22 63.3 144.15 63.6 143.25 64.2C142.37 64.78 141.69 65.61 141.21 66.69C140.73 67.75 140.49 69.03 140.49 70.53C140.49 72.01 140.73 73.29 141.21 74.37C141.69 75.45 142.37 76.28 143.25 76.86C144.15 77.44 145.22 77.73 146.46 77.73C147.8 77.73 148.88 77.44 149.7 76.86C150.52 76.26 151.06 75.43 151.32 74.37H155.76C155.36 76.55 154.35 78.26 152.73 79.5C151.11 80.74 149.03 81.36 146.49 81.36ZM166.268 81.36C164.828 81.36 163.528 81.03 162.368 80.37C161.228 79.69 160.318 78.76 159.638 77.58C158.978 76.38 158.648 75.01 158.648 73.47C158.648 71.89 158.978 70.51 159.638 69.33C160.318 68.13 161.238 67.2 162.398 66.54C163.558 65.86 164.858 65.52 166.298 65.52C167.758 65.52 169.058 65.86 170.198 66.54C171.358 67.2 172.268 68.13 172.928 69.33C173.608 70.51 173.948 71.88 173.948 73.44C173.948 75 173.608 76.38 172.928 77.58C172.268 78.76 171.358 79.69 170.198 80.37C169.038 81.03 167.728 81.36 166.268 81.36ZM166.268 77.85C166.948 77.85 167.548 77.69 168.068 77.37C168.608 77.05 169.028 76.56 169.328 75.9C169.648 75.24 169.808 74.42 169.808 73.44C169.808 72.46 169.648 71.65 169.328 71.01C169.028 70.35 168.608 69.86 168.068 69.54C167.548 69.2 166.958 69.03 166.298 69.03C165.658 69.03 165.068 69.2 164.528 69.54C163.988 69.86 163.558 70.35 163.238 71.01C162.938 71.65 162.788 72.46 162.788 73.44C162.788 74.42 162.938 75.24 163.238 75.9C163.558 76.56 163.978 77.05 164.498 77.37C165.038 77.69 165.628 77.85 166.268 77.85ZM177.439 81V65.88H181.009L181.339 67.89C181.819 67.17 182.449 66.6 183.229 66.18C184.029 65.74 184.939 65.52 185.959 65.52C186.719 65.52 187.399 65.62 187.999 65.82C188.599 66.02 189.129 66.31 189.589 66.69C190.069 67.07 190.459 67.55 190.759 68.13C191.319 67.31 192.049 66.67 192.949 66.21C193.849 65.75 194.829 65.52 195.889 65.52C197.209 65.52 198.309 65.79 199.189 66.33C200.069 66.85 200.729 67.61 201.169 68.61C201.629 69.61 201.859 70.84 201.859 72.3V81H197.839V72.66C197.839 71.46 197.599 70.54 197.119 69.9C196.659 69.26 195.939 68.94 194.959 68.94C194.319 68.94 193.749 69.1 193.249 69.42C192.749 69.74 192.359 70.2 192.079 70.8C191.819 71.4 191.689 72.12 191.689 72.96V81H187.639V72.66C187.639 71.46 187.399 70.54 186.919 69.9C186.439 69.26 185.699 68.94 184.699 68.94C184.079 68.94 183.519 69.1 183.019 69.42C182.539 69.74 182.159 70.2 181.879 70.8C181.619 71.4 181.489 72.12 181.489 72.96V81H177.439ZM205.771 81V65.88H209.821V81H205.771ZM207.811 63.81C207.091 63.81 206.491 63.6 206.011 63.18C205.551 62.74 205.321 62.19 205.321 61.53C205.321 60.87 205.551 60.33 206.011 59.91C206.491 59.47 207.091 59.25 207.811 59.25C208.551 59.25 209.151 59.47 209.611 59.91C210.091 60.33 210.331 60.87 210.331 61.53C210.331 62.19 210.091 62.74 209.611 63.18C209.151 63.6 208.551 63.81 207.811 63.81ZM213.914 81V65.88H217.484L217.784 68.34C218.244 67.5 218.894 66.82 219.734 66.3C220.594 65.78 221.614 65.52 222.794 65.52C224.054 65.52 225.114 65.78 225.974 66.3C226.834 66.82 227.484 67.58 227.924 68.58C228.384 69.58 228.614 70.81 228.614 72.27V81H224.594V72.66C224.594 71.46 224.334 70.54 223.814 69.9C223.314 69.26 222.534 68.94 221.474 68.94C220.794 68.94 220.184 69.1 219.644 69.42C219.124 69.74 218.714 70.2 218.414 70.8C218.114 71.38 217.964 72.09 217.964 72.93V81H213.914ZM238.939 87.96C237.499 87.96 236.239 87.78 235.159 87.42C234.079 87.08 233.239 86.55 232.639 85.83C232.059 85.13 231.769 84.26 231.769 83.22C231.769 82.52 231.949 81.86 232.309 81.24C232.669 80.62 233.189 80.06 233.869 79.56C234.569 79.04 235.439 78.6 236.479 78.24L238.009 80.22C237.089 80.52 236.419 80.89 235.999 81.33C235.599 81.79 235.399 82.28 235.399 82.8C235.399 83.26 235.549 83.65 235.849 83.97C236.169 84.29 236.589 84.52 237.109 84.66C237.649 84.82 238.249 84.9 238.909 84.9C239.549 84.9 240.099 84.82 240.559 84.66C241.039 84.5 241.409 84.26 241.669 83.94C241.949 83.64 242.089 83.28 242.089 82.86C242.089 82.32 241.899 81.88 241.519 81.54C241.139 81.2 240.379 80.99 239.239 80.91C238.219 80.83 237.309 80.72 236.509 80.58C235.729 80.42 235.039 80.24 234.439 80.04C233.839 79.82 233.329 79.58 232.909 79.32C232.509 79.06 232.179 78.8 231.919 78.54V77.85L235.129 74.4L238.039 75.33L234.259 79.05L235.399 77.07C235.619 77.19 235.829 77.31 236.029 77.43C236.249 77.53 236.519 77.63 236.839 77.73C237.159 77.81 237.579 77.89 238.099 77.97C238.619 78.05 239.279 78.12 240.079 78.18C241.399 78.3 242.479 78.55 243.319 78.93C244.179 79.31 244.809 79.82 245.209 80.46C245.609 81.08 245.809 81.85 245.809 82.77C245.809 83.67 245.559 84.51 245.059 85.29C244.579 86.09 243.829 86.73 242.809 87.21C241.789 87.71 240.499 87.96 238.939 87.96ZM238.939 76.53C237.679 76.53 236.589 76.29 235.669 75.81C234.769 75.31 234.069 74.65 233.569 73.83C233.089 72.99 232.849 72.06 232.849 71.04C232.849 70.02 233.089 69.1 233.569 68.28C234.069 67.44 234.769 66.77 235.669 66.27C236.589 65.77 237.679 65.52 238.939 65.52C240.219 65.52 241.309 65.77 242.209 66.27C243.129 66.77 243.829 67.44 244.309 68.28C244.789 69.1 245.029 70.02 245.029 71.04C245.029 72.06 244.789 72.99 244.309 73.83C243.829 74.65 243.129 75.31 242.209 75.81C241.309 76.29 240.219 76.53 238.939 76.53ZM238.939 73.44C239.719 73.44 240.349 73.24 240.829 72.84C241.309 72.44 241.549 71.85 241.549 71.07C241.549 70.29 241.309 69.7 240.829 69.3C240.349 68.88 239.719 68.67 238.939 68.67C238.179 68.67 237.549 68.88 237.049 69.3C236.569 69.7 236.329 70.29 236.329 71.07C236.329 71.85 236.569 72.44 237.049 72.84C237.549 73.24 238.179 73.44 238.939 73.44ZM241.459 68.76L240.799 65.88H247.009V68.28L241.459 68.76ZM264.681 81.36C263.161 81.36 261.801 81.1 260.601 80.58C259.421 80.06 258.481 79.3 257.781 78.3C257.101 77.3 256.751 76.09 256.731 74.67H261.021C261.041 75.29 261.201 75.85 261.501 76.35C261.801 76.85 262.211 77.25 262.731 77.55C263.271 77.83 263.911 77.97 264.651 77.97C265.291 77.97 265.841 77.87 266.301 77.67C266.781 77.45 267.151 77.15 267.411 76.77C267.671 76.39 267.801 75.94 267.801 75.42C267.801 74.82 267.651 74.32 267.351 73.92C267.071 73.52 266.671 73.18 266.151 72.9C265.651 72.62 265.061 72.37 264.381 72.15C263.721 71.91 263.021 71.66 262.281 71.4C260.621 70.86 259.351 70.14 258.471 69.24C257.611 68.34 257.181 67.15 257.181 65.67C257.181 64.41 257.481 63.33 258.081 62.43C258.701 61.53 259.551 60.84 260.631 60.36C261.711 59.88 262.941 59.64 264.321 59.64C265.741 59.64 266.981 59.89 268.041 60.39C269.121 60.87 269.971 61.57 270.591 62.49C271.231 63.41 271.561 64.49 271.581 65.73H267.261C267.241 65.27 267.101 64.84 266.841 64.44C266.601 64.02 266.261 63.69 265.821 63.45C265.381 63.19 264.861 63.06 264.261 63.06C263.741 63.04 263.261 63.12 262.821 63.3C262.401 63.48 262.061 63.75 261.801 64.11C261.561 64.45 261.441 64.88 261.441 65.4C261.441 65.9 261.561 66.32 261.801 66.66C262.061 67 262.411 67.3 262.851 67.56C263.291 67.8 263.811 68.03 264.411 68.25C265.011 68.45 265.661 68.66 266.361 68.88C267.401 69.24 268.361 69.67 269.241 70.17C270.121 70.65 270.821 71.28 271.341 72.06C271.861 72.84 272.121 73.87 272.121 75.15C272.121 76.25 271.831 77.27 271.251 78.21C270.671 79.15 269.831 79.91 268.731 80.49C267.651 81.07 266.301 81.36 264.681 81.36ZM282.606 81.36C281.166 81.36 279.866 81.03 278.706 80.37C277.566 79.69 276.656 78.76 275.976 77.58C275.316 76.38 274.986 75.01 274.986 73.47C274.986 71.89 275.316 70.51 275.976 69.33C276.656 68.13 277.576 67.2 278.736 66.54C279.896 65.86 281.196 65.52 282.636 65.52C284.096 65.52 285.396 65.86 286.536 66.54C287.696 67.2 288.606 68.13 289.266 69.33C289.946 70.51 290.286 71.88 290.286 73.44C290.286 75 289.946 76.38 289.266 77.58C288.606 78.76 287.696 79.69 286.536 80.37C285.376 81.03 284.066 81.36 282.606 81.36ZM282.606 77.85C283.286 77.85 283.886 77.69 284.406 77.37C284.946 77.05 285.366 76.56 285.666 75.9C285.986 75.24 286.146 74.42 286.146 73.44C286.146 72.46 285.986 71.65 285.666 71.01C285.366 70.35 284.946 69.86 284.406 69.54C283.886 69.2 283.296 69.03 282.636 69.03C281.996 69.03 281.406 69.2 280.866 69.54C280.326 69.86 279.896 70.35 279.576 71.01C279.276 71.65 279.126 72.46 279.126 73.44C279.126 74.42 279.276 75.24 279.576 75.9C279.896 76.56 280.316 77.05 280.836 77.37C281.376 77.69 281.966 77.85 282.606 77.85ZM300.917 81.36C299.477 81.36 298.177 81.03 297.017 80.37C295.877 79.69 294.967 78.76 294.287 77.58C293.627 76.38 293.297 75.01 293.297 73.47C293.297 71.89 293.627 70.51 294.287 69.33C294.967 68.13 295.887 67.2 297.047 66.54C298.207 65.86 299.507 65.52 300.947 65.52C302.407 65.52 303.707 65.86 304.847 66.54C306.007 67.2 306.917 68.13 307.577 69.33C308.257 70.51 308.597 71.88 308.597 73.44C308.597 75 308.257 76.38 307.577 77.58C306.917 78.76 306.007 79.69 304.847 80.37C303.687 81.03 302.377 81.36 300.917 81.36ZM300.917 77.85C301.597 77.85 302.197 77.69 302.717 77.37C303.257 77.05 303.677 76.56 303.977 75.9C304.297 75.24 304.457 74.42 304.457 73.44C304.457 72.46 304.297 71.65 303.977 71.01C303.677 70.35 303.257 69.86 302.717 69.54C302.197 69.2 301.607 69.03 300.947 69.03C300.307 69.03 299.717 69.2 299.177 69.54C298.637 69.86 298.207 70.35 297.887 71.01C297.587 71.65 297.437 72.46 297.437 73.44C297.437 74.42 297.587 75.24 297.887 75.9C298.207 76.56 298.627 77.05 299.147 77.37C299.687 77.69 300.277 77.85 300.917 77.85ZM312.087 81V65.88H315.657L315.957 68.34C316.417 67.5 317.067 66.82 317.907 66.3C318.767 65.78 319.787 65.52 320.967 65.52C322.227 65.52 323.287 65.78 324.147 66.3C325.007 66.82 325.657 67.58 326.097 68.58C326.557 69.58 326.787 70.81 326.787 72.27V81H322.767V72.66C322.767 71.46 322.507 70.54 321.987 69.9C321.487 69.26 320.707 68.94 319.647 68.94C318.967 68.94 318.357 69.1 317.817 69.42C317.297 69.74 316.887 70.2 316.587 70.8C316.287 71.38 316.137 72.09 316.137 72.93V81H312.087Z" fill="white"/>
</svg>
