<svg width="378" height="90" viewBox="0 0 378 90" fill="none" xmlns="http://www.w3.org/2000/svg">
<path d="M125.918 24.5234V31.5547C124.668 32.2448 123.418 32.7656 122.168 33.1172C120.931 33.4688 119.694 33.6445 118.457 33.6445C116.699 33.6445 115.15 33.3841 113.809 32.8633C112.48 32.3424 111.354 31.6133 110.43 30.6758C109.505 29.7383 108.783 28.6901 108.262 27.5312C107.754 26.3724 107.5 24.901 107.5 23.1172V20.1094C107.5 18.3125 107.943 16.5677 108.828 14.875C109.727 13.1693 110.951 11.8672 112.5 10.9688C114.049 10.0703 115.736 9.62109 117.559 9.62109C120.202 9.62109 122.435 10.3438 124.258 11.7891C124.258 11.151 124.277 10.7669 124.316 10.6367C124.368 10.5065 124.466 10.3958 124.609 10.3047C124.753 10.2005 124.915 10.1484 125.098 10.1484C125.332 10.1484 125.527 10.2331 125.684 10.4023C125.84 10.5716 125.918 10.8516 125.918 11.2422V14.9531C125.918 15.3568 125.84 15.6432 125.684 15.8125C125.527 15.9688 125.332 16.0469 125.098 16.0469C124.876 16.0469 124.688 15.9753 124.531 15.832C124.388 15.6758 124.31 15.4089 124.297 15.0312C124.219 13.9245 123.496 13.0195 122.129 12.3164C120.775 11.6133 119.297 11.2617 117.695 11.2617C116.185 11.2617 114.818 11.5938 113.594 12.2578C112.383 12.9089 111.25 14.1589 110.195 16.0078C109.492 17.2188 109.141 18.5924 109.141 20.1289V23.1172C109.141 25.8385 109.974 28 111.641 29.6016C113.307 31.2031 115.605 32.0039 118.535 32.0039C119.525 32.0039 120.443 31.8997 121.289 31.6914C122.135 31.4831 123.125 31.1185 124.258 30.5977V24.5234H118.613C118.223 24.5234 117.943 24.4518 117.773 24.3086C117.604 24.1523 117.52 23.9505 117.52 23.7031C117.52 23.4557 117.604 23.2539 117.773 23.0977C117.943 22.9414 118.223 22.8633 118.613 22.8633L126.504 22.8828C126.895 22.8828 127.174 22.9609 127.344 23.1172C127.513 23.2604 127.598 23.4557 127.598 23.7031C127.598 23.8724 127.546 24.0286 127.441 24.1719C127.337 24.3151 127.22 24.4128 127.09 24.4648C126.96 24.5039 126.569 24.5234 125.918 24.5234ZM145.742 33V30.6367C143.359 32.6419 140.814 33.6445 138.105 33.6445C136.139 33.6445 134.603 33.1497 133.496 32.1602C132.389 31.1576 131.836 29.9336 131.836 28.4883C131.836 26.8997 132.565 25.513 134.023 24.3281C135.482 23.1432 137.611 22.5508 140.41 22.5508C141.165 22.5508 141.986 22.6029 142.871 22.707C143.757 22.7982 144.714 22.9479 145.742 23.1562V20.5C145.742 19.6016 145.326 18.8203 144.492 18.1562C143.659 17.4922 142.409 17.1602 140.742 17.1602C139.466 17.1602 137.676 17.5312 135.371 18.2734C134.954 18.4036 134.688 18.4688 134.57 18.4688C134.362 18.4688 134.18 18.3906 134.023 18.2344C133.88 18.0781 133.809 17.8828 133.809 17.6484C133.809 17.4271 133.874 17.2513 134.004 17.1211C134.186 16.9258 134.922 16.6589 136.211 16.3203C138.242 15.7734 139.779 15.5 140.82 15.5C142.891 15.5 144.505 16.0143 145.664 17.043C146.823 18.0586 147.402 19.2109 147.402 20.5V31.3594H149.59C149.993 31.3594 150.28 31.4375 150.449 31.5938C150.618 31.737 150.703 31.9323 150.703 32.1797C150.703 32.4141 150.618 32.6094 150.449 32.7656C150.28 32.9219 149.993 33 149.59 33H145.742ZM145.742 24.8359C144.974 24.6146 144.16 24.4518 143.301 24.3477C142.441 24.2435 141.536 24.1914 140.586 24.1914C138.203 24.1914 136.341 24.7057 135 25.7344C133.984 26.5026 133.477 27.4206 133.477 28.4883C133.477 29.4779 133.861 30.3112 134.629 30.9883C135.41 31.6654 136.543 32.0039 138.027 32.0039C139.447 32.0039 140.762 31.724 141.973 31.1641C143.197 30.5911 144.453 29.6862 145.742 28.4492V24.8359ZM165.879 8.48828V31.3594H172.324C172.728 31.3594 173.014 31.4375 173.184 31.5938C173.353 31.737 173.438 31.9323 173.438 32.1797C173.438 32.4141 173.353 32.6094 173.184 32.7656C173.014 32.9219 172.728 33 172.324 33H157.793C157.402 33 157.122 32.9219 156.953 32.7656C156.784 32.6094 156.699 32.4141 156.699 32.1797C156.699 31.9323 156.784 31.737 156.953 31.5938C157.122 31.4375 157.402 31.3594 157.793 31.3594H164.238V10.1484H159.512C159.121 10.1484 158.835 10.0703 158.652 9.91406C158.483 9.75781 158.398 9.55599 158.398 9.30859C158.398 9.07422 158.483 8.87891 158.652 8.72266C158.822 8.56641 159.108 8.48828 159.512 8.48828H165.879ZM189.902 8.48828V31.3594H196.348C196.751 31.3594 197.038 31.4375 197.207 31.5938C197.376 31.737 197.461 31.9323 197.461 32.1797C197.461 32.4141 197.376 32.6094 197.207 32.7656C197.038 32.9219 196.751 33 196.348 33H181.816C181.426 33 181.146 32.9219 180.977 32.7656C180.807 32.6094 180.723 32.4141 180.723 32.1797C180.723 31.9323 180.807 31.737 180.977 31.5938C181.146 31.4375 181.426 31.3594 181.816 31.3594H188.262V10.1484H183.535C183.145 10.1484 182.858 10.0703 182.676 9.91406C182.507 9.75781 182.422 9.55599 182.422 9.30859C182.422 9.07422 182.507 8.87891 182.676 8.72266C182.845 8.56641 183.132 8.48828 183.535 8.48828H189.902ZM221.973 24.9336H205.254C205.54 27.056 206.426 28.7682 207.91 30.0703C209.408 31.3594 211.257 32.0039 213.457 32.0039C214.681 32.0039 215.964 31.8021 217.305 31.3984C218.646 30.9948 219.74 30.4609 220.586 29.7969C220.833 29.6016 221.048 29.5039 221.23 29.5039C221.439 29.5039 221.621 29.5885 221.777 29.7578C221.934 29.9141 222.012 30.1029 222.012 30.3242C222.012 30.5456 221.908 30.7604 221.699 30.9688C221.074 31.6198 219.961 32.2318 218.359 32.8047C216.771 33.3646 215.137 33.6445 213.457 33.6445C210.645 33.6445 208.294 32.7266 206.406 30.8906C204.531 29.0417 203.594 26.8086 203.594 24.1914C203.594 21.8086 204.473 19.7643 206.23 18.0586C208.001 16.3529 210.189 15.5 212.793 15.5C215.475 15.5 217.682 16.3789 219.414 18.1367C221.146 19.8815 221.999 22.1471 221.973 24.9336ZM220.312 23.2734C219.987 21.4635 219.128 19.9922 217.734 18.8594C216.354 17.7266 214.707 17.1602 212.793 17.1602C210.879 17.1602 209.232 17.7201 207.852 18.8398C206.471 19.9596 205.612 21.4375 205.273 23.2734H220.312ZM235.156 16.0859V20.2266C237.292 18.2995 238.887 17.0625 239.941 16.5156C241.009 15.9557 241.992 15.6758 242.891 15.6758C243.867 15.6758 244.772 16.0078 245.605 16.6719C246.452 17.3229 246.875 17.8177 246.875 18.1562C246.875 18.4036 246.79 18.612 246.621 18.7812C246.465 18.9375 246.263 19.0156 246.016 19.0156C245.885 19.0156 245.775 18.9961 245.684 18.957C245.592 18.9049 245.423 18.7552 245.176 18.5078C244.72 18.0521 244.323 17.7396 243.984 17.5703C243.646 17.401 243.314 17.3164 242.988 17.3164C242.272 17.3164 241.406 17.6029 240.391 18.1758C239.388 18.7487 237.643 20.1484 235.156 22.375V31.3594H242.422C242.826 31.3594 243.112 31.4375 243.281 31.5938C243.451 31.737 243.535 31.9323 243.535 32.1797C243.535 32.4141 243.451 32.6094 243.281 32.7656C243.112 32.9219 242.826 33 242.422 33H229.551C229.16 33 228.88 32.9284 228.711 32.7852C228.542 32.6289 228.457 32.4336 228.457 32.1992C228.457 31.9779 228.535 31.7956 228.691 31.6523C228.861 31.4961 229.147 31.418 229.551 31.418H233.516V17.7461H230.488C230.098 17.7461 229.818 17.668 229.648 17.5117C229.479 17.3555 229.395 17.1536 229.395 16.9062C229.395 16.6719 229.473 16.4766 229.629 16.3203C229.798 16.1641 230.085 16.0859 230.488 16.0859H235.156ZM261.25 33L253.633 17.7461H253.145C252.754 17.7461 252.474 17.668 252.305 17.5117C252.135 17.3555 252.051 17.1602 252.051 16.9258C252.051 16.7565 252.09 16.6068 252.168 16.4766C252.259 16.3333 252.37 16.2357 252.5 16.1836C252.643 16.1185 252.858 16.0859 253.145 16.0859H257.637C258.027 16.0859 258.307 16.1641 258.477 16.3203C258.646 16.4766 258.73 16.6784 258.73 16.9258C258.73 17.1602 258.646 17.3555 258.477 17.5117C258.307 17.668 258.027 17.7461 257.637 17.7461H255.43L262.129 31.2031L268.73 17.7461H266.523C266.133 17.7461 265.853 17.668 265.684 17.5117C265.514 17.3555 265.43 17.1536 265.43 16.9062C265.43 16.6719 265.514 16.4766 265.684 16.3203C265.853 16.1641 266.133 16.0859 266.523 16.0859H270.996C271.4 16.0859 271.686 16.1641 271.855 16.3203C272.025 16.4766 272.109 16.6784 272.109 16.9258C272.109 17.0951 272.057 17.2513 271.953 17.3945C271.849 17.5378 271.732 17.6354 271.602 17.6875C271.471 17.7266 271.107 17.7461 270.508 17.7461L260.117 38.8984H262.676C263.066 38.8984 263.346 38.9701 263.516 39.1133C263.685 39.2695 263.77 39.4714 263.77 39.7188C263.77 39.9531 263.685 40.1484 263.516 40.3047C263.346 40.4609 263.066 40.5391 262.676 40.5391H253.223C252.832 40.5391 252.552 40.4609 252.383 40.3047C252.214 40.1615 252.129 39.9661 252.129 39.7188C252.129 39.4714 252.214 39.2695 252.383 39.1133C252.552 38.9701 252.832 38.8984 253.223 38.8984H258.359L261.25 33Z" fill="white"/>
<line y1="47.5" x2="378" y2="47.5" stroke="white"/>
<path d="M103.49 81.36C101.39 81.36 99.58 80.91 98.06 80.01C96.56 79.09 95.4 77.82 94.58 76.2C93.78 74.56 93.38 72.67 93.38 70.53C93.38 68.39 93.78 66.5 94.58 64.86C95.4 63.22 96.56 61.94 98.06 61.02C99.58 60.1 101.39 59.64 103.49 59.64C106.03 59.64 108.11 60.27 109.73 61.53C111.35 62.79 112.36 64.57 112.76 66.87H108.35C108.09 65.75 107.54 64.88 106.7 64.26C105.88 63.62 104.8 63.3 103.46 63.3C102.22 63.3 101.15 63.6 100.25 64.2C99.37 64.78 98.69 65.61 98.21 66.69C97.73 67.75 97.49 69.03 97.49 70.53C97.49 72.01 97.73 73.29 98.21 74.37C98.69 75.45 99.37 76.28 100.25 76.86C101.15 77.44 102.22 77.73 103.46 77.73C104.8 77.73 105.88 77.44 106.7 76.86C107.52 76.26 108.06 75.43 108.32 74.37H112.76C112.36 76.55 111.35 78.26 109.73 79.5C108.11 80.74 106.03 81.36 103.49 81.36ZM123.268 81.36C121.828 81.36 120.528 81.03 119.368 80.37C118.228 79.69 117.318 78.76 116.638 77.58C115.978 76.38 115.648 75.01 115.648 73.47C115.648 71.89 115.978 70.51 116.638 69.33C117.318 68.13 118.238 67.2 119.398 66.54C120.558 65.86 121.858 65.52 123.298 65.52C124.758 65.52 126.058 65.86 127.198 66.54C128.358 67.2 129.268 68.13 129.928 69.33C130.608 70.51 130.948 71.88 130.948 73.44C130.948 75 130.608 76.38 129.928 77.58C129.268 78.76 128.358 79.69 127.198 80.37C126.038 81.03 124.728 81.36 123.268 81.36ZM123.268 77.85C123.948 77.85 124.548 77.69 125.068 77.37C125.608 77.05 126.028 76.56 126.328 75.9C126.648 75.24 126.808 74.42 126.808 73.44C126.808 72.46 126.648 71.65 126.328 71.01C126.028 70.35 125.608 69.86 125.068 69.54C124.548 69.2 123.958 69.03 123.298 69.03C122.658 69.03 122.068 69.2 121.528 69.54C120.988 69.86 120.558 70.35 120.238 71.01C119.938 71.65 119.788 72.46 119.788 73.44C119.788 74.42 119.938 75.24 120.238 75.9C120.558 76.56 120.978 77.05 121.498 77.37C122.038 77.69 122.628 77.85 123.268 77.85ZM134.439 81V65.88H138.009L138.339 67.89C138.819 67.17 139.449 66.6 140.229 66.18C141.029 65.74 141.939 65.52 142.959 65.52C143.719 65.52 144.399 65.62 144.999 65.82C145.599 66.02 146.129 66.31 146.589 66.69C147.069 67.07 147.459 67.55 147.759 68.13C148.319 67.31 149.049 66.67 149.949 66.21C150.849 65.75 151.829 65.52 152.889 65.52C154.209 65.52 155.309 65.79 156.189 66.33C157.069 66.85 157.729 67.61 158.169 68.61C158.629 69.61 158.859 70.84 158.859 72.3V81H154.839V72.66C154.839 71.46 154.599 70.54 154.119 69.9C153.659 69.26 152.939 68.94 151.959 68.94C151.319 68.94 150.749 69.1 150.249 69.42C149.749 69.74 149.359 70.2 149.079 70.8C148.819 71.4 148.689 72.12 148.689 72.96V81H144.639V72.66C144.639 71.46 144.399 70.54 143.919 69.9C143.439 69.26 142.699 68.94 141.699 68.94C141.079 68.94 140.519 69.1 140.019 69.42C139.539 69.74 139.159 70.2 138.879 70.8C138.619 71.4 138.489 72.12 138.489 72.96V81H134.439ZM162.771 81V65.88H166.821V81H162.771ZM164.811 63.81C164.091 63.81 163.491 63.6 163.011 63.18C162.551 62.74 162.321 62.19 162.321 61.53C162.321 60.87 162.551 60.33 163.011 59.91C163.491 59.47 164.091 59.25 164.811 59.25C165.551 59.25 166.151 59.47 166.611 59.91C167.091 60.33 167.331 60.87 167.331 61.53C167.331 62.19 167.091 62.74 166.611 63.18C166.151 63.6 165.551 63.81 164.811 63.81ZM170.914 81V65.88H174.484L174.784 68.34C175.244 67.5 175.894 66.82 176.734 66.3C177.594 65.78 178.614 65.52 179.794 65.52C181.054 65.52 182.114 65.78 182.974 66.3C183.834 66.82 184.484 67.58 184.924 68.58C185.384 69.58 185.614 70.81 185.614 72.27V81H181.594V72.66C181.594 71.46 181.334 70.54 180.814 69.9C180.314 69.26 179.534 68.94 178.474 68.94C177.794 68.94 177.184 69.1 176.644 69.42C176.124 69.74 175.714 70.2 175.414 70.8C175.114 71.38 174.964 72.09 174.964 72.93V81H170.914ZM195.939 87.96C194.499 87.96 193.239 87.78 192.159 87.42C191.079 87.08 190.239 86.55 189.639 85.83C189.059 85.13 188.769 84.26 188.769 83.22C188.769 82.52 188.949 81.86 189.309 81.24C189.669 80.62 190.189 80.06 190.869 79.56C191.569 79.04 192.439 78.6 193.479 78.24L195.009 80.22C194.089 80.52 193.419 80.89 192.999 81.33C192.599 81.79 192.399 82.28 192.399 82.8C192.399 83.26 192.549 83.65 192.849 83.97C193.169 84.29 193.589 84.52 194.109 84.66C194.649 84.82 195.249 84.9 195.909 84.9C196.549 84.9 197.099 84.82 197.559 84.66C198.039 84.5 198.409 84.26 198.669 83.94C198.949 83.64 199.089 83.28 199.089 82.86C199.089 82.32 198.899 81.88 198.519 81.54C198.139 81.2 197.379 80.99 196.239 80.91C195.219 80.83 194.309 80.72 193.509 80.58C192.729 80.42 192.039 80.24 191.439 80.04C190.839 79.82 190.329 79.58 189.909 79.32C189.509 79.06 189.179 78.8 188.919 78.54V77.85L192.129 74.4L195.039 75.33L191.259 79.05L192.399 77.07C192.619 77.19 192.829 77.31 193.029 77.43C193.249 77.53 193.519 77.63 193.839 77.73C194.159 77.81 194.579 77.89 195.099 77.97C195.619 78.05 196.279 78.12 197.079 78.18C198.399 78.3 199.479 78.55 200.319 78.93C201.179 79.31 201.809 79.82 202.209 80.46C202.609 81.08 202.809 81.85 202.809 82.77C202.809 83.67 202.559 84.51 202.059 85.29C201.579 86.09 200.829 86.73 199.809 87.21C198.789 87.71 197.499 87.96 195.939 87.96ZM195.939 76.53C194.679 76.53 193.589 76.29 192.669 75.81C191.769 75.31 191.069 74.65 190.569 73.83C190.089 72.99 189.849 72.06 189.849 71.04C189.849 70.02 190.089 69.1 190.569 68.28C191.069 67.44 191.769 66.77 192.669 66.27C193.589 65.77 194.679 65.52 195.939 65.52C197.219 65.52 198.309 65.77 199.209 66.27C200.129 66.77 200.829 67.44 201.309 68.28C201.789 69.1 202.029 70.02 202.029 71.04C202.029 72.06 201.789 72.99 201.309 73.83C200.829 74.65 200.129 75.31 199.209 75.81C198.309 76.29 197.219 76.53 195.939 76.53ZM195.939 73.44C196.719 73.44 197.349 73.24 197.829 72.84C198.309 72.44 198.549 71.85 198.549 71.07C198.549 70.29 198.309 69.7 197.829 69.3C197.349 68.88 196.719 68.67 195.939 68.67C195.179 68.67 194.549 68.88 194.049 69.3C193.569 69.7 193.329 70.29 193.329 71.07C193.329 71.85 193.569 72.44 194.049 72.84C194.549 73.24 195.179 73.44 195.939 73.44ZM198.459 68.76L197.799 65.88H204.009V68.28L198.459 68.76ZM221.681 81.36C220.161 81.36 218.801 81.1 217.601 80.58C216.421 80.06 215.481 79.3 214.781 78.3C214.101 77.3 213.751 76.09 213.731 74.67H218.021C218.041 75.29 218.201 75.85 218.501 76.35C218.801 76.85 219.211 77.25 219.731 77.55C220.271 77.83 220.911 77.97 221.651 77.97C222.291 77.97 222.841 77.87 223.301 77.67C223.781 77.45 224.151 77.15 224.411 76.77C224.671 76.39 224.801 75.94 224.801 75.42C224.801 74.82 224.651 74.32 224.351 73.92C224.071 73.52 223.671 73.18 223.151 72.9C222.651 72.62 222.061 72.37 221.381 72.15C220.721 71.91 220.021 71.66 219.281 71.4C217.621 70.86 216.351 70.14 215.471 69.24C214.611 68.34 214.181 67.15 214.181 65.67C214.181 64.41 214.481 63.33 215.081 62.43C215.701 61.53 216.551 60.84 217.631 60.36C218.711 59.88 219.941 59.64 221.321 59.64C222.741 59.64 223.981 59.89 225.041 60.39C226.121 60.87 226.971 61.57 227.591 62.49C228.231 63.41 228.561 64.49 228.581 65.73H224.261C224.241 65.27 224.101 64.84 223.841 64.44C223.601 64.02 223.261 63.69 222.821 63.45C222.381 63.19 221.861 63.06 221.261 63.06C220.741 63.04 220.261 63.12 219.821 63.3C219.401 63.48 219.061 63.75 218.801 64.11C218.561 64.45 218.441 64.88 218.441 65.4C218.441 65.9 218.561 66.32 218.801 66.66C219.061 67 219.411 67.3 219.851 67.56C220.291 67.8 220.811 68.03 221.411 68.25C222.011 68.45 222.661 68.66 223.361 68.88C224.401 69.24 225.361 69.67 226.241 70.17C227.121 70.65 227.821 71.28 228.341 72.06C228.861 72.84 229.121 73.87 229.121 75.15C229.121 76.25 228.831 77.27 228.251 78.21C227.671 79.15 226.831 79.91 225.731 80.49C224.651 81.07 223.301 81.36 221.681 81.36ZM239.606 81.36C238.166 81.36 236.866 81.03 235.706 80.37C234.566 79.69 233.656 78.76 232.976 77.58C232.316 76.38 231.986 75.01 231.986 73.47C231.986 71.89 232.316 70.51 232.976 69.33C233.656 68.13 234.576 67.2 235.736 66.54C236.896 65.86 238.196 65.52 239.636 65.52C241.096 65.52 242.396 65.86 243.536 66.54C244.696 67.2 245.606 68.13 246.266 69.33C246.946 70.51 247.286 71.88 247.286 73.44C247.286 75 246.946 76.38 246.266 77.58C245.606 78.76 244.696 79.69 243.536 80.37C242.376 81.03 241.066 81.36 239.606 81.36ZM239.606 77.85C240.286 77.85 240.886 77.69 241.406 77.37C241.946 77.05 242.366 76.56 242.666 75.9C242.986 75.24 243.146 74.42 243.146 73.44C243.146 72.46 242.986 71.65 242.666 71.01C242.366 70.35 241.946 69.86 241.406 69.54C240.886 69.2 240.296 69.03 239.636 69.03C238.996 69.03 238.406 69.2 237.866 69.54C237.326 69.86 236.896 70.35 236.576 71.01C236.276 71.65 236.126 72.46 236.126 73.44C236.126 74.42 236.276 75.24 236.576 75.9C236.896 76.56 237.316 77.05 237.836 77.37C238.376 77.69 238.966 77.85 239.606 77.85ZM257.917 81.36C256.477 81.36 255.177 81.03 254.017 80.37C252.877 79.69 251.967 78.76 251.287 77.58C250.627 76.38 250.297 75.01 250.297 73.47C250.297 71.89 250.627 70.51 251.287 69.33C251.967 68.13 252.887 67.2 254.047 66.54C255.207 65.86 256.507 65.52 257.947 65.52C259.407 65.52 260.707 65.86 261.847 66.54C263.007 67.2 263.917 68.13 264.577 69.33C265.257 70.51 265.597 71.88 265.597 73.44C265.597 75 265.257 76.38 264.577 77.58C263.917 78.76 263.007 79.69 261.847 80.37C260.687 81.03 259.377 81.36 257.917 81.36ZM257.917 77.85C258.597 77.85 259.197 77.69 259.717 77.37C260.257 77.05 260.677 76.56 260.977 75.9C261.297 75.24 261.457 74.42 261.457 73.44C261.457 72.46 261.297 71.65 260.977 71.01C260.677 70.35 260.257 69.86 259.717 69.54C259.197 69.2 258.607 69.03 257.947 69.03C257.307 69.03 256.717 69.2 256.177 69.54C255.637 69.86 255.207 70.35 254.887 71.01C254.587 71.65 254.437 72.46 254.437 73.44C254.437 74.42 254.587 75.24 254.887 75.9C255.207 76.56 255.627 77.05 256.147 77.37C256.687 77.69 257.277 77.85 257.917 77.85ZM269.087 81V65.88H272.657L272.957 68.34C273.417 67.5 274.067 66.82 274.907 66.3C275.767 65.78 276.787 65.52 277.967 65.52C279.227 65.52 280.287 65.78 281.147 66.3C282.007 66.82 282.657 67.58 283.097 68.58C283.557 69.58 283.787 70.81 283.787 72.27V81H279.767V72.66C279.767 71.46 279.507 70.54 278.987 69.9C278.487 69.26 277.707 68.94 276.647 68.94C275.967 68.94 275.357 69.1 274.817 69.42C274.297 69.74 273.887 70.2 273.587 70.8C273.287 71.38 273.137 72.09 273.137 72.93V81H269.087Z" fill="white"/>
</svg>
