<svg width="857" height="106" viewBox="0 0 857 106" fill="none" xmlns="http://www.w3.org/2000/svg">
<mask id="path-1-outside-1_48_29" maskUnits="userSpaceOnUse" x="0" y="0" width="857" height="106" fill="black">
<rect fill="white" width="857" height="106"/>
<path d="M49.62 103.68C39.82 103.68 31.3733 101.58 24.28 97.38C17.28 93.0867 11.8667 87.16 8.04 79.6C4.30667 71.9467 2.44 63.1267 2.44 53.14C2.44 43.1533 4.30667 34.3333 8.04 26.68C11.8667 19.0267 17.28 13.0533 24.28 8.76C31.3733 4.46667 39.82 2.32 49.62 2.32C61.4733 2.32 71.18 5.26 78.74 11.14C86.3 17.02 91.0133 25.3267 92.88 36.06H72.3C71.0867 30.8333 68.52 26.7733 64.6 23.88C60.7733 20.8933 55.7333 19.4 49.48 19.4C43.6933 19.4 38.7 20.8 34.5 23.6C30.3933 26.3067 27.22 30.18 24.98 35.22C22.74 40.1667 21.62 46.14 21.62 53.14C21.62 60.0467 22.74 66.02 24.98 71.06C27.22 76.1 30.3933 79.9733 34.5 82.68C38.7 85.3867 43.6933 86.74 49.48 86.74C55.7333 86.74 60.7733 85.3867 64.6 82.68C68.4267 79.88 70.9467 76.0067 72.16 71.06H92.88C91.0133 81.2333 86.3 89.2133 78.74 95C71.18 100.787 61.4733 103.68 49.62 103.68ZM154.239 103.68C144.719 103.68 136.319 101.533 129.039 97.24C121.759 92.9467 116.066 87.02 111.959 79.46C107.853 71.8067 105.799 62.9867 105.799 53C105.799 43.0133 107.853 34.24 111.959 26.68C116.066 19.0267 121.759 13.0533 129.039 8.76C136.319 4.46667 144.719 2.32 154.239 2.32C163.853 2.32 172.299 4.46667 179.579 8.76C186.859 13.0533 192.506 19.0267 196.519 26.68C200.626 34.24 202.679 43.0133 202.679 53C202.679 62.9867 200.626 71.8067 196.519 79.46C192.506 87.02 186.859 92.9467 179.579 97.24C172.299 101.533 163.853 103.68 154.239 103.68ZM154.239 86.74C160.213 86.74 165.346 85.3867 169.639 82.68C174.026 79.88 177.433 75.96 179.859 70.92C182.286 65.88 183.499 59.9067 183.499 53C183.499 46 182.286 40.0267 179.859 35.08C177.433 30.04 174.026 26.1667 169.639 23.46C165.346 20.7533 160.213 19.4 154.239 19.4C148.359 19.4 143.226 20.7533 138.839 23.46C134.453 26.1667 131.046 30.04 128.619 35.08C126.193 40.0267 124.979 46 124.979 53C124.979 59.9067 126.193 65.88 128.619 70.92C131.046 75.96 134.453 79.88 138.839 82.68C143.226 85.3867 148.359 86.74 154.239 86.74ZM218.805 102V3.99999H237.705L282.785 71.62V3.99999H301.685V102H282.785L237.705 34.52V102H218.805ZM320.797 102V3.99999H339.697L384.777 71.62V3.99999H403.677V102H384.777L339.697 34.52V102H320.797ZM422.789 102V3.99999H487.189V19.26H441.689V44.88H482.989V59.58H441.689V86.74H487.189V102H422.789ZM548.37 103.68C538.57 103.68 530.123 101.58 523.03 97.38C516.03 93.0867 510.617 87.16 506.79 79.6C503.057 71.9467 501.19 63.1267 501.19 53.14C501.19 43.1533 503.057 34.3333 506.79 26.68C510.617 19.0267 516.03 13.0533 523.03 8.76C530.123 4.46667 538.57 2.32 548.37 2.32C560.223 2.32 569.93 5.26 577.49 11.14C585.05 17.02 589.763 25.3267 591.63 36.06H571.05C569.837 30.8333 567.27 26.7733 563.35 23.88C559.523 20.8933 554.483 19.4 548.23 19.4C542.443 19.4 537.45 20.8 533.25 23.6C529.143 26.3067 525.97 30.18 523.73 35.22C521.49 40.1667 520.37 46.14 520.37 53.14C520.37 60.0467 521.49 66.02 523.73 71.06C525.97 76.1 529.143 79.9733 533.25 82.68C537.45 85.3867 542.443 86.74 548.23 86.74C554.483 86.74 559.523 85.3867 563.35 82.68C567.177 79.88 569.697 76.0067 570.91 71.06H591.63C589.763 81.2333 585.05 89.2133 577.49 95C569.93 100.787 560.223 103.68 548.37 103.68ZM629.632 102V19.26H600.932V3.99999H676.952V19.26H648.392V102H629.632ZM690.348 102V3.99999H754.748V19.26H709.248V44.88H750.548V59.58H709.248V86.74H754.748V102H690.348ZM771.969 102V3.99999H804.729C816.115 3.99999 825.495 6.05333 832.869 10.16C840.335 14.1733 845.842 19.8667 849.389 27.24C853.029 34.52 854.849 43.1067 854.849 53C854.849 62.8933 853.029 71.5267 849.389 78.9C845.842 86.18 840.382 91.8733 833.009 95.98C825.635 99.9933 816.209 102 804.729 102H771.969ZM790.869 85.76H803.749C811.775 85.76 818.075 84.4533 822.649 81.84C827.315 79.2267 830.629 75.4933 832.589 70.64C834.549 65.6933 835.529 59.8133 835.529 53C835.529 46.0933 834.549 40.2133 832.589 35.36C830.629 30.4133 827.315 26.6333 822.649 24.02C818.075 21.4067 811.775 20.1 803.749 20.1H790.869V85.76Z"/>
</mask>
<path d="M24.28 97.38L23.2343 99.0849L23.2476 99.093L23.261 99.101L24.28 97.38ZM8.04 79.6L6.24246 80.4768L6.24892 80.4901L6.25557 80.5032L8.04 79.6ZM8.04 26.68L6.25115 25.7856L6.24676 25.7943L6.24246 25.8031L8.04 26.68ZM24.28 8.76L23.2444 7.04897L23.2343 7.05512L24.28 8.76ZM78.74 11.14L79.9679 9.56129H79.9679L78.74 11.14ZM92.88 36.06V38.06H95.2579L94.8504 35.7173L92.88 36.06ZM72.3 36.06L70.3518 36.5123L70.7111 38.06H72.3V36.06ZM64.6 23.88L63.3695 25.4566L63.3907 25.4732L63.4123 25.4891L64.6 23.88ZM34.5 23.6L35.6006 25.2699L35.6094 25.2641L34.5 23.6ZM24.98 35.22L26.802 36.045L26.8076 36.0323L24.98 35.22ZM24.98 71.06L26.8076 70.2477L24.98 71.06ZM34.5 82.68L33.3994 84.3499L33.408 84.3556L33.4166 84.3611L34.5 82.68ZM64.6 82.68L65.7549 84.3128L65.7681 84.3036L65.781 84.2941L64.6 82.68ZM72.16 71.06V69.06H70.5913L70.2176 70.5836L72.16 71.06ZM92.88 71.06L94.8472 71.4209L95.2804 69.06H92.88V71.06ZM78.74 95L77.5244 93.4118L78.74 95ZM49.62 101.68C40.1104 101.68 32.03 99.6445 25.299 95.659L23.261 99.101C30.7166 103.515 39.5296 105.68 49.62 105.68V101.68ZM25.3257 95.6751C18.6518 91.5818 13.4894 85.9374 9.82443 78.6968L6.25557 80.5032C10.2439 88.3826 15.9082 94.5915 23.2343 99.0849L25.3257 95.6751ZM9.83754 78.7232C6.25858 71.3863 4.44 62.875 4.44 53.14H0.440001C0.440001 63.3783 2.35476 72.507 6.24246 80.4768L9.83754 78.7232ZM4.44 53.14C4.44 43.405 6.25858 34.8937 9.83754 27.5568L6.24246 25.8031C2.35476 33.7729 0.440001 42.9017 0.440001 53.14H4.44ZM9.82885 27.5744C13.4958 20.2406 18.658 14.5544 25.3257 10.4649L23.2343 7.05512C15.902 11.5523 10.2376 17.8127 6.25115 25.7856L9.82885 27.5744ZM25.3156 10.471C32.0438 6.39868 40.118 4.32 49.62 4.32V0.32C39.522 0.32 30.7029 2.53465 23.2444 7.049L25.3156 10.471ZM49.62 4.32C61.1367 4.32 70.3799 7.17143 77.5121 12.7187L79.9679 9.56129C71.9801 3.34856 61.81 0.32 49.62 0.32V4.32ZM77.5121 12.7187C84.6253 18.2511 89.1156 26.0871 90.9096 36.4027L94.8504 35.7173C92.9111 24.5662 87.9748 15.7889 79.9679 9.56129L77.5121 12.7187ZM92.88 34.06H72.3V38.06H92.88V34.06ZM74.2482 35.6077C72.9389 29.9676 70.1305 25.4763 65.7877 22.2708L63.4123 25.4891C66.9095 28.0704 69.2345 31.699 70.3518 36.5123L74.2482 35.6077ZM65.8305 22.3034C61.5622 18.972 56.0495 17.4 49.48 17.4V21.4C55.4172 21.4 59.9845 22.8147 63.3695 25.4566L65.8305 22.3034ZM49.48 17.4C43.358 17.4 37.9654 18.8861 33.3906 21.9359L35.6094 25.2641C39.4346 22.7139 44.0287 21.4 49.48 21.4V17.4ZM33.3994 21.9301C28.9356 24.8721 25.5283 29.062 23.1524 34.4077L26.8076 36.0323C28.9117 31.298 31.8511 27.7412 35.6006 25.2699L33.3994 21.9301ZM23.1581 34.395C20.772 39.6643 19.62 45.9345 19.62 53.14H23.62C23.62 46.3455 24.708 40.669 26.8019 36.045L23.1581 34.395ZM19.62 53.14C19.62 60.2581 20.7739 66.5207 23.1524 71.8723L26.8076 70.2477C24.7061 65.5193 23.62 59.8352 23.62 53.14H19.62ZM23.1524 71.8723C25.5283 77.218 28.9356 81.4079 33.3994 84.3499L35.6006 81.0101C31.8511 78.5388 28.9117 74.982 26.8076 70.2477L23.1524 71.8723ZM33.4166 84.3611C37.9881 87.3072 43.3712 88.74 49.48 88.74V84.74C44.0155 84.74 39.4119 83.4661 35.5834 80.9989L33.4166 84.3611ZM49.48 88.74C56.0107 88.74 61.4941 87.3266 65.7549 84.3128L63.4451 81.0472C60.0526 83.4467 55.456 84.74 49.48 84.74V88.74ZM65.781 84.2941C70.0167 81.1948 72.786 76.9035 74.1024 71.5364L70.2176 70.5836C69.1074 75.1098 66.8366 78.5652 63.419 81.0659L65.781 84.2941ZM72.16 73.06H92.88V69.06H72.16V73.06ZM90.9128 70.6991C89.1273 80.4301 84.6548 87.954 77.5244 93.4118L79.9556 96.5882C87.9452 90.4727 92.8993 82.0366 94.8472 71.4209L90.9128 70.6991ZM77.5244 93.4118C70.3914 98.8716 61.1436 101.68 49.62 101.68V105.68C61.8031 105.68 71.9686 102.702 79.9556 96.5882L77.5244 93.4118ZM129.039 97.24L128.023 98.9627L129.039 97.24ZM111.959 79.46L110.197 80.4056L110.202 80.4147L111.959 79.46ZM111.959 26.68L113.717 27.6347L113.722 27.6256L111.959 26.68ZM179.579 8.76L178.563 10.4827L179.579 8.76ZM196.519 26.68L194.748 27.6088L194.755 27.6218L194.762 27.6347L196.519 26.68ZM196.519 79.46L194.757 78.5144L194.753 78.5222L196.519 79.46ZM179.579 97.24L178.563 95.5173L179.579 97.24ZM169.639 82.68L170.706 84.3719L170.715 84.3658L169.639 82.68ZM179.859 70.92L181.661 71.7876L179.859 70.92ZM179.859 35.08L178.057 35.9476L178.061 35.9542L178.064 35.9608L179.859 35.08ZM169.639 23.46L168.573 25.1518L168.581 25.157L168.589 25.1621L169.639 23.46ZM138.839 23.46L137.789 21.7579L137.789 21.7579L138.839 23.46ZM128.619 35.08L130.415 35.9608L130.418 35.9543L130.421 35.9476L128.619 35.08ZM128.619 70.92L126.817 71.7876L128.619 70.92ZM138.839 82.68L137.763 84.3658L137.776 84.3741L137.789 84.3821L138.839 82.68ZM154.239 101.68C145.031 101.68 136.99 99.607 130.055 95.5173L128.023 98.9627C135.649 103.46 144.408 105.68 154.239 105.68V101.68ZM130.055 95.5173C123.093 91.4115 117.654 85.7529 113.717 78.5053L110.202 80.4147C114.478 88.2871 120.425 94.4818 128.023 98.9627L130.055 95.5173ZM113.722 78.5144C109.793 71.1928 107.799 62.7065 107.799 53H103.799C103.799 63.2668 105.912 72.4206 110.197 80.4056L113.722 78.5144ZM107.799 53C107.799 43.2929 109.793 34.8576 113.717 27.6347L110.202 25.7253C105.912 33.6224 103.799 42.7338 103.799 53H107.799ZM113.722 27.6256C117.66 20.2854 123.1 14.5849 130.055 10.4827L128.023 7.03727C120.419 11.5218 114.472 17.768 110.197 25.7344L113.722 27.6256ZM130.055 10.4827C136.99 6.39302 145.031 4.32 154.239 4.32V0.32C144.408 0.32 135.649 2.54031 128.023 7.03727L130.055 10.4827ZM154.239 4.32C163.545 4.32 171.632 6.39477 178.563 10.4827L180.595 7.03727C172.967 2.53856 164.16 0.32 154.239 0.32V4.32ZM178.563 10.4827C185.515 14.5825 190.904 20.2775 194.748 27.6088L198.291 25.7512C194.108 17.7759 188.204 11.5242 180.595 7.03727L178.563 10.4827ZM194.762 27.6347C198.686 34.8576 200.679 43.2929 200.679 53H204.679C204.679 42.7338 202.567 33.6224 198.277 25.7253L194.762 27.6347ZM200.679 53C200.679 62.7065 198.686 71.1928 194.757 78.5144L198.282 80.4056C202.566 72.4206 204.679 63.2668 204.679 53H200.679ZM194.753 78.5222C190.91 85.7607 185.521 91.4138 178.563 95.5173L180.595 98.9627C188.197 94.4795 194.102 88.2793 198.286 80.3978L194.753 78.5222ZM178.563 95.5173C171.632 99.6052 163.545 101.68 154.239 101.68V105.68C164.16 105.68 172.967 103.461 180.595 98.9627L178.563 95.5173ZM154.239 88.74C160.522 88.74 166.04 87.3132 170.706 84.3718L168.573 80.9881C164.652 83.4602 159.903 84.74 154.239 84.74V88.74ZM170.715 84.3658C175.439 81.3508 179.086 77.1364 181.661 71.7876L178.057 70.0524C175.779 74.7836 172.613 78.4092 168.563 80.9942L170.715 84.3658ZM181.661 71.7876C184.245 66.421 185.499 60.1381 185.499 53H181.499C181.499 59.6752 180.327 65.339 178.057 70.0524L181.661 71.7876ZM185.499 53C185.499 45.7748 184.247 39.4838 181.655 34.1992L178.064 35.9608C180.325 40.5695 181.499 46.2252 181.499 53H185.499ZM181.661 34.2124C179.084 28.8587 175.429 24.6823 170.69 21.7579L168.589 25.1621C172.623 27.651 175.782 31.2213 178.057 35.9476L181.661 34.2124ZM170.706 21.7681C166.04 18.8268 160.522 17.4 154.239 17.4V21.4C159.903 21.4 164.652 22.6798 168.573 25.1518L170.706 21.7681ZM154.239 17.4C148.042 17.4 142.534 18.8302 137.789 21.7579L139.89 25.1621C143.918 22.6764 148.677 21.4 154.239 21.4V17.4ZM137.789 21.7579C133.05 24.6823 129.395 28.8587 126.817 34.2124L130.421 35.9476C132.697 31.2213 135.856 27.651 139.89 25.1621L137.789 21.7579ZM126.824 34.1992C124.231 39.4838 122.979 45.7748 122.979 53H126.979C126.979 46.2252 128.154 40.5695 130.415 35.9608L126.824 34.1992ZM122.979 53C122.979 60.1381 124.233 66.421 126.817 71.7876L130.421 70.0524C128.152 65.339 126.979 59.6752 126.979 53H122.979ZM126.817 71.7876C129.393 77.1364 133.04 81.3508 137.763 84.3658L139.915 80.9942C135.866 78.4092 132.699 74.7836 130.421 70.0524L126.817 71.7876ZM137.789 84.3821C142.534 87.3098 148.042 88.74 154.239 88.74V84.74C148.677 84.74 143.918 83.4636 139.89 80.9779L137.789 84.3821ZM218.805 102H216.805V104H218.805V102ZM218.805 3.99999V1.99999H216.805V3.99999H218.805ZM237.705 3.99999L239.369 2.89059L238.775 1.99999H237.705V3.99999ZM282.785 71.62L281.12 72.7294L284.785 78.2255V71.62H282.785ZM282.785 3.99999V1.99999H280.785V3.99999H282.785ZM301.685 3.99999H303.685V1.99999H301.685V3.99999ZM301.685 102V104H303.685V102H301.685ZM282.785 102L281.121 103.111L281.715 104H282.785V102ZM237.705 34.52L239.368 33.409L235.705 27.9258V34.52H237.705ZM237.705 102V104H239.705V102H237.705ZM220.805 102V3.99999H216.805V102H220.805ZM218.805 5.99999H237.705V1.99999H218.805V5.99999ZM236.04 5.10939L281.12 72.7294L284.449 70.5106L239.369 2.89059L236.04 5.10939ZM284.785 71.62V3.99999H280.785V71.62H284.785ZM282.785 5.99999H301.685V1.99999H282.785V5.99999ZM299.685 3.99999V102H303.685V3.99999H299.685ZM301.685 100H282.785V104H301.685V100ZM284.448 100.889L239.368 33.409L236.041 35.631L281.121 103.111L284.448 100.889ZM235.705 34.52V102H239.705V34.52H235.705ZM237.705 100H218.805V104H237.705V100ZM320.797 102H318.797V104H320.797V102ZM320.797 3.99999V1.99999H318.797V3.99999H320.797ZM339.697 3.99999L341.361 2.89059L340.767 1.99999H339.697V3.99999ZM384.777 71.62L383.113 72.7294L386.777 78.2255V71.62H384.777ZM384.777 3.99999V1.99999H382.777V3.99999H384.777ZM403.677 3.99999H405.677V1.99999H403.677V3.99999ZM403.677 102V104H405.677V102H403.677ZM384.777 102L383.114 103.111L383.708 104H384.777V102ZM339.697 34.52L341.36 33.409L337.697 27.9258V34.52H339.697ZM339.697 102V104H341.697V102H339.697ZM322.797 102V3.99999H318.797V102H322.797ZM320.797 5.99999H339.697V1.99999H320.797V5.99999ZM338.033 5.10939L383.113 72.7294L386.441 70.5106L341.361 2.89059L338.033 5.10939ZM386.777 71.62V3.99999H382.777V71.62H386.777ZM384.777 5.99999H403.677V1.99999H384.777V5.99999ZM401.677 3.99999V102H405.677V3.99999H401.677ZM403.677 100H384.777V104H403.677V100ZM386.44 100.889L341.36 33.409L338.034 35.631L383.114 103.111L386.44 100.889ZM337.697 34.52V102H341.697V34.52H337.697ZM339.697 100H320.797V104H339.697V100ZM422.789 102H420.789V104H422.789V102ZM422.789 3.99999V1.99999H420.789V3.99999H422.789ZM487.189 3.99999H489.189V1.99999H487.189V3.99999ZM487.189 19.26V21.26H489.189V19.26H487.189ZM441.689 19.26V17.26H439.689V19.26H441.689ZM441.689 44.88H439.689V46.88H441.689V44.88ZM482.989 44.88H484.989V42.88H482.989V44.88ZM482.989 59.58V61.58H484.989V59.58H482.989ZM441.689 59.58V57.58H439.689V59.58H441.689ZM441.689 86.74H439.689V88.74H441.689V86.74ZM487.189 86.74H489.189V84.74H487.189V86.74ZM487.189 102V104H489.189V102H487.189ZM424.789 102V3.99999H420.789V102H424.789ZM422.789 5.99999H487.189V1.99999H422.789V5.99999ZM485.189 3.99999V19.26H489.189V3.99999H485.189ZM487.189 17.26H441.689V21.26H487.189V17.26ZM439.689 19.26V44.88H443.689V19.26H439.689ZM441.689 46.88H482.989V42.88H441.689V46.88ZM480.989 44.88V59.58H484.989V44.88H480.989ZM482.989 57.58H441.689V61.58H482.989V57.58ZM439.689 59.58V86.74H443.689V59.58H439.689ZM441.689 88.74H487.189V84.74H441.689V88.74ZM485.189 86.74V102H489.189V86.74H485.189ZM487.189 100H422.789V104H487.189V100ZM523.03 97.38L521.984 99.0849L521.998 99.093L522.011 99.101L523.03 97.38ZM506.79 79.6L504.992 80.4768L504.999 80.4901L505.006 80.5032L506.79 79.6ZM506.79 26.68L505.001 25.7856L504.997 25.7943L504.992 25.8031L506.79 26.68ZM523.03 8.76L521.994 7.04897L521.984 7.05512L523.03 8.76ZM577.49 11.14L578.718 9.56129L577.49 11.14ZM591.63 36.06V38.06H594.008L593.6 35.7173L591.63 36.06ZM571.05 36.06L569.102 36.5123L569.461 38.06H571.05V36.06ZM563.35 23.88L562.119 25.4566L562.141 25.4732L562.162 25.4891L563.35 23.88ZM533.25 23.6L534.351 25.2699L534.359 25.2641L533.25 23.6ZM523.73 35.22L525.552 36.045L525.558 36.0323L523.73 35.22ZM523.73 71.06L525.558 70.2477L523.73 71.06ZM533.25 82.68L532.149 84.3499L532.158 84.3556L532.167 84.3611L533.25 82.68ZM563.35 82.68L564.505 84.3128L564.518 84.3036L564.531 84.2941L563.35 82.68ZM570.91 71.06V69.06H569.341L568.968 70.5836L570.91 71.06ZM591.63 71.06L593.597 71.4209L594.03 69.06H591.63V71.06ZM577.49 95L576.274 93.4118L577.49 95ZM548.37 101.68C538.86 101.68 530.78 99.6445 524.049 95.659L522.011 99.101C529.467 103.515 538.28 105.68 548.37 105.68V101.68ZM524.076 95.6751C517.402 91.5818 512.239 85.9374 508.574 78.6968L505.006 80.5032C508.994 88.3826 514.658 94.5915 521.984 99.0849L524.076 95.6751ZM508.588 78.7232C505.009 71.3863 503.19 62.875 503.19 53.14H499.19C499.19 63.3783 501.105 72.507 504.992 80.4768L508.588 78.7232ZM503.19 53.14C503.19 43.405 505.009 34.8937 508.588 27.5568L504.992 25.8031C501.105 33.7729 499.19 42.9017 499.19 53.14H503.19ZM508.579 27.5744C512.246 20.2406 517.408 14.5544 524.076 10.4649L521.984 7.05512C514.652 11.5523 508.988 17.8127 505.001 25.7856L508.579 27.5744ZM524.066 10.471C530.794 6.39868 538.868 4.32 548.37 4.32V0.32C538.272 0.32 529.453 2.53465 521.994 7.049L524.066 10.471ZM548.37 4.32C559.887 4.32 569.13 7.17143 576.262 12.7187L578.718 9.56129C570.73 3.34856 560.56 0.32 548.37 0.32V4.32ZM576.262 12.7187C583.375 18.2511 587.866 26.0871 589.66 36.4027L593.6 35.7173C591.661 24.5662 586.725 15.7889 578.718 9.56129L576.262 12.7187ZM591.63 34.06H571.05V38.06H591.63V34.06ZM572.998 35.6077C571.689 29.9676 568.881 25.4763 564.538 22.2708L562.162 25.4891C565.659 28.0704 567.984 31.699 569.102 36.5123L572.998 35.6077ZM564.581 22.3034C560.312 18.972 554.799 17.4 548.23 17.4V21.4C554.167 21.4 558.734 22.8147 562.119 25.4566L564.581 22.3034ZM548.23 17.4C542.108 17.4 536.715 18.8861 532.141 21.9359L534.359 25.2641C538.185 22.7139 542.779 21.4 548.23 21.4V17.4ZM532.149 21.9301C527.686 24.8721 524.278 29.062 521.902 34.4077L525.558 36.0323C527.662 31.298 530.601 27.7412 534.351 25.2699L532.149 21.9301ZM521.908 34.395C519.522 39.6643 518.37 45.9345 518.37 53.14H522.37C522.37 46.3455 523.458 40.669 525.552 36.045L521.908 34.395ZM518.37 53.14C518.37 60.2581 519.524 66.5207 521.902 71.8723L525.558 70.2477C523.456 65.5193 522.37 59.8352 522.37 53.14H518.37ZM521.902 71.8723C524.278 77.218 527.686 81.4079 532.149 84.3499L534.351 81.0101C530.601 78.5388 527.662 74.982 525.558 70.2477L521.902 71.8723ZM532.167 84.3611C536.738 87.3072 542.121 88.74 548.23 88.74V84.74C542.766 84.74 538.162 83.4661 534.333 80.9989L532.167 84.3611ZM548.23 88.74C554.761 88.74 560.244 87.3266 564.505 84.3128L562.195 81.0472C558.803 83.4467 554.206 84.74 548.23 84.74V88.74ZM564.531 84.2941C568.767 81.1948 571.536 76.9035 572.852 71.5364L568.968 70.5836C567.857 75.1098 565.587 78.5652 562.169 81.0659L564.531 84.2941ZM570.91 73.06H591.63V69.06H570.91V73.06ZM589.663 70.6991C587.877 80.4301 583.405 87.954 576.274 93.4118L578.706 96.5882C586.695 90.4727 591.649 82.0366 593.597 71.4209L589.663 70.6991ZM576.274 93.4118C569.141 98.8716 559.894 101.68 548.37 101.68V105.68C560.553 105.68 570.719 102.702 578.706 96.5882L576.274 93.4118ZM629.632 102H627.632V104H629.632V102ZM629.632 19.26H631.632V17.26H629.632V19.26ZM600.932 19.26H598.932V21.26H600.932V19.26ZM600.932 3.99999V1.99999H598.932V3.99999H600.932ZM676.952 3.99999H678.952V1.99999H676.952V3.99999ZM676.952 19.26V21.26H678.952V19.26H676.952ZM648.392 19.26V17.26H646.392V19.26H648.392ZM648.392 102V104H650.392V102H648.392ZM631.632 102V19.26H627.632V102H631.632ZM629.632 17.26H600.932V21.26H629.632V17.26ZM602.932 19.26V3.99999H598.932V19.26H602.932ZM600.932 5.99999H676.952V1.99999H600.932V5.99999ZM674.952 3.99999V19.26H678.952V3.99999H674.952ZM676.952 17.26H648.392V21.26H676.952V17.26ZM646.392 19.26V102H650.392V19.26H646.392ZM648.392 100H629.632V104H648.392V100ZM690.347 102H688.347V104H690.347V102ZM690.347 3.99999V1.99999H688.347V3.99999H690.347ZM754.747 3.99999H756.747V1.99999H754.747V3.99999ZM754.747 19.26V21.26H756.747V19.26H754.747ZM709.247 19.26V17.26H707.247V19.26H709.247ZM709.247 44.88H707.247V46.88H709.247V44.88ZM750.547 44.88H752.547V42.88H750.547V44.88ZM750.547 59.58V61.58H752.547V59.58H750.547ZM709.247 59.58V57.58H707.247V59.58H709.247ZM709.247 86.74H707.247V88.74H709.247V86.74ZM754.747 86.74H756.747V84.74H754.747V86.74ZM754.747 102V104H756.747V102H754.747ZM692.347 102V3.99999H688.347V102H692.347ZM690.347 5.99999H754.747V1.99999H690.347V5.99999ZM752.747 3.99999V19.26H756.747V3.99999H752.747ZM754.747 17.26H709.247V21.26H754.747V17.26ZM707.247 19.26V44.88H711.247V19.26H707.247ZM709.247 46.88H750.547V42.88H709.247V46.88ZM748.547 44.88V59.58H752.547V44.88H748.547ZM750.547 57.58H709.247V61.58H750.547V57.58ZM707.247 59.58V86.74H711.247V59.58H707.247ZM709.247 88.74H754.747V84.74H709.247V88.74ZM752.747 86.74V102H756.747V86.74H752.747ZM754.747 100H690.347V104H754.747V100ZM771.969 102H769.969V104H771.969V102ZM771.969 3.99999V1.99999H769.969V3.99999H771.969ZM832.869 10.16L831.895 11.9073L831.909 11.9146L831.922 11.9216L832.869 10.16ZM849.389 27.24L847.586 28.1069L847.593 28.1207L847.6 28.1344L849.389 27.24ZM849.389 78.9L847.595 78.0146L847.591 78.0241L849.389 78.9ZM833.009 95.98L833.965 97.7366L833.973 97.732L833.982 97.7273L833.009 95.98ZM790.869 85.76H788.869V87.76H790.869V85.76ZM822.649 81.84L821.671 80.095L821.664 80.0992L821.656 80.1035L822.649 81.84ZM832.589 70.64L834.443 71.3889L834.448 71.3767L832.589 70.64ZM832.589 35.36L830.729 36.0967L830.734 36.1089L832.589 35.36ZM822.649 24.02L821.656 25.7565L821.664 25.7608L821.671 25.765L822.649 24.02ZM790.869 20.1V18.1H788.869V20.1H790.869ZM773.969 102V3.99999H769.969V102H773.969ZM771.969 5.99999H804.729V1.99999H771.969V5.99999ZM804.729 5.99999C815.889 5.99999 824.906 8.0142 831.895 11.9073L833.842 8.41273C826.085 4.09245 816.342 1.99999 804.729 1.99999V5.99999ZM831.922 11.9216C839.03 15.7424 844.23 21.1292 847.586 28.1069L851.191 26.3731C847.454 18.6041 841.64 12.6042 833.815 8.39835L831.922 11.9216ZM847.6 28.1344C851.074 35.0832 852.849 43.3512 852.849 53H856.849C856.849 42.8621 854.983 33.9568 851.177 26.3456L847.6 28.1344ZM852.849 53C852.849 62.6479 851.074 70.9671 847.595 78.0147L851.182 79.7853C854.983 72.0863 856.849 63.1388 856.849 53H852.849ZM847.591 78.0241C844.231 84.9199 839.067 90.3163 832.035 94.2327L833.982 97.7273C841.697 93.4303 847.453 87.4401 851.187 79.7759L847.591 78.0241ZM832.052 94.2234C825.061 98.0291 815.992 100 804.729 100V104C816.426 104 826.21 101.958 833.965 97.7366L832.052 94.2234ZM804.729 100H771.969V104H804.729V100ZM790.869 87.76H803.749V83.76H790.869V87.76ZM803.749 87.76C811.956 87.76 818.647 86.43 823.641 83.5765L821.656 80.1035C817.503 82.4766 811.595 83.76 803.749 83.76V87.76ZM823.626 83.585C828.68 80.7545 832.309 76.6744 834.443 71.3889L830.734 69.8911C828.949 74.3123 825.95 77.6989 821.671 80.095L823.626 83.585ZM834.448 71.3767C836.523 66.1399 837.529 59.9979 837.529 53H833.529C833.529 59.6287 832.574 65.2467 830.729 69.9033L834.448 71.3767ZM837.529 53C837.529 45.9144 836.525 39.7652 834.443 34.6111L830.734 36.1089C832.573 40.6615 833.529 46.2723 833.529 53H837.529ZM834.448 34.6233C832.318 29.2467 828.691 25.1117 823.626 22.275L821.671 25.765C825.939 28.1549 828.94 31.58 830.729 36.0967L834.448 34.6233ZM823.641 22.2835C818.647 19.43 811.956 18.1 803.749 18.1V22.1C811.595 22.1 817.503 23.3834 821.656 25.7565L823.641 22.2835ZM803.749 18.1H790.869V22.1H803.749V18.1ZM788.869 20.1V85.76H792.869V20.1H788.869Z" fill="white" mask="url(#path-1-outside-1_48_29)"/>
</svg>
