<svg width="531" height="344" viewBox="0 0 531 344" fill="none" xmlns="http://www.w3.org/2000/svg">
<path d="M337.485 115.288C335.853 115.288 334.413 114.92 333.165 114.184C331.917 113.448 330.941 112.432 330.237 111.136C329.533 109.824 329.181 108.312 329.181 106.6C329.181 104.888 329.533 103.384 330.237 102.088C330.941 100.776 331.917 99.752 333.165 99.016C334.413 98.28 335.853 97.912 337.485 97.912C339.133 97.912 340.581 98.28 341.829 99.016C343.077 99.752 344.045 100.776 344.733 102.088C345.437 103.384 345.789 104.888 345.789 106.6C345.789 108.312 345.437 109.824 344.733 111.136C344.045 112.432 343.077 113.448 341.829 114.184C340.581 114.92 339.133 115.288 337.485 115.288ZM337.485 112.384C338.509 112.384 339.389 112.152 340.125 111.688C340.877 111.208 341.461 110.536 341.877 109.672C342.293 108.808 342.501 107.784 342.501 106.6C342.501 105.4 342.293 104.376 341.877 103.528C341.461 102.664 340.877 102 340.125 101.536C339.389 101.072 338.509 100.84 337.485 100.84C336.477 100.84 335.597 101.072 334.845 101.536C334.093 102 333.509 102.664 333.093 103.528C332.677 104.376 332.469 105.4 332.469 106.6C332.469 107.784 332.677 108.808 333.093 109.672C333.509 110.536 334.093 111.208 334.845 111.688C335.597 112.152 336.477 112.384 337.485 112.384ZM351.193 115V98.2H354.433L362.161 109.792V98.2H365.401V115H362.161L354.433 103.432V115H351.193ZM371.318 115V98.2H382.358V100.816H374.558V105.208H381.638V107.728H374.558V112.384H382.358V115H371.318ZM402.742 115.288C401.51 115.288 400.39 115.04 399.382 114.544C398.374 114.048 397.574 113.304 396.982 112.312C396.39 111.32 396.094 110.056 396.094 108.52V98.2H399.334V108.544C399.334 109.376 399.47 110.08 399.742 110.656C400.014 111.216 400.406 111.632 400.918 111.904C401.446 112.176 402.07 112.312 402.79 112.312C403.526 112.312 404.15 112.176 404.662 111.904C405.19 111.632 405.59 111.216 405.862 110.656C406.134 110.08 406.27 109.376 406.27 108.544V98.2H409.51V108.52C409.51 110.056 409.206 111.32 408.598 112.312C407.99 113.304 407.166 114.048 406.126 114.544C405.102 115.04 403.974 115.288 402.742 115.288ZM415.308 115V98.2H418.548L426.276 109.792V98.2H429.516V115H426.276L418.548 103.432V115H415.308ZM435.433 115V98.2H438.673V115H435.433ZM444.612 115V98.2H455.556V100.816H447.852V105.304H454.02V107.848H447.852V115H444.612ZM460.588 115V98.2H463.828V115H460.588ZM469.767 115V98.2H480.807V100.816H473.007V105.208H480.087V107.728H473.007V112.384H480.807V115H469.767ZM486.399 115V98.2H492.015C493.967 98.2 495.575 98.552 496.839 99.256C498.119 99.944 499.063 100.92 499.671 102.184C500.295 103.432 500.607 104.904 500.607 106.6C500.607 108.296 500.295 109.776 499.671 111.04C499.063 112.288 498.127 113.264 496.863 113.968C495.599 114.656 493.983 115 492.015 115H486.399ZM489.639 112.216H491.847C493.223 112.216 494.303 111.992 495.087 111.544C495.887 111.096 496.455 110.456 496.791 109.624C497.127 108.776 497.295 107.768 497.295 106.6C497.295 105.416 497.127 104.408 496.791 103.576C496.455 102.728 495.887 102.08 495.087 101.632C494.303 101.184 493.223 100.96 491.847 100.96H489.639V112.216ZM358.208 146V129.2H364.496C365.856 129.2 366.984 129.432 367.88 129.896C368.776 130.36 369.44 130.984 369.872 131.768C370.304 132.552 370.52 133.448 370.52 134.456C370.52 135.384 370.312 136.24 369.896 137.024C369.48 137.808 368.824 138.448 367.928 138.944C367.032 139.424 365.888 139.664 364.496 139.664H361.448V146H358.208ZM361.448 137.048H364.304C365.344 137.048 366.088 136.816 366.536 136.352C367 135.872 367.232 135.24 367.232 134.456C367.232 133.624 367 132.984 366.536 132.536C366.088 132.072 365.344 131.84 364.304 131.84H361.448V137.048ZM375.59 146V129.2H378.83V143.48H386.198V146H375.59ZM390.485 146L396.629 129.2H400.301L406.421 146H402.989L398.453 132.896L393.893 146H390.485ZM393.197 142.184L394.061 139.664H402.605L403.445 142.184H393.197ZM413.399 146V131.816H408.479V129.2H421.511V131.816H416.615V146H413.399ZM426.448 146V129.2H437.392V131.816H429.688V136.304H435.856V138.848H429.688V146H426.448ZM450.176 146.288C448.544 146.288 447.104 145.92 445.856 145.184C444.608 144.448 443.632 143.432 442.928 142.136C442.224 140.824 441.872 139.312 441.872 137.6C441.872 135.888 442.224 134.384 442.928 133.088C443.632 131.776 444.608 130.752 445.856 130.016C447.104 129.28 448.544 128.912 450.176 128.912C451.824 128.912 453.272 129.28 454.52 130.016C455.768 130.752 456.736 131.776 457.424 133.088C458.128 134.384 458.48 135.888 458.48 137.6C458.48 139.312 458.128 140.824 457.424 142.136C456.736 143.432 455.768 144.448 454.52 145.184C453.272 145.92 451.824 146.288 450.176 146.288ZM450.176 143.384C451.2 143.384 452.08 143.152 452.816 142.688C453.568 142.208 454.152 141.536 454.568 140.672C454.984 139.808 455.192 138.784 455.192 137.6C455.192 136.4 454.984 135.376 454.568 134.528C454.152 133.664 453.568 133 452.816 132.536C452.08 132.072 451.2 131.84 450.176 131.84C449.168 131.84 448.288 132.072 447.536 132.536C446.784 133 446.2 133.664 445.784 134.528C445.368 135.376 445.16 136.4 445.16 137.6C445.16 138.784 445.368 139.808 445.784 140.672C446.2 141.536 446.784 142.208 447.536 142.688C448.288 143.152 449.168 143.384 450.176 143.384ZM463.884 146V129.2H470.148C471.508 129.2 472.628 129.432 473.508 129.896C474.388 130.36 475.044 130.984 475.476 131.768C475.908 132.536 476.124 133.392 476.124 134.336C476.124 135.232 475.916 136.072 475.5 136.856C475.084 137.624 474.428 138.248 473.532 138.728C472.652 139.192 471.516 139.424 470.124 139.424H467.124V146H463.884ZM472.596 146L469.14 138.608H472.644L476.292 146H472.596ZM467.124 137.072H469.956C470.932 137.072 471.652 136.832 472.116 136.352C472.58 135.872 472.812 135.24 472.812 134.456C472.812 133.672 472.58 133.056 472.116 132.608C471.668 132.144 470.948 131.912 469.956 131.912H467.124V137.072ZM481.664 146V129.2H485.528L490.664 139.688L495.752 129.2H499.616V146H496.376V134.72L491.936 143.648H489.368L484.904 134.72V146H481.664ZM506.954 146.12C506.346 146.12 505.858 145.944 505.49 145.592C505.122 145.224 504.938 144.776 504.938 144.248C504.938 143.72 505.122 143.28 505.49 142.928C505.858 142.56 506.346 142.376 506.954 142.376C507.53 142.376 508.002 142.56 508.37 142.928C508.738 143.28 508.922 143.72 508.922 144.248C508.922 144.776 508.738 145.224 508.37 145.592C508.002 145.944 507.53 146.12 506.954 146.12ZM506.954 137.336C506.346 137.336 505.858 137.16 505.49 136.808C505.122 136.44 504.938 135.992 504.938 135.464C504.938 134.936 505.122 134.496 505.49 134.144C505.858 133.776 506.346 133.592 506.954 133.592C507.53 133.592 508.002 133.776 508.37 134.144C508.738 134.496 508.922 134.936 508.922 135.464C508.922 135.992 508.738 136.44 508.37 136.808C508.002 137.16 507.53 137.336 506.954 137.336Z" fill="white"/>
<path d="M260.036 205V192.4H267.83V193.642H261.548V198.034H267.29V199.258H261.548V203.758H267.83V205H260.036ZM272.733 205L269.295 195.928H270.879L273.615 203.542L276.369 195.928H277.917L274.479 205H272.733ZM283.136 205.216C282.284 205.216 281.528 205.018 280.868 204.622C280.22 204.226 279.71 203.674 279.338 202.966C278.966 202.246 278.78 201.412 278.78 200.464C278.78 199.504 278.96 198.67 279.32 197.962C279.692 197.254 280.208 196.702 280.868 196.306C281.54 195.91 282.308 195.712 283.172 195.712C284.06 195.712 284.81 195.91 285.422 196.306C286.046 196.702 286.52 197.224 286.844 197.872C287.18 198.508 287.348 199.21 287.348 199.978C287.348 200.098 287.348 200.224 287.348 200.356C287.348 200.488 287.342 200.638 287.33 200.806H279.914V199.636H285.872C285.836 198.808 285.56 198.16 285.044 197.692C284.54 197.224 283.904 196.99 283.136 196.99C282.62 196.99 282.14 197.11 281.696 197.35C281.264 197.578 280.916 197.92 280.652 198.376C280.388 198.82 280.256 199.378 280.256 200.05V200.554C280.256 201.298 280.388 201.922 280.652 202.426C280.928 202.93 281.282 203.308 281.714 203.56C282.158 203.812 282.632 203.938 283.136 203.938C283.772 203.938 284.294 203.8 284.702 203.524C285.122 203.236 285.422 202.852 285.602 202.372H287.096C286.952 202.912 286.7 203.398 286.34 203.83C285.98 204.262 285.53 204.604 284.99 204.856C284.462 205.096 283.844 205.216 283.136 205.216ZM289.389 205V195.928H290.757L290.865 197.656C291.069 197.248 291.327 196.9 291.639 196.612C291.963 196.324 292.347 196.102 292.791 195.946C293.247 195.79 293.763 195.712 294.339 195.712V197.296H293.781C293.397 197.296 293.031 197.35 292.683 197.458C292.335 197.554 292.023 197.716 291.747 197.944C291.483 198.172 291.273 198.484 291.117 198.88C290.973 199.264 290.901 199.744 290.901 200.32V205H289.389ZM297.041 208.96L299.255 203.992H298.733L295.169 195.928H296.807L299.759 202.858L302.855 195.928H304.421L298.625 208.96H297.041ZM309.617 205C309.077 205 308.609 204.916 308.213 204.748C307.817 204.58 307.511 204.298 307.295 203.902C307.091 203.494 306.989 202.948 306.989 202.264V197.206H305.405V195.928H306.989L307.187 193.732H308.501V195.928H311.129V197.206H308.501V202.264C308.501 202.828 308.615 203.212 308.843 203.416C309.071 203.608 309.473 203.704 310.049 203.704H311.021V205H309.617ZM313.102 205V192.04H314.614V197.458C314.914 196.918 315.334 196.492 315.874 196.18C316.426 195.868 317.026 195.712 317.674 195.712C318.37 195.712 318.976 195.856 319.492 196.144C320.008 196.42 320.404 196.846 320.68 197.422C320.956 197.998 321.094 198.724 321.094 199.6V205H319.6V199.762C319.6 198.85 319.408 198.166 319.024 197.71C318.64 197.242 318.082 197.008 317.35 197.008C316.834 197.008 316.366 197.134 315.946 197.386C315.538 197.638 315.214 197.998 314.974 198.466C314.734 198.934 314.614 199.51 314.614 200.194V205H313.102ZM323.599 205V195.928H325.111V205H323.599ZM324.355 194.002C324.055 194.002 323.803 193.906 323.599 193.714C323.407 193.51 323.311 193.258 323.311 192.958C323.311 192.658 323.407 192.418 323.599 192.238C323.803 192.046 324.055 191.95 324.355 191.95C324.643 191.95 324.889 192.046 325.093 192.238C325.297 192.418 325.399 192.658 325.399 192.958C325.399 193.258 325.297 193.51 325.093 193.714C324.889 193.906 324.643 194.002 324.355 194.002ZM327.78 205V195.928H329.148L329.22 197.512C329.508 196.948 329.916 196.51 330.444 196.198C330.984 195.874 331.596 195.712 332.28 195.712C332.988 195.712 333.6 195.856 334.116 196.144C334.632 196.42 335.034 196.846 335.322 197.422C335.61 197.986 335.754 198.706 335.754 199.582V205H334.242V199.744C334.242 198.832 334.038 198.148 333.63 197.692C333.234 197.236 332.67 197.008 331.938 197.008C331.434 197.008 330.984 197.134 330.588 197.386C330.192 197.626 329.874 197.98 329.634 198.448C329.406 198.904 329.292 199.474 329.292 200.158V205H327.78ZM341.679 209.176C340.863 209.176 340.143 209.068 339.519 208.852C338.895 208.648 338.403 208.33 338.043 207.898C337.695 207.466 337.521 206.932 337.521 206.296C337.521 206.032 337.575 205.744 337.683 205.432C337.803 205.12 338.001 204.814 338.277 204.514C338.565 204.214 338.967 203.944 339.483 203.704L340.527 204.316C339.903 204.58 339.489 204.88 339.285 205.216C339.093 205.552 338.997 205.864 338.997 206.152C338.997 206.548 339.111 206.878 339.339 207.142C339.579 207.406 339.897 207.604 340.293 207.736C340.701 207.868 341.163 207.934 341.679 207.934C342.183 207.934 342.621 207.856 342.993 207.7C343.365 207.556 343.653 207.352 343.857 207.088C344.061 206.824 344.163 206.518 344.163 206.17C344.163 205.762 344.007 205.414 343.695 205.126C343.383 204.85 342.795 204.688 341.931 204.64C341.223 204.592 340.629 204.526 340.149 204.442C339.681 204.358 339.285 204.262 338.961 204.154C338.649 204.034 338.385 203.902 338.169 203.758C337.965 203.614 337.779 203.464 337.611 203.308V202.894L339.375 201.148L340.671 201.616L338.871 203.254L339.105 202.624C339.237 202.72 339.363 202.81 339.483 202.894C339.603 202.978 339.765 203.05 339.969 203.11C340.185 203.17 340.473 203.224 340.833 203.272C341.193 203.32 341.673 203.368 342.273 203.416C343.089 203.476 343.743 203.62 344.235 203.848C344.739 204.076 345.099 204.382 345.315 204.766C345.543 205.15 345.657 205.6 345.657 206.116C345.657 206.62 345.513 207.106 345.225 207.574C344.949 208.042 344.517 208.426 343.929 208.726C343.341 209.026 342.591 209.176 341.679 209.176ZM341.661 202.174C340.905 202.174 340.257 202.03 339.717 201.742C339.189 201.454 338.787 201.07 338.511 200.59C338.235 200.11 338.097 199.57 338.097 198.97C338.097 198.382 338.235 197.848 338.511 197.368C338.799 196.888 339.207 196.504 339.735 196.216C340.263 195.916 340.905 195.766 341.661 195.766C342.417 195.766 343.059 195.916 343.587 196.216C344.115 196.504 344.517 196.888 344.793 197.368C345.069 197.848 345.207 198.382 345.207 198.97C345.207 199.57 345.069 200.11 344.793 200.59C344.517 201.07 344.115 201.454 343.587 201.742C343.059 202.03 342.417 202.174 341.661 202.174ZM341.661 200.932C342.297 200.932 342.801 200.764 343.173 200.428C343.557 200.092 343.749 199.606 343.749 198.97C343.749 198.346 343.557 197.866 343.173 197.53C342.801 197.194 342.297 197.026 341.661 197.026C341.025 197.026 340.509 197.194 340.113 197.53C339.729 197.866 339.537 198.346 339.537 198.97C339.537 199.606 339.729 200.092 340.113 200.428C340.497 200.764 341.013 200.932 341.661 200.932ZM343.119 197.26L342.669 195.982H346.377V197.116L343.119 197.26ZM353.924 208.96L356.138 203.992H355.616L352.052 195.928H353.69L356.642 202.858L359.738 195.928H361.304L355.508 208.96H353.924ZM366.142 205.216C365.302 205.216 364.546 205.024 363.874 204.64C363.202 204.244 362.674 203.692 362.29 202.984C361.906 202.264 361.714 201.43 361.714 200.482C361.714 199.51 361.906 198.67 362.29 197.962C362.686 197.242 363.22 196.69 363.892 196.306C364.576 195.91 365.338 195.712 366.178 195.712C367.042 195.712 367.804 195.91 368.464 196.306C369.136 196.69 369.664 197.242 370.048 197.962C370.444 198.67 370.642 199.504 370.642 200.464C370.642 201.424 370.444 202.264 370.048 202.984C369.652 203.692 369.118 204.244 368.446 204.64C367.774 205.024 367.006 205.216 366.142 205.216ZM366.16 203.92C366.676 203.92 367.156 203.794 367.6 203.542C368.044 203.278 368.404 202.888 368.68 202.372C368.956 201.856 369.094 201.22 369.094 200.464C369.094 199.696 368.956 199.06 368.68 198.556C368.416 198.04 368.062 197.656 367.618 197.404C367.186 197.14 366.706 197.008 366.178 197.008C365.674 197.008 365.194 197.14 364.738 197.404C364.294 197.656 363.934 198.04 363.658 198.556C363.394 199.06 363.262 199.696 363.262 200.464C363.262 201.22 363.394 201.856 363.658 202.372C363.934 202.888 364.288 203.278 364.72 203.542C365.164 203.794 365.644 203.92 366.16 203.92ZM376.056 205.216C375.36 205.216 374.748 205.078 374.22 204.802C373.704 204.526 373.302 204.1 373.014 203.524C372.738 202.948 372.6 202.228 372.6 201.364V195.928H374.112V201.202C374.112 202.102 374.31 202.78 374.706 203.236C375.102 203.692 375.66 203.92 376.38 203.92C376.884 203.92 377.34 203.8 377.748 203.56C378.156 203.308 378.474 202.954 378.702 202.498C378.942 202.03 379.062 201.46 379.062 200.788V195.928H380.574V205H379.206L379.116 203.416C378.84 203.98 378.432 204.424 377.892 204.748C377.352 205.06 376.74 205.216 376.056 205.216ZM387.862 205V195.928H389.23L389.302 197.512C389.59 196.948 389.998 196.51 390.526 196.198C391.066 195.874 391.678 195.712 392.362 195.712C393.07 195.712 393.682 195.856 394.198 196.144C394.714 196.42 395.116 196.846 395.404 197.422C395.692 197.986 395.836 198.706 395.836 199.582V205H394.324V199.744C394.324 198.832 394.12 198.148 393.712 197.692C393.316 197.236 392.752 197.008 392.02 197.008C391.516 197.008 391.066 197.134 390.67 197.386C390.274 197.626 389.956 197.98 389.716 198.448C389.488 198.904 389.374 199.474 389.374 200.158V205H387.862ZM402.176 205.216C401.324 205.216 400.568 205.018 399.908 204.622C399.26 204.226 398.75 203.674 398.378 202.966C398.006 202.246 397.82 201.412 397.82 200.464C397.82 199.504 398 198.67 398.36 197.962C398.732 197.254 399.248 196.702 399.908 196.306C400.58 195.91 401.348 195.712 402.212 195.712C403.1 195.712 403.85 195.91 404.462 196.306C405.086 196.702 405.56 197.224 405.884 197.872C406.22 198.508 406.388 199.21 406.388 199.978C406.388 200.098 406.388 200.224 406.388 200.356C406.388 200.488 406.382 200.638 406.37 200.806H398.954V199.636H404.912C404.876 198.808 404.6 198.16 404.084 197.692C403.58 197.224 402.944 196.99 402.176 196.99C401.66 196.99 401.18 197.11 400.736 197.35C400.304 197.578 399.956 197.92 399.692 198.376C399.428 198.82 399.296 199.378 399.296 200.05V200.554C399.296 201.298 399.428 201.922 399.692 202.426C399.968 202.93 400.322 203.308 400.754 203.56C401.198 203.812 401.672 203.938 402.176 203.938C402.812 203.938 403.334 203.8 403.742 203.524C404.162 203.236 404.462 202.852 404.642 202.372H406.136C405.992 202.912 405.74 203.398 405.38 203.83C405.02 204.262 404.57 204.604 404.03 204.856C403.502 205.096 402.884 205.216 402.176 205.216ZM412.406 205.216C411.554 205.216 410.798 205.018 410.138 204.622C409.49 204.226 408.98 203.674 408.608 202.966C408.236 202.246 408.05 201.412 408.05 200.464C408.05 199.504 408.23 198.67 408.59 197.962C408.962 197.254 409.478 196.702 410.138 196.306C410.81 195.91 411.578 195.712 412.442 195.712C413.33 195.712 414.08 195.91 414.692 196.306C415.316 196.702 415.79 197.224 416.114 197.872C416.45 198.508 416.618 199.21 416.618 199.978C416.618 200.098 416.618 200.224 416.618 200.356C416.618 200.488 416.612 200.638 416.6 200.806H409.184V199.636H415.142C415.106 198.808 414.83 198.16 414.314 197.692C413.81 197.224 413.174 196.99 412.406 196.99C411.89 196.99 411.41 197.11 410.966 197.35C410.534 197.578 410.186 197.92 409.922 198.376C409.658 198.82 409.526 199.378 409.526 200.05V200.554C409.526 201.298 409.658 201.922 409.922 202.426C410.198 202.93 410.552 203.308 410.984 203.56C411.428 203.812 411.902 203.938 412.406 203.938C413.042 203.938 413.564 203.8 413.972 203.524C414.392 203.236 414.692 202.852 414.872 202.372H416.366C416.222 202.912 415.97 203.398 415.61 203.83C415.25 204.262 414.8 204.604 414.26 204.856C413.732 205.096 413.114 205.216 412.406 205.216ZM422.654 205.216C421.778 205.216 421.01 205.012 420.35 204.604C419.69 204.184 419.18 203.614 418.82 202.894C418.46 202.174 418.28 201.358 418.28 200.446C418.28 199.534 418.46 198.724 418.82 198.016C419.18 197.296 419.69 196.732 420.35 196.324C421.022 195.916 421.796 195.712 422.672 195.712C423.416 195.712 424.064 195.862 424.616 196.162C425.18 196.462 425.612 196.882 425.912 197.422V192.04H427.424V205H426.056L425.93 203.506C425.738 203.806 425.492 204.088 425.192 204.352C424.892 204.604 424.532 204.814 424.112 204.982C423.692 205.138 423.206 205.216 422.654 205.216ZM422.834 203.902C423.434 203.902 423.962 203.758 424.418 203.47C424.874 203.182 425.228 202.786 425.48 202.282C425.732 201.766 425.858 201.16 425.858 200.464C425.858 199.78 425.732 199.18 425.48 198.664C425.228 198.148 424.874 197.746 424.418 197.458C423.962 197.17 423.434 197.026 422.834 197.026C422.246 197.026 421.724 197.17 421.268 197.458C420.812 197.746 420.458 198.148 420.206 198.664C419.954 199.18 419.828 199.78 419.828 200.464C419.828 201.16 419.954 201.766 420.206 202.282C420.458 202.786 420.812 203.182 421.268 203.47C421.724 203.758 422.246 203.902 422.834 203.902ZM428.756 207.214L429.8 203.236H431.366L429.8 207.214H428.756ZM440.946 205.216C440.214 205.216 439.602 205.09 439.11 204.838C438.618 204.574 438.252 204.232 438.012 203.812C437.772 203.38 437.652 202.912 437.652 202.408C437.652 201.796 437.808 201.28 438.12 200.86C438.444 200.428 438.894 200.104 439.47 199.888C440.058 199.66 440.748 199.546 441.54 199.546H443.934C443.934 198.982 443.844 198.514 443.664 198.142C443.496 197.758 443.244 197.47 442.908 197.278C442.584 197.086 442.176 196.99 441.684 196.99C441.108 196.99 440.61 197.134 440.19 197.422C439.77 197.71 439.512 198.136 439.416 198.7H437.868C437.94 198.052 438.156 197.512 438.516 197.08C438.888 196.636 439.356 196.3 439.92 196.072C440.484 195.832 441.072 195.712 441.684 195.712C442.524 195.712 443.22 195.868 443.772 196.18C444.336 196.48 444.756 196.906 445.032 197.458C445.308 197.998 445.446 198.64 445.446 199.384V205H444.096L444.006 203.398C443.886 203.65 443.73 203.89 443.538 204.118C443.358 204.334 443.142 204.526 442.89 204.694C442.638 204.85 442.35 204.976 442.026 205.072C441.714 205.168 441.354 205.216 440.946 205.216ZM441.18 203.938C441.6 203.938 441.978 203.854 442.314 203.686C442.662 203.506 442.956 203.266 443.196 202.966C443.436 202.654 443.616 202.312 443.736 201.94C443.868 201.568 443.934 201.178 443.934 200.77V200.716H441.666C441.078 200.716 440.604 200.788 440.244 200.932C439.884 201.064 439.626 201.256 439.47 201.508C439.314 201.748 439.236 202.024 439.236 202.336C439.236 202.66 439.308 202.942 439.452 203.182C439.608 203.422 439.83 203.608 440.118 203.74C440.418 203.872 440.772 203.938 441.18 203.938ZM447.785 205V192.04H449.297V205H447.785ZM451.793 205V192.04H453.305V205H451.793ZM460.726 205V195.928H462.238V205H460.726ZM461.482 194.002C461.182 194.002 460.93 193.906 460.726 193.714C460.534 193.51 460.438 193.258 460.438 192.958C460.438 192.658 460.534 192.418 460.726 192.238C460.93 192.046 461.182 191.95 461.482 191.95C461.77 191.95 462.016 192.046 462.22 192.238C462.424 192.418 462.526 192.658 462.526 192.958C462.526 193.258 462.424 193.51 462.22 193.714C462.016 193.906 461.77 194.002 461.482 194.002ZM464.906 205V195.928H466.274L466.346 197.512C466.634 196.948 467.042 196.51 467.57 196.198C468.11 195.874 468.722 195.712 469.406 195.712C470.114 195.712 470.726 195.856 471.242 196.144C471.758 196.42 472.16 196.846 472.448 197.422C472.736 197.986 472.88 198.706 472.88 199.582V205H471.368V199.744C471.368 198.832 471.164 198.148 470.756 197.692C470.36 197.236 469.796 197.008 469.064 197.008C468.56 197.008 468.11 197.134 467.714 197.386C467.318 197.626 467 197.98 466.76 198.448C466.532 198.904 466.418 199.474 466.418 200.158V205H464.906ZM484.074 205.216C483.234 205.216 482.478 205.024 481.806 204.64C481.134 204.244 480.606 203.692 480.222 202.984C479.838 202.264 479.646 201.43 479.646 200.482C479.646 199.51 479.838 198.67 480.222 197.962C480.618 197.242 481.152 196.69 481.824 196.306C482.508 195.91 483.27 195.712 484.11 195.712C484.974 195.712 485.736 195.91 486.396 196.306C487.068 196.69 487.596 197.242 487.98 197.962C488.376 198.67 488.574 199.504 488.574 200.464C488.574 201.424 488.376 202.264 487.98 202.984C487.584 203.692 487.05 204.244 486.378 204.64C485.706 205.024 484.938 205.216 484.074 205.216ZM484.092 203.92C484.608 203.92 485.088 203.794 485.532 203.542C485.976 203.278 486.336 202.888 486.612 202.372C486.888 201.856 487.026 201.22 487.026 200.464C487.026 199.696 486.888 199.06 486.612 198.556C486.348 198.04 485.994 197.656 485.55 197.404C485.118 197.14 484.638 197.008 484.11 197.008C483.606 197.008 483.126 197.14 482.67 197.404C482.226 197.656 481.866 198.04 481.59 198.556C481.326 199.06 481.194 199.696 481.194 200.464C481.194 201.22 481.326 201.856 481.59 202.372C481.866 202.888 482.22 203.278 482.652 203.542C483.096 203.794 483.576 203.92 484.092 203.92ZM490.694 205V195.928H492.062L492.134 197.512C492.422 196.948 492.83 196.51 493.358 196.198C493.898 195.874 494.51 195.712 495.194 195.712C495.902 195.712 496.514 195.856 497.03 196.144C497.546 196.42 497.948 196.846 498.236 197.422C498.524 197.986 498.668 198.706 498.668 199.582V205H497.156V199.744C497.156 198.832 496.952 198.148 496.544 197.692C496.148 197.236 495.584 197.008 494.852 197.008C494.348 197.008 493.898 197.134 493.502 197.386C493.106 197.626 492.788 197.98 492.548 198.448C492.32 198.904 492.206 199.474 492.206 200.158V205H490.694ZM505.008 205.216C504.156 205.216 503.4 205.018 502.74 204.622C502.092 204.226 501.582 203.674 501.21 202.966C500.838 202.246 500.652 201.412 500.652 200.464C500.652 199.504 500.832 198.67 501.192 197.962C501.564 197.254 502.08 196.702 502.74 196.306C503.412 195.91 504.18 195.712 505.044 195.712C505.932 195.712 506.682 195.91 507.294 196.306C507.918 196.702 508.392 197.224 508.716 197.872C509.052 198.508 509.22 199.21 509.22 199.978C509.22 200.098 509.22 200.224 509.22 200.356C509.22 200.488 509.214 200.638 509.202 200.806H501.786V199.636H507.744C507.708 198.808 507.432 198.16 506.916 197.692C506.412 197.224 505.776 196.99 505.008 196.99C504.492 196.99 504.012 197.11 503.568 197.35C503.136 197.578 502.788 197.92 502.524 198.376C502.26 198.82 502.128 199.378 502.128 200.05V200.554C502.128 201.298 502.26 201.922 502.524 202.426C502.8 202.93 503.154 203.308 503.586 203.56C504.03 203.812 504.504 203.938 505.008 203.938C505.644 203.938 506.166 203.8 506.574 203.524C506.994 203.236 507.294 202.852 507.474 202.372H508.968C508.824 202.912 508.572 203.398 508.212 203.83C507.852 204.262 507.402 204.604 506.862 204.856C506.334 205.096 505.716 205.216 505.008 205.216ZM250.506 231.96V218.928H251.874L252 220.404C252.192 220.116 252.438 219.846 252.738 219.594C253.038 219.33 253.398 219.12 253.818 218.964C254.238 218.796 254.718 218.712 255.258 218.712C256.146 218.712 256.914 218.922 257.562 219.342C258.222 219.762 258.732 220.332 259.092 221.052C259.464 221.76 259.65 222.57 259.65 223.482C259.65 224.394 259.464 225.21 259.092 225.93C258.732 226.638 258.222 227.196 257.562 227.604C256.902 228.012 256.128 228.216 255.24 228.216C254.508 228.216 253.86 228.066 253.296 227.766C252.744 227.466 252.318 227.046 252.018 226.506V231.96H250.506ZM255.078 226.902C255.666 226.902 256.188 226.758 256.644 226.47C257.1 226.182 257.454 225.786 257.706 225.282C257.97 224.766 258.102 224.16 258.102 223.464C258.102 222.78 257.97 222.18 257.706 221.664C257.454 221.148 257.1 220.746 256.644 220.458C256.188 220.17 255.666 220.026 255.078 220.026C254.478 220.026 253.95 220.17 253.494 220.458C253.038 220.746 252.684 221.148 252.432 221.664C252.18 222.18 252.054 222.78 252.054 223.464C252.054 224.16 252.18 224.766 252.432 225.282C252.684 225.786 253.038 226.182 253.494 226.47C253.95 226.758 254.478 226.902 255.078 226.902ZM261.774 228V215.04H263.286V228H261.774ZM268.733 228.216C268.001 228.216 267.389 228.09 266.897 227.838C266.405 227.574 266.039 227.232 265.799 226.812C265.559 226.38 265.439 225.912 265.439 225.408C265.439 224.796 265.595 224.28 265.907 223.86C266.231 223.428 266.681 223.104 267.257 222.888C267.845 222.66 268.535 222.546 269.327 222.546H271.721C271.721 221.982 271.631 221.514 271.451 221.142C271.283 220.758 271.031 220.47 270.695 220.278C270.371 220.086 269.963 219.99 269.471 219.99C268.895 219.99 268.397 220.134 267.977 220.422C267.557 220.71 267.299 221.136 267.203 221.7H265.655C265.727 221.052 265.943 220.512 266.303 220.08C266.675 219.636 267.143 219.3 267.707 219.072C268.271 218.832 268.859 218.712 269.471 218.712C270.311 218.712 271.007 218.868 271.559 219.18C272.123 219.48 272.543 219.906 272.819 220.458C273.095 220.998 273.233 221.64 273.233 222.384V228H271.883L271.793 226.398C271.673 226.65 271.517 226.89 271.325 227.118C271.145 227.334 270.929 227.526 270.677 227.694C270.425 227.85 270.137 227.976 269.813 228.072C269.501 228.168 269.141 228.216 268.733 228.216ZM268.967 226.938C269.387 226.938 269.765 226.854 270.101 226.686C270.449 226.506 270.743 226.266 270.983 225.966C271.223 225.654 271.403 225.312 271.523 224.94C271.655 224.568 271.721 224.178 271.721 223.77V223.716H269.453C268.865 223.716 268.391 223.788 268.031 223.932C267.671 224.064 267.413 224.256 267.257 224.508C267.101 224.748 267.023 225.024 267.023 225.336C267.023 225.66 267.095 225.942 267.239 226.182C267.395 226.422 267.617 226.608 267.905 226.74C268.205 226.872 268.559 226.938 268.967 226.938ZM279.659 228.216C278.807 228.216 278.039 228.018 277.355 227.622C276.683 227.226 276.155 226.674 275.771 225.966C275.387 225.246 275.195 224.418 275.195 223.482C275.195 222.522 275.387 221.688 275.771 220.98C276.155 220.272 276.683 219.72 277.355 219.324C278.039 218.916 278.807 218.712 279.659 218.712C280.739 218.712 281.639 218.994 282.359 219.558C283.079 220.11 283.535 220.854 283.727 221.79H282.179C282.059 221.226 281.765 220.788 281.297 220.476C280.829 220.164 280.277 220.008 279.641 220.008C279.125 220.008 278.645 220.14 278.201 220.404C277.757 220.656 277.403 221.04 277.139 221.556C276.875 222.072 276.743 222.708 276.743 223.464C276.743 224.028 276.821 224.532 276.977 224.976C277.133 225.408 277.343 225.768 277.607 226.056C277.871 226.344 278.177 226.566 278.525 226.722C278.885 226.866 279.257 226.938 279.641 226.938C280.073 226.938 280.463 226.872 280.811 226.74C281.159 226.596 281.453 226.386 281.693 226.11C281.933 225.834 282.095 225.51 282.179 225.138H283.727C283.535 226.05 283.073 226.794 282.341 227.37C281.621 227.934 280.727 228.216 279.659 228.216ZM289.851 228.216C288.999 228.216 288.243 228.018 287.583 227.622C286.935 227.226 286.425 226.674 286.053 225.966C285.681 225.246 285.495 224.412 285.495 223.464C285.495 222.504 285.675 221.67 286.035 220.962C286.407 220.254 286.923 219.702 287.583 219.306C288.255 218.91 289.023 218.712 289.887 218.712C290.775 218.712 291.525 218.91 292.137 219.306C292.761 219.702 293.235 220.224 293.559 220.872C293.895 221.508 294.063 222.21 294.063 222.978C294.063 223.098 294.063 223.224 294.063 223.356C294.063 223.488 294.057 223.638 294.045 223.806H286.629V222.636H292.587C292.551 221.808 292.275 221.16 291.759 220.692C291.255 220.224 290.619 219.99 289.851 219.99C289.335 219.99 288.855 220.11 288.411 220.35C287.979 220.578 287.631 220.92 287.367 221.376C287.103 221.82 286.971 222.378 286.971 223.05V223.554C286.971 224.298 287.103 224.922 287.367 225.426C287.643 225.93 287.997 226.308 288.429 226.56C288.873 226.812 289.347 226.938 289.851 226.938C290.487 226.938 291.009 226.8 291.417 226.524C291.837 226.236 292.137 225.852 292.317 225.372H293.811C293.667 225.912 293.415 226.398 293.055 226.83C292.695 227.262 292.245 227.604 291.705 227.856C291.177 228.096 290.559 228.216 289.851 228.216ZM296.14 223.32V222.042H309.244V223.32H296.14ZM312.323 228V217.524C312.323 216.948 312.419 216.48 312.611 216.12C312.803 215.748 313.085 215.478 313.457 215.31C313.841 215.13 314.309 215.04 314.861 215.04H315.887V216.336H315.095C314.651 216.336 314.327 216.426 314.123 216.606C313.931 216.786 313.835 217.104 313.835 217.56V228H312.323ZM310.937 220.206V218.928H316.121V220.206H310.937ZM317.936 228V218.928H319.304L319.412 220.656C319.616 220.248 319.874 219.9 320.186 219.612C320.51 219.324 320.894 219.102 321.338 218.946C321.794 218.79 322.31 218.712 322.886 218.712V220.296H322.328C321.944 220.296 321.578 220.35 321.23 220.458C320.882 220.554 320.57 220.716 320.294 220.944C320.03 221.172 319.82 221.484 319.664 221.88C319.52 222.264 319.448 222.744 319.448 223.32V228H317.936ZM328.314 228.216C327.474 228.216 326.718 228.024 326.046 227.64C325.374 227.244 324.846 226.692 324.462 225.984C324.078 225.264 323.886 224.43 323.886 223.482C323.886 222.51 324.078 221.67 324.462 220.962C324.858 220.242 325.392 219.69 326.064 219.306C326.748 218.91 327.51 218.712 328.35 218.712C329.214 218.712 329.976 218.91 330.636 219.306C331.308 219.69 331.836 220.242 332.22 220.962C332.616 221.67 332.814 222.504 332.814 223.464C332.814 224.424 332.616 225.264 332.22 225.984C331.824 226.692 331.29 227.244 330.618 227.64C329.946 228.024 329.178 228.216 328.314 228.216ZM328.332 226.92C328.848 226.92 329.328 226.794 329.772 226.542C330.216 226.278 330.576 225.888 330.852 225.372C331.128 224.856 331.266 224.22 331.266 223.464C331.266 222.696 331.128 222.06 330.852 221.556C330.588 221.04 330.234 220.656 329.79 220.404C329.358 220.14 328.878 220.008 328.35 220.008C327.846 220.008 327.366 220.14 326.91 220.404C326.466 220.656 326.106 221.04 325.83 221.556C325.566 222.06 325.434 222.696 325.434 223.464C325.434 224.22 325.566 224.856 325.83 225.372C326.106 225.888 326.46 226.278 326.892 226.542C327.336 226.794 327.816 226.92 328.332 226.92ZM334.934 228V218.928H336.302L336.392 220.224C336.68 219.756 337.064 219.39 337.544 219.126C338.036 218.85 338.57 218.712 339.146 218.712C339.614 218.712 340.034 218.778 340.406 218.91C340.79 219.03 341.126 219.222 341.414 219.486C341.702 219.738 341.936 220.062 342.116 220.458C342.428 219.906 342.854 219.48 343.394 219.18C343.946 218.868 344.534 218.712 345.158 218.712C345.854 218.712 346.46 218.856 346.976 219.144C347.504 219.42 347.906 219.846 348.182 220.422C348.47 220.986 348.614 221.706 348.614 222.582V228H347.12V222.744C347.12 221.832 346.934 221.148 346.562 220.692C346.19 220.236 345.668 220.008 344.996 220.008C344.528 220.008 344.108 220.134 343.736 220.386C343.364 220.626 343.07 220.98 342.854 221.448C342.638 221.916 342.53 222.492 342.53 223.176V228H341.018V222.744C341.018 221.832 340.832 221.148 340.46 220.692C340.088 220.236 339.56 220.008 338.876 220.008C338.42 220.008 338.006 220.134 337.634 220.386C337.274 220.626 336.986 220.98 336.77 221.448C336.554 221.916 336.446 222.492 336.446 223.176V228H334.934ZM359.166 228.216C358.41 228.216 357.75 228.09 357.186 227.838C356.634 227.586 356.19 227.238 355.854 226.794C355.53 226.338 355.332 225.804 355.26 225.192H356.808C356.868 225.504 356.994 225.792 357.186 226.056C357.378 226.32 357.636 226.536 357.96 226.704C358.296 226.86 358.704 226.938 359.184 226.938C359.604 226.938 359.952 226.878 360.228 226.758C360.504 226.626 360.708 226.452 360.84 226.236C360.984 226.02 361.056 225.786 361.056 225.534C361.056 225.162 360.966 224.88 360.786 224.688C360.618 224.496 360.366 224.346 360.03 224.238C359.694 224.118 359.286 224.016 358.806 223.932C358.41 223.86 358.02 223.764 357.636 223.644C357.252 223.524 356.91 223.368 356.61 223.176C356.31 222.972 356.07 222.726 355.89 222.438C355.722 222.15 355.638 221.796 355.638 221.376C355.638 220.86 355.77 220.404 356.034 220.008C356.298 219.6 356.676 219.282 357.168 219.054C357.672 218.826 358.254 218.712 358.914 218.712C359.886 218.712 360.672 218.946 361.272 219.414C361.872 219.882 362.226 220.56 362.334 221.448H360.84C360.78 220.992 360.582 220.638 360.246 220.386C359.922 220.122 359.472 219.99 358.896 219.99C358.332 219.99 357.9 220.104 357.6 220.332C357.312 220.56 357.168 220.86 357.168 221.232C357.168 221.472 357.246 221.688 357.402 221.88C357.57 222.06 357.81 222.216 358.122 222.348C358.446 222.48 358.842 222.588 359.31 222.672C359.91 222.78 360.456 222.924 360.948 223.104C361.44 223.284 361.836 223.554 362.136 223.914C362.448 224.262 362.604 224.76 362.604 225.408C362.604 225.972 362.46 226.464 362.172 226.884C361.896 227.304 361.5 227.634 360.984 227.874C360.468 228.102 359.862 228.216 359.166 228.216ZM368.759 228.216C367.907 228.216 367.151 228.018 366.491 227.622C365.843 227.226 365.333 226.674 364.961 225.966C364.589 225.246 364.403 224.412 364.403 223.464C364.403 222.504 364.583 221.67 364.943 220.962C365.315 220.254 365.831 219.702 366.491 219.306C367.163 218.91 367.931 218.712 368.795 218.712C369.683 218.712 370.433 218.91 371.045 219.306C371.669 219.702 372.143 220.224 372.467 220.872C372.803 221.508 372.971 222.21 372.971 222.978C372.971 223.098 372.971 223.224 372.971 223.356C372.971 223.488 372.965 223.638 372.953 223.806H365.537V222.636H371.495C371.459 221.808 371.183 221.16 370.667 220.692C370.163 220.224 369.527 219.99 368.759 219.99C368.243 219.99 367.763 220.11 367.319 220.35C366.887 220.578 366.539 220.92 366.275 221.376C366.011 221.82 365.879 222.378 365.879 223.05V223.554C365.879 224.298 366.011 224.922 366.275 225.426C366.551 225.93 366.905 226.308 367.337 226.56C367.781 226.812 368.255 226.938 368.759 226.938C369.395 226.938 369.917 226.8 370.325 226.524C370.745 226.236 371.045 225.852 371.225 225.372H372.719C372.575 225.912 372.323 226.398 371.963 226.83C371.603 227.262 371.153 227.604 370.613 227.856C370.085 228.096 369.467 228.216 368.759 228.216ZM375.012 228V218.928H376.38L376.452 220.512C376.74 219.948 377.148 219.51 377.676 219.198C378.216 218.874 378.828 218.712 379.512 218.712C380.22 218.712 380.832 218.856 381.348 219.144C381.864 219.42 382.266 219.846 382.554 220.422C382.842 220.986 382.986 221.706 382.986 222.582V228H381.474V222.744C381.474 221.832 381.27 221.148 380.862 220.692C380.466 220.236 379.902 220.008 379.17 220.008C378.666 220.008 378.216 220.134 377.82 220.386C377.424 220.626 377.106 220.98 376.866 221.448C376.638 221.904 376.524 222.474 376.524 223.158V228H375.012ZM388.768 228.216C388.012 228.216 387.352 228.09 386.788 227.838C386.236 227.586 385.792 227.238 385.456 226.794C385.132 226.338 384.934 225.804 384.862 225.192H386.41C386.47 225.504 386.596 225.792 386.788 226.056C386.98 226.32 387.238 226.536 387.562 226.704C387.898 226.86 388.306 226.938 388.786 226.938C389.206 226.938 389.554 226.878 389.83 226.758C390.106 226.626 390.31 226.452 390.442 226.236C390.586 226.02 390.658 225.786 390.658 225.534C390.658 225.162 390.568 224.88 390.388 224.688C390.22 224.496 389.968 224.346 389.632 224.238C389.296 224.118 388.888 224.016 388.408 223.932C388.012 223.86 387.622 223.764 387.238 223.644C386.854 223.524 386.512 223.368 386.212 223.176C385.912 222.972 385.672 222.726 385.492 222.438C385.324 222.15 385.24 221.796 385.24 221.376C385.24 220.86 385.372 220.404 385.636 220.008C385.9 219.6 386.278 219.282 386.77 219.054C387.274 218.826 387.856 218.712 388.516 218.712C389.488 218.712 390.274 218.946 390.874 219.414C391.474 219.882 391.828 220.56 391.936 221.448H390.442C390.382 220.992 390.184 220.638 389.848 220.386C389.524 220.122 389.074 219.99 388.498 219.99C387.934 219.99 387.502 220.104 387.202 220.332C386.914 220.56 386.77 220.86 386.77 221.232C386.77 221.472 386.848 221.688 387.004 221.88C387.172 222.06 387.412 222.216 387.724 222.348C388.048 222.48 388.444 222.588 388.912 222.672C389.512 222.78 390.058 222.924 390.55 223.104C391.042 223.284 391.438 223.554 391.738 223.914C392.05 224.262 392.206 224.76 392.206 225.408C392.206 225.972 392.062 226.464 391.774 226.884C391.498 227.304 391.102 227.634 390.586 227.874C390.07 228.102 389.464 228.216 388.768 228.216ZM397.677 228.216C396.981 228.216 396.369 228.078 395.841 227.802C395.325 227.526 394.923 227.1 394.635 226.524C394.359 225.948 394.221 225.228 394.221 224.364V218.928H395.733V224.202C395.733 225.102 395.931 225.78 396.327 226.236C396.723 226.692 397.281 226.92 398.001 226.92C398.505 226.92 398.961 226.8 399.369 226.56C399.777 226.308 400.095 225.954 400.323 225.498C400.563 225.03 400.683 224.46 400.683 223.788V218.928H402.195V228H400.827L400.737 226.416C400.461 226.98 400.053 227.424 399.513 227.748C398.973 228.06 398.361 228.216 397.677 228.216ZM407.653 228.216C406.921 228.216 406.309 228.09 405.817 227.838C405.325 227.574 404.959 227.232 404.719 226.812C404.479 226.38 404.359 225.912 404.359 225.408C404.359 224.796 404.515 224.28 404.827 223.86C405.151 223.428 405.601 223.104 406.177 222.888C406.765 222.66 407.455 222.546 408.247 222.546H410.641C410.641 221.982 410.551 221.514 410.371 221.142C410.203 220.758 409.951 220.47 409.615 220.278C409.291 220.086 408.883 219.99 408.391 219.99C407.815 219.99 407.317 220.134 406.897 220.422C406.477 220.71 406.219 221.136 406.123 221.7H404.575C404.647 221.052 404.863 220.512 405.223 220.08C405.595 219.636 406.063 219.3 406.627 219.072C407.191 218.832 407.779 218.712 408.391 218.712C409.231 218.712 409.927 218.868 410.479 219.18C411.043 219.48 411.463 219.906 411.739 220.458C412.015 220.998 412.153 221.64 412.153 222.384V228H410.803L410.713 226.398C410.593 226.65 410.437 226.89 410.245 227.118C410.065 227.334 409.849 227.526 409.597 227.694C409.345 227.85 409.057 227.976 408.733 228.072C408.421 228.168 408.061 228.216 407.653 228.216ZM407.887 226.938C408.307 226.938 408.685 226.854 409.021 226.686C409.369 226.506 409.663 226.266 409.903 225.966C410.143 225.654 410.323 225.312 410.443 224.94C410.575 224.568 410.641 224.178 410.641 223.77V223.716H408.373C407.785 223.716 407.311 223.788 406.951 223.932C406.591 224.064 406.333 224.256 406.177 224.508C406.021 224.748 405.943 225.024 405.943 225.336C405.943 225.66 406.015 225.942 406.159 226.182C406.315 226.422 406.537 226.608 406.825 226.74C407.125 226.872 407.479 226.938 407.887 226.938ZM414.492 228V215.04H416.004V228H414.492ZM427.367 228.216C426.515 228.216 425.747 228.018 425.063 227.622C424.391 227.226 423.863 226.674 423.479 225.966C423.095 225.246 422.903 224.418 422.903 223.482C422.903 222.522 423.095 221.688 423.479 220.98C423.863 220.272 424.391 219.72 425.063 219.324C425.747 218.916 426.515 218.712 427.367 218.712C428.447 218.712 429.347 218.994 430.067 219.558C430.787 220.11 431.243 220.854 431.435 221.79H429.887C429.767 221.226 429.473 220.788 429.005 220.476C428.537 220.164 427.985 220.008 427.349 220.008C426.833 220.008 426.353 220.14 425.909 220.404C425.465 220.656 425.111 221.04 424.847 221.556C424.583 222.072 424.451 222.708 424.451 223.464C424.451 224.028 424.529 224.532 424.685 224.976C424.841 225.408 425.051 225.768 425.315 226.056C425.579 226.344 425.885 226.566 426.233 226.722C426.593 226.866 426.965 226.938 427.349 226.938C427.781 226.938 428.171 226.872 428.519 226.74C428.867 226.596 429.161 226.386 429.401 226.11C429.641 225.834 429.803 225.51 429.887 225.138H431.435C431.243 226.05 430.781 226.794 430.049 227.37C429.329 227.934 428.435 228.216 427.367 228.216ZM437.632 228.216C436.792 228.216 436.036 228.024 435.364 227.64C434.692 227.244 434.164 226.692 433.78 225.984C433.396 225.264 433.204 224.43 433.204 223.482C433.204 222.51 433.396 221.67 433.78 220.962C434.176 220.242 434.71 219.69 435.382 219.306C436.066 218.91 436.828 218.712 437.668 218.712C438.532 218.712 439.294 218.91 439.954 219.306C440.626 219.69 441.154 220.242 441.538 220.962C441.934 221.67 442.132 222.504 442.132 223.464C442.132 224.424 441.934 225.264 441.538 225.984C441.142 226.692 440.608 227.244 439.936 227.64C439.264 228.024 438.496 228.216 437.632 228.216ZM437.65 226.92C438.166 226.92 438.646 226.794 439.09 226.542C439.534 226.278 439.894 225.888 440.17 225.372C440.446 224.856 440.584 224.22 440.584 223.464C440.584 222.696 440.446 222.06 440.17 221.556C439.906 221.04 439.552 220.656 439.108 220.404C438.676 220.14 438.196 220.008 437.668 220.008C437.164 220.008 436.684 220.14 436.228 220.404C435.784 220.656 435.424 221.04 435.148 221.556C434.884 222.06 434.752 222.696 434.752 223.464C434.752 224.22 434.884 224.856 435.148 225.372C435.424 225.888 435.778 226.278 436.21 226.542C436.654 226.794 437.134 226.92 437.65 226.92ZM444.252 228V218.928H445.62L445.692 220.512C445.98 219.948 446.388 219.51 446.916 219.198C447.456 218.874 448.068 218.712 448.752 218.712C449.46 218.712 450.072 218.856 450.588 219.144C451.104 219.42 451.506 219.846 451.794 220.422C452.082 220.986 452.226 221.706 452.226 222.582V228H450.714V222.744C450.714 221.832 450.51 221.148 450.102 220.692C449.706 220.236 449.142 220.008 448.41 220.008C447.906 220.008 447.456 220.134 447.06 220.386C446.664 220.626 446.346 220.98 446.106 221.448C445.878 221.904 445.764 222.474 445.764 223.158V228H444.252ZM458.152 228C457.612 228 457.144 227.916 456.748 227.748C456.352 227.58 456.046 227.298 455.83 226.902C455.626 226.494 455.524 225.948 455.524 225.264V220.206H453.94V218.928H455.524L455.722 216.732H457.036V218.928H459.664V220.206H457.036V225.264C457.036 225.828 457.15 226.212 457.378 226.416C457.606 226.608 458.008 226.704 458.584 226.704H459.556V228H458.152ZM465.369 228.216C464.517 228.216 463.761 228.018 463.101 227.622C462.453 227.226 461.943 226.674 461.571 225.966C461.199 225.246 461.013 224.412 461.013 223.464C461.013 222.504 461.193 221.67 461.553 220.962C461.925 220.254 462.441 219.702 463.101 219.306C463.773 218.91 464.541 218.712 465.405 218.712C466.293 218.712 467.043 218.91 467.655 219.306C468.279 219.702 468.753 220.224 469.077 220.872C469.413 221.508 469.581 222.21 469.581 222.978C469.581 223.098 469.581 223.224 469.581 223.356C469.581 223.488 469.575 223.638 469.563 223.806H462.147V222.636H468.105C468.069 221.808 467.793 221.16 467.277 220.692C466.773 220.224 466.137 219.99 465.369 219.99C464.853 219.99 464.373 220.11 463.929 220.35C463.497 220.578 463.149 220.92 462.885 221.376C462.621 221.82 462.489 222.378 462.489 223.05V223.554C462.489 224.298 462.621 224.922 462.885 225.426C463.161 225.93 463.515 226.308 463.947 226.56C464.391 226.812 464.865 226.938 465.369 226.938C466.005 226.938 466.527 226.8 466.935 226.524C467.355 226.236 467.655 225.852 467.835 225.372H469.329C469.185 225.912 468.933 226.398 468.573 226.83C468.213 227.262 467.763 227.604 467.223 227.856C466.695 228.096 466.077 228.216 465.369 228.216ZM471.621 228V218.928H472.989L473.061 220.512C473.349 219.948 473.757 219.51 474.285 219.198C474.825 218.874 475.437 218.712 476.121 218.712C476.829 218.712 477.441 218.856 477.957 219.144C478.473 219.42 478.875 219.846 479.163 220.422C479.451 220.986 479.595 221.706 479.595 222.582V228H478.083V222.744C478.083 221.832 477.879 221.148 477.471 220.692C477.075 220.236 476.511 220.008 475.779 220.008C475.275 220.008 474.825 220.134 474.429 220.386C474.033 220.626 473.715 220.98 473.475 221.448C473.247 221.904 473.133 222.474 473.133 223.158V228H471.621ZM485.521 228C484.981 228 484.513 227.916 484.117 227.748C483.721 227.58 483.415 227.298 483.199 226.902C482.995 226.494 482.893 225.948 482.893 225.264V220.206H481.309V218.928H482.893L483.091 216.732H484.405V218.928H487.033V220.206H484.405V225.264C484.405 225.828 484.519 226.212 484.747 226.416C484.975 226.608 485.377 226.704 485.953 226.704H486.925V228H485.521ZM497.351 228C496.811 228 496.343 227.916 495.947 227.748C495.551 227.58 495.245 227.298 495.029 226.902C494.825 226.494 494.723 225.948 494.723 225.264V220.206H493.139V218.928H494.723L494.921 216.732H496.235V218.928H498.863V220.206H496.235V225.264C496.235 225.828 496.349 226.212 496.577 226.416C496.805 226.608 497.207 226.704 497.783 226.704H498.755V228H497.351ZM504.64 228.216C503.8 228.216 503.044 228.024 502.372 227.64C501.7 227.244 501.172 226.692 500.788 225.984C500.404 225.264 500.212 224.43 500.212 223.482C500.212 222.51 500.404 221.67 500.788 220.962C501.184 220.242 501.718 219.69 502.39 219.306C503.074 218.91 503.836 218.712 504.676 218.712C505.54 218.712 506.302 218.91 506.962 219.306C507.634 219.69 508.162 220.242 508.546 220.962C508.942 221.67 509.14 222.504 509.14 223.464C509.14 224.424 508.942 225.264 508.546 225.984C508.15 226.692 507.616 227.244 506.944 227.64C506.272 228.024 505.504 228.216 504.64 228.216ZM504.658 226.92C505.174 226.92 505.654 226.794 506.098 226.542C506.542 226.278 506.902 225.888 507.178 225.372C507.454 224.856 507.592 224.22 507.592 223.464C507.592 222.696 507.454 222.06 507.178 221.556C506.914 221.04 506.56 220.656 506.116 220.404C505.684 220.14 505.204 220.008 504.676 220.008C504.172 220.008 503.692 220.14 503.236 220.404C502.792 220.656 502.432 221.04 502.156 221.556C501.892 222.06 501.76 222.696 501.76 223.464C501.76 224.22 501.892 224.856 502.156 225.372C502.432 225.888 502.786 226.278 503.218 226.542C503.662 226.794 504.142 226.92 504.658 226.92ZM239.867 255.176C239.051 255.176 238.331 255.068 237.707 254.852C237.083 254.648 236.591 254.33 236.231 253.898C235.883 253.466 235.709 252.932 235.709 252.296C235.709 252.032 235.763 251.744 235.871 251.432C235.991 251.12 236.189 250.814 236.465 250.514C236.753 250.214 237.155 249.944 237.671 249.704L238.715 250.316C238.091 250.58 237.677 250.88 237.473 251.216C237.281 251.552 237.185 251.864 237.185 252.152C237.185 252.548 237.299 252.878 237.527 253.142C237.767 253.406 238.085 253.604 238.481 253.736C238.889 253.868 239.351 253.934 239.867 253.934C240.371 253.934 240.809 253.856 241.181 253.7C241.553 253.556 241.841 253.352 242.045 253.088C242.249 252.824 242.351 252.518 242.351 252.17C242.351 251.762 242.195 251.414 241.883 251.126C241.571 250.85 240.983 250.688 240.119 250.64C239.411 250.592 238.817 250.526 238.337 250.442C237.869 250.358 237.473 250.262 237.149 250.154C236.837 250.034 236.573 249.902 236.357 249.758C236.153 249.614 235.967 249.464 235.799 249.308V248.894L237.563 247.148L238.859 247.616L237.059 249.254L237.293 248.624C237.425 248.72 237.551 248.81 237.671 248.894C237.791 248.978 237.953 249.05 238.157 249.11C238.373 249.17 238.661 249.224 239.021 249.272C239.381 249.32 239.861 249.368 240.461 249.416C241.277 249.476 241.931 249.62 242.423 249.848C242.927 250.076 243.287 250.382 243.503 250.766C243.731 251.15 243.845 251.6 243.845 252.116C243.845 252.62 243.701 253.106 243.413 253.574C243.137 254.042 242.705 254.426 242.117 254.726C241.529 255.026 240.779 255.176 239.867 255.176ZM239.849 248.174C239.093 248.174 238.445 248.03 237.905 247.742C237.377 247.454 236.975 247.07 236.699 246.59C236.423 246.11 236.285 245.57 236.285 244.97C236.285 244.382 236.423 243.848 236.699 243.368C236.987 242.888 237.395 242.504 237.923 242.216C238.451 241.916 239.093 241.766 239.849 241.766C240.605 241.766 241.247 241.916 241.775 242.216C242.303 242.504 242.705 242.888 242.981 243.368C243.257 243.848 243.395 244.382 243.395 244.97C243.395 245.57 243.257 246.11 242.981 246.59C242.705 247.07 242.303 247.454 241.775 247.742C241.247 248.03 240.605 248.174 239.849 248.174ZM239.849 246.932C240.485 246.932 240.989 246.764 241.361 246.428C241.745 246.092 241.937 245.606 241.937 244.97C241.937 244.346 241.745 243.866 241.361 243.53C240.989 243.194 240.485 243.026 239.849 243.026C239.213 243.026 238.697 243.194 238.301 243.53C237.917 243.866 237.725 244.346 237.725 244.97C237.725 245.606 237.917 246.092 238.301 246.428C238.685 246.764 239.201 246.932 239.849 246.932ZM241.307 243.26L240.857 241.982H244.565V243.116L241.307 243.26ZM249.292 251.216C248.56 251.216 247.948 251.09 247.456 250.838C246.964 250.574 246.598 250.232 246.358 249.812C246.118 249.38 245.998 248.912 245.998 248.408C245.998 247.796 246.154 247.28 246.466 246.86C246.79 246.428 247.24 246.104 247.816 245.888C248.404 245.66 249.094 245.546 249.886 245.546H252.28C252.28 244.982 252.19 244.514 252.01 244.142C251.842 243.758 251.59 243.47 251.254 243.278C250.93 243.086 250.522 242.99 250.03 242.99C249.454 242.99 248.956 243.134 248.536 243.422C248.116 243.71 247.858 244.136 247.762 244.7H246.214C246.286 244.052 246.502 243.512 246.862 243.08C247.234 242.636 247.702 242.3 248.266 242.072C248.83 241.832 249.418 241.712 250.03 241.712C250.87 241.712 251.566 241.868 252.118 242.18C252.682 242.48 253.102 242.906 253.378 243.458C253.654 243.998 253.792 244.64 253.792 245.384V251H252.442L252.352 249.398C252.232 249.65 252.076 249.89 251.884 250.118C251.704 250.334 251.488 250.526 251.236 250.694C250.984 250.85 250.696 250.976 250.372 251.072C250.06 251.168 249.7 251.216 249.292 251.216ZM249.526 249.938C249.946 249.938 250.324 249.854 250.66 249.686C251.008 249.506 251.302 249.266 251.542 248.966C251.782 248.654 251.962 248.312 252.082 247.94C252.214 247.568 252.28 247.178 252.28 246.77V246.716H250.012C249.424 246.716 248.95 246.788 248.59 246.932C248.23 247.064 247.972 247.256 247.816 247.508C247.66 247.748 247.582 248.024 247.582 248.336C247.582 248.66 247.654 248.942 247.798 249.182C247.954 249.422 248.176 249.608 248.464 249.74C248.764 249.872 249.118 249.938 249.526 249.938ZM256.131 251V241.928H257.499L257.589 243.224C257.877 242.756 258.261 242.39 258.741 242.126C259.233 241.85 259.767 241.712 260.343 241.712C260.811 241.712 261.231 241.778 261.603 241.91C261.987 242.03 262.323 242.222 262.611 242.486C262.899 242.738 263.133 243.062 263.313 243.458C263.625 242.906 264.051 242.48 264.591 242.18C265.143 241.868 265.731 241.712 266.355 241.712C267.051 241.712 267.657 241.856 268.173 242.144C268.701 242.42 269.103 242.846 269.379 243.422C269.667 243.986 269.811 244.706 269.811 245.582V251H268.317V245.744C268.317 244.832 268.131 244.148 267.759 243.692C267.387 243.236 266.865 243.008 266.193 243.008C265.725 243.008 265.305 243.134 264.933 243.386C264.561 243.626 264.267 243.98 264.051 244.448C263.835 244.916 263.727 245.492 263.727 246.176V251H262.215V245.744C262.215 244.832 262.029 244.148 261.657 243.692C261.285 243.236 260.757 243.008 260.073 243.008C259.617 243.008 259.203 243.134 258.831 243.386C258.471 243.626 258.183 243.98 257.967 244.448C257.751 244.916 257.643 245.492 257.643 246.176V251H256.131ZM272.306 251V241.928H273.818V251H272.306ZM273.062 240.002C272.762 240.002 272.51 239.906 272.306 239.714C272.114 239.51 272.018 239.258 272.018 238.958C272.018 238.658 272.114 238.418 272.306 238.238C272.51 238.046 272.762 237.95 273.062 237.95C273.35 237.95 273.596 238.046 273.8 238.238C274.004 238.418 274.106 238.658 274.106 238.958C274.106 239.258 274.004 239.51 273.8 239.714C273.596 239.906 273.35 240.002 273.062 240.002ZM276.487 251V241.928H277.855L277.927 243.512C278.215 242.948 278.623 242.51 279.151 242.198C279.691 241.874 280.303 241.712 280.987 241.712C281.695 241.712 282.307 241.856 282.823 242.144C283.339 242.42 283.741 242.846 284.029 243.422C284.317 243.986 284.461 244.706 284.461 245.582V251H282.949V245.744C282.949 244.832 282.745 244.148 282.337 243.692C281.941 243.236 281.377 243.008 280.645 243.008C280.141 243.008 279.691 243.134 279.295 243.386C278.899 243.626 278.581 243.98 278.341 244.448C278.113 244.904 277.999 245.474 277.999 246.158V251H276.487ZM290.387 255.176C289.571 255.176 288.851 255.068 288.227 254.852C287.603 254.648 287.111 254.33 286.75 253.898C286.403 253.466 286.229 252.932 286.229 252.296C286.229 252.032 286.283 251.744 286.391 251.432C286.511 251.12 286.709 250.814 286.985 250.514C287.273 250.214 287.675 249.944 288.191 249.704L289.235 250.316C288.611 250.58 288.197 250.88 287.993 251.216C287.801 251.552 287.705 251.864 287.705 252.152C287.705 252.548 287.819 252.878 288.047 253.142C288.287 253.406 288.605 253.604 289.001 253.736C289.409 253.868 289.871 253.934 290.387 253.934C290.891 253.934 291.329 253.856 291.701 253.7C292.073 253.556 292.361 253.352 292.565 253.088C292.769 252.824 292.871 252.518 292.871 252.17C292.871 251.762 292.715 251.414 292.403 251.126C292.091 250.85 291.503 250.688 290.639 250.64C289.931 250.592 289.337 250.526 288.857 250.442C288.389 250.358 287.993 250.262 287.669 250.154C287.357 250.034 287.093 249.902 286.877 249.758C286.673 249.614 286.487 249.464 286.319 249.308V248.894L288.083 247.148L289.379 247.616L287.579 249.254L287.812 248.624C287.945 248.72 288.071 248.81 288.191 248.894C288.311 248.978 288.473 249.05 288.677 249.11C288.893 249.17 289.181 249.224 289.541 249.272C289.901 249.32 290.381 249.368 290.981 249.416C291.797 249.476 292.451 249.62 292.943 249.848C293.447 250.076 293.807 250.382 294.023 250.766C294.251 251.15 294.365 251.6 294.365 252.116C294.365 252.62 294.221 253.106 293.933 253.574C293.657 254.042 293.225 254.426 292.637 254.726C292.049 255.026 291.299 255.176 290.387 255.176ZM290.369 248.174C289.613 248.174 288.965 248.03 288.425 247.742C287.897 247.454 287.495 247.07 287.219 246.59C286.943 246.11 286.805 245.57 286.805 244.97C286.805 244.382 286.943 243.848 287.219 243.368C287.507 242.888 287.915 242.504 288.443 242.216C288.971 241.916 289.613 241.766 290.369 241.766C291.125 241.766 291.767 241.916 292.295 242.216C292.823 242.504 293.225 242.888 293.501 243.368C293.777 243.848 293.915 244.382 293.915 244.97C293.915 245.57 293.777 246.11 293.501 246.59C293.225 247.07 292.823 247.454 292.295 247.742C291.767 248.03 291.125 248.174 290.369 248.174ZM290.369 246.932C291.005 246.932 291.509 246.764 291.881 246.428C292.265 246.092 292.457 245.606 292.457 244.97C292.457 244.346 292.265 243.866 291.881 243.53C291.509 243.194 291.005 243.026 290.369 243.026C289.733 243.026 289.217 243.194 288.821 243.53C288.437 243.866 288.245 244.346 288.245 244.97C288.245 245.606 288.437 246.092 288.821 246.428C289.205 246.764 289.721 246.932 290.369 246.932ZM291.827 243.26L291.377 241.982H295.085V243.116L291.827 243.26ZM304.593 251.216C303.861 251.216 303.249 251.09 302.757 250.838C302.265 250.574 301.899 250.232 301.659 249.812C301.419 249.38 301.299 248.912 301.299 248.408C301.299 247.796 301.455 247.28 301.767 246.86C302.091 246.428 302.541 246.104 303.117 245.888C303.705 245.66 304.395 245.546 305.187 245.546H307.581C307.581 244.982 307.491 244.514 307.311 244.142C307.143 243.758 306.891 243.47 306.555 243.278C306.231 243.086 305.823 242.99 305.331 242.99C304.755 242.99 304.257 243.134 303.837 243.422C303.417 243.71 303.159 244.136 303.063 244.7H301.515C301.587 244.052 301.803 243.512 302.163 243.08C302.535 242.636 303.003 242.3 303.567 242.072C304.131 241.832 304.719 241.712 305.331 241.712C306.171 241.712 306.867 241.868 307.419 242.18C307.983 242.48 308.403 242.906 308.679 243.458C308.955 243.998 309.093 244.64 309.093 245.384V251H307.743L307.653 249.398C307.533 249.65 307.377 249.89 307.185 250.118C307.005 250.334 306.789 250.526 306.537 250.694C306.285 250.85 305.997 250.976 305.673 251.072C305.361 251.168 305.001 251.216 304.593 251.216ZM304.827 249.938C305.247 249.938 305.625 249.854 305.961 249.686C306.309 249.506 306.603 249.266 306.843 248.966C307.083 248.654 307.263 248.312 307.383 247.94C307.515 247.568 307.581 247.178 307.581 246.77V246.716H305.313C304.725 246.716 304.251 246.788 303.891 246.932C303.531 247.064 303.273 247.256 303.117 247.508C302.961 247.748 302.883 248.024 302.883 248.336C302.883 248.66 302.955 248.942 303.099 249.182C303.255 249.422 303.477 249.608 303.765 249.74C304.065 249.872 304.419 249.938 304.827 249.938ZM311.432 251V241.928H312.8L312.872 243.512C313.16 242.948 313.568 242.51 314.096 242.198C314.636 241.874 315.248 241.712 315.932 241.712C316.64 241.712 317.252 241.856 317.768 242.144C318.284 242.42 318.686 242.846 318.974 243.422C319.262 243.986 319.406 244.706 319.406 245.582V251H317.894V245.744C317.894 244.832 317.69 244.148 317.282 243.692C316.886 243.236 316.322 243.008 315.59 243.008C315.086 243.008 314.636 243.134 314.24 243.386C313.844 243.626 313.526 243.98 313.286 244.448C313.058 244.904 312.944 245.474 312.944 246.158V251H311.432ZM325.764 251.216C324.888 251.216 324.12 251.012 323.46 250.604C322.8 250.184 322.29 249.614 321.93 248.894C321.57 248.174 321.39 247.358 321.39 246.446C321.39 245.534 321.57 244.724 321.93 244.016C322.29 243.296 322.8 242.732 323.46 242.324C324.132 241.916 324.906 241.712 325.782 241.712C326.526 241.712 327.174 241.862 327.726 242.162C328.29 242.462 328.722 242.882 329.022 243.422V238.04H330.534V251H329.166L329.04 249.506C328.848 249.806 328.602 250.088 328.302 250.352C328.002 250.604 327.642 250.814 327.222 250.982C326.802 251.138 326.316 251.216 325.764 251.216ZM325.944 249.902C326.544 249.902 327.072 249.758 327.528 249.47C327.984 249.182 328.338 248.786 328.59 248.282C328.842 247.766 328.968 247.16 328.968 246.464C328.968 245.78 328.842 245.18 328.59 244.664C328.338 244.148 327.984 243.746 327.528 243.458C327.072 243.17 326.544 243.026 325.944 243.026C325.356 243.026 324.834 243.17 324.378 243.458C323.922 243.746 323.568 244.148 323.316 244.664C323.064 245.18 322.938 245.78 322.938 246.464C322.938 247.16 323.064 247.766 323.316 248.282C323.568 248.786 323.922 249.182 324.378 249.47C324.834 249.758 325.356 249.902 325.944 249.902ZM341.398 255.176C340.582 255.176 339.862 255.068 339.238 254.852C338.614 254.648 338.122 254.33 337.762 253.898C337.414 253.466 337.24 252.932 337.24 252.296C337.24 252.032 337.294 251.744 337.402 251.432C337.522 251.12 337.72 250.814 337.996 250.514C338.284 250.214 338.686 249.944 339.202 249.704L340.246 250.316C339.622 250.58 339.208 250.88 339.004 251.216C338.812 251.552 338.716 251.864 338.716 252.152C338.716 252.548 338.83 252.878 339.058 253.142C339.298 253.406 339.616 253.604 340.012 253.736C340.42 253.868 340.882 253.934 341.398 253.934C341.902 253.934 342.34 253.856 342.712 253.7C343.084 253.556 343.372 253.352 343.576 253.088C343.78 252.824 343.882 252.518 343.882 252.17C343.882 251.762 343.726 251.414 343.414 251.126C343.102 250.85 342.514 250.688 341.65 250.64C340.942 250.592 340.348 250.526 339.868 250.442C339.4 250.358 339.004 250.262 338.68 250.154C338.368 250.034 338.104 249.902 337.888 249.758C337.684 249.614 337.498 249.464 337.33 249.308V248.894L339.094 247.148L340.39 247.616L338.59 249.254L338.824 248.624C338.956 248.72 339.082 248.81 339.202 248.894C339.322 248.978 339.484 249.05 339.688 249.11C339.904 249.17 340.192 249.224 340.552 249.272C340.912 249.32 341.392 249.368 341.992 249.416C342.808 249.476 343.462 249.62 343.954 249.848C344.458 250.076 344.818 250.382 345.034 250.766C345.262 251.15 345.376 251.6 345.376 252.116C345.376 252.62 345.232 253.106 344.944 253.574C344.668 254.042 344.236 254.426 343.648 254.726C343.06 255.026 342.31 255.176 341.398 255.176ZM341.38 248.174C340.624 248.174 339.976 248.03 339.436 247.742C338.908 247.454 338.506 247.07 338.23 246.59C337.954 246.11 337.816 245.57 337.816 244.97C337.816 244.382 337.954 243.848 338.23 243.368C338.518 242.888 338.926 242.504 339.454 242.216C339.982 241.916 340.624 241.766 341.38 241.766C342.136 241.766 342.778 241.916 343.306 242.216C343.834 242.504 344.236 242.888 344.512 243.368C344.788 243.848 344.926 244.382 344.926 244.97C344.926 245.57 344.788 246.11 344.512 246.59C344.236 247.07 343.834 247.454 343.306 247.742C342.778 248.03 342.136 248.174 341.38 248.174ZM341.38 246.932C342.016 246.932 342.52 246.764 342.892 246.428C343.276 246.092 343.468 245.606 343.468 244.97C343.468 244.346 343.276 243.866 342.892 243.53C342.52 243.194 342.016 243.026 341.38 243.026C340.744 243.026 340.228 243.194 339.832 243.53C339.448 243.866 339.256 244.346 339.256 244.97C339.256 245.606 339.448 246.092 339.832 246.428C340.216 246.764 340.732 246.932 341.38 246.932ZM342.838 243.26L342.388 241.982H346.096V243.116L342.838 243.26ZM351.498 251.216C350.646 251.216 349.89 251.018 349.23 250.622C348.582 250.226 348.072 249.674 347.7 248.966C347.328 248.246 347.142 247.412 347.142 246.464C347.142 245.504 347.322 244.67 347.682 243.962C348.054 243.254 348.57 242.702 349.23 242.306C349.902 241.91 350.67 241.712 351.534 241.712C352.422 241.712 353.172 241.91 353.784 242.306C354.408 242.702 354.882 243.224 355.206 243.872C355.542 244.508 355.71 245.21 355.71 245.978C355.71 246.098 355.71 246.224 355.71 246.356C355.71 246.488 355.704 246.638 355.692 246.806H348.276V245.636H354.234C354.198 244.808 353.922 244.16 353.406 243.692C352.902 243.224 352.266 242.99 351.498 242.99C350.982 242.99 350.502 243.11 350.058 243.35C349.626 243.578 349.278 243.92 349.014 244.376C348.75 244.82 348.618 245.378 348.618 246.05V246.554C348.618 247.298 348.75 247.922 349.014 248.426C349.29 248.93 349.644 249.308 350.076 249.56C350.52 249.812 350.994 249.938 351.498 249.938C352.134 249.938 352.656 249.8 353.064 249.524C353.484 249.236 353.784 248.852 353.964 248.372H355.458C355.314 248.912 355.062 249.398 354.702 249.83C354.342 250.262 353.892 250.604 353.352 250.856C352.824 251.096 352.206 251.216 351.498 251.216ZM357.75 251V241.928H359.118L359.19 243.512C359.478 242.948 359.886 242.51 360.414 242.198C360.954 241.874 361.566 241.712 362.25 241.712C362.958 241.712 363.57 241.856 364.086 242.144C364.602 242.42 365.004 242.846 365.292 243.422C365.58 243.986 365.724 244.706 365.724 245.582V251H364.212V245.744C364.212 244.832 364.008 244.148 363.6 243.692C363.204 243.236 362.64 243.008 361.908 243.008C361.404 243.008 360.954 243.134 360.558 243.386C360.162 243.626 359.844 243.98 359.604 244.448C359.376 244.904 359.262 245.474 359.262 246.158V251H357.75ZM371.38 251.216C370.684 251.216 370.072 251.078 369.544 250.802C369.028 250.526 368.626 250.1 368.338 249.524C368.062 248.948 367.924 248.228 367.924 247.364V241.928H369.436V247.202C369.436 248.102 369.634 248.78 370.03 249.236C370.426 249.692 370.984 249.92 371.704 249.92C372.208 249.92 372.664 249.8 373.072 249.56C373.48 249.308 373.798 248.954 374.026 248.498C374.266 248.03 374.386 247.46 374.386 246.788V241.928H375.898V251H374.53L374.44 249.416C374.164 249.98 373.756 250.424 373.216 250.748C372.676 251.06 372.064 251.216 371.38 251.216ZM378.549 251V241.928H380.061V251H378.549ZM379.305 240.002C379.005 240.002 378.753 239.906 378.549 239.714C378.357 239.51 378.261 239.258 378.261 238.958C378.261 238.658 378.357 238.418 378.549 238.238C378.753 238.046 379.005 237.95 379.305 237.95C379.593 237.95 379.839 238.046 380.043 238.238C380.247 238.418 380.349 238.658 380.349 238.958C380.349 239.258 380.247 239.51 380.043 239.714C379.839 239.906 379.593 240.002 379.305 240.002ZM382.729 251V241.928H384.097L384.169 243.512C384.457 242.948 384.865 242.51 385.393 242.198C385.933 241.874 386.545 241.712 387.229 241.712C387.937 241.712 388.549 241.856 389.065 242.144C389.581 242.42 389.983 242.846 390.271 243.422C390.559 243.986 390.703 244.706 390.703 245.582V251H389.191V245.744C389.191 244.832 388.987 244.148 388.579 243.692C388.183 243.236 387.619 243.008 386.887 243.008C386.383 243.008 385.933 243.134 385.537 243.386C385.141 243.626 384.823 243.98 384.583 244.448C384.355 244.904 384.241 245.474 384.241 246.158V251H382.729ZM397.043 251.216C396.191 251.216 395.435 251.018 394.775 250.622C394.127 250.226 393.617 249.674 393.245 248.966C392.873 248.246 392.687 247.412 392.687 246.464C392.687 245.504 392.867 244.67 393.227 243.962C393.599 243.254 394.115 242.702 394.775 242.306C395.447 241.91 396.215 241.712 397.079 241.712C397.967 241.712 398.717 241.91 399.329 242.306C399.953 242.702 400.427 243.224 400.751 243.872C401.087 244.508 401.255 245.21 401.255 245.978C401.255 246.098 401.255 246.224 401.255 246.356C401.255 246.488 401.249 246.638 401.237 246.806H393.821V245.636H399.779C399.743 244.808 399.467 244.16 398.951 243.692C398.447 243.224 397.811 242.99 397.043 242.99C396.527 242.99 396.047 243.11 395.603 243.35C395.171 243.578 394.823 243.92 394.559 244.376C394.295 244.82 394.163 245.378 394.163 246.05V246.554C394.163 247.298 394.295 247.922 394.559 248.426C394.835 248.93 395.189 249.308 395.621 249.56C396.065 249.812 396.539 249.938 397.043 249.938C397.679 249.938 398.201 249.8 398.609 249.524C399.029 249.236 399.329 248.852 399.509 248.372H401.003C400.859 248.912 400.607 249.398 400.247 249.83C399.887 250.262 399.437 250.604 398.897 250.856C398.369 251.096 397.751 251.216 397.043 251.216ZM408.22 251V241.928H409.732V251H408.22ZM408.976 240.002C408.676 240.002 408.424 239.906 408.22 239.714C408.028 239.51 407.932 239.258 407.932 238.958C407.932 238.658 408.028 238.418 408.22 238.238C408.424 238.046 408.676 237.95 408.976 237.95C409.264 237.95 409.51 238.046 409.714 238.238C409.918 238.418 410.02 238.658 410.02 238.958C410.02 239.258 409.918 239.51 409.714 239.714C409.51 239.906 409.264 240.002 408.976 240.002ZM412.401 251V241.928H413.769L413.841 243.512C414.129 242.948 414.537 242.51 415.065 242.198C415.605 241.874 416.217 241.712 416.901 241.712C417.609 241.712 418.221 241.856 418.737 242.144C419.253 242.42 419.655 242.846 419.943 243.422C420.231 243.986 420.375 244.706 420.375 245.582V251H418.863V245.744C418.863 244.832 418.659 244.148 418.251 243.692C417.855 243.236 417.291 243.008 416.559 243.008C416.055 243.008 415.605 243.134 415.209 243.386C414.813 243.626 414.495 243.98 414.255 244.448C414.027 244.904 413.913 245.474 413.913 246.158V251H412.401ZM426.301 251C425.761 251 425.293 250.916 424.897 250.748C424.501 250.58 424.195 250.298 423.979 249.902C423.775 249.494 423.673 248.948 423.673 248.264V243.206H422.089V241.928H423.673L423.871 239.732H425.185V241.928H427.813V243.206H425.185V248.264C425.185 248.828 425.299 249.212 425.527 249.416C425.755 249.608 426.157 249.704 426.733 249.704H427.705V251H426.301ZM433.517 251.216C432.665 251.216 431.909 251.018 431.249 250.622C430.601 250.226 430.091 249.674 429.719 248.966C429.347 248.246 429.161 247.412 429.161 246.464C429.161 245.504 429.341 244.67 429.701 243.962C430.073 243.254 430.589 242.702 431.249 242.306C431.921 241.91 432.689 241.712 433.553 241.712C434.441 241.712 435.191 241.91 435.803 242.306C436.427 242.702 436.901 243.224 437.225 243.872C437.561 244.508 437.729 245.21 437.729 245.978C437.729 246.098 437.729 246.224 437.729 246.356C437.729 246.488 437.723 246.638 437.711 246.806H430.295V245.636H436.253C436.217 244.808 435.941 244.16 435.425 243.692C434.921 243.224 434.285 242.99 433.517 242.99C433.001 242.99 432.521 243.11 432.077 243.35C431.645 243.578 431.297 243.92 431.033 244.376C430.769 244.82 430.637 245.378 430.637 246.05V246.554C430.637 247.298 430.769 247.922 431.033 248.426C431.309 248.93 431.663 249.308 432.095 249.56C432.539 249.812 433.013 249.938 433.517 249.938C434.153 249.938 434.675 249.8 435.083 249.524C435.503 249.236 435.803 248.852 435.983 248.372H437.477C437.333 248.912 437.081 249.398 436.721 249.83C436.361 250.262 435.911 250.604 435.371 250.856C434.843 251.096 434.225 251.216 433.517 251.216ZM439.77 251V241.928H441.138L441.246 243.656C441.45 243.248 441.708 242.9 442.02 242.612C442.344 242.324 442.728 242.102 443.172 241.946C443.628 241.79 444.144 241.712 444.72 241.712V243.296H444.162C443.778 243.296 443.412 243.35 443.064 243.458C442.716 243.554 442.404 243.716 442.128 243.944C441.864 244.172 441.654 244.484 441.498 244.88C441.354 245.264 441.282 245.744 441.282 246.32V251H439.77ZM449.384 251.216C448.652 251.216 448.04 251.09 447.548 250.838C447.056 250.574 446.69 250.232 446.45 249.812C446.21 249.38 446.09 248.912 446.09 248.408C446.09 247.796 446.246 247.28 446.558 246.86C446.882 246.428 447.332 246.104 447.908 245.888C448.496 245.66 449.186 245.546 449.978 245.546H452.372C452.372 244.982 452.282 244.514 452.102 244.142C451.934 243.758 451.682 243.47 451.346 243.278C451.022 243.086 450.614 242.99 450.122 242.99C449.546 242.99 449.048 243.134 448.628 243.422C448.208 243.71 447.95 244.136 447.854 244.7H446.306C446.378 244.052 446.594 243.512 446.954 243.08C447.326 242.636 447.794 242.3 448.358 242.072C448.922 241.832 449.51 241.712 450.122 241.712C450.962 241.712 451.658 241.868 452.21 242.18C452.774 242.48 453.194 242.906 453.47 243.458C453.746 243.998 453.884 244.64 453.884 245.384V251H452.534L452.444 249.398C452.324 249.65 452.168 249.89 451.976 250.118C451.796 250.334 451.58 250.526 451.328 250.694C451.076 250.85 450.788 250.976 450.464 251.072C450.152 251.168 449.792 251.216 449.384 251.216ZM449.618 249.938C450.038 249.938 450.416 249.854 450.752 249.686C451.1 249.506 451.394 249.266 451.634 248.966C451.874 248.654 452.054 248.312 452.174 247.94C452.306 247.568 452.372 247.178 452.372 246.77V246.716H450.104C449.516 246.716 449.042 246.788 448.682 246.932C448.322 247.064 448.064 247.256 447.908 247.508C447.752 247.748 447.674 248.024 447.674 248.336C447.674 248.66 447.746 248.942 447.89 249.182C448.046 249.422 448.268 249.608 448.556 249.74C448.856 249.872 449.21 249.938 449.618 249.938ZM460.309 251.216C459.457 251.216 458.689 251.018 458.005 250.622C457.333 250.226 456.805 249.674 456.421 248.966C456.037 248.246 455.845 247.418 455.845 246.482C455.845 245.522 456.037 244.688 456.421 243.98C456.805 243.272 457.333 242.72 458.005 242.324C458.689 241.916 459.457 241.712 460.309 241.712C461.389 241.712 462.289 241.994 463.009 242.558C463.729 243.11 464.185 243.854 464.377 244.79H462.829C462.709 244.226 462.415 243.788 461.947 243.476C461.479 243.164 460.927 243.008 460.291 243.008C459.775 243.008 459.295 243.14 458.851 243.404C458.407 243.656 458.053 244.04 457.789 244.556C457.525 245.072 457.393 245.708 457.393 246.464C457.393 247.028 457.471 247.532 457.627 247.976C457.783 248.408 457.993 248.768 458.257 249.056C458.521 249.344 458.827 249.566 459.175 249.722C459.535 249.866 459.907 249.938 460.291 249.938C460.723 249.938 461.113 249.872 461.461 249.74C461.809 249.596 462.103 249.386 462.343 249.11C462.583 248.834 462.745 248.51 462.829 248.138H464.377C464.185 249.05 463.723 249.794 462.991 250.37C462.271 250.934 461.377 251.216 460.309 251.216ZM469.842 251C469.302 251 468.834 250.916 468.438 250.748C468.042 250.58 467.736 250.298 467.52 249.902C467.316 249.494 467.214 248.948 467.214 248.264V243.206H465.63V241.928H467.214L467.412 239.732H468.726V241.928H471.354V243.206H468.726V248.264C468.726 248.828 468.84 249.212 469.068 249.416C469.296 249.608 469.698 249.704 470.274 249.704H471.246V251H469.842ZM473.47 251V241.928H474.982V251H473.47ZM474.226 240.002C473.926 240.002 473.674 239.906 473.47 239.714C473.278 239.51 473.182 239.258 473.182 238.958C473.182 238.658 473.278 238.418 473.47 238.238C473.674 238.046 473.926 237.95 474.226 237.95C474.514 237.95 474.76 238.046 474.964 238.238C475.168 238.418 475.27 238.658 475.27 238.958C475.27 239.258 475.168 239.51 474.964 239.714C474.76 239.906 474.514 240.002 474.226 240.002ZM481.701 251.216C480.861 251.216 480.105 251.024 479.433 250.64C478.761 250.244 478.233 249.692 477.849 248.984C477.465 248.264 477.273 247.43 477.273 246.482C477.273 245.51 477.465 244.67 477.849 243.962C478.245 243.242 478.779 242.69 479.451 242.306C480.135 241.91 480.897 241.712 481.737 241.712C482.601 241.712 483.363 241.91 484.023 242.306C484.695 242.69 485.223 243.242 485.607 243.962C486.003 244.67 486.201 245.504 486.201 246.464C486.201 247.424 486.003 248.264 485.607 248.984C485.211 249.692 484.677 250.244 484.005 250.64C483.333 251.024 482.565 251.216 481.701 251.216ZM481.719 249.92C482.235 249.92 482.715 249.794 483.159 249.542C483.603 249.278 483.963 248.888 484.239 248.372C484.515 247.856 484.653 247.22 484.653 246.464C484.653 245.696 484.515 245.06 484.239 244.556C483.975 244.04 483.621 243.656 483.177 243.404C482.745 243.14 482.265 243.008 481.737 243.008C481.233 243.008 480.753 243.14 480.297 243.404C479.853 243.656 479.493 244.04 479.217 244.556C478.953 245.06 478.821 245.696 478.821 246.464C478.821 247.22 478.953 247.856 479.217 248.372C479.493 248.888 479.847 249.278 480.279 249.542C480.723 249.794 481.203 249.92 481.719 249.92ZM488.321 251V241.928H489.689L489.761 243.512C490.049 242.948 490.457 242.51 490.985 242.198C491.525 241.874 492.137 241.712 492.821 241.712C493.529 241.712 494.141 241.856 494.657 242.144C495.173 242.42 495.575 242.846 495.863 243.422C496.151 243.986 496.295 244.706 496.295 245.582V251H494.783V245.744C494.783 244.832 494.579 244.148 494.171 243.692C493.775 243.236 493.211 243.008 492.479 243.008C491.975 243.008 491.525 243.134 491.129 243.386C490.733 243.626 490.415 243.98 490.175 244.448C489.947 244.904 489.833 245.474 489.833 246.158V251H488.321ZM502.076 251.216C501.32 251.216 500.66 251.09 500.096 250.838C499.544 250.586 499.1 250.238 498.764 249.794C498.44 249.338 498.242 248.804 498.17 248.192H499.718C499.778 248.504 499.904 248.792 500.096 249.056C500.288 249.32 500.546 249.536 500.87 249.704C501.206 249.86 501.614 249.938 502.094 249.938C502.514 249.938 502.862 249.878 503.138 249.758C503.414 249.626 503.618 249.452 503.75 249.236C503.894 249.02 503.966 248.786 503.966 248.534C503.966 248.162 503.876 247.88 503.696 247.688C503.528 247.496 503.276 247.346 502.94 247.238C502.604 247.118 502.196 247.016 501.716 246.932C501.32 246.86 500.93 246.764 500.546 246.644C500.162 246.524 499.82 246.368 499.52 246.176C499.22 245.972 498.98 245.726 498.8 245.438C498.632 245.15 498.548 244.796 498.548 244.376C498.548 243.86 498.68 243.404 498.944 243.008C499.208 242.6 499.586 242.282 500.078 242.054C500.582 241.826 501.164 241.712 501.824 241.712C502.796 241.712 503.582 241.946 504.182 242.414C504.782 242.882 505.136 243.56 505.244 244.448H503.75C503.69 243.992 503.492 243.638 503.156 243.386C502.832 243.122 502.382 242.99 501.806 242.99C501.242 242.99 500.81 243.104 500.51 243.332C500.222 243.56 500.078 243.86 500.078 244.232C500.078 244.472 500.156 244.688 500.312 244.88C500.48 245.06 500.72 245.216 501.032 245.348C501.356 245.48 501.752 245.588 502.22 245.672C502.82 245.78 503.366 245.924 503.858 246.104C504.35 246.284 504.746 246.554 505.046 246.914C505.358 247.262 505.514 247.76 505.514 248.408C505.514 248.972 505.37 249.464 505.082 249.884C504.806 250.304 504.41 250.634 503.894 250.874C503.378 251.102 502.772 251.216 502.076 251.216ZM508.232 251.09C507.932 251.09 507.68 250.994 507.476 250.802C507.284 250.598 507.188 250.352 507.188 250.064C507.188 249.776 507.284 249.536 507.476 249.344C507.68 249.14 507.932 249.038 508.232 249.038C508.532 249.038 508.778 249.14 508.97 249.344C509.162 249.536 509.258 249.776 509.258 250.064C509.258 250.352 509.162 250.598 508.97 250.802C508.778 250.994 508.532 251.09 508.232 251.09Z" fill="white"/>
<mask id="path-3-outside-1_437_1036" maskUnits="userSpaceOnUse" x="16" y="58" width="145" height="219" fill="black">
<rect fill="white" x="16" y="58" width="145" height="219"/>
<path d="M158.437 149.441V185.749C158.437 200.483 156.811 213.447 153.558 224.641C150.401 235.739 145.761 245.02 139.637 252.482C133.514 259.945 126.147 265.542 117.537 269.273C108.926 273.005 99.2148 274.87 88.4035 274.87C77.975 274.87 68.4553 273.005 59.8446 269.273C51.2339 265.542 43.8191 259.945 37.6002 252.482C31.3813 245.02 26.5498 235.739 23.1055 224.641C19.7568 213.447 18.0825 200.483 18.0825 185.749V149.441C18.0825 134.707 19.7568 121.791 23.1055 110.692C26.4541 99.4983 31.2378 90.17 37.4567 82.7074C43.6756 75.2447 51.0904 69.6478 59.7011 65.9165C68.3118 62.0895 77.8315 60.176 88.26 60.176C99.0713 60.176 108.782 62.0895 117.393 65.9165C126.099 69.6478 133.466 75.2447 139.494 82.7074C145.617 90.17 150.305 99.4983 153.558 110.692C156.811 121.791 158.437 134.707 158.437 149.441ZM132.318 185.749V149.154C132.318 137.673 131.362 127.818 129.448 119.59C127.535 111.266 124.712 104.473 120.981 99.2113C117.249 93.9492 112.657 90.0743 107.204 87.5868C101.75 85.0036 95.4356 83.712 88.26 83.712C81.4671 83.712 75.3439 85.0036 69.8905 87.5868C64.5327 90.0743 59.9403 93.9492 56.1133 99.2113C52.2863 104.473 49.3204 111.266 47.2155 119.59C45.2063 127.818 44.2018 137.673 44.2018 149.154V185.749C44.2018 197.326 45.2063 207.276 47.2155 215.6C49.3204 223.828 52.2863 230.621 56.1133 235.978C60.0359 241.241 64.724 245.163 70.1775 247.746C75.6309 250.234 81.7063 251.478 88.4035 251.478C95.5791 251.478 101.894 250.234 107.347 247.746C112.896 245.163 117.489 241.241 121.124 235.978C124.856 230.621 127.63 223.828 129.448 215.6C131.362 207.276 132.318 197.326 132.318 185.749Z"/>
</mask>
<path d="M153.558 224.641L151.637 224.083L151.634 224.094L153.558 224.641ZM23.1055 224.641L21.1894 225.214L21.1923 225.224L21.1953 225.234L23.1055 224.641ZM23.1055 110.692L25.0202 111.27L25.0216 111.265L23.1055 110.692ZM59.7011 65.9165L60.4963 67.7516L60.5048 67.7479L60.5134 67.7441L59.7011 65.9165ZM117.393 65.9165L116.581 67.7441L116.593 67.7495L116.605 67.7547L117.393 65.9165ZM139.494 82.7074L137.938 83.9641L137.943 83.9701L137.948 83.976L139.494 82.7074ZM153.558 110.692L151.638 111.25L151.639 111.255L153.558 110.692ZM129.448 119.59L127.499 120.038L127.5 120.043L129.448 119.59ZM107.204 87.5868L106.347 89.3943L106.36 89.4005L106.374 89.4064L107.204 87.5868ZM69.8904 87.5868L70.7327 89.4008L70.7397 89.3976L70.7466 89.3943L69.8904 87.5868ZM47.2155 119.59L45.2766 119.1L45.2745 119.108L45.2726 119.116L47.2155 119.59ZM47.2155 215.6L45.2714 216.069L45.2745 216.082L45.2779 216.095L47.2155 215.6ZM56.1133 235.978L54.4858 237.141L54.4976 237.157L54.5098 237.174L56.1133 235.978ZM70.1775 247.746L69.3213 249.554L69.3343 249.56L69.3475 249.566L70.1775 247.746ZM107.347 247.746L108.177 249.566L108.184 249.563L108.191 249.56L107.347 247.746ZM121.124 235.978L119.483 234.835L119.479 234.842L121.124 235.978ZM129.448 215.6L127.499 215.152L127.497 215.16L127.495 215.168L129.448 215.6ZM156.437 149.441V185.749H160.437V149.441H156.437ZM156.437 185.749C156.437 200.342 154.826 213.111 151.638 224.083L155.479 225.199C158.796 213.783 160.437 200.625 160.437 185.749H156.437ZM151.634 224.094C148.538 234.979 144.01 244 138.091 251.214L141.184 253.751C147.511 246.039 152.264 236.5 155.482 225.188L151.634 224.094ZM138.091 251.214C132.164 258.438 125.052 263.837 116.741 267.438L118.332 271.108C127.243 267.247 134.865 261.452 141.184 253.751L138.091 251.214ZM116.741 267.438C108.417 271.045 98.9825 272.87 88.4035 272.87V276.87C99.447 276.87 109.435 274.964 118.332 271.108L116.741 267.438ZM88.4035 272.87C78.218 272.87 68.973 271.049 60.6398 267.438L59.0494 271.108C67.9377 274.96 77.732 276.87 88.4035 276.87V272.87ZM60.6398 267.438C52.3264 263.836 45.1625 258.433 39.1366 251.202L36.0638 253.763C42.4756 261.457 50.1413 267.248 59.0494 271.108L60.6398 267.438ZM39.1366 251.202C33.116 243.977 28.3968 234.943 25.0156 224.048L21.1953 225.234C24.7027 236.535 29.6466 246.062 36.0638 253.763L39.1366 251.202ZM25.0216 224.068C21.7409 213.101 20.0825 200.337 20.0825 185.749H16.0825C16.0825 200.629 17.7728 213.793 21.1894 225.214L25.0216 224.068ZM20.0825 185.749V149.441H16.0825V185.749H20.0825ZM20.0825 149.441C20.0825 134.852 21.741 122.138 25.0202 111.27L21.1907 110.115C17.7727 121.443 16.0825 134.561 16.0825 149.441H20.0825ZM25.0216 111.265C28.3081 100.279 32.9786 91.2051 38.9931 83.9878L35.9202 81.427C29.497 89.1349 24.6001 98.7176 21.1894 110.119L25.0216 111.265ZM38.9931 83.9878C45.019 76.7567 52.1829 71.354 60.4963 67.7516L58.9059 64.0813C49.9978 67.9415 42.3321 73.7328 35.9202 81.427L38.9931 83.9878ZM60.5134 67.7441C68.8423 64.0423 78.0812 62.176 88.26 62.176V58.176C77.5817 58.176 67.7814 60.1366 58.8888 64.0888L60.5134 67.7441ZM88.26 62.176C98.8325 62.176 108.261 64.0463 116.581 67.7441L118.205 64.0888C109.304 60.1326 99.3101 58.176 88.26 58.176V62.176ZM116.605 67.7547C125.008 71.356 132.113 76.7516 137.938 83.9641L141.05 81.4507C134.82 73.7379 127.191 67.9396 118.181 64.0782L116.605 67.7547ZM137.948 83.976C143.868 91.1909 148.445 100.263 151.638 111.25L155.479 110.134C152.166 98.7332 147.366 89.1491 141.04 81.4388L137.948 83.976ZM151.639 111.255C154.826 122.128 156.437 134.848 156.437 149.441H160.437C160.437 134.566 158.796 121.453 155.477 110.13L151.639 111.255ZM134.318 185.749V149.154H130.318V185.749H134.318ZM134.318 149.154C134.318 137.571 133.354 127.556 131.396 119.137L127.5 120.043C129.369 128.08 130.318 137.775 130.318 149.154H134.318ZM131.397 119.142C129.443 110.642 126.535 103.587 122.612 98.0544L119.349 100.368C122.889 105.36 125.626 111.891 127.499 120.038L131.397 119.142ZM122.612 98.0544C118.693 92.5273 113.832 88.4122 108.034 85.7672L106.374 89.4064C111.482 91.7365 115.806 95.3711 119.349 100.368L122.612 98.0544ZM108.06 85.7793C102.293 83.0476 95.6764 81.712 88.26 81.712V85.712C95.1949 85.712 101.208 86.9596 106.347 89.3943L108.06 85.7793ZM88.26 81.712C81.2084 81.712 74.7872 83.0542 69.0343 85.7793L70.7466 89.3943C75.9006 86.9529 81.7258 85.712 88.26 85.712V81.712ZM69.0482 85.7728C63.3515 88.4177 58.502 92.5264 54.4958 98.0349L57.7308 100.388C61.3785 95.372 65.7138 91.731 70.7327 89.4008L69.0482 85.7728ZM54.4958 98.0349C50.4794 103.557 47.425 110.604 45.2766 119.1L49.1545 120.08C51.2158 111.929 54.0932 105.389 57.7308 100.388L54.4958 98.0349ZM45.2726 119.116C43.2148 127.543 42.2018 137.565 42.2018 149.154H46.2018C46.2018 137.78 47.1979 128.093 49.1584 120.064L45.2726 119.116ZM42.2018 149.154V185.749H46.2018V149.154H42.2018ZM42.2018 185.749C42.2018 197.433 43.2147 207.549 45.2714 216.069L49.1597 215.13C47.198 207.003 46.2018 197.219 46.2018 185.749H42.2018ZM45.2779 216.095C47.4271 224.497 50.4801 231.533 54.4858 237.141L57.7407 234.816C54.0924 229.708 51.2136 223.159 49.1531 215.104L45.2779 216.095ZM54.5098 237.174C58.6103 242.674 63.547 246.819 69.3213 249.554L71.0336 245.939C65.901 243.508 61.4616 239.807 57.7168 234.783L54.5098 237.174ZM69.3475 249.566C75.0906 252.186 81.4537 253.478 88.4035 253.478V249.478C81.9589 249.478 76.1713 248.282 71.0075 245.927L69.3475 249.566ZM88.4035 253.478C95.81 253.478 102.417 252.194 108.177 249.566L106.517 245.927C101.37 248.274 95.3483 249.478 88.4035 249.478V253.478ZM108.191 249.56C114.078 246.819 118.941 242.656 122.77 237.115L119.479 234.842C116.036 239.825 111.715 243.507 106.503 245.933L108.191 249.56ZM122.766 237.121C126.683 231.497 129.542 224.444 131.401 216.031L127.495 215.168C125.718 223.212 123.028 229.745 119.483 234.835L122.766 237.121ZM131.397 216.048C133.354 207.536 134.318 197.427 134.318 185.749H130.318C130.318 197.224 129.369 207.016 127.499 215.152L131.397 216.048Z" fill="white" mask="url(#path-3-outside-1_437_1036)"/>
<path d="M88 277L529 277" stroke="white" stroke-width="2"/>
<line y1="-1" x2="204" y2="-1" transform="matrix(-4.37114e-08 -1 -1 4.37114e-08 529 278)" stroke="white" stroke-width="2"/>
<line y1="-1" x2="192" y2="-1" transform="matrix(-1 0 0 1 530 76)" stroke="white" stroke-width="2"/>
</svg>
