<svg width="515" height="344" viewBox="0 0 515 344" fill="none" xmlns="http://www.w3.org/2000/svg">
<path d="M365.964 112V95.2H377.004V97.816H369.204V102.208H376.284V104.728H369.204V109.384H377.004V112H365.964ZM382.597 112V95.2H385.837L393.565 106.792V95.2H396.805V112H393.565L385.837 100.432V112H382.597ZM410.089 112.288C408.489 112.288 407.097 111.936 405.913 111.232C404.729 110.512 403.809 109.512 403.153 108.232C402.497 106.936 402.169 105.432 402.169 103.72C402.169 101.992 402.505 100.472 403.177 99.16C403.849 97.832 404.817 96.792 406.081 96.04C407.345 95.288 408.857 94.912 410.617 94.912C412.585 94.912 414.217 95.384 415.513 96.328C416.825 97.272 417.673 98.584 418.057 100.264H414.433C414.193 99.528 413.745 98.952 413.089 98.536C412.449 98.104 411.617 97.888 410.593 97.888C409.505 97.888 408.577 98.128 407.809 98.608C407.041 99.088 406.457 99.76 406.057 100.624C405.657 101.488 405.457 102.52 405.457 103.72C405.457 104.936 405.657 105.968 406.057 106.816C406.457 107.664 407.025 108.312 407.761 108.76C408.513 109.192 409.393 109.408 410.401 109.408C411.873 109.408 412.985 109.016 413.737 108.232C414.505 107.432 414.961 106.4 415.105 105.136H410.977V102.712H418.369V112H415.369L415.129 109.864C414.777 110.392 414.361 110.84 413.881 111.208C413.417 111.56 412.873 111.824 412.249 112C411.625 112.192 410.905 112.288 410.089 112.288ZM422.913 112L429.057 95.2H432.729L438.849 112H435.417L430.881 98.896L426.321 112H422.913ZM425.625 108.184L426.489 105.664H435.033L435.873 108.184H425.625ZM450.103 112.288C448.503 112.288 447.111 111.936 445.927 111.232C444.743 110.512 443.823 109.512 443.167 108.232C442.511 106.936 442.183 105.432 442.183 103.72C442.183 101.992 442.519 100.472 443.191 99.16C443.863 97.832 444.831 96.792 446.095 96.04C447.359 95.288 448.871 94.912 450.631 94.912C452.599 94.912 454.231 95.384 455.527 96.328C456.839 97.272 457.687 98.584 458.071 100.264H454.447C454.207 99.528 453.759 98.952 453.103 98.536C452.463 98.104 451.631 97.888 450.607 97.888C449.519 97.888 448.591 98.128 447.823 98.608C447.055 99.088 446.471 99.76 446.071 100.624C445.671 101.488 445.471 102.52 445.471 103.72C445.471 104.936 445.671 105.968 446.071 106.816C446.471 107.664 447.039 108.312 447.775 108.76C448.527 109.192 449.407 109.408 450.415 109.408C451.887 109.408 452.999 109.016 453.751 108.232C454.519 107.432 454.975 106.4 455.119 105.136H450.991V102.712H458.383V112H455.383L455.143 109.864C454.791 110.392 454.375 110.84 453.895 111.208C453.431 111.56 452.887 111.824 452.263 112C451.639 112.192 450.919 112.288 450.103 112.288ZM464.055 112V95.2H475.095V97.816H467.295V102.208H474.375V104.728H467.295V109.384H475.095V112H464.055ZM480.687 112V95.2H486.303C488.255 95.2 489.863 95.552 491.127 96.256C492.407 96.944 493.351 97.92 493.959 99.184C494.583 100.432 494.895 101.904 494.895 103.6C494.895 105.296 494.583 106.776 493.959 108.04C493.351 109.288 492.415 110.264 491.151 110.968C489.887 111.656 488.271 112 486.303 112H480.687ZM483.927 109.216H486.135C487.511 109.216 488.591 108.992 489.375 108.544C490.175 108.096 490.743 107.456 491.079 106.624C491.415 105.776 491.583 104.768 491.583 103.6C491.583 102.416 491.415 101.408 491.079 100.576C490.743 99.728 490.175 99.08 489.375 98.632C488.591 98.184 487.511 97.96 486.135 97.96H483.927V109.216ZM327.143 143.288C325.463 143.288 324.015 142.928 322.799 142.208C321.599 141.472 320.671 140.456 320.015 139.16C319.375 137.848 319.055 136.336 319.055 134.624C319.055 132.912 319.375 131.4 320.015 130.088C320.671 128.776 321.599 127.752 322.799 127.016C324.015 126.28 325.463 125.912 327.143 125.912C329.175 125.912 330.839 126.416 332.135 127.424C333.431 128.432 334.239 129.856 334.559 131.696H331.031C330.823 130.8 330.383 130.104 329.711 129.608C329.055 129.096 328.191 128.84 327.119 128.84C326.127 128.84 325.271 129.08 324.551 129.56C323.847 130.024 323.303 130.688 322.919 131.552C322.535 132.4 322.343 133.424 322.343 134.624C322.343 135.808 322.535 136.832 322.919 137.696C323.303 138.56 323.847 139.224 324.551 139.688C325.271 140.152 326.127 140.384 327.119 140.384C328.191 140.384 329.055 140.152 329.711 139.688C330.367 139.208 330.799 138.544 331.007 137.696H334.559C334.239 139.44 333.431 140.808 332.135 141.8C330.839 142.792 329.175 143.288 327.143 143.288ZM347.718 143.288C346.086 143.288 344.646 142.92 343.398 142.184C342.15 141.448 341.174 140.432 340.47 139.136C339.766 137.824 339.414 136.312 339.414 134.6C339.414 132.888 339.766 131.384 340.47 130.088C341.174 128.776 342.15 127.752 343.398 127.016C344.646 126.28 346.086 125.912 347.718 125.912C349.366 125.912 350.814 126.28 352.062 127.016C353.31 127.752 354.278 128.776 354.966 130.088C355.67 131.384 356.022 132.888 356.022 134.6C356.022 136.312 355.67 137.824 354.966 139.136C354.278 140.432 353.31 141.448 352.062 142.184C350.814 142.92 349.366 143.288 347.718 143.288ZM347.718 140.384C348.742 140.384 349.622 140.152 350.358 139.688C351.11 139.208 351.694 138.536 352.11 137.672C352.526 136.808 352.734 135.784 352.734 134.6C352.734 133.4 352.526 132.376 352.11 131.528C351.694 130.664 351.11 130 350.358 129.536C349.622 129.072 348.742 128.84 347.718 128.84C346.71 128.84 345.83 129.072 345.078 129.536C344.326 130 343.742 130.664 343.326 131.528C342.91 132.376 342.702 133.4 342.702 134.6C342.702 135.784 342.91 136.808 343.326 137.672C343.742 138.536 344.326 139.208 345.078 139.688C345.83 140.152 346.71 140.384 347.718 140.384ZM361.426 143V126.2H365.29L370.426 136.688L375.514 126.2H379.378V143H376.138V131.72L371.698 140.648H369.13L364.666 131.72V143H361.426ZM385.324 143V126.2H389.188L394.324 136.688L399.412 126.2H403.276V143H400.036V131.72L395.596 140.648H393.028L388.564 131.72V143H385.324ZM415.726 143.288C414.494 143.288 413.374 143.04 412.366 142.544C411.358 142.048 410.558 141.304 409.966 140.312C409.374 139.32 409.078 138.056 409.078 136.52V126.2H412.318V136.544C412.318 137.376 412.454 138.08 412.726 138.656C412.998 139.216 413.39 139.632 413.902 139.904C414.43 140.176 415.054 140.312 415.774 140.312C416.51 140.312 417.134 140.176 417.646 139.904C418.174 139.632 418.574 139.216 418.846 138.656C419.118 138.08 419.254 137.376 419.254 136.544V126.2H422.494V136.52C422.494 138.056 422.19 139.32 421.582 140.312C420.974 141.304 420.15 142.048 419.11 142.544C418.086 143.04 416.958 143.288 415.726 143.288ZM428.291 143V126.2H431.531L439.259 137.792V126.2H442.499V143H439.259L431.531 131.432V143H428.291ZM448.416 143V126.2H451.656V143H448.416ZM461.507 143V128.816H456.587V126.2H469.619V128.816H464.723V143H461.507ZM478.899 143V137.096L473.235 126.2H476.907L480.867 134.504H480.219L484.155 126.2H487.803L482.139 137.096V143H478.899ZM492.954 143.12C492.346 143.12 491.858 142.944 491.49 142.592C491.122 142.224 490.938 141.776 490.938 141.248C490.938 140.72 491.122 140.28 491.49 139.928C491.858 139.56 492.346 139.376 492.954 139.376C493.53 139.376 494.002 139.56 494.37 139.928C494.738 140.28 494.922 140.72 494.922 141.248C494.922 141.776 494.738 142.224 494.37 142.592C494.002 142.944 493.53 143.12 492.954 143.12ZM492.954 134.336C492.346 134.336 491.858 134.16 491.49 133.808C491.122 133.44 490.938 132.992 490.938 132.464C490.938 131.936 491.122 131.496 491.49 131.144C491.858 130.776 492.346 130.592 492.954 130.592C493.53 130.592 494.002 130.776 494.37 131.144C494.738 131.496 494.922 131.936 494.922 132.464C494.922 132.992 494.738 133.44 494.37 133.808C494.002 134.16 493.53 134.336 492.954 134.336Z" fill="white"/>
<path d="M250.61 202V197.212L246.506 189.4H248.216L251.6 196.222H251.15L254.516 189.4H256.208L252.122 197.212V202H250.61ZM260.333 202.216C259.493 202.216 258.737 202.024 258.065 201.64C257.393 201.244 256.865 200.692 256.481 199.984C256.097 199.264 255.905 198.43 255.905 197.482C255.905 196.51 256.097 195.67 256.481 194.962C256.877 194.242 257.411 193.69 258.083 193.306C258.767 192.91 259.529 192.712 260.369 192.712C261.233 192.712 261.995 192.91 262.655 193.306C263.327 193.69 263.855 194.242 264.239 194.962C264.635 195.67 264.833 196.504 264.833 197.464C264.833 198.424 264.635 199.264 264.239 199.984C263.843 200.692 263.309 201.244 262.637 201.64C261.965 202.024 261.197 202.216 260.333 202.216ZM260.351 200.92C260.867 200.92 261.347 200.794 261.791 200.542C262.235 200.278 262.595 199.888 262.871 199.372C263.147 198.856 263.285 198.22 263.285 197.464C263.285 196.696 263.147 196.06 262.871 195.556C262.607 195.04 262.253 194.656 261.809 194.404C261.377 194.14 260.897 194.008 260.369 194.008C259.865 194.008 259.385 194.14 258.929 194.404C258.485 194.656 258.125 195.04 257.849 195.556C257.585 196.06 257.453 196.696 257.453 197.464C257.453 198.22 257.585 198.856 257.849 199.372C258.125 199.888 258.479 200.278 258.911 200.542C259.355 200.794 259.835 200.92 260.351 200.92ZM270.247 202.216C269.551 202.216 268.939 202.078 268.411 201.802C267.895 201.526 267.493 201.1 267.205 200.524C266.929 199.948 266.791 199.228 266.791 198.364V192.928H268.303V198.202C268.303 199.102 268.501 199.78 268.897 200.236C269.293 200.692 269.851 200.92 270.571 200.92C271.075 200.92 271.531 200.8 271.939 200.56C272.347 200.308 272.665 199.954 272.893 199.498C273.133 199.03 273.253 198.46 273.253 197.788V192.928H274.765V202H273.397L273.307 200.416C273.031 200.98 272.623 201.424 272.083 201.748C271.543 202.06 270.931 202.216 270.247 202.216ZM277.272 202V192.928H278.64L278.748 194.656C278.952 194.248 279.21 193.9 279.522 193.612C279.846 193.324 280.23 193.102 280.674 192.946C281.13 192.79 281.646 192.712 282.222 192.712V194.296H281.664C281.28 194.296 280.914 194.35 280.566 194.458C280.218 194.554 279.906 194.716 279.63 194.944C279.366 195.172 279.156 195.484 279 195.88C278.856 196.264 278.784 196.744 278.784 197.32V202H277.272ZM291.325 202L287.887 192.928H289.471L292.207 200.542L294.961 192.928H296.509L293.071 202H291.325ZM301.8 202.216C300.96 202.216 300.204 202.024 299.532 201.64C298.86 201.244 298.332 200.692 297.948 199.984C297.564 199.264 297.372 198.43 297.372 197.482C297.372 196.51 297.564 195.67 297.948 194.962C298.344 194.242 298.878 193.69 299.55 193.306C300.234 192.91 300.996 192.712 301.836 192.712C302.7 192.712 303.462 192.91 304.122 193.306C304.794 193.69 305.322 194.242 305.706 194.962C306.102 195.67 306.3 196.504 306.3 197.464C306.3 198.424 306.102 199.264 305.706 199.984C305.31 200.692 304.776 201.244 304.104 201.64C303.432 202.024 302.664 202.216 301.8 202.216ZM301.818 200.92C302.334 200.92 302.814 200.794 303.258 200.542C303.702 200.278 304.062 199.888 304.338 199.372C304.614 198.856 304.752 198.22 304.752 197.464C304.752 196.696 304.614 196.06 304.338 195.556C304.074 195.04 303.72 194.656 303.276 194.404C302.844 194.14 302.364 194.008 301.836 194.008C301.332 194.008 300.852 194.14 300.396 194.404C299.952 194.656 299.592 195.04 299.316 195.556C299.052 196.06 298.92 196.696 298.92 197.464C298.92 198.22 299.052 198.856 299.316 199.372C299.592 199.888 299.946 200.278 300.378 200.542C300.822 200.794 301.302 200.92 301.818 200.92ZM308.564 202V192.928H310.076V202H308.564ZM309.32 191.002C309.02 191.002 308.768 190.906 308.564 190.714C308.372 190.51 308.276 190.258 308.276 189.958C308.276 189.658 308.372 189.418 308.564 189.238C308.768 189.046 309.02 188.95 309.32 188.95C309.608 188.95 309.854 189.046 310.058 189.238C310.262 189.418 310.364 189.658 310.364 189.958C310.364 190.258 310.262 190.51 310.058 190.714C309.854 190.906 309.608 191.002 309.32 191.002ZM316.83 202.216C315.978 202.216 315.21 202.018 314.526 201.622C313.854 201.226 313.326 200.674 312.942 199.966C312.558 199.246 312.366 198.418 312.366 197.482C312.366 196.522 312.558 195.688 312.942 194.98C313.326 194.272 313.854 193.72 314.526 193.324C315.21 192.916 315.978 192.712 316.83 192.712C317.91 192.712 318.81 192.994 319.53 193.558C320.25 194.11 320.706 194.854 320.898 195.79H319.35C319.23 195.226 318.936 194.788 318.468 194.476C318 194.164 317.448 194.008 316.812 194.008C316.296 194.008 315.816 194.14 315.372 194.404C314.928 194.656 314.574 195.04 314.31 195.556C314.046 196.072 313.914 196.708 313.914 197.464C313.914 198.028 313.992 198.532 314.148 198.976C314.304 199.408 314.514 199.768 314.778 200.056C315.042 200.344 315.348 200.566 315.696 200.722C316.056 200.866 316.428 200.938 316.812 200.938C317.244 200.938 317.634 200.872 317.982 200.74C318.33 200.596 318.624 200.386 318.864 200.11C319.104 199.834 319.266 199.51 319.35 199.138H320.898C320.706 200.05 320.244 200.794 319.512 201.37C318.792 201.934 317.898 202.216 316.83 202.216ZM327.023 202.216C326.171 202.216 325.415 202.018 324.755 201.622C324.107 201.226 323.597 200.674 323.225 199.966C322.853 199.246 322.667 198.412 322.667 197.464C322.667 196.504 322.847 195.67 323.207 194.962C323.579 194.254 324.095 193.702 324.755 193.306C325.427 192.91 326.195 192.712 327.059 192.712C327.947 192.712 328.697 192.91 329.309 193.306C329.933 193.702 330.407 194.224 330.731 194.872C331.067 195.508 331.235 196.21 331.235 196.978C331.235 197.098 331.235 197.224 331.235 197.356C331.235 197.488 331.229 197.638 331.217 197.806H323.801V196.636H329.759C329.723 195.808 329.447 195.16 328.931 194.692C328.427 194.224 327.791 193.99 327.023 193.99C326.507 193.99 326.027 194.11 325.583 194.35C325.151 194.578 324.803 194.92 324.539 195.376C324.275 195.82 324.143 196.378 324.143 197.05V197.554C324.143 198.298 324.275 198.922 324.539 199.426C324.815 199.93 325.169 200.308 325.601 200.56C326.045 200.812 326.519 200.938 327.023 200.938C327.659 200.938 328.181 200.8 328.589 200.524C329.009 200.236 329.309 199.852 329.489 199.372H330.983C330.839 199.912 330.587 200.398 330.227 200.83C329.867 201.262 329.417 201.604 328.877 201.856C328.349 202.096 327.731 202.216 327.023 202.216ZM338.057 202V192.928H339.425L339.515 194.224C339.803 193.756 340.187 193.39 340.667 193.126C341.159 192.85 341.693 192.712 342.269 192.712C342.737 192.712 343.157 192.778 343.529 192.91C343.913 193.03 344.249 193.222 344.537 193.486C344.825 193.738 345.059 194.062 345.239 194.458C345.551 193.906 345.977 193.48 346.517 193.18C347.069 192.868 347.657 192.712 348.281 192.712C348.977 192.712 349.583 192.856 350.099 193.144C350.627 193.42 351.029 193.846 351.305 194.422C351.593 194.986 351.737 195.706 351.737 196.582V202H350.243V196.744C350.243 195.832 350.057 195.148 349.685 194.692C349.313 194.236 348.791 194.008 348.119 194.008C347.651 194.008 347.231 194.134 346.859 194.386C346.487 194.626 346.193 194.98 345.977 195.448C345.761 195.916 345.653 196.492 345.653 197.176V202H344.141V196.744C344.141 195.832 343.955 195.148 343.583 194.692C343.211 194.236 342.683 194.008 341.999 194.008C341.543 194.008 341.129 194.134 340.757 194.386C340.397 194.626 340.109 194.98 339.893 195.448C339.677 195.916 339.569 196.492 339.569 197.176V202H338.057ZM357.04 202.216C356.308 202.216 355.696 202.09 355.204 201.838C354.712 201.574 354.346 201.232 354.106 200.812C353.866 200.38 353.746 199.912 353.746 199.408C353.746 198.796 353.902 198.28 354.214 197.86C354.538 197.428 354.988 197.104 355.564 196.888C356.152 196.66 356.842 196.546 357.634 196.546H360.028C360.028 195.982 359.938 195.514 359.758 195.142C359.59 194.758 359.338 194.47 359.002 194.278C358.678 194.086 358.27 193.99 357.778 193.99C357.202 193.99 356.704 194.134 356.284 194.422C355.864 194.71 355.606 195.136 355.51 195.7H353.962C354.034 195.052 354.25 194.512 354.61 194.08C354.982 193.636 355.45 193.3 356.014 193.072C356.578 192.832 357.166 192.712 357.778 192.712C358.618 192.712 359.314 192.868 359.866 193.18C360.43 193.48 360.85 193.906 361.126 194.458C361.402 194.998 361.54 195.64 361.54 196.384V202H360.19L360.1 200.398C359.98 200.65 359.824 200.89 359.632 201.118C359.452 201.334 359.236 201.526 358.984 201.694C358.732 201.85 358.444 201.976 358.12 202.072C357.808 202.168 357.448 202.216 357.04 202.216ZM357.274 200.938C357.694 200.938 358.072 200.854 358.408 200.686C358.756 200.506 359.05 200.266 359.29 199.966C359.53 199.654 359.71 199.312 359.83 198.94C359.962 198.568 360.028 198.178 360.028 197.77V197.716H357.76C357.172 197.716 356.698 197.788 356.338 197.932C355.978 198.064 355.72 198.256 355.564 198.508C355.408 198.748 355.33 199.024 355.33 199.336C355.33 199.66 355.402 199.942 355.546 200.182C355.702 200.422 355.924 200.608 356.212 200.74C356.512 200.872 356.866 200.938 357.274 200.938ZM367.197 202C366.657 202 366.189 201.916 365.793 201.748C365.397 201.58 365.091 201.298 364.875 200.902C364.671 200.494 364.569 199.948 364.569 199.264V194.206H362.985V192.928H364.569L364.767 190.732H366.081V192.928H368.709V194.206H366.081V199.264C366.081 199.828 366.195 200.212 366.423 200.416C366.651 200.608 367.053 200.704 367.629 200.704H368.601V202H367.197ZM374.246 202C373.706 202 373.238 201.916 372.842 201.748C372.446 201.58 372.14 201.298 371.924 200.902C371.72 200.494 371.618 199.948 371.618 199.264V194.206H370.034V192.928H371.618L371.816 190.732H373.13V192.928H375.758V194.206H373.13V199.264C373.13 199.828 373.244 200.212 373.472 200.416C373.7 200.608 374.102 200.704 374.678 200.704H375.65V202H374.246ZM381.463 202.216C380.611 202.216 379.855 202.018 379.195 201.622C378.547 201.226 378.037 200.674 377.665 199.966C377.293 199.246 377.107 198.412 377.107 197.464C377.107 196.504 377.287 195.67 377.647 194.962C378.019 194.254 378.535 193.702 379.195 193.306C379.867 192.91 380.635 192.712 381.499 192.712C382.387 192.712 383.137 192.91 383.749 193.306C384.373 193.702 384.847 194.224 385.171 194.872C385.507 195.508 385.675 196.21 385.675 196.978C385.675 197.098 385.675 197.224 385.675 197.356C385.675 197.488 385.669 197.638 385.657 197.806H378.241V196.636H384.199C384.163 195.808 383.887 195.16 383.371 194.692C382.867 194.224 382.231 193.99 381.463 193.99C380.947 193.99 380.467 194.11 380.023 194.35C379.591 194.578 379.243 194.92 378.979 195.376C378.715 195.82 378.583 196.378 378.583 197.05V197.554C378.583 198.298 378.715 198.922 378.979 199.426C379.255 199.93 379.609 200.308 380.041 200.56C380.485 200.812 380.959 200.938 381.463 200.938C382.099 200.938 382.621 200.8 383.029 200.524C383.449 200.236 383.749 199.852 383.929 199.372H385.423C385.279 199.912 385.027 200.398 384.667 200.83C384.307 201.262 383.857 201.604 383.317 201.856C382.789 202.096 382.171 202.216 381.463 202.216ZM387.715 202V192.928H389.083L389.191 194.656C389.395 194.248 389.653 193.9 389.965 193.612C390.289 193.324 390.673 193.102 391.117 192.946C391.573 192.79 392.089 192.712 392.665 192.712V194.296H392.107C391.723 194.296 391.357 194.35 391.009 194.458C390.661 194.554 390.349 194.716 390.073 194.944C389.809 195.172 389.599 195.484 389.443 195.88C389.299 196.264 389.227 196.744 389.227 197.32V202H387.715ZM397.797 202.216C397.041 202.216 396.381 202.09 395.817 201.838C395.265 201.586 394.821 201.238 394.485 200.794C394.161 200.338 393.963 199.804 393.891 199.192H395.439C395.499 199.504 395.625 199.792 395.817 200.056C396.009 200.32 396.267 200.536 396.591 200.704C396.927 200.86 397.335 200.938 397.815 200.938C398.235 200.938 398.583 200.878 398.859 200.758C399.135 200.626 399.339 200.452 399.471 200.236C399.615 200.02 399.687 199.786 399.687 199.534C399.687 199.162 399.597 198.88 399.417 198.688C399.249 198.496 398.997 198.346 398.661 198.238C398.325 198.118 397.917 198.016 397.437 197.932C397.041 197.86 396.651 197.764 396.267 197.644C395.883 197.524 395.541 197.368 395.241 197.176C394.941 196.972 394.701 196.726 394.521 196.438C394.353 196.15 394.269 195.796 394.269 195.376C394.269 194.86 394.401 194.404 394.665 194.008C394.929 193.6 395.307 193.282 395.799 193.054C396.303 192.826 396.885 192.712 397.545 192.712C398.517 192.712 399.303 192.946 399.903 193.414C400.503 193.882 400.857 194.56 400.965 195.448H399.471C399.411 194.992 399.213 194.638 398.877 194.386C398.553 194.122 398.103 193.99 397.527 193.99C396.963 193.99 396.531 194.104 396.231 194.332C395.943 194.56 395.799 194.86 395.799 195.232C395.799 195.472 395.877 195.688 396.033 195.88C396.201 196.06 396.441 196.216 396.753 196.348C397.077 196.48 397.473 196.588 397.941 196.672C398.541 196.78 399.087 196.924 399.579 197.104C400.071 197.284 400.467 197.554 400.767 197.914C401.079 198.262 401.235 198.76 401.235 199.408C401.235 199.972 401.091 200.464 400.803 200.884C400.527 201.304 400.131 201.634 399.615 201.874C399.099 202.102 398.493 202.216 397.797 202.216ZM403.952 202.09C403.652 202.09 403.4 201.994 403.196 201.802C403.004 201.598 402.908 201.352 402.908 201.064C402.908 200.776 403.004 200.536 403.196 200.344C403.4 200.14 403.652 200.038 403.952 200.038C404.252 200.038 404.498 200.14 404.69 200.344C404.882 200.536 404.978 200.776 404.978 201.064C404.978 201.352 404.882 201.598 404.69 201.802C404.498 201.994 404.252 202.09 403.952 202.09ZM415.866 202.216C414.942 202.216 414.138 202.048 413.454 201.712C412.77 201.376 412.242 200.908 411.87 200.308C411.498 199.708 411.312 199.012 411.312 198.22H412.896C412.896 198.712 413.01 199.168 413.238 199.588C413.466 199.996 413.796 200.326 414.228 200.578C414.672 200.818 415.218 200.938 415.866 200.938C416.43 200.938 416.91 200.848 417.306 200.668C417.714 200.476 418.02 200.218 418.224 199.894C418.44 199.57 418.548 199.204 418.548 198.796C418.548 198.304 418.44 197.908 418.224 197.608C418.02 197.296 417.738 197.044 417.378 196.852C417.018 196.66 416.598 196.492 416.118 196.348C415.65 196.192 415.158 196.03 414.642 195.862C413.646 195.526 412.914 195.106 412.446 194.602C411.978 194.098 411.744 193.444 411.744 192.64C411.744 191.956 411.9 191.356 412.212 190.84C412.536 190.324 412.992 189.922 413.58 189.634C414.18 189.334 414.888 189.184 415.704 189.184C416.508 189.184 417.204 189.334 417.792 189.634C418.392 189.934 418.86 190.348 419.196 190.876C419.532 191.392 419.7 191.992 419.7 192.676H418.116C418.116 192.328 418.026 191.986 417.846 191.65C417.666 191.314 417.39 191.038 417.018 190.822C416.658 190.594 416.202 190.48 415.65 190.48C415.194 190.468 414.786 190.546 414.426 190.714C414.078 190.87 413.802 191.098 413.598 191.398C413.406 191.698 413.31 192.064 413.31 192.496C413.31 192.904 413.394 193.234 413.562 193.486C413.742 193.738 413.994 193.954 414.318 194.134C414.654 194.302 415.044 194.458 415.488 194.602C415.932 194.746 416.424 194.908 416.964 195.088C417.576 195.292 418.116 195.544 418.584 195.844C419.064 196.132 419.436 196.504 419.7 196.96C419.976 197.416 420.114 197.998 420.114 198.706C420.114 199.306 419.952 199.876 419.628 200.416C419.316 200.944 418.848 201.376 418.224 201.712C417.6 202.048 416.814 202.216 415.866 202.216ZM422.203 202V189.04H423.715V194.458C424.015 193.918 424.435 193.492 424.975 193.18C425.527 192.868 426.127 192.712 426.775 192.712C427.471 192.712 428.077 192.856 428.593 193.144C429.109 193.42 429.505 193.846 429.781 194.422C430.057 194.998 430.195 195.724 430.195 196.6V202H428.701V196.762C428.701 195.85 428.509 195.166 428.125 194.71C427.741 194.242 427.183 194.008 426.451 194.008C425.935 194.008 425.467 194.134 425.047 194.386C424.639 194.638 424.315 194.998 424.075 195.466C423.835 195.934 423.715 196.51 423.715 197.194V202H422.203ZM435.509 202.216C434.777 202.216 434.165 202.09 433.673 201.838C433.181 201.574 432.815 201.232 432.575 200.812C432.335 200.38 432.215 199.912 432.215 199.408C432.215 198.796 432.371 198.28 432.683 197.86C433.007 197.428 433.457 197.104 434.033 196.888C434.621 196.66 435.311 196.546 436.103 196.546H438.497C438.497 195.982 438.407 195.514 438.227 195.142C438.059 194.758 437.807 194.47 437.471 194.278C437.147 194.086 436.739 193.99 436.247 193.99C435.671 193.99 435.173 194.134 434.753 194.422C434.333 194.71 434.075 195.136 433.979 195.7H432.431C432.503 195.052 432.719 194.512 433.079 194.08C433.451 193.636 433.919 193.3 434.483 193.072C435.047 192.832 435.635 192.712 436.247 192.712C437.087 192.712 437.783 192.868 438.335 193.18C438.899 193.48 439.319 193.906 439.595 194.458C439.871 194.998 440.009 195.64 440.009 196.384V202H438.659L438.569 200.398C438.449 200.65 438.293 200.89 438.101 201.118C437.921 201.334 437.705 201.526 437.453 201.694C437.201 201.85 436.913 201.976 436.589 202.072C436.277 202.168 435.917 202.216 435.509 202.216ZM435.743 200.938C436.163 200.938 436.541 200.854 436.877 200.686C437.225 200.506 437.519 200.266 437.759 199.966C437.999 199.654 438.179 199.312 438.299 198.94C438.431 198.568 438.497 198.178 438.497 197.77V197.716H436.229C435.641 197.716 435.167 197.788 434.807 197.932C434.447 198.064 434.189 198.256 434.033 198.508C433.877 198.748 433.799 199.024 433.799 199.336C433.799 199.66 433.871 199.942 434.015 200.182C434.171 200.422 434.393 200.608 434.681 200.74C434.981 200.872 435.335 200.938 435.743 200.938ZM442.348 205.96V192.928H443.716L443.842 194.404C444.034 194.116 444.28 193.846 444.58 193.594C444.88 193.33 445.24 193.12 445.66 192.964C446.08 192.796 446.56 192.712 447.1 192.712C447.988 192.712 448.756 192.922 449.404 193.342C450.064 193.762 450.574 194.332 450.934 195.052C451.306 195.76 451.492 196.57 451.492 197.482C451.492 198.394 451.306 199.21 450.934 199.93C450.574 200.638 450.064 201.196 449.404 201.604C448.744 202.012 447.97 202.216 447.082 202.216C446.35 202.216 445.702 202.066 445.138 201.766C444.586 201.466 444.16 201.046 443.86 200.506V205.96H442.348ZM446.92 200.902C447.508 200.902 448.03 200.758 448.486 200.47C448.942 200.182 449.296 199.786 449.548 199.282C449.812 198.766 449.944 198.16 449.944 197.464C449.944 196.78 449.812 196.18 449.548 195.664C449.296 195.148 448.942 194.746 448.486 194.458C448.03 194.17 447.508 194.026 446.92 194.026C446.32 194.026 445.792 194.17 445.336 194.458C444.88 194.746 444.526 195.148 444.274 195.664C444.022 196.18 443.896 196.78 443.896 197.464C443.896 198.16 444.022 198.766 444.274 199.282C444.526 199.786 444.88 200.182 445.336 200.47C445.792 200.758 446.32 200.902 446.92 200.902ZM457.593 202.216C456.741 202.216 455.985 202.018 455.325 201.622C454.677 201.226 454.167 200.674 453.795 199.966C453.423 199.246 453.237 198.412 453.237 197.464C453.237 196.504 453.417 195.67 453.777 194.962C454.149 194.254 454.665 193.702 455.325 193.306C455.997 192.91 456.765 192.712 457.629 192.712C458.517 192.712 459.267 192.91 459.879 193.306C460.503 193.702 460.977 194.224 461.301 194.872C461.637 195.508 461.805 196.21 461.805 196.978C461.805 197.098 461.805 197.224 461.805 197.356C461.805 197.488 461.799 197.638 461.787 197.806H454.371V196.636H460.329C460.293 195.808 460.017 195.16 459.501 194.692C458.997 194.224 458.361 193.99 457.593 193.99C457.077 193.99 456.597 194.11 456.153 194.35C455.721 194.578 455.373 194.92 455.109 195.376C454.845 195.82 454.713 196.378 454.713 197.05V197.554C454.713 198.298 454.845 198.922 455.109 199.426C455.385 199.93 455.739 200.308 456.171 200.56C456.615 200.812 457.089 200.938 457.593 200.938C458.229 200.938 458.751 200.8 459.159 200.524C459.579 200.236 459.879 199.852 460.059 199.372H461.553C461.409 199.912 461.157 200.398 460.797 200.83C460.437 201.262 459.987 201.604 459.447 201.856C458.919 202.096 458.301 202.216 457.593 202.216ZM472.191 202C471.651 202 471.183 201.916 470.787 201.748C470.391 201.58 470.085 201.298 469.869 200.902C469.665 200.494 469.563 199.948 469.563 199.264V194.206H467.979V192.928H469.563L469.761 190.732H471.075V192.928H473.703V194.206H471.075V199.264C471.075 199.828 471.189 200.212 471.417 200.416C471.645 200.608 472.047 200.704 472.623 200.704H473.595V202H472.191ZM475.676 202V189.04H477.188V194.458C477.488 193.918 477.908 193.492 478.448 193.18C479 192.868 479.6 192.712 480.248 192.712C480.944 192.712 481.55 192.856 482.066 193.144C482.582 193.42 482.978 193.846 483.254 194.422C483.53 194.998 483.668 195.724 483.668 196.6V202H482.174V196.762C482.174 195.85 481.982 195.166 481.598 194.71C481.214 194.242 480.656 194.008 479.924 194.008C479.408 194.008 478.94 194.134 478.52 194.386C478.112 194.638 477.788 194.998 477.548 195.466C477.308 195.934 477.188 196.51 477.188 197.194V202H475.676ZM490.008 202.216C489.156 202.216 488.4 202.018 487.74 201.622C487.092 201.226 486.582 200.674 486.21 199.966C485.838 199.246 485.652 198.412 485.652 197.464C485.652 196.504 485.832 195.67 486.192 194.962C486.564 194.254 487.08 193.702 487.74 193.306C488.412 192.91 489.18 192.712 490.044 192.712C490.932 192.712 491.682 192.91 492.294 193.306C492.918 193.702 493.392 194.224 493.716 194.872C494.052 195.508 494.22 196.21 494.22 196.978C494.22 197.098 494.22 197.224 494.22 197.356C494.22 197.488 494.214 197.638 494.202 197.806H486.786V196.636H492.744C492.708 195.808 492.432 195.16 491.916 194.692C491.412 194.224 490.776 193.99 490.008 193.99C489.492 193.99 489.012 194.11 488.568 194.35C488.136 194.578 487.788 194.92 487.524 195.376C487.26 195.82 487.128 196.378 487.128 197.05V197.554C487.128 198.298 487.26 198.922 487.524 199.426C487.8 199.93 488.154 200.308 488.586 200.56C489.03 200.812 489.504 200.938 490.008 200.938C490.644 200.938 491.166 200.8 491.574 200.524C491.994 200.236 492.294 199.852 492.474 199.372H493.968C493.824 199.912 493.572 200.398 493.212 200.83C492.852 201.262 492.402 201.604 491.862 201.856C491.334 202.096 490.716 202.216 490.008 202.216ZM269.379 228.96V215.928H270.747L270.873 217.404C271.065 217.116 271.311 216.846 271.611 216.594C271.911 216.33 272.271 216.12 272.691 215.964C273.111 215.796 273.591 215.712 274.131 215.712C275.019 215.712 275.787 215.922 276.435 216.342C277.095 216.762 277.605 217.332 277.965 218.052C278.337 218.76 278.523 219.57 278.523 220.482C278.523 221.394 278.337 222.21 277.965 222.93C277.605 223.638 277.095 224.196 276.435 224.604C275.775 225.012 275.001 225.216 274.113 225.216C273.381 225.216 272.733 225.066 272.169 224.766C271.617 224.466 271.191 224.046 270.891 223.506V228.96H269.379ZM273.951 223.902C274.539 223.902 275.061 223.758 275.517 223.47C275.973 223.182 276.327 222.786 276.579 222.282C276.843 221.766 276.975 221.16 276.975 220.464C276.975 219.78 276.843 219.18 276.579 218.664C276.327 218.148 275.973 217.746 275.517 217.458C275.061 217.17 274.539 217.026 273.951 217.026C273.351 217.026 272.823 217.17 272.367 217.458C271.911 217.746 271.557 218.148 271.305 218.664C271.053 219.18 270.927 219.78 270.927 220.464C270.927 221.16 271.053 221.766 271.305 222.282C271.557 222.786 271.911 223.182 272.367 223.47C272.823 223.758 273.351 223.902 273.951 223.902ZM280.647 225V212.04H282.159V225H280.647ZM287.607 225.216C286.875 225.216 286.263 225.09 285.771 224.838C285.279 224.574 284.913 224.232 284.673 223.812C284.433 223.38 284.313 222.912 284.313 222.408C284.313 221.796 284.469 221.28 284.781 220.86C285.105 220.428 285.555 220.104 286.131 219.888C286.719 219.66 287.409 219.546 288.201 219.546H290.595C290.595 218.982 290.505 218.514 290.325 218.142C290.157 217.758 289.905 217.47 289.569 217.278C289.245 217.086 288.837 216.99 288.345 216.99C287.769 216.99 287.271 217.134 286.851 217.422C286.431 217.71 286.173 218.136 286.077 218.7H284.529C284.601 218.052 284.817 217.512 285.177 217.08C285.549 216.636 286.017 216.3 286.581 216.072C287.145 215.832 287.733 215.712 288.345 215.712C289.185 215.712 289.881 215.868 290.433 216.18C290.997 216.48 291.417 216.906 291.693 217.458C291.969 217.998 292.107 218.64 292.107 219.384V225H290.757L290.667 223.398C290.547 223.65 290.391 223.89 290.199 224.118C290.019 224.334 289.803 224.526 289.551 224.694C289.299 224.85 289.011 224.976 288.687 225.072C288.375 225.168 288.015 225.216 287.607 225.216ZM287.841 223.938C288.261 223.938 288.639 223.854 288.975 223.686C289.323 223.506 289.617 223.266 289.857 222.966C290.097 222.654 290.277 222.312 290.397 221.94C290.529 221.568 290.595 221.178 290.595 220.77V220.716H288.327C287.739 220.716 287.265 220.788 286.905 220.932C286.545 221.064 286.287 221.256 286.131 221.508C285.975 221.748 285.897 222.024 285.897 222.336C285.897 222.66 285.969 222.942 286.113 223.182C286.269 223.422 286.491 223.608 286.779 223.74C287.079 223.872 287.433 223.938 287.841 223.938ZM297.763 225C297.223 225 296.755 224.916 296.359 224.748C295.963 224.58 295.657 224.298 295.441 223.902C295.237 223.494 295.135 222.948 295.135 222.264V217.206H293.551V215.928H295.135L295.333 213.732H296.647V215.928H299.275V217.206H296.647V222.264C296.647 222.828 296.761 223.212 296.989 223.416C297.217 223.608 297.619 223.704 298.195 223.704H299.167V225H297.763ZM301.752 225V214.524C301.752 213.948 301.848 213.48 302.04 213.12C302.232 212.748 302.514 212.478 302.886 212.31C303.27 212.13 303.738 212.04 304.29 212.04H305.316V213.336H304.524C304.08 213.336 303.756 213.426 303.552 213.606C303.36 213.786 303.264 214.104 303.264 214.56V225H301.752ZM300.366 217.206V215.928H305.55V217.206H300.366ZM311.064 225.216C310.224 225.216 309.468 225.024 308.796 224.64C308.124 224.244 307.596 223.692 307.212 222.984C306.828 222.264 306.636 221.43 306.636 220.482C306.636 219.51 306.828 218.67 307.212 217.962C307.608 217.242 308.142 216.69 308.814 216.306C309.498 215.91 310.26 215.712 311.1 215.712C311.964 215.712 312.726 215.91 313.386 216.306C314.058 216.69 314.586 217.242 314.97 217.962C315.366 218.67 315.564 219.504 315.564 220.464C315.564 221.424 315.366 222.264 314.97 222.984C314.574 223.692 314.04 224.244 313.368 224.64C312.696 225.024 311.928 225.216 311.064 225.216ZM311.082 223.92C311.598 223.92 312.078 223.794 312.522 223.542C312.966 223.278 313.326 222.888 313.602 222.372C313.878 221.856 314.016 221.22 314.016 220.464C314.016 219.696 313.878 219.06 313.602 218.556C313.338 218.04 312.984 217.656 312.54 217.404C312.108 217.14 311.628 217.008 311.1 217.008C310.596 217.008 310.116 217.14 309.66 217.404C309.216 217.656 308.856 218.04 308.58 218.556C308.316 219.06 308.184 219.696 308.184 220.464C308.184 221.22 308.316 221.856 308.58 222.372C308.856 222.888 309.21 223.278 309.642 223.542C310.086 223.794 310.566 223.92 311.082 223.92ZM317.684 225V215.928H319.052L319.16 217.656C319.364 217.248 319.622 216.9 319.934 216.612C320.258 216.324 320.642 216.102 321.086 215.946C321.542 215.79 322.058 215.712 322.634 215.712V217.296H322.076C321.692 217.296 321.326 217.35 320.978 217.458C320.63 217.554 320.318 217.716 320.042 217.944C319.778 218.172 319.568 218.484 319.412 218.88C319.268 219.264 319.196 219.744 319.196 220.32V225H317.684ZM324.346 225V215.928H325.714L325.804 217.224C326.092 216.756 326.476 216.39 326.956 216.126C327.448 215.85 327.982 215.712 328.558 215.712C329.026 215.712 329.446 215.778 329.818 215.91C330.202 216.03 330.538 216.222 330.826 216.486C331.114 216.738 331.348 217.062 331.528 217.458C331.84 216.906 332.266 216.48 332.806 216.18C333.358 215.868 333.946 215.712 334.57 215.712C335.266 215.712 335.872 215.856 336.388 216.144C336.916 216.42 337.318 216.846 337.594 217.422C337.882 217.986 338.026 218.706 338.026 219.582V225H336.532V219.744C336.532 218.832 336.346 218.148 335.974 217.692C335.602 217.236 335.08 217.008 334.408 217.008C333.94 217.008 333.52 217.134 333.148 217.386C332.776 217.626 332.482 217.98 332.266 218.448C332.05 218.916 331.942 219.492 331.942 220.176V225H330.43V219.744C330.43 218.832 330.244 218.148 329.872 217.692C329.5 217.236 328.972 217.008 328.288 217.008C327.832 217.008 327.418 217.134 327.046 217.386C326.686 217.626 326.398 217.98 326.182 218.448C325.966 218.916 325.858 219.492 325.858 220.176V225H324.346ZM348.722 225C348.182 225 347.714 224.916 347.318 224.748C346.922 224.58 346.616 224.298 346.4 223.902C346.196 223.494 346.094 222.948 346.094 222.264V217.206H344.51V215.928H346.094L346.292 213.732H347.606V215.928H350.234V217.206H347.606V222.264C347.606 222.828 347.72 223.212 347.948 223.416C348.176 223.608 348.578 223.704 349.154 223.704H350.126V225H348.722ZM352.207 225V212.04H353.719V217.458C354.019 216.918 354.439 216.492 354.979 216.18C355.531 215.868 356.131 215.712 356.779 215.712C357.475 215.712 358.081 215.856 358.597 216.144C359.113 216.42 359.509 216.846 359.785 217.422C360.061 217.998 360.199 218.724 360.199 219.6V225H358.705V219.762C358.705 218.85 358.513 218.166 358.129 217.71C357.745 217.242 357.187 217.008 356.455 217.008C355.939 217.008 355.471 217.134 355.051 217.386C354.643 217.638 354.319 217.998 354.079 218.466C353.839 218.934 353.719 219.51 353.719 220.194V225H352.207ZM362.561 225V215.928H363.929L364.037 217.656C364.241 217.248 364.499 216.9 364.811 216.612C365.135 216.324 365.519 216.102 365.963 215.946C366.419 215.79 366.935 215.712 367.511 215.712V217.296H366.953C366.569 217.296 366.203 217.35 365.855 217.458C365.507 217.554 365.195 217.716 364.919 217.944C364.655 218.172 364.445 218.484 364.289 218.88C364.145 219.264 364.073 219.744 364.073 220.32V225H362.561ZM372.939 225.216C372.099 225.216 371.343 225.024 370.671 224.64C369.999 224.244 369.471 223.692 369.087 222.984C368.703 222.264 368.511 221.43 368.511 220.482C368.511 219.51 368.703 218.67 369.087 217.962C369.483 217.242 370.017 216.69 370.689 216.306C371.373 215.91 372.135 215.712 372.975 215.712C373.839 215.712 374.601 215.91 375.261 216.306C375.933 216.69 376.461 217.242 376.845 217.962C377.241 218.67 377.439 219.504 377.439 220.464C377.439 221.424 377.241 222.264 376.845 222.984C376.449 223.692 375.915 224.244 375.243 224.64C374.571 225.024 373.803 225.216 372.939 225.216ZM372.957 223.92C373.473 223.92 373.953 223.794 374.397 223.542C374.841 223.278 375.201 222.888 375.477 222.372C375.753 221.856 375.891 221.22 375.891 220.464C375.891 219.696 375.753 219.06 375.477 218.556C375.213 218.04 374.859 217.656 374.415 217.404C373.983 217.14 373.503 217.008 372.975 217.008C372.471 217.008 371.991 217.14 371.535 217.404C371.091 217.656 370.731 218.04 370.455 218.556C370.191 219.06 370.059 219.696 370.059 220.464C370.059 221.22 370.191 221.856 370.455 222.372C370.731 222.888 371.085 223.278 371.517 223.542C371.961 223.794 372.441 223.92 372.957 223.92ZM382.853 225.216C382.157 225.216 381.545 225.078 381.017 224.802C380.501 224.526 380.099 224.1 379.811 223.524C379.535 222.948 379.397 222.228 379.397 221.364V215.928H380.909V221.202C380.909 222.102 381.107 222.78 381.503 223.236C381.899 223.692 382.457 223.92 383.177 223.92C383.681 223.92 384.137 223.8 384.545 223.56C384.953 223.308 385.271 222.954 385.499 222.498C385.739 222.03 385.859 221.46 385.859 220.788V215.928H387.371V225H386.003L385.913 223.416C385.637 223.98 385.229 224.424 384.689 224.748C384.149 225.06 383.537 225.216 382.853 225.216ZM393.441 229.176C392.625 229.176 391.905 229.068 391.281 228.852C390.657 228.648 390.165 228.33 389.805 227.898C389.457 227.466 389.283 226.932 389.283 226.296C389.283 226.032 389.337 225.744 389.445 225.432C389.565 225.12 389.763 224.814 390.039 224.514C390.327 224.214 390.729 223.944 391.245 223.704L392.289 224.316C391.665 224.58 391.251 224.88 391.047 225.216C390.855 225.552 390.759 225.864 390.759 226.152C390.759 226.548 390.873 226.878 391.101 227.142C391.341 227.406 391.659 227.604 392.055 227.736C392.463 227.868 392.925 227.934 393.441 227.934C393.945 227.934 394.383 227.856 394.755 227.7C395.127 227.556 395.415 227.352 395.619 227.088C395.823 226.824 395.925 226.518 395.925 226.17C395.925 225.762 395.769 225.414 395.457 225.126C395.145 224.85 394.557 224.688 393.693 224.64C392.985 224.592 392.391 224.526 391.911 224.442C391.443 224.358 391.047 224.262 390.723 224.154C390.411 224.034 390.147 223.902 389.931 223.758C389.727 223.614 389.541 223.464 389.373 223.308V222.894L391.137 221.148L392.433 221.616L390.633 223.254L390.867 222.624C390.999 222.72 391.125 222.81 391.245 222.894C391.365 222.978 391.527 223.05 391.731 223.11C391.947 223.17 392.235 223.224 392.595 223.272C392.955 223.32 393.435 223.368 394.035 223.416C394.851 223.476 395.505 223.62 395.997 223.848C396.501 224.076 396.861 224.382 397.077 224.766C397.305 225.15 397.419 225.6 397.419 226.116C397.419 226.62 397.275 227.106 396.987 227.574C396.711 228.042 396.279 228.426 395.691 228.726C395.103 229.026 394.353 229.176 393.441 229.176ZM393.423 222.174C392.667 222.174 392.019 222.03 391.479 221.742C390.951 221.454 390.549 221.07 390.273 220.59C389.997 220.11 389.859 219.57 389.859 218.97C389.859 218.382 389.997 217.848 390.273 217.368C390.561 216.888 390.969 216.504 391.497 216.216C392.025 215.916 392.667 215.766 393.423 215.766C394.179 215.766 394.821 215.916 395.349 216.216C395.877 216.504 396.279 216.888 396.555 217.368C396.831 217.848 396.969 218.382 396.969 218.97C396.969 219.57 396.831 220.11 396.555 220.59C396.279 221.07 395.877 221.454 395.349 221.742C394.821 222.03 394.179 222.174 393.423 222.174ZM393.423 220.932C394.059 220.932 394.563 220.764 394.935 220.428C395.319 220.092 395.511 219.606 395.511 218.97C395.511 218.346 395.319 217.866 394.935 217.53C394.563 217.194 394.059 217.026 393.423 217.026C392.787 217.026 392.271 217.194 391.875 217.53C391.491 217.866 391.299 218.346 391.299 218.97C391.299 219.606 391.491 220.092 391.875 220.428C392.259 220.764 392.775 220.932 393.423 220.932ZM394.881 217.26L394.431 215.982H398.139V217.116L394.881 217.26ZM399.914 225V212.04H401.426V217.458C401.726 216.918 402.146 216.492 402.686 216.18C403.238 215.868 403.838 215.712 404.486 215.712C405.182 215.712 405.788 215.856 406.304 216.144C406.82 216.42 407.216 216.846 407.492 217.422C407.768 217.998 407.906 218.724 407.906 219.6V225H406.412V219.762C406.412 218.85 406.22 218.166 405.836 217.71C405.452 217.242 404.894 217.008 404.162 217.008C403.646 217.008 403.178 217.134 402.758 217.386C402.35 217.638 402.026 217.998 401.786 218.466C401.546 218.934 401.426 219.51 401.426 220.194V225H399.914ZM415.553 225V214.524C415.553 213.948 415.649 213.48 415.841 213.12C416.033 212.748 416.315 212.478 416.687 212.31C417.071 212.13 417.539 212.04 418.091 212.04H419.117V213.336H418.325C417.881 213.336 417.557 213.426 417.353 213.606C417.161 213.786 417.065 214.104 417.065 214.56V225H415.553ZM414.167 217.206V215.928H419.351V217.206H414.167ZM424.793 225.216C423.941 225.216 423.185 225.018 422.525 224.622C421.877 224.226 421.367 223.674 420.995 222.966C420.623 222.246 420.437 221.412 420.437 220.464C420.437 219.504 420.617 218.67 420.977 217.962C421.349 217.254 421.865 216.702 422.525 216.306C423.197 215.91 423.965 215.712 424.829 215.712C425.717 215.712 426.467 215.91 427.079 216.306C427.703 216.702 428.177 217.224 428.501 217.872C428.837 218.508 429.005 219.21 429.005 219.978C429.005 220.098 429.005 220.224 429.005 220.356C429.005 220.488 428.999 220.638 428.987 220.806H421.571V219.636H427.529C427.493 218.808 427.217 218.16 426.701 217.692C426.197 217.224 425.561 216.99 424.793 216.99C424.277 216.99 423.797 217.11 423.353 217.35C422.921 217.578 422.573 217.92 422.309 218.376C422.045 218.82 421.913 219.378 421.913 220.05V220.554C421.913 221.298 422.045 221.922 422.309 222.426C422.585 222.93 422.939 223.308 423.371 223.56C423.815 223.812 424.289 223.938 424.793 223.938C425.429 223.938 425.951 223.8 426.359 223.524C426.779 223.236 427.079 222.852 427.259 222.372H428.753C428.609 222.912 428.357 223.398 427.997 223.83C427.637 224.262 427.187 224.604 426.647 224.856C426.119 225.096 425.501 225.216 424.793 225.216ZM435.023 225.216C434.171 225.216 433.415 225.018 432.755 224.622C432.107 224.226 431.597 223.674 431.225 222.966C430.853 222.246 430.667 221.412 430.667 220.464C430.667 219.504 430.847 218.67 431.207 217.962C431.579 217.254 432.095 216.702 432.755 216.306C433.427 215.91 434.195 215.712 435.059 215.712C435.947 215.712 436.697 215.91 437.309 216.306C437.933 216.702 438.407 217.224 438.731 217.872C439.067 218.508 439.235 219.21 439.235 219.978C439.235 220.098 439.235 220.224 439.235 220.356C439.235 220.488 439.229 220.638 439.217 220.806H431.801V219.636H437.759C437.723 218.808 437.447 218.16 436.931 217.692C436.427 217.224 435.791 216.99 435.023 216.99C434.507 216.99 434.027 217.11 433.583 217.35C433.151 217.578 432.803 217.92 432.539 218.376C432.275 218.82 432.143 219.378 432.143 220.05V220.554C432.143 221.298 432.275 221.922 432.539 222.426C432.815 222.93 433.169 223.308 433.601 223.56C434.045 223.812 434.519 223.938 435.023 223.938C435.659 223.938 436.181 223.8 436.589 223.524C437.009 223.236 437.309 222.852 437.489 222.372H438.983C438.839 222.912 438.587 223.398 438.227 223.83C437.867 224.262 437.417 224.604 436.877 224.856C436.349 225.096 435.731 225.216 435.023 225.216ZM445.272 225.216C444.396 225.216 443.628 225.012 442.968 224.604C442.308 224.184 441.798 223.614 441.438 222.894C441.078 222.174 440.898 221.358 440.898 220.446C440.898 219.534 441.078 218.724 441.438 218.016C441.798 217.296 442.308 216.732 442.968 216.324C443.64 215.916 444.414 215.712 445.29 215.712C446.034 215.712 446.682 215.862 447.234 216.162C447.798 216.462 448.23 216.882 448.53 217.422V212.04H450.042V225H448.674L448.548 223.506C448.356 223.806 448.11 224.088 447.81 224.352C447.51 224.604 447.15 224.814 446.73 224.982C446.31 225.138 445.824 225.216 445.272 225.216ZM445.452 223.902C446.052 223.902 446.58 223.758 447.036 223.47C447.492 223.182 447.846 222.786 448.098 222.282C448.35 221.766 448.476 221.16 448.476 220.464C448.476 219.78 448.35 219.18 448.098 218.664C447.846 218.148 447.492 217.746 447.036 217.458C446.58 217.17 446.052 217.026 445.452 217.026C444.864 217.026 444.342 217.17 443.886 217.458C443.43 217.746 443.076 218.148 442.824 218.664C442.572 219.18 442.446 219.78 442.446 220.464C442.446 221.16 442.572 221.766 442.824 222.282C443.076 222.786 443.43 223.182 443.886 223.47C444.342 223.758 444.864 223.902 445.452 223.902ZM457.313 225.216C456.797 225.216 456.329 225.144 455.909 225C455.501 224.844 455.141 224.64 454.829 224.388C454.517 224.136 454.259 223.842 454.055 223.506L453.929 225H452.561V212.04H454.073V217.422C454.361 216.954 454.775 216.552 455.315 216.216C455.855 215.88 456.521 215.712 457.313 215.712C458.189 215.712 458.957 215.922 459.617 216.342C460.277 216.75 460.787 217.314 461.147 218.034C461.519 218.742 461.705 219.552 461.705 220.464C461.705 221.376 461.519 222.192 461.147 222.912C460.787 223.632 460.277 224.196 459.617 224.604C458.957 225.012 458.189 225.216 457.313 225.216ZM457.133 223.902C457.721 223.902 458.243 223.758 458.699 223.47C459.155 223.182 459.509 222.786 459.761 222.282C460.025 221.766 460.157 221.16 460.157 220.464C460.157 219.78 460.025 219.18 459.761 218.664C459.509 218.148 459.155 217.746 458.699 217.458C458.243 217.17 457.721 217.026 457.133 217.026C456.533 217.026 456.005 217.17 455.549 217.458C455.093 217.746 454.739 218.148 454.487 218.664C454.235 219.18 454.109 219.78 454.109 220.464C454.109 221.16 454.235 221.766 454.487 222.282C454.739 222.786 455.093 223.182 455.549 223.47C456.005 223.758 456.533 223.902 457.133 223.902ZM466.78 225.216C466.048 225.216 465.436 225.09 464.944 224.838C464.452 224.574 464.086 224.232 463.846 223.812C463.606 223.38 463.486 222.912 463.486 222.408C463.486 221.796 463.642 221.28 463.954 220.86C464.278 220.428 464.728 220.104 465.304 219.888C465.892 219.66 466.582 219.546 467.374 219.546H469.768C469.768 218.982 469.678 218.514 469.498 218.142C469.33 217.758 469.078 217.47 468.742 217.278C468.418 217.086 468.01 216.99 467.518 216.99C466.942 216.99 466.444 217.134 466.024 217.422C465.604 217.71 465.346 218.136 465.25 218.7H463.702C463.774 218.052 463.99 217.512 464.35 217.08C464.722 216.636 465.19 216.3 465.754 216.072C466.318 215.832 466.906 215.712 467.518 215.712C468.358 215.712 469.054 215.868 469.606 216.18C470.17 216.48 470.59 216.906 470.866 217.458C471.142 217.998 471.28 218.64 471.28 219.384V225H469.93L469.84 223.398C469.72 223.65 469.564 223.89 469.372 224.118C469.192 224.334 468.976 224.526 468.724 224.694C468.472 224.85 468.184 224.976 467.86 225.072C467.548 225.168 467.188 225.216 466.78 225.216ZM467.014 223.938C467.434 223.938 467.812 223.854 468.148 223.686C468.496 223.506 468.79 223.266 469.03 222.966C469.27 222.654 469.45 222.312 469.57 221.94C469.702 221.568 469.768 221.178 469.768 220.77V220.716H467.5C466.912 220.716 466.438 220.788 466.078 220.932C465.718 221.064 465.46 221.256 465.304 221.508C465.148 221.748 465.07 222.024 465.07 222.336C465.07 222.66 465.142 222.942 465.286 223.182C465.442 223.422 465.664 223.608 465.952 223.74C466.252 223.872 466.606 223.938 467.014 223.938ZM477.705 225.216C476.853 225.216 476.085 225.018 475.401 224.622C474.729 224.226 474.201 223.674 473.817 222.966C473.433 222.246 473.241 221.418 473.241 220.482C473.241 219.522 473.433 218.688 473.817 217.98C474.201 217.272 474.729 216.72 475.401 216.324C476.085 215.916 476.853 215.712 477.705 215.712C478.785 215.712 479.685 215.994 480.405 216.558C481.125 217.11 481.581 217.854 481.773 218.79H480.225C480.105 218.226 479.811 217.788 479.343 217.476C478.875 217.164 478.323 217.008 477.687 217.008C477.171 217.008 476.691 217.14 476.247 217.404C475.803 217.656 475.449 218.04 475.185 218.556C474.921 219.072 474.789 219.708 474.789 220.464C474.789 221.028 474.867 221.532 475.023 221.976C475.179 222.408 475.389 222.768 475.653 223.056C475.917 223.344 476.223 223.566 476.571 223.722C476.931 223.866 477.303 223.938 477.687 223.938C478.119 223.938 478.509 223.872 478.857 223.74C479.205 223.596 479.499 223.386 479.739 223.11C479.979 222.834 480.141 222.51 480.225 222.138H481.773C481.581 223.05 481.119 223.794 480.387 224.37C479.667 224.934 478.773 225.216 477.705 225.216ZM489.5 225L485.18 220.032L489.122 215.928H490.976L486.458 220.572L486.476 219.492L491.426 225H489.5ZM483.92 225V212.04H485.432V225H483.92ZM491.802 227.214L492.846 223.236H494.412L492.846 227.214H491.802ZM227.777 248.216C226.925 248.216 226.169 248.018 225.509 247.622C224.861 247.226 224.351 246.674 223.979 245.966C223.607 245.246 223.421 244.412 223.421 243.464C223.421 242.504 223.601 241.67 223.961 240.962C224.333 240.254 224.849 239.702 225.509 239.306C226.181 238.91 226.949 238.712 227.813 238.712C228.701 238.712 229.451 238.91 230.063 239.306C230.687 239.702 231.161 240.224 231.485 240.872C231.821 241.508 231.989 242.21 231.989 242.978C231.989 243.098 231.989 243.224 231.989 243.356C231.989 243.488 231.983 243.638 231.971 243.806H224.555V242.636H230.513C230.477 241.808 230.201 241.16 229.685 240.692C229.181 240.224 228.545 239.99 227.777 239.99C227.261 239.99 226.781 240.11 226.337 240.35C225.905 240.578 225.557 240.92 225.293 241.376C225.029 241.82 224.897 242.378 224.897 243.05V243.554C224.897 244.298 225.029 244.922 225.293 245.426C225.569 245.93 225.923 246.308 226.355 246.56C226.799 246.812 227.273 246.938 227.777 246.938C228.413 246.938 228.935 246.8 229.343 246.524C229.763 246.236 230.063 245.852 230.243 245.372H231.737C231.593 245.912 231.341 246.398 230.981 246.83C230.621 247.262 230.171 247.604 229.631 247.856C229.103 248.096 228.485 248.216 227.777 248.216ZM236.288 248L232.85 238.928H234.434L237.17 246.542L239.924 238.928H241.472L238.034 248H236.288ZM246.691 248.216C245.839 248.216 245.083 248.018 244.423 247.622C243.775 247.226 243.265 246.674 242.893 245.966C242.521 245.246 242.335 244.412 242.335 243.464C242.335 242.504 242.515 241.67 242.875 240.962C243.247 240.254 243.763 239.702 244.423 239.306C245.095 238.91 245.863 238.712 246.727 238.712C247.615 238.712 248.365 238.91 248.977 239.306C249.601 239.702 250.075 240.224 250.399 240.872C250.735 241.508 250.903 242.21 250.903 242.978C250.903 243.098 250.903 243.224 250.903 243.356C250.903 243.488 250.897 243.638 250.885 243.806H243.469V242.636H249.427C249.391 241.808 249.115 241.16 248.599 240.692C248.095 240.224 247.459 239.99 246.691 239.99C246.175 239.99 245.695 240.11 245.251 240.35C244.819 240.578 244.471 240.92 244.207 241.376C243.943 241.82 243.811 242.378 243.811 243.05V243.554C243.811 244.298 243.943 244.922 244.207 245.426C244.483 245.93 244.837 246.308 245.269 246.56C245.713 246.812 246.187 246.938 246.691 246.938C247.327 246.938 247.849 246.8 248.257 246.524C248.677 246.236 248.977 245.852 249.157 245.372H250.651C250.507 245.912 250.255 246.398 249.895 246.83C249.535 247.262 249.085 247.604 248.545 247.856C248.017 248.096 247.399 248.216 246.691 248.216ZM252.944 248V238.928H254.312L254.384 240.512C254.672 239.948 255.08 239.51 255.608 239.198C256.148 238.874 256.76 238.712 257.444 238.712C258.152 238.712 258.764 238.856 259.28 239.144C259.796 239.42 260.198 239.846 260.486 240.422C260.774 240.986 260.918 241.706 260.918 242.582V248H259.406V242.744C259.406 241.832 259.202 241.148 258.794 240.692C258.398 240.236 257.834 240.008 257.102 240.008C256.598 240.008 256.148 240.134 255.752 240.386C255.356 240.626 255.038 240.98 254.798 241.448C254.57 241.904 254.456 242.474 254.456 243.158V248H252.944ZM266.844 248C266.304 248 265.836 247.916 265.44 247.748C265.044 247.58 264.738 247.298 264.522 246.902C264.318 246.494 264.216 245.948 264.216 245.264V240.206H262.632V238.928H264.216L264.414 236.732H265.728V238.928H268.356V240.206H265.728V245.264C265.728 245.828 265.842 246.212 266.07 246.416C266.298 246.608 266.7 246.704 267.276 246.704H268.248V248H266.844ZM273.748 248.216C272.992 248.216 272.332 248.09 271.768 247.838C271.216 247.586 270.772 247.238 270.436 246.794C270.112 246.338 269.914 245.804 269.842 245.192H271.39C271.45 245.504 271.576 245.792 271.768 246.056C271.96 246.32 272.218 246.536 272.542 246.704C272.878 246.86 273.286 246.938 273.766 246.938C274.186 246.938 274.534 246.878 274.81 246.758C275.086 246.626 275.29 246.452 275.422 246.236C275.566 246.02 275.638 245.786 275.638 245.534C275.638 245.162 275.548 244.88 275.368 244.688C275.2 244.496 274.948 244.346 274.612 244.238C274.276 244.118 273.868 244.016 273.388 243.932C272.992 243.86 272.602 243.764 272.218 243.644C271.834 243.524 271.492 243.368 271.192 243.176C270.892 242.972 270.652 242.726 270.472 242.438C270.304 242.15 270.22 241.796 270.22 241.376C270.22 240.86 270.352 240.404 270.616 240.008C270.88 239.6 271.258 239.282 271.75 239.054C272.254 238.826 272.836 238.712 273.496 238.712C274.468 238.712 275.254 238.946 275.854 239.414C276.454 239.882 276.808 240.56 276.916 241.448H275.422C275.362 240.992 275.164 240.638 274.828 240.386C274.504 240.122 274.054 239.99 273.478 239.99C272.914 239.99 272.482 240.104 272.182 240.332C271.894 240.56 271.75 240.86 271.75 241.232C271.75 241.472 271.828 241.688 271.984 241.88C272.152 242.06 272.392 242.216 272.704 242.348C273.028 242.48 273.424 242.588 273.892 242.672C274.492 242.78 275.038 242.924 275.53 243.104C276.022 243.284 276.418 243.554 276.718 243.914C277.03 244.262 277.186 244.76 277.186 245.408C277.186 245.972 277.042 246.464 276.754 246.884C276.478 247.304 276.082 247.634 275.566 247.874C275.05 248.102 274.444 248.216 273.748 248.216ZM278.176 250.214L279.22 246.236H280.786L279.22 250.214H278.176ZM290.366 248.216C289.634 248.216 289.022 248.09 288.53 247.838C288.038 247.574 287.672 247.232 287.432 246.812C287.192 246.38 287.072 245.912 287.072 245.408C287.072 244.796 287.228 244.28 287.54 243.86C287.864 243.428 288.314 243.104 288.89 242.888C289.478 242.66 290.168 242.546 290.96 242.546H293.354C293.354 241.982 293.264 241.514 293.084 241.142C292.916 240.758 292.664 240.47 292.328 240.278C292.004 240.086 291.596 239.99 291.104 239.99C290.528 239.99 290.03 240.134 289.61 240.422C289.19 240.71 288.932 241.136 288.836 241.7H287.288C287.36 241.052 287.576 240.512 287.936 240.08C288.308 239.636 288.776 239.3 289.34 239.072C289.904 238.832 290.492 238.712 291.104 238.712C291.944 238.712 292.64 238.868 293.192 239.18C293.756 239.48 294.176 239.906 294.452 240.458C294.728 240.998 294.866 241.64 294.866 242.384V248H293.516L293.426 246.398C293.306 246.65 293.15 246.89 292.958 247.118C292.778 247.334 292.562 247.526 292.31 247.694C292.058 247.85 291.77 247.976 291.446 248.072C291.134 248.168 290.774 248.216 290.366 248.216ZM290.6 246.938C291.02 246.938 291.398 246.854 291.734 246.686C292.082 246.506 292.376 246.266 292.616 245.966C292.856 245.654 293.036 245.312 293.156 244.94C293.288 244.568 293.354 244.178 293.354 243.77V243.716H291.086C290.498 243.716 290.024 243.788 289.664 243.932C289.304 244.064 289.046 244.256 288.89 244.508C288.734 244.748 288.656 245.024 288.656 245.336C288.656 245.66 288.728 245.942 288.872 246.182C289.028 246.422 289.25 246.608 289.538 246.74C289.838 246.872 290.192 246.938 290.6 246.938ZM297.205 248V238.928H298.573L298.645 240.512C298.933 239.948 299.341 239.51 299.869 239.198C300.409 238.874 301.021 238.712 301.705 238.712C302.413 238.712 303.025 238.856 303.541 239.144C304.057 239.42 304.459 239.846 304.747 240.422C305.035 240.986 305.179 241.706 305.179 242.582V248H303.667V242.744C303.667 241.832 303.463 241.148 303.055 240.692C302.659 240.236 302.095 240.008 301.363 240.008C300.859 240.008 300.409 240.134 300.013 240.386C299.617 240.626 299.299 240.98 299.059 241.448C298.831 241.904 298.717 242.474 298.717 243.158V248H297.205ZM311.537 248.216C310.661 248.216 309.893 248.012 309.233 247.604C308.573 247.184 308.063 246.614 307.703 245.894C307.343 245.174 307.163 244.358 307.163 243.446C307.163 242.534 307.343 241.724 307.703 241.016C308.063 240.296 308.573 239.732 309.233 239.324C309.905 238.916 310.679 238.712 311.555 238.712C312.299 238.712 312.947 238.862 313.499 239.162C314.063 239.462 314.495 239.882 314.795 240.422V235.04H316.307V248H314.939L314.813 246.506C314.621 246.806 314.375 247.088 314.075 247.352C313.775 247.604 313.415 247.814 312.995 247.982C312.575 248.138 312.089 248.216 311.537 248.216ZM311.717 246.902C312.317 246.902 312.845 246.758 313.301 246.47C313.757 246.182 314.111 245.786 314.363 245.282C314.615 244.766 314.741 244.16 314.741 243.464C314.741 242.78 314.615 242.18 314.363 241.664C314.111 241.148 313.757 240.746 313.301 240.458C312.845 240.17 312.317 240.026 311.717 240.026C311.129 240.026 310.607 240.17 310.151 240.458C309.695 240.746 309.341 241.148 309.089 241.664C308.837 242.18 308.711 242.78 308.711 243.464C308.711 244.16 308.837 244.766 309.089 245.282C309.341 245.786 309.695 246.182 310.151 246.47C310.607 246.758 311.129 246.902 311.717 246.902ZM326.218 248L322.78 238.928H324.364L327.1 246.542L329.854 238.928H331.402L327.964 248H326.218ZM336.693 248.216C335.853 248.216 335.097 248.024 334.425 247.64C333.753 247.244 333.225 246.692 332.841 245.984C332.457 245.264 332.265 244.43 332.265 243.482C332.265 242.51 332.457 241.67 332.841 240.962C333.237 240.242 333.771 239.69 334.443 239.306C335.127 238.91 335.889 238.712 336.729 238.712C337.593 238.712 338.355 238.91 339.015 239.306C339.687 239.69 340.215 240.242 340.599 240.962C340.995 241.67 341.193 242.504 341.193 243.464C341.193 244.424 340.995 245.264 340.599 245.984C340.203 246.692 339.669 247.244 338.997 247.64C338.325 248.024 337.557 248.216 336.693 248.216ZM336.711 246.92C337.227 246.92 337.707 246.794 338.151 246.542C338.595 246.278 338.955 245.888 339.231 245.372C339.507 244.856 339.645 244.22 339.645 243.464C339.645 242.696 339.507 242.06 339.231 241.556C338.967 241.04 338.613 240.656 338.169 240.404C337.737 240.14 337.257 240.008 336.729 240.008C336.225 240.008 335.745 240.14 335.289 240.404C334.845 240.656 334.485 241.04 334.209 241.556C333.945 242.06 333.813 242.696 333.813 243.464C333.813 244.22 333.945 244.856 334.209 245.372C334.485 245.888 334.839 246.278 335.271 246.542C335.715 246.794 336.195 246.92 336.711 246.92ZM346.525 248C345.985 248 345.517 247.916 345.121 247.748C344.725 247.58 344.419 247.298 344.203 246.902C343.999 246.494 343.897 245.948 343.897 245.264V240.206H342.313V238.928H343.897L344.095 236.732H345.409V238.928H348.037V240.206H345.409V245.264C345.409 245.828 345.523 246.212 345.751 246.416C345.979 246.608 346.381 246.704 346.957 246.704H347.929V248H346.525ZM350.154 248V238.928H351.666V248H350.154ZM350.91 237.002C350.61 237.002 350.358 236.906 350.154 236.714C349.962 236.51 349.866 236.258 349.866 235.958C349.866 235.658 349.962 235.418 350.154 235.238C350.358 235.046 350.61 234.95 350.91 234.95C351.198 234.95 351.444 235.046 351.648 235.238C351.852 235.418 351.954 235.658 351.954 235.958C351.954 236.258 351.852 236.51 351.648 236.714C351.444 236.906 351.198 237.002 350.91 237.002ZM354.334 248V238.928H355.702L355.774 240.512C356.062 239.948 356.47 239.51 356.998 239.198C357.538 238.874 358.15 238.712 358.834 238.712C359.542 238.712 360.154 238.856 360.67 239.144C361.186 239.42 361.588 239.846 361.876 240.422C362.164 240.986 362.308 241.706 362.308 242.582V248H360.796V242.744C360.796 241.832 360.592 241.148 360.184 240.692C359.788 240.236 359.224 240.008 358.492 240.008C357.988 240.008 357.538 240.134 357.142 240.386C356.746 240.626 356.428 240.98 356.188 241.448C355.96 241.904 355.846 242.474 355.846 243.158V248H354.334ZM368.234 252.176C367.418 252.176 366.698 252.068 366.074 251.852C365.45 251.648 364.958 251.33 364.598 250.898C364.25 250.466 364.076 249.932 364.076 249.296C364.076 249.032 364.13 248.744 364.238 248.432C364.358 248.12 364.556 247.814 364.832 247.514C365.12 247.214 365.522 246.944 366.038 246.704L367.082 247.316C366.458 247.58 366.044 247.88 365.84 248.216C365.648 248.552 365.552 248.864 365.552 249.152C365.552 249.548 365.666 249.878 365.894 250.142C366.134 250.406 366.452 250.604 366.848 250.736C367.256 250.868 367.718 250.934 368.234 250.934C368.738 250.934 369.176 250.856 369.548 250.7C369.92 250.556 370.208 250.352 370.412 250.088C370.616 249.824 370.718 249.518 370.718 249.17C370.718 248.762 370.562 248.414 370.25 248.126C369.938 247.85 369.35 247.688 368.486 247.64C367.778 247.592 367.184 247.526 366.704 247.442C366.236 247.358 365.84 247.262 365.516 247.154C365.204 247.034 364.94 246.902 364.724 246.758C364.52 246.614 364.334 246.464 364.166 246.308V245.894L365.93 244.148L367.226 244.616L365.426 246.254L365.66 245.624C365.792 245.72 365.918 245.81 366.038 245.894C366.158 245.978 366.32 246.05 366.524 246.11C366.74 246.17 367.028 246.224 367.388 246.272C367.748 246.32 368.228 246.368 368.828 246.416C369.644 246.476 370.298 246.62 370.79 246.848C371.294 247.076 371.654 247.382 371.87 247.766C372.098 248.15 372.212 248.6 372.212 249.116C372.212 249.62 372.068 250.106 371.78 250.574C371.504 251.042 371.072 251.426 370.484 251.726C369.896 252.026 369.146 252.176 368.234 252.176ZM368.216 245.174C367.46 245.174 366.812 245.03 366.272 244.742C365.744 244.454 365.342 244.07 365.066 243.59C364.79 243.11 364.652 242.57 364.652 241.97C364.652 241.382 364.79 240.848 365.066 240.368C365.354 239.888 365.762 239.504 366.29 239.216C366.818 238.916 367.46 238.766 368.216 238.766C368.972 238.766 369.614 238.916 370.142 239.216C370.67 239.504 371.072 239.888 371.348 240.368C371.624 240.848 371.762 241.382 371.762 241.97C371.762 242.57 371.624 243.11 371.348 243.59C371.072 244.07 370.67 244.454 370.142 244.742C369.614 245.03 368.972 245.174 368.216 245.174ZM368.216 243.932C368.852 243.932 369.356 243.764 369.728 243.428C370.112 243.092 370.304 242.606 370.304 241.97C370.304 241.346 370.112 240.866 369.728 240.53C369.356 240.194 368.852 240.026 368.216 240.026C367.58 240.026 367.064 240.194 366.668 240.53C366.284 240.866 366.092 241.346 366.092 241.97C366.092 242.606 366.284 243.092 366.668 243.428C367.052 243.764 367.568 243.932 368.216 243.932ZM369.674 240.26L369.224 238.982H372.932V240.116L369.674 240.26ZM383.539 248.216C382.699 248.216 381.943 248.024 381.271 247.64C380.599 247.244 380.071 246.692 379.687 245.984C379.303 245.264 379.111 244.43 379.111 243.482C379.111 242.51 379.303 241.67 379.687 240.962C380.083 240.242 380.617 239.69 381.289 239.306C381.973 238.91 382.735 238.712 383.575 238.712C384.439 238.712 385.201 238.91 385.861 239.306C386.533 239.69 387.061 240.242 387.445 240.962C387.841 241.67 388.039 242.504 388.039 243.464C388.039 244.424 387.841 245.264 387.445 245.984C387.049 246.692 386.515 247.244 385.843 247.64C385.171 248.024 384.403 248.216 383.539 248.216ZM383.557 246.92C384.073 246.92 384.553 246.794 384.997 246.542C385.441 246.278 385.801 245.888 386.077 245.372C386.353 244.856 386.491 244.22 386.491 243.464C386.491 242.696 386.353 242.06 386.077 241.556C385.813 241.04 385.459 240.656 385.015 240.404C384.583 240.14 384.103 240.008 383.575 240.008C383.071 240.008 382.591 240.14 382.135 240.404C381.691 240.656 381.331 241.04 381.055 241.556C380.791 242.06 380.659 242.696 380.659 243.464C380.659 244.22 380.791 244.856 381.055 245.372C381.331 245.888 381.685 246.278 382.117 246.542C382.561 246.794 383.041 246.92 383.557 246.92ZM390.158 251.96V238.928H391.526L391.652 240.404C391.844 240.116 392.09 239.846 392.39 239.594C392.69 239.33 393.05 239.12 393.47 238.964C393.89 238.796 394.37 238.712 394.91 238.712C395.798 238.712 396.566 238.922 397.214 239.342C397.874 239.762 398.384 240.332 398.744 241.052C399.116 241.76 399.302 242.57 399.302 243.482C399.302 244.394 399.116 245.21 398.744 245.93C398.384 246.638 397.874 247.196 397.214 247.604C396.554 248.012 395.78 248.216 394.892 248.216C394.16 248.216 393.512 248.066 392.948 247.766C392.396 247.466 391.97 247.046 391.67 246.506V251.96H390.158ZM394.73 246.902C395.318 246.902 395.84 246.758 396.296 246.47C396.752 246.182 397.106 245.786 397.358 245.282C397.622 244.766 397.754 244.16 397.754 243.464C397.754 242.78 397.622 242.18 397.358 241.664C397.106 241.148 396.752 240.746 396.296 240.458C395.84 240.17 395.318 240.026 394.73 240.026C394.13 240.026 393.602 240.17 393.146 240.458C392.69 240.746 392.336 241.148 392.084 241.664C391.832 242.18 391.706 242.78 391.706 243.464C391.706 244.16 391.832 244.766 392.084 245.282C392.336 245.786 392.69 246.182 393.146 246.47C393.602 246.758 394.13 246.902 394.73 246.902ZM401.426 251.96V238.928H402.794L402.92 240.404C403.112 240.116 403.358 239.846 403.658 239.594C403.958 239.33 404.318 239.12 404.738 238.964C405.158 238.796 405.638 238.712 406.178 238.712C407.066 238.712 407.834 238.922 408.482 239.342C409.142 239.762 409.652 240.332 410.012 241.052C410.384 241.76 410.57 242.57 410.57 243.482C410.57 244.394 410.384 245.21 410.012 245.93C409.652 246.638 409.142 247.196 408.482 247.604C407.822 248.012 407.048 248.216 406.16 248.216C405.428 248.216 404.78 248.066 404.216 247.766C403.664 247.466 403.238 247.046 402.938 246.506V251.96H401.426ZM405.998 246.902C406.586 246.902 407.108 246.758 407.564 246.47C408.02 246.182 408.374 245.786 408.626 245.282C408.89 244.766 409.022 244.16 409.022 243.464C409.022 242.78 408.89 242.18 408.626 241.664C408.374 241.148 408.02 240.746 407.564 240.458C407.108 240.17 406.586 240.026 405.998 240.026C405.398 240.026 404.87 240.17 404.414 240.458C403.958 240.746 403.604 241.148 403.352 241.664C403.1 242.18 402.974 242.78 402.974 243.464C402.974 244.16 403.1 244.766 403.352 245.282C403.604 245.786 403.958 246.182 404.414 246.47C404.87 246.758 405.398 246.902 405.998 246.902ZM416.744 248.216C415.904 248.216 415.148 248.024 414.476 247.64C413.804 247.244 413.276 246.692 412.892 245.984C412.508 245.264 412.316 244.43 412.316 243.482C412.316 242.51 412.508 241.67 412.892 240.962C413.288 240.242 413.822 239.69 414.494 239.306C415.178 238.91 415.94 238.712 416.78 238.712C417.644 238.712 418.406 238.91 419.066 239.306C419.738 239.69 420.266 240.242 420.65 240.962C421.046 241.67 421.244 242.504 421.244 243.464C421.244 244.424 421.046 245.264 420.65 245.984C420.254 246.692 419.72 247.244 419.048 247.64C418.376 248.024 417.608 248.216 416.744 248.216ZM416.762 246.92C417.278 246.92 417.758 246.794 418.202 246.542C418.646 246.278 419.006 245.888 419.282 245.372C419.558 244.856 419.696 244.22 419.696 243.464C419.696 242.696 419.558 242.06 419.282 241.556C419.018 241.04 418.664 240.656 418.22 240.404C417.788 240.14 417.308 240.008 416.78 240.008C416.276 240.008 415.796 240.14 415.34 240.404C414.896 240.656 414.536 241.04 414.26 241.556C413.996 242.06 413.864 242.696 413.864 243.464C413.864 244.22 413.996 244.856 414.26 245.372C414.536 245.888 414.89 246.278 415.322 246.542C415.766 246.794 416.246 246.92 416.762 246.92ZM423.364 248V238.928H424.732L424.84 240.656C425.044 240.248 425.302 239.9 425.614 239.612C425.938 239.324 426.322 239.102 426.766 238.946C427.222 238.79 427.738 238.712 428.314 238.712V240.296H427.756C427.372 240.296 427.006 240.35 426.658 240.458C426.31 240.554 425.998 240.716 425.722 240.944C425.458 241.172 425.248 241.484 425.092 241.88C424.948 242.264 424.876 242.744 424.876 243.32V248H423.364ZM433.59 248C433.05 248 432.582 247.916 432.186 247.748C431.79 247.58 431.484 247.298 431.268 246.902C431.064 246.494 430.962 245.948 430.962 245.264V240.206H429.378V238.928H430.962L431.16 236.732H432.474V238.928H435.102V240.206H432.474V245.264C432.474 245.828 432.588 246.212 432.816 246.416C433.044 246.608 433.446 246.704 434.022 246.704H434.994V248H433.59ZM440.368 248.216C439.672 248.216 439.06 248.078 438.532 247.802C438.016 247.526 437.614 247.1 437.326 246.524C437.05 245.948 436.912 245.228 436.912 244.364V238.928H438.424V244.202C438.424 245.102 438.622 245.78 439.018 246.236C439.414 246.692 439.972 246.92 440.692 246.92C441.196 246.92 441.652 246.8 442.06 246.56C442.468 246.308 442.786 245.954 443.014 245.498C443.254 245.03 443.374 244.46 443.374 243.788V238.928H444.886V248H443.518L443.428 246.416C443.152 246.98 442.744 247.424 442.204 247.748C441.664 248.06 441.052 248.216 440.368 248.216ZM447.393 248V238.928H448.761L448.833 240.512C449.121 239.948 449.529 239.51 450.057 239.198C450.597 238.874 451.209 238.712 451.893 238.712C452.601 238.712 453.213 238.856 453.729 239.144C454.245 239.42 454.647 239.846 454.935 240.422C455.223 240.986 455.367 241.706 455.367 242.582V248H453.855V242.744C453.855 241.832 453.651 241.148 453.243 240.692C452.847 240.236 452.283 240.008 451.551 240.008C451.047 240.008 450.597 240.134 450.201 240.386C449.805 240.626 449.487 240.98 449.247 241.448C449.019 241.904 448.905 242.474 448.905 243.158V248H447.393ZM457.873 248V238.928H459.385V248H457.873ZM458.629 237.002C458.329 237.002 458.077 236.906 457.873 236.714C457.681 236.51 457.585 236.258 457.585 235.958C457.585 235.658 457.681 235.418 457.873 235.238C458.077 235.046 458.329 234.95 458.629 234.95C458.917 234.95 459.163 235.046 459.367 235.238C459.571 235.418 459.673 235.658 459.673 235.958C459.673 236.258 459.571 236.51 459.367 236.714C459.163 236.906 458.917 237.002 458.629 237.002ZM465.617 248C465.077 248 464.609 247.916 464.213 247.748C463.817 247.58 463.511 247.298 463.295 246.902C463.091 246.494 462.989 245.948 462.989 245.264V240.206H461.405V238.928H462.989L463.187 236.732H464.501V238.928H467.129V240.206H464.501V245.264C464.501 245.828 464.615 246.212 464.843 246.416C465.071 246.608 465.473 246.704 466.049 246.704H467.021V248H465.617ZM469.246 248V238.928H470.758V248H469.246ZM470.002 237.002C469.702 237.002 469.45 236.906 469.246 236.714C469.054 236.51 468.958 236.258 468.958 235.958C468.958 235.658 469.054 235.418 469.246 235.238C469.45 235.046 469.702 234.95 470.002 234.95C470.29 234.95 470.536 235.046 470.74 235.238C470.944 235.418 471.046 235.658 471.046 235.958C471.046 236.258 470.944 236.51 470.74 236.714C470.536 236.906 470.29 237.002 470.002 237.002ZM477.404 248.216C476.552 248.216 475.796 248.018 475.136 247.622C474.488 247.226 473.978 246.674 473.606 245.966C473.234 245.246 473.048 244.412 473.048 243.464C473.048 242.504 473.228 241.67 473.588 240.962C473.96 240.254 474.476 239.702 475.136 239.306C475.808 238.91 476.576 238.712 477.44 238.712C478.328 238.712 479.078 238.91 479.69 239.306C480.314 239.702 480.788 240.224 481.112 240.872C481.448 241.508 481.616 242.21 481.616 242.978C481.616 243.098 481.616 243.224 481.616 243.356C481.616 243.488 481.61 243.638 481.598 243.806H474.182V242.636H480.14C480.104 241.808 479.828 241.16 479.312 240.692C478.808 240.224 478.172 239.99 477.404 239.99C476.888 239.99 476.408 240.11 475.964 240.35C475.532 240.578 475.184 240.92 474.92 241.376C474.656 241.82 474.524 242.378 474.524 243.05V243.554C474.524 244.298 474.656 244.922 474.92 245.426C475.196 245.93 475.55 246.308 475.982 246.56C476.426 246.812 476.9 246.938 477.404 246.938C478.04 246.938 478.562 246.8 478.97 246.524C479.39 246.236 479.69 245.852 479.87 245.372H481.364C481.22 245.912 480.968 246.398 480.608 246.83C480.248 247.262 479.798 247.604 479.258 247.856C478.73 248.096 478.112 248.216 477.404 248.216ZM487.076 248.216C486.32 248.216 485.66 248.09 485.096 247.838C484.544 247.586 484.1 247.238 483.764 246.794C483.44 246.338 483.242 245.804 483.17 245.192H484.718C484.778 245.504 484.904 245.792 485.096 246.056C485.288 246.32 485.546 246.536 485.87 246.704C486.206 246.86 486.614 246.938 487.094 246.938C487.514 246.938 487.862 246.878 488.138 246.758C488.414 246.626 488.618 246.452 488.75 246.236C488.894 246.02 488.966 245.786 488.966 245.534C488.966 245.162 488.876 244.88 488.696 244.688C488.528 244.496 488.276 244.346 487.94 244.238C487.604 244.118 487.196 244.016 486.716 243.932C486.32 243.86 485.93 243.764 485.546 243.644C485.162 243.524 484.82 243.368 484.52 243.176C484.22 242.972 483.98 242.726 483.8 242.438C483.632 242.15 483.548 241.796 483.548 241.376C483.548 240.86 483.68 240.404 483.944 240.008C484.208 239.6 484.586 239.282 485.078 239.054C485.582 238.826 486.164 238.712 486.824 238.712C487.796 238.712 488.582 238.946 489.182 239.414C489.782 239.882 490.136 240.56 490.244 241.448H488.75C488.69 240.992 488.492 240.638 488.156 240.386C487.832 240.122 487.382 239.99 486.806 239.99C486.242 239.99 485.81 240.104 485.51 240.332C485.222 240.56 485.078 240.86 485.078 241.232C485.078 241.472 485.156 241.688 485.312 241.88C485.48 242.06 485.72 242.216 486.032 242.348C486.356 242.48 486.752 242.588 487.22 242.672C487.82 242.78 488.366 242.924 488.858 243.104C489.35 243.284 489.746 243.554 490.046 243.914C490.358 244.262 490.514 244.76 490.514 245.408C490.514 245.972 490.37 246.464 490.082 246.884C489.806 247.304 489.41 247.634 488.894 247.874C488.378 248.102 487.772 248.216 487.076 248.216ZM493.232 248.09C492.932 248.09 492.68 247.994 492.476 247.802C492.284 247.598 492.188 247.352 492.188 247.064C492.188 246.776 492.284 246.536 492.476 246.344C492.68 246.14 492.932 246.038 493.232 246.038C493.532 246.038 493.778 246.14 493.97 246.344C494.162 246.536 494.258 246.776 494.258 247.064C494.258 247.352 494.162 247.598 493.97 247.802C493.778 247.994 493.532 248.09 493.232 248.09Z" fill="white"/>
<mask id="path-3-outside-1_437_1039" maskUnits="userSpaceOnUse" x="20" y="61" width="117" height="213" fill="black">
<rect fill="white" x="20" y="61" width="117" height="213"/>
<path d="M134.901 249.469V272H44.2018V249.469H134.901ZM48.9377 63.0462V272H22.5314V63.0462H48.9377ZM122.703 152.885V175.416H44.2018V152.885H122.703ZM133.466 63.0462V85.7211H44.2018V63.0462H133.466Z"/>
</mask>
<path d="M134.901 249.469H136.901V247.469H134.901V249.469ZM134.901 272V274H136.901V272H134.901ZM44.2018 272H42.2018V274H44.2018V272ZM44.2018 249.469V247.469H42.2018V249.469H44.2018ZM48.9377 63.0462H50.9377V61.0462H48.9377V63.0462ZM48.9377 272V274H50.9377V272H48.9377ZM22.5314 272H20.5314V274H22.5314V272ZM22.5314 63.0462V61.0462H20.5314V63.0462H22.5314ZM122.703 152.885H124.703V150.885H122.703V152.885ZM122.703 175.416V177.416H124.703V175.416H122.703ZM44.2018 175.416H42.2018V177.416H44.2018V175.416ZM44.2018 152.885V150.885H42.2018V152.885H44.2018ZM133.466 63.0462H135.466V61.0462H133.466V63.0462ZM133.466 85.7211V87.7211H135.466V85.7211H133.466ZM44.2018 85.7211H42.2018V87.7211H44.2018V85.7211ZM44.2018 63.0462V61.0462H42.2018V63.0462H44.2018ZM132.901 249.469V272H136.901V249.469H132.901ZM134.901 270H44.2018V274H134.901V270ZM46.2018 272V249.469H42.2018V272H46.2018ZM44.2018 251.469H134.901V247.469H44.2018V251.469ZM46.9377 63.0462V272H50.9377V63.0462H46.9377ZM48.9377 270H22.5314V274H48.9377V270ZM24.5314 272V63.0462H20.5314V272H24.5314ZM22.5314 65.0462H48.9377V61.0462H22.5314V65.0462ZM120.703 152.885V175.416H124.703V152.885H120.703ZM122.703 173.416H44.2018V177.416H122.703V173.416ZM46.2018 175.416V152.885H42.2018V175.416H46.2018ZM44.2018 154.885H122.703V150.885H44.2018V154.885ZM131.466 63.0462V85.7211H135.466V63.0462H131.466ZM133.466 83.7211H44.2018V87.7211H133.466V83.7211ZM46.2018 85.7211V63.0462H42.2018V85.7211H46.2018ZM44.2018 65.0462H133.466V61.0462H44.2018V65.0462Z" fill="white" mask="url(#path-3-outside-1_437_1039)"/>
<path d="M73 273L515 273" stroke="white" stroke-width="2"/>
<line x1="514" y1="273" x2="514" y2="71" stroke="white" stroke-width="2"/>
<line y1="-1" x2="192" y2="-1" transform="matrix(-1 0 0 1 515 73)" stroke="white" stroke-width="2"/>
</svg>
