<svg width="536" height="344" viewBox="0 0 536 344" fill="none" xmlns="http://www.w3.org/2000/svg">
<path d="M29.192 111.288C27.512 111.288 26.064 110.928 24.848 110.208C23.648 109.472 22.72 108.456 22.064 107.16C21.424 105.848 21.104 104.336 21.104 102.624C21.104 100.912 21.424 99.4 22.064 98.088C22.72 96.776 23.648 95.752 24.848 95.016C26.064 94.28 27.512 93.912 29.192 93.912C31.224 93.912 32.888 94.416 34.184 95.424C35.48 96.432 36.288 97.856 36.608 99.696H33.08C32.872 98.8 32.432 98.104 31.76 97.608C31.104 97.096 30.24 96.84 29.168 96.84C28.176 96.84 27.32 97.08 26.6 97.56C25.896 98.024 25.352 98.688 24.968 99.552C24.584 100.4 24.392 101.424 24.392 102.624C24.392 103.808 24.584 104.832 24.968 105.696C25.352 106.56 25.896 107.224 26.6 107.688C27.32 108.152 28.176 108.384 29.168 108.384C30.24 108.384 31.104 108.152 31.76 107.688C32.416 107.208 32.848 106.544 33.056 105.696H36.608C36.288 107.44 35.48 108.808 34.184 109.8C32.888 110.792 31.224 111.288 29.192 111.288ZM42.0147 111V94.2H48.2787C49.6387 94.2 50.7587 94.432 51.6388 94.896C52.5188 95.36 53.1748 95.984 53.6068 96.768C54.0388 97.536 54.2548 98.392 54.2548 99.336C54.2548 100.232 54.0468 101.072 53.6308 101.856C53.2147 102.624 52.5587 103.248 51.6627 103.728C50.7827 104.192 49.6467 104.424 48.2548 104.424H45.2547V111H42.0147ZM50.7267 111L47.2707 103.608H50.7747L54.4227 111H50.7267ZM45.2547 102.072H48.0868C49.0627 102.072 49.7827 101.832 50.2468 101.352C50.7107 100.872 50.9427 100.24 50.9427 99.456C50.9427 98.672 50.7107 98.056 50.2468 97.608C49.7987 97.144 49.0787 96.912 48.0868 96.912H45.2547V102.072ZM59.7954 111V94.2H70.8354V96.816H63.0354V101.208H70.1154V103.728H63.0354V108.384H70.8354V111H59.7954ZM75.2996 111L81.4436 94.2H85.1156L91.2356 111H87.8036L83.2676 97.896L78.7076 111H75.2996ZM78.0116 107.184L78.8756 104.664H87.4196L88.2596 107.184H78.0116ZM98.2139 111V96.816H93.2939V94.2H106.326V96.816H101.43V111H98.2139ZM118.452 111.288C116.82 111.288 115.38 110.92 114.132 110.184C112.884 109.448 111.908 108.432 111.204 107.136C110.5 105.824 110.148 104.312 110.148 102.6C110.148 100.888 110.5 99.384 111.204 98.088C111.908 96.776 112.884 95.752 114.132 95.016C115.38 94.28 116.82 93.912 118.452 93.912C120.1 93.912 121.548 94.28 122.796 95.016C124.044 95.752 125.012 96.776 125.7 98.088C126.404 99.384 126.756 100.888 126.756 102.6C126.756 104.312 126.404 105.824 125.7 107.136C125.012 108.432 124.044 109.448 122.796 110.184C121.548 110.92 120.1 111.288 118.452 111.288ZM118.452 108.384C119.476 108.384 120.356 108.152 121.092 107.688C121.844 107.208 122.428 106.536 122.844 105.672C123.26 104.808 123.468 103.784 123.468 102.6C123.468 101.4 123.26 100.376 122.844 99.528C122.428 98.664 121.844 98 121.092 97.536C120.356 97.072 119.476 96.84 118.452 96.84C117.444 96.84 116.564 97.072 115.812 97.536C115.06 98 114.476 98.664 114.06 99.528C113.644 100.376 113.436 101.4 113.436 102.6C113.436 103.784 113.644 104.808 114.06 105.672C114.476 106.536 115.06 107.208 115.812 107.688C116.564 108.152 117.444 108.384 118.452 108.384ZM132.16 111V94.2H138.424C139.784 94.2 140.904 94.432 141.784 94.896C142.664 95.36 143.32 95.984 143.752 96.768C144.184 97.536 144.4 98.392 144.4 99.336C144.4 100.232 144.192 101.072 143.776 101.856C143.36 102.624 142.704 103.248 141.808 103.728C140.928 104.192 139.792 104.424 138.4 104.424H135.4V111H132.16ZM140.872 111L137.416 103.608H140.92L144.568 111H140.872ZM135.4 102.072H138.232C139.208 102.072 139.928 101.832 140.392 101.352C140.856 100.872 141.088 100.24 141.088 99.456C141.088 98.672 140.856 98.056 140.392 97.608C139.944 97.144 139.224 96.912 138.232 96.912H135.4V102.072ZM155.725 111.288C154.509 111.288 153.421 111.08 152.461 110.664C151.517 110.248 150.765 109.64 150.205 108.84C149.661 108.04 149.381 107.072 149.365 105.936H152.797C152.813 106.432 152.941 106.88 153.181 107.28C153.421 107.68 153.749 108 154.165 108.24C154.597 108.464 155.109 108.576 155.701 108.576C156.213 108.576 156.653 108.496 157.021 108.336C157.405 108.16 157.701 107.92 157.909 107.616C158.117 107.312 158.221 106.952 158.221 106.536C158.221 106.056 158.101 105.656 157.861 105.336C157.637 105.016 157.317 104.744 156.901 104.52C156.501 104.296 156.029 104.096 155.485 103.92C154.957 103.728 154.397 103.528 153.805 103.32C152.477 102.888 151.461 102.312 150.757 101.592C150.069 100.872 149.725 99.92 149.725 98.736C149.725 97.728 149.965 96.864 150.445 96.144C150.941 95.424 151.621 94.872 152.485 94.488C153.349 94.104 154.333 93.912 155.437 93.912C156.573 93.912 157.565 94.112 158.413 94.512C159.277 94.896 159.957 95.456 160.453 96.192C160.965 96.928 161.229 97.792 161.245 98.784H157.789C157.773 98.416 157.661 98.072 157.453 97.752C157.261 97.416 156.989 97.152 156.637 96.96C156.285 96.752 155.869 96.648 155.389 96.648C154.973 96.632 154.589 96.696 154.237 96.84C153.901 96.984 153.629 97.2 153.421 97.488C153.229 97.76 153.133 98.104 153.133 98.52C153.133 98.92 153.229 99.256 153.421 99.528C153.629 99.8 153.909 100.04 154.261 100.248C154.613 100.44 155.029 100.624 155.509 100.8C155.989 100.96 156.509 101.128 157.069 101.304C157.901 101.592 158.669 101.936 159.373 102.336C160.077 102.72 160.637 103.224 161.053 103.848C161.469 104.472 161.677 105.296 161.677 106.32C161.677 107.2 161.445 108.016 160.981 108.768C160.517 109.52 159.845 110.128 158.965 110.592C158.101 111.056 157.021 111.288 155.725 111.288ZM188.001 111L178.881 101.928C178.145 101.192 177.625 100.528 177.321 99.936C177.017 99.328 176.865 98.688 176.865 98.016C176.865 97.248 177.057 96.552 177.441 95.928C177.825 95.304 178.385 94.816 179.121 94.464C179.873 94.096 180.769 93.912 181.809 93.912C182.849 93.912 183.721 94.104 184.425 94.488C185.145 94.872 185.689 95.376 186.057 96C186.441 96.624 186.625 97.328 186.609 98.112H183.513C183.513 97.536 183.345 97.104 183.009 96.816C182.673 96.528 182.257 96.384 181.761 96.384C181.217 96.384 180.777 96.536 180.441 96.84C180.121 97.128 179.961 97.512 179.961 97.992C179.961 98.376 180.081 98.776 180.321 99.192C180.561 99.608 180.929 100.072 181.425 100.584L191.865 111H188.001ZM180.705 111.264C179.473 111.264 178.401 111.056 177.489 110.64C176.593 110.208 175.897 109.608 175.401 108.84C174.905 108.072 174.657 107.168 174.657 106.128C174.657 105.328 174.825 104.584 175.161 103.896C175.497 103.192 176.001 102.576 176.673 102.048C177.345 101.504 178.177 101.072 179.169 100.752L180.393 100.368L181.809 102.384L180.705 102.744C179.729 103.064 179.001 103.496 178.521 104.04C178.057 104.584 177.825 105.216 177.825 105.936C177.825 106.432 177.945 106.888 178.185 107.304C178.425 107.704 178.777 108.024 179.241 108.264C179.705 108.504 180.249 108.624 180.873 108.624C181.737 108.624 182.513 108.432 183.201 108.048C183.889 107.664 184.553 107.048 185.193 106.2C185.481 105.816 185.769 105.384 186.057 104.904C186.345 104.424 186.633 103.888 186.921 103.296L187.425 102.264H190.713L189.897 103.92C189.497 104.752 189.089 105.512 188.673 106.2C188.257 106.888 187.825 107.496 187.377 108.024C186.465 109.16 185.465 109.984 184.377 110.496C183.305 111.008 182.081 111.264 180.705 111.264ZM211.536 111.288C210.304 111.288 209.184 111.04 208.176 110.544C207.168 110.048 206.368 109.304 205.776 108.312C205.184 107.32 204.888 106.056 204.888 104.52V94.2H208.128V104.544C208.128 105.376 208.264 106.08 208.536 106.656C208.808 107.216 209.2 107.632 209.712 107.904C210.24 108.176 210.864 108.312 211.584 108.312C212.32 108.312 212.944 108.176 213.456 107.904C213.984 107.632 214.384 107.216 214.656 106.656C214.928 106.08 215.064 105.376 215.064 104.544V94.2H218.304V104.52C218.304 106.056 218 107.32 217.392 108.312C216.784 109.304 215.96 110.048 214.92 110.544C213.896 111.04 212.768 111.288 211.536 111.288ZM229.886 111.288C228.67 111.288 227.582 111.08 226.622 110.664C225.678 110.248 224.926 109.64 224.366 108.84C223.822 108.04 223.542 107.072 223.526 105.936H226.958C226.974 106.432 227.102 106.88 227.342 107.28C227.582 107.68 227.91 108 228.326 108.24C228.758 108.464 229.27 108.576 229.862 108.576C230.374 108.576 230.814 108.496 231.182 108.336C231.566 108.16 231.862 107.92 232.07 107.616C232.278 107.312 232.382 106.952 232.382 106.536C232.382 106.056 232.262 105.656 232.022 105.336C231.798 105.016 231.478 104.744 231.062 104.52C230.662 104.296 230.19 104.096 229.646 103.92C229.118 103.728 228.558 103.528 227.966 103.32C226.638 102.888 225.622 102.312 224.918 101.592C224.23 100.872 223.886 99.92 223.886 98.736C223.886 97.728 224.126 96.864 224.606 96.144C225.102 95.424 225.782 94.872 226.646 94.488C227.51 94.104 228.494 93.912 229.598 93.912C230.734 93.912 231.726 94.112 232.574 94.512C233.438 94.896 234.118 95.456 234.614 96.192C235.126 96.928 235.39 97.792 235.406 98.784H231.95C231.934 98.416 231.822 98.072 231.614 97.752C231.422 97.416 231.15 97.152 230.798 96.96C230.446 96.752 230.03 96.648 229.55 96.648C229.134 96.632 228.75 96.696 228.398 96.84C228.062 96.984 227.79 97.2 227.582 97.488C227.39 97.76 227.294 98.104 227.294 98.52C227.294 98.92 227.39 99.256 227.582 99.528C227.79 99.8 228.07 100.04 228.422 100.248C228.774 100.44 229.19 100.624 229.67 100.8C230.15 100.96 230.67 101.128 231.23 101.304C232.062 101.592 232.83 101.936 233.534 102.336C234.238 102.72 234.798 103.224 235.214 103.848C235.63 104.472 235.838 105.296 235.838 106.32C235.838 107.2 235.606 108.016 235.142 108.768C234.678 109.52 234.006 110.128 233.126 110.592C232.262 111.056 231.182 111.288 229.886 111.288ZM241.226 111V94.2H252.266V96.816H244.466V101.208H251.546V103.728H244.466V108.384H252.266V111H241.226ZM257.858 111V94.2H264.122C265.482 94.2 266.602 94.432 267.482 94.896C268.362 95.36 269.018 95.984 269.45 96.768C269.882 97.536 270.098 98.392 270.098 99.336C270.098 100.232 269.89 101.072 269.474 101.856C269.058 102.624 268.402 103.248 267.506 103.728C266.626 104.192 265.49 104.424 264.098 104.424H261.098V111H257.858ZM266.57 111L263.114 103.608H266.618L270.266 111H266.57ZM261.098 102.072H263.93C264.906 102.072 265.626 101.832 266.09 101.352C266.554 100.872 266.786 100.24 266.786 99.456C266.786 98.672 266.554 98.056 266.09 97.608C265.642 97.144 264.922 96.912 263.93 96.912H261.098V102.072ZM281.423 111.288C280.207 111.288 279.119 111.08 278.159 110.664C277.215 110.248 276.463 109.64 275.903 108.84C275.359 108.04 275.079 107.072 275.063 105.936H278.495C278.511 106.432 278.639 106.88 278.879 107.28C279.119 107.68 279.447 108 279.863 108.24C280.295 108.464 280.807 108.576 281.399 108.576C281.911 108.576 282.351 108.496 282.719 108.336C283.103 108.16 283.399 107.92 283.607 107.616C283.815 107.312 283.919 106.952 283.919 106.536C283.919 106.056 283.799 105.656 283.559 105.336C283.335 105.016 283.015 104.744 282.599 104.52C282.199 104.296 281.727 104.096 281.183 103.92C280.655 103.728 280.095 103.528 279.503 103.32C278.175 102.888 277.159 102.312 276.455 101.592C275.767 100.872 275.423 99.92 275.423 98.736C275.423 97.728 275.663 96.864 276.143 96.144C276.639 95.424 277.319 94.872 278.183 94.488C279.047 94.104 280.031 93.912 281.135 93.912C282.271 93.912 283.263 94.112 284.111 94.512C284.975 94.896 285.655 95.456 286.151 96.192C286.663 96.928 286.927 97.792 286.943 98.784H283.487C283.471 98.416 283.359 98.072 283.151 97.752C282.959 97.416 282.687 97.152 282.335 96.96C281.983 96.752 281.567 96.648 281.087 96.648C280.671 96.632 280.287 96.696 279.935 96.84C279.599 96.984 279.327 97.2 279.119 97.488C278.927 97.76 278.831 98.104 278.831 98.52C278.831 98.92 278.927 99.256 279.119 99.528C279.327 99.8 279.607 100.04 279.959 100.248C280.311 100.44 280.727 100.624 281.207 100.8C281.687 100.96 282.207 101.128 282.767 101.304C283.599 101.592 284.367 101.936 285.071 102.336C285.775 102.72 286.335 103.224 286.751 103.848C287.167 104.472 287.375 105.296 287.375 106.32C287.375 107.2 287.143 108.016 286.679 108.768C286.215 109.52 285.543 110.128 284.663 110.592C283.799 111.056 282.719 111.288 281.423 111.288ZM21.656 142V125.2H32.6V127.816H24.896V132.304H31.064V134.848H24.896V142H21.656ZM37.6319 142V125.2H40.8719V142H37.6319ZM46.811 142V125.2H53.075C54.435 125.2 55.555 125.432 56.435 125.896C57.315 126.36 57.971 126.984 58.403 127.768C58.835 128.536 59.051 129.392 59.051 130.336C59.051 131.232 58.843 132.072 58.427 132.856C58.011 133.624 57.355 134.248 56.459 134.728C55.579 135.192 54.443 135.424 53.051 135.424H50.051V142H46.811ZM55.523 142L52.067 134.608H55.571L59.219 142H55.523ZM50.051 133.072H52.883C53.859 133.072 54.579 132.832 55.043 132.352C55.507 131.872 55.739 131.24 55.739 130.456C55.739 129.672 55.507 129.056 55.043 128.608C54.595 128.144 53.875 127.912 52.883 127.912H50.051V133.072ZM70.3756 142.288C69.1596 142.288 68.0716 142.08 67.1116 141.664C66.1676 141.248 65.4156 140.64 64.8556 139.84C64.3116 139.04 64.0316 138.072 64.0156 136.936H67.4476C67.4636 137.432 67.5916 137.88 67.8316 138.28C68.0716 138.68 68.3996 139 68.8156 139.24C69.2476 139.464 69.7596 139.576 70.3516 139.576C70.8636 139.576 71.3036 139.496 71.6716 139.336C72.0556 139.16 72.3516 138.92 72.5596 138.616C72.7676 138.312 72.8716 137.952 72.8716 137.536C72.8716 137.056 72.7516 136.656 72.5116 136.336C72.2876 136.016 71.9676 135.744 71.5516 135.52C71.1516 135.296 70.6796 135.096 70.1356 134.92C69.6076 134.728 69.0476 134.528 68.4556 134.32C67.1276 133.888 66.1116 133.312 65.4076 132.592C64.7196 131.872 64.3756 130.92 64.3756 129.736C64.3756 128.728 64.6156 127.864 65.0956 127.144C65.5916 126.424 66.2716 125.872 67.1356 125.488C67.9996 125.104 68.9836 124.912 70.0876 124.912C71.2236 124.912 72.2156 125.112 73.0636 125.512C73.9276 125.896 74.6076 126.456 75.1036 127.192C75.6156 127.928 75.8796 128.792 75.8956 129.784H72.4396C72.4236 129.416 72.3116 129.072 72.1036 128.752C71.9116 128.416 71.6396 128.152 71.2876 127.96C70.9356 127.752 70.5196 127.648 70.0396 127.648C69.6236 127.632 69.2396 127.696 68.8876 127.84C68.5516 127.984 68.2796 128.2 68.0716 128.488C67.8796 128.76 67.7836 129.104 67.7836 129.52C67.7836 129.92 67.8796 130.256 68.0716 130.528C68.2796 130.8 68.5596 131.04 68.9116 131.248C69.2636 131.44 69.6796 131.624 70.1596 131.8C70.6396 131.96 71.1596 132.128 71.7196 132.304C72.5516 132.592 73.3196 132.936 74.0236 133.336C74.7276 133.72 75.2876 134.224 75.7036 134.848C76.1196 135.472 76.3276 136.296 76.3276 137.32C76.3276 138.2 76.0956 139.016 75.6316 139.768C75.1676 140.52 74.4956 141.128 73.6156 141.592C72.7516 142.056 71.6716 142.288 70.3756 142.288ZM85.4639 142V127.816H80.5439V125.2H93.5759V127.816H88.6799V142H85.4639ZM99.9042 142.12C99.2962 142.12 98.8082 141.944 98.4402 141.592C98.0722 141.224 97.8882 140.776 97.8882 140.248C97.8882 139.72 98.0722 139.28 98.4402 138.928C98.8082 138.56 99.2962 138.376 99.9042 138.376C100.48 138.376 100.952 138.56 101.32 138.928C101.688 139.28 101.872 139.72 101.872 140.248C101.872 140.776 101.688 141.224 101.32 141.592C100.952 141.944 100.48 142.12 99.9042 142.12ZM99.9042 133.336C99.2962 133.336 98.8082 133.16 98.4402 132.808C98.0722 132.44 97.8882 131.992 97.8882 131.464C97.8882 130.936 98.0722 130.496 98.4402 130.144C98.8082 129.776 99.2962 129.592 99.9042 129.592C100.48 129.592 100.952 129.776 101.32 130.144C101.688 130.496 101.872 130.936 101.872 131.464C101.872 131.992 101.688 132.44 101.32 132.808C100.952 133.16 100.48 133.336 99.9042 133.336Z" fill="white"/>
<path d="M24.942 205L21.486 192.4H23.106L25.824 203.2L28.902 192.4H30.594L33.6 203.236L36.354 192.4H37.974L34.446 205H32.718L29.712 194.578L26.634 205H24.942ZM42.7439 205.216C41.8919 205.216 41.1359 205.018 40.4759 204.622C39.8279 204.226 39.3179 203.674 38.9459 202.966C38.5739 202.246 38.3879 201.412 38.3879 200.464C38.3879 199.504 38.5679 198.67 38.9279 197.962C39.2999 197.254 39.8159 196.702 40.4759 196.306C41.1479 195.91 41.9159 195.712 42.7799 195.712C43.6679 195.712 44.4179 195.91 45.0299 196.306C45.6539 196.702 46.1279 197.224 46.4519 197.872C46.7879 198.508 46.9559 199.21 46.9559 199.978C46.9559 200.098 46.9559 200.224 46.9559 200.356C46.9559 200.488 46.9499 200.638 46.9379 200.806H39.5219V199.636H45.4799C45.4439 198.808 45.1679 198.16 44.6519 197.692C44.1479 197.224 43.5119 196.99 42.7439 196.99C42.2279 196.99 41.7479 197.11 41.3039 197.35C40.8719 197.578 40.5239 197.92 40.2599 198.376C39.9959 198.82 39.8639 199.378 39.8639 200.05V200.554C39.8639 201.298 39.9959 201.922 40.2599 202.426C40.5359 202.93 40.8899 203.308 41.3219 203.56C41.7659 203.812 42.2399 203.938 42.7439 203.938C43.3799 203.938 43.9019 203.8 44.3099 203.524C44.7299 203.236 45.0299 202.852 45.2099 202.372H46.7039C46.5599 202.912 46.3079 203.398 45.9479 203.83C45.5879 204.262 45.1379 204.604 44.5979 204.856C44.0699 205.096 43.4519 205.216 42.7439 205.216ZM53.7776 208.96V195.928H55.1456L55.2716 197.404C55.4636 197.116 55.7096 196.846 56.0096 196.594C56.3096 196.33 56.6696 196.12 57.0896 195.964C57.5096 195.796 57.9896 195.712 58.5296 195.712C59.4176 195.712 60.1856 195.922 60.8336 196.342C61.4936 196.762 62.0036 197.332 62.3636 198.052C62.7356 198.76 62.9216 199.57 62.9216 200.482C62.9216 201.394 62.7356 202.21 62.3636 202.93C62.0036 203.638 61.4936 204.196 60.8336 204.604C60.1736 205.012 59.3996 205.216 58.5116 205.216C57.7796 205.216 57.1316 205.066 56.5676 204.766C56.0156 204.466 55.5896 204.046 55.2896 203.506V208.96H53.7776ZM58.3496 203.902C58.9376 203.902 59.4596 203.758 59.9156 203.47C60.3716 203.182 60.7256 202.786 60.9776 202.282C61.2416 201.766 61.3736 201.16 61.3736 200.464C61.3736 199.78 61.2416 199.18 60.9776 198.664C60.7256 198.148 60.3716 197.746 59.9156 197.458C59.4596 197.17 58.9376 197.026 58.3496 197.026C57.7496 197.026 57.2216 197.17 56.7656 197.458C56.3096 197.746 55.9556 198.148 55.7036 198.664C55.4516 199.18 55.3256 199.78 55.3256 200.464C55.3256 201.16 55.4516 201.766 55.7036 202.282C55.9556 202.786 56.3096 203.182 56.7656 203.47C57.2216 203.758 57.7496 203.902 58.3496 203.902ZM65.0452 205V195.928H66.4132L66.5212 197.656C66.7252 197.248 66.9832 196.9 67.2952 196.612C67.6192 196.324 68.0032 196.102 68.4472 195.946C68.9032 195.79 69.4192 195.712 69.9952 195.712V197.296H69.4372C69.0532 197.296 68.6872 197.35 68.3392 197.458C67.9912 197.554 67.6792 197.716 67.4032 197.944C67.1392 198.172 66.9292 198.484 66.7732 198.88C66.6292 199.264 66.5572 199.744 66.5572 200.32V205H65.0452ZM71.8513 205V195.928H73.3633V205H71.8513ZM72.6073 194.002C72.3073 194.002 72.0553 193.906 71.8513 193.714C71.6593 193.51 71.5633 193.258 71.5633 192.958C71.5633 192.658 71.6593 192.418 71.8513 192.238C72.0553 192.046 72.3073 191.95 72.6073 191.95C72.8953 191.95 73.1413 192.046 73.3453 192.238C73.5493 192.418 73.6513 192.658 73.6513 192.958C73.6513 193.258 73.5493 193.51 73.3453 193.714C73.1413 193.906 72.8953 194.002 72.6073 194.002ZM80.0815 205.216C79.2415 205.216 78.4855 205.024 77.8135 204.64C77.1415 204.244 76.6135 203.692 76.2295 202.984C75.8455 202.264 75.6535 201.43 75.6535 200.482C75.6535 199.51 75.8455 198.67 76.2295 197.962C76.6255 197.242 77.1595 196.69 77.8315 196.306C78.5155 195.91 79.2775 195.712 80.1175 195.712C80.9815 195.712 81.7435 195.91 82.4035 196.306C83.0755 196.69 83.6035 197.242 83.9875 197.962C84.3835 198.67 84.5815 199.504 84.5815 200.464C84.5815 201.424 84.3835 202.264 83.9875 202.984C83.5915 203.692 83.0575 204.244 82.3855 204.64C81.7135 205.024 80.9455 205.216 80.0815 205.216ZM80.0995 203.92C80.6155 203.92 81.0955 203.794 81.5395 203.542C81.9835 203.278 82.3435 202.888 82.6195 202.372C82.8955 201.856 83.0335 201.22 83.0335 200.464C83.0335 199.696 82.8955 199.06 82.6195 198.556C82.3555 198.04 82.0015 197.656 81.5575 197.404C81.1255 197.14 80.6455 197.008 80.1175 197.008C79.6135 197.008 79.1335 197.14 78.6775 197.404C78.2335 197.656 77.8735 198.04 77.5975 198.556C77.3335 199.06 77.2015 199.696 77.2015 200.464C77.2015 201.22 77.3335 201.856 77.5975 202.372C77.8735 202.888 78.2275 203.278 78.6595 203.542C79.1035 203.794 79.5835 203.92 80.0995 203.92ZM86.7014 205V195.928H88.0694L88.1774 197.656C88.3814 197.248 88.6394 196.9 88.9514 196.612C89.2754 196.324 89.6594 196.102 90.1034 195.946C90.5594 195.79 91.0754 195.712 91.6514 195.712V197.296H91.0934C90.7094 197.296 90.3434 197.35 89.9954 197.458C89.6474 197.554 89.3354 197.716 89.0594 197.944C88.7954 198.172 88.5854 198.484 88.4294 198.88C88.2854 199.264 88.2134 199.744 88.2134 200.32V205H86.7014ZM93.5075 205V195.928H95.0195V205H93.5075ZM94.2635 194.002C93.9635 194.002 93.7115 193.906 93.5075 193.714C93.3155 193.51 93.2195 193.258 93.2195 192.958C93.2195 192.658 93.3155 192.418 93.5075 192.238C93.7115 192.046 93.9635 191.95 94.2635 191.95C94.5515 191.95 94.7975 192.046 95.0015 192.238C95.2055 192.418 95.3075 192.658 95.3075 192.958C95.3075 193.258 95.2055 193.51 95.0015 193.714C94.7975 193.906 94.5515 194.002 94.2635 194.002ZM101.252 205C100.712 205 100.244 204.916 99.8477 204.748C99.4517 204.58 99.1457 204.298 98.9297 203.902C98.7257 203.494 98.6237 202.948 98.6237 202.264V197.206H97.0397V195.928H98.6237L98.8217 193.732H100.136V195.928H102.764V197.206H100.136V202.264C100.136 202.828 100.25 203.212 100.478 203.416C100.706 203.608 101.108 203.704 101.684 203.704H102.656V205H101.252ZM104.881 205V195.928H106.393V205H104.881ZM105.637 194.002C105.337 194.002 105.085 193.906 104.881 193.714C104.689 193.51 104.593 193.258 104.593 192.958C104.593 192.658 104.689 192.418 104.881 192.238C105.085 192.046 105.337 191.95 105.637 191.95C105.925 191.95 106.171 192.046 106.375 192.238C106.579 192.418 106.681 192.658 106.681 192.958C106.681 193.258 106.579 193.51 106.375 193.714C106.171 193.906 105.925 194.002 105.637 194.002ZM108.449 205V203.758L113.471 197.188H108.539V195.928H115.199V197.17L110.159 203.74H115.289V205H108.449ZM121.283 205.216C120.431 205.216 119.675 205.018 119.015 204.622C118.367 204.226 117.857 203.674 117.485 202.966C117.113 202.246 116.927 201.412 116.927 200.464C116.927 199.504 117.107 198.67 117.467 197.962C117.839 197.254 118.355 196.702 119.015 196.306C119.687 195.91 120.455 195.712 121.319 195.712C122.207 195.712 122.957 195.91 123.569 196.306C124.193 196.702 124.667 197.224 124.991 197.872C125.327 198.508 125.495 199.21 125.495 199.978C125.495 200.098 125.495 200.224 125.495 200.356C125.495 200.488 125.489 200.638 125.477 200.806H118.061V199.636H124.019C123.983 198.808 123.707 198.16 123.191 197.692C122.687 197.224 122.051 196.99 121.283 196.99C120.767 196.99 120.287 197.11 119.843 197.35C119.411 197.578 119.063 197.92 118.799 198.376C118.535 198.82 118.403 199.378 118.403 200.05V200.554C118.403 201.298 118.535 201.922 118.799 202.426C119.075 202.93 119.429 203.308 119.861 203.56C120.305 203.812 120.779 203.938 121.283 203.938C121.919 203.938 122.441 203.8 122.849 203.524C123.269 203.236 123.569 202.852 123.749 202.372H125.243C125.099 202.912 124.847 203.398 124.487 203.83C124.127 204.262 123.677 204.604 123.137 204.856C122.609 205.096 121.991 205.216 121.283 205.216ZM132.821 205V194.524C132.821 193.948 132.917 193.48 133.109 193.12C133.301 192.748 133.583 192.478 133.955 192.31C134.339 192.13 134.807 192.04 135.359 192.04H136.385V193.336H135.593C135.149 193.336 134.825 193.426 134.621 193.606C134.429 193.786 134.333 194.104 134.333 194.56V205H132.821ZM131.435 197.206V195.928H136.619V197.206H131.435ZM138.434 205V195.928H139.802L139.91 197.656C140.114 197.248 140.372 196.9 140.684 196.612C141.008 196.324 141.392 196.102 141.836 195.946C142.292 195.79 142.808 195.712 143.384 195.712V197.296H142.826C142.442 197.296 142.076 197.35 141.728 197.458C141.38 197.554 141.068 197.716 140.792 197.944C140.528 198.172 140.318 198.484 140.162 198.88C140.018 199.264 139.946 199.744 139.946 200.32V205H138.434ZM148.74 205.216C147.888 205.216 147.132 205.018 146.472 204.622C145.824 204.226 145.314 203.674 144.942 202.966C144.57 202.246 144.384 201.412 144.384 200.464C144.384 199.504 144.564 198.67 144.924 197.962C145.296 197.254 145.812 196.702 146.472 196.306C147.144 195.91 147.912 195.712 148.776 195.712C149.664 195.712 150.414 195.91 151.026 196.306C151.65 196.702 152.124 197.224 152.448 197.872C152.784 198.508 152.952 199.21 152.952 199.978C152.952 200.098 152.952 200.224 152.952 200.356C152.952 200.488 152.946 200.638 152.934 200.806H145.518V199.636H151.476C151.44 198.808 151.164 198.16 150.648 197.692C150.144 197.224 149.508 196.99 148.74 196.99C148.224 196.99 147.744 197.11 147.3 197.35C146.868 197.578 146.52 197.92 146.256 198.376C145.992 198.82 145.86 199.378 145.86 200.05V200.554C145.86 201.298 145.992 201.922 146.256 202.426C146.532 202.93 146.886 203.308 147.318 203.56C147.762 203.812 148.236 203.938 148.74 203.938C149.376 203.938 149.898 203.8 150.306 203.524C150.726 203.236 151.026 202.852 151.206 202.372H152.7C152.556 202.912 152.304 203.398 151.944 203.83C151.584 204.262 151.134 204.604 150.594 204.856C150.066 205.096 149.448 205.216 148.74 205.216ZM158.97 205.216C158.118 205.216 157.362 205.018 156.702 204.622C156.054 204.226 155.544 203.674 155.172 202.966C154.8 202.246 154.614 201.412 154.614 200.464C154.614 199.504 154.794 198.67 155.154 197.962C155.526 197.254 156.042 196.702 156.702 196.306C157.374 195.91 158.142 195.712 159.006 195.712C159.894 195.712 160.644 195.91 161.256 196.306C161.88 196.702 162.354 197.224 162.678 197.872C163.014 198.508 163.182 199.21 163.182 199.978C163.182 200.098 163.182 200.224 163.182 200.356C163.182 200.488 163.176 200.638 163.164 200.806H155.748V199.636H161.706C161.67 198.808 161.394 198.16 160.878 197.692C160.374 197.224 159.738 196.99 158.97 196.99C158.454 196.99 157.974 197.11 157.53 197.35C157.098 197.578 156.75 197.92 156.486 198.376C156.222 198.82 156.09 199.378 156.09 200.05V200.554C156.09 201.298 156.222 201.922 156.486 202.426C156.762 202.93 157.116 203.308 157.548 203.56C157.992 203.812 158.466 203.938 158.97 203.938C159.606 203.938 160.128 203.8 160.536 203.524C160.956 203.236 161.256 202.852 161.436 202.372H162.93C162.786 202.912 162.534 203.398 162.174 203.83C161.814 204.262 161.364 204.604 160.824 204.856C160.296 205.096 159.678 205.216 158.97 205.216ZM169.219 205.216C168.343 205.216 167.575 205.012 166.915 204.604C166.255 204.184 165.745 203.614 165.385 202.894C165.025 202.174 164.845 201.358 164.845 200.446C164.845 199.534 165.025 198.724 165.385 198.016C165.745 197.296 166.255 196.732 166.915 196.324C167.587 195.916 168.361 195.712 169.237 195.712C169.981 195.712 170.629 195.862 171.181 196.162C171.745 196.462 172.177 196.882 172.477 197.422V192.04H173.989V205H172.621L172.495 203.506C172.303 203.806 172.057 204.088 171.757 204.352C171.457 204.604 171.097 204.814 170.677 204.982C170.257 205.138 169.771 205.216 169.219 205.216ZM169.399 203.902C169.999 203.902 170.527 203.758 170.983 203.47C171.439 203.182 171.793 202.786 172.045 202.282C172.297 201.766 172.423 201.16 172.423 200.464C172.423 199.78 172.297 199.18 172.045 198.664C171.793 198.148 171.439 197.746 170.983 197.458C170.527 197.17 169.999 197.026 169.399 197.026C168.811 197.026 168.289 197.17 167.833 197.458C167.377 197.746 167.023 198.148 166.771 198.664C166.519 199.18 166.393 199.78 166.393 200.464C166.393 201.16 166.519 201.766 166.771 202.282C167.023 202.786 167.377 203.182 167.833 203.47C168.289 203.758 168.811 203.902 169.399 203.902ZM180.558 205.216C179.718 205.216 178.962 205.024 178.29 204.64C177.618 204.244 177.09 203.692 176.706 202.984C176.322 202.264 176.13 201.43 176.13 200.482C176.13 199.51 176.322 198.67 176.706 197.962C177.102 197.242 177.636 196.69 178.308 196.306C178.992 195.91 179.754 195.712 180.594 195.712C181.458 195.712 182.22 195.91 182.88 196.306C183.552 196.69 184.08 197.242 184.464 197.962C184.86 198.67 185.058 199.504 185.058 200.464C185.058 201.424 184.86 202.264 184.464 202.984C184.068 203.692 183.534 204.244 182.862 204.64C182.19 205.024 181.422 205.216 180.558 205.216ZM180.576 203.92C181.092 203.92 181.572 203.794 182.016 203.542C182.46 203.278 182.82 202.888 183.096 202.372C183.372 201.856 183.51 201.22 183.51 200.464C183.51 199.696 183.372 199.06 183.096 198.556C182.832 198.04 182.478 197.656 182.034 197.404C181.602 197.14 181.122 197.008 180.594 197.008C180.09 197.008 179.61 197.14 179.154 197.404C178.71 197.656 178.35 198.04 178.074 198.556C177.81 199.06 177.678 199.696 177.678 200.464C177.678 201.22 177.81 201.856 178.074 202.372C178.35 202.888 178.704 203.278 179.136 203.542C179.58 203.794 180.06 203.92 180.576 203.92ZM187.178 205V195.928H188.546L188.636 197.224C188.924 196.756 189.308 196.39 189.788 196.126C190.28 195.85 190.814 195.712 191.39 195.712C191.858 195.712 192.278 195.778 192.65 195.91C193.034 196.03 193.37 196.222 193.658 196.486C193.946 196.738 194.18 197.062 194.36 197.458C194.672 196.906 195.098 196.48 195.638 196.18C196.19 195.868 196.778 195.712 197.402 195.712C198.098 195.712 198.704 195.856 199.22 196.144C199.748 196.42 200.15 196.846 200.426 197.422C200.714 197.986 200.858 198.706 200.858 199.582V205H199.364V199.744C199.364 198.832 199.178 198.148 198.806 197.692C198.434 197.236 197.912 197.008 197.24 197.008C196.772 197.008 196.352 197.134 195.98 197.386C195.608 197.626 195.314 197.98 195.098 198.448C194.882 198.916 194.774 199.492 194.774 200.176V205H193.262V199.744C193.262 198.832 193.076 198.148 192.704 197.692C192.332 197.236 191.804 197.008 191.12 197.008C190.664 197.008 190.25 197.134 189.878 197.386C189.518 197.626 189.23 197.98 189.014 198.448C188.798 198.916 188.69 199.492 188.69 200.176V205H187.178ZM210.942 205.216C210.21 205.216 209.598 205.09 209.106 204.838C208.614 204.574 208.248 204.232 208.008 203.812C207.768 203.38 207.648 202.912 207.648 202.408C207.648 201.796 207.804 201.28 208.116 200.86C208.44 200.428 208.89 200.104 209.466 199.888C210.054 199.66 210.744 199.546 211.536 199.546H213.93C213.93 198.982 213.84 198.514 213.66 198.142C213.492 197.758 213.24 197.47 212.904 197.278C212.58 197.086 212.172 196.99 211.68 196.99C211.104 196.99 210.606 197.134 210.186 197.422C209.766 197.71 209.508 198.136 209.412 198.7H207.864C207.936 198.052 208.152 197.512 208.512 197.08C208.884 196.636 209.352 196.3 209.916 196.072C210.48 195.832 211.068 195.712 211.68 195.712C212.52 195.712 213.216 195.868 213.768 196.18C214.332 196.48 214.752 196.906 215.028 197.458C215.304 197.998 215.442 198.64 215.442 199.384V205H214.092L214.002 203.398C213.882 203.65 213.726 203.89 213.534 204.118C213.354 204.334 213.138 204.526 212.886 204.694C212.634 204.85 212.346 204.976 212.022 205.072C211.71 205.168 211.35 205.216 210.942 205.216ZM211.176 203.938C211.596 203.938 211.974 203.854 212.31 203.686C212.658 203.506 212.952 203.266 213.192 202.966C213.432 202.654 213.612 202.312 213.732 201.94C213.864 201.568 213.93 201.178 213.93 200.77V200.716H211.662C211.074 200.716 210.6 200.788 210.24 200.932C209.88 201.064 209.622 201.256 209.466 201.508C209.31 201.748 209.232 202.024 209.232 202.336C209.232 202.66 209.304 202.942 209.448 203.182C209.604 203.422 209.826 203.608 210.114 203.74C210.414 203.872 210.768 203.938 211.176 203.938ZM217.781 205V195.928H219.149L219.221 197.512C219.509 196.948 219.917 196.51 220.445 196.198C220.985 195.874 221.597 195.712 222.281 195.712C222.989 195.712 223.601 195.856 224.117 196.144C224.633 196.42 225.035 196.846 225.323 197.422C225.611 197.986 225.755 198.706 225.755 199.582V205H224.243V199.744C224.243 198.832 224.039 198.148 223.631 197.692C223.235 197.236 222.671 197.008 221.939 197.008C221.435 197.008 220.985 197.134 220.589 197.386C220.193 197.626 219.875 197.98 219.635 198.448C219.407 198.904 219.293 199.474 219.293 200.158V205H217.781ZM232.113 205.216C231.237 205.216 230.469 205.012 229.809 204.604C229.149 204.184 228.639 203.614 228.279 202.894C227.919 202.174 227.739 201.358 227.739 200.446C227.739 199.534 227.919 198.724 228.279 198.016C228.639 197.296 229.149 196.732 229.809 196.324C230.481 195.916 231.255 195.712 232.131 195.712C232.875 195.712 233.523 195.862 234.075 196.162C234.639 196.462 235.071 196.882 235.371 197.422V192.04H236.883V205H235.515L235.389 203.506C235.197 203.806 234.951 204.088 234.651 204.352C234.351 204.604 233.991 204.814 233.571 204.982C233.151 205.138 232.665 205.216 232.113 205.216ZM232.293 203.902C232.893 203.902 233.421 203.758 233.877 203.47C234.333 203.182 234.687 202.786 234.939 202.282C235.191 201.766 235.317 201.16 235.317 200.464C235.317 199.78 235.191 199.18 234.939 198.664C234.687 198.148 234.333 197.746 233.877 197.458C233.421 197.17 232.893 197.026 232.293 197.026C231.705 197.026 231.183 197.17 230.727 197.458C230.271 197.746 229.917 198.148 229.665 198.664C229.413 199.18 229.287 199.78 229.287 200.464C229.287 201.16 229.413 201.766 229.665 202.282C229.917 202.786 230.271 203.182 230.727 203.47C231.183 203.758 231.705 203.902 232.293 203.902ZM25.212 228.216C24.48 228.216 23.868 228.09 23.376 227.838C22.884 227.574 22.518 227.232 22.278 226.812C22.038 226.38 21.918 225.912 21.918 225.408C21.918 224.796 22.074 224.28 22.386 223.86C22.71 223.428 23.16 223.104 23.736 222.888C24.324 222.66 25.014 222.546 25.806 222.546H28.2C28.2 221.982 28.11 221.514 27.93 221.142C27.762 220.758 27.51 220.47 27.174 220.278C26.85 220.086 26.442 219.99 25.95 219.99C25.374 219.99 24.876 220.134 24.456 220.422C24.036 220.71 23.778 221.136 23.682 221.7H22.134C22.206 221.052 22.422 220.512 22.782 220.08C23.154 219.636 23.622 219.3 24.186 219.072C24.75 218.832 25.338 218.712 25.95 218.712C26.79 218.712 27.486 218.868 28.038 219.18C28.602 219.48 29.022 219.906 29.298 220.458C29.574 220.998 29.712 221.64 29.712 222.384V228H28.362L28.272 226.398C28.152 226.65 27.996 226.89 27.804 227.118C27.624 227.334 27.408 227.526 27.156 227.694C26.904 227.85 26.616 227.976 26.292 228.072C25.98 228.168 25.62 228.216 25.212 228.216ZM25.446 226.938C25.866 226.938 26.244 226.854 26.58 226.686C26.928 226.506 27.222 226.266 27.462 225.966C27.702 225.654 27.882 225.312 28.002 224.94C28.134 224.568 28.2 224.178 28.2 223.77V223.716H25.932C25.344 223.716 24.87 223.788 24.51 223.932C24.15 224.064 23.892 224.256 23.736 224.508C23.58 224.748 23.502 225.024 23.502 225.336C23.502 225.66 23.574 225.942 23.718 226.182C23.874 226.422 24.096 226.608 24.384 226.74C24.684 226.872 25.038 226.938 25.446 226.938ZM32.051 231.96V218.928H33.419L33.545 220.404C33.737 220.116 33.983 219.846 34.283 219.594C34.583 219.33 34.943 219.12 35.363 218.964C35.783 218.796 36.263 218.712 36.803 218.712C37.691 218.712 38.459 218.922 39.107 219.342C39.767 219.762 40.277 220.332 40.637 221.052C41.009 221.76 41.195 222.57 41.195 223.482C41.195 224.394 41.009 225.21 40.637 225.93C40.277 226.638 39.767 227.196 39.107 227.604C38.447 228.012 37.673 228.216 36.785 228.216C36.053 228.216 35.405 228.066 34.841 227.766C34.289 227.466 33.863 227.046 33.563 226.506V231.96H32.051ZM36.623 226.902C37.211 226.902 37.733 226.758 38.189 226.47C38.645 226.182 38.999 225.786 39.251 225.282C39.515 224.766 39.647 224.16 39.647 223.464C39.647 222.78 39.515 222.18 39.251 221.664C38.999 221.148 38.645 220.746 38.189 220.458C37.733 220.17 37.211 220.026 36.623 220.026C36.023 220.026 35.495 220.17 35.039 220.458C34.583 220.746 34.229 221.148 33.977 221.664C33.725 222.18 33.599 222.78 33.599 223.464C33.599 224.16 33.725 224.766 33.977 225.282C34.229 225.786 34.583 226.182 35.039 226.47C35.495 226.758 36.023 226.902 36.623 226.902ZM43.3186 231.96V218.928H44.6866L44.8126 220.404C45.0046 220.116 45.2506 219.846 45.5506 219.594C45.8506 219.33 46.2106 219.12 46.6306 218.964C47.0506 218.796 47.5306 218.712 48.0706 218.712C48.9586 218.712 49.7266 218.922 50.3746 219.342C51.0346 219.762 51.5446 220.332 51.9046 221.052C52.2766 221.76 52.4626 222.57 52.4626 223.482C52.4626 224.394 52.2766 225.21 51.9046 225.93C51.5446 226.638 51.0346 227.196 50.3746 227.604C49.7146 228.012 48.9406 228.216 48.0526 228.216C47.3206 228.216 46.6726 228.066 46.1086 227.766C45.5566 227.466 45.1306 227.046 44.8306 226.506V231.96H43.3186ZM47.8906 226.902C48.4786 226.902 49.0006 226.758 49.4566 226.47C49.9126 226.182 50.2666 225.786 50.5186 225.282C50.7826 224.766 50.9146 224.16 50.9146 223.464C50.9146 222.78 50.7826 222.18 50.5186 221.664C50.2666 221.148 49.9126 220.746 49.4566 220.458C49.0006 220.17 48.4786 220.026 47.8906 220.026C47.2906 220.026 46.7626 220.17 46.3066 220.458C45.8506 220.746 45.4966 221.148 45.2446 221.664C44.9926 222.18 44.8666 222.78 44.8666 223.464C44.8666 224.16 44.9926 224.766 45.2446 225.282C45.4966 225.786 45.8506 226.182 46.3066 226.47C46.7626 226.758 47.2906 226.902 47.8906 226.902ZM54.5862 228V218.928H55.9542L56.0622 220.656C56.2662 220.248 56.5242 219.9 56.8362 219.612C57.1602 219.324 57.5442 219.102 57.9882 218.946C58.4442 218.79 58.9602 218.712 59.5362 218.712V220.296H58.9782C58.5942 220.296 58.2282 220.35 57.8802 220.458C57.5322 220.554 57.2202 220.716 56.9442 220.944C56.6802 221.172 56.4702 221.484 56.3142 221.88C56.1702 222.264 56.0982 222.744 56.0982 223.32V228H54.5862ZM64.8923 228.216C64.0403 228.216 63.2843 228.018 62.6243 227.622C61.9763 227.226 61.4663 226.674 61.0943 225.966C60.7223 225.246 60.5363 224.412 60.5363 223.464C60.5363 222.504 60.7163 221.67 61.0763 220.962C61.4483 220.254 61.9643 219.702 62.6243 219.306C63.2963 218.91 64.0643 218.712 64.9283 218.712C65.8163 218.712 66.5663 218.91 67.1783 219.306C67.8023 219.702 68.2763 220.224 68.6003 220.872C68.9363 221.508 69.1043 222.21 69.1043 222.978C69.1043 223.098 69.1043 223.224 69.1043 223.356C69.1043 223.488 69.0983 223.638 69.0863 223.806H61.6703V222.636H67.6283C67.5923 221.808 67.3163 221.16 66.8003 220.692C66.2963 220.224 65.6603 219.99 64.8923 219.99C64.3763 219.99 63.8963 220.11 63.4523 220.35C63.0203 220.578 62.6723 220.92 62.4083 221.376C62.1443 221.82 62.0123 222.378 62.0123 223.05V223.554C62.0123 224.298 62.1443 224.922 62.4083 225.426C62.6843 225.93 63.0383 226.308 63.4703 226.56C63.9143 226.812 64.3883 226.938 64.8923 226.938C65.5283 226.938 66.0503 226.8 66.4583 226.524C66.8783 226.236 67.1783 225.852 67.3583 225.372H68.8523C68.7083 225.912 68.4563 226.398 68.0963 226.83C67.7363 227.262 67.2863 227.604 66.7463 227.856C66.2183 228.096 65.6003 228.216 64.8923 228.216ZM75.2308 228.216C74.3788 228.216 73.6108 228.018 72.9268 227.622C72.2548 227.226 71.7268 226.674 71.3428 225.966C70.9588 225.246 70.7668 224.418 70.7668 223.482C70.7668 222.522 70.9588 221.688 71.3428 220.98C71.7268 220.272 72.2548 219.72 72.9268 219.324C73.6108 218.916 74.3788 218.712 75.2308 218.712C76.3108 218.712 77.2108 218.994 77.9308 219.558C78.6508 220.11 79.1068 220.854 79.2988 221.79H77.7508C77.6308 221.226 77.3368 220.788 76.8688 220.476C76.4008 220.164 75.8488 220.008 75.2128 220.008C74.6968 220.008 74.2168 220.14 73.7728 220.404C73.3288 220.656 72.9748 221.04 72.7108 221.556C72.4468 222.072 72.3148 222.708 72.3148 223.464C72.3148 224.028 72.3928 224.532 72.5488 224.976C72.7048 225.408 72.9148 225.768 73.1788 226.056C73.4428 226.344 73.7488 226.566 74.0968 226.722C74.4568 226.866 74.8288 226.938 75.2128 226.938C75.6448 226.938 76.0348 226.872 76.3828 226.74C76.7308 226.596 77.0248 226.386 77.2648 226.11C77.5048 225.834 77.6668 225.51 77.7508 225.138H79.2988C79.1068 226.05 78.6448 226.794 77.9128 227.37C77.1928 227.934 76.2988 228.216 75.2308 228.216ZM81.5895 228V218.928H83.1015V228H81.5895ZM82.3455 217.002C82.0455 217.002 81.7935 216.906 81.5895 216.714C81.3975 216.51 81.3015 216.258 81.3015 215.958C81.3015 215.658 81.3975 215.418 81.5895 215.238C81.7935 215.046 82.0455 214.95 82.3455 214.95C82.6335 214.95 82.8795 215.046 83.0835 215.238C83.2875 215.418 83.3895 215.658 83.3895 215.958C83.3895 216.258 83.2875 216.51 83.0835 216.714C82.8795 216.906 82.6335 217.002 82.3455 217.002ZM88.7218 228.216C87.9898 228.216 87.3778 228.09 86.8858 227.838C86.3938 227.574 86.0278 227.232 85.7878 226.812C85.5478 226.38 85.4278 225.912 85.4278 225.408C85.4278 224.796 85.5838 224.28 85.8958 223.86C86.2198 223.428 86.6698 223.104 87.2458 222.888C87.8338 222.66 88.5238 222.546 89.3158 222.546H91.7098C91.7098 221.982 91.6198 221.514 91.4398 221.142C91.2718 220.758 91.0198 220.47 90.6838 220.278C90.3598 220.086 89.9518 219.99 89.4598 219.99C88.8838 219.99 88.3858 220.134 87.9658 220.422C87.5458 220.71 87.2878 221.136 87.1918 221.7H85.6438C85.7158 221.052 85.9318 220.512 86.2918 220.08C86.6638 219.636 87.1318 219.3 87.6958 219.072C88.2598 218.832 88.8478 218.712 89.4598 218.712C90.2998 218.712 90.9958 218.868 91.5478 219.18C92.1118 219.48 92.5318 219.906 92.8078 220.458C93.0838 220.998 93.2218 221.64 93.2218 222.384V228H91.8718L91.7818 226.398C91.6618 226.65 91.5058 226.89 91.3138 227.118C91.1338 227.334 90.9178 227.526 90.6658 227.694C90.4138 227.85 90.1258 227.976 89.8018 228.072C89.4898 228.168 89.1298 228.216 88.7218 228.216ZM88.9558 226.938C89.3758 226.938 89.7538 226.854 90.0898 226.686C90.4378 226.506 90.7318 226.266 90.9718 225.966C91.2118 225.654 91.3918 225.312 91.5118 224.94C91.6438 224.568 91.7098 224.178 91.7098 223.77V223.716H89.4418C88.8538 223.716 88.3798 223.788 88.0198 223.932C87.6598 224.064 87.4018 224.256 87.2458 224.508C87.0898 224.748 87.0118 225.024 87.0118 225.336C87.0118 225.66 87.0838 225.942 87.2278 226.182C87.3838 226.422 87.6058 226.608 87.8938 226.74C88.1938 226.872 88.5478 226.938 88.9558 226.938ZM98.8787 228C98.3387 228 97.8707 227.916 97.4747 227.748C97.0787 227.58 96.7727 227.298 96.5567 226.902C96.3527 226.494 96.2507 225.948 96.2507 225.264V220.206H94.6667V218.928H96.2507L96.4487 216.732H97.7627V218.928H100.391V220.206H97.7627V225.264C97.7627 225.828 97.8767 226.212 98.1047 226.416C98.3327 226.608 98.7347 226.704 99.3107 226.704H100.283V228H98.8787ZM102.508 228V218.928H104.02V228H102.508ZM103.264 217.002C102.964 217.002 102.712 216.906 102.508 216.714C102.316 216.51 102.22 216.258 102.22 215.958C102.22 215.658 102.316 215.418 102.508 215.238C102.712 215.046 102.964 214.95 103.264 214.95C103.552 214.95 103.798 215.046 104.002 215.238C104.206 215.418 104.308 215.658 104.308 215.958C104.308 216.258 104.206 216.51 104.002 216.714C103.798 216.906 103.552 217.002 103.264 217.002ZM110.738 228.216C109.898 228.216 109.142 228.024 108.47 227.64C107.798 227.244 107.27 226.692 106.886 225.984C106.502 225.264 106.31 224.43 106.31 223.482C106.31 222.51 106.502 221.67 106.886 220.962C107.282 220.242 107.816 219.69 108.488 219.306C109.172 218.91 109.934 218.712 110.774 218.712C111.638 218.712 112.4 218.91 113.06 219.306C113.732 219.69 114.26 220.242 114.644 220.962C115.04 221.67 115.238 222.504 115.238 223.464C115.238 224.424 115.04 225.264 114.644 225.984C114.248 226.692 113.714 227.244 113.042 227.64C112.37 228.024 111.602 228.216 110.738 228.216ZM110.756 226.92C111.272 226.92 111.752 226.794 112.196 226.542C112.64 226.278 113 225.888 113.276 225.372C113.552 224.856 113.69 224.22 113.69 223.464C113.69 222.696 113.552 222.06 113.276 221.556C113.012 221.04 112.658 220.656 112.214 220.404C111.782 220.14 111.302 220.008 110.774 220.008C110.27 220.008 109.79 220.14 109.334 220.404C108.89 220.656 108.53 221.04 108.254 221.556C107.99 222.06 107.858 222.696 107.858 223.464C107.858 224.22 107.99 224.856 108.254 225.372C108.53 225.888 108.884 226.278 109.316 226.542C109.76 226.794 110.24 226.92 110.756 226.92ZM117.358 228V218.928H118.726L118.798 220.512C119.086 219.948 119.494 219.51 120.022 219.198C120.562 218.874 121.174 218.712 121.858 218.712C122.566 218.712 123.178 218.856 123.694 219.144C124.21 219.42 124.612 219.846 124.9 220.422C125.188 220.986 125.332 221.706 125.332 222.582V228H123.82V222.744C123.82 221.832 123.616 221.148 123.208 220.692C122.812 220.236 122.248 220.008 121.516 220.008C121.012 220.008 120.562 220.134 120.166 220.386C119.77 220.626 119.452 220.98 119.212 221.448C118.984 221.904 118.87 222.474 118.87 223.158V228H117.358ZM132.979 228V217.524C132.979 216.948 133.075 216.48 133.267 216.12C133.459 215.748 133.741 215.478 134.113 215.31C134.497 215.13 134.965 215.04 135.517 215.04H136.543V216.336H135.751C135.307 216.336 134.983 216.426 134.779 216.606C134.587 216.786 134.491 217.104 134.491 217.56V228H132.979ZM131.593 220.206V218.928H136.777V220.206H131.593ZM142.29 228.216C141.45 228.216 140.694 228.024 140.022 227.64C139.35 227.244 138.822 226.692 138.438 225.984C138.054 225.264 137.862 224.43 137.862 223.482C137.862 222.51 138.054 221.67 138.438 220.962C138.834 220.242 139.368 219.69 140.04 219.306C140.724 218.91 141.486 218.712 142.326 218.712C143.19 218.712 143.952 218.91 144.612 219.306C145.284 219.69 145.812 220.242 146.196 220.962C146.592 221.67 146.79 222.504 146.79 223.464C146.79 224.424 146.592 225.264 146.196 225.984C145.8 226.692 145.266 227.244 144.594 227.64C143.922 228.024 143.154 228.216 142.29 228.216ZM142.308 226.92C142.824 226.92 143.304 226.794 143.748 226.542C144.192 226.278 144.552 225.888 144.828 225.372C145.104 224.856 145.242 224.22 145.242 223.464C145.242 222.696 145.104 222.06 144.828 221.556C144.564 221.04 144.21 220.656 143.766 220.404C143.334 220.14 142.854 220.008 142.326 220.008C141.822 220.008 141.342 220.14 140.886 220.404C140.442 220.656 140.082 221.04 139.806 221.556C139.542 222.06 139.41 222.696 139.41 223.464C139.41 224.22 139.542 224.856 139.806 225.372C140.082 225.888 140.436 226.278 140.868 226.542C141.312 226.794 141.792 226.92 142.308 226.92ZM148.91 228V218.928H150.278L150.386 220.656C150.59 220.248 150.848 219.9 151.16 219.612C151.484 219.324 151.868 219.102 152.312 218.946C152.768 218.79 153.284 218.712 153.86 218.712V220.296H153.302C152.918 220.296 152.552 220.35 152.204 220.458C151.856 220.554 151.544 220.716 151.268 220.944C151.004 221.172 150.794 221.484 150.638 221.88C150.494 222.264 150.422 222.744 150.422 223.32V228H148.91ZM165.106 228.216C164.59 228.216 164.122 228.144 163.702 228C163.294 227.844 162.934 227.64 162.622 227.388C162.31 227.136 162.052 226.842 161.848 226.506L161.722 228H160.354V215.04H161.866V220.422C162.154 219.954 162.568 219.552 163.108 219.216C163.648 218.88 164.314 218.712 165.106 218.712C165.982 218.712 166.75 218.922 167.41 219.342C168.07 219.75 168.58 220.314 168.94 221.034C169.312 221.742 169.498 222.552 169.498 223.464C169.498 224.376 169.312 225.192 168.94 225.912C168.58 226.632 168.07 227.196 167.41 227.604C166.75 228.012 165.982 228.216 165.106 228.216ZM164.926 226.902C165.514 226.902 166.036 226.758 166.492 226.47C166.948 226.182 167.302 225.786 167.554 225.282C167.818 224.766 167.95 224.16 167.95 223.464C167.95 222.78 167.818 222.18 167.554 221.664C167.302 221.148 166.948 220.746 166.492 220.458C166.036 220.17 165.514 220.026 164.926 220.026C164.326 220.026 163.798 220.17 163.342 220.458C162.886 220.746 162.532 221.148 162.28 221.664C162.028 222.18 161.902 222.78 161.902 223.464C161.902 224.16 162.028 224.766 162.28 225.282C162.532 225.786 162.886 226.182 163.342 226.47C163.798 226.758 164.326 226.902 164.926 226.902ZM175.671 228.216C174.831 228.216 174.075 228.024 173.403 227.64C172.731 227.244 172.203 226.692 171.819 225.984C171.435 225.264 171.243 224.43 171.243 223.482C171.243 222.51 171.435 221.67 171.819 220.962C172.215 220.242 172.749 219.69 173.421 219.306C174.105 218.91 174.867 218.712 175.707 218.712C176.571 218.712 177.333 218.91 177.993 219.306C178.665 219.69 179.193 220.242 179.577 220.962C179.973 221.67 180.171 222.504 180.171 223.464C180.171 224.424 179.973 225.264 179.577 225.984C179.181 226.692 178.647 227.244 177.975 227.64C177.303 228.024 176.535 228.216 175.671 228.216ZM175.689 226.92C176.205 226.92 176.685 226.794 177.129 226.542C177.573 226.278 177.933 225.888 178.209 225.372C178.485 224.856 178.623 224.22 178.623 223.464C178.623 222.696 178.485 222.06 178.209 221.556C177.945 221.04 177.591 220.656 177.147 220.404C176.715 220.14 176.235 220.008 175.707 220.008C175.203 220.008 174.723 220.14 174.267 220.404C173.823 220.656 173.463 221.04 173.187 221.556C172.923 222.06 172.791 222.696 172.791 223.464C172.791 224.22 172.923 224.856 173.187 225.372C173.463 225.888 173.817 226.278 174.249 226.542C174.693 226.794 175.173 226.92 175.689 226.92ZM185.504 228C184.964 228 184.496 227.916 184.1 227.748C183.704 227.58 183.398 227.298 183.182 226.902C182.978 226.494 182.876 225.948 182.876 225.264V220.206H181.292V218.928H182.876L183.074 216.732H184.388V218.928H187.016V220.206H184.388V225.264C184.388 225.828 184.502 226.212 184.73 226.416C184.958 226.608 185.36 226.704 185.936 226.704H186.908V228H185.504ZM188.989 228V215.04H190.501V220.458C190.801 219.918 191.221 219.492 191.761 219.18C192.313 218.868 192.913 218.712 193.561 218.712C194.257 218.712 194.863 218.856 195.379 219.144C195.895 219.42 196.291 219.846 196.567 220.422C196.843 220.998 196.981 221.724 196.981 222.6V228H195.487V222.762C195.487 221.85 195.295 221.166 194.911 220.71C194.527 220.242 193.969 220.008 193.237 220.008C192.721 220.008 192.253 220.134 191.833 220.386C191.425 220.638 191.101 220.998 190.861 221.466C190.621 221.934 190.501 222.51 190.501 223.194V228H188.989ZM208.209 228.216C207.357 228.216 206.589 228.018 205.905 227.622C205.233 227.226 204.705 226.674 204.321 225.966C203.937 225.246 203.745 224.418 203.745 223.482C203.745 222.522 203.937 221.688 204.321 220.98C204.705 220.272 205.233 219.72 205.905 219.324C206.589 218.916 207.357 218.712 208.209 218.712C209.289 218.712 210.189 218.994 210.909 219.558C211.629 220.11 212.085 220.854 212.277 221.79H210.729C210.609 221.226 210.315 220.788 209.847 220.476C209.379 220.164 208.827 220.008 208.191 220.008C207.675 220.008 207.195 220.14 206.751 220.404C206.307 220.656 205.953 221.04 205.689 221.556C205.425 222.072 205.293 222.708 205.293 223.464C205.293 224.028 205.371 224.532 205.527 224.976C205.683 225.408 205.893 225.768 206.157 226.056C206.421 226.344 206.727 226.566 207.075 226.722C207.435 226.866 207.807 226.938 208.191 226.938C208.623 226.938 209.013 226.872 209.361 226.74C209.709 226.596 210.003 226.386 210.243 226.11C210.483 225.834 210.645 225.51 210.729 225.138H212.277C212.085 226.05 211.623 226.794 210.891 227.37C210.171 227.934 209.277 228.216 208.209 228.216ZM214.424 228V218.928H215.792L215.9 220.656C216.104 220.248 216.362 219.9 216.674 219.612C216.998 219.324 217.382 219.102 217.826 218.946C218.282 218.79 218.798 218.712 219.374 218.712V220.296H218.816C218.432 220.296 218.066 220.35 217.718 220.458C217.37 220.554 217.058 220.716 216.782 220.944C216.518 221.172 216.308 221.484 216.152 221.88C216.008 222.264 215.936 222.744 215.936 223.32V228H214.424ZM224.73 228.216C223.878 228.216 223.122 228.018 222.462 227.622C221.814 227.226 221.304 226.674 220.932 225.966C220.56 225.246 220.374 224.412 220.374 223.464C220.374 222.504 220.554 221.67 220.914 220.962C221.286 220.254 221.802 219.702 222.462 219.306C223.134 218.91 223.902 218.712 224.766 218.712C225.654 218.712 226.404 218.91 227.016 219.306C227.64 219.702 228.114 220.224 228.438 220.872C228.774 221.508 228.942 222.21 228.942 222.978C228.942 223.098 228.942 223.224 228.942 223.356C228.942 223.488 228.936 223.638 228.924 223.806H221.508V222.636H227.466C227.43 221.808 227.154 221.16 226.638 220.692C226.134 220.224 225.498 219.99 224.73 219.99C224.214 219.99 223.734 220.11 223.29 220.35C222.858 220.578 222.51 220.92 222.246 221.376C221.982 221.82 221.85 222.378 221.85 223.05V223.554C221.85 224.298 221.982 224.922 222.246 225.426C222.522 225.93 222.876 226.308 223.308 226.56C223.752 226.812 224.226 226.938 224.73 226.938C225.366 226.938 225.888 226.8 226.296 226.524C226.716 226.236 227.016 225.852 227.196 225.372H228.69C228.546 225.912 228.294 226.398 227.934 226.83C227.574 227.262 227.124 227.604 226.584 227.856C226.056 228.096 225.438 228.216 224.73 228.216ZM233.935 228.216C233.203 228.216 232.591 228.09 232.099 227.838C231.607 227.574 231.241 227.232 231.001 226.812C230.761 226.38 230.641 225.912 230.641 225.408C230.641 224.796 230.797 224.28 231.109 223.86C231.433 223.428 231.883 223.104 232.459 222.888C233.047 222.66 233.737 222.546 234.529 222.546H236.923C236.923 221.982 236.833 221.514 236.653 221.142C236.485 220.758 236.233 220.47 235.897 220.278C235.573 220.086 235.165 219.99 234.673 219.99C234.097 219.99 233.599 220.134 233.179 220.422C232.759 220.71 232.501 221.136 232.405 221.7H230.857C230.929 221.052 231.145 220.512 231.505 220.08C231.877 219.636 232.345 219.3 232.909 219.072C233.473 218.832 234.061 218.712 234.673 218.712C235.513 218.712 236.209 218.868 236.761 219.18C237.325 219.48 237.745 219.906 238.021 220.458C238.297 220.998 238.435 221.64 238.435 222.384V228H237.085L236.995 226.398C236.875 226.65 236.719 226.89 236.527 227.118C236.347 227.334 236.131 227.526 235.879 227.694C235.627 227.85 235.339 227.976 235.015 228.072C234.703 228.168 234.343 228.216 233.935 228.216ZM234.169 226.938C234.589 226.938 234.967 226.854 235.303 226.686C235.651 226.506 235.945 226.266 236.185 225.966C236.425 225.654 236.605 225.312 236.725 224.94C236.857 224.568 236.923 224.178 236.923 223.77V223.716H234.655C234.067 223.716 233.593 223.788 233.233 223.932C232.873 224.064 232.615 224.256 232.459 224.508C232.303 224.748 232.225 225.024 232.225 225.336C232.225 225.66 232.297 225.942 232.441 226.182C232.597 226.422 232.819 226.608 233.107 226.74C233.407 226.872 233.761 226.938 234.169 226.938ZM244.092 228C243.552 228 243.084 227.916 242.688 227.748C242.292 227.58 241.986 227.298 241.77 226.902C241.566 226.494 241.464 225.948 241.464 225.264V220.206H239.88V218.928H241.464L241.662 216.732H242.976V218.928H245.604V220.206H242.976V225.264C242.976 225.828 243.09 226.212 243.318 226.416C243.546 226.608 243.948 226.704 244.524 226.704H245.496V228H244.092ZM251.38 228.216C250.54 228.216 249.784 228.024 249.112 227.64C248.44 227.244 247.912 226.692 247.528 225.984C247.144 225.264 246.952 224.43 246.952 223.482C246.952 222.51 247.144 221.67 247.528 220.962C247.924 220.242 248.458 219.69 249.13 219.306C249.814 218.91 250.576 218.712 251.416 218.712C252.28 218.712 253.042 218.91 253.702 219.306C254.374 219.69 254.902 220.242 255.286 220.962C255.682 221.67 255.88 222.504 255.88 223.464C255.88 224.424 255.682 225.264 255.286 225.984C254.89 226.692 254.356 227.244 253.684 227.64C253.012 228.024 252.244 228.216 251.38 228.216ZM251.398 226.92C251.914 226.92 252.394 226.794 252.838 226.542C253.282 226.278 253.642 225.888 253.918 225.372C254.194 224.856 254.332 224.22 254.332 223.464C254.332 222.696 254.194 222.06 253.918 221.556C253.654 221.04 253.3 220.656 252.856 220.404C252.424 220.14 251.944 220.008 251.416 220.008C250.912 220.008 250.432 220.14 249.976 220.404C249.532 220.656 249.172 221.04 248.896 221.556C248.632 222.06 248.5 222.696 248.5 223.464C248.5 224.22 248.632 224.856 248.896 225.372C249.172 225.888 249.526 226.278 249.958 226.542C250.402 226.794 250.882 226.92 251.398 226.92ZM258 228V218.928H259.368L259.476 220.656C259.68 220.248 259.938 219.9 260.25 219.612C260.574 219.324 260.958 219.102 261.402 218.946C261.858 218.79 262.374 218.712 262.95 218.712V220.296H262.392C262.008 220.296 261.642 220.35 261.294 220.458C260.946 220.554 260.634 220.716 260.358 220.944C260.094 221.172 259.884 221.484 259.728 221.88C259.584 222.264 259.512 222.744 259.512 223.32V228H258ZM268.082 228.216C267.326 228.216 266.666 228.09 266.102 227.838C265.55 227.586 265.106 227.238 264.77 226.794C264.446 226.338 264.248 225.804 264.176 225.192H265.724C265.784 225.504 265.91 225.792 266.102 226.056C266.294 226.32 266.552 226.536 266.876 226.704C267.212 226.86 267.62 226.938 268.1 226.938C268.52 226.938 268.868 226.878 269.144 226.758C269.42 226.626 269.624 226.452 269.756 226.236C269.9 226.02 269.972 225.786 269.972 225.534C269.972 225.162 269.882 224.88 269.702 224.688C269.534 224.496 269.282 224.346 268.946 224.238C268.61 224.118 268.202 224.016 267.722 223.932C267.326 223.86 266.936 223.764 266.552 223.644C266.168 223.524 265.826 223.368 265.526 223.176C265.226 222.972 264.986 222.726 264.806 222.438C264.638 222.15 264.554 221.796 264.554 221.376C264.554 220.86 264.686 220.404 264.95 220.008C265.214 219.6 265.592 219.282 266.084 219.054C266.588 218.826 267.17 218.712 267.83 218.712C268.802 218.712 269.588 218.946 270.188 219.414C270.788 219.882 271.142 220.56 271.25 221.448H269.756C269.696 220.992 269.498 220.638 269.162 220.386C268.838 220.122 268.388 219.99 267.812 219.99C267.248 219.99 266.816 220.104 266.516 220.332C266.228 220.56 266.084 220.86 266.084 221.232C266.084 221.472 266.162 221.688 266.318 221.88C266.486 222.06 266.726 222.216 267.038 222.348C267.362 222.48 267.758 222.588 268.226 222.672C268.826 222.78 269.372 222.924 269.864 223.104C270.356 223.284 270.752 223.554 271.052 223.914C271.364 224.262 271.52 224.76 271.52 225.408C271.52 225.972 271.376 226.464 271.088 226.884C270.812 227.304 270.416 227.634 269.9 227.874C269.384 228.102 268.778 228.216 268.082 228.216ZM25.212 251.216C24.48 251.216 23.868 251.09 23.376 250.838C22.884 250.574 22.518 250.232 22.278 249.812C22.038 249.38 21.918 248.912 21.918 248.408C21.918 247.796 22.074 247.28 22.386 246.86C22.71 246.428 23.16 246.104 23.736 245.888C24.324 245.66 25.014 245.546 25.806 245.546H28.2C28.2 244.982 28.11 244.514 27.93 244.142C27.762 243.758 27.51 243.47 27.174 243.278C26.85 243.086 26.442 242.99 25.95 242.99C25.374 242.99 24.876 243.134 24.456 243.422C24.036 243.71 23.778 244.136 23.682 244.7H22.134C22.206 244.052 22.422 243.512 22.782 243.08C23.154 242.636 23.622 242.3 24.186 242.072C24.75 241.832 25.338 241.712 25.95 241.712C26.79 241.712 27.486 241.868 28.038 242.18C28.602 242.48 29.022 242.906 29.298 243.458C29.574 243.998 29.712 244.64 29.712 245.384V251H28.362L28.272 249.398C28.152 249.65 27.996 249.89 27.804 250.118C27.624 250.334 27.408 250.526 27.156 250.694C26.904 250.85 26.616 250.976 26.292 251.072C25.98 251.168 25.62 251.216 25.212 251.216ZM25.446 249.938C25.866 249.938 26.244 249.854 26.58 249.686C26.928 249.506 27.222 249.266 27.462 248.966C27.702 248.654 27.882 248.312 28.002 247.94C28.134 247.568 28.2 247.178 28.2 246.77V246.716H25.932C25.344 246.716 24.87 246.788 24.51 246.932C24.15 247.064 23.892 247.256 23.736 247.508C23.58 247.748 23.502 248.024 23.502 248.336C23.502 248.66 23.574 248.942 23.718 249.182C23.874 249.422 24.096 249.608 24.384 249.74C24.684 249.872 25.038 249.938 25.446 249.938ZM32.051 251V241.928H33.419L33.491 243.512C33.779 242.948 34.187 242.51 34.715 242.198C35.255 241.874 35.867 241.712 36.551 241.712C37.259 241.712 37.871 241.856 38.387 242.144C38.903 242.42 39.305 242.846 39.593 243.422C39.881 243.986 40.025 244.706 40.025 245.582V251H38.513V245.744C38.513 244.832 38.309 244.148 37.901 243.692C37.505 243.236 36.941 243.008 36.209 243.008C35.705 243.008 35.255 243.134 34.859 243.386C34.463 243.626 34.145 243.98 33.905 244.448C33.677 244.904 33.563 245.474 33.563 246.158V251H32.051ZM46.383 251.216C45.507 251.216 44.739 251.012 44.079 250.604C43.419 250.184 42.909 249.614 42.549 248.894C42.189 248.174 42.009 247.358 42.009 246.446C42.009 245.534 42.189 244.724 42.549 244.016C42.909 243.296 43.419 242.732 44.079 242.324C44.751 241.916 45.525 241.712 46.401 241.712C47.145 241.712 47.793 241.862 48.345 242.162C48.909 242.462 49.341 242.882 49.641 243.422V238.04H51.153V251H49.785L49.659 249.506C49.467 249.806 49.221 250.088 48.921 250.352C48.621 250.604 48.261 250.814 47.841 250.982C47.421 251.138 46.935 251.216 46.383 251.216ZM46.563 249.902C47.163 249.902 47.691 249.758 48.147 249.47C48.603 249.182 48.957 248.786 49.209 248.282C49.461 247.766 49.587 247.16 49.587 246.464C49.587 245.78 49.461 245.18 49.209 244.664C48.957 244.148 48.603 243.746 48.147 243.458C47.691 243.17 47.163 243.026 46.563 243.026C45.975 243.026 45.453 243.17 44.997 243.458C44.541 243.746 44.187 244.148 43.935 244.664C43.683 245.18 43.557 245.78 43.557 246.464C43.557 247.16 43.683 247.766 43.935 248.282C44.187 248.786 44.541 249.182 44.997 249.47C45.453 249.758 45.975 249.902 46.563 249.902ZM61.7474 251.216C61.0514 251.216 60.4394 251.078 59.9114 250.802C59.3954 250.526 58.9934 250.1 58.7054 249.524C58.4294 248.948 58.2914 248.228 58.2914 247.364V241.928H59.8034V247.202C59.8034 248.102 60.0014 248.78 60.3974 249.236C60.7934 249.692 61.3514 249.92 62.0714 249.92C62.5754 249.92 63.0314 249.8 63.4394 249.56C63.8474 249.308 64.1654 248.954 64.3934 248.498C64.6334 248.03 64.7534 247.46 64.7534 246.788V241.928H66.2654V251H64.8974L64.8074 249.416C64.5314 249.98 64.1234 250.424 63.5834 250.748C63.0434 251.06 62.4314 251.216 61.7474 251.216ZM72.1917 251.216C71.4357 251.216 70.7757 251.09 70.2117 250.838C69.6597 250.586 69.2157 250.238 68.8797 249.794C68.5557 249.338 68.3577 248.804 68.2857 248.192H69.8337C69.8937 248.504 70.0197 248.792 70.2117 249.056C70.4037 249.32 70.6617 249.536 70.9857 249.704C71.3217 249.86 71.7297 249.938 72.2097 249.938C72.6297 249.938 72.9777 249.878 73.2537 249.758C73.5297 249.626 73.7337 249.452 73.8657 249.236C74.0097 249.02 74.0817 248.786 74.0817 248.534C74.0817 248.162 73.9917 247.88 73.8117 247.688C73.6437 247.496 73.3917 247.346 73.0557 247.238C72.7197 247.118 72.3117 247.016 71.8317 246.932C71.4357 246.86 71.0457 246.764 70.6617 246.644C70.2777 246.524 69.9357 246.368 69.6357 246.176C69.3357 245.972 69.0957 245.726 68.9157 245.438C68.7477 245.15 68.6637 244.796 68.6637 244.376C68.6637 243.86 68.7957 243.404 69.0597 243.008C69.3237 242.6 69.7017 242.282 70.1937 242.054C70.6977 241.826 71.2797 241.712 71.9397 241.712C72.9117 241.712 73.6977 241.946 74.2977 242.414C74.8977 242.882 75.2517 243.56 75.3597 244.448H73.8657C73.8057 243.992 73.6077 243.638 73.2717 243.386C72.9477 243.122 72.4977 242.99 71.9217 242.99C71.3577 242.99 70.9257 243.104 70.6257 243.332C70.3377 243.56 70.1937 243.86 70.1937 244.232C70.1937 244.472 70.2717 244.688 70.4277 244.88C70.5957 245.06 70.8357 245.216 71.1477 245.348C71.4717 245.48 71.8677 245.588 72.3357 245.672C72.9357 245.78 73.4817 245.924 73.9737 246.104C74.4657 246.284 74.8617 246.554 75.1617 246.914C75.4737 247.262 75.6297 247.76 75.6297 248.408C75.6297 248.972 75.4857 249.464 75.1977 249.884C74.9217 250.304 74.5257 250.634 74.0097 250.874C73.4937 251.102 72.8877 251.216 72.1917 251.216ZM81.7849 251.216C80.9329 251.216 80.1769 251.018 79.5169 250.622C78.8689 250.226 78.3589 249.674 77.9869 248.966C77.6149 248.246 77.4289 247.412 77.4289 246.464C77.4289 245.504 77.6089 244.67 77.9689 243.962C78.3409 243.254 78.8569 242.702 79.5169 242.306C80.1889 241.91 80.9569 241.712 81.8209 241.712C82.7089 241.712 83.4589 241.91 84.0709 242.306C84.6949 242.702 85.1689 243.224 85.4929 243.872C85.8289 244.508 85.9969 245.21 85.9969 245.978C85.9969 246.098 85.9969 246.224 85.9969 246.356C85.9969 246.488 85.9909 246.638 85.9789 246.806H78.5629V245.636H84.5209C84.4849 244.808 84.2089 244.16 83.6929 243.692C83.1889 243.224 82.5529 242.99 81.7849 242.99C81.2689 242.99 80.7889 243.11 80.3449 243.35C79.9129 243.578 79.5649 243.92 79.3009 244.376C79.0369 244.82 78.9049 245.378 78.9049 246.05V246.554C78.9049 247.298 79.0369 247.922 79.3009 248.426C79.5769 248.93 79.9309 249.308 80.3629 249.56C80.8069 249.812 81.2809 249.938 81.7849 249.938C82.4209 249.938 82.9429 249.8 83.3509 249.524C83.7709 249.236 84.0709 248.852 84.2509 248.372H85.7449C85.6009 248.912 85.3489 249.398 84.9889 249.83C84.6289 250.262 84.1789 250.604 83.6389 250.856C83.1109 251.096 82.4929 251.216 81.7849 251.216ZM88.0373 251V241.928H89.4053L89.5133 243.656C89.7173 243.248 89.9753 242.9 90.2873 242.612C90.6113 242.324 90.9953 242.102 91.4393 241.946C91.8953 241.79 92.4113 241.712 92.9873 241.712V243.296H92.4293C92.0453 243.296 91.6793 243.35 91.3313 243.458C90.9833 243.554 90.6713 243.716 90.3953 243.944C90.1313 244.172 89.9213 244.484 89.7653 244.88C89.6213 245.264 89.5493 245.744 89.5493 246.32V251H88.0373ZM98.1195 251.216C97.3635 251.216 96.7035 251.09 96.1395 250.838C95.5875 250.586 95.1435 250.238 94.8075 249.794C94.4835 249.338 94.2855 248.804 94.2135 248.192H95.7615C95.8215 248.504 95.9475 248.792 96.1395 249.056C96.3315 249.32 96.5895 249.536 96.9135 249.704C97.2495 249.86 97.6575 249.938 98.1375 249.938C98.5575 249.938 98.9055 249.878 99.1815 249.758C99.4575 249.626 99.6615 249.452 99.7935 249.236C99.9375 249.02 100.009 248.786 100.009 248.534C100.009 248.162 99.9195 247.88 99.7395 247.688C99.5715 247.496 99.3195 247.346 98.9835 247.238C98.6475 247.118 98.2395 247.016 97.7595 246.932C97.3635 246.86 96.9735 246.764 96.5895 246.644C96.2055 246.524 95.8635 246.368 95.5635 246.176C95.2635 245.972 95.0235 245.726 94.8435 245.438C94.6755 245.15 94.5915 244.796 94.5915 244.376C94.5915 243.86 94.7235 243.404 94.9875 243.008C95.2515 242.6 95.6295 242.282 96.1215 242.054C96.6255 241.826 97.2075 241.712 97.8675 241.712C98.8395 241.712 99.6255 241.946 100.225 242.414C100.825 242.882 101.179 243.56 101.287 244.448H99.7935C99.7335 243.992 99.5355 243.638 99.1995 243.386C98.8755 243.122 98.4255 242.99 97.8495 242.99C97.2855 242.99 96.8535 243.104 96.5535 243.332C96.2655 243.56 96.1215 243.86 96.1215 244.232C96.1215 244.472 96.1995 244.688 96.3555 244.88C96.5235 245.06 96.7635 245.216 97.0755 245.348C97.3995 245.48 97.7955 245.588 98.2635 245.672C98.8635 245.78 99.4095 245.924 99.9015 246.104C100.393 246.284 100.789 246.554 101.089 246.914C101.401 247.262 101.557 247.76 101.557 248.408C101.557 248.972 101.413 249.464 101.125 249.884C100.849 250.304 100.453 250.634 99.9375 250.874C99.4215 251.102 98.8155 251.216 98.1195 251.216Z" fill="white"/>
<mask id="path-3-outside-1_437_1035" maskUnits="userSpaceOnUse" x="384" y="58" width="141" height="219" fill="black">
<rect fill="white" x="384" y="58" width="141" height="219"/>
<path d="M496.152 205.554H522.558C521.888 219.905 518.97 232.295 513.804 242.724C508.733 253.056 501.318 260.997 491.559 266.547C481.896 272.096 469.793 274.87 455.251 274.87C444.822 274.87 435.398 272.813 426.979 268.699C418.56 264.585 411.336 258.701 405.309 251.047C399.377 243.298 394.832 234.017 391.675 223.206C388.518 212.395 386.939 200.244 386.939 186.754V148.149C386.939 134.754 388.518 122.652 391.675 111.84C394.928 101.029 399.568 91.7965 405.596 84.1425C411.719 76.3928 419.134 70.461 427.84 66.347C436.642 62.233 446.592 60.176 457.691 60.176C471.276 60.176 482.757 62.9027 492.133 68.3562C501.605 73.714 508.877 81.6071 513.947 92.0357C519.114 102.369 521.984 115.045 522.558 130.066H496.152C495.482 119.064 493.76 110.118 490.985 103.23C488.211 96.2454 484.097 91.1268 478.643 87.8738C473.286 84.5252 466.301 82.8509 457.691 82.8509C450.037 82.8509 443.387 84.3817 437.742 87.4433C432.193 90.5049 427.601 94.9059 423.965 100.646C420.425 106.291 417.746 113.132 415.928 121.169C414.206 129.11 413.345 138.007 413.345 147.862V186.754C413.345 195.939 414.063 204.501 415.498 212.442C417.029 220.383 419.421 227.368 422.674 233.395C426.022 239.327 430.375 243.967 435.733 247.316C441.091 250.665 447.597 252.339 455.251 252.339C464.914 252.339 472.568 250.76 478.213 247.603C483.858 244.446 488.019 239.423 490.698 232.534C493.473 225.646 495.291 216.652 496.152 205.554Z"/>
</mask>
<path d="M496.152 205.554V203.554H494.301L494.158 205.399L496.152 205.554ZM522.558 205.554L524.556 205.647L524.654 203.554H522.558V205.554ZM513.804 242.724L512.012 241.836L512.008 241.842L513.804 242.724ZM491.559 266.547L490.571 264.808L490.563 264.812L491.559 266.547ZM405.309 251.047L403.72 252.263L403.729 252.274L403.737 252.285L405.309 251.047ZM391.675 111.84L389.76 111.264L389.757 111.272L389.755 111.28L391.675 111.84ZM405.596 84.1425L404.026 82.9026L404.024 82.9051L405.596 84.1425ZM427.84 66.347L426.993 64.5351L426.986 64.5387L427.84 66.347ZM492.133 68.3562L491.128 70.085L491.138 70.091L491.149 70.097L492.133 68.3562ZM513.947 92.0357L512.149 92.9102L512.154 92.9202L512.158 92.9301L513.947 92.0357ZM522.558 130.066V132.066H524.636L524.557 129.99L522.558 130.066ZM496.152 130.066L494.156 130.188L494.27 132.066H496.152V130.066ZM490.985 103.23L489.127 103.968L489.13 103.977L490.985 103.23ZM478.643 87.8738L477.583 89.5698L477.601 89.5808L477.619 89.5915L478.643 87.8738ZM437.742 87.4433L436.789 85.6852L436.783 85.6887L436.776 85.6921L437.742 87.4433ZM423.965 100.646L422.276 99.5763L422.271 99.5838L423.965 100.646ZM415.928 121.169L413.978 120.727L413.976 120.736L413.974 120.745L415.928 121.169ZM415.498 212.442L413.53 212.798L413.532 212.81L413.534 212.821L415.498 212.442ZM422.674 233.395L420.914 234.345L420.923 234.362L420.932 234.378L422.674 233.395ZM490.698 232.534L488.843 231.787L488.839 231.798L488.834 231.809L490.698 232.534ZM496.152 207.554H522.558V203.554H496.152V207.554ZM520.56 205.461C519.9 219.599 517.03 231.706 512.012 241.836L515.596 243.611C520.91 232.884 523.876 220.212 524.556 205.647L520.56 205.461ZM512.008 241.842C507.11 251.825 499.971 259.462 490.571 264.808L492.548 268.285C502.665 262.532 510.356 254.288 515.599 243.605L512.008 241.842ZM490.563 264.812C481.282 270.142 469.548 272.87 455.251 272.87V276.87C470.039 276.87 482.51 274.049 492.555 268.281L490.563 264.812ZM455.251 272.87C445.092 272.87 435.973 270.868 427.857 266.902L426.101 270.496C434.823 274.758 444.553 276.87 455.251 276.87V272.87ZM427.857 266.902C419.719 262.926 412.729 257.237 406.88 249.81L403.737 252.285C409.943 260.165 417.4 266.245 426.101 270.496L427.857 266.902ZM406.897 249.832C401.136 242.306 396.693 233.256 393.595 222.645L389.755 223.766C392.971 234.779 397.617 244.289 403.72 252.263L406.897 249.832ZM393.595 222.645C390.5 212.048 388.939 200.09 388.939 186.754H384.939C384.939 200.397 386.535 212.741 389.755 223.766L393.595 222.645ZM388.939 186.754V148.149H384.939V186.754H388.939ZM388.939 148.149C388.939 134.909 390.5 123 393.595 112.401L389.755 111.28C386.536 122.304 384.939 134.599 384.939 148.149H388.939ZM393.59 112.417C396.782 101.808 401.317 92.8083 407.167 85.3799L404.024 82.9051C397.819 90.7847 393.074 100.25 389.76 111.264L393.59 112.417ZM407.165 85.3824C413.102 77.8684 420.274 72.134 428.694 68.1553L426.986 64.5387C417.993 68.788 410.336 74.9173 404.026 82.9026L407.165 85.3824ZM428.687 68.1589C437.189 64.1852 446.843 62.176 457.691 62.176V58.176C446.341 58.176 436.096 60.2807 426.993 64.5351L428.687 68.1589ZM457.691 62.176C471.011 62.176 482.125 64.8487 491.128 70.085L493.139 66.6273C483.389 60.9566 471.541 58.176 457.691 58.176V62.176ZM491.149 70.097C500.244 75.2418 507.243 82.821 512.149 92.9102L515.746 91.1611C510.51 80.3932 502.966 72.1861 493.118 66.6154L491.149 70.097ZM512.158 92.9301C517.165 102.944 519.993 115.324 520.56 130.143L524.557 129.99C523.975 114.767 521.062 101.793 515.736 91.1413L512.158 92.9301ZM522.558 128.066H496.152V132.066H522.558V128.066ZM498.148 129.945C497.471 118.821 495.724 109.642 492.841 102.482L489.13 103.977C491.796 110.594 493.493 119.306 494.156 130.188L498.148 129.945ZM492.844 102.491C489.938 95.1754 485.566 89.6742 479.668 86.1562L477.619 89.5915C482.628 92.5793 486.484 97.3153 489.127 103.968L492.844 102.491ZM479.703 86.1778C473.932 82.5708 466.545 80.8509 457.691 80.8509V84.8509C466.058 84.8509 472.639 86.4796 477.583 89.5698L479.703 86.1778ZM457.691 80.8509C449.767 80.8509 442.778 82.437 436.789 85.6852L438.696 89.2013C443.997 86.3264 450.306 84.8509 457.691 84.8509V80.8509ZM436.776 85.6921C430.911 88.9279 426.078 93.5727 422.276 99.5763L425.655 101.717C429.124 96.2392 433.475 92.0818 438.709 89.1944L436.776 85.6921ZM422.271 99.5838C418.586 105.459 415.834 112.521 413.978 120.727L417.879 121.61C419.659 113.743 422.264 107.123 425.66 101.709L422.271 99.5838ZM413.974 120.745C412.216 128.851 411.345 137.894 411.345 147.862H415.345C415.345 138.121 416.197 129.369 417.883 121.593L413.974 120.745ZM411.345 147.862V186.754H415.345V147.862H411.345ZM411.345 186.754C411.345 196.042 412.071 204.725 413.53 212.798L417.466 212.087C416.055 204.278 415.345 195.835 415.345 186.754H411.345ZM413.534 212.821C415.097 220.927 417.548 228.11 420.914 234.345L424.434 232.445C421.293 226.626 418.961 219.84 417.462 212.064L413.534 212.821ZM420.932 234.378C424.432 240.578 429.01 245.473 434.673 249.012L436.793 245.62C431.74 242.462 427.613 238.076 424.415 232.412L420.932 234.378ZM434.673 249.012C440.41 252.598 447.302 254.339 455.251 254.339V250.339C447.892 250.339 441.772 248.731 436.793 245.62L434.673 249.012ZM455.251 254.339C465.1 254.339 473.134 252.735 479.189 249.348L477.236 245.857C472.002 248.785 464.728 250.339 455.251 250.339V254.339ZM479.189 249.348C485.297 245.932 489.74 240.515 492.562 233.259L488.834 231.809C486.298 238.33 482.419 242.959 477.236 245.857L479.189 249.348ZM492.554 233.281C495.432 226.134 497.276 216.919 498.146 205.709L494.158 205.399C493.305 216.385 491.514 225.157 488.843 231.787L492.554 233.281Z" fill="white" mask="url(#path-3-outside-1_437_1035)"/>
<path d="M443 275L2 275" stroke="white" stroke-width="2"/>
<line x1="1" y1="276" x2="1.00001" y2="72" stroke="white" stroke-width="2"/>
<line x1="1" y1="73" x2="193" y2="73" stroke="white" stroke-width="2"/>
</svg>
