<svg width="531" height="344" viewBox="0 0 531 344" fill="none" xmlns="http://www.w3.org/2000/svg">
<path d="M22.656 109V92.2H28.92C30.28 92.2 31.4 92.432 32.28 92.896C33.16 93.36 33.816 93.984 34.248 94.768C34.68 95.536 34.896 96.392 34.896 97.336C34.896 98.232 34.688 99.072 34.272 99.856C33.856 100.624 33.2 101.248 32.304 101.728C31.424 102.192 30.288 102.424 28.896 102.424H25.896V109H22.656ZM31.368 109L27.912 101.608H31.416L35.064 109H31.368ZM25.896 100.072H28.728C29.704 100.072 30.424 99.832 30.888 99.352C31.352 98.872 31.584 98.24 31.584 97.456C31.584 96.672 31.352 96.056 30.888 95.608C30.44 95.144 29.72 94.912 28.728 94.912H25.896V100.072ZM40.4366 109V92.2H51.4766V94.816H43.6766V99.208H50.7566V101.728H43.6766V106.384H51.4766V109H40.4366ZM61.8928 109L55.7728 92.2H59.2288L63.8848 105.688L68.5648 92.2H71.9968L65.8768 109H61.8928ZM83.8436 109.288C82.2116 109.288 80.7716 108.92 79.5236 108.184C78.2756 107.448 77.2996 106.432 76.5956 105.136C75.8916 103.824 75.5396 102.312 75.5396 100.6C75.5396 98.888 75.8916 97.384 76.5956 96.088C77.2996 94.776 78.2756 93.752 79.5236 93.016C80.7716 92.28 82.2116 91.912 83.8436 91.912C85.4916 91.912 86.9396 92.28 88.1876 93.016C89.4356 93.752 90.4036 94.776 91.0916 96.088C91.7956 97.384 92.1476 98.888 92.1476 100.6C92.1476 102.312 91.7956 103.824 91.0916 105.136C90.4036 106.432 89.4356 107.448 88.1876 108.184C86.9396 108.92 85.4916 109.288 83.8436 109.288ZM83.8436 106.384C84.8676 106.384 85.7476 106.152 86.4836 105.688C87.2356 105.208 87.8196 104.536 88.2356 103.672C88.6516 102.808 88.8596 101.784 88.8596 100.6C88.8596 99.4 88.6516 98.376 88.2356 97.528C87.8196 96.664 87.2356 96 86.4836 95.536C85.7476 95.072 84.8676 94.84 83.8436 94.84C82.8356 94.84 81.9556 95.072 81.2036 95.536C80.4516 96 79.8676 96.664 79.4516 97.528C79.0356 98.376 78.8276 99.4 78.8276 100.6C78.8276 101.784 79.0356 102.808 79.4516 103.672C79.8676 104.536 80.4516 105.208 81.2036 105.688C81.9556 106.152 82.8356 106.384 83.8436 106.384ZM97.5519 109V92.2H100.792V106.48H108.16V109H97.5519ZM119.352 109.288C118.12 109.288 117 109.04 115.992 108.544C114.984 108.048 114.184 107.304 113.592 106.312C113 105.32 112.704 104.056 112.704 102.52V92.2H115.944V102.544C115.944 103.376 116.08 104.08 116.352 104.656C116.624 105.216 117.016 105.632 117.528 105.904C118.056 106.176 118.68 106.312 119.4 106.312C120.136 106.312 120.76 106.176 121.272 105.904C121.8 105.632 122.2 105.216 122.472 104.656C122.744 104.08 122.88 103.376 122.88 102.544V92.2H126.12V102.52C126.12 104.056 125.816 105.32 125.208 106.312C124.6 107.304 123.776 108.048 122.736 108.544C121.712 109.04 120.584 109.288 119.352 109.288ZM135.83 109V94.816H130.91V92.2H143.942V94.816H139.046V109H135.83ZM148.878 109V92.2H152.118V109H148.878ZM165.809 109.288C164.177 109.288 162.737 108.92 161.489 108.184C160.241 107.448 159.265 106.432 158.561 105.136C157.857 103.824 157.505 102.312 157.505 100.6C157.505 98.888 157.857 97.384 158.561 96.088C159.265 94.776 160.241 93.752 161.489 93.016C162.737 92.28 164.177 91.912 165.809 91.912C167.457 91.912 168.905 92.28 170.153 93.016C171.401 93.752 172.369 94.776 173.057 96.088C173.761 97.384 174.113 98.888 174.113 100.6C174.113 102.312 173.761 103.824 173.057 105.136C172.369 106.432 171.401 107.448 170.153 108.184C168.905 108.92 167.457 109.288 165.809 109.288ZM165.809 106.384C166.833 106.384 167.713 106.152 168.449 105.688C169.201 105.208 169.785 104.536 170.201 103.672C170.617 102.808 170.825 101.784 170.825 100.6C170.825 99.4 170.617 98.376 170.201 97.528C169.785 96.664 169.201 96 168.449 95.536C167.713 95.072 166.833 94.84 165.809 94.84C164.801 94.84 163.921 95.072 163.169 95.536C162.417 96 161.833 96.664 161.417 97.528C161.001 98.376 160.793 99.4 160.793 100.6C160.793 101.784 161.001 102.808 161.417 103.672C161.833 104.536 162.417 105.208 163.169 105.688C163.921 106.152 164.801 106.384 165.809 106.384ZM179.518 109V92.2H182.758L190.486 103.792V92.2H193.726V109H190.486L182.758 97.432V109H179.518ZM198.514 109L204.658 92.2H208.33L214.45 109H211.018L206.482 95.896L201.922 109H198.514ZM201.226 105.184L202.09 102.664H210.634L211.474 105.184H201.226ZM219.298 109V92.2H225.562C226.922 92.2 228.042 92.432 228.922 92.896C229.802 93.36 230.458 93.984 230.89 94.768C231.322 95.536 231.538 96.392 231.538 97.336C231.538 98.232 231.33 99.072 230.914 99.856C230.498 100.624 229.842 101.248 228.946 101.728C228.066 102.192 226.93 102.424 225.538 102.424H222.538V109H219.298ZM228.01 109L224.554 101.608H228.058L231.706 109H228.01ZM222.538 100.072H225.37C226.346 100.072 227.066 99.832 227.53 99.352C227.994 98.872 228.226 98.24 228.226 97.456C228.226 96.672 227.994 96.056 227.53 95.608C227.082 95.144 226.362 94.912 225.37 94.912H222.538V100.072ZM240.836 109V103.096L235.172 92.2H238.844L242.804 100.504H242.156L246.092 92.2H249.74L244.076 103.096V109H240.836ZM22.656 140V123.2H28.272C30.224 123.2 31.832 123.552 33.096 124.256C34.376 124.944 35.32 125.92 35.928 127.184C36.552 128.432 36.864 129.904 36.864 131.6C36.864 133.296 36.552 134.776 35.928 136.04C35.32 137.288 34.384 138.264 33.12 138.968C31.856 139.656 30.24 140 28.272 140H22.656ZM25.896 137.216H28.104C29.48 137.216 30.56 136.992 31.344 136.544C32.144 136.096 32.712 135.456 33.048 134.624C33.384 133.776 33.552 132.768 33.552 131.6C33.552 130.416 33.384 129.408 33.048 128.576C32.712 127.728 32.144 127.08 31.344 126.632C30.56 126.184 29.48 125.96 28.104 125.96H25.896V137.216ZM42.2647 140V123.2H53.3048V125.816H45.5047V130.208H52.5847V132.728H45.5047V137.384H53.3048V140H42.2647ZM66.4329 140.288C64.7529 140.288 63.3049 139.928 62.0889 139.208C60.8889 138.472 59.9609 137.456 59.3049 136.16C58.6649 134.848 58.3449 133.336 58.3449 131.624C58.3449 129.912 58.6649 128.4 59.3049 127.088C59.9609 125.776 60.8889 124.752 62.0889 124.016C63.3049 123.28 64.7529 122.912 66.4329 122.912C68.4649 122.912 70.1289 123.416 71.4249 124.424C72.7209 125.432 73.5289 126.856 73.8489 128.696H70.3209C70.1129 127.8 69.6729 127.104 69.0009 126.608C68.3449 126.096 67.4809 125.84 66.4089 125.84C65.4169 125.84 64.5609 126.08 63.8409 126.56C63.1369 127.024 62.5929 127.688 62.2089 128.552C61.8249 129.4 61.6329 130.424 61.6329 131.624C61.6329 132.808 61.8249 133.832 62.2089 134.696C62.5929 135.56 63.1369 136.224 63.8409 136.688C64.5609 137.152 65.4169 137.384 66.4089 137.384C67.4809 137.384 68.3449 137.152 69.0009 136.688C69.6569 136.208 70.0889 135.544 70.2969 134.696H73.8489C73.5289 136.44 72.7209 137.808 71.4249 138.8C70.1289 139.792 68.4649 140.288 66.4329 140.288ZM79.2557 140V123.2H90.2957V125.816H82.4957V130.208H89.5757V132.728H82.4957V137.384H90.2957V140H79.2557ZM95.8879 140V123.2H99.1279L106.856 134.792V123.2H110.096V140H106.856L99.1279 128.432V140H95.8879ZM119.924 140V125.816H115.004V123.2H128.036V125.816H123.14V140H119.924ZM132.973 140V123.2H139.237C140.597 123.2 141.717 123.432 142.597 123.896C143.477 124.36 144.133 124.984 144.565 125.768C144.997 126.536 145.213 127.392 145.213 128.336C145.213 129.232 145.005 130.072 144.589 130.856C144.173 131.624 143.517 132.248 142.621 132.728C141.741 133.192 140.605 133.424 139.213 133.424H136.213V140H132.973ZM141.685 140L138.229 132.608H141.733L145.381 140H141.685ZM136.213 131.072H139.045C140.021 131.072 140.741 130.832 141.205 130.352C141.669 129.872 141.901 129.24 141.901 128.456C141.901 127.672 141.669 127.056 141.205 126.608C140.757 126.144 140.037 125.912 139.045 125.912H136.213V131.072ZM149.625 140L155.769 123.2H159.441L165.561 140H162.129L157.593 126.896L153.033 140H149.625ZM152.337 136.184L153.201 133.664H161.745L162.585 136.184H152.337ZM170.409 140V123.2H173.649V137.48H181.017V140H170.409ZM186.432 140V123.2H189.672V140H186.432ZM195.131 140V137.504L202.883 125.888H195.179V123.2H206.603V125.696L198.827 137.312H206.651V140H195.131ZM210.974 140L217.118 123.2H220.79L226.91 140H223.478L218.942 126.896L214.382 140H210.974ZM213.686 136.184L214.55 133.664H223.094L223.934 136.184H213.686ZM233.889 140V125.816H228.969V123.2H242.001V125.816H237.105V140H233.889ZM246.937 140V123.2H250.177V140H246.937ZM263.868 140.288C262.236 140.288 260.796 139.92 259.548 139.184C258.3 138.448 257.324 137.432 256.62 136.136C255.916 134.824 255.564 133.312 255.564 131.6C255.564 129.888 255.916 128.384 256.62 127.088C257.324 125.776 258.3 124.752 259.548 124.016C260.796 123.28 262.236 122.912 263.868 122.912C265.516 122.912 266.964 123.28 268.212 124.016C269.46 124.752 270.428 125.776 271.116 127.088C271.82 128.384 272.172 129.888 272.172 131.6C272.172 133.312 271.82 134.824 271.116 136.136C270.428 137.432 269.46 138.448 268.212 139.184C266.964 139.92 265.516 140.288 263.868 140.288ZM263.868 137.384C264.892 137.384 265.772 137.152 266.508 136.688C267.26 136.208 267.844 135.536 268.26 134.672C268.676 133.808 268.884 132.784 268.884 131.6C268.884 130.4 268.676 129.376 268.26 128.528C267.844 127.664 267.26 127 266.508 126.536C265.772 126.072 264.892 125.84 263.868 125.84C262.86 125.84 261.98 126.072 261.228 126.536C260.476 127 259.892 127.664 259.476 128.528C259.06 129.376 258.852 130.4 258.852 131.6C258.852 132.784 259.06 133.808 259.476 134.672C259.892 135.536 260.476 136.208 261.228 136.688C261.98 137.152 262.86 137.384 263.868 137.384ZM277.576 140V123.2H280.816L288.544 134.792V123.2H291.784V140H288.544L280.816 128.432V140H277.576Z" fill="white"/>
<path d="M22.35 203V190.4H24.114L28.56 199.202L33.024 190.4H34.806V203H33.294V193.1L29.136 201.236H28.002L23.862 193.136V203H22.35ZM41.4448 203.216C40.6048 203.216 39.8488 203.024 39.1768 202.64C38.5048 202.244 37.9768 201.692 37.5928 200.984C37.2088 200.264 37.0168 199.43 37.0168 198.482C37.0168 197.51 37.2088 196.67 37.5928 195.962C37.9888 195.242 38.5228 194.69 39.1948 194.306C39.8788 193.91 40.6408 193.712 41.4808 193.712C42.3448 193.712 43.1068 193.91 43.7668 194.306C44.4388 194.69 44.9668 195.242 45.3508 195.962C45.7468 196.67 45.9448 197.504 45.9448 198.464C45.9448 199.424 45.7468 200.264 45.3508 200.984C44.9548 201.692 44.4208 202.244 43.7488 202.64C43.0768 203.024 42.3088 203.216 41.4448 203.216ZM41.4628 201.92C41.9788 201.92 42.4588 201.794 42.9028 201.542C43.3468 201.278 43.7068 200.888 43.9828 200.372C44.2588 199.856 44.3968 199.22 44.3968 198.464C44.3968 197.696 44.2588 197.06 43.9828 196.556C43.7188 196.04 43.3648 195.656 42.9208 195.404C42.4888 195.14 42.0088 195.008 41.4808 195.008C40.9768 195.008 40.4968 195.14 40.0408 195.404C39.5968 195.656 39.2368 196.04 38.9608 196.556C38.6968 197.06 38.5648 197.696 38.5648 198.464C38.5648 199.22 38.6968 199.856 38.9608 200.372C39.2368 200.888 39.5908 201.278 40.0228 201.542C40.4668 201.794 40.9468 201.92 41.4628 201.92ZM52.0607 203.216C51.1847 203.216 50.4167 203.012 49.7567 202.604C49.0967 202.184 48.5867 201.614 48.2267 200.894C47.8667 200.174 47.6867 199.358 47.6867 198.446C47.6867 197.534 47.8667 196.724 48.2267 196.016C48.5867 195.296 49.0967 194.732 49.7567 194.324C50.4287 193.916 51.2027 193.712 52.0787 193.712C52.8227 193.712 53.4707 193.862 54.0227 194.162C54.5867 194.462 55.0187 194.882 55.3187 195.422V190.04H56.8307V203H55.4627L55.3367 201.506C55.1447 201.806 54.8987 202.088 54.5987 202.352C54.2987 202.604 53.9387 202.814 53.5187 202.982C53.0987 203.138 52.6127 203.216 52.0607 203.216ZM52.2407 201.902C52.8407 201.902 53.3687 201.758 53.8247 201.47C54.2807 201.182 54.6347 200.786 54.8867 200.282C55.1387 199.766 55.2647 199.16 55.2647 198.464C55.2647 197.78 55.1387 197.18 54.8867 196.664C54.6347 196.148 54.2807 195.746 53.8247 195.458C53.3687 195.17 52.8407 195.026 52.2407 195.026C51.6527 195.026 51.1307 195.17 50.6747 195.458C50.2187 195.746 49.8647 196.148 49.6127 196.664C49.3607 197.18 49.2347 197.78 49.2347 198.464C49.2347 199.16 49.3607 199.766 49.6127 200.282C49.8647 200.786 50.2187 201.182 50.6747 201.47C51.1307 201.758 51.6527 201.902 52.2407 201.902ZM63.3278 203.216C62.4758 203.216 61.7198 203.018 61.0598 202.622C60.4118 202.226 59.9018 201.674 59.5298 200.966C59.1578 200.246 58.9718 199.412 58.9718 198.464C58.9718 197.504 59.1518 196.67 59.5118 195.962C59.8838 195.254 60.3998 194.702 61.0598 194.306C61.7318 193.91 62.4998 193.712 63.3638 193.712C64.2518 193.712 65.0018 193.91 65.6138 194.306C66.2378 194.702 66.7118 195.224 67.0358 195.872C67.3718 196.508 67.5398 197.21 67.5398 197.978C67.5398 198.098 67.5398 198.224 67.5398 198.356C67.5398 198.488 67.5338 198.638 67.5218 198.806H60.1058V197.636H66.0638C66.0278 196.808 65.7518 196.16 65.2358 195.692C64.7318 195.224 64.0958 194.99 63.3278 194.99C62.8118 194.99 62.3318 195.11 61.8878 195.35C61.4558 195.578 61.1078 195.92 60.8438 196.376C60.5798 196.82 60.4478 197.378 60.4478 198.05V198.554C60.4478 199.298 60.5798 199.922 60.8438 200.426C61.1198 200.93 61.4738 201.308 61.9058 201.56C62.3498 201.812 62.8238 201.938 63.3278 201.938C63.9638 201.938 64.4858 201.8 64.8938 201.524C65.3138 201.236 65.6138 200.852 65.7938 200.372H67.2878C67.1438 200.912 66.8918 201.398 66.5318 201.83C66.1718 202.262 65.7218 202.604 65.1818 202.856C64.6538 203.096 64.0358 203.216 63.3278 203.216ZM69.5803 203V193.928H70.9483L71.0563 195.656C71.2603 195.248 71.5183 194.9 71.8303 194.612C72.1543 194.324 72.5383 194.102 72.9823 193.946C73.4383 193.79 73.9543 193.712 74.5303 193.712V195.296H73.9723C73.5883 195.296 73.2223 195.35 72.8743 195.458C72.5263 195.554 72.2143 195.716 71.9383 195.944C71.6743 196.172 71.4643 196.484 71.3083 196.88C71.1643 197.264 71.0923 197.744 71.0923 198.32V203H69.5803ZM76.2424 203V193.928H77.6104L77.6824 195.512C77.9704 194.948 78.3784 194.51 78.9064 194.198C79.4464 193.874 80.0584 193.712 80.7424 193.712C81.4504 193.712 82.0624 193.856 82.5784 194.144C83.0944 194.42 83.4964 194.846 83.7844 195.422C84.0724 195.986 84.2164 196.706 84.2164 197.582V203H82.7044V197.744C82.7044 196.832 82.5004 196.148 82.0924 195.692C81.6964 195.236 81.1324 195.008 80.4004 195.008C79.8964 195.008 79.4464 195.134 79.0504 195.386C78.6544 195.626 78.3364 195.98 78.0964 196.448C77.8684 196.904 77.7544 197.474 77.7544 198.158V203H76.2424ZM94.9236 203C94.3836 203 93.9156 202.916 93.5196 202.748C93.1236 202.58 92.8176 202.298 92.6016 201.902C92.3976 201.494 92.2956 200.948 92.2956 200.264V195.206H90.7116V193.928H92.2956L92.4936 191.732H93.8076V193.928H96.4356V195.206H93.8076V200.264C93.8076 200.828 93.9216 201.212 94.1496 201.416C94.3776 201.608 94.7796 201.704 95.3556 201.704H96.3276V203H94.9236ZM102.14 203.216C101.288 203.216 100.532 203.018 99.8723 202.622C99.2243 202.226 98.7143 201.674 98.3423 200.966C97.9703 200.246 97.7843 199.412 97.7843 198.464C97.7843 197.504 97.9643 196.67 98.3243 195.962C98.6963 195.254 99.2123 194.702 99.8723 194.306C100.544 193.91 101.312 193.712 102.176 193.712C103.064 193.712 103.814 193.91 104.426 194.306C105.05 194.702 105.524 195.224 105.848 195.872C106.184 196.508 106.352 197.21 106.352 197.978C106.352 198.098 106.352 198.224 106.352 198.356C106.352 198.488 106.346 198.638 106.334 198.806H98.9183V197.636H104.876C104.84 196.808 104.564 196.16 104.048 195.692C103.544 195.224 102.908 194.99 102.14 194.99C101.624 194.99 101.144 195.11 100.7 195.35C100.268 195.578 99.9203 195.92 99.6563 196.376C99.3923 196.82 99.2603 197.378 99.2603 198.05V198.554C99.2603 199.298 99.3923 199.922 99.6563 200.426C99.9323 200.93 100.286 201.308 100.718 201.56C101.162 201.812 101.636 201.938 102.14 201.938C102.776 201.938 103.298 201.8 103.706 201.524C104.126 201.236 104.426 200.852 104.606 200.372H106.1C105.956 200.912 105.704 201.398 105.344 201.83C104.984 202.262 104.534 202.604 103.994 202.856C103.466 203.096 102.848 203.216 102.14 203.216ZM112.479 203.216C111.627 203.216 110.859 203.018 110.175 202.622C109.503 202.226 108.975 201.674 108.591 200.966C108.207 200.246 108.015 199.418 108.015 198.482C108.015 197.522 108.207 196.688 108.591 195.98C108.975 195.272 109.503 194.72 110.175 194.324C110.859 193.916 111.627 193.712 112.479 193.712C113.559 193.712 114.459 193.994 115.179 194.558C115.899 195.11 116.355 195.854 116.547 196.79H114.999C114.879 196.226 114.585 195.788 114.117 195.476C113.649 195.164 113.097 195.008 112.461 195.008C111.945 195.008 111.465 195.14 111.021 195.404C110.577 195.656 110.223 196.04 109.959 196.556C109.695 197.072 109.563 197.708 109.563 198.464C109.563 199.028 109.641 199.532 109.797 199.976C109.953 200.408 110.163 200.768 110.427 201.056C110.691 201.344 110.997 201.566 111.345 201.722C111.705 201.866 112.077 201.938 112.461 201.938C112.893 201.938 113.283 201.872 113.631 201.74C113.979 201.596 114.273 201.386 114.513 201.11C114.753 200.834 114.915 200.51 114.999 200.138H116.547C116.355 201.05 115.893 201.794 115.161 202.37C114.441 202.934 113.547 203.216 112.479 203.216ZM118.694 203V190.04H120.206V195.458C120.506 194.918 120.926 194.492 121.466 194.18C122.018 193.868 122.618 193.712 123.266 193.712C123.962 193.712 124.568 193.856 125.084 194.144C125.6 194.42 125.996 194.846 126.272 195.422C126.548 195.998 126.686 196.724 126.686 197.6V203H125.192V197.762C125.192 196.85 125 196.166 124.616 195.71C124.232 195.242 123.674 195.008 122.942 195.008C122.426 195.008 121.958 195.134 121.538 195.386C121.13 195.638 120.806 195.998 120.566 196.466C120.326 196.934 120.206 197.51 120.206 198.194V203H118.694ZM129.047 203V193.928H130.415L130.487 195.512C130.775 194.948 131.183 194.51 131.711 194.198C132.251 193.874 132.863 193.712 133.547 193.712C134.255 193.712 134.867 193.856 135.383 194.144C135.899 194.42 136.301 194.846 136.589 195.422C136.877 195.986 137.021 196.706 137.021 197.582V203H135.509V197.744C135.509 196.832 135.305 196.148 134.897 195.692C134.501 195.236 133.937 195.008 133.205 195.008C132.701 195.008 132.251 195.134 131.855 195.386C131.459 195.626 131.141 195.98 130.901 196.448C130.673 196.904 130.559 197.474 130.559 198.158V203H129.047ZM143.433 203.216C142.593 203.216 141.837 203.024 141.165 202.64C140.493 202.244 139.965 201.692 139.581 200.984C139.197 200.264 139.005 199.43 139.005 198.482C139.005 197.51 139.197 196.67 139.581 195.962C139.977 195.242 140.511 194.69 141.183 194.306C141.867 193.91 142.629 193.712 143.469 193.712C144.333 193.712 145.095 193.91 145.755 194.306C146.427 194.69 146.955 195.242 147.339 195.962C147.735 196.67 147.933 197.504 147.933 198.464C147.933 199.424 147.735 200.264 147.339 200.984C146.943 201.692 146.409 202.244 145.737 202.64C145.065 203.024 144.297 203.216 143.433 203.216ZM143.451 201.92C143.967 201.92 144.447 201.794 144.891 201.542C145.335 201.278 145.695 200.888 145.971 200.372C146.247 199.856 146.385 199.22 146.385 198.464C146.385 197.696 146.247 197.06 145.971 196.556C145.707 196.04 145.353 195.656 144.909 195.404C144.477 195.14 143.997 195.008 143.469 195.008C142.965 195.008 142.485 195.14 142.029 195.404C141.585 195.656 141.225 196.04 140.949 196.556C140.685 197.06 140.553 197.696 140.553 198.464C140.553 199.22 140.685 199.856 140.949 200.372C141.225 200.888 141.579 201.278 142.011 201.542C142.455 201.794 142.935 201.92 143.451 201.92ZM150.053 203V190.04H151.565V203H150.053ZM158.111 203.216C157.271 203.216 156.515 203.024 155.843 202.64C155.171 202.244 154.643 201.692 154.259 200.984C153.875 200.264 153.683 199.43 153.683 198.482C153.683 197.51 153.875 196.67 154.259 195.962C154.655 195.242 155.189 194.69 155.861 194.306C156.545 193.91 157.307 193.712 158.147 193.712C159.011 193.712 159.773 193.91 160.433 194.306C161.105 194.69 161.633 195.242 162.017 195.962C162.413 196.67 162.611 197.504 162.611 198.464C162.611 199.424 162.413 200.264 162.017 200.984C161.621 201.692 161.087 202.244 160.415 202.64C159.743 203.024 158.975 203.216 158.111 203.216ZM158.129 201.92C158.645 201.92 159.125 201.794 159.569 201.542C160.013 201.278 160.373 200.888 160.649 200.372C160.925 199.856 161.063 199.22 161.063 198.464C161.063 197.696 160.925 197.06 160.649 196.556C160.385 196.04 160.031 195.656 159.587 195.404C159.155 195.14 158.675 195.008 158.147 195.008C157.643 195.008 157.163 195.14 156.707 195.404C156.263 195.656 155.903 196.04 155.627 196.556C155.363 197.06 155.231 197.696 155.231 198.464C155.231 199.22 155.363 199.856 155.627 200.372C155.903 200.888 156.257 201.278 156.689 201.542C157.133 201.794 157.613 201.92 158.129 201.92ZM167.908 207.176C167.092 207.176 166.372 207.068 165.748 206.852C165.124 206.648 164.632 206.33 164.272 205.898C163.924 205.466 163.75 204.932 163.75 204.296C163.75 204.032 163.804 203.744 163.912 203.432C164.032 203.12 164.23 202.814 164.506 202.514C164.794 202.214 165.196 201.944 165.712 201.704L166.756 202.316C166.132 202.58 165.718 202.88 165.514 203.216C165.322 203.552 165.226 203.864 165.226 204.152C165.226 204.548 165.34 204.878 165.568 205.142C165.808 205.406 166.126 205.604 166.522 205.736C166.93 205.868 167.392 205.934 167.908 205.934C168.412 205.934 168.85 205.856 169.222 205.7C169.594 205.556 169.882 205.352 170.086 205.088C170.29 204.824 170.392 204.518 170.392 204.17C170.392 203.762 170.236 203.414 169.924 203.126C169.612 202.85 169.024 202.688 168.16 202.64C167.452 202.592 166.858 202.526 166.378 202.442C165.91 202.358 165.514 202.262 165.19 202.154C164.878 202.034 164.614 201.902 164.398 201.758C164.194 201.614 164.008 201.464 163.84 201.308V200.894L165.604 199.148L166.9 199.616L165.1 201.254L165.334 200.624C165.466 200.72 165.592 200.81 165.712 200.894C165.832 200.978 165.994 201.05 166.198 201.11C166.414 201.17 166.702 201.224 167.062 201.272C167.422 201.32 167.902 201.368 168.502 201.416C169.318 201.476 169.972 201.62 170.464 201.848C170.968 202.076 171.328 202.382 171.544 202.766C171.772 203.15 171.886 203.6 171.886 204.116C171.886 204.62 171.742 205.106 171.454 205.574C171.178 206.042 170.746 206.426 170.158 206.726C169.57 207.026 168.82 207.176 167.908 207.176ZM167.89 200.174C167.134 200.174 166.486 200.03 165.946 199.742C165.418 199.454 165.016 199.07 164.74 198.59C164.464 198.11 164.326 197.57 164.326 196.97C164.326 196.382 164.464 195.848 164.74 195.368C165.028 194.888 165.436 194.504 165.964 194.216C166.492 193.916 167.134 193.766 167.89 193.766C168.646 193.766 169.288 193.916 169.816 194.216C170.344 194.504 170.746 194.888 171.022 195.368C171.298 195.848 171.436 196.382 171.436 196.97C171.436 197.57 171.298 198.11 171.022 198.59C170.746 199.07 170.344 199.454 169.816 199.742C169.288 200.03 168.646 200.174 167.89 200.174ZM167.89 198.932C168.526 198.932 169.03 198.764 169.402 198.428C169.786 198.092 169.978 197.606 169.978 196.97C169.978 196.346 169.786 195.866 169.402 195.53C169.03 195.194 168.526 195.026 167.89 195.026C167.254 195.026 166.738 195.194 166.342 195.53C165.958 195.866 165.766 196.346 165.766 196.97C165.766 197.606 165.958 198.092 166.342 198.428C166.726 198.764 167.242 198.932 167.89 198.932ZM169.348 195.26L168.898 193.982H172.606V195.116L169.348 195.26ZM174.525 203V193.928H176.037V203H174.525ZM175.281 192.002C174.981 192.002 174.729 191.906 174.525 191.714C174.333 191.51 174.237 191.258 174.237 190.958C174.237 190.658 174.333 190.418 174.525 190.238C174.729 190.046 174.981 189.95 175.281 189.95C175.569 189.95 175.815 190.046 176.019 190.238C176.223 190.418 176.325 190.658 176.325 190.958C176.325 191.258 176.223 191.51 176.019 191.714C175.815 191.906 175.569 192.002 175.281 192.002ZM182.683 203.216C181.831 203.216 181.075 203.018 180.415 202.622C179.767 202.226 179.257 201.674 178.885 200.966C178.513 200.246 178.327 199.412 178.327 198.464C178.327 197.504 178.507 196.67 178.867 195.962C179.239 195.254 179.755 194.702 180.415 194.306C181.087 193.91 181.855 193.712 182.719 193.712C183.607 193.712 184.357 193.91 184.969 194.306C185.593 194.702 186.067 195.224 186.391 195.872C186.727 196.508 186.895 197.21 186.895 197.978C186.895 198.098 186.895 198.224 186.895 198.356C186.895 198.488 186.889 198.638 186.877 198.806H179.461V197.636H185.419C185.383 196.808 185.107 196.16 184.591 195.692C184.087 195.224 183.451 194.99 182.683 194.99C182.167 194.99 181.687 195.11 181.243 195.35C180.811 195.578 180.463 195.92 180.199 196.376C179.935 196.82 179.803 197.378 179.803 198.05V198.554C179.803 199.298 179.935 199.922 180.199 200.426C180.475 200.93 180.829 201.308 181.261 201.56C181.705 201.812 182.179 201.938 182.683 201.938C183.319 201.938 183.841 201.8 184.249 201.524C184.669 201.236 184.969 200.852 185.149 200.372H186.643C186.499 200.912 186.247 201.398 185.887 201.83C185.527 202.262 185.077 202.604 184.537 202.856C184.009 203.096 183.391 203.216 182.683 203.216ZM192.356 203.216C191.6 203.216 190.94 203.09 190.376 202.838C189.824 202.586 189.38 202.238 189.044 201.794C188.72 201.338 188.522 200.804 188.45 200.192H189.998C190.058 200.504 190.184 200.792 190.376 201.056C190.568 201.32 190.826 201.536 191.15 201.704C191.486 201.86 191.894 201.938 192.374 201.938C192.794 201.938 193.142 201.878 193.418 201.758C193.694 201.626 193.898 201.452 194.03 201.236C194.174 201.02 194.246 200.786 194.246 200.534C194.246 200.162 194.156 199.88 193.976 199.688C193.808 199.496 193.556 199.346 193.22 199.238C192.884 199.118 192.476 199.016 191.996 198.932C191.6 198.86 191.21 198.764 190.826 198.644C190.442 198.524 190.1 198.368 189.8 198.176C189.5 197.972 189.26 197.726 189.08 197.438C188.912 197.15 188.828 196.796 188.828 196.376C188.828 195.86 188.96 195.404 189.224 195.008C189.488 194.6 189.866 194.282 190.358 194.054C190.862 193.826 191.444 193.712 192.104 193.712C193.076 193.712 193.862 193.946 194.462 194.414C195.062 194.882 195.416 195.56 195.524 196.448H194.03C193.97 195.992 193.772 195.638 193.436 195.386C193.112 195.122 192.662 194.99 192.086 194.99C191.522 194.99 191.09 195.104 190.79 195.332C190.502 195.56 190.358 195.86 190.358 196.232C190.358 196.472 190.436 196.688 190.592 196.88C190.76 197.06 191 197.216 191.312 197.348C191.636 197.48 192.032 197.588 192.5 197.672C193.1 197.78 193.646 197.924 194.138 198.104C194.63 198.284 195.026 198.554 195.326 198.914C195.638 199.262 195.794 199.76 195.794 200.408C195.794 200.972 195.65 201.464 195.362 201.884C195.086 202.304 194.69 202.634 194.174 202.874C193.658 203.102 193.052 203.216 192.356 203.216ZM206.73 203.216C205.878 203.216 205.122 203.018 204.462 202.622C203.814 202.226 203.304 201.674 202.932 200.966C202.56 200.246 202.374 199.412 202.374 198.464C202.374 197.504 202.554 196.67 202.914 195.962C203.286 195.254 203.802 194.702 204.462 194.306C205.134 193.91 205.902 193.712 206.766 193.712C207.654 193.712 208.404 193.91 209.016 194.306C209.64 194.702 210.114 195.224 210.438 195.872C210.774 196.508 210.942 197.21 210.942 197.978C210.942 198.098 210.942 198.224 210.942 198.356C210.942 198.488 210.936 198.638 210.924 198.806H203.508V197.636H209.466C209.43 196.808 209.154 196.16 208.638 195.692C208.134 195.224 207.498 194.99 206.73 194.99C206.214 194.99 205.734 195.11 205.29 195.35C204.858 195.578 204.51 195.92 204.246 196.376C203.982 196.82 203.85 197.378 203.85 198.05V198.554C203.85 199.298 203.982 199.922 204.246 200.426C204.522 200.93 204.876 201.308 205.308 201.56C205.752 201.812 206.226 201.938 206.73 201.938C207.366 201.938 207.888 201.8 208.296 201.524C208.716 201.236 209.016 200.852 209.196 200.372H210.69C210.546 200.912 210.294 201.398 209.934 201.83C209.574 202.262 209.124 202.604 208.584 202.856C208.056 203.096 207.438 203.216 206.73 203.216ZM212.983 203V193.928H214.351L214.423 195.512C214.711 194.948 215.119 194.51 215.647 194.198C216.187 193.874 216.799 193.712 217.483 193.712C218.191 193.712 218.803 193.856 219.319 194.144C219.835 194.42 220.237 194.846 220.525 195.422C220.813 195.986 220.957 196.706 220.957 197.582V203H219.445V197.744C219.445 196.832 219.241 196.148 218.833 195.692C218.437 195.236 217.873 195.008 217.141 195.008C216.637 195.008 216.187 195.134 215.791 195.386C215.395 195.626 215.077 195.98 214.837 196.448C214.609 196.904 214.495 197.474 214.495 198.158V203H212.983ZM226.739 203.216C225.983 203.216 225.323 203.09 224.759 202.838C224.207 202.586 223.763 202.238 223.427 201.794C223.103 201.338 222.905 200.804 222.833 200.192H224.381C224.441 200.504 224.567 200.792 224.759 201.056C224.951 201.32 225.209 201.536 225.533 201.704C225.869 201.86 226.277 201.938 226.757 201.938C227.177 201.938 227.525 201.878 227.801 201.758C228.077 201.626 228.281 201.452 228.413 201.236C228.557 201.02 228.629 200.786 228.629 200.534C228.629 200.162 228.539 199.88 228.359 199.688C228.191 199.496 227.939 199.346 227.603 199.238C227.267 199.118 226.859 199.016 226.379 198.932C225.983 198.86 225.593 198.764 225.209 198.644C224.825 198.524 224.483 198.368 224.183 198.176C223.883 197.972 223.643 197.726 223.463 197.438C223.295 197.15 223.211 196.796 223.211 196.376C223.211 195.86 223.343 195.404 223.607 195.008C223.871 194.6 224.249 194.282 224.741 194.054C225.245 193.826 225.827 193.712 226.487 193.712C227.459 193.712 228.245 193.946 228.845 194.414C229.445 194.882 229.799 195.56 229.907 196.448H228.413C228.353 195.992 228.155 195.638 227.819 195.386C227.495 195.122 227.045 194.99 226.469 194.99C225.905 194.99 225.473 195.104 225.173 195.332C224.885 195.56 224.741 195.86 224.741 196.232C224.741 196.472 224.819 196.688 224.975 196.88C225.143 197.06 225.383 197.216 225.695 197.348C226.019 197.48 226.415 197.588 226.883 197.672C227.483 197.78 228.029 197.924 228.521 198.104C229.013 198.284 229.409 198.554 229.709 198.914C230.021 199.262 230.177 199.76 230.177 200.408C230.177 200.972 230.033 201.464 229.745 201.884C229.469 202.304 229.073 202.634 228.557 202.874C228.041 203.102 227.435 203.216 226.739 203.216ZM235.648 203.216C234.952 203.216 234.34 203.078 233.812 202.802C233.296 202.526 232.894 202.1 232.606 201.524C232.33 200.948 232.192 200.228 232.192 199.364V193.928H233.704V199.202C233.704 200.102 233.902 200.78 234.298 201.236C234.694 201.692 235.252 201.92 235.972 201.92C236.476 201.92 236.932 201.8 237.34 201.56C237.748 201.308 238.066 200.954 238.294 200.498C238.534 200.03 238.654 199.46 238.654 198.788V193.928H240.166V203H238.798L238.708 201.416C238.432 201.98 238.024 202.424 237.484 202.748C236.944 203.06 236.332 203.216 235.648 203.216ZM242.672 203V193.928H244.04L244.148 195.656C244.352 195.248 244.61 194.9 244.922 194.612C245.246 194.324 245.63 194.102 246.074 193.946C246.53 193.79 247.046 193.712 247.622 193.712V195.296H247.064C246.68 195.296 246.314 195.35 245.966 195.458C245.618 195.554 245.306 195.716 245.03 195.944C244.766 196.172 244.556 196.484 244.4 196.88C244.256 197.264 244.184 197.744 244.184 198.32V203H242.672ZM252.978 203.216C252.126 203.216 251.37 203.018 250.71 202.622C250.062 202.226 249.552 201.674 249.18 200.966C248.808 200.246 248.622 199.412 248.622 198.464C248.622 197.504 248.802 196.67 249.162 195.962C249.534 195.254 250.05 194.702 250.71 194.306C251.382 193.91 252.15 193.712 253.014 193.712C253.902 193.712 254.652 193.91 255.264 194.306C255.888 194.702 256.362 195.224 256.686 195.872C257.022 196.508 257.19 197.21 257.19 197.978C257.19 198.098 257.19 198.224 257.19 198.356C257.19 198.488 257.184 198.638 257.172 198.806H249.756V197.636H255.714C255.678 196.808 255.402 196.16 254.886 195.692C254.382 195.224 253.746 194.99 252.978 194.99C252.462 194.99 251.982 195.11 251.538 195.35C251.106 195.578 250.758 195.92 250.494 196.376C250.23 196.82 250.098 197.378 250.098 198.05V198.554C250.098 199.298 250.23 199.922 250.494 200.426C250.77 200.93 251.124 201.308 251.556 201.56C252 201.812 252.474 201.938 252.978 201.938C253.614 201.938 254.136 201.8 254.544 201.524C254.964 201.236 255.264 200.852 255.444 200.372H256.938C256.794 200.912 256.542 201.398 256.182 201.83C255.822 202.262 255.372 202.604 254.832 202.856C254.304 203.096 253.686 203.216 252.978 203.216ZM25.824 226C25.284 226 24.816 225.916 24.42 225.748C24.024 225.58 23.718 225.298 23.502 224.902C23.298 224.494 23.196 223.948 23.196 223.264V218.206H21.612V216.928H23.196L23.394 214.732H24.708V216.928H27.336V218.206H24.708V223.264C24.708 223.828 24.822 224.212 25.05 224.416C25.278 224.608 25.68 224.704 26.256 224.704H27.228V226H25.824ZM29.3088 226V216.928H30.6768L30.7848 218.656C30.9888 218.248 31.2468 217.9 31.5588 217.612C31.8828 217.324 32.2668 217.102 32.7108 216.946C33.1668 216.79 33.6828 216.712 34.2588 216.712V218.296H33.7008C33.3168 218.296 32.9508 218.35 32.6028 218.458C32.2548 218.554 31.9428 218.716 31.6668 218.944C31.4028 219.172 31.1928 219.484 31.0368 219.88C30.8928 220.264 30.8208 220.744 30.8208 221.32V226H29.3088ZM38.9229 226.216C38.1909 226.216 37.5789 226.09 37.0869 225.838C36.5949 225.574 36.2289 225.232 35.9889 224.812C35.7489 224.38 35.6289 223.912 35.6289 223.408C35.6289 222.796 35.7849 222.28 36.0969 221.86C36.4209 221.428 36.8709 221.104 37.4469 220.888C38.0349 220.66 38.7249 220.546 39.5169 220.546H41.9109C41.9109 219.982 41.8209 219.514 41.6409 219.142C41.4729 218.758 41.2209 218.47 40.8849 218.278C40.5609 218.086 40.1529 217.99 39.6609 217.99C39.0849 217.99 38.5869 218.134 38.1669 218.422C37.7469 218.71 37.4889 219.136 37.3929 219.7H35.8449C35.9169 219.052 36.1329 218.512 36.4929 218.08C36.8649 217.636 37.3329 217.3 37.8969 217.072C38.4609 216.832 39.0489 216.712 39.6609 216.712C40.5009 216.712 41.1969 216.868 41.7489 217.18C42.3129 217.48 42.7329 217.906 43.0089 218.458C43.2849 218.998 43.4229 219.64 43.4229 220.384V226H42.0729L41.9829 224.398C41.8629 224.65 41.7069 224.89 41.5149 225.118C41.3349 225.334 41.1189 225.526 40.8669 225.694C40.6149 225.85 40.3269 225.976 40.0029 226.072C39.6909 226.168 39.3309 226.216 38.9229 226.216ZM39.1569 224.938C39.5769 224.938 39.9549 224.854 40.2909 224.686C40.6389 224.506 40.9329 224.266 41.1729 223.966C41.4129 223.654 41.5929 223.312 41.7129 222.94C41.8449 222.568 41.9109 222.178 41.9109 221.77V221.716H39.6429C39.0549 221.716 38.5809 221.788 38.2209 221.932C37.8609 222.064 37.6029 222.256 37.4469 222.508C37.2909 222.748 37.2129 223.024 37.2129 223.336C37.2129 223.66 37.2849 223.942 37.4289 224.182C37.5849 224.422 37.8069 224.608 38.0949 224.74C38.3949 224.872 38.7489 224.938 39.1569 224.938ZM45.762 226V216.928H47.13L47.202 218.512C47.49 217.948 47.898 217.51 48.426 217.198C48.966 216.874 49.578 216.712 50.262 216.712C50.97 216.712 51.582 216.856 52.098 217.144C52.614 217.42 53.016 217.846 53.304 218.422C53.592 218.986 53.736 219.706 53.736 220.582V226H52.224V220.744C52.224 219.832 52.02 219.148 51.612 218.692C51.216 218.236 50.652 218.008 49.92 218.008C49.416 218.008 48.966 218.134 48.57 218.386C48.174 218.626 47.856 218.98 47.616 219.448C47.388 219.904 47.274 220.474 47.274 221.158V226H45.762ZM59.5179 226.216C58.7619 226.216 58.1019 226.09 57.5379 225.838C56.9859 225.586 56.5419 225.238 56.2059 224.794C55.8819 224.338 55.6839 223.804 55.6119 223.192H57.1599C57.2199 223.504 57.3459 223.792 57.5379 224.056C57.7299 224.32 57.9879 224.536 58.3119 224.704C58.6479 224.86 59.0559 224.938 59.5359 224.938C59.9559 224.938 60.3039 224.878 60.5799 224.758C60.8559 224.626 61.0599 224.452 61.1919 224.236C61.3359 224.02 61.4079 223.786 61.4079 223.534C61.4079 223.162 61.3179 222.88 61.1379 222.688C60.9699 222.496 60.7179 222.346 60.3819 222.238C60.0459 222.118 59.6379 222.016 59.1579 221.932C58.7619 221.86 58.3719 221.764 57.9879 221.644C57.6039 221.524 57.2619 221.368 56.9619 221.176C56.6619 220.972 56.4219 220.726 56.2419 220.438C56.0739 220.15 55.9899 219.796 55.9899 219.376C55.9899 218.86 56.1219 218.404 56.3859 218.008C56.6499 217.6 57.0279 217.282 57.5199 217.054C58.0239 216.826 58.6059 216.712 59.2659 216.712C60.2379 216.712 61.0239 216.946 61.6239 217.414C62.2239 217.882 62.5779 218.56 62.6859 219.448H61.1919C61.1319 218.992 60.9339 218.638 60.5979 218.386C60.2739 218.122 59.8239 217.99 59.2479 217.99C58.6839 217.99 58.2519 218.104 57.9519 218.332C57.6639 218.56 57.5199 218.86 57.5199 219.232C57.5199 219.472 57.5979 219.688 57.7539 219.88C57.9219 220.06 58.1619 220.216 58.4739 220.348C58.7979 220.48 59.1939 220.588 59.6619 220.672C60.2619 220.78 60.8079 220.924 61.2999 221.104C61.7919 221.284 62.1879 221.554 62.4879 221.914C62.7999 222.262 62.9559 222.76 62.9559 223.408C62.9559 223.972 62.8119 224.464 62.5239 224.884C62.2479 225.304 61.8519 225.634 61.3359 225.874C60.8199 226.102 60.2139 226.216 59.5179 226.216ZM65.133 229.96V216.928H66.501L66.627 218.404C66.819 218.116 67.065 217.846 67.365 217.594C67.665 217.33 68.025 217.12 68.445 216.964C68.865 216.796 69.345 216.712 69.885 216.712C70.773 216.712 71.541 216.922 72.189 217.342C72.849 217.762 73.359 218.332 73.719 219.052C74.091 219.76 74.277 220.57 74.277 221.482C74.277 222.394 74.091 223.21 73.719 223.93C73.359 224.638 72.849 225.196 72.189 225.604C71.529 226.012 70.755 226.216 69.867 226.216C69.135 226.216 68.487 226.066 67.923 225.766C67.371 225.466 66.945 225.046 66.645 224.506V229.96H65.133ZM69.705 224.902C70.293 224.902 70.815 224.758 71.271 224.47C71.727 224.182 72.081 223.786 72.333 223.282C72.597 222.766 72.729 222.16 72.729 221.464C72.729 220.78 72.597 220.18 72.333 219.664C72.081 219.148 71.727 218.746 71.271 218.458C70.815 218.17 70.293 218.026 69.705 218.026C69.105 218.026 68.577 218.17 68.121 218.458C67.665 218.746 67.311 219.148 67.059 219.664C66.807 220.18 66.681 220.78 66.681 221.464C66.681 222.16 66.807 222.766 67.059 223.282C67.311 223.786 67.665 224.182 68.121 224.47C68.577 224.758 69.105 224.902 69.705 224.902ZM79.3526 226.216C78.6206 226.216 78.0086 226.09 77.5166 225.838C77.0246 225.574 76.6586 225.232 76.4186 224.812C76.1786 224.38 76.0586 223.912 76.0586 223.408C76.0586 222.796 76.2146 222.28 76.5266 221.86C76.8506 221.428 77.3006 221.104 77.8766 220.888C78.4646 220.66 79.1546 220.546 79.9466 220.546H82.3406C82.3406 219.982 82.2506 219.514 82.0706 219.142C81.9026 218.758 81.6506 218.47 81.3146 218.278C80.9906 218.086 80.5826 217.99 80.0906 217.99C79.5146 217.99 79.0166 218.134 78.5966 218.422C78.1766 218.71 77.9186 219.136 77.8226 219.7H76.2746C76.3466 219.052 76.5626 218.512 76.9226 218.08C77.2946 217.636 77.7626 217.3 78.3266 217.072C78.8906 216.832 79.4786 216.712 80.0906 216.712C80.9306 216.712 81.6266 216.868 82.1786 217.18C82.7426 217.48 83.1626 217.906 83.4386 218.458C83.7146 218.998 83.8526 219.64 83.8526 220.384V226H82.5026L82.4126 224.398C82.2926 224.65 82.1366 224.89 81.9446 225.118C81.7646 225.334 81.5486 225.526 81.2966 225.694C81.0446 225.85 80.7566 225.976 80.4326 226.072C80.1206 226.168 79.7606 226.216 79.3526 226.216ZM79.5866 224.938C80.0066 224.938 80.3846 224.854 80.7206 224.686C81.0686 224.506 81.3626 224.266 81.6026 223.966C81.8426 223.654 82.0226 223.312 82.1426 222.94C82.2746 222.568 82.3406 222.178 82.3406 221.77V221.716H80.0726C79.4846 221.716 79.0106 221.788 78.6506 221.932C78.2906 222.064 78.0326 222.256 77.8766 222.508C77.7206 222.748 77.6426 223.024 77.6426 223.336C77.6426 223.66 77.7146 223.942 77.8586 224.182C78.0146 224.422 78.2366 224.608 78.5246 224.74C78.8246 224.872 79.1786 224.938 79.5866 224.938ZM86.1916 226V216.928H87.5596L87.6676 218.656C87.8716 218.248 88.1296 217.9 88.4416 217.612C88.7656 217.324 89.1496 217.102 89.5936 216.946C90.0496 216.79 90.5656 216.712 91.1416 216.712V218.296H90.5836C90.1996 218.296 89.8336 218.35 89.4856 218.458C89.1376 218.554 88.8256 218.716 88.5496 218.944C88.2856 219.172 88.0756 219.484 87.9196 219.88C87.7756 220.264 87.7036 220.744 87.7036 221.32V226H86.1916ZM96.4978 226.216C95.6458 226.216 94.8898 226.018 94.2298 225.622C93.5818 225.226 93.0718 224.674 92.6998 223.966C92.3278 223.246 92.1418 222.412 92.1418 221.464C92.1418 220.504 92.3218 219.67 92.6818 218.962C93.0538 218.254 93.5698 217.702 94.2298 217.306C94.9018 216.91 95.6698 216.712 96.5338 216.712C97.4218 216.712 98.1718 216.91 98.7838 217.306C99.4078 217.702 99.8818 218.224 100.206 218.872C100.542 219.508 100.71 220.21 100.71 220.978C100.71 221.098 100.71 221.224 100.71 221.356C100.71 221.488 100.704 221.638 100.692 221.806H93.2758V220.636H99.2338C99.1978 219.808 98.9218 219.16 98.4058 218.692C97.9018 218.224 97.2658 217.99 96.4978 217.99C95.9818 217.99 95.5018 218.11 95.0578 218.35C94.6258 218.578 94.2778 218.92 94.0138 219.376C93.7498 219.82 93.6178 220.378 93.6178 221.05V221.554C93.6178 222.298 93.7498 222.922 94.0138 223.426C94.2898 223.93 94.6438 224.308 95.0758 224.56C95.5198 224.812 95.9938 224.938 96.4978 224.938C97.1338 224.938 97.6558 224.8 98.0638 224.524C98.4838 224.236 98.7838 223.852 98.9638 223.372H100.458C100.314 223.912 100.062 224.398 99.7018 224.83C99.3418 225.262 98.8918 225.604 98.3518 225.856C97.8238 226.096 97.2058 226.216 96.4978 226.216ZM102.75 226V216.928H104.118L104.19 218.512C104.478 217.948 104.886 217.51 105.414 217.198C105.954 216.874 106.566 216.712 107.25 216.712C107.958 216.712 108.57 216.856 109.086 217.144C109.602 217.42 110.004 217.846 110.292 218.422C110.58 218.986 110.724 219.706 110.724 220.582V226H109.212V220.744C109.212 219.832 109.008 219.148 108.6 218.692C108.204 218.236 107.64 218.008 106.908 218.008C106.404 218.008 105.954 218.134 105.558 218.386C105.162 218.626 104.844 218.98 104.604 219.448C104.376 219.904 104.262 220.474 104.262 221.158V226H102.75ZM116.65 226C116.11 226 115.642 225.916 115.246 225.748C114.85 225.58 114.544 225.298 114.328 224.902C114.124 224.494 114.022 223.948 114.022 223.264V218.206H112.438V216.928H114.022L114.22 214.732H115.534V216.928H118.162V218.206H115.534V223.264C115.534 223.828 115.648 224.212 115.876 224.416C116.104 224.608 116.506 224.704 117.082 224.704H118.054V226H116.65ZM119.879 228.214L120.923 224.236H122.489L120.923 228.214H119.879ZM132.537 226.216C131.781 226.216 131.121 226.09 130.557 225.838C130.005 225.586 129.561 225.238 129.225 224.794C128.901 224.338 128.703 223.804 128.631 223.192H130.179C130.239 223.504 130.365 223.792 130.557 224.056C130.749 224.32 131.007 224.536 131.331 224.704C131.667 224.86 132.075 224.938 132.555 224.938C132.975 224.938 133.323 224.878 133.599 224.758C133.875 224.626 134.079 224.452 134.211 224.236C134.355 224.02 134.427 223.786 134.427 223.534C134.427 223.162 134.337 222.88 134.157 222.688C133.989 222.496 133.737 222.346 133.401 222.238C133.065 222.118 132.657 222.016 132.177 221.932C131.781 221.86 131.391 221.764 131.007 221.644C130.623 221.524 130.281 221.368 129.981 221.176C129.681 220.972 129.441 220.726 129.261 220.438C129.093 220.15 129.009 219.796 129.009 219.376C129.009 218.86 129.141 218.404 129.405 218.008C129.669 217.6 130.047 217.282 130.539 217.054C131.043 216.826 131.625 216.712 132.285 216.712C133.257 216.712 134.043 216.946 134.643 217.414C135.243 217.882 135.597 218.56 135.705 219.448H134.211C134.151 218.992 133.953 218.638 133.617 218.386C133.293 218.122 132.843 217.99 132.267 217.99C131.703 217.99 131.271 218.104 130.971 218.332C130.683 218.56 130.539 218.86 130.539 219.232C130.539 219.472 130.617 219.688 130.773 219.88C130.941 220.06 131.181 220.216 131.493 220.348C131.817 220.48 132.213 220.588 132.681 220.672C133.281 220.78 133.827 220.924 134.319 221.104C134.811 221.284 135.207 221.554 135.507 221.914C135.819 222.262 135.975 222.76 135.975 223.408C135.975 223.972 135.831 224.464 135.543 224.884C135.267 225.304 134.871 225.634 134.355 225.874C133.839 226.102 133.233 226.216 132.537 226.216ZM142.131 226.216C141.279 226.216 140.523 226.018 139.863 225.622C139.215 225.226 138.705 224.674 138.333 223.966C137.961 223.246 137.775 222.412 137.775 221.464C137.775 220.504 137.955 219.67 138.315 218.962C138.687 218.254 139.203 217.702 139.863 217.306C140.535 216.91 141.303 216.712 142.167 216.712C143.055 216.712 143.805 216.91 144.417 217.306C145.041 217.702 145.515 218.224 145.839 218.872C146.175 219.508 146.343 220.21 146.343 220.978C146.343 221.098 146.343 221.224 146.343 221.356C146.343 221.488 146.337 221.638 146.325 221.806H138.909V220.636H144.867C144.831 219.808 144.555 219.16 144.039 218.692C143.535 218.224 142.899 217.99 142.131 217.99C141.615 217.99 141.135 218.11 140.691 218.35C140.259 218.578 139.911 218.92 139.647 219.376C139.383 219.82 139.251 220.378 139.251 221.05V221.554C139.251 222.298 139.383 222.922 139.647 223.426C139.923 223.93 140.277 224.308 140.709 224.56C141.153 224.812 141.627 224.938 142.131 224.938C142.767 224.938 143.289 224.8 143.697 224.524C144.117 224.236 144.417 223.852 144.597 223.372H146.091C145.947 223.912 145.695 224.398 145.335 224.83C144.975 225.262 144.525 225.604 143.985 225.856C143.457 226.096 142.839 226.216 142.131 226.216ZM152.469 226.216C151.617 226.216 150.849 226.018 150.165 225.622C149.493 225.226 148.965 224.674 148.581 223.966C148.197 223.246 148.005 222.418 148.005 221.482C148.005 220.522 148.197 219.688 148.581 218.98C148.965 218.272 149.493 217.72 150.165 217.324C150.849 216.916 151.617 216.712 152.469 216.712C153.549 216.712 154.449 216.994 155.169 217.558C155.889 218.11 156.345 218.854 156.537 219.79H154.989C154.869 219.226 154.575 218.788 154.107 218.476C153.639 218.164 153.087 218.008 152.451 218.008C151.935 218.008 151.455 218.14 151.011 218.404C150.567 218.656 150.213 219.04 149.949 219.556C149.685 220.072 149.553 220.708 149.553 221.464C149.553 222.028 149.631 222.532 149.787 222.976C149.943 223.408 150.153 223.768 150.417 224.056C150.681 224.344 150.987 224.566 151.335 224.722C151.695 224.866 152.067 224.938 152.451 224.938C152.883 224.938 153.273 224.872 153.621 224.74C153.969 224.596 154.263 224.386 154.503 224.11C154.743 223.834 154.905 223.51 154.989 223.138H156.537C156.345 224.05 155.883 224.794 155.151 225.37C154.431 225.934 153.537 226.216 152.469 226.216ZM161.978 226.216C161.282 226.216 160.67 226.078 160.142 225.802C159.626 225.526 159.224 225.1 158.936 224.524C158.66 223.948 158.522 223.228 158.522 222.364V216.928H160.034V222.202C160.034 223.102 160.232 223.78 160.628 224.236C161.024 224.692 161.582 224.92 162.302 224.92C162.806 224.92 163.262 224.8 163.67 224.56C164.078 224.308 164.396 223.954 164.624 223.498C164.864 223.03 164.984 222.46 164.984 221.788V216.928H166.496V226H165.128L165.038 224.416C164.762 224.98 164.354 225.424 163.814 225.748C163.274 226.06 162.662 226.216 161.978 226.216ZM169.002 226V216.928H170.37L170.478 218.656C170.682 218.248 170.94 217.9 171.252 217.612C171.576 217.324 171.96 217.102 172.404 216.946C172.86 216.79 173.376 216.712 173.952 216.712V218.296H173.394C173.01 218.296 172.644 218.35 172.296 218.458C171.948 218.554 171.636 218.716 171.36 218.944C171.096 219.172 170.886 219.484 170.73 219.88C170.586 220.264 170.514 220.744 170.514 221.32V226H169.002ZM179.308 226.216C178.456 226.216 177.7 226.018 177.04 225.622C176.392 225.226 175.882 224.674 175.51 223.966C175.138 223.246 174.952 222.412 174.952 221.464C174.952 220.504 175.132 219.67 175.492 218.962C175.864 218.254 176.38 217.702 177.04 217.306C177.712 216.91 178.48 216.712 179.344 216.712C180.232 216.712 180.982 216.91 181.594 217.306C182.218 217.702 182.692 218.224 183.016 218.872C183.352 219.508 183.52 220.21 183.52 220.978C183.52 221.098 183.52 221.224 183.52 221.356C183.52 221.488 183.514 221.638 183.502 221.806H176.086V220.636H182.044C182.008 219.808 181.732 219.16 181.216 218.692C180.712 218.224 180.076 217.99 179.308 217.99C178.792 217.99 178.312 218.11 177.868 218.35C177.436 218.578 177.088 218.92 176.824 219.376C176.56 219.82 176.428 220.378 176.428 221.05V221.554C176.428 222.298 176.56 222.922 176.824 223.426C177.1 223.93 177.454 224.308 177.886 224.56C178.33 224.812 178.804 224.938 179.308 224.938C179.944 224.938 180.466 224.8 180.874 224.524C181.294 224.236 181.594 223.852 181.774 223.372H183.268C183.124 223.912 182.872 224.398 182.512 224.83C182.152 225.262 181.702 225.604 181.162 225.856C180.634 226.096 180.016 226.216 179.308 226.216ZM184.373 228.214L185.417 224.236H186.983L185.417 228.214H184.373ZM196.564 226.216C195.832 226.216 195.22 226.09 194.728 225.838C194.236 225.574 193.87 225.232 193.63 224.812C193.39 224.38 193.27 223.912 193.27 223.408C193.27 222.796 193.426 222.28 193.738 221.86C194.062 221.428 194.512 221.104 195.088 220.888C195.676 220.66 196.366 220.546 197.158 220.546H199.552C199.552 219.982 199.462 219.514 199.282 219.142C199.114 218.758 198.862 218.47 198.526 218.278C198.202 218.086 197.794 217.99 197.302 217.99C196.726 217.99 196.228 218.134 195.808 218.422C195.388 218.71 195.13 219.136 195.034 219.7H193.486C193.558 219.052 193.774 218.512 194.134 218.08C194.506 217.636 194.974 217.3 195.538 217.072C196.102 216.832 196.69 216.712 197.302 216.712C198.142 216.712 198.838 216.868 199.39 217.18C199.954 217.48 200.374 217.906 200.65 218.458C200.926 218.998 201.064 219.64 201.064 220.384V226H199.714L199.624 224.398C199.504 224.65 199.348 224.89 199.156 225.118C198.976 225.334 198.76 225.526 198.508 225.694C198.256 225.85 197.968 225.976 197.644 226.072C197.332 226.168 196.972 226.216 196.564 226.216ZM196.798 224.938C197.218 224.938 197.596 224.854 197.932 224.686C198.28 224.506 198.574 224.266 198.814 223.966C199.054 223.654 199.234 223.312 199.354 222.94C199.486 222.568 199.552 222.178 199.552 221.77V221.716H197.284C196.696 221.716 196.222 221.788 195.862 221.932C195.502 222.064 195.244 222.256 195.088 222.508C194.932 222.748 194.854 223.024 194.854 223.336C194.854 223.66 194.926 223.942 195.07 224.182C195.226 224.422 195.448 224.608 195.736 224.74C196.036 224.872 196.39 224.938 196.798 224.938ZM203.403 226V216.928H204.771L204.843 218.512C205.131 217.948 205.539 217.51 206.067 217.198C206.607 216.874 207.219 216.712 207.903 216.712C208.611 216.712 209.223 216.856 209.739 217.144C210.255 217.42 210.657 217.846 210.945 218.422C211.233 218.986 211.377 219.706 211.377 220.582V226H209.865V220.744C209.865 219.832 209.661 219.148 209.253 218.692C208.857 218.236 208.293 218.008 207.561 218.008C207.057 218.008 206.607 218.134 206.211 218.386C205.815 218.626 205.497 218.98 205.257 219.448C205.029 219.904 204.915 220.474 204.915 221.158V226H203.403ZM217.735 226.216C216.859 226.216 216.091 226.012 215.431 225.604C214.771 225.184 214.261 224.614 213.901 223.894C213.541 223.174 213.361 222.358 213.361 221.446C213.361 220.534 213.541 219.724 213.901 219.016C214.261 218.296 214.771 217.732 215.431 217.324C216.103 216.916 216.877 216.712 217.753 216.712C218.497 216.712 219.145 216.862 219.697 217.162C220.261 217.462 220.693 217.882 220.993 218.422V213.04H222.505V226H221.137L221.011 224.506C220.819 224.806 220.573 225.088 220.273 225.352C219.973 225.604 219.613 225.814 219.193 225.982C218.773 226.138 218.287 226.216 217.735 226.216ZM217.915 224.902C218.515 224.902 219.043 224.758 219.499 224.47C219.955 224.182 220.309 223.786 220.561 223.282C220.813 222.766 220.939 222.16 220.939 221.464C220.939 220.78 220.813 220.18 220.561 219.664C220.309 219.148 219.955 218.746 219.499 218.458C219.043 218.17 218.515 218.026 217.915 218.026C217.327 218.026 216.805 218.17 216.349 218.458C215.893 218.746 215.539 219.148 215.287 219.664C215.035 220.18 214.909 220.78 214.909 221.464C214.909 222.16 215.035 222.766 215.287 223.282C215.539 223.786 215.893 224.182 216.349 224.47C216.805 224.758 217.327 224.902 217.915 224.902ZM22.404 249V239.928H23.916V249H22.404ZM23.16 238.002C22.86 238.002 22.608 237.906 22.404 237.714C22.212 237.51 22.116 237.258 22.116 236.958C22.116 236.658 22.212 236.418 22.404 236.238C22.608 236.046 22.86 235.95 23.16 235.95C23.448 235.95 23.694 236.046 23.898 236.238C24.102 236.418 24.204 236.658 24.204 236.958C24.204 237.258 24.102 237.51 23.898 237.714C23.694 237.906 23.448 238.002 23.16 238.002ZM26.5842 249V239.928H27.9522L28.0242 241.512C28.3122 240.948 28.7202 240.51 29.2482 240.198C29.7882 239.874 30.4002 239.712 31.0842 239.712C31.7922 239.712 32.4042 239.856 32.9202 240.144C33.4362 240.42 33.8382 240.846 34.1262 241.422C34.4142 241.986 34.5582 242.706 34.5582 243.582V249H33.0462V243.744C33.0462 242.832 32.8422 242.148 32.4342 241.692C32.0382 241.236 31.4742 241.008 30.7422 241.008C30.2382 241.008 29.7882 241.134 29.3922 241.386C28.9962 241.626 28.6782 241.98 28.4382 242.448C28.2102 242.904 28.0962 243.474 28.0962 244.158V249H26.5842ZM40.9162 249.216C40.0402 249.216 39.2722 249.012 38.6122 248.604C37.9522 248.184 37.4422 247.614 37.0822 246.894C36.7222 246.174 36.5422 245.358 36.5422 244.446C36.5422 243.534 36.7222 242.724 37.0822 242.016C37.4422 241.296 37.9522 240.732 38.6122 240.324C39.2842 239.916 40.0582 239.712 40.9342 239.712C41.6782 239.712 42.3262 239.862 42.8782 240.162C43.4422 240.462 43.8742 240.882 44.1742 241.422V236.04H45.6862V249H44.3182L44.1922 247.506C44.0002 247.806 43.7542 248.088 43.4542 248.352C43.1542 248.604 42.7942 248.814 42.3742 248.982C41.9542 249.138 41.4682 249.216 40.9162 249.216ZM41.0962 247.902C41.6962 247.902 42.2242 247.758 42.6802 247.47C43.1362 247.182 43.4902 246.786 43.7422 246.282C43.9942 245.766 44.1202 245.16 44.1202 244.464C44.1202 243.78 43.9942 243.18 43.7422 242.664C43.4902 242.148 43.1362 241.746 42.6802 241.458C42.2242 241.17 41.6962 241.026 41.0962 241.026C40.5082 241.026 39.9862 241.17 39.5302 241.458C39.0742 241.746 38.7202 242.148 38.4682 242.664C38.2162 243.18 38.0902 243.78 38.0902 244.464C38.0902 245.16 38.2162 245.766 38.4682 246.282C38.7202 246.786 39.0742 247.182 39.5302 247.47C39.9862 247.758 40.5082 247.902 41.0962 247.902ZM52.1833 249.216C51.3313 249.216 50.5753 249.018 49.9153 248.622C49.2673 248.226 48.7573 247.674 48.3853 246.966C48.0133 246.246 47.8273 245.412 47.8273 244.464C47.8273 243.504 48.0073 242.67 48.3673 241.962C48.7393 241.254 49.2553 240.702 49.9153 240.306C50.5873 239.91 51.3553 239.712 52.2193 239.712C53.1073 239.712 53.8573 239.91 54.4693 240.306C55.0933 240.702 55.5673 241.224 55.8913 241.872C56.2273 242.508 56.3953 243.21 56.3953 243.978C56.3953 244.098 56.3953 244.224 56.3953 244.356C56.3953 244.488 56.3893 244.638 56.3773 244.806H48.9613V243.636H54.9193C54.8833 242.808 54.6073 242.16 54.0913 241.692C53.5873 241.224 52.9513 240.99 52.1833 240.99C51.6673 240.99 51.1873 241.11 50.7433 241.35C50.3113 241.578 49.9633 241.92 49.6993 242.376C49.4353 242.82 49.3033 243.378 49.3033 244.05V244.554C49.3033 245.298 49.4353 245.922 49.6993 246.426C49.9753 246.93 50.3293 247.308 50.7613 247.56C51.2053 247.812 51.6793 247.938 52.1833 247.938C52.8193 247.938 53.3413 247.8 53.7493 247.524C54.1693 247.236 54.4693 246.852 54.6493 246.372H56.1433C55.9993 246.912 55.7473 247.398 55.3873 247.83C55.0273 248.262 54.5773 248.604 54.0373 248.856C53.5093 249.096 52.8913 249.216 52.1833 249.216ZM58.4358 252.96V239.928H59.8038L59.9298 241.404C60.1218 241.116 60.3678 240.846 60.6678 240.594C60.9678 240.33 61.3278 240.12 61.7478 239.964C62.1678 239.796 62.6478 239.712 63.1878 239.712C64.0758 239.712 64.8438 239.922 65.4918 240.342C66.1518 240.762 66.6618 241.332 67.0218 242.052C67.3938 242.76 67.5798 243.57 67.5798 244.482C67.5798 245.394 67.3938 246.21 67.0218 246.93C66.6618 247.638 66.1518 248.196 65.4918 248.604C64.8318 249.012 64.0578 249.216 63.1698 249.216C62.4378 249.216 61.7898 249.066 61.2258 248.766C60.6738 248.466 60.2478 248.046 59.9478 247.506V252.96H58.4358ZM63.0078 247.902C63.5958 247.902 64.1178 247.758 64.5738 247.47C65.0298 247.182 65.3838 246.786 65.6358 246.282C65.8998 245.766 66.0318 245.16 66.0318 244.464C66.0318 243.78 65.8998 243.18 65.6358 242.664C65.3838 242.148 65.0298 241.746 64.5738 241.458C64.1178 241.17 63.5958 241.026 63.0078 241.026C62.4078 241.026 61.8798 241.17 61.4238 241.458C60.9678 241.746 60.6138 242.148 60.3618 242.664C60.1098 243.18 59.9838 243.78 59.9838 244.464C59.9838 245.16 60.1098 245.766 60.3618 246.282C60.6138 246.786 60.9678 247.182 61.4238 247.47C61.8798 247.758 62.4078 247.902 63.0078 247.902ZM73.6814 249.216C72.8294 249.216 72.0734 249.018 71.4134 248.622C70.7654 248.226 70.2554 247.674 69.8834 246.966C69.5114 246.246 69.3254 245.412 69.3254 244.464C69.3254 243.504 69.5054 242.67 69.8654 241.962C70.2374 241.254 70.7534 240.702 71.4134 240.306C72.0854 239.91 72.8534 239.712 73.7174 239.712C74.6054 239.712 75.3554 239.91 75.9674 240.306C76.5914 240.702 77.0654 241.224 77.3894 241.872C77.7254 242.508 77.8934 243.21 77.8934 243.978C77.8934 244.098 77.8934 244.224 77.8934 244.356C77.8934 244.488 77.8874 244.638 77.8754 244.806H70.4594V243.636H76.4174C76.3814 242.808 76.1054 242.16 75.5894 241.692C75.0854 241.224 74.4494 240.99 73.6814 240.99C73.1654 240.99 72.6854 241.11 72.2414 241.35C71.8094 241.578 71.4614 241.92 71.1974 242.376C70.9334 242.82 70.8014 243.378 70.8014 244.05V244.554C70.8014 245.298 70.9334 245.922 71.1974 246.426C71.4734 246.93 71.8274 247.308 72.2594 247.56C72.7034 247.812 73.1774 247.938 73.6814 247.938C74.3174 247.938 74.8394 247.8 75.2474 247.524C75.6674 247.236 75.9674 246.852 76.1474 246.372H77.6414C77.4974 246.912 77.2454 247.398 76.8854 247.83C76.5254 248.262 76.0754 248.604 75.5354 248.856C75.0074 249.096 74.3894 249.216 73.6814 249.216ZM79.9338 249V239.928H81.3018L81.3738 241.512C81.6618 240.948 82.0698 240.51 82.5978 240.198C83.1378 239.874 83.7498 239.712 84.4338 239.712C85.1418 239.712 85.7538 239.856 86.2698 240.144C86.7858 240.42 87.1878 240.846 87.4758 241.422C87.7638 241.986 87.9078 242.706 87.9078 243.582V249H86.3958V243.744C86.3958 242.832 86.1918 242.148 85.7838 241.692C85.3878 241.236 84.8238 241.008 84.0918 241.008C83.5878 241.008 83.1378 241.134 82.7418 241.386C82.3458 241.626 82.0278 241.98 81.7878 242.448C81.5598 242.904 81.4458 243.474 81.4458 244.158V249H79.9338ZM94.2658 249.216C93.3898 249.216 92.6218 249.012 91.9618 248.604C91.3018 248.184 90.7918 247.614 90.4318 246.894C90.0718 246.174 89.8918 245.358 89.8918 244.446C89.8918 243.534 90.0718 242.724 90.4318 242.016C90.7918 241.296 91.3018 240.732 91.9618 240.324C92.6338 239.916 93.4078 239.712 94.2838 239.712C95.0278 239.712 95.6758 239.862 96.2278 240.162C96.7918 240.462 97.2238 240.882 97.5238 241.422V236.04H99.0358V249H97.6678L97.5418 247.506C97.3498 247.806 97.1038 248.088 96.8038 248.352C96.5038 248.604 96.1438 248.814 95.7238 248.982C95.3038 249.138 94.8178 249.216 94.2658 249.216ZM94.4458 247.902C95.0458 247.902 95.5738 247.758 96.0298 247.47C96.4858 247.182 96.8398 246.786 97.0918 246.282C97.3438 245.766 97.4698 245.16 97.4698 244.464C97.4698 243.78 97.3438 243.18 97.0918 242.664C96.8398 242.148 96.4858 241.746 96.0298 241.458C95.5738 241.17 95.0458 241.026 94.4458 241.026C93.8578 241.026 93.3358 241.17 92.8798 241.458C92.4238 241.746 92.0698 242.148 91.8178 242.664C91.5658 243.18 91.4398 243.78 91.4398 244.464C91.4398 245.16 91.5658 245.766 91.8178 246.282C92.0698 246.786 92.4238 247.182 92.8798 247.47C93.3358 247.758 93.8578 247.902 94.4458 247.902ZM105.533 249.216C104.681 249.216 103.925 249.018 103.265 248.622C102.617 248.226 102.107 247.674 101.735 246.966C101.363 246.246 101.177 245.412 101.177 244.464C101.177 243.504 101.357 242.67 101.717 241.962C102.089 241.254 102.605 240.702 103.265 240.306C103.937 239.91 104.705 239.712 105.569 239.712C106.457 239.712 107.207 239.91 107.819 240.306C108.443 240.702 108.917 241.224 109.241 241.872C109.577 242.508 109.745 243.21 109.745 243.978C109.745 244.098 109.745 244.224 109.745 244.356C109.745 244.488 109.739 244.638 109.727 244.806H102.311V243.636H108.269C108.233 242.808 107.957 242.16 107.441 241.692C106.937 241.224 106.301 240.99 105.533 240.99C105.017 240.99 104.537 241.11 104.093 241.35C103.661 241.578 103.313 241.92 103.049 242.376C102.785 242.82 102.653 243.378 102.653 244.05V244.554C102.653 245.298 102.785 245.922 103.049 246.426C103.325 246.93 103.679 247.308 104.111 247.56C104.555 247.812 105.029 247.938 105.533 247.938C106.169 247.938 106.691 247.8 107.099 247.524C107.519 247.236 107.819 246.852 107.999 246.372H109.493C109.349 246.912 109.097 247.398 108.737 247.83C108.377 248.262 107.927 248.604 107.387 248.856C106.859 249.096 106.241 249.216 105.533 249.216ZM111.785 249V239.928H113.153L113.225 241.512C113.513 240.948 113.921 240.51 114.449 240.198C114.989 239.874 115.601 239.712 116.285 239.712C116.993 239.712 117.605 239.856 118.121 240.144C118.637 240.42 119.039 240.846 119.327 241.422C119.615 241.986 119.759 242.706 119.759 243.582V249H118.247V243.744C118.247 242.832 118.043 242.148 117.635 241.692C117.239 241.236 116.675 241.008 115.943 241.008C115.439 241.008 114.989 241.134 114.593 241.386C114.197 241.626 113.879 241.98 113.639 242.448C113.411 242.904 113.297 243.474 113.297 244.158V249H111.785ZM125.685 249C125.145 249 124.677 248.916 124.281 248.748C123.885 248.58 123.579 248.298 123.363 247.902C123.159 247.494 123.057 246.948 123.057 246.264V241.206H121.473V239.928H123.057L123.255 237.732H124.569V239.928H127.197V241.206H124.569V246.264C124.569 246.828 124.683 247.212 124.911 247.416C125.139 247.608 125.541 247.704 126.117 247.704H127.089V249H125.685ZM133.951 252.96V239.928H135.319L135.445 241.404C135.637 241.116 135.883 240.846 136.183 240.594C136.483 240.33 136.843 240.12 137.263 239.964C137.683 239.796 138.163 239.712 138.703 239.712C139.591 239.712 140.359 239.922 141.007 240.342C141.667 240.762 142.177 241.332 142.537 242.052C142.909 242.76 143.095 243.57 143.095 244.482C143.095 245.394 142.909 246.21 142.537 246.93C142.177 247.638 141.667 248.196 141.007 248.604C140.347 249.012 139.573 249.216 138.685 249.216C137.953 249.216 137.305 249.066 136.741 248.766C136.189 248.466 135.763 248.046 135.463 247.506V252.96H133.951ZM138.523 247.902C139.111 247.902 139.633 247.758 140.089 247.47C140.545 247.182 140.899 246.786 141.151 246.282C141.415 245.766 141.547 245.16 141.547 244.464C141.547 243.78 141.415 243.18 141.151 242.664C140.899 242.148 140.545 241.746 140.089 241.458C139.633 241.17 139.111 241.026 138.523 241.026C137.923 241.026 137.395 241.17 136.939 241.458C136.483 241.746 136.129 242.148 135.877 242.664C135.625 243.18 135.499 243.78 135.499 244.464C135.499 245.16 135.625 245.766 135.877 246.282C136.129 246.786 136.483 247.182 136.939 247.47C137.395 247.758 137.923 247.902 138.523 247.902ZM145.219 249V239.928H146.587L146.695 241.656C146.899 241.248 147.157 240.9 147.469 240.612C147.793 240.324 148.177 240.102 148.621 239.946C149.077 239.79 149.593 239.712 150.169 239.712V241.296H149.611C149.227 241.296 148.861 241.35 148.513 241.458C148.165 241.554 147.853 241.716 147.577 241.944C147.313 242.172 147.103 242.484 146.947 242.88C146.803 243.264 146.731 243.744 146.731 244.32V249H145.219ZM155.597 249.216C154.757 249.216 154.001 249.024 153.329 248.64C152.657 248.244 152.129 247.692 151.745 246.984C151.361 246.264 151.169 245.43 151.169 244.482C151.169 243.51 151.361 242.67 151.745 241.962C152.141 241.242 152.675 240.69 153.347 240.306C154.031 239.91 154.793 239.712 155.633 239.712C156.497 239.712 157.259 239.91 157.919 240.306C158.591 240.69 159.119 241.242 159.503 241.962C159.899 242.67 160.097 243.504 160.097 244.464C160.097 245.424 159.899 246.264 159.503 246.984C159.107 247.692 158.573 248.244 157.901 248.64C157.229 249.024 156.461 249.216 155.597 249.216ZM155.615 247.92C156.131 247.92 156.611 247.794 157.055 247.542C157.499 247.278 157.859 246.888 158.135 246.372C158.411 245.856 158.549 245.22 158.549 244.464C158.549 243.696 158.411 243.06 158.135 242.556C157.871 242.04 157.517 241.656 157.073 241.404C156.641 241.14 156.161 241.008 155.633 241.008C155.129 241.008 154.649 241.14 154.193 241.404C153.749 241.656 153.389 242.04 153.113 242.556C152.849 243.06 152.717 243.696 152.717 244.464C152.717 245.22 152.849 245.856 153.113 246.372C153.389 246.888 153.743 247.278 154.175 247.542C154.619 247.794 155.099 247.92 155.615 247.92ZM166.303 249.216C165.451 249.216 164.683 249.018 163.999 248.622C163.327 248.226 162.799 247.674 162.415 246.966C162.031 246.246 161.839 245.418 161.839 244.482C161.839 243.522 162.031 242.688 162.415 241.98C162.799 241.272 163.327 240.72 163.999 240.324C164.683 239.916 165.451 239.712 166.303 239.712C167.383 239.712 168.283 239.994 169.003 240.558C169.723 241.11 170.179 241.854 170.371 242.79H168.823C168.703 242.226 168.409 241.788 167.941 241.476C167.473 241.164 166.921 241.008 166.285 241.008C165.769 241.008 165.289 241.14 164.845 241.404C164.401 241.656 164.047 242.04 163.783 242.556C163.519 243.072 163.387 243.708 163.387 244.464C163.387 245.028 163.465 245.532 163.621 245.976C163.777 246.408 163.987 246.768 164.251 247.056C164.515 247.344 164.821 247.566 165.169 247.722C165.529 247.866 165.901 247.938 166.285 247.938C166.717 247.938 167.107 247.872 167.455 247.74C167.803 247.596 168.097 247.386 168.337 247.11C168.577 246.834 168.739 246.51 168.823 246.138H170.371C170.179 247.05 169.717 247.794 168.985 248.37C168.265 248.934 167.371 249.216 166.303 249.216ZM176.496 249.216C175.644 249.216 174.888 249.018 174.228 248.622C173.58 248.226 173.07 247.674 172.698 246.966C172.326 246.246 172.14 245.412 172.14 244.464C172.14 243.504 172.32 242.67 172.68 241.962C173.052 241.254 173.568 240.702 174.228 240.306C174.9 239.91 175.668 239.712 176.532 239.712C177.42 239.712 178.17 239.91 178.782 240.306C179.406 240.702 179.88 241.224 180.204 241.872C180.54 242.508 180.708 243.21 180.708 243.978C180.708 244.098 180.708 244.224 180.708 244.356C180.708 244.488 180.702 244.638 180.69 244.806H173.274V243.636H179.232C179.196 242.808 178.92 242.16 178.404 241.692C177.9 241.224 177.264 240.99 176.496 240.99C175.98 240.99 175.5 241.11 175.056 241.35C174.624 241.578 174.276 241.92 174.012 242.376C173.748 242.82 173.616 243.378 173.616 244.05V244.554C173.616 245.298 173.748 245.922 174.012 246.426C174.288 246.93 174.642 247.308 175.074 247.56C175.518 247.812 175.992 247.938 176.496 247.938C177.132 247.938 177.654 247.8 178.062 247.524C178.482 247.236 178.782 246.852 178.962 246.372H180.456C180.312 246.912 180.06 247.398 179.7 247.83C179.34 248.262 178.89 248.604 178.35 248.856C177.822 249.096 177.204 249.216 176.496 249.216ZM186.168 249.216C185.412 249.216 184.752 249.09 184.188 248.838C183.636 248.586 183.192 248.238 182.856 247.794C182.532 247.338 182.334 246.804 182.262 246.192H183.81C183.87 246.504 183.996 246.792 184.188 247.056C184.38 247.32 184.638 247.536 184.962 247.704C185.298 247.86 185.706 247.938 186.186 247.938C186.606 247.938 186.954 247.878 187.23 247.758C187.506 247.626 187.71 247.452 187.842 247.236C187.986 247.02 188.058 246.786 188.058 246.534C188.058 246.162 187.968 245.88 187.788 245.688C187.62 245.496 187.368 245.346 187.032 245.238C186.696 245.118 186.288 245.016 185.808 244.932C185.412 244.86 185.022 244.764 184.638 244.644C184.254 244.524 183.912 244.368 183.612 244.176C183.312 243.972 183.072 243.726 182.892 243.438C182.724 243.15 182.64 242.796 182.64 242.376C182.64 241.86 182.772 241.404 183.036 241.008C183.3 240.6 183.678 240.282 184.17 240.054C184.674 239.826 185.256 239.712 185.916 239.712C186.888 239.712 187.674 239.946 188.274 240.414C188.874 240.882 189.228 241.56 189.336 242.448H187.842C187.782 241.992 187.584 241.638 187.248 241.386C186.924 241.122 186.474 240.99 185.898 240.99C185.334 240.99 184.902 241.104 184.602 241.332C184.314 241.56 184.17 241.86 184.17 242.232C184.17 242.472 184.248 242.688 184.404 242.88C184.572 243.06 184.812 243.216 185.124 243.348C185.448 243.48 185.844 243.588 186.312 243.672C186.912 243.78 187.458 243.924 187.95 244.104C188.442 244.284 188.838 244.554 189.138 244.914C189.45 245.262 189.606 245.76 189.606 246.408C189.606 246.972 189.462 247.464 189.174 247.884C188.898 248.304 188.502 248.634 187.986 248.874C187.47 249.102 186.864 249.216 186.168 249.216ZM195.203 249.216C194.447 249.216 193.787 249.09 193.223 248.838C192.671 248.586 192.227 248.238 191.891 247.794C191.567 247.338 191.369 246.804 191.297 246.192H192.845C192.905 246.504 193.031 246.792 193.223 247.056C193.415 247.32 193.673 247.536 193.997 247.704C194.333 247.86 194.741 247.938 195.221 247.938C195.641 247.938 195.989 247.878 196.265 247.758C196.541 247.626 196.745 247.452 196.877 247.236C197.021 247.02 197.093 246.786 197.093 246.534C197.093 246.162 197.003 245.88 196.823 245.688C196.655 245.496 196.403 245.346 196.067 245.238C195.731 245.118 195.323 245.016 194.843 244.932C194.447 244.86 194.057 244.764 193.673 244.644C193.289 244.524 192.947 244.368 192.647 244.176C192.347 243.972 192.107 243.726 191.927 243.438C191.759 243.15 191.675 242.796 191.675 242.376C191.675 241.86 191.807 241.404 192.071 241.008C192.335 240.6 192.713 240.282 193.205 240.054C193.709 239.826 194.291 239.712 194.951 239.712C195.923 239.712 196.709 239.946 197.309 240.414C197.909 240.882 198.263 241.56 198.371 242.448H196.877C196.817 241.992 196.619 241.638 196.283 241.386C195.959 241.122 195.509 240.99 194.933 240.99C194.369 240.99 193.937 241.104 193.637 241.332C193.349 241.56 193.205 241.86 193.205 242.232C193.205 242.472 193.283 242.688 193.439 242.88C193.607 243.06 193.847 243.216 194.159 243.348C194.483 243.48 194.879 243.588 195.347 243.672C195.947 243.78 196.493 243.924 196.985 244.104C197.477 244.284 197.873 244.554 198.173 244.914C198.485 245.262 198.641 245.76 198.641 246.408C198.641 246.972 198.497 247.464 198.209 247.884C197.933 248.304 197.537 248.634 197.021 248.874C196.505 249.102 195.899 249.216 195.203 249.216ZM204.797 249.216C203.945 249.216 203.189 249.018 202.529 248.622C201.881 248.226 201.371 247.674 200.999 246.966C200.627 246.246 200.441 245.412 200.441 244.464C200.441 243.504 200.621 242.67 200.981 241.962C201.353 241.254 201.869 240.702 202.529 240.306C203.201 239.91 203.969 239.712 204.833 239.712C205.721 239.712 206.471 239.91 207.083 240.306C207.707 240.702 208.181 241.224 208.505 241.872C208.841 242.508 209.009 243.21 209.009 243.978C209.009 244.098 209.009 244.224 209.009 244.356C209.009 244.488 209.003 244.638 208.991 244.806H201.575V243.636H207.533C207.497 242.808 207.221 242.16 206.705 241.692C206.201 241.224 205.565 240.99 204.797 240.99C204.281 240.99 203.801 241.11 203.357 241.35C202.925 241.578 202.577 241.92 202.313 242.376C202.049 242.82 201.917 243.378 201.917 244.05V244.554C201.917 245.298 202.049 245.922 202.313 246.426C202.589 246.93 202.943 247.308 203.375 247.56C203.819 247.812 204.293 247.938 204.797 247.938C205.433 247.938 205.955 247.8 206.363 247.524C206.783 247.236 207.083 246.852 207.263 246.372H208.757C208.613 246.912 208.361 247.398 208.001 247.83C207.641 248.262 207.191 248.604 206.651 248.856C206.123 249.096 205.505 249.216 204.797 249.216ZM214.469 249.216C213.713 249.216 213.053 249.09 212.489 248.838C211.937 248.586 211.493 248.238 211.157 247.794C210.833 247.338 210.635 246.804 210.563 246.192H212.111C212.171 246.504 212.297 246.792 212.489 247.056C212.681 247.32 212.939 247.536 213.263 247.704C213.599 247.86 214.007 247.938 214.487 247.938C214.907 247.938 215.255 247.878 215.531 247.758C215.807 247.626 216.011 247.452 216.143 247.236C216.287 247.02 216.359 246.786 216.359 246.534C216.359 246.162 216.269 245.88 216.089 245.688C215.921 245.496 215.669 245.346 215.333 245.238C214.997 245.118 214.589 245.016 214.109 244.932C213.713 244.86 213.323 244.764 212.939 244.644C212.555 244.524 212.213 244.368 211.913 244.176C211.613 243.972 211.373 243.726 211.193 243.438C211.025 243.15 210.941 242.796 210.941 242.376C210.941 241.86 211.073 241.404 211.337 241.008C211.601 240.6 211.979 240.282 212.471 240.054C212.975 239.826 213.557 239.712 214.217 239.712C215.189 239.712 215.975 239.946 216.575 240.414C217.175 240.882 217.529 241.56 217.637 242.448H216.143C216.083 241.992 215.885 241.638 215.549 241.386C215.225 241.122 214.775 240.99 214.199 240.99C213.635 240.99 213.203 241.104 212.903 241.332C212.615 241.56 212.471 241.86 212.471 242.232C212.471 242.472 212.549 242.688 212.705 242.88C212.873 243.06 213.113 243.216 213.425 243.348C213.749 243.48 214.145 243.588 214.613 243.672C215.213 243.78 215.759 243.924 216.251 244.104C216.743 244.284 217.139 244.554 217.439 244.914C217.751 245.262 217.907 245.76 217.907 246.408C217.907 246.972 217.763 247.464 217.475 247.884C217.199 248.304 216.803 248.634 216.287 248.874C215.771 249.102 215.165 249.216 214.469 249.216ZM220.624 249.09C220.324 249.09 220.072 248.994 219.868 248.802C219.676 248.598 219.58 248.352 219.58 248.064C219.58 247.776 219.676 247.536 219.868 247.344C220.072 247.14 220.324 247.038 220.624 247.038C220.924 247.038 221.17 247.14 221.362 247.344C221.554 247.536 221.65 247.776 221.65 248.064C221.65 248.352 221.554 248.598 221.362 248.802C221.17 248.994 220.924 249.09 220.624 249.09Z" fill="white"/>
<g filter="url(#filter0_d_437_1037)">
<mask id="path-3-outside-1_437_1037" maskUnits="userSpaceOnUse" x="393" y="61" width="134" height="213" fill="black">
<rect fill="white" x="393" y="61" width="134" height="213"/>
<path d="M395.675 63.0462H454.084C467.67 63.0462 479.056 65.4381 488.24 70.2218C497.521 75.0056 504.505 82.0855 509.193 91.4616C513.977 100.742 516.369 112.175 516.369 125.761C516.369 135.329 514.79 144.083 511.633 152.024C508.476 159.869 503.883 166.566 497.856 172.115C491.828 177.569 484.509 181.635 475.898 184.314L468.723 187.328H416.628L416.341 164.796H453.797C461.834 164.796 468.531 163.074 473.889 159.63C479.247 156.09 483.265 151.354 485.944 145.422C488.623 139.49 489.962 132.937 489.962 125.761C489.962 117.724 488.767 110.692 486.375 104.665C483.983 98.6372 480.156 93.997 474.894 90.7441C469.727 87.3954 462.791 85.7211 454.084 85.7211H422.081V272H395.675V63.0462ZM495.99 272L454.371 177.282L481.782 177.138L524.262 270.278V272H495.99Z"/>
</mask>
<path d="M395.675 63.0462V61.0462H393.675V63.0462H395.675ZM488.24 70.2218L487.316 71.9957L487.324 71.9995L488.24 70.2218ZM509.193 91.4616L507.404 92.3561L507.41 92.3671L507.415 92.378L509.193 91.4616ZM511.633 152.024L513.488 152.77L513.491 152.763L511.633 152.024ZM497.856 172.115L499.197 173.599L499.204 173.593L499.21 173.587L497.856 172.115ZM475.898 184.314L475.304 182.404L475.212 182.433L475.124 182.47L475.898 184.314ZM468.723 187.328V189.328H469.126L469.497 189.172L468.723 187.328ZM416.628 187.328L414.628 187.353L414.653 189.328H416.628V187.328ZM416.341 164.796V162.796H414.315L414.341 164.822L416.341 164.796ZM473.889 159.63L474.971 161.312L474.981 161.306L474.992 161.299L473.889 159.63ZM474.894 90.7441L473.806 92.4224L473.824 92.434L473.842 92.4453L474.894 90.7441ZM422.081 85.7211V83.7211H420.081V85.7211H422.081ZM422.081 272V274H424.081V272H422.081ZM395.675 272H393.675V274H395.675V272ZM495.99 272L494.159 272.805L494.684 274H495.99V272ZM454.371 177.282L454.361 175.282L451.315 175.298L452.54 178.086L454.371 177.282ZM481.782 177.138L483.602 176.308L483.065 175.132L481.772 175.138L481.782 177.138ZM524.262 270.278H526.262V269.843L526.082 269.448L524.262 270.278ZM524.262 272V274H526.262V272H524.262ZM395.675 65.0462H454.084V61.0462H395.675V65.0462ZM454.084 65.0462C467.445 65.0462 478.492 67.3995 487.316 71.9957L489.164 68.448C479.619 63.4766 467.895 61.0462 454.084 61.0462V65.0462ZM487.324 71.9995C496.226 76.588 502.905 83.3578 507.404 92.3561L510.982 90.5672C506.105 80.8132 498.816 73.4231 489.157 68.4441L487.324 71.9995ZM507.415 92.378C512.016 101.303 514.369 112.401 514.369 125.761H518.369C518.369 111.949 515.938 100.181 510.971 90.5453L507.415 92.378ZM514.369 125.761C514.369 135.106 512.828 143.605 509.774 151.285L513.491 152.763C516.753 144.56 518.369 135.551 518.369 125.761H514.369ZM509.777 151.277C506.727 158.856 502.303 165.303 496.501 170.644L499.21 173.587C505.464 167.83 510.224 160.882 513.488 152.77L509.777 151.277ZM496.514 170.632C490.724 175.871 483.668 179.802 475.304 182.404L476.492 186.224C485.35 183.468 492.932 179.267 499.197 173.599L496.514 170.632ZM475.124 182.47L467.948 185.484L469.497 189.172L476.673 186.158L475.124 182.47ZM468.723 185.328H416.628V189.328H468.723V185.328ZM418.628 187.302L418.341 164.771L414.341 164.822L414.628 187.353L418.628 187.302ZM416.341 166.796H453.797V162.796H416.341V166.796ZM453.797 166.796C462.118 166.796 469.215 165.012 474.971 161.312L472.808 157.948C467.847 161.136 461.55 162.796 453.797 162.796V166.796ZM474.992 161.299C480.669 157.547 484.935 152.516 487.767 146.245L484.121 144.599C481.596 150.192 477.825 154.632 472.787 157.961L474.992 161.299ZM487.767 146.245C490.574 140.029 491.962 133.191 491.962 125.761H487.962C487.962 132.682 486.672 138.951 484.121 144.599L487.767 146.245ZM491.962 125.761C491.962 117.53 490.738 110.238 488.234 103.927L484.516 105.402C486.795 111.146 487.962 117.919 487.962 125.761H491.962ZM488.234 103.927C485.691 97.5206 481.592 92.5332 475.945 89.0429L473.842 92.4453C478.72 95.4608 482.274 99.7539 484.516 105.402L488.234 103.927ZM475.981 89.0658C470.383 85.4371 463.024 83.7211 454.084 83.7211V87.7211C462.558 87.7211 469.071 89.3538 473.806 92.4224L475.981 89.0658ZM454.084 83.7211H422.081V87.7211H454.084V83.7211ZM420.081 85.7211V272H424.081V85.7211H420.081ZM422.081 270H395.675V274H422.081V270ZM397.675 272V63.0462H393.675V272H397.675ZM497.821 271.195L456.202 176.477L452.54 178.086L494.159 272.805L497.821 271.195ZM454.382 179.282L481.793 179.138L481.772 175.138L454.361 175.282L454.382 179.282ZM479.963 177.968L522.442 271.108L526.082 269.448L483.602 176.308L479.963 177.968ZM522.262 270.278V272H526.262V270.278H522.262ZM524.262 270H495.99V274H524.262V270Z" fill="white" mask="url(#path-3-outside-1_437_1037)"/>
</g>
<path d="M423 273L1 273" stroke="white" stroke-width="2"/>
<line x1="1" y1="274" x2="1.00001" y2="70" stroke="white" stroke-width="2"/>
<line x1="1" y1="71" x2="193" y2="71" stroke="white" stroke-width="2"/>
<defs>
<filter id="filter0_d_437_1037" x="389.675" y="61.0461" width="140.587" height="220.954" filterUnits="userSpaceOnUse" color-interpolation-filters="sRGB">
<feFlood flood-opacity="0" result="BackgroundImageFix"/>
<feColorMatrix in="SourceAlpha" type="matrix" values="0 0 0 0 0 0 0 0 0 0 0 0 0 0 0 0 0 0 127 0" result="hardAlpha"/>
<feOffset dy="4"/>
<feGaussianBlur stdDeviation="2"/>
<feComposite in2="hardAlpha" operator="out"/>
<feColorMatrix type="matrix" values="0 0 0 0 0 0 0 0 0 0 0 0 0 0 0 0 0 0 0.25 0"/>
<feBlend mode="normal" in2="BackgroundImageFix" result="effect1_dropShadow_437_1037"/>
<feBlend mode="normal" in="SourceGraphic" in2="effect1_dropShadow_437_1037" result="shape"/>
</filter>
</defs>
</svg>
