<svg width="117" height="213" viewBox="0 0 117 213" fill="none" xmlns="http://www.w3.org/2000/svg">
<mask id="path-1-outside-1_189_595" maskUnits="userSpaceOnUse" x="0" y="0" width="117" height="213" fill="black">
<rect fill="white" width="117" height="213"/>
<path d="M114.901 188.469V211H24.2018V188.469H114.901ZM28.9377 2.04621V211H2.53142V2.04621H28.9377ZM102.703 91.8849V114.416H24.2018V91.8849H102.703ZM113.466 2.04621V24.7211H24.2018V2.04621H113.466Z"/>
</mask>
<path d="M114.901 188.469H116.901V186.469H114.901V188.469ZM114.901 211V213H116.901V211H114.901ZM24.2018 211H22.2018V213H24.2018V211ZM24.2018 188.469V186.469H22.2018V188.469H24.2018ZM28.9377 2.04621H30.9377V0.0462074H28.9377V2.04621ZM28.9377 211V213H30.9377V211H28.9377ZM2.53142 211H0.531418V213H2.53142V211ZM2.53142 2.04621V0.0462074H0.531418V2.04621H2.53142ZM102.703 91.8849H104.703V89.8849H102.703V91.8849ZM102.703 114.416V116.416H104.703V114.416H102.703ZM24.2018 114.416H22.2018V116.416H24.2018V114.416ZM24.2018 91.8849V89.8849H22.2018V91.8849H24.2018ZM113.466 2.04621H115.466V0.0462074H113.466V2.04621ZM113.466 24.7211V26.7211H115.466V24.7211H113.466ZM24.2018 24.7211H22.2018V26.7211H24.2018V24.7211ZM24.2018 2.04621V0.0462074H22.2018V2.04621H24.2018ZM112.901 188.469V211H116.901V188.469H112.901ZM114.901 209H24.2018V213H114.901V209ZM26.2018 211V188.469H22.2018V211H26.2018ZM24.2018 190.469H114.901V186.469H24.2018V190.469ZM26.9377 2.04621V211H30.9377V2.04621H26.9377ZM28.9377 209H2.53142V213H28.9377V209ZM4.53142 211V2.04621H0.531418V211H4.53142ZM2.53142 4.04621H28.9377V0.0462074H2.53142V4.04621ZM100.703 91.8849V114.416H104.703V91.8849H100.703ZM102.703 112.416H24.2018V116.416H102.703V112.416ZM26.2018 114.416V91.8849H22.2018V114.416H26.2018ZM24.2018 93.8849H102.703V89.8849H24.2018V93.8849ZM111.466 2.04621V24.7211H115.466V2.04621H111.466ZM113.466 22.7211H24.2018V26.7211H113.466V22.7211ZM26.2018 24.7211V2.04621H22.2018V24.7211H26.2018ZM24.2018 4.04621H113.466V0.0462074H24.2018V4.04621Z" fill="white" mask="url(#path-1-outside-1_189_595)"/>
</svg>
