<svg width="143" height="134" viewBox="0 0 143 134" fill="none" xmlns="http://www.w3.org/2000/svg">
<g clip-path="url(#clip0_148_475)">
<path d="M71.5 0L143 28.7143V38.2857H133.467C133.467 39.5818 132.958 40.7035 131.94 41.6507C130.922 42.5978 129.718 43.0714 128.328 43.0714H14.6724C13.2821 43.0714 12.078 42.5978 11.0602 41.6507C10.0423 40.7035 9.53333 39.5818 9.53333 38.2857H0V28.7143L71.5 0ZM19.0667 47.8571H38.1333V105.286H47.6667V47.8571H66.7333V105.286H76.2667V47.8571H95.3333V105.286H104.867V47.8571H123.933V105.286H128.328C129.718 105.286 130.922 105.759 131.94 106.706C132.958 107.654 133.467 108.775 133.467 110.071V114.857H9.53333V110.071C9.53333 108.775 10.0423 107.654 11.0602 106.706C12.078 105.759 13.2821 105.286 14.6724 105.286H19.0667V47.8571ZM137.861 119.643C139.251 119.643 140.455 120.116 141.473 121.064C142.491 122.011 143 123.132 143 124.429V134H0V124.429C0 123.132 0.508941 122.011 1.52682 121.064C2.5447 120.116 3.74879 119.643 5.13906 119.643H137.861Z" fill="white"/>
</g>
<defs>
<clipPath id="clip0_148_475">
<rect width="143" height="134" fill="white"/>
</clipPath>
</defs>
</svg>
