<svg width="122" height="113" viewBox="0 0 122 113" fill="none" xmlns="http://www.w3.org/2000/svg">
<path d="M56.9333 56.4999C56.9333 52.0438 55.3448 48.2393 52.1677 45.0864C48.9906 41.9335 45.1569 40.357 40.6667 40.357C36.1764 40.357 32.3427 41.9335 29.1656 45.0864C25.9885 48.2393 24.4 52.0438 24.4 56.4999C24.4 60.956 25.9885 64.7605 29.1656 67.9134C32.3427 71.0663 36.1764 72.6427 40.6667 72.6427C45.1569 72.6427 48.9906 71.0663 52.1677 67.9134C55.3448 64.7605 56.9333 60.956 56.9333 56.4999ZM105.733 88.7856C105.733 86.5996 104.928 84.7078 103.319 83.1104C101.709 81.5129 99.8028 80.7141 97.6 80.7141C95.3972 80.7141 93.491 81.5129 91.8812 83.1104C90.2715 84.7078 89.4667 86.5996 89.4667 88.7856C89.4667 91.0136 90.2609 92.9159 91.8495 94.4923C93.438 96.0688 95.3549 96.857 97.6 96.857C99.8451 96.857 101.762 96.0688 103.351 94.4923C104.939 92.9159 105.733 91.0136 105.733 88.7856ZM105.733 24.2141C105.733 22.0281 104.928 20.1364 103.319 18.5389C101.709 16.9415 99.8028 16.1427 97.6 16.1427C95.3972 16.1427 93.491 16.9415 91.8812 18.5389C90.2715 20.1364 89.4667 22.0281 89.4667 24.2141C89.4667 26.4422 90.2609 28.3444 91.8495 29.9209C93.438 31.4974 95.3549 32.2856 97.6 32.2856C99.8451 32.2856 101.762 31.4974 103.351 29.9209C104.939 28.3444 105.733 26.4422 105.733 24.2141ZM81.3333 50.7616V62.4273C81.3333 62.8477 81.1851 63.2576 80.8885 63.657C80.592 64.0563 80.2531 64.277 79.8719 64.3191L70.0229 65.8325C69.5569 67.3038 68.8792 68.9013 67.9896 70.6249C69.4299 72.6427 71.3361 75.06 73.7083 77.8765C74.0049 78.339 74.1531 78.7594 74.1531 79.1377C74.1531 79.6422 74.0049 80.0415 73.7083 80.3358C72.734 81.597 70.9866 83.4782 68.4661 85.9795C65.9457 88.4808 64.283 89.7315 63.4781 89.7315C63.0122 89.7315 62.5674 89.5843 62.1437 89.29L54.8365 83.6148C53.2691 84.4136 51.6382 85.0652 49.9437 85.5696C49.4778 90.1098 48.9906 93.3678 48.4823 95.3436C48.1858 96.3525 47.5503 96.857 46.576 96.857H34.7573C34.2913 96.857 33.8677 96.6994 33.4865 96.3841C33.1052 96.0688 32.8934 95.701 32.851 95.2806L31.3896 85.6327C29.9493 85.2123 28.3608 84.5607 26.624 83.6779L19.126 89.29C18.8295 89.5843 18.4059 89.7315 17.8552 89.7315C17.3892 89.7315 16.9444 89.5633 16.5208 89.227C10.4208 83.6358 7.37083 80.2727 7.37083 79.1377C7.37083 78.7594 7.5191 78.36 7.81562 77.9396C8.23924 77.3511 9.10764 76.237 10.4208 74.5975C11.734 72.958 12.7295 71.6758 13.4073 70.751C12.433 68.9013 11.6917 67.1777 11.1833 65.5802L1.525 64.0668C1.10139 64.0248 0.741319 63.8251 0.444792 63.4678C0.148264 63.1105 0 62.7006 0 62.2381V50.5724C0 50.152 0.148264 49.7421 0.444792 49.3428C0.741319 48.9434 1.08021 48.7227 1.46146 48.6807L11.3104 47.1673C11.7764 45.6959 12.4542 44.0984 13.3438 42.3749C11.9035 40.357 9.99722 37.9398 7.625 35.1232C7.32847 34.6608 7.18021 34.2404 7.18021 33.862C7.18021 33.3576 7.32847 32.9372 7.625 32.6009C8.55694 31.3397 10.2937 29.469 12.8354 26.9887C15.3771 24.5084 17.0503 23.2683 17.8552 23.2683C18.3212 23.2683 18.766 23.4154 19.1896 23.7097L26.4969 29.3849C27.9372 28.6282 29.5681 27.9556 31.3896 27.3671C31.8556 22.8269 32.3427 19.5899 32.851 17.6561C33.1476 16.6472 33.783 16.1427 34.7573 16.1427H46.576C47.042 16.1427 47.4656 16.3004 47.8469 16.6157C48.2281 16.9309 48.4399 17.2988 48.4823 17.7192L49.9437 27.3671C51.384 27.7874 52.9726 28.439 54.7094 29.3218L62.2073 23.7097C62.5462 23.4154 62.9698 23.2683 63.4781 23.2683C63.9441 23.2683 64.3889 23.4364 64.8125 23.7727C70.9125 29.3639 73.9625 32.727 73.9625 33.862C73.9625 34.1983 73.8142 34.5977 73.5177 35.0601C73.0094 35.7327 72.1198 36.8678 70.849 38.4653C69.5781 40.0627 68.625 41.3239 67.9896 42.2487C68.9639 44.2666 69.684 45.9902 70.15 47.4195L79.8083 48.8698C80.2319 48.9539 80.592 49.1746 80.8885 49.532C81.1851 49.8893 81.3333 50.2992 81.3333 50.7616ZM122 84.3715V93.1996C122 93.8723 118.844 94.5239 112.532 95.1544C112.024 96.2895 111.389 97.3825 110.626 98.4335C112.786 103.184 113.867 106.085 113.867 107.135C113.867 107.304 113.782 107.451 113.612 107.577C108.444 110.562 105.818 112.054 105.733 112.054C105.394 112.054 104.42 111.066 102.81 109.09C101.201 107.114 100.099 105.685 99.5062 104.802C98.659 104.886 98.0236 104.928 97.6 104.928C97.1764 104.928 96.541 104.886 95.6937 104.802C95.1007 105.685 93.9993 107.114 92.3896 109.09C90.7799 111.066 89.8056 112.054 89.4667 112.054C89.3819 112.054 86.7556 110.562 81.5875 107.577C81.4181 107.451 81.3333 107.304 81.3333 107.135C81.3333 106.085 82.4135 103.184 84.574 98.4335C83.8115 97.3825 83.176 96.2895 82.6677 95.1544C76.3559 94.5239 73.2 93.8723 73.2 93.1996V84.3715C73.2 83.6989 76.3559 83.0473 82.6677 82.4167C83.2184 81.1976 83.8538 80.1046 84.574 79.1377C82.4135 74.3873 81.3333 71.4867 81.3333 70.4357C81.3333 70.2675 81.4181 70.1204 81.5875 69.9943C81.7569 69.9102 82.4983 69.4898 83.8115 68.7331C85.1246 67.9764 86.3743 67.2618 87.5604 66.5891C88.7465 65.9165 89.3819 65.5802 89.4667 65.5802C89.8056 65.5802 90.7799 66.5576 92.3896 68.5124C93.9993 70.4672 95.1007 71.886 95.6937 72.7688C96.541 72.6848 97.1764 72.6427 97.6 72.6427C98.0236 72.6427 98.659 72.6848 99.5062 72.7688C101.667 69.7841 103.615 67.4299 105.352 65.7063L105.733 65.5802C105.903 65.5802 108.529 67.0516 113.612 69.9943C113.782 70.1204 113.867 70.2675 113.867 70.4357C113.867 71.4867 112.786 74.3873 110.626 79.1377C111.346 80.1046 111.982 81.1976 112.532 82.4167C118.844 83.0473 122 83.6989 122 84.3715ZM122 19.8001V28.6282C122 29.3008 118.844 29.9524 112.532 30.583C112.024 31.7181 111.389 32.8111 110.626 33.862C112.786 38.6124 113.867 41.5131 113.867 42.564C113.867 42.7322 113.782 42.8793 113.612 43.0054C108.444 45.9902 105.818 47.4826 105.733 47.4826C105.394 47.4826 104.42 46.4947 102.81 44.5188C101.201 42.543 100.099 41.1137 99.5062 40.2309C98.659 40.315 98.0236 40.357 97.6 40.357C97.1764 40.357 96.541 40.315 95.6937 40.2309C95.1007 41.1137 93.9993 42.543 92.3896 44.5188C90.7799 46.4947 89.8056 47.4826 89.4667 47.4826C89.3819 47.4826 86.7556 45.9902 81.5875 43.0054C81.4181 42.8793 81.3333 42.7322 81.3333 42.564C81.3333 41.5131 82.4135 38.6124 84.574 33.862C83.8115 32.8111 83.176 31.7181 82.6677 30.583C76.3559 29.9524 73.2 29.3008 73.2 28.6282V19.8001C73.2 19.1275 76.3559 18.4759 82.6677 17.8453C83.2184 16.6262 83.8538 15.5332 84.574 14.5663C82.4135 9.8159 81.3333 6.91523 81.3333 5.86426C81.3333 5.6961 81.4181 5.54897 81.5875 5.42285C81.7569 5.33877 82.4983 4.91839 83.8115 4.16169C85.1246 3.40499 86.3743 2.69034 87.5604 2.01772C88.7465 1.3451 89.3819 1.00879 89.4667 1.00879C89.8056 1.00879 90.7799 1.98619 92.3896 3.94099C93.9993 5.89579 95.1007 7.31459 95.6937 8.19741C96.541 8.11333 97.1764 8.07129 97.6 8.07129C98.0236 8.07129 98.659 8.11333 99.5062 8.19741C101.667 5.21266 103.615 2.85849 105.352 1.13491L105.733 1.00879C105.903 1.00879 108.529 2.48014 113.612 5.42285C113.782 5.54897 113.867 5.6961 113.867 5.86426C113.867 6.91523 112.786 9.8159 110.626 14.5663C111.346 15.5332 111.982 16.6262 112.532 17.8453C118.844 18.4759 122 19.1275 122 19.8001Z" fill="white"/>
</svg>
