<svg width="362" height="605" viewBox="0 0 362 605" fill="none" xmlns="http://www.w3.org/2000/svg">
<mask id="path-1-outside-1_777_1097" maskUnits="userSpaceOnUse" x="81" y="97" width="207" height="333" fill="black">
<rect fill="white" x="81" y="97" width="207" height="333"/>
<path d="M83.6426 99.5469H175.456C196.812 99.5469 214.708 103.307 229.146 110.826C243.733 118.346 254.712 129.475 262.081 144.213C269.601 158.801 273.36 176.772 273.36 198.128C273.36 213.167 270.879 226.928 265.916 239.41C260.953 251.742 253.734 262.27 244.26 270.992C234.785 279.564 223.28 285.956 209.745 290.167L198.466 294.904H116.578L116.127 259.487H175.005C187.638 259.487 198.165 256.78 206.587 251.366C215.009 245.802 221.325 238.357 225.536 229.033C229.747 219.709 231.853 209.407 231.853 198.128C231.853 185.495 229.973 174.441 226.213 164.967C222.453 155.492 216.438 148.198 208.166 143.085C200.045 137.821 189.142 135.189 175.456 135.189H125.15V428H83.6426V99.5469ZM241.327 428L175.907 279.113L218.994 278.888L285.768 425.293V428H241.327Z"/>
</mask>
<path d="M83.6426 99.5469V97.5469H81.6426V99.5469H83.6426ZM229.146 110.826L228.222 112.6L228.229 112.604L229.146 110.826ZM262.081 144.213L260.292 145.107L260.298 145.118L260.303 145.129L262.081 144.213ZM265.916 239.41L267.771 240.157L267.775 240.149L265.916 239.41ZM244.26 270.992L245.602 272.475L245.608 272.469L245.614 272.464L244.26 270.992ZM209.745 290.167L209.151 288.257L209.059 288.286L208.971 288.323L209.745 290.167ZM198.466 294.904V296.904H198.869L199.24 296.748L198.466 294.904ZM116.578 294.904L114.578 294.93L114.603 296.904H116.578V294.904ZM116.127 259.487V257.487H114.101L114.127 259.513L116.127 259.487ZM206.587 251.366L207.668 253.049L207.679 253.042L207.689 253.035L206.587 251.366ZM208.166 143.085L207.078 144.763L207.096 144.775L207.114 144.786L208.166 143.085ZM125.15 135.189V133.189H123.15V135.189H125.15ZM125.15 428V430H127.15V428H125.15ZM83.6426 428H81.6426V430H83.6426V428ZM241.327 428L239.496 428.805L240.021 430H241.327V428ZM175.907 279.113L175.897 277.113L172.851 277.129L174.076 279.918L175.907 279.113ZM218.994 278.888L220.814 278.058L220.277 276.881L218.984 276.888L218.994 278.888ZM285.768 425.293H287.768V424.858L287.587 424.463L285.768 425.293ZM285.768 428V430H287.768V428H285.768ZM83.6426 101.547H175.456V97.5469H83.6426V101.547ZM175.456 101.547C196.587 101.547 214.144 105.268 228.222 112.6L230.069 109.052C215.272 101.345 197.036 97.5469 175.456 97.5469V101.547ZM228.229 112.604C242.438 119.928 253.112 130.747 260.292 145.107L263.87 143.318C256.312 128.202 245.029 116.763 230.062 109.048L228.229 112.604ZM260.303 145.129C267.64 159.361 271.36 176.998 271.36 198.128H275.36C275.36 176.546 271.562 158.24 263.859 143.297L260.303 145.129ZM271.36 198.128C271.36 212.944 268.916 226.45 264.058 238.671L267.775 240.149C272.841 227.405 275.36 213.39 275.36 198.128H271.36ZM264.061 238.663C259.205 250.729 252.154 261.006 242.905 269.521L245.614 272.464C255.315 263.533 262.701 252.756 267.771 240.157L264.061 238.663ZM242.918 269.509C233.681 277.866 222.439 284.123 209.151 288.257L210.339 292.077C224.121 287.789 235.889 281.263 245.602 272.475L242.918 269.509ZM208.971 288.323L197.691 293.06L199.24 296.748L210.52 292.011L208.971 288.323ZM198.466 292.904H116.578V296.904H198.466V292.904ZM118.578 294.879L118.127 259.462L114.127 259.513L114.578 294.93L118.578 294.879ZM116.127 261.487H175.005V257.487H116.127V261.487ZM175.005 261.487C187.921 261.487 198.849 258.718 207.668 253.049L205.505 249.684C197.481 254.842 187.354 257.487 175.005 257.487V261.487ZM207.689 253.035C216.431 247.259 222.995 239.52 227.359 229.856L223.713 228.21C219.656 237.195 213.587 244.344 205.484 249.698L207.689 253.035ZM227.359 229.856C231.698 220.248 233.853 209.662 233.853 198.128H229.853C229.853 209.153 227.796 219.17 223.713 228.21L227.359 229.856ZM233.853 198.128C233.853 185.301 231.944 173.987 228.072 164.229L224.354 165.704C228.001 174.896 229.853 185.689 229.853 198.128H233.853ZM228.072 164.229C224.162 154.376 217.873 146.734 209.218 141.384L207.114 144.786C215.002 149.662 220.745 156.609 224.354 165.704L228.072 164.229ZM209.254 141.407C200.701 135.863 189.375 133.189 175.456 133.189V137.189C188.909 137.189 199.389 139.78 207.078 144.763L209.254 141.407ZM175.456 133.189H125.15V137.189H175.456V133.189ZM123.15 135.189V428H127.15V135.189H123.15ZM125.15 426H83.6426V430H125.15V426ZM85.6426 428V99.5469H81.6426V428H85.6426ZM243.158 427.195L177.738 278.309L174.076 279.918L239.496 428.805L243.158 427.195ZM175.918 281.113L219.005 280.888L218.984 276.888L175.897 277.113L175.918 281.113ZM217.174 279.718L283.948 426.123L287.587 424.463L220.814 278.058L217.174 279.718ZM283.768 425.293V428H287.768V425.293H283.768ZM285.768 426H241.327V430H285.768V426Z" fill="white" mask="url(#path-1-outside-1_777_1097)"/>
<path d="M66.8007 502V485.2H73.0647C74.4247 485.2 75.5447 485.432 76.4247 485.896C77.3047 486.36 77.9607 486.984 78.3927 487.768C78.8247 488.536 79.0407 489.392 79.0407 490.336C79.0407 491.232 78.8327 492.072 78.4167 492.856C78.0007 493.624 77.3447 494.248 76.4487 494.728C75.5687 495.192 74.4327 495.424 73.0407 495.424H70.0407V502H66.8007ZM75.5127 502L72.0567 494.608H75.5607L79.2087 502H75.5127ZM70.0407 493.072H72.8727C73.8487 493.072 74.5687 492.832 75.0327 492.352C75.4967 491.872 75.7287 491.24 75.7287 490.456C75.7287 489.672 75.4967 489.056 75.0327 488.608C74.5847 488.144 73.8647 487.912 72.8727 487.912H70.0407V493.072ZM84.5813 502V485.2H95.6213V487.816H87.8213V492.208H94.9013V494.728H87.8213V499.384H95.6213V502H84.5813ZM106.037 502L99.9175 485.2H103.373L108.029 498.688L112.709 485.2H116.141L110.021 502H106.037ZM127.988 502.288C126.356 502.288 124.916 501.92 123.668 501.184C122.42 500.448 121.444 499.432 120.74 498.136C120.036 496.824 119.684 495.312 119.684 493.6C119.684 491.888 120.036 490.384 120.74 489.088C121.444 487.776 122.42 486.752 123.668 486.016C124.916 485.28 126.356 484.912 127.988 484.912C129.636 484.912 131.084 485.28 132.332 486.016C133.58 486.752 134.548 487.776 135.236 489.088C135.94 490.384 136.292 491.888 136.292 493.6C136.292 495.312 135.94 496.824 135.236 498.136C134.548 499.432 133.58 500.448 132.332 501.184C131.084 501.92 129.636 502.288 127.988 502.288ZM127.988 499.384C129.012 499.384 129.892 499.152 130.628 498.688C131.38 498.208 131.964 497.536 132.38 496.672C132.796 495.808 133.004 494.784 133.004 493.6C133.004 492.4 132.796 491.376 132.38 490.528C131.964 489.664 131.38 489 130.628 488.536C129.892 488.072 129.012 487.84 127.988 487.84C126.98 487.84 126.1 488.072 125.348 488.536C124.596 489 124.012 489.664 123.596 490.528C123.18 491.376 122.972 492.4 122.972 493.6C122.972 494.784 123.18 495.808 123.596 496.672C124.012 497.536 124.596 498.208 125.348 498.688C126.1 499.152 126.98 499.384 127.988 499.384ZM141.697 502V485.2H144.937V499.48H152.305V502H141.697ZM163.497 502.288C162.265 502.288 161.145 502.04 160.137 501.544C159.129 501.048 158.329 500.304 157.737 499.312C157.145 498.32 156.849 497.056 156.849 495.52V485.2H160.089V495.544C160.089 496.376 160.225 497.08 160.497 497.656C160.769 498.216 161.161 498.632 161.673 498.904C162.201 499.176 162.825 499.312 163.545 499.312C164.281 499.312 164.905 499.176 165.417 498.904C165.945 498.632 166.345 498.216 166.617 497.656C166.889 497.08 167.025 496.376 167.025 495.544V485.2H170.265V495.52C170.265 497.056 169.961 498.32 169.353 499.312C168.745 500.304 167.921 501.048 166.881 501.544C165.857 502.04 164.729 502.288 163.497 502.288ZM179.975 502V487.816H175.055V485.2H188.087V487.816H183.191V502H179.975ZM193.023 502V485.2H196.263V502H193.023ZM209.954 502.288C208.322 502.288 206.882 501.92 205.634 501.184C204.386 500.448 203.41 499.432 202.706 498.136C202.002 496.824 201.65 495.312 201.65 493.6C201.65 491.888 202.002 490.384 202.706 489.088C203.41 487.776 204.386 486.752 205.634 486.016C206.882 485.28 208.322 484.912 209.954 484.912C211.602 484.912 213.05 485.28 214.298 486.016C215.546 486.752 216.514 487.776 217.202 489.088C217.906 490.384 218.258 491.888 218.258 493.6C218.258 495.312 217.906 496.824 217.202 498.136C216.514 499.432 215.546 500.448 214.298 501.184C213.05 501.92 211.602 502.288 209.954 502.288ZM209.954 499.384C210.978 499.384 211.858 499.152 212.594 498.688C213.346 498.208 213.93 497.536 214.346 496.672C214.762 495.808 214.97 494.784 214.97 493.6C214.97 492.4 214.762 491.376 214.346 490.528C213.93 489.664 213.346 489 212.594 488.536C211.858 488.072 210.978 487.84 209.954 487.84C208.946 487.84 208.066 488.072 207.314 488.536C206.562 489 205.978 489.664 205.562 490.528C205.146 491.376 204.938 492.4 204.938 493.6C204.938 494.784 205.146 495.808 205.562 496.672C205.978 497.536 206.562 498.208 207.314 498.688C208.066 499.152 208.946 499.384 209.954 499.384ZM223.662 502V485.2H226.902L234.63 496.792V485.2H237.87V502H234.63L226.902 490.432V502H223.662ZM242.659 502L248.803 485.2H252.475L258.595 502H255.163L250.627 488.896L246.067 502H242.659ZM245.371 498.184L246.235 495.664H254.779L255.619 498.184H245.371ZM263.442 502V485.2H269.706C271.066 485.2 272.186 485.432 273.066 485.896C273.946 486.36 274.602 486.984 275.034 487.768C275.466 488.536 275.682 489.392 275.682 490.336C275.682 491.232 275.474 492.072 275.058 492.856C274.642 493.624 273.986 494.248 273.09 494.728C272.21 495.192 271.074 495.424 269.682 495.424H266.682V502H263.442ZM272.154 502L268.698 494.608H272.202L275.85 502H272.154ZM266.682 493.072H269.514C270.49 493.072 271.21 492.832 271.674 492.352C272.138 491.872 272.37 491.24 272.37 490.456C272.37 489.672 272.138 489.056 271.674 488.608C271.226 488.144 270.506 487.912 269.514 487.912H266.682V493.072ZM284.981 502V496.096L279.317 485.2H282.989L286.949 493.504H286.301L290.237 485.2H293.885L288.221 496.096V502H284.981ZM46.4537 533V516.2H52.0697C54.0217 516.2 55.6297 516.552 56.8937 517.256C58.1737 517.944 59.1177 518.92 59.7257 520.184C60.3497 521.432 60.6617 522.904 60.6617 524.6C60.6617 526.296 60.3497 527.776 59.7257 529.04C59.1177 530.288 58.1817 531.264 56.9177 531.968C55.6537 532.656 54.0377 533 52.0697 533H46.4537ZM49.6937 530.216H51.9017C53.2777 530.216 54.3577 529.992 55.1417 529.544C55.9417 529.096 56.5097 528.456 56.8457 527.624C57.1817 526.776 57.3497 525.768 57.3497 524.6C57.3497 523.416 57.1817 522.408 56.8457 521.576C56.5097 520.728 55.9417 520.08 55.1417 519.632C54.3577 519.184 53.2777 518.96 51.9017 518.96H49.6937V530.216ZM66.0624 533V516.2H77.1024V518.816H69.3024V523.208H76.3824V525.728H69.3024V530.384H77.1024V533H66.0624ZM90.2306 533.288C88.5506 533.288 87.1026 532.928 85.8866 532.208C84.6866 531.472 83.7586 530.456 83.1026 529.16C82.4626 527.848 82.1426 526.336 82.1426 524.624C82.1426 522.912 82.4626 521.4 83.1026 520.088C83.7586 518.776 84.6866 517.752 85.8866 517.016C87.1026 516.28 88.5506 515.912 90.2306 515.912C92.2626 515.912 93.9266 516.416 95.2226 517.424C96.5186 518.432 97.3266 519.856 97.6466 521.696H94.1186C93.9106 520.8 93.4706 520.104 92.7986 519.608C92.1426 519.096 91.2786 518.84 90.2066 518.84C89.2146 518.84 88.3586 519.08 87.6386 519.56C86.9346 520.024 86.3906 520.688 86.0066 521.552C85.6226 522.4 85.4306 523.424 85.4306 524.624C85.4306 525.808 85.6226 526.832 86.0066 527.696C86.3906 528.56 86.9346 529.224 87.6386 529.688C88.3586 530.152 89.2146 530.384 90.2066 530.384C91.2786 530.384 92.1426 530.152 92.7986 529.688C93.4546 529.208 93.8866 528.544 94.0946 527.696H97.6466C97.3266 529.44 96.5186 530.808 95.2226 531.8C93.9266 532.792 92.2626 533.288 90.2306 533.288ZM103.053 533V516.2H114.093V518.816H106.293V523.208H113.373V525.728H106.293V530.384H114.093V533H103.053ZM119.686 533V516.2H122.926L130.654 527.792V516.2H133.894V533H130.654L122.926 521.432V533H119.686ZM143.722 533V518.816H138.802V516.2H151.834V518.816H146.938V533H143.722ZM156.77 533V516.2H163.034C164.394 516.2 165.514 516.432 166.394 516.896C167.274 517.36 167.93 517.984 168.362 518.768C168.794 519.536 169.01 520.392 169.01 521.336C169.01 522.232 168.802 523.072 168.386 523.856C167.97 524.624 167.314 525.248 166.418 525.728C165.538 526.192 164.402 526.424 163.01 526.424H160.01V533H156.77ZM165.482 533L162.026 525.608H165.53L169.178 533H165.482ZM160.01 524.072H162.842C163.818 524.072 164.538 523.832 165.002 523.352C165.466 522.872 165.698 522.24 165.698 521.456C165.698 520.672 165.466 520.056 165.002 519.608C164.554 519.144 163.834 518.912 162.842 518.912H160.01V524.072ZM173.423 533L179.567 516.2H183.239L189.359 533H185.927L181.391 519.896L176.831 533H173.423ZM176.135 529.184L176.999 526.664H185.543L186.383 529.184H176.135ZM194.206 533V516.2H197.446V530.48H204.814V533H194.206ZM210.229 533V516.2H213.469V533H210.229ZM218.928 533V530.504L226.68 518.888H218.976V516.2H230.4V518.696L222.624 530.312H230.448V533H218.928ZM234.772 533L240.916 516.2H244.588L250.708 533H247.276L242.74 519.896L238.18 533H234.772ZM237.484 529.184L238.348 526.664H246.892L247.732 529.184H237.484ZM257.686 533V518.816H252.766V516.2H265.798V518.816H260.902V533H257.686ZM270.735 533V516.2H273.975V533H270.735ZM287.666 533.288C286.034 533.288 284.594 532.92 283.346 532.184C282.098 531.448 281.122 530.432 280.418 529.136C279.714 527.824 279.362 526.312 279.362 524.6C279.362 522.888 279.714 521.384 280.418 520.088C281.122 518.776 282.098 517.752 283.346 517.016C284.594 516.28 286.034 515.912 287.666 515.912C289.314 515.912 290.762 516.28 292.01 517.016C293.258 517.752 294.226 518.776 294.914 520.088C295.618 521.384 295.97 522.888 295.97 524.6C295.97 526.312 295.618 527.824 294.914 529.136C294.226 530.432 293.258 531.448 292.01 532.184C290.762 532.92 289.314 533.288 287.666 533.288ZM287.666 530.384C288.69 530.384 289.57 530.152 290.306 529.688C291.058 529.208 291.642 528.536 292.058 527.672C292.474 526.808 292.682 525.784 292.682 524.6C292.682 523.4 292.474 522.376 292.058 521.528C291.642 520.664 291.058 520 290.306 519.536C289.57 519.072 288.69 518.84 287.666 518.84C286.658 518.84 285.778 519.072 285.026 519.536C284.274 520 283.69 520.664 283.274 521.528C282.858 522.376 282.65 523.4 282.65 524.6C282.65 525.784 282.858 526.808 283.274 527.672C283.69 528.536 284.274 529.208 285.026 529.688C285.778 530.152 286.658 530.384 287.666 530.384ZM301.374 533V516.2H304.614L312.342 527.792V516.2H315.582V533H312.342L304.614 521.432V533H301.374Z" fill="white"/>
<path d="M10.4359 577V564.4H12.1999L16.6459 573.202L21.1099 564.4H22.8919V577H21.3799V567.1L17.2219 575.236H16.0879L11.9479 567.136V577H10.4359ZM29.5307 577.216C28.6907 577.216 27.9347 577.024 27.2627 576.64C26.5907 576.244 26.0627 575.692 25.6787 574.984C25.2947 574.264 25.1027 573.43 25.1027 572.482C25.1027 571.51 25.2947 570.67 25.6787 569.962C26.0747 569.242 26.6087 568.69 27.2807 568.306C27.9647 567.91 28.7267 567.712 29.5667 567.712C30.4307 567.712 31.1927 567.91 31.8527 568.306C32.5247 568.69 33.0527 569.242 33.4367 569.962C33.8327 570.67 34.0307 571.504 34.0307 572.464C34.0307 573.424 33.8327 574.264 33.4367 574.984C33.0407 575.692 32.5067 576.244 31.8347 576.64C31.1627 577.024 30.3947 577.216 29.5307 577.216ZM29.5487 575.92C30.0647 575.92 30.5447 575.794 30.9887 575.542C31.4327 575.278 31.7927 574.888 32.0687 574.372C32.3447 573.856 32.4827 573.22 32.4827 572.464C32.4827 571.696 32.3447 571.06 32.0687 570.556C31.8047 570.04 31.4507 569.656 31.0067 569.404C30.5747 569.14 30.0947 569.008 29.5667 569.008C29.0627 569.008 28.5827 569.14 28.1267 569.404C27.6827 569.656 27.3227 570.04 27.0467 570.556C26.7827 571.06 26.6507 571.696 26.6507 572.464C26.6507 573.22 26.7827 573.856 27.0467 574.372C27.3227 574.888 27.6767 575.278 28.1087 575.542C28.5527 575.794 29.0327 575.92 29.5487 575.92ZM40.1466 577.216C39.2706 577.216 38.5026 577.012 37.8426 576.604C37.1826 576.184 36.6726 575.614 36.3126 574.894C35.9526 574.174 35.7726 573.358 35.7726 572.446C35.7726 571.534 35.9526 570.724 36.3126 570.016C36.6726 569.296 37.1826 568.732 37.8426 568.324C38.5146 567.916 39.2886 567.712 40.1646 567.712C40.9086 567.712 41.5566 567.862 42.1086 568.162C42.6726 568.462 43.1046 568.882 43.4046 569.422V564.04H44.9166V577H43.5486L43.4226 575.506C43.2306 575.806 42.9846 576.088 42.6846 576.352C42.3846 576.604 42.0246 576.814 41.6046 576.982C41.1846 577.138 40.6986 577.216 40.1466 577.216ZM40.3266 575.902C40.9266 575.902 41.4546 575.758 41.9106 575.47C42.3666 575.182 42.7206 574.786 42.9726 574.282C43.2246 573.766 43.3506 573.16 43.3506 572.464C43.3506 571.78 43.2246 571.18 42.9726 570.664C42.7206 570.148 42.3666 569.746 41.9106 569.458C41.4546 569.17 40.9266 569.026 40.3266 569.026C39.7386 569.026 39.2166 569.17 38.7606 569.458C38.3046 569.746 37.9506 570.148 37.6986 570.664C37.4466 571.18 37.3206 571.78 37.3206 572.464C37.3206 573.16 37.4466 573.766 37.6986 574.282C37.9506 574.786 38.3046 575.182 38.7606 575.47C39.2166 575.758 39.7386 575.902 40.3266 575.902ZM51.4138 577.216C50.5618 577.216 49.8058 577.018 49.1458 576.622C48.4978 576.226 47.9878 575.674 47.6158 574.966C47.2438 574.246 47.0578 573.412 47.0578 572.464C47.0578 571.504 47.2378 570.67 47.5978 569.962C47.9698 569.254 48.4858 568.702 49.1458 568.306C49.8178 567.91 50.5858 567.712 51.4498 567.712C52.3378 567.712 53.0878 567.91 53.6998 568.306C54.3238 568.702 54.7978 569.224 55.1218 569.872C55.4578 570.508 55.6258 571.21 55.6258 571.978C55.6258 572.098 55.6258 572.224 55.6258 572.356C55.6258 572.488 55.6198 572.638 55.6078 572.806H48.1918V571.636H54.1498C54.1138 570.808 53.8378 570.16 53.3218 569.692C52.8178 569.224 52.1818 568.99 51.4138 568.99C50.8978 568.99 50.4178 569.11 49.9738 569.35C49.5418 569.578 49.1938 569.92 48.9298 570.376C48.6658 570.82 48.5338 571.378 48.5338 572.05V572.554C48.5338 573.298 48.6658 573.922 48.9298 574.426C49.2058 574.93 49.5598 575.308 49.9918 575.56C50.4358 575.812 50.9098 575.938 51.4138 575.938C52.0498 575.938 52.5718 575.8 52.9798 575.524C53.3998 575.236 53.6998 574.852 53.8798 574.372H55.3738C55.2298 574.912 54.9778 575.398 54.6178 575.83C54.2578 576.262 53.8078 576.604 53.2678 576.856C52.7398 577.096 52.1218 577.216 51.4138 577.216ZM57.6663 577V567.928H59.0343L59.1423 569.656C59.3463 569.248 59.6043 568.9 59.9163 568.612C60.2403 568.324 60.6243 568.102 61.0683 567.946C61.5243 567.79 62.0403 567.712 62.6163 567.712V569.296H62.0583C61.6743 569.296 61.3083 569.35 60.9603 569.458C60.6123 569.554 60.3003 569.716 60.0243 569.944C59.7603 570.172 59.5503 570.484 59.3943 570.88C59.2503 571.264 59.1783 571.744 59.1783 572.32V577H57.6663ZM64.3284 577V567.928H65.6964L65.7684 569.512C66.0564 568.948 66.4644 568.51 66.9924 568.198C67.5324 567.874 68.1444 567.712 68.8284 567.712C69.5364 567.712 70.1484 567.856 70.6644 568.144C71.1804 568.42 71.5824 568.846 71.8704 569.422C72.1584 569.986 72.3024 570.706 72.3024 571.582V577H70.7904V571.744C70.7904 570.832 70.5864 570.148 70.1784 569.692C69.7824 569.236 69.2184 569.008 68.4864 569.008C67.9824 569.008 67.5324 569.134 67.1364 569.386C66.7404 569.626 66.4224 569.98 66.1824 570.448C65.9544 570.904 65.8404 571.474 65.8404 572.158V577H64.3284ZM83.0095 577C82.4695 577 82.0015 576.916 81.6055 576.748C81.2095 576.58 80.9035 576.298 80.6875 575.902C80.4835 575.494 80.3815 574.948 80.3815 574.264V569.206H78.7975V567.928H80.3815L80.5795 565.732H81.8935V567.928H84.5215V569.206H81.8935V574.264C81.8935 574.828 82.0075 575.212 82.2355 575.416C82.4635 575.608 82.8655 575.704 83.4415 575.704H84.4135V577H83.0095ZM90.2263 577.216C89.3743 577.216 88.6183 577.018 87.9583 576.622C87.3103 576.226 86.8003 575.674 86.4283 574.966C86.0563 574.246 85.8703 573.412 85.8703 572.464C85.8703 571.504 86.0503 570.67 86.4103 569.962C86.7823 569.254 87.2983 568.702 87.9583 568.306C88.6303 567.91 89.3983 567.712 90.2623 567.712C91.1503 567.712 91.9003 567.91 92.5123 568.306C93.1363 568.702 93.6103 569.224 93.9343 569.872C94.2703 570.508 94.4383 571.21 94.4383 571.978C94.4383 572.098 94.4383 572.224 94.4383 572.356C94.4383 572.488 94.4323 572.638 94.4203 572.806H87.0043V571.636H92.9623C92.9263 570.808 92.6503 570.16 92.1343 569.692C91.6303 569.224 90.9943 568.99 90.2263 568.99C89.7103 568.99 89.2303 569.11 88.7863 569.35C88.3543 569.578 88.0063 569.92 87.7423 570.376C87.4783 570.82 87.3463 571.378 87.3463 572.05V572.554C87.3463 573.298 87.4783 573.922 87.7423 574.426C88.0183 574.93 88.3723 575.308 88.8043 575.56C89.2483 575.812 89.7223 575.938 90.2263 575.938C90.8623 575.938 91.3843 575.8 91.7923 575.524C92.2123 575.236 92.5123 574.852 92.6923 574.372H94.1863C94.0423 574.912 93.7903 575.398 93.4303 575.83C93.0703 576.262 92.6203 576.604 92.0803 576.856C91.5523 577.096 90.9343 577.216 90.2263 577.216ZM100.565 577.216C99.7128 577.216 98.9448 577.018 98.2608 576.622C97.5888 576.226 97.0608 575.674 96.6768 574.966C96.2928 574.246 96.1008 573.418 96.1008 572.482C96.1008 571.522 96.2928 570.688 96.6768 569.98C97.0608 569.272 97.5888 568.72 98.2608 568.324C98.9448 567.916 99.7128 567.712 100.565 567.712C101.645 567.712 102.545 567.994 103.265 568.558C103.985 569.11 104.441 569.854 104.633 570.79H103.085C102.965 570.226 102.671 569.788 102.203 569.476C101.735 569.164 101.183 569.008 100.547 569.008C100.031 569.008 99.5508 569.14 99.1068 569.404C98.6628 569.656 98.3088 570.04 98.0448 570.556C97.7808 571.072 97.6488 571.708 97.6488 572.464C97.6488 573.028 97.7268 573.532 97.8828 573.976C98.0388 574.408 98.2488 574.768 98.5128 575.056C98.7768 575.344 99.0828 575.566 99.4308 575.722C99.7908 575.866 100.163 575.938 100.547 575.938C100.979 575.938 101.369 575.872 101.717 575.74C102.065 575.596 102.359 575.386 102.599 575.11C102.839 574.834 103.001 574.51 103.085 574.138H104.633C104.441 575.05 103.979 575.794 103.247 576.37C102.527 576.934 101.633 577.216 100.565 577.216ZM106.78 577V564.04H108.292V569.458C108.592 568.918 109.012 568.492 109.552 568.18C110.104 567.868 110.704 567.712 111.352 567.712C112.048 567.712 112.654 567.856 113.17 568.144C113.686 568.42 114.082 568.846 114.358 569.422C114.634 569.998 114.772 570.724 114.772 571.6V577H113.278V571.762C113.278 570.85 113.086 570.166 112.702 569.71C112.318 569.242 111.76 569.008 111.028 569.008C110.512 569.008 110.044 569.134 109.624 569.386C109.216 569.638 108.892 569.998 108.652 570.466C108.412 570.934 108.292 571.51 108.292 572.194V577H106.78ZM117.133 577V567.928H118.501L118.573 569.512C118.861 568.948 119.269 568.51 119.797 568.198C120.337 567.874 120.949 567.712 121.633 567.712C122.341 567.712 122.953 567.856 123.469 568.144C123.985 568.42 124.387 568.846 124.675 569.422C124.963 569.986 125.107 570.706 125.107 571.582V577H123.595V571.744C123.595 570.832 123.391 570.148 122.983 569.692C122.587 569.236 122.023 569.008 121.291 569.008C120.787 569.008 120.337 569.134 119.941 569.386C119.545 569.626 119.227 569.98 118.987 570.448C118.759 570.904 118.645 571.474 118.645 572.158V577H117.133ZM131.519 577.216C130.679 577.216 129.923 577.024 129.251 576.64C128.579 576.244 128.051 575.692 127.667 574.984C127.283 574.264 127.091 573.43 127.091 572.482C127.091 571.51 127.283 570.67 127.667 569.962C128.063 569.242 128.597 568.69 129.269 568.306C129.953 567.91 130.715 567.712 131.555 567.712C132.419 567.712 133.181 567.91 133.841 568.306C134.513 568.69 135.041 569.242 135.425 569.962C135.821 570.67 136.019 571.504 136.019 572.464C136.019 573.424 135.821 574.264 135.425 574.984C135.029 575.692 134.495 576.244 133.823 576.64C133.151 577.024 132.383 577.216 131.519 577.216ZM131.537 575.92C132.053 575.92 132.533 575.794 132.977 575.542C133.421 575.278 133.781 574.888 134.057 574.372C134.333 573.856 134.471 573.22 134.471 572.464C134.471 571.696 134.333 571.06 134.057 570.556C133.793 570.04 133.439 569.656 132.995 569.404C132.563 569.14 132.083 569.008 131.555 569.008C131.051 569.008 130.571 569.14 130.115 569.404C129.671 569.656 129.311 570.04 129.035 570.556C128.771 571.06 128.639 571.696 128.639 572.464C128.639 573.22 128.771 573.856 129.035 574.372C129.311 574.888 129.665 575.278 130.097 575.542C130.541 575.794 131.021 575.92 131.537 575.92ZM138.139 577V564.04H139.651V577H138.139ZM146.197 577.216C145.357 577.216 144.601 577.024 143.929 576.64C143.257 576.244 142.729 575.692 142.345 574.984C141.961 574.264 141.769 573.43 141.769 572.482C141.769 571.51 141.961 570.67 142.345 569.962C142.741 569.242 143.275 568.69 143.947 568.306C144.631 567.91 145.393 567.712 146.233 567.712C147.097 567.712 147.859 567.91 148.519 568.306C149.191 568.69 149.719 569.242 150.103 569.962C150.499 570.67 150.697 571.504 150.697 572.464C150.697 573.424 150.499 574.264 150.103 574.984C149.707 575.692 149.173 576.244 148.501 576.64C147.829 577.024 147.061 577.216 146.197 577.216ZM146.215 575.92C146.731 575.92 147.211 575.794 147.655 575.542C148.099 575.278 148.459 574.888 148.735 574.372C149.011 573.856 149.149 573.22 149.149 572.464C149.149 571.696 149.011 571.06 148.735 570.556C148.471 570.04 148.117 569.656 147.673 569.404C147.241 569.14 146.761 569.008 146.233 569.008C145.729 569.008 145.249 569.14 144.793 569.404C144.349 569.656 143.989 570.04 143.713 570.556C143.449 571.06 143.317 571.696 143.317 572.464C143.317 573.22 143.449 573.856 143.713 574.372C143.989 574.888 144.343 575.278 144.775 575.542C145.219 575.794 145.699 575.92 146.215 575.92ZM155.994 581.176C155.178 581.176 154.458 581.068 153.834 580.852C153.21 580.648 152.718 580.33 152.358 579.898C152.01 579.466 151.836 578.932 151.836 578.296C151.836 578.032 151.89 577.744 151.998 577.432C152.118 577.12 152.316 576.814 152.592 576.514C152.88 576.214 153.282 575.944 153.798 575.704L154.842 576.316C154.218 576.58 153.804 576.88 153.6 577.216C153.408 577.552 153.312 577.864 153.312 578.152C153.312 578.548 153.426 578.878 153.654 579.142C153.894 579.406 154.212 579.604 154.608 579.736C155.016 579.868 155.478 579.934 155.994 579.934C156.498 579.934 156.936 579.856 157.308 579.7C157.68 579.556 157.968 579.352 158.172 579.088C158.376 578.824 158.478 578.518 158.478 578.17C158.478 577.762 158.322 577.414 158.01 577.126C157.698 576.85 157.11 576.688 156.246 576.64C155.538 576.592 154.944 576.526 154.464 576.442C153.996 576.358 153.6 576.262 153.276 576.154C152.964 576.034 152.7 575.902 152.484 575.758C152.28 575.614 152.094 575.464 151.926 575.308V574.894L153.69 573.148L154.986 573.616L153.186 575.254L153.42 574.624C153.552 574.72 153.678 574.81 153.798 574.894C153.918 574.978 154.08 575.05 154.284 575.11C154.5 575.17 154.788 575.224 155.148 575.272C155.508 575.32 155.988 575.368 156.588 575.416C157.404 575.476 158.058 575.62 158.55 575.848C159.054 576.076 159.414 576.382 159.63 576.766C159.858 577.15 159.972 577.6 159.972 578.116C159.972 578.62 159.828 579.106 159.54 579.574C159.264 580.042 158.832 580.426 158.244 580.726C157.656 581.026 156.906 581.176 155.994 581.176ZM155.976 574.174C155.22 574.174 154.572 574.03 154.032 573.742C153.504 573.454 153.102 573.07 152.826 572.59C152.55 572.11 152.412 571.57 152.412 570.97C152.412 570.382 152.55 569.848 152.826 569.368C153.114 568.888 153.522 568.504 154.05 568.216C154.578 567.916 155.22 567.766 155.976 567.766C156.732 567.766 157.374 567.916 157.902 568.216C158.43 568.504 158.832 568.888 159.108 569.368C159.384 569.848 159.522 570.382 159.522 570.97C159.522 571.57 159.384 572.11 159.108 572.59C158.832 573.07 158.43 573.454 157.902 573.742C157.374 574.03 156.732 574.174 155.976 574.174ZM155.976 572.932C156.612 572.932 157.116 572.764 157.488 572.428C157.872 572.092 158.064 571.606 158.064 570.97C158.064 570.346 157.872 569.866 157.488 569.53C157.116 569.194 156.612 569.026 155.976 569.026C155.34 569.026 154.824 569.194 154.428 569.53C154.044 569.866 153.852 570.346 153.852 570.97C153.852 571.606 154.044 572.092 154.428 572.428C154.812 572.764 155.328 572.932 155.976 572.932ZM157.434 569.26L156.984 567.982H160.692V569.116L157.434 569.26ZM162.611 577V567.928H164.123V577H162.611ZM163.367 566.002C163.067 566.002 162.815 565.906 162.611 565.714C162.419 565.51 162.323 565.258 162.323 564.958C162.323 564.658 162.419 564.418 162.611 564.238C162.815 564.046 163.067 563.95 163.367 563.95C163.655 563.95 163.901 564.046 164.105 564.238C164.309 564.418 164.411 564.658 164.411 564.958C164.411 565.258 164.309 565.51 164.105 565.714C163.901 565.906 163.655 566.002 163.367 566.002ZM170.769 577.216C169.917 577.216 169.161 577.018 168.501 576.622C167.853 576.226 167.343 575.674 166.971 574.966C166.599 574.246 166.413 573.412 166.413 572.464C166.413 571.504 166.593 570.67 166.953 569.962C167.325 569.254 167.841 568.702 168.501 568.306C169.173 567.91 169.941 567.712 170.805 567.712C171.693 567.712 172.443 567.91 173.055 568.306C173.679 568.702 174.153 569.224 174.477 569.872C174.813 570.508 174.981 571.21 174.981 571.978C174.981 572.098 174.981 572.224 174.981 572.356C174.981 572.488 174.975 572.638 174.963 572.806H167.547V571.636H173.505C173.469 570.808 173.193 570.16 172.677 569.692C172.173 569.224 171.537 568.99 170.769 568.99C170.253 568.99 169.773 569.11 169.329 569.35C168.897 569.578 168.549 569.92 168.285 570.376C168.021 570.82 167.889 571.378 167.889 572.05V572.554C167.889 573.298 168.021 573.922 168.285 574.426C168.561 574.93 168.915 575.308 169.347 575.56C169.791 575.812 170.265 575.938 170.769 575.938C171.405 575.938 171.927 575.8 172.335 575.524C172.755 575.236 173.055 574.852 173.235 574.372H174.729C174.585 574.912 174.333 575.398 173.973 575.83C173.613 576.262 173.163 576.604 172.623 576.856C172.095 577.096 171.477 577.216 170.769 577.216ZM180.442 577.216C179.686 577.216 179.026 577.09 178.462 576.838C177.91 576.586 177.466 576.238 177.13 575.794C176.806 575.338 176.608 574.804 176.536 574.192H178.084C178.144 574.504 178.27 574.792 178.462 575.056C178.654 575.32 178.912 575.536 179.236 575.704C179.572 575.86 179.98 575.938 180.46 575.938C180.88 575.938 181.228 575.878 181.504 575.758C181.78 575.626 181.984 575.452 182.116 575.236C182.26 575.02 182.332 574.786 182.332 574.534C182.332 574.162 182.242 573.88 182.062 573.688C181.894 573.496 181.642 573.346 181.306 573.238C180.97 573.118 180.562 573.016 180.082 572.932C179.686 572.86 179.296 572.764 178.912 572.644C178.528 572.524 178.186 572.368 177.886 572.176C177.586 571.972 177.346 571.726 177.166 571.438C176.998 571.15 176.914 570.796 176.914 570.376C176.914 569.86 177.046 569.404 177.31 569.008C177.574 568.6 177.952 568.282 178.444 568.054C178.948 567.826 179.53 567.712 180.19 567.712C181.162 567.712 181.948 567.946 182.548 568.414C183.148 568.882 183.502 569.56 183.61 570.448H182.116C182.056 569.992 181.858 569.638 181.522 569.386C181.198 569.122 180.748 568.99 180.172 568.99C179.608 568.99 179.176 569.104 178.876 569.332C178.588 569.56 178.444 569.86 178.444 570.232C178.444 570.472 178.522 570.688 178.678 570.88C178.846 571.06 179.086 571.216 179.398 571.348C179.722 571.48 180.118 571.588 180.586 571.672C181.186 571.78 181.732 571.924 182.224 572.104C182.716 572.284 183.112 572.554 183.412 572.914C183.724 573.262 183.88 573.76 183.88 574.408C183.88 574.972 183.736 575.464 183.448 575.884C183.172 576.304 182.776 576.634 182.26 576.874C181.744 577.102 181.138 577.216 180.442 577.216ZM194.816 577.216C193.964 577.216 193.208 577.018 192.548 576.622C191.9 576.226 191.39 575.674 191.018 574.966C190.646 574.246 190.46 573.412 190.46 572.464C190.46 571.504 190.64 570.67 191 569.962C191.372 569.254 191.888 568.702 192.548 568.306C193.22 567.91 193.988 567.712 194.852 567.712C195.74 567.712 196.49 567.91 197.102 568.306C197.726 568.702 198.2 569.224 198.524 569.872C198.86 570.508 199.028 571.21 199.028 571.978C199.028 572.098 199.028 572.224 199.028 572.356C199.028 572.488 199.022 572.638 199.01 572.806H191.594V571.636H197.552C197.516 570.808 197.24 570.16 196.724 569.692C196.22 569.224 195.584 568.99 194.816 568.99C194.3 568.99 193.82 569.11 193.376 569.35C192.944 569.578 192.596 569.92 192.332 570.376C192.068 570.82 191.936 571.378 191.936 572.05V572.554C191.936 573.298 192.068 573.922 192.332 574.426C192.608 574.93 192.962 575.308 193.394 575.56C193.838 575.812 194.312 575.938 194.816 575.938C195.452 575.938 195.974 575.8 196.382 575.524C196.802 575.236 197.102 574.852 197.282 574.372H198.776C198.632 574.912 198.38 575.398 198.02 575.83C197.66 576.262 197.21 576.604 196.67 576.856C196.142 577.096 195.524 577.216 194.816 577.216ZM201.069 577V567.928H202.437L202.509 569.512C202.797 568.948 203.205 568.51 203.733 568.198C204.273 567.874 204.885 567.712 205.569 567.712C206.277 567.712 206.889 567.856 207.405 568.144C207.921 568.42 208.323 568.846 208.611 569.422C208.899 569.986 209.043 570.706 209.043 571.582V577H207.531V571.744C207.531 570.832 207.327 570.148 206.919 569.692C206.523 569.236 205.959 569.008 205.227 569.008C204.723 569.008 204.273 569.134 203.877 569.386C203.481 569.626 203.163 569.98 202.923 570.448C202.695 570.904 202.581 571.474 202.581 572.158V577H201.069ZM214.825 577.216C214.069 577.216 213.409 577.09 212.845 576.838C212.293 576.586 211.849 576.238 211.513 575.794C211.189 575.338 210.991 574.804 210.919 574.192H212.467C212.527 574.504 212.653 574.792 212.845 575.056C213.037 575.32 213.295 575.536 213.619 575.704C213.955 575.86 214.363 575.938 214.843 575.938C215.263 575.938 215.611 575.878 215.887 575.758C216.163 575.626 216.367 575.452 216.499 575.236C216.643 575.02 216.715 574.786 216.715 574.534C216.715 574.162 216.625 573.88 216.445 573.688C216.277 573.496 216.025 573.346 215.689 573.238C215.353 573.118 214.945 573.016 214.465 572.932C214.069 572.86 213.679 572.764 213.295 572.644C212.911 572.524 212.569 572.368 212.269 572.176C211.969 571.972 211.729 571.726 211.549 571.438C211.381 571.15 211.297 570.796 211.297 570.376C211.297 569.86 211.429 569.404 211.693 569.008C211.957 568.6 212.335 568.282 212.827 568.054C213.331 567.826 213.913 567.712 214.573 567.712C215.545 567.712 216.331 567.946 216.931 568.414C217.531 568.882 217.885 569.56 217.993 570.448H216.499C216.439 569.992 216.241 569.638 215.905 569.386C215.581 569.122 215.131 568.99 214.555 568.99C213.991 568.99 213.559 569.104 213.259 569.332C212.971 569.56 212.827 569.86 212.827 570.232C212.827 570.472 212.905 570.688 213.061 570.88C213.229 571.06 213.469 571.216 213.781 571.348C214.105 571.48 214.501 571.588 214.969 571.672C215.569 571.78 216.115 571.924 216.607 572.104C217.099 572.284 217.495 572.554 217.795 572.914C218.107 573.262 218.263 573.76 218.263 574.408C218.263 574.972 218.119 575.464 217.831 575.884C217.555 576.304 217.159 576.634 216.643 576.874C216.127 577.102 215.521 577.216 214.825 577.216ZM223.734 577.216C223.038 577.216 222.426 577.078 221.898 576.802C221.382 576.526 220.98 576.1 220.692 575.524C220.416 574.948 220.278 574.228 220.278 573.364V567.928H221.79V573.202C221.79 574.102 221.988 574.78 222.384 575.236C222.78 575.692 223.338 575.92 224.058 575.92C224.562 575.92 225.018 575.8 225.426 575.56C225.834 575.308 226.152 574.954 226.38 574.498C226.62 574.03 226.74 573.46 226.74 572.788V567.928H228.252V577H226.884L226.794 575.416C226.518 575.98 226.11 576.424 225.57 576.748C225.03 577.06 224.418 577.216 223.734 577.216ZM230.758 577V567.928H232.126L232.234 569.656C232.438 569.248 232.696 568.9 233.008 568.612C233.332 568.324 233.716 568.102 234.16 567.946C234.616 567.79 235.132 567.712 235.708 567.712V569.296H235.15C234.766 569.296 234.4 569.35 234.052 569.458C233.704 569.554 233.392 569.716 233.116 569.944C232.852 570.172 232.642 570.484 232.486 570.88C232.342 571.264 232.27 571.744 232.27 572.32V577H230.758ZM241.064 577.216C240.212 577.216 239.456 577.018 238.796 576.622C238.148 576.226 237.638 575.674 237.266 574.966C236.894 574.246 236.708 573.412 236.708 572.464C236.708 571.504 236.888 570.67 237.248 569.962C237.62 569.254 238.136 568.702 238.796 568.306C239.468 567.91 240.236 567.712 241.1 567.712C241.988 567.712 242.738 567.91 243.35 568.306C243.974 568.702 244.448 569.224 244.772 569.872C245.108 570.508 245.276 571.21 245.276 571.978C245.276 572.098 245.276 572.224 245.276 572.356C245.276 572.488 245.27 572.638 245.258 572.806H237.842V571.636H243.8C243.764 570.808 243.488 570.16 242.972 569.692C242.468 569.224 241.832 568.99 241.064 568.99C240.548 568.99 240.068 569.11 239.624 569.35C239.192 569.578 238.844 569.92 238.58 570.376C238.316 570.82 238.184 571.378 238.184 572.05V572.554C238.184 573.298 238.316 573.922 238.58 574.426C238.856 574.93 239.21 575.308 239.642 575.56C240.086 575.812 240.56 575.938 241.064 575.938C241.7 575.938 242.222 575.8 242.63 575.524C243.05 575.236 243.35 574.852 243.53 574.372H245.024C244.88 574.912 244.628 575.398 244.268 575.83C243.908 576.262 243.458 576.604 242.918 576.856C242.39 577.096 241.772 577.216 241.064 577.216ZM255.662 577C255.122 577 254.654 576.916 254.258 576.748C253.862 576.58 253.556 576.298 253.34 575.902C253.136 575.494 253.034 574.948 253.034 574.264V569.206H251.45V567.928H253.034L253.232 565.732H254.546V567.928H257.174V569.206H254.546V574.264C254.546 574.828 254.66 575.212 254.888 575.416C255.116 575.608 255.518 575.704 256.094 575.704H257.066V577H255.662ZM259.147 577V567.928H260.515L260.623 569.656C260.827 569.248 261.085 568.9 261.397 568.612C261.721 568.324 262.105 568.102 262.549 567.946C263.005 567.79 263.521 567.712 264.097 567.712V569.296H263.539C263.155 569.296 262.789 569.35 262.441 569.458C262.093 569.554 261.781 569.716 261.505 569.944C261.241 570.172 261.031 570.484 260.875 570.88C260.731 571.264 260.659 571.744 260.659 572.32V577H259.147ZM268.761 577.216C268.029 577.216 267.417 577.09 266.925 576.838C266.433 576.574 266.067 576.232 265.827 575.812C265.587 575.38 265.467 574.912 265.467 574.408C265.467 573.796 265.623 573.28 265.935 572.86C266.259 572.428 266.709 572.104 267.285 571.888C267.873 571.66 268.563 571.546 269.355 571.546H271.749C271.749 570.982 271.659 570.514 271.479 570.142C271.311 569.758 271.059 569.47 270.723 569.278C270.399 569.086 269.991 568.99 269.499 568.99C268.923 568.99 268.425 569.134 268.005 569.422C267.585 569.71 267.327 570.136 267.231 570.7H265.683C265.755 570.052 265.971 569.512 266.331 569.08C266.703 568.636 267.171 568.3 267.735 568.072C268.299 567.832 268.887 567.712 269.499 567.712C270.339 567.712 271.035 567.868 271.587 568.18C272.151 568.48 272.571 568.906 272.847 569.458C273.123 569.998 273.261 570.64 273.261 571.384V577H271.911L271.821 575.398C271.701 575.65 271.545 575.89 271.353 576.118C271.173 576.334 270.957 576.526 270.705 576.694C270.453 576.85 270.165 576.976 269.841 577.072C269.529 577.168 269.169 577.216 268.761 577.216ZM268.995 575.938C269.415 575.938 269.793 575.854 270.129 575.686C270.477 575.506 270.771 575.266 271.011 574.966C271.251 574.654 271.431 574.312 271.551 573.94C271.683 573.568 271.749 573.178 271.749 572.77V572.716H269.481C268.893 572.716 268.419 572.788 268.059 572.932C267.699 573.064 267.441 573.256 267.285 573.508C267.129 573.748 267.051 574.024 267.051 574.336C267.051 574.66 267.123 574.942 267.267 575.182C267.423 575.422 267.645 575.608 267.933 575.74C268.233 575.872 268.587 575.938 268.995 575.938ZM275.6 577V567.928H276.968L277.04 569.512C277.328 568.948 277.736 568.51 278.264 568.198C278.804 567.874 279.416 567.712 280.1 567.712C280.808 567.712 281.42 567.856 281.936 568.144C282.452 568.42 282.854 568.846 283.142 569.422C283.43 569.986 283.574 570.706 283.574 571.582V577H282.062V571.744C282.062 570.832 281.858 570.148 281.45 569.692C281.054 569.236 280.49 569.008 279.758 569.008C279.254 569.008 278.804 569.134 278.408 569.386C278.012 569.626 277.694 569.98 277.454 570.448C277.226 570.904 277.112 571.474 277.112 572.158V577H275.6ZM289.356 577.216C288.6 577.216 287.94 577.09 287.376 576.838C286.824 576.586 286.38 576.238 286.044 575.794C285.72 575.338 285.522 574.804 285.45 574.192H286.998C287.058 574.504 287.184 574.792 287.376 575.056C287.568 575.32 287.826 575.536 288.15 575.704C288.486 575.86 288.894 575.938 289.374 575.938C289.794 575.938 290.142 575.878 290.418 575.758C290.694 575.626 290.898 575.452 291.03 575.236C291.174 575.02 291.246 574.786 291.246 574.534C291.246 574.162 291.156 573.88 290.976 573.688C290.808 573.496 290.556 573.346 290.22 573.238C289.884 573.118 289.476 573.016 288.996 572.932C288.6 572.86 288.21 572.764 287.826 572.644C287.442 572.524 287.1 572.368 286.8 572.176C286.5 571.972 286.26 571.726 286.08 571.438C285.912 571.15 285.828 570.796 285.828 570.376C285.828 569.86 285.96 569.404 286.224 569.008C286.488 568.6 286.866 568.282 287.358 568.054C287.862 567.826 288.444 567.712 289.104 567.712C290.076 567.712 290.862 567.946 291.462 568.414C292.062 568.882 292.416 569.56 292.524 570.448H291.03C290.97 569.992 290.772 569.638 290.436 569.386C290.112 569.122 289.662 568.99 289.086 568.99C288.522 568.99 288.09 569.104 287.79 569.332C287.502 569.56 287.358 569.86 287.358 570.232C287.358 570.472 287.436 570.688 287.592 570.88C287.76 571.06 288 571.216 288.312 571.348C288.636 571.48 289.032 571.588 289.5 571.672C290.1 571.78 290.646 571.924 291.138 572.104C291.63 572.284 292.026 572.554 292.326 572.914C292.638 573.262 292.794 573.76 292.794 574.408C292.794 574.972 292.65 575.464 292.362 575.884C292.086 576.304 291.69 576.634 291.174 576.874C290.658 577.102 290.052 577.216 289.356 577.216ZM294.971 580.96V567.928H296.339L296.465 569.404C296.657 569.116 296.903 568.846 297.203 568.594C297.503 568.33 297.863 568.12 298.283 567.964C298.703 567.796 299.183 567.712 299.723 567.712C300.611 567.712 301.379 567.922 302.027 568.342C302.687 568.762 303.197 569.332 303.557 570.052C303.929 570.76 304.115 571.57 304.115 572.482C304.115 573.394 303.929 574.21 303.557 574.93C303.197 575.638 302.687 576.196 302.027 576.604C301.367 577.012 300.593 577.216 299.705 577.216C298.973 577.216 298.325 577.066 297.761 576.766C297.209 576.466 296.783 576.046 296.483 575.506V580.96H294.971ZM299.543 575.902C300.131 575.902 300.653 575.758 301.109 575.47C301.565 575.182 301.919 574.786 302.171 574.282C302.435 573.766 302.567 573.16 302.567 572.464C302.567 571.78 302.435 571.18 302.171 570.664C301.919 570.148 301.565 569.746 301.109 569.458C300.653 569.17 300.131 569.026 299.543 569.026C298.943 569.026 298.415 569.17 297.959 569.458C297.503 569.746 297.149 570.148 296.897 570.664C296.645 571.18 296.519 571.78 296.519 572.464C296.519 573.16 296.645 573.766 296.897 574.282C297.149 574.786 297.503 575.182 297.959 575.47C298.415 575.758 298.943 575.902 299.543 575.902ZM309.191 577.216C308.459 577.216 307.847 577.09 307.355 576.838C306.863 576.574 306.497 576.232 306.257 575.812C306.017 575.38 305.897 574.912 305.897 574.408C305.897 573.796 306.053 573.28 306.365 572.86C306.689 572.428 307.139 572.104 307.715 571.888C308.303 571.66 308.993 571.546 309.785 571.546H312.179C312.179 570.982 312.089 570.514 311.909 570.142C311.741 569.758 311.489 569.47 311.153 569.278C310.829 569.086 310.421 568.99 309.929 568.99C309.353 568.99 308.855 569.134 308.435 569.422C308.015 569.71 307.757 570.136 307.661 570.7H306.113C306.185 570.052 306.401 569.512 306.761 569.08C307.133 568.636 307.601 568.3 308.165 568.072C308.729 567.832 309.317 567.712 309.929 567.712C310.769 567.712 311.465 567.868 312.017 568.18C312.581 568.48 313.001 568.906 313.277 569.458C313.553 569.998 313.691 570.64 313.691 571.384V577H312.341L312.251 575.398C312.131 575.65 311.975 575.89 311.783 576.118C311.603 576.334 311.387 576.526 311.135 576.694C310.883 576.85 310.595 576.976 310.271 577.072C309.959 577.168 309.599 577.216 309.191 577.216ZM309.425 575.938C309.845 575.938 310.223 575.854 310.559 575.686C310.907 575.506 311.201 575.266 311.441 574.966C311.681 574.654 311.861 574.312 311.981 573.94C312.113 573.568 312.179 573.178 312.179 572.77V572.716H309.911C309.323 572.716 308.849 572.788 308.489 572.932C308.129 573.064 307.871 573.256 307.715 573.508C307.559 573.748 307.481 574.024 307.481 574.336C307.481 574.66 307.553 574.942 307.697 575.182C307.853 575.422 308.075 575.608 308.363 575.74C308.663 575.872 309.017 575.938 309.425 575.938ZM316.03 577V567.928H317.398L317.506 569.656C317.71 569.248 317.968 568.9 318.28 568.612C318.604 568.324 318.988 568.102 319.432 567.946C319.888 567.79 320.404 567.712 320.98 567.712V569.296H320.422C320.038 569.296 319.672 569.35 319.324 569.458C318.976 569.554 318.664 569.716 318.388 569.944C318.124 570.172 317.914 570.484 317.758 570.88C317.614 571.264 317.542 571.744 317.542 572.32V577H316.03ZM326.336 577.216C325.484 577.216 324.728 577.018 324.068 576.622C323.42 576.226 322.91 575.674 322.538 574.966C322.166 574.246 321.98 573.412 321.98 572.464C321.98 571.504 322.16 570.67 322.52 569.962C322.892 569.254 323.408 568.702 324.068 568.306C324.74 567.91 325.508 567.712 326.372 567.712C327.26 567.712 328.01 567.91 328.622 568.306C329.246 568.702 329.72 569.224 330.044 569.872C330.38 570.508 330.548 571.21 330.548 571.978C330.548 572.098 330.548 572.224 330.548 572.356C330.548 572.488 330.542 572.638 330.53 572.806H323.114V571.636H329.072C329.036 570.808 328.76 570.16 328.244 569.692C327.74 569.224 327.104 568.99 326.336 568.99C325.82 568.99 325.34 569.11 324.896 569.35C324.464 569.578 324.116 569.92 323.852 570.376C323.588 570.82 323.456 571.378 323.456 572.05V572.554C323.456 573.298 323.588 573.922 323.852 574.426C324.128 574.93 324.482 575.308 324.914 575.56C325.358 575.812 325.832 575.938 326.336 575.938C326.972 575.938 327.494 575.8 327.902 575.524C328.322 575.236 328.622 574.852 328.802 574.372H330.296C330.152 574.912 329.9 575.398 329.54 575.83C329.18 576.262 328.73 576.604 328.19 576.856C327.662 577.096 327.044 577.216 326.336 577.216ZM332.588 577V567.928H333.956L334.028 569.512C334.316 568.948 334.724 568.51 335.252 568.198C335.792 567.874 336.404 567.712 337.088 567.712C337.796 567.712 338.408 567.856 338.924 568.144C339.44 568.42 339.842 568.846 340.13 569.422C340.418 569.986 340.562 570.706 340.562 571.582V577H339.05V571.744C339.05 570.832 338.846 570.148 338.438 569.692C338.042 569.236 337.478 569.008 336.746 569.008C336.242 569.008 335.792 569.134 335.396 569.386C335 569.626 334.682 569.98 334.442 570.448C334.214 570.904 334.1 571.474 334.1 572.158V577H332.588ZM346.488 577C345.948 577 345.48 576.916 345.084 576.748C344.688 576.58 344.382 576.298 344.166 575.902C343.962 575.494 343.86 574.948 343.86 574.264V569.206H342.276V567.928H343.86L344.058 565.732H345.372V567.928H348V569.206H345.372V574.264C345.372 574.828 345.486 575.212 345.714 575.416C345.942 575.608 346.344 575.704 346.92 575.704H347.892V577H346.488ZM349.717 579.214L350.761 575.236H352.327L350.761 579.214H349.717ZM34.64 600.216C33.884 600.216 33.224 600.09 32.66 599.838C32.108 599.586 31.664 599.238 31.328 598.794C31.004 598.338 30.806 597.804 30.734 597.192H32.282C32.342 597.504 32.468 597.792 32.66 598.056C32.852 598.32 33.11 598.536 33.434 598.704C33.77 598.86 34.178 598.938 34.658 598.938C35.078 598.938 35.426 598.878 35.702 598.758C35.978 598.626 36.182 598.452 36.314 598.236C36.458 598.02 36.53 597.786 36.53 597.534C36.53 597.162 36.44 596.88 36.26 596.688C36.092 596.496 35.84 596.346 35.504 596.238C35.168 596.118 34.76 596.016 34.28 595.932C33.884 595.86 33.494 595.764 33.11 595.644C32.726 595.524 32.384 595.368 32.084 595.176C31.784 594.972 31.544 594.726 31.364 594.438C31.196 594.15 31.112 593.796 31.112 593.376C31.112 592.86 31.244 592.404 31.508 592.008C31.772 591.6 32.15 591.282 32.642 591.054C33.146 590.826 33.728 590.712 34.388 590.712C35.36 590.712 36.146 590.946 36.746 591.414C37.346 591.882 37.7 592.56 37.808 593.448H36.314C36.254 592.992 36.056 592.638 35.72 592.386C35.396 592.122 34.946 591.99 34.37 591.99C33.806 591.99 33.374 592.104 33.074 592.332C32.786 592.56 32.642 592.86 32.642 593.232C32.642 593.472 32.72 593.688 32.876 593.88C33.044 594.06 33.284 594.216 33.596 594.348C33.92 594.48 34.316 594.588 34.784 594.672C35.384 594.78 35.93 594.924 36.422 595.104C36.914 595.284 37.31 595.554 37.61 595.914C37.922 596.262 38.078 596.76 38.078 597.408C38.078 597.972 37.934 598.464 37.646 598.884C37.37 599.304 36.974 599.634 36.458 599.874C35.942 600.102 35.336 600.216 34.64 600.216ZM44.2331 600.216C43.3811 600.216 42.6251 600.018 41.9651 599.622C41.3171 599.226 40.8071 598.674 40.4351 597.966C40.0631 597.246 39.8771 596.412 39.8771 595.464C39.8771 594.504 40.0571 593.67 40.4171 592.962C40.7891 592.254 41.3051 591.702 41.9651 591.306C42.6371 590.91 43.4051 590.712 44.2691 590.712C45.1571 590.712 45.9071 590.91 46.5191 591.306C47.1431 591.702 47.6171 592.224 47.9411 592.872C48.2771 593.508 48.4451 594.21 48.4451 594.978C48.4451 595.098 48.4451 595.224 48.4451 595.356C48.4451 595.488 48.4391 595.638 48.4271 595.806H41.0111V594.636H46.9691C46.9331 593.808 46.6571 593.16 46.1411 592.692C45.6371 592.224 45.0011 591.99 44.2331 591.99C43.7171 591.99 43.2371 592.11 42.7931 592.35C42.3611 592.578 42.0131 592.92 41.7491 593.376C41.4851 593.82 41.3531 594.378 41.3531 595.05V595.554C41.3531 596.298 41.4851 596.922 41.7491 597.426C42.0251 597.93 42.3791 598.308 42.8111 598.56C43.2551 598.812 43.7291 598.938 44.2331 598.938C44.8691 598.938 45.3911 598.8 45.7991 598.524C46.2191 598.236 46.5191 597.852 46.6991 597.372H48.1931C48.0491 597.912 47.7971 598.398 47.4371 598.83C47.0771 599.262 46.6271 599.604 46.0871 599.856C45.5591 600.096 44.9411 600.216 44.2331 600.216ZM54.5716 600.216C53.7196 600.216 52.9516 600.018 52.2676 599.622C51.5956 599.226 51.0676 598.674 50.6836 597.966C50.2996 597.246 50.1076 596.418 50.1076 595.482C50.1076 594.522 50.2996 593.688 50.6836 592.98C51.0676 592.272 51.5956 591.72 52.2676 591.324C52.9516 590.916 53.7196 590.712 54.5716 590.712C55.6516 590.712 56.5516 590.994 57.2716 591.558C57.9916 592.11 58.4476 592.854 58.6396 593.79H57.0916C56.9716 593.226 56.6776 592.788 56.2096 592.476C55.7416 592.164 55.1896 592.008 54.5536 592.008C54.0376 592.008 53.5576 592.14 53.1136 592.404C52.6696 592.656 52.3156 593.04 52.0516 593.556C51.7876 594.072 51.6556 594.708 51.6556 595.464C51.6556 596.028 51.7336 596.532 51.8896 596.976C52.0456 597.408 52.2556 597.768 52.5196 598.056C52.7836 598.344 53.0896 598.566 53.4376 598.722C53.7976 598.866 54.1696 598.938 54.5536 598.938C54.9856 598.938 55.3756 598.872 55.7236 598.74C56.0716 598.596 56.3656 598.386 56.6056 598.11C56.8456 597.834 57.0076 597.51 57.0916 597.138H58.6396C58.4476 598.05 57.9856 598.794 57.2536 599.37C56.5336 599.934 55.6396 600.216 54.5716 600.216ZM64.0804 600.216C63.3844 600.216 62.7724 600.078 62.2444 599.802C61.7284 599.526 61.3264 599.1 61.0384 598.524C60.7624 597.948 60.6244 597.228 60.6244 596.364V590.928H62.1364V596.202C62.1364 597.102 62.3344 597.78 62.7304 598.236C63.1264 598.692 63.6844 598.92 64.4044 598.92C64.9084 598.92 65.3644 598.8 65.7724 598.56C66.1804 598.308 66.4984 597.954 66.7264 597.498C66.9664 597.03 67.0864 596.46 67.0864 595.788V590.928H68.5984V600H67.2304L67.1404 598.416C66.8644 598.98 66.4564 599.424 65.9164 599.748C65.3764 600.06 64.7644 600.216 64.0804 600.216ZM71.1047 600V590.928H72.4727L72.5807 592.656C72.7847 592.248 73.0427 591.9 73.3547 591.612C73.6787 591.324 74.0627 591.102 74.5067 590.946C74.9627 590.79 75.4787 590.712 76.0547 590.712V592.296H75.4967C75.1127 592.296 74.7467 592.35 74.3987 592.458C74.0507 592.554 73.7387 592.716 73.4627 592.944C73.1987 593.172 72.9887 593.484 72.8327 593.88C72.6887 594.264 72.6167 594.744 72.6167 595.32V600H71.1047ZM81.4109 600.216C80.5589 600.216 79.8029 600.018 79.1429 599.622C78.4949 599.226 77.9849 598.674 77.6129 597.966C77.2409 597.246 77.0549 596.412 77.0549 595.464C77.0549 594.504 77.2349 593.67 77.5949 592.962C77.9669 592.254 78.4829 591.702 79.1429 591.306C79.8149 590.91 80.5829 590.712 81.4469 590.712C82.3349 590.712 83.0849 590.91 83.6969 591.306C84.3209 591.702 84.7949 592.224 85.1189 592.872C85.4549 593.508 85.6229 594.21 85.6229 594.978C85.6229 595.098 85.6229 595.224 85.6229 595.356C85.6229 595.488 85.6169 595.638 85.6049 595.806H78.1889V594.636H84.1469C84.1109 593.808 83.8349 593.16 83.3189 592.692C82.8149 592.224 82.1789 591.99 81.4109 591.99C80.8949 591.99 80.4149 592.11 79.9709 592.35C79.5389 592.578 79.1909 592.92 78.9269 593.376C78.6629 593.82 78.5309 594.378 78.5309 595.05V595.554C78.5309 596.298 78.6629 596.922 78.9269 597.426C79.2029 597.93 79.5569 598.308 79.9889 598.56C80.4329 598.812 80.9069 598.938 81.4109 598.938C82.0469 598.938 82.5689 598.8 82.9769 598.524C83.3969 598.236 83.6969 597.852 83.8769 597.372H85.3709C85.2269 597.912 84.9749 598.398 84.6149 598.83C84.2549 599.262 83.8049 599.604 83.2649 599.856C82.7369 600.096 82.1189 600.216 81.4109 600.216ZM86.4753 602.214L87.5193 598.236H89.0853L87.5193 602.214H86.4753ZM98.6661 600.216C97.9341 600.216 97.3221 600.09 96.8301 599.838C96.3381 599.574 95.9721 599.232 95.7321 598.812C95.4921 598.38 95.3721 597.912 95.3721 597.408C95.3721 596.796 95.5281 596.28 95.8401 595.86C96.1641 595.428 96.6141 595.104 97.1901 594.888C97.7781 594.66 98.4681 594.546 99.2601 594.546H101.654C101.654 593.982 101.564 593.514 101.384 593.142C101.216 592.758 100.964 592.47 100.628 592.278C100.304 592.086 99.8961 591.99 99.4041 591.99C98.8281 591.99 98.3301 592.134 97.9101 592.422C97.4901 592.71 97.2321 593.136 97.1361 593.7H95.5881C95.6601 593.052 95.8761 592.512 96.2361 592.08C96.6081 591.636 97.0761 591.3 97.6401 591.072C98.2041 590.832 98.7921 590.712 99.4041 590.712C100.244 590.712 100.94 590.868 101.492 591.18C102.056 591.48 102.476 591.906 102.752 592.458C103.028 592.998 103.166 593.64 103.166 594.384V600H101.816L101.726 598.398C101.606 598.65 101.45 598.89 101.258 599.118C101.078 599.334 100.862 599.526 100.61 599.694C100.358 599.85 100.07 599.976 99.7461 600.072C99.4341 600.168 99.0741 600.216 98.6661 600.216ZM98.9001 598.938C99.3201 598.938 99.6981 598.854 100.034 598.686C100.382 598.506 100.676 598.266 100.916 597.966C101.156 597.654 101.336 597.312 101.456 596.94C101.588 596.568 101.654 596.178 101.654 595.77V595.716H99.3861C98.7981 595.716 98.3241 595.788 97.9641 595.932C97.6041 596.064 97.3461 596.256 97.1901 596.508C97.0341 596.748 96.9561 597.024 96.9561 597.336C96.9561 597.66 97.0281 597.942 97.1721 598.182C97.3281 598.422 97.5501 598.608 97.8381 598.74C98.1381 598.872 98.4921 598.938 98.9001 598.938ZM105.505 600V590.928H106.873L106.945 592.512C107.233 591.948 107.641 591.51 108.169 591.198C108.709 590.874 109.321 590.712 110.005 590.712C110.713 590.712 111.325 590.856 111.841 591.144C112.357 591.42 112.759 591.846 113.047 592.422C113.335 592.986 113.479 593.706 113.479 594.582V600H111.967V594.744C111.967 593.832 111.763 593.148 111.355 592.692C110.959 592.236 110.395 592.008 109.663 592.008C109.159 592.008 108.709 592.134 108.313 592.386C107.917 592.626 107.599 592.98 107.359 593.448C107.131 593.904 107.017 594.474 107.017 595.158V600H105.505ZM119.837 600.216C118.961 600.216 118.193 600.012 117.533 599.604C116.873 599.184 116.363 598.614 116.003 597.894C115.643 597.174 115.463 596.358 115.463 595.446C115.463 594.534 115.643 593.724 116.003 593.016C116.363 592.296 116.873 591.732 117.533 591.324C118.205 590.916 118.979 590.712 119.855 590.712C120.599 590.712 121.247 590.862 121.799 591.162C122.363 591.462 122.795 591.882 123.095 592.422V587.04H124.607V600H123.239L123.113 598.506C122.921 598.806 122.675 599.088 122.375 599.352C122.075 599.604 121.715 599.814 121.295 599.982C120.875 600.138 120.389 600.216 119.837 600.216ZM120.017 598.902C120.617 598.902 121.145 598.758 121.601 598.47C122.057 598.182 122.411 597.786 122.663 597.282C122.915 596.766 123.041 596.16 123.041 595.464C123.041 594.78 122.915 594.18 122.663 593.664C122.411 593.148 122.057 592.746 121.601 592.458C121.145 592.17 120.617 592.026 120.017 592.026C119.429 592.026 118.907 592.17 118.451 592.458C117.995 592.746 117.641 593.148 117.389 593.664C117.137 594.18 117.011 594.78 117.011 595.464C117.011 596.16 117.137 596.766 117.389 597.282C117.641 597.786 117.995 598.182 118.451 598.47C118.907 598.758 119.429 598.902 120.017 598.902ZM132.051 600V590.928H133.563V600H132.051ZM132.807 589.002C132.507 589.002 132.255 588.906 132.051 588.714C131.859 588.51 131.763 588.258 131.763 587.958C131.763 587.658 131.859 587.418 132.051 587.238C132.255 587.046 132.507 586.95 132.807 586.95C133.095 586.95 133.341 587.046 133.545 587.238C133.749 587.418 133.851 587.658 133.851 587.958C133.851 588.258 133.749 588.51 133.545 588.714C133.341 588.906 133.095 589.002 132.807 589.002ZM136.232 600V590.928H137.6L137.672 592.512C137.96 591.948 138.368 591.51 138.896 591.198C139.436 590.874 140.048 590.712 140.732 590.712C141.44 590.712 142.052 590.856 142.568 591.144C143.084 591.42 143.486 591.846 143.774 592.422C144.062 592.986 144.206 593.706 144.206 594.582V600H142.694V594.744C142.694 593.832 142.49 593.148 142.082 592.692C141.686 592.236 141.122 592.008 140.39 592.008C139.886 592.008 139.436 592.134 139.04 592.386C138.644 592.626 138.326 592.98 138.086 593.448C137.858 593.904 137.744 594.474 137.744 595.158V600H136.232ZM150.564 600.216C149.688 600.216 148.92 600.012 148.26 599.604C147.6 599.184 147.09 598.614 146.73 597.894C146.37 597.174 146.19 596.358 146.19 595.446C146.19 594.534 146.37 593.724 146.73 593.016C147.09 592.296 147.6 591.732 148.26 591.324C148.932 590.916 149.706 590.712 150.582 590.712C151.326 590.712 151.974 590.862 152.526 591.162C153.09 591.462 153.522 591.882 153.822 592.422V587.04H155.334V600H153.966L153.84 598.506C153.648 598.806 153.402 599.088 153.102 599.352C152.802 599.604 152.442 599.814 152.022 599.982C151.602 600.138 151.116 600.216 150.564 600.216ZM150.744 598.902C151.344 598.902 151.872 598.758 152.328 598.47C152.784 598.182 153.138 597.786 153.39 597.282C153.642 596.766 153.768 596.16 153.768 595.464C153.768 594.78 153.642 594.18 153.39 593.664C153.138 593.148 152.784 592.746 152.328 592.458C151.872 592.17 151.344 592.026 150.744 592.026C150.156 592.026 149.634 592.17 149.178 592.458C148.722 592.746 148.368 593.148 148.116 593.664C147.864 594.18 147.738 594.78 147.738 595.464C147.738 596.16 147.864 596.766 148.116 597.282C148.368 597.786 148.722 598.182 149.178 598.47C149.634 598.758 150.156 598.902 150.744 598.902ZM161.831 600.216C160.979 600.216 160.223 600.018 159.563 599.622C158.915 599.226 158.405 598.674 158.033 597.966C157.661 597.246 157.475 596.412 157.475 595.464C157.475 594.504 157.655 593.67 158.015 592.962C158.387 592.254 158.903 591.702 159.563 591.306C160.235 590.91 161.003 590.712 161.867 590.712C162.755 590.712 163.505 590.91 164.117 591.306C164.741 591.702 165.215 592.224 165.539 592.872C165.875 593.508 166.043 594.21 166.043 594.978C166.043 595.098 166.043 595.224 166.043 595.356C166.043 595.488 166.037 595.638 166.025 595.806H158.609V594.636H164.567C164.531 593.808 164.255 593.16 163.739 592.692C163.235 592.224 162.599 591.99 161.831 591.99C161.315 591.99 160.835 592.11 160.391 592.35C159.959 592.578 159.611 592.92 159.347 593.376C159.083 593.82 158.951 594.378 158.951 595.05V595.554C158.951 596.298 159.083 596.922 159.347 597.426C159.623 597.93 159.977 598.308 160.409 598.56C160.853 598.812 161.327 598.938 161.831 598.938C162.467 598.938 162.989 598.8 163.397 598.524C163.817 598.236 164.117 597.852 164.297 597.372H165.791C165.647 597.912 165.395 598.398 165.035 598.83C164.675 599.262 164.225 599.604 163.685 599.856C163.157 600.096 162.539 600.216 161.831 600.216ZM168.083 603.96V590.928H169.451L169.577 592.404C169.769 592.116 170.015 591.846 170.315 591.594C170.615 591.33 170.975 591.12 171.395 590.964C171.815 590.796 172.295 590.712 172.835 590.712C173.723 590.712 174.491 590.922 175.139 591.342C175.799 591.762 176.309 592.332 176.669 593.052C177.041 593.76 177.227 594.57 177.227 595.482C177.227 596.394 177.041 597.21 176.669 597.93C176.309 598.638 175.799 599.196 175.139 599.604C174.479 600.012 173.705 600.216 172.817 600.216C172.085 600.216 171.437 600.066 170.873 599.766C170.321 599.466 169.895 599.046 169.595 598.506V603.96H168.083ZM172.655 598.902C173.243 598.902 173.765 598.758 174.221 598.47C174.677 598.182 175.031 597.786 175.283 597.282C175.547 596.766 175.679 596.16 175.679 595.464C175.679 594.78 175.547 594.18 175.283 593.664C175.031 593.148 174.677 592.746 174.221 592.458C173.765 592.17 173.243 592.026 172.655 592.026C172.055 592.026 171.527 592.17 171.071 592.458C170.615 592.746 170.261 593.148 170.009 593.664C169.757 594.18 169.631 594.78 169.631 595.464C169.631 596.16 169.757 596.766 170.009 597.282C170.261 597.786 170.615 598.182 171.071 598.47C171.527 598.758 172.055 598.902 172.655 598.902ZM183.329 600.216C182.477 600.216 181.721 600.018 181.061 599.622C180.413 599.226 179.903 598.674 179.531 597.966C179.159 597.246 178.973 596.412 178.973 595.464C178.973 594.504 179.153 593.67 179.513 592.962C179.885 592.254 180.401 591.702 181.061 591.306C181.733 590.91 182.501 590.712 183.365 590.712C184.253 590.712 185.003 590.91 185.615 591.306C186.239 591.702 186.713 592.224 187.037 592.872C187.373 593.508 187.541 594.21 187.541 594.978C187.541 595.098 187.541 595.224 187.541 595.356C187.541 595.488 187.535 595.638 187.523 595.806H180.107V594.636H186.065C186.029 593.808 185.753 593.16 185.237 592.692C184.733 592.224 184.097 591.99 183.329 591.99C182.813 591.99 182.333 592.11 181.889 592.35C181.457 592.578 181.109 592.92 180.845 593.376C180.581 593.82 180.449 594.378 180.449 595.05V595.554C180.449 596.298 180.581 596.922 180.845 597.426C181.121 597.93 181.475 598.308 181.907 598.56C182.351 598.812 182.825 598.938 183.329 598.938C183.965 598.938 184.487 598.8 184.895 598.524C185.315 598.236 185.615 597.852 185.795 597.372H187.289C187.145 597.912 186.893 598.398 186.533 598.83C186.173 599.262 185.723 599.604 185.183 599.856C184.655 600.096 184.037 600.216 183.329 600.216ZM189.581 600V590.928H190.949L191.021 592.512C191.309 591.948 191.717 591.51 192.245 591.198C192.785 590.874 193.397 590.712 194.081 590.712C194.789 590.712 195.401 590.856 195.917 591.144C196.433 591.42 196.835 591.846 197.123 592.422C197.411 592.986 197.555 593.706 197.555 594.582V600H196.043V594.744C196.043 593.832 195.839 593.148 195.431 592.692C195.035 592.236 194.471 592.008 193.739 592.008C193.235 592.008 192.785 592.134 192.389 592.386C191.993 592.626 191.675 592.98 191.435 593.448C191.207 593.904 191.093 594.474 191.093 595.158V600H189.581ZM203.913 600.216C203.037 600.216 202.269 600.012 201.609 599.604C200.949 599.184 200.439 598.614 200.079 597.894C199.719 597.174 199.539 596.358 199.539 595.446C199.539 594.534 199.719 593.724 200.079 593.016C200.439 592.296 200.949 591.732 201.609 591.324C202.281 590.916 203.055 590.712 203.931 590.712C204.675 590.712 205.323 590.862 205.875 591.162C206.439 591.462 206.871 591.882 207.171 592.422V587.04H208.683V600H207.315L207.189 598.506C206.997 598.806 206.751 599.088 206.451 599.352C206.151 599.604 205.791 599.814 205.371 599.982C204.951 600.138 204.465 600.216 203.913 600.216ZM204.093 598.902C204.693 598.902 205.221 598.758 205.677 598.47C206.133 598.182 206.487 597.786 206.739 597.282C206.991 596.766 207.117 596.16 207.117 595.464C207.117 594.78 206.991 594.18 206.739 593.664C206.487 593.148 206.133 592.746 205.677 592.458C205.221 592.17 204.693 592.026 204.093 592.026C203.505 592.026 202.983 592.17 202.527 592.458C202.071 592.746 201.717 593.148 201.465 593.664C201.213 594.18 201.087 594.78 201.087 595.464C201.087 596.16 201.213 596.766 201.465 597.282C201.717 597.786 202.071 598.182 202.527 598.47C202.983 598.758 203.505 598.902 204.093 598.902ZM215.18 600.216C214.328 600.216 213.572 600.018 212.912 599.622C212.264 599.226 211.754 598.674 211.382 597.966C211.01 597.246 210.824 596.412 210.824 595.464C210.824 594.504 211.004 593.67 211.364 592.962C211.736 592.254 212.252 591.702 212.912 591.306C213.584 590.91 214.352 590.712 215.216 590.712C216.104 590.712 216.854 590.91 217.466 591.306C218.09 591.702 218.564 592.224 218.888 592.872C219.224 593.508 219.392 594.21 219.392 594.978C219.392 595.098 219.392 595.224 219.392 595.356C219.392 595.488 219.386 595.638 219.374 595.806H211.958V594.636H217.916C217.88 593.808 217.604 593.16 217.088 592.692C216.584 592.224 215.948 591.99 215.18 591.99C214.664 591.99 214.184 592.11 213.74 592.35C213.308 592.578 212.96 592.92 212.696 593.376C212.432 593.82 212.3 594.378 212.3 595.05V595.554C212.3 596.298 212.432 596.922 212.696 597.426C212.972 597.93 213.326 598.308 213.758 598.56C214.202 598.812 214.676 598.938 215.18 598.938C215.816 598.938 216.338 598.8 216.746 598.524C217.166 598.236 217.466 597.852 217.646 597.372H219.14C218.996 597.912 218.744 598.398 218.384 598.83C218.024 599.262 217.574 599.604 217.034 599.856C216.506 600.096 215.888 600.216 215.18 600.216ZM221.433 600V590.928H222.801L222.873 592.512C223.161 591.948 223.569 591.51 224.097 591.198C224.637 590.874 225.249 590.712 225.933 590.712C226.641 590.712 227.253 590.856 227.769 591.144C228.285 591.42 228.687 591.846 228.975 592.422C229.263 592.986 229.407 593.706 229.407 594.582V600H227.895V594.744C227.895 593.832 227.691 593.148 227.283 592.692C226.887 592.236 226.323 592.008 225.591 592.008C225.087 592.008 224.637 592.134 224.241 592.386C223.845 592.626 223.527 592.98 223.287 593.448C223.059 593.904 222.945 594.474 222.945 595.158V600H221.433ZM235.333 600C234.793 600 234.325 599.916 233.929 599.748C233.533 599.58 233.227 599.298 233.011 598.902C232.807 598.494 232.705 597.948 232.705 597.264V592.206H231.121V590.928H232.705L232.903 588.732H234.217V590.928H236.845V592.206H234.217V597.264C234.217 597.828 234.331 598.212 234.559 598.416C234.787 598.608 235.189 598.704 235.765 598.704H236.737V600H235.333ZM243.599 603.96V590.928H244.967L245.093 592.404C245.285 592.116 245.531 591.846 245.831 591.594C246.131 591.33 246.491 591.12 246.911 590.964C247.331 590.796 247.811 590.712 248.351 590.712C249.239 590.712 250.007 590.922 250.655 591.342C251.315 591.762 251.825 592.332 252.185 593.052C252.557 593.76 252.743 594.57 252.743 595.482C252.743 596.394 252.557 597.21 252.185 597.93C251.825 598.638 251.315 599.196 250.655 599.604C249.995 600.012 249.221 600.216 248.333 600.216C247.601 600.216 246.953 600.066 246.389 599.766C245.837 599.466 245.411 599.046 245.111 598.506V603.96H243.599ZM248.171 598.902C248.759 598.902 249.281 598.758 249.737 598.47C250.193 598.182 250.547 597.786 250.799 597.282C251.063 596.766 251.195 596.16 251.195 595.464C251.195 594.78 251.063 594.18 250.799 593.664C250.547 593.148 250.193 592.746 249.737 592.458C249.281 592.17 248.759 592.026 248.171 592.026C247.571 592.026 247.043 592.17 246.587 592.458C246.131 592.746 245.777 593.148 245.525 593.664C245.273 594.18 245.147 594.78 245.147 595.464C245.147 596.16 245.273 596.766 245.525 597.282C245.777 597.786 246.131 598.182 246.587 598.47C247.043 598.758 247.571 598.902 248.171 598.902ZM254.866 600V590.928H256.234L256.342 592.656C256.546 592.248 256.804 591.9 257.116 591.612C257.44 591.324 257.824 591.102 258.268 590.946C258.724 590.79 259.24 590.712 259.816 590.712V592.296H259.258C258.874 592.296 258.508 592.35 258.16 592.458C257.812 592.554 257.5 592.716 257.224 592.944C256.96 593.172 256.75 593.484 256.594 593.88C256.45 594.264 256.378 594.744 256.378 595.32V600H254.866ZM265.245 600.216C264.405 600.216 263.649 600.024 262.977 599.64C262.305 599.244 261.777 598.692 261.393 597.984C261.009 597.264 260.817 596.43 260.817 595.482C260.817 594.51 261.009 593.67 261.393 592.962C261.789 592.242 262.323 591.69 262.995 591.306C263.679 590.91 264.441 590.712 265.281 590.712C266.145 590.712 266.907 590.91 267.567 591.306C268.239 591.69 268.767 592.242 269.151 592.962C269.547 593.67 269.745 594.504 269.745 595.464C269.745 596.424 269.547 597.264 269.151 597.984C268.755 598.692 268.221 599.244 267.549 599.64C266.877 600.024 266.109 600.216 265.245 600.216ZM265.263 598.92C265.779 598.92 266.259 598.794 266.703 598.542C267.147 598.278 267.507 597.888 267.783 597.372C268.059 596.856 268.197 596.22 268.197 595.464C268.197 594.696 268.059 594.06 267.783 593.556C267.519 593.04 267.165 592.656 266.721 592.404C266.289 592.14 265.809 592.008 265.281 592.008C264.777 592.008 264.297 592.14 263.841 592.404C263.397 592.656 263.037 593.04 262.761 593.556C262.497 594.06 262.365 594.696 262.365 595.464C262.365 596.22 262.497 596.856 262.761 597.372C263.037 597.888 263.391 598.278 263.823 598.542C264.267 598.794 264.747 598.92 265.263 598.92ZM275.95 600.216C275.098 600.216 274.33 600.018 273.646 599.622C272.974 599.226 272.446 598.674 272.062 597.966C271.678 597.246 271.486 596.418 271.486 595.482C271.486 594.522 271.678 593.688 272.062 592.98C272.446 592.272 272.974 591.72 273.646 591.324C274.33 590.916 275.098 590.712 275.95 590.712C277.03 590.712 277.93 590.994 278.65 591.558C279.37 592.11 279.826 592.854 280.018 593.79H278.47C278.35 593.226 278.056 592.788 277.588 592.476C277.12 592.164 276.568 592.008 275.932 592.008C275.416 592.008 274.936 592.14 274.492 592.404C274.048 592.656 273.694 593.04 273.43 593.556C273.166 594.072 273.034 594.708 273.034 595.464C273.034 596.028 273.112 596.532 273.268 596.976C273.424 597.408 273.634 597.768 273.898 598.056C274.162 598.344 274.468 598.566 274.816 598.722C275.176 598.866 275.548 598.938 275.932 598.938C276.364 598.938 276.754 598.872 277.102 598.74C277.45 598.596 277.744 598.386 277.984 598.11C278.224 597.834 278.386 597.51 278.47 597.138H280.018C279.826 598.05 279.364 598.794 278.632 599.37C277.912 599.934 277.018 600.216 275.95 600.216ZM286.143 600.216C285.291 600.216 284.535 600.018 283.875 599.622C283.227 599.226 282.717 598.674 282.345 597.966C281.973 597.246 281.787 596.412 281.787 595.464C281.787 594.504 281.967 593.67 282.327 592.962C282.699 592.254 283.215 591.702 283.875 591.306C284.547 590.91 285.315 590.712 286.179 590.712C287.067 590.712 287.817 590.91 288.429 591.306C289.053 591.702 289.527 592.224 289.851 592.872C290.187 593.508 290.355 594.21 290.355 594.978C290.355 595.098 290.355 595.224 290.355 595.356C290.355 595.488 290.349 595.638 290.337 595.806H282.921V594.636H288.879C288.843 593.808 288.567 593.16 288.051 592.692C287.547 592.224 286.911 591.99 286.143 591.99C285.627 591.99 285.147 592.11 284.703 592.35C284.271 592.578 283.923 592.92 283.659 593.376C283.395 593.82 283.263 594.378 283.263 595.05V595.554C283.263 596.298 283.395 596.922 283.659 597.426C283.935 597.93 284.289 598.308 284.721 598.56C285.165 598.812 285.639 598.938 286.143 598.938C286.779 598.938 287.301 598.8 287.709 598.524C288.129 598.236 288.429 597.852 288.609 597.372H290.103C289.959 597.912 289.707 598.398 289.347 598.83C288.987 599.262 288.537 599.604 287.997 599.856C287.469 600.096 286.851 600.216 286.143 600.216ZM295.816 600.216C295.06 600.216 294.4 600.09 293.836 599.838C293.284 599.586 292.84 599.238 292.504 598.794C292.18 598.338 291.982 597.804 291.91 597.192H293.458C293.518 597.504 293.644 597.792 293.836 598.056C294.028 598.32 294.286 598.536 294.61 598.704C294.946 598.86 295.354 598.938 295.834 598.938C296.254 598.938 296.602 598.878 296.878 598.758C297.154 598.626 297.358 598.452 297.49 598.236C297.634 598.02 297.706 597.786 297.706 597.534C297.706 597.162 297.616 596.88 297.436 596.688C297.268 596.496 297.016 596.346 296.68 596.238C296.344 596.118 295.936 596.016 295.456 595.932C295.06 595.86 294.67 595.764 294.286 595.644C293.902 595.524 293.56 595.368 293.26 595.176C292.96 594.972 292.72 594.726 292.54 594.438C292.372 594.15 292.288 593.796 292.288 593.376C292.288 592.86 292.42 592.404 292.684 592.008C292.948 591.6 293.326 591.282 293.818 591.054C294.322 590.826 294.904 590.712 295.564 590.712C296.536 590.712 297.322 590.946 297.922 591.414C298.522 591.882 298.876 592.56 298.984 593.448H297.49C297.43 592.992 297.232 592.638 296.896 592.386C296.572 592.122 296.122 591.99 295.546 591.99C294.982 591.99 294.55 592.104 294.25 592.332C293.962 592.56 293.818 592.86 293.818 593.232C293.818 593.472 293.896 593.688 294.052 593.88C294.22 594.06 294.46 594.216 294.772 594.348C295.096 594.48 295.492 594.588 295.96 594.672C296.56 594.78 297.106 594.924 297.598 595.104C298.09 595.284 298.486 595.554 298.786 595.914C299.098 596.262 299.254 596.76 299.254 597.408C299.254 597.972 299.11 598.464 298.822 598.884C298.546 599.304 298.15 599.634 297.634 599.874C297.118 600.102 296.512 600.216 295.816 600.216ZM304.851 600.216C304.095 600.216 303.435 600.09 302.871 599.838C302.319 599.586 301.875 599.238 301.539 598.794C301.215 598.338 301.017 597.804 300.945 597.192H302.493C302.553 597.504 302.679 597.792 302.871 598.056C303.063 598.32 303.321 598.536 303.645 598.704C303.981 598.86 304.389 598.938 304.869 598.938C305.289 598.938 305.637 598.878 305.913 598.758C306.189 598.626 306.393 598.452 306.525 598.236C306.669 598.02 306.741 597.786 306.741 597.534C306.741 597.162 306.651 596.88 306.471 596.688C306.303 596.496 306.051 596.346 305.715 596.238C305.379 596.118 304.971 596.016 304.491 595.932C304.095 595.86 303.705 595.764 303.321 595.644C302.937 595.524 302.595 595.368 302.295 595.176C301.995 594.972 301.755 594.726 301.575 594.438C301.407 594.15 301.323 593.796 301.323 593.376C301.323 592.86 301.455 592.404 301.719 592.008C301.983 591.6 302.361 591.282 302.853 591.054C303.357 590.826 303.939 590.712 304.599 590.712C305.571 590.712 306.357 590.946 306.957 591.414C307.557 591.882 307.911 592.56 308.019 593.448H306.525C306.465 592.992 306.267 592.638 305.931 592.386C305.607 592.122 305.157 591.99 304.581 591.99C304.017 591.99 303.585 592.104 303.285 592.332C302.997 592.56 302.853 592.86 302.853 593.232C302.853 593.472 302.931 593.688 303.087 593.88C303.255 594.06 303.495 594.216 303.807 594.348C304.131 594.48 304.527 594.588 304.995 594.672C305.595 594.78 306.141 594.924 306.633 595.104C307.125 595.284 307.521 595.554 307.821 595.914C308.133 596.262 308.289 596.76 308.289 597.408C308.289 597.972 308.145 598.464 307.857 598.884C307.581 599.304 307.185 599.634 306.669 599.874C306.153 600.102 305.547 600.216 304.851 600.216ZM314.444 600.216C313.592 600.216 312.836 600.018 312.176 599.622C311.528 599.226 311.018 598.674 310.646 597.966C310.274 597.246 310.088 596.412 310.088 595.464C310.088 594.504 310.268 593.67 310.628 592.962C311 592.254 311.516 591.702 312.176 591.306C312.848 590.91 313.616 590.712 314.48 590.712C315.368 590.712 316.118 590.91 316.73 591.306C317.354 591.702 317.828 592.224 318.152 592.872C318.488 593.508 318.656 594.21 318.656 594.978C318.656 595.098 318.656 595.224 318.656 595.356C318.656 595.488 318.65 595.638 318.638 595.806H311.222V594.636H317.18C317.144 593.808 316.868 593.16 316.352 592.692C315.848 592.224 315.212 591.99 314.444 591.99C313.928 591.99 313.448 592.11 313.004 592.35C312.572 592.578 312.224 592.92 311.96 593.376C311.696 593.82 311.564 594.378 311.564 595.05V595.554C311.564 596.298 311.696 596.922 311.96 597.426C312.236 597.93 312.59 598.308 313.022 598.56C313.466 598.812 313.94 598.938 314.444 598.938C315.08 598.938 315.602 598.8 316.01 598.524C316.43 598.236 316.73 597.852 316.91 597.372H318.404C318.26 597.912 318.008 598.398 317.648 598.83C317.288 599.262 316.838 599.604 316.298 599.856C315.77 600.096 315.152 600.216 314.444 600.216ZM324.117 600.216C323.361 600.216 322.701 600.09 322.137 599.838C321.585 599.586 321.141 599.238 320.805 598.794C320.481 598.338 320.283 597.804 320.211 597.192H321.759C321.819 597.504 321.945 597.792 322.137 598.056C322.329 598.32 322.587 598.536 322.911 598.704C323.247 598.86 323.655 598.938 324.135 598.938C324.555 598.938 324.903 598.878 325.179 598.758C325.455 598.626 325.659 598.452 325.791 598.236C325.935 598.02 326.007 597.786 326.007 597.534C326.007 597.162 325.917 596.88 325.737 596.688C325.569 596.496 325.317 596.346 324.981 596.238C324.645 596.118 324.237 596.016 323.757 595.932C323.361 595.86 322.971 595.764 322.587 595.644C322.203 595.524 321.861 595.368 321.561 595.176C321.261 594.972 321.021 594.726 320.841 594.438C320.673 594.15 320.589 593.796 320.589 593.376C320.589 592.86 320.721 592.404 320.985 592.008C321.249 591.6 321.627 591.282 322.119 591.054C322.623 590.826 323.205 590.712 323.865 590.712C324.837 590.712 325.623 590.946 326.223 591.414C326.823 591.882 327.177 592.56 327.285 593.448H325.791C325.731 592.992 325.533 592.638 325.197 592.386C324.873 592.122 324.423 591.99 323.847 591.99C323.283 591.99 322.851 592.104 322.551 592.332C322.263 592.56 322.119 592.86 322.119 593.232C322.119 593.472 322.197 593.688 322.353 593.88C322.521 594.06 322.761 594.216 323.073 594.348C323.397 594.48 323.793 594.588 324.261 594.672C324.861 594.78 325.407 594.924 325.899 595.104C326.391 595.284 326.787 595.554 327.087 595.914C327.399 596.262 327.555 596.76 327.555 597.408C327.555 597.972 327.411 598.464 327.123 598.884C326.847 599.304 326.451 599.634 325.935 599.874C325.419 600.102 324.813 600.216 324.117 600.216ZM330.272 600.09C329.972 600.09 329.72 599.994 329.516 599.802C329.324 599.598 329.228 599.352 329.228 599.064C329.228 598.776 329.324 598.536 329.516 598.344C329.72 598.14 329.972 598.038 330.272 598.038C330.572 598.038 330.818 598.14 331.01 598.344C331.202 598.536 331.298 598.776 331.298 599.064C331.298 599.352 331.202 599.598 331.01 599.802C330.818 599.994 330.572 600.09 330.272 600.09Z" fill="white"/>
</svg>
