<svg width="378" height="597" viewBox="0 0 378 597" fill="none" xmlns="http://www.w3.org/2000/svg">
<mask id="path-1-outside-1_780_1099" maskUnits="userSpaceOnUse" x="89" y="97" width="182" height="333" fill="black">
<rect fill="white" x="89" y="97" width="182" height="333"/>
<path d="M268.051 392.583V428H125.48V392.583H268.051ZM132.925 99.5469V428H91.417V99.5469H132.925ZM248.876 240.764V276.181H125.48V240.764H248.876ZM265.795 99.5469V135.189H125.48V99.5469H265.795Z"/>
</mask>
<path d="M268.051 392.583H270.051V390.583H268.051V392.583ZM268.051 428V430H270.051V428H268.051ZM125.48 428H123.48V430H125.48V428ZM125.48 392.583V390.583H123.48V392.583H125.48ZM132.925 99.5469H134.925V97.5469H132.925V99.5469ZM132.925 428V430H134.925V428H132.925ZM91.417 428H89.417V430H91.417V428ZM91.417 99.5469V97.5469H89.417V99.5469H91.417ZM248.876 240.764H250.876V238.764H248.876V240.764ZM248.876 276.181V278.181H250.876V276.181H248.876ZM125.48 276.181H123.48V278.181H125.48V276.181ZM125.48 240.764V238.764H123.48V240.764H125.48ZM265.795 99.5469H267.795V97.5469H265.795V99.5469ZM265.795 135.189V137.189H267.795V135.189H265.795ZM125.48 135.189H123.48V137.189H125.48V135.189ZM125.48 99.5469V97.5469H123.48V99.5469H125.48ZM266.051 392.583V428H270.051V392.583H266.051ZM268.051 426H125.48V430H268.051V426ZM127.48 428V392.583H123.48V428H127.48ZM125.48 394.583H268.051V390.583H125.48V394.583ZM130.925 99.5469V428H134.925V99.5469H130.925ZM132.925 426H91.417V430H132.925V426ZM93.417 428V99.5469H89.417V428H93.417ZM91.417 101.547H132.925V97.5469H91.417V101.547ZM246.876 240.764V276.181H250.876V240.764H246.876ZM248.876 274.181H125.48V278.181H248.876V274.181ZM127.48 276.181V240.764H123.48V276.181H127.48ZM125.48 242.764H248.876V238.764H125.48V242.764ZM263.795 99.5469V135.189H267.795V99.5469H263.795ZM265.795 133.189H125.48V137.189H265.795V133.189ZM127.48 135.189V99.5469H123.48V135.189H127.48ZM125.48 101.547H265.795V97.5469H125.48V101.547Z" fill="white" mask="url(#path-1-outside-1_780_1099)"/>
<path d="M30.3215 502V485.2H41.3615V487.816H33.5615V492.208H40.6415V494.728H33.5615V499.384H41.3615V502H30.3215ZM46.9537 502V485.2H50.1937L57.9217 496.792V485.2H61.1617V502H57.9217L50.1937 490.432V502H46.9537ZM74.446 502.288C72.846 502.288 71.454 501.936 70.27 501.232C69.086 500.512 68.166 499.512 67.51 498.232C66.854 496.936 66.526 495.432 66.526 493.72C66.526 491.992 66.862 490.472 67.534 489.16C68.206 487.832 69.174 486.792 70.438 486.04C71.702 485.288 73.214 484.912 74.974 484.912C76.942 484.912 78.574 485.384 79.87 486.328C81.182 487.272 82.03 488.584 82.414 490.264H78.79C78.55 489.528 78.102 488.952 77.446 488.536C76.806 488.104 75.974 487.888 74.95 487.888C73.862 487.888 72.934 488.128 72.166 488.608C71.398 489.088 70.814 489.76 70.414 490.624C70.014 491.488 69.814 492.52 69.814 493.72C69.814 494.936 70.014 495.968 70.414 496.816C70.814 497.664 71.382 498.312 72.118 498.76C72.87 499.192 73.75 499.408 74.758 499.408C76.23 499.408 77.342 499.016 78.094 498.232C78.862 497.432 79.318 496.4 79.462 495.136H75.334V492.712H82.726V502H79.726L79.486 499.864C79.134 500.392 78.718 500.84 78.238 501.208C77.774 501.56 77.23 501.824 76.606 502C75.982 502.192 75.262 502.288 74.446 502.288ZM87.2697 502L93.4137 485.2H97.0857L103.206 502H99.7737L95.2377 488.896L90.6777 502H87.2697ZM89.9817 498.184L90.8457 495.664H99.3897L100.23 498.184H89.9817ZM114.46 502.288C112.86 502.288 111.468 501.936 110.284 501.232C109.1 500.512 108.18 499.512 107.524 498.232C106.868 496.936 106.54 495.432 106.54 493.72C106.54 491.992 106.876 490.472 107.548 489.16C108.22 487.832 109.188 486.792 110.452 486.04C111.716 485.288 113.228 484.912 114.988 484.912C116.956 484.912 118.588 485.384 119.884 486.328C121.196 487.272 122.044 488.584 122.428 490.264H118.804C118.564 489.528 118.116 488.952 117.46 488.536C116.82 488.104 115.988 487.888 114.964 487.888C113.876 487.888 112.948 488.128 112.18 488.608C111.412 489.088 110.828 489.76 110.428 490.624C110.028 491.488 109.828 492.52 109.828 493.72C109.828 494.936 110.028 495.968 110.428 496.816C110.828 497.664 111.396 498.312 112.132 498.76C112.884 499.192 113.764 499.408 114.772 499.408C116.244 499.408 117.356 499.016 118.108 498.232C118.876 497.432 119.332 496.4 119.476 495.136H115.348V492.712H122.74V502H119.74L119.5 499.864C119.148 500.392 118.732 500.84 118.252 501.208C117.788 501.56 117.244 501.824 116.62 502C115.996 502.192 115.276 502.288 114.46 502.288ZM128.412 502V485.2H139.452V487.816H131.652V492.208H138.732V494.728H131.652V499.384H139.452V502H128.412ZM145.044 502V485.2H150.66C152.612 485.2 154.22 485.552 155.484 486.256C156.764 486.944 157.708 487.92 158.316 489.184C158.94 490.432 159.252 491.904 159.252 493.6C159.252 495.296 158.94 496.776 158.316 498.04C157.708 499.288 156.772 500.264 155.508 500.968C154.244 501.656 152.628 502 150.66 502H145.044ZM148.284 499.216H150.492C151.868 499.216 152.948 498.992 153.732 498.544C154.532 498.096 155.1 497.456 155.436 496.624C155.772 495.776 155.94 494.768 155.94 493.6C155.94 492.416 155.772 491.408 155.436 490.576C155.1 489.728 154.532 489.08 153.732 488.632C152.948 488.184 151.868 487.96 150.492 487.96H148.284V499.216ZM180.477 502.288C178.797 502.288 177.349 501.928 176.133 501.208C174.933 500.472 174.005 499.456 173.349 498.16C172.709 496.848 172.389 495.336 172.389 493.624C172.389 491.912 172.709 490.4 173.349 489.088C174.005 487.776 174.933 486.752 176.133 486.016C177.349 485.28 178.797 484.912 180.477 484.912C182.509 484.912 184.173 485.416 185.469 486.424C186.765 487.432 187.573 488.856 187.893 490.696H184.365C184.157 489.8 183.717 489.104 183.045 488.608C182.389 488.096 181.525 487.84 180.453 487.84C179.461 487.84 178.605 488.08 177.885 488.56C177.181 489.024 176.637 489.688 176.253 490.552C175.869 491.4 175.677 492.424 175.677 493.624C175.677 494.808 175.869 495.832 176.253 496.696C176.637 497.56 177.181 498.224 177.885 498.688C178.605 499.152 179.461 499.384 180.453 499.384C181.525 499.384 182.389 499.152 183.045 498.688C183.701 498.208 184.133 497.544 184.341 496.696H187.893C187.573 498.44 186.765 499.808 185.469 500.8C184.173 501.792 182.509 502.288 180.477 502.288ZM201.052 502.288C199.42 502.288 197.98 501.92 196.732 501.184C195.484 500.448 194.508 499.432 193.804 498.136C193.1 496.824 192.748 495.312 192.748 493.6C192.748 491.888 193.1 490.384 193.804 489.088C194.508 487.776 195.484 486.752 196.732 486.016C197.98 485.28 199.42 484.912 201.052 484.912C202.7 484.912 204.148 485.28 205.396 486.016C206.644 486.752 207.612 487.776 208.3 489.088C209.004 490.384 209.356 491.888 209.356 493.6C209.356 495.312 209.004 496.824 208.3 498.136C207.612 499.432 206.644 500.448 205.396 501.184C204.148 501.92 202.7 502.288 201.052 502.288ZM201.052 499.384C202.076 499.384 202.956 499.152 203.692 498.688C204.444 498.208 205.028 497.536 205.444 496.672C205.86 495.808 206.068 494.784 206.068 493.6C206.068 492.4 205.86 491.376 205.444 490.528C205.028 489.664 204.444 489 203.692 488.536C202.956 488.072 202.076 487.84 201.052 487.84C200.044 487.84 199.164 488.072 198.412 488.536C197.66 489 197.076 489.664 196.66 490.528C196.244 491.376 196.036 492.4 196.036 493.6C196.036 494.784 196.244 495.808 196.66 496.672C197.076 497.536 197.66 498.208 198.412 498.688C199.164 499.152 200.044 499.384 201.052 499.384ZM214.761 502V485.2H218.625L223.761 495.688L228.849 485.2H232.713V502H229.473V490.72L225.033 499.648H222.465L218.001 490.72V502H214.761ZM238.658 502V485.2H242.522L247.658 495.688L252.746 485.2H256.61V502H253.37V490.72L248.93 499.648H246.362L241.898 490.72V502H238.658ZM269.06 502.288C267.828 502.288 266.708 502.04 265.7 501.544C264.692 501.048 263.892 500.304 263.3 499.312C262.708 498.32 262.412 497.056 262.412 495.52V485.2H265.652V495.544C265.652 496.376 265.788 497.08 266.06 497.656C266.332 498.216 266.724 498.632 267.236 498.904C267.764 499.176 268.388 499.312 269.108 499.312C269.844 499.312 270.468 499.176 270.98 498.904C271.508 498.632 271.908 498.216 272.18 497.656C272.452 497.08 272.588 496.376 272.588 495.544V485.2H275.828V495.52C275.828 497.056 275.524 498.32 274.916 499.312C274.308 500.304 273.484 501.048 272.444 501.544C271.42 502.04 270.292 502.288 269.06 502.288ZM281.626 502V485.2H284.866L292.594 496.792V485.2H295.834V502H292.594L284.866 490.432V502H281.626ZM301.75 502V485.2H304.99V502H301.75ZM314.841 502V487.816H309.921V485.2H322.953V487.816H318.057V502H314.841ZM332.234 502V496.096L326.57 485.2H330.242L334.202 493.504H333.554L337.49 485.2H341.138L335.474 496.096V502H332.234ZM346.289 502.12C345.681 502.12 345.193 501.944 344.825 501.592C344.457 501.224 344.273 500.776 344.273 500.248C344.273 499.72 344.457 499.28 344.825 498.928C345.193 498.56 345.681 498.376 346.289 498.376C346.865 498.376 347.337 498.56 347.705 498.928C348.073 499.28 348.257 499.72 348.257 500.248C348.257 500.776 348.073 501.224 347.705 501.592C347.337 501.944 346.865 502.12 346.289 502.12ZM346.289 493.336C345.681 493.336 345.193 493.16 344.825 492.808C344.457 492.44 344.273 491.992 344.273 491.464C344.273 490.936 344.457 490.496 344.825 490.144C345.193 489.776 345.681 489.592 346.289 489.592C346.865 489.592 347.337 489.776 347.705 490.144C348.073 490.496 348.257 490.936 348.257 491.464C348.257 491.992 348.073 492.44 347.705 492.808C347.337 493.16 346.865 493.336 346.289 493.336Z" fill="white"/>
<path d="M31.1476 546V541.212L27.0436 533.4H28.7536L32.1376 540.222H31.6876L35.0536 533.4H36.7456L32.6596 541.212V546H31.1476ZM40.8705 546.216C40.0305 546.216 39.2745 546.024 38.6025 545.64C37.9305 545.244 37.4025 544.692 37.0185 543.984C36.6345 543.264 36.4425 542.43 36.4425 541.482C36.4425 540.51 36.6345 539.67 37.0185 538.962C37.4145 538.242 37.9485 537.69 38.6205 537.306C39.3045 536.91 40.0665 536.712 40.9065 536.712C41.7705 536.712 42.5325 536.91 43.1925 537.306C43.8645 537.69 44.3925 538.242 44.7765 538.962C45.1725 539.67 45.3705 540.504 45.3705 541.464C45.3705 542.424 45.1725 543.264 44.7765 543.984C44.3805 544.692 43.8465 545.244 43.1745 545.64C42.5025 546.024 41.7345 546.216 40.8705 546.216ZM40.8885 544.92C41.4045 544.92 41.8845 544.794 42.3285 544.542C42.7725 544.278 43.1325 543.888 43.4085 543.372C43.6845 542.856 43.8225 542.22 43.8225 541.464C43.8225 540.696 43.6845 540.06 43.4085 539.556C43.1445 539.04 42.7905 538.656 42.3465 538.404C41.9145 538.14 41.4345 538.008 40.9065 538.008C40.4025 538.008 39.9225 538.14 39.4665 538.404C39.0225 538.656 38.6625 539.04 38.3865 539.556C38.1225 540.06 37.9905 540.696 37.9905 541.464C37.9905 542.22 38.1225 542.856 38.3865 543.372C38.6625 543.888 39.0165 544.278 39.4485 544.542C39.8925 544.794 40.3725 544.92 40.8885 544.92ZM50.7845 546.216C50.0885 546.216 49.4765 546.078 48.9485 545.802C48.4325 545.526 48.0305 545.1 47.7425 544.524C47.4665 543.948 47.3285 543.228 47.3285 542.364V536.928H48.8405V542.202C48.8405 543.102 49.0385 543.78 49.4345 544.236C49.8305 544.692 50.3885 544.92 51.1085 544.92C51.6125 544.92 52.0685 544.8 52.4765 544.56C52.8845 544.308 53.2025 543.954 53.4305 543.498C53.6705 543.03 53.7905 542.46 53.7905 541.788V536.928H55.3025V546H53.9345L53.8445 544.416C53.5685 544.98 53.1605 545.424 52.6205 545.748C52.0805 546.06 51.4685 546.216 50.7845 546.216ZM57.8088 546V536.928H59.1768L59.2848 538.656C59.4888 538.248 59.7468 537.9 60.0588 537.612C60.3828 537.324 60.7668 537.102 61.2108 536.946C61.6668 536.79 62.1828 536.712 62.7588 536.712V538.296H62.2008C61.8168 538.296 61.4508 538.35 61.1028 538.458C60.7548 538.554 60.4428 538.716 60.1668 538.944C59.9028 539.172 59.6928 539.484 59.5368 539.88C59.3928 540.264 59.3208 540.744 59.3208 541.32V546H57.8088ZM71.8622 546L68.4242 536.928H70.0082L72.7442 544.542L75.4982 536.928H77.0462L73.6082 546H71.8622ZM82.3373 546.216C81.4973 546.216 80.7413 546.024 80.0693 545.64C79.3973 545.244 78.8693 544.692 78.4853 543.984C78.1013 543.264 77.9093 542.43 77.9093 541.482C77.9093 540.51 78.1013 539.67 78.4853 538.962C78.8813 538.242 79.4153 537.69 80.0873 537.306C80.7713 536.91 81.5333 536.712 82.3733 536.712C83.2373 536.712 83.9993 536.91 84.6593 537.306C85.3313 537.69 85.8593 538.242 86.2433 538.962C86.6393 539.67 86.8373 540.504 86.8373 541.464C86.8373 542.424 86.6393 543.264 86.2433 543.984C85.8473 544.692 85.3133 545.244 84.6413 545.64C83.9693 546.024 83.2013 546.216 82.3373 546.216ZM82.3553 544.92C82.8713 544.92 83.3513 544.794 83.7953 544.542C84.2393 544.278 84.5993 543.888 84.8753 543.372C85.1513 542.856 85.2893 542.22 85.2893 541.464C85.2893 540.696 85.1513 540.06 84.8753 539.556C84.6113 539.04 84.2573 538.656 83.8133 538.404C83.3813 538.14 82.9013 538.008 82.3733 538.008C81.8693 538.008 81.3893 538.14 80.9333 538.404C80.4893 538.656 80.1293 539.04 79.8533 539.556C79.5893 540.06 79.4573 540.696 79.4573 541.464C79.4573 542.22 79.5893 542.856 79.8533 543.372C80.1293 543.888 80.4833 544.278 80.9153 544.542C81.3593 544.794 81.8393 544.92 82.3553 544.92ZM89.1013 546V536.928H90.6133V546H89.1013ZM89.8573 535.002C89.5573 535.002 89.3053 534.906 89.1013 534.714C88.9093 534.51 88.8133 534.258 88.8133 533.958C88.8133 533.658 88.9093 533.418 89.1013 533.238C89.3053 533.046 89.5573 532.95 89.8573 532.95C90.1453 532.95 90.3913 533.046 90.5953 533.238C90.7993 533.418 90.9013 533.658 90.9013 533.958C90.9013 534.258 90.7993 534.51 90.5953 534.714C90.3913 534.906 90.1453 535.002 89.8573 535.002ZM97.3675 546.216C96.5155 546.216 95.7475 546.018 95.0635 545.622C94.3915 545.226 93.8635 544.674 93.4795 543.966C93.0955 543.246 92.9035 542.418 92.9035 541.482C92.9035 540.522 93.0955 539.688 93.4795 538.98C93.8635 538.272 94.3915 537.72 95.0635 537.324C95.7475 536.916 96.5155 536.712 97.3675 536.712C98.4475 536.712 99.3475 536.994 100.067 537.558C100.787 538.11 101.243 538.854 101.435 539.79H99.8875C99.7675 539.226 99.4735 538.788 99.0055 538.476C98.5375 538.164 97.9855 538.008 97.3495 538.008C96.8335 538.008 96.3535 538.14 95.9095 538.404C95.4655 538.656 95.1115 539.04 94.8475 539.556C94.5835 540.072 94.4515 540.708 94.4515 541.464C94.4515 542.028 94.5295 542.532 94.6855 542.976C94.8415 543.408 95.0515 543.768 95.3155 544.056C95.5795 544.344 95.8855 544.566 96.2335 544.722C96.5935 544.866 96.9655 544.938 97.3495 544.938C97.7815 544.938 98.1715 544.872 98.5195 544.74C98.8675 544.596 99.1615 544.386 99.4015 544.11C99.6415 543.834 99.8035 543.51 99.8875 543.138H101.435C101.243 544.05 100.781 544.794 100.049 545.37C99.3295 545.934 98.4355 546.216 97.3675 546.216ZM107.56 546.216C106.708 546.216 105.952 546.018 105.292 545.622C104.644 545.226 104.134 544.674 103.762 543.966C103.39 543.246 103.204 542.412 103.204 541.464C103.204 540.504 103.384 539.67 103.744 538.962C104.116 538.254 104.632 537.702 105.292 537.306C105.964 536.91 106.732 536.712 107.596 536.712C108.484 536.712 109.234 536.91 109.846 537.306C110.47 537.702 110.944 538.224 111.268 538.872C111.604 539.508 111.772 540.21 111.772 540.978C111.772 541.098 111.772 541.224 111.772 541.356C111.772 541.488 111.766 541.638 111.754 541.806H104.338V540.636H110.296C110.26 539.808 109.984 539.16 109.468 538.692C108.964 538.224 108.328 537.99 107.56 537.99C107.044 537.99 106.564 538.11 106.12 538.35C105.688 538.578 105.34 538.92 105.076 539.376C104.812 539.82 104.68 540.378 104.68 541.05V541.554C104.68 542.298 104.812 542.922 105.076 543.426C105.352 543.93 105.706 544.308 106.138 544.56C106.582 544.812 107.056 544.938 107.56 544.938C108.196 544.938 108.718 544.8 109.126 544.524C109.546 544.236 109.846 543.852 110.026 543.372H111.52C111.376 543.912 111.124 544.398 110.764 544.83C110.404 545.262 109.954 545.604 109.414 545.856C108.886 546.096 108.268 546.216 107.56 546.216ZM118.594 546V536.928H119.962L120.052 538.224C120.34 537.756 120.724 537.39 121.204 537.126C121.696 536.85 122.23 536.712 122.806 536.712C123.274 536.712 123.694 536.778 124.066 536.91C124.45 537.03 124.786 537.222 125.074 537.486C125.362 537.738 125.596 538.062 125.776 538.458C126.088 537.906 126.514 537.48 127.054 537.18C127.606 536.868 128.194 536.712 128.818 536.712C129.514 536.712 130.12 536.856 130.636 537.144C131.164 537.42 131.566 537.846 131.842 538.422C132.13 538.986 132.274 539.706 132.274 540.582V546H130.78V540.744C130.78 539.832 130.594 539.148 130.222 538.692C129.85 538.236 129.328 538.008 128.656 538.008C128.188 538.008 127.768 538.134 127.396 538.386C127.024 538.626 126.73 538.98 126.514 539.448C126.298 539.916 126.19 540.492 126.19 541.176V546H124.678V540.744C124.678 539.832 124.492 539.148 124.12 538.692C123.748 538.236 123.22 538.008 122.536 538.008C122.08 538.008 121.666 538.134 121.294 538.386C120.934 538.626 120.646 538.98 120.43 539.448C120.214 539.916 120.106 540.492 120.106 541.176V546H118.594ZM137.577 546.216C136.845 546.216 136.233 546.09 135.741 545.838C135.249 545.574 134.883 545.232 134.643 544.812C134.403 544.38 134.283 543.912 134.283 543.408C134.283 542.796 134.439 542.28 134.751 541.86C135.075 541.428 135.525 541.104 136.101 540.888C136.689 540.66 137.379 540.546 138.171 540.546H140.565C140.565 539.982 140.475 539.514 140.295 539.142C140.127 538.758 139.875 538.47 139.539 538.278C139.215 538.086 138.807 537.99 138.315 537.99C137.739 537.99 137.241 538.134 136.821 538.422C136.401 538.71 136.143 539.136 136.047 539.7H134.499C134.571 539.052 134.787 538.512 135.147 538.08C135.519 537.636 135.987 537.3 136.551 537.072C137.115 536.832 137.703 536.712 138.315 536.712C139.155 536.712 139.851 536.868 140.403 537.18C140.967 537.48 141.387 537.906 141.663 538.458C141.939 538.998 142.077 539.64 142.077 540.384V546H140.727L140.637 544.398C140.517 544.65 140.361 544.89 140.169 545.118C139.989 545.334 139.773 545.526 139.521 545.694C139.269 545.85 138.981 545.976 138.657 546.072C138.345 546.168 137.985 546.216 137.577 546.216ZM137.811 544.938C138.231 544.938 138.609 544.854 138.945 544.686C139.293 544.506 139.587 544.266 139.827 543.966C140.067 543.654 140.247 543.312 140.367 542.94C140.499 542.568 140.565 542.178 140.565 541.77V541.716H138.297C137.709 541.716 137.235 541.788 136.875 541.932C136.515 542.064 136.257 542.256 136.101 542.508C135.945 542.748 135.867 543.024 135.867 543.336C135.867 543.66 135.939 543.942 136.083 544.182C136.239 544.422 136.461 544.608 136.749 544.74C137.049 544.872 137.403 544.938 137.811 544.938ZM147.734 546C147.194 546 146.726 545.916 146.33 545.748C145.934 545.58 145.628 545.298 145.412 544.902C145.208 544.494 145.106 543.948 145.106 543.264V538.206H143.522V536.928H145.106L145.304 534.732H146.618V536.928H149.246V538.206H146.618V543.264C146.618 543.828 146.732 544.212 146.96 544.416C147.188 544.608 147.59 544.704 148.166 544.704H149.138V546H147.734ZM154.783 546C154.243 546 153.775 545.916 153.379 545.748C152.983 545.58 152.677 545.298 152.461 544.902C152.257 544.494 152.155 543.948 152.155 543.264V538.206H150.571V536.928H152.155L152.353 534.732H153.667V536.928H156.295V538.206H153.667V543.264C153.667 543.828 153.781 544.212 154.009 544.416C154.237 544.608 154.639 544.704 155.215 544.704H156.187V546H154.783ZM162 546.216C161.148 546.216 160.392 546.018 159.732 545.622C159.084 545.226 158.574 544.674 158.202 543.966C157.83 543.246 157.644 542.412 157.644 541.464C157.644 540.504 157.824 539.67 158.184 538.962C158.556 538.254 159.072 537.702 159.732 537.306C160.404 536.91 161.172 536.712 162.036 536.712C162.924 536.712 163.674 536.91 164.286 537.306C164.91 537.702 165.384 538.224 165.708 538.872C166.044 539.508 166.212 540.21 166.212 540.978C166.212 541.098 166.212 541.224 166.212 541.356C166.212 541.488 166.206 541.638 166.194 541.806H158.778V540.636H164.736C164.7 539.808 164.424 539.16 163.908 538.692C163.404 538.224 162.768 537.99 162 537.99C161.484 537.99 161.004 538.11 160.56 538.35C160.128 538.578 159.78 538.92 159.516 539.376C159.252 539.82 159.12 540.378 159.12 541.05V541.554C159.12 542.298 159.252 542.922 159.516 543.426C159.792 543.93 160.146 544.308 160.578 544.56C161.022 544.812 161.496 544.938 162 544.938C162.636 544.938 163.158 544.8 163.566 544.524C163.986 544.236 164.286 543.852 164.466 543.372H165.96C165.816 543.912 165.564 544.398 165.204 544.83C164.844 545.262 164.394 545.604 163.854 545.856C163.326 546.096 162.708 546.216 162 546.216ZM168.252 546V536.928H169.62L169.728 538.656C169.932 538.248 170.19 537.9 170.502 537.612C170.826 537.324 171.21 537.102 171.654 536.946C172.11 536.79 172.626 536.712 173.202 536.712V538.296H172.644C172.26 538.296 171.894 538.35 171.546 538.458C171.198 538.554 170.886 538.716 170.61 538.944C170.346 539.172 170.136 539.484 169.98 539.88C169.836 540.264 169.764 540.744 169.764 541.32V546H168.252ZM178.334 546.216C177.578 546.216 176.918 546.09 176.354 545.838C175.802 545.586 175.358 545.238 175.022 544.794C174.698 544.338 174.5 543.804 174.428 543.192H175.976C176.036 543.504 176.162 543.792 176.354 544.056C176.546 544.32 176.804 544.536 177.128 544.704C177.464 544.86 177.872 544.938 178.352 544.938C178.772 544.938 179.12 544.878 179.396 544.758C179.672 544.626 179.876 544.452 180.008 544.236C180.152 544.02 180.224 543.786 180.224 543.534C180.224 543.162 180.134 542.88 179.954 542.688C179.786 542.496 179.534 542.346 179.198 542.238C178.862 542.118 178.454 542.016 177.974 541.932C177.578 541.86 177.188 541.764 176.804 541.644C176.42 541.524 176.078 541.368 175.778 541.176C175.478 540.972 175.238 540.726 175.058 540.438C174.89 540.15 174.806 539.796 174.806 539.376C174.806 538.86 174.938 538.404 175.202 538.008C175.466 537.6 175.844 537.282 176.336 537.054C176.84 536.826 177.422 536.712 178.082 536.712C179.054 536.712 179.84 536.946 180.44 537.414C181.04 537.882 181.394 538.56 181.502 539.448H180.008C179.948 538.992 179.75 538.638 179.414 538.386C179.09 538.122 178.64 537.99 178.064 537.99C177.5 537.99 177.068 538.104 176.768 538.332C176.48 538.56 176.336 538.86 176.336 539.232C176.336 539.472 176.414 539.688 176.57 539.88C176.738 540.06 176.978 540.216 177.29 540.348C177.614 540.48 178.01 540.588 178.478 540.672C179.078 540.78 179.624 540.924 180.116 541.104C180.608 541.284 181.004 541.554 181.304 541.914C181.616 542.262 181.772 542.76 181.772 543.408C181.772 543.972 181.628 544.464 181.34 544.884C181.064 545.304 180.668 545.634 180.152 545.874C179.636 546.102 179.03 546.216 178.334 546.216ZM184.489 546.09C184.189 546.09 183.937 545.994 183.733 545.802C183.541 545.598 183.445 545.352 183.445 545.064C183.445 544.776 183.541 544.536 183.733 544.344C183.937 544.14 184.189 544.038 184.489 544.038C184.789 544.038 185.035 544.14 185.227 544.344C185.419 544.536 185.515 544.776 185.515 545.064C185.515 545.352 185.419 545.598 185.227 545.802C185.035 545.994 184.789 546.09 184.489 546.09ZM196.403 546.216C195.479 546.216 194.675 546.048 193.991 545.712C193.307 545.376 192.779 544.908 192.407 544.308C192.035 543.708 191.849 543.012 191.849 542.22H193.433C193.433 542.712 193.547 543.168 193.775 543.588C194.003 543.996 194.333 544.326 194.765 544.578C195.209 544.818 195.755 544.938 196.403 544.938C196.967 544.938 197.447 544.848 197.843 544.668C198.251 544.476 198.557 544.218 198.761 543.894C198.977 543.57 199.085 543.204 199.085 542.796C199.085 542.304 198.977 541.908 198.761 541.608C198.557 541.296 198.275 541.044 197.915 540.852C197.555 540.66 197.135 540.492 196.655 540.348C196.187 540.192 195.695 540.03 195.179 539.862C194.183 539.526 193.451 539.106 192.983 538.602C192.515 538.098 192.281 537.444 192.281 536.64C192.281 535.956 192.437 535.356 192.749 534.84C193.073 534.324 193.529 533.922 194.117 533.634C194.717 533.334 195.425 533.184 196.241 533.184C197.045 533.184 197.741 533.334 198.329 533.634C198.929 533.934 199.397 534.348 199.733 534.876C200.069 535.392 200.237 535.992 200.237 536.676H198.653C198.653 536.328 198.563 535.986 198.383 535.65C198.203 535.314 197.927 535.038 197.555 534.822C197.195 534.594 196.739 534.48 196.187 534.48C195.731 534.468 195.323 534.546 194.963 534.714C194.615 534.87 194.339 535.098 194.135 535.398C193.943 535.698 193.847 536.064 193.847 536.496C193.847 536.904 193.931 537.234 194.099 537.486C194.279 537.738 194.531 537.954 194.855 538.134C195.191 538.302 195.581 538.458 196.025 538.602C196.469 538.746 196.961 538.908 197.501 539.088C198.113 539.292 198.653 539.544 199.121 539.844C199.601 540.132 199.973 540.504 200.237 540.96C200.513 541.416 200.651 541.998 200.651 542.706C200.651 543.306 200.489 543.876 200.165 544.416C199.853 544.944 199.385 545.376 198.761 545.712C198.137 546.048 197.351 546.216 196.403 546.216ZM202.74 546V533.04H204.252V538.458C204.552 537.918 204.972 537.492 205.512 537.18C206.064 536.868 206.664 536.712 207.312 536.712C208.008 536.712 208.614 536.856 209.13 537.144C209.646 537.42 210.042 537.846 210.318 538.422C210.594 538.998 210.732 539.724 210.732 540.6V546H209.238V540.762C209.238 539.85 209.046 539.166 208.662 538.71C208.278 538.242 207.72 538.008 206.988 538.008C206.472 538.008 206.004 538.134 205.584 538.386C205.176 538.638 204.852 538.998 204.612 539.466C204.372 539.934 204.252 540.51 204.252 541.194V546H202.74ZM216.046 546.216C215.314 546.216 214.702 546.09 214.21 545.838C213.718 545.574 213.352 545.232 213.112 544.812C212.872 544.38 212.752 543.912 212.752 543.408C212.752 542.796 212.908 542.28 213.22 541.86C213.544 541.428 213.994 541.104 214.57 540.888C215.158 540.66 215.848 540.546 216.64 540.546H219.034C219.034 539.982 218.944 539.514 218.764 539.142C218.596 538.758 218.344 538.47 218.008 538.278C217.684 538.086 217.276 537.99 216.784 537.99C216.208 537.99 215.71 538.134 215.29 538.422C214.87 538.71 214.612 539.136 214.516 539.7H212.968C213.04 539.052 213.256 538.512 213.616 538.08C213.988 537.636 214.456 537.3 215.02 537.072C215.584 536.832 216.172 536.712 216.784 536.712C217.624 536.712 218.32 536.868 218.872 537.18C219.436 537.48 219.856 537.906 220.132 538.458C220.408 538.998 220.546 539.64 220.546 540.384V546H219.196L219.106 544.398C218.986 544.65 218.83 544.89 218.638 545.118C218.458 545.334 218.242 545.526 217.99 545.694C217.738 545.85 217.45 545.976 217.126 546.072C216.814 546.168 216.454 546.216 216.046 546.216ZM216.28 544.938C216.7 544.938 217.078 544.854 217.414 544.686C217.762 544.506 218.056 544.266 218.296 543.966C218.536 543.654 218.716 543.312 218.836 542.94C218.968 542.568 219.034 542.178 219.034 541.77V541.716H216.766C216.178 541.716 215.704 541.788 215.344 541.932C214.984 542.064 214.726 542.256 214.57 542.508C214.414 542.748 214.336 543.024 214.336 543.336C214.336 543.66 214.408 543.942 214.552 544.182C214.708 544.422 214.93 544.608 215.218 544.74C215.518 544.872 215.872 544.938 216.28 544.938ZM222.885 549.96V536.928H224.253L224.379 538.404C224.571 538.116 224.817 537.846 225.117 537.594C225.417 537.33 225.777 537.12 226.197 536.964C226.617 536.796 227.097 536.712 227.637 536.712C228.525 536.712 229.293 536.922 229.941 537.342C230.601 537.762 231.111 538.332 231.471 539.052C231.843 539.76 232.029 540.57 232.029 541.482C232.029 542.394 231.843 543.21 231.471 543.93C231.111 544.638 230.601 545.196 229.941 545.604C229.281 546.012 228.507 546.216 227.619 546.216C226.887 546.216 226.239 546.066 225.675 545.766C225.123 545.466 224.697 545.046 224.397 544.506V549.96H222.885ZM227.457 544.902C228.045 544.902 228.567 544.758 229.023 544.47C229.479 544.182 229.833 543.786 230.085 543.282C230.349 542.766 230.481 542.16 230.481 541.464C230.481 540.78 230.349 540.18 230.085 539.664C229.833 539.148 229.479 538.746 229.023 538.458C228.567 538.17 228.045 538.026 227.457 538.026C226.857 538.026 226.329 538.17 225.873 538.458C225.417 538.746 225.063 539.148 224.811 539.664C224.559 540.18 224.433 540.78 224.433 541.464C224.433 542.16 224.559 542.766 224.811 543.282C225.063 543.786 225.417 544.182 225.873 544.47C226.329 544.758 226.857 544.902 227.457 544.902ZM238.131 546.216C237.279 546.216 236.523 546.018 235.863 545.622C235.215 545.226 234.705 544.674 234.333 543.966C233.961 543.246 233.775 542.412 233.775 541.464C233.775 540.504 233.955 539.67 234.315 538.962C234.687 538.254 235.203 537.702 235.863 537.306C236.535 536.91 237.303 536.712 238.167 536.712C239.055 536.712 239.805 536.91 240.417 537.306C241.041 537.702 241.515 538.224 241.839 538.872C242.175 539.508 242.343 540.21 242.343 540.978C242.343 541.098 242.343 541.224 242.343 541.356C242.343 541.488 242.337 541.638 242.325 541.806H234.909V540.636H240.867C240.831 539.808 240.555 539.16 240.039 538.692C239.535 538.224 238.899 537.99 238.131 537.99C237.615 537.99 237.135 538.11 236.691 538.35C236.259 538.578 235.911 538.92 235.647 539.376C235.383 539.82 235.251 540.378 235.251 541.05V541.554C235.251 542.298 235.383 542.922 235.647 543.426C235.923 543.93 236.277 544.308 236.709 544.56C237.153 544.812 237.627 544.938 238.131 544.938C238.767 544.938 239.289 544.8 239.697 544.524C240.117 544.236 240.417 543.852 240.597 543.372H242.091C241.947 543.912 241.695 544.398 241.335 544.83C240.975 545.262 240.525 545.604 239.985 545.856C239.457 546.096 238.839 546.216 238.131 546.216ZM252.728 546C252.188 546 251.72 545.916 251.324 545.748C250.928 545.58 250.622 545.298 250.406 544.902C250.202 544.494 250.1 543.948 250.1 543.264V538.206H248.516V536.928H250.1L250.298 534.732H251.612V536.928H254.24V538.206H251.612V543.264C251.612 543.828 251.726 544.212 251.954 544.416C252.182 544.608 252.584 544.704 253.16 544.704H254.132V546H252.728ZM256.213 546V533.04H257.725V538.458C258.025 537.918 258.445 537.492 258.985 537.18C259.537 536.868 260.137 536.712 260.785 536.712C261.481 536.712 262.087 536.856 262.603 537.144C263.119 537.42 263.515 537.846 263.791 538.422C264.067 538.998 264.205 539.724 264.205 540.6V546H262.711V540.762C262.711 539.85 262.519 539.166 262.135 538.71C261.751 538.242 261.193 538.008 260.461 538.008C259.945 538.008 259.477 538.134 259.057 538.386C258.649 538.638 258.325 538.998 258.085 539.466C257.845 539.934 257.725 540.51 257.725 541.194V546H256.213ZM270.545 546.216C269.693 546.216 268.937 546.018 268.277 545.622C267.629 545.226 267.119 544.674 266.747 543.966C266.375 543.246 266.189 542.412 266.189 541.464C266.189 540.504 266.369 539.67 266.729 538.962C267.101 538.254 267.617 537.702 268.277 537.306C268.949 536.91 269.717 536.712 270.581 536.712C271.469 536.712 272.219 536.91 272.831 537.306C273.455 537.702 273.929 538.224 274.253 538.872C274.589 539.508 274.757 540.21 274.757 540.978C274.757 541.098 274.757 541.224 274.757 541.356C274.757 541.488 274.751 541.638 274.739 541.806H267.323V540.636H273.281C273.245 539.808 272.969 539.16 272.453 538.692C271.949 538.224 271.313 537.99 270.545 537.99C270.029 537.99 269.549 538.11 269.105 538.35C268.673 538.578 268.325 538.92 268.061 539.376C267.797 539.82 267.665 540.378 267.665 541.05V541.554C267.665 542.298 267.797 542.922 268.061 543.426C268.337 543.93 268.691 544.308 269.123 544.56C269.567 544.812 270.041 544.938 270.545 544.938C271.181 544.938 271.703 544.8 272.111 544.524C272.531 544.236 272.831 543.852 273.011 543.372H274.505C274.361 543.912 274.109 544.398 273.749 544.83C273.389 545.262 272.939 545.604 272.399 545.856C271.871 546.096 271.253 546.216 270.545 546.216ZM281.578 549.96V536.928H282.946L283.072 538.404C283.264 538.116 283.51 537.846 283.81 537.594C284.11 537.33 284.47 537.12 284.89 536.964C285.31 536.796 285.79 536.712 286.33 536.712C287.218 536.712 287.986 536.922 288.634 537.342C289.294 537.762 289.804 538.332 290.164 539.052C290.536 539.76 290.722 540.57 290.722 541.482C290.722 542.394 290.536 543.21 290.164 543.93C289.804 544.638 289.294 545.196 288.634 545.604C287.974 546.012 287.2 546.216 286.312 546.216C285.58 546.216 284.932 546.066 284.368 545.766C283.816 545.466 283.39 545.046 283.09 544.506V549.96H281.578ZM286.15 544.902C286.738 544.902 287.26 544.758 287.716 544.47C288.172 544.182 288.526 543.786 288.778 543.282C289.042 542.766 289.174 542.16 289.174 541.464C289.174 540.78 289.042 540.18 288.778 539.664C288.526 539.148 288.172 538.746 287.716 538.458C287.26 538.17 286.738 538.026 286.15 538.026C285.55 538.026 285.022 538.17 284.566 538.458C284.11 538.746 283.756 539.148 283.504 539.664C283.252 540.18 283.126 540.78 283.126 541.464C283.126 542.16 283.252 542.766 283.504 543.282C283.756 543.786 284.11 544.182 284.566 544.47C285.022 544.758 285.55 544.902 286.15 544.902ZM292.846 546V533.04H294.358V546H292.846ZM299.806 546.216C299.074 546.216 298.462 546.09 297.97 545.838C297.478 545.574 297.112 545.232 296.872 544.812C296.632 544.38 296.512 543.912 296.512 543.408C296.512 542.796 296.668 542.28 296.98 541.86C297.304 541.428 297.754 541.104 298.33 540.888C298.918 540.66 299.608 540.546 300.4 540.546H302.794C302.794 539.982 302.704 539.514 302.524 539.142C302.356 538.758 302.104 538.47 301.768 538.278C301.444 538.086 301.036 537.99 300.544 537.99C299.968 537.99 299.47 538.134 299.05 538.422C298.63 538.71 298.372 539.136 298.276 539.7H296.728C296.8 539.052 297.016 538.512 297.376 538.08C297.748 537.636 298.216 537.3 298.78 537.072C299.344 536.832 299.932 536.712 300.544 536.712C301.384 536.712 302.08 536.868 302.632 537.18C303.196 537.48 303.616 537.906 303.892 538.458C304.168 538.998 304.306 539.64 304.306 540.384V546H302.956L302.866 544.398C302.746 544.65 302.59 544.89 302.398 545.118C302.218 545.334 302.002 545.526 301.75 545.694C301.498 545.85 301.21 545.976 300.886 546.072C300.574 546.168 300.214 546.216 299.806 546.216ZM300.04 544.938C300.46 544.938 300.838 544.854 301.174 544.686C301.522 544.506 301.816 544.266 302.056 543.966C302.296 543.654 302.476 543.312 302.596 542.94C302.728 542.568 302.794 542.178 302.794 541.77V541.716H300.526C299.938 541.716 299.464 541.788 299.104 541.932C298.744 542.064 298.486 542.256 298.33 542.508C298.174 542.748 298.096 543.024 298.096 543.336C298.096 543.66 298.168 543.942 298.312 544.182C298.468 544.422 298.69 544.608 298.978 544.74C299.278 544.872 299.632 544.938 300.04 544.938ZM309.963 546C309.423 546 308.955 545.916 308.559 545.748C308.163 545.58 307.857 545.298 307.641 544.902C307.437 544.494 307.335 543.948 307.335 543.264V538.206H305.751V536.928H307.335L307.533 534.732H308.847V536.928H311.475V538.206H308.847V543.264C308.847 543.828 308.961 544.212 309.189 544.416C309.417 544.608 309.819 544.704 310.395 544.704H311.367V546H309.963ZM313.952 546V535.524C313.952 534.948 314.048 534.48 314.24 534.12C314.432 533.748 314.714 533.478 315.086 533.31C315.47 533.13 315.938 533.04 316.49 533.04H317.516V534.336H316.724C316.28 534.336 315.956 534.426 315.752 534.606C315.56 534.786 315.464 535.104 315.464 535.56V546H313.952ZM312.566 538.206V536.928H317.75V538.206H312.566ZM323.263 546.216C322.423 546.216 321.667 546.024 320.995 545.64C320.323 545.244 319.795 544.692 319.411 543.984C319.027 543.264 318.835 542.43 318.835 541.482C318.835 540.51 319.027 539.67 319.411 538.962C319.807 538.242 320.341 537.69 321.013 537.306C321.697 536.91 322.459 536.712 323.299 536.712C324.163 536.712 324.925 536.91 325.585 537.306C326.257 537.69 326.785 538.242 327.169 538.962C327.565 539.67 327.763 540.504 327.763 541.464C327.763 542.424 327.565 543.264 327.169 543.984C326.773 544.692 326.239 545.244 325.567 545.64C324.895 546.024 324.127 546.216 323.263 546.216ZM323.281 544.92C323.797 544.92 324.277 544.794 324.721 544.542C325.165 544.278 325.525 543.888 325.801 543.372C326.077 542.856 326.215 542.22 326.215 541.464C326.215 540.696 326.077 540.06 325.801 539.556C325.537 539.04 325.183 538.656 324.739 538.404C324.307 538.14 323.827 538.008 323.299 538.008C322.795 538.008 322.315 538.14 321.859 538.404C321.415 538.656 321.055 539.04 320.779 539.556C320.515 540.06 320.383 540.696 320.383 541.464C320.383 542.22 320.515 542.856 320.779 543.372C321.055 543.888 321.409 544.278 321.841 544.542C322.285 544.794 322.765 544.92 323.281 544.92ZM329.883 546V536.928H331.251L331.359 538.656C331.563 538.248 331.821 537.9 332.133 537.612C332.457 537.324 332.841 537.102 333.285 536.946C333.741 536.79 334.257 536.712 334.833 536.712V538.296H334.275C333.891 538.296 333.525 538.35 333.177 538.458C332.829 538.554 332.517 538.716 332.241 538.944C331.977 539.172 331.767 539.484 331.611 539.88C331.467 540.264 331.395 540.744 331.395 541.32V546H329.883ZM336.545 546V536.928H337.913L338.003 538.224C338.291 537.756 338.675 537.39 339.155 537.126C339.647 536.85 340.181 536.712 340.757 536.712C341.225 536.712 341.645 536.778 342.017 536.91C342.401 537.03 342.737 537.222 343.025 537.486C343.313 537.738 343.547 538.062 343.727 538.458C344.039 537.906 344.465 537.48 345.005 537.18C345.557 536.868 346.145 536.712 346.769 536.712C347.465 536.712 348.071 536.856 348.587 537.144C349.115 537.42 349.517 537.846 349.793 538.422C350.081 538.986 350.225 539.706 350.225 540.582V546H348.731V540.744C348.731 539.832 348.545 539.148 348.173 538.692C347.801 538.236 347.279 538.008 346.607 538.008C346.139 538.008 345.719 538.134 345.347 538.386C344.975 538.626 344.681 538.98 344.465 539.448C344.249 539.916 344.141 540.492 344.141 541.176V546H342.629V540.744C342.629 539.832 342.443 539.148 342.071 538.692C341.699 538.236 341.171 538.008 340.487 538.008C340.031 538.008 339.617 538.134 339.245 538.386C338.885 538.626 338.597 538.98 338.381 539.448C338.165 539.916 338.057 540.492 338.057 541.176V546H336.545ZM40.4285 569C39.8885 569 39.4205 568.916 39.0245 568.748C38.6285 568.58 38.3225 568.298 38.1065 567.902C37.9025 567.494 37.8005 566.948 37.8005 566.264V561.206H36.2165V559.928H37.8005L37.9985 557.732H39.3125V559.928H41.9405V561.206H39.3125V566.264C39.3125 566.828 39.4265 567.212 39.6545 567.416C39.8825 567.608 40.2845 567.704 40.8605 567.704H41.8325V569H40.4285ZM43.9133 569V556.04H45.4253V561.458C45.7253 560.918 46.1453 560.492 46.6853 560.18C47.2373 559.868 47.8373 559.712 48.4853 559.712C49.1813 559.712 49.7873 559.856 50.3033 560.144C50.8193 560.42 51.2153 560.846 51.4913 561.422C51.7673 561.998 51.9053 562.724 51.9053 563.6V569H50.4113V563.762C50.4113 562.85 50.2193 562.166 49.8353 561.71C49.4513 561.242 48.8933 561.008 48.1613 561.008C47.6453 561.008 47.1773 561.134 46.7573 561.386C46.3493 561.638 46.0253 561.998 45.7853 562.466C45.5453 562.934 45.4253 563.51 45.4253 564.194V569H43.9133ZM54.2668 569V559.928H55.6348L55.7428 561.656C55.9468 561.248 56.2048 560.9 56.5168 560.612C56.8408 560.324 57.2248 560.102 57.6688 559.946C58.1248 559.79 58.6408 559.712 59.2168 559.712V561.296H58.6588C58.2748 561.296 57.9088 561.35 57.5608 561.458C57.2128 561.554 56.9008 561.716 56.6248 561.944C56.3608 562.172 56.1508 562.484 55.9948 562.88C55.8508 563.264 55.7788 563.744 55.7788 564.32V569H54.2668ZM64.645 569.216C63.805 569.216 63.049 569.024 62.377 568.64C61.705 568.244 61.177 567.692 60.793 566.984C60.409 566.264 60.217 565.43 60.217 564.482C60.217 563.51 60.409 562.67 60.793 561.962C61.189 561.242 61.723 560.69 62.395 560.306C63.079 559.91 63.841 559.712 64.681 559.712C65.545 559.712 66.307 559.91 66.967 560.306C67.639 560.69 68.167 561.242 68.551 561.962C68.947 562.67 69.145 563.504 69.145 564.464C69.145 565.424 68.947 566.264 68.551 566.984C68.155 567.692 67.621 568.244 66.949 568.64C66.277 569.024 65.509 569.216 64.645 569.216ZM64.663 567.92C65.179 567.92 65.659 567.794 66.103 567.542C66.547 567.278 66.907 566.888 67.183 566.372C67.459 565.856 67.597 565.22 67.597 564.464C67.597 563.696 67.459 563.06 67.183 562.556C66.919 562.04 66.565 561.656 66.121 561.404C65.689 561.14 65.209 561.008 64.681 561.008C64.177 561.008 63.697 561.14 63.241 561.404C62.797 561.656 62.437 562.04 62.161 562.556C61.897 563.06 61.765 563.696 61.765 564.464C61.765 565.22 61.897 565.856 62.161 566.372C62.437 566.888 62.791 567.278 63.223 567.542C63.667 567.794 64.147 567.92 64.663 567.92ZM74.5589 569.216C73.8629 569.216 73.2509 569.078 72.7229 568.802C72.2069 568.526 71.8049 568.1 71.5169 567.524C71.2409 566.948 71.1029 566.228 71.1029 565.364V559.928H72.6149V565.202C72.6149 566.102 72.8129 566.78 73.2089 567.236C73.6049 567.692 74.1629 567.92 74.8829 567.92C75.3869 567.92 75.8429 567.8 76.2509 567.56C76.6589 567.308 76.9769 566.954 77.2049 566.498C77.4449 566.03 77.5649 565.46 77.5649 564.788V559.928H79.0769V569H77.7089L77.6189 567.416C77.3429 567.98 76.9349 568.424 76.3949 568.748C75.8549 569.06 75.2429 569.216 74.5589 569.216ZM85.1472 573.176C84.3312 573.176 83.6112 573.068 82.9872 572.852C82.3632 572.648 81.8712 572.33 81.5112 571.898C81.1632 571.466 80.9892 570.932 80.9892 570.296C80.9892 570.032 81.0432 569.744 81.1512 569.432C81.2712 569.12 81.4692 568.814 81.7452 568.514C82.0332 568.214 82.4352 567.944 82.9512 567.704L83.9952 568.316C83.3712 568.58 82.9572 568.88 82.7532 569.216C82.5612 569.552 82.4652 569.864 82.4652 570.152C82.4652 570.548 82.5792 570.878 82.8072 571.142C83.0472 571.406 83.3652 571.604 83.7612 571.736C84.1692 571.868 84.6312 571.934 85.1472 571.934C85.6512 571.934 86.0892 571.856 86.4612 571.7C86.8332 571.556 87.1212 571.352 87.3252 571.088C87.5292 570.824 87.6312 570.518 87.6312 570.17C87.6312 569.762 87.4752 569.414 87.1632 569.126C86.8512 568.85 86.2632 568.688 85.3992 568.64C84.6912 568.592 84.0972 568.526 83.6172 568.442C83.1492 568.358 82.7532 568.262 82.4292 568.154C82.1172 568.034 81.8532 567.902 81.6372 567.758C81.4332 567.614 81.2472 567.464 81.0792 567.308V566.894L82.8432 565.148L84.1392 565.616L82.3392 567.254L82.5732 566.624C82.7052 566.72 82.8312 566.81 82.9512 566.894C83.0712 566.978 83.2332 567.05 83.4372 567.11C83.6532 567.17 83.9412 567.224 84.3012 567.272C84.6612 567.32 85.1412 567.368 85.7412 567.416C86.5572 567.476 87.2112 567.62 87.7032 567.848C88.2072 568.076 88.5672 568.382 88.7832 568.766C89.0112 569.15 89.1252 569.6 89.1252 570.116C89.1252 570.62 88.9812 571.106 88.6932 571.574C88.4172 572.042 87.9852 572.426 87.3972 572.726C86.8092 573.026 86.0592 573.176 85.1472 573.176ZM85.1292 566.174C84.3732 566.174 83.7252 566.03 83.1852 565.742C82.6572 565.454 82.2552 565.07 81.9792 564.59C81.7032 564.11 81.5652 563.57 81.5652 562.97C81.5652 562.382 81.7032 561.848 81.9792 561.368C82.2672 560.888 82.6752 560.504 83.2032 560.216C83.7312 559.916 84.3732 559.766 85.1292 559.766C85.8852 559.766 86.5272 559.916 87.0552 560.216C87.5832 560.504 87.9852 560.888 88.2612 561.368C88.5372 561.848 88.6752 562.382 88.6752 562.97C88.6752 563.57 88.5372 564.11 88.2612 564.59C87.9852 565.07 87.5832 565.454 87.0552 565.742C86.5272 566.03 85.8852 566.174 85.1292 566.174ZM85.1292 564.932C85.7652 564.932 86.2692 564.764 86.6412 564.428C87.0252 564.092 87.2172 563.606 87.2172 562.97C87.2172 562.346 87.0252 561.866 86.6412 561.53C86.2692 561.194 85.7652 561.026 85.1292 561.026C84.4932 561.026 83.9772 561.194 83.5812 561.53C83.1972 561.866 83.0052 562.346 83.0052 562.97C83.0052 563.606 83.1972 564.092 83.5812 564.428C83.9652 564.764 84.4812 564.932 85.1292 564.932ZM86.5872 561.26L86.1372 559.982H89.8452V561.116L86.5872 561.26ZM91.6204 569V556.04H93.1324V561.458C93.4324 560.918 93.8524 560.492 94.3924 560.18C94.9444 559.868 95.5444 559.712 96.1924 559.712C96.8884 559.712 97.4944 559.856 98.0104 560.144C98.5264 560.42 98.9224 560.846 99.1984 561.422C99.4744 561.998 99.6124 562.724 99.6124 563.6V569H98.1184V563.762C98.1184 562.85 97.9264 562.166 97.5424 561.71C97.1584 561.242 96.6004 561.008 95.8684 561.008C95.3524 561.008 94.8844 561.134 94.4644 561.386C94.0564 561.638 93.7324 561.998 93.4924 562.466C93.2524 562.934 93.1324 563.51 93.1324 564.194V569H91.6204ZM107.259 569V558.524C107.259 557.948 107.355 557.48 107.547 557.12C107.739 556.748 108.021 556.478 108.393 556.31C108.777 556.13 109.245 556.04 109.797 556.04H110.823V557.336H110.031C109.587 557.336 109.263 557.426 109.059 557.606C108.867 557.786 108.771 558.104 108.771 558.56V569H107.259ZM105.873 561.206V559.928H111.057V561.206H105.873ZM116.499 569.216C115.647 569.216 114.891 569.018 114.231 568.622C113.583 568.226 113.073 567.674 112.701 566.966C112.329 566.246 112.143 565.412 112.143 564.464C112.143 563.504 112.323 562.67 112.683 561.962C113.055 561.254 113.571 560.702 114.231 560.306C114.903 559.91 115.671 559.712 116.535 559.712C117.423 559.712 118.173 559.91 118.785 560.306C119.409 560.702 119.883 561.224 120.207 561.872C120.543 562.508 120.711 563.21 120.711 563.978C120.711 564.098 120.711 564.224 120.711 564.356C120.711 564.488 120.705 564.638 120.693 564.806H113.277V563.636H119.235C119.199 562.808 118.923 562.16 118.407 561.692C117.903 561.224 117.267 560.99 116.499 560.99C115.983 560.99 115.503 561.11 115.059 561.35C114.627 561.578 114.279 561.92 114.015 562.376C113.751 562.82 113.619 563.378 113.619 564.05V564.554C113.619 565.298 113.751 565.922 114.015 566.426C114.291 566.93 114.645 567.308 115.077 567.56C115.521 567.812 115.995 567.938 116.499 567.938C117.135 567.938 117.657 567.8 118.065 567.524C118.485 567.236 118.785 566.852 118.965 566.372H120.459C120.315 566.912 120.063 567.398 119.703 567.83C119.343 568.262 118.893 568.604 118.353 568.856C117.825 569.096 117.207 569.216 116.499 569.216ZM126.729 569.216C125.877 569.216 125.121 569.018 124.461 568.622C123.813 568.226 123.303 567.674 122.931 566.966C122.559 566.246 122.373 565.412 122.373 564.464C122.373 563.504 122.553 562.67 122.913 561.962C123.285 561.254 123.801 560.702 124.461 560.306C125.133 559.91 125.901 559.712 126.765 559.712C127.653 559.712 128.403 559.91 129.015 560.306C129.639 560.702 130.113 561.224 130.437 561.872C130.773 562.508 130.941 563.21 130.941 563.978C130.941 564.098 130.941 564.224 130.941 564.356C130.941 564.488 130.935 564.638 130.923 564.806H123.507V563.636H129.465C129.429 562.808 129.153 562.16 128.637 561.692C128.133 561.224 127.497 560.99 126.729 560.99C126.213 560.99 125.733 561.11 125.289 561.35C124.857 561.578 124.509 561.92 124.245 562.376C123.981 562.82 123.849 563.378 123.849 564.05V564.554C123.849 565.298 123.981 565.922 124.245 566.426C124.521 566.93 124.875 567.308 125.307 567.56C125.751 567.812 126.225 567.938 126.729 567.938C127.365 567.938 127.887 567.8 128.295 567.524C128.715 567.236 129.015 566.852 129.195 566.372H130.689C130.545 566.912 130.293 567.398 129.933 567.83C129.573 568.262 129.123 568.604 128.583 568.856C128.055 569.096 127.437 569.216 126.729 569.216ZM136.978 569.216C136.102 569.216 135.334 569.012 134.674 568.604C134.014 568.184 133.504 567.614 133.144 566.894C132.784 566.174 132.604 565.358 132.604 564.446C132.604 563.534 132.784 562.724 133.144 562.016C133.504 561.296 134.014 560.732 134.674 560.324C135.346 559.916 136.12 559.712 136.996 559.712C137.74 559.712 138.388 559.862 138.94 560.162C139.504 560.462 139.936 560.882 140.236 561.422V556.04H141.748V569H140.38L140.254 567.506C140.062 567.806 139.816 568.088 139.516 568.352C139.216 568.604 138.856 568.814 138.436 568.982C138.016 569.138 137.53 569.216 136.978 569.216ZM137.158 567.902C137.758 567.902 138.286 567.758 138.742 567.47C139.198 567.182 139.552 566.786 139.804 566.282C140.056 565.766 140.182 565.16 140.182 564.464C140.182 563.78 140.056 563.18 139.804 562.664C139.552 562.148 139.198 561.746 138.742 561.458C138.286 561.17 137.758 561.026 137.158 561.026C136.57 561.026 136.048 561.17 135.592 561.458C135.136 561.746 134.782 562.148 134.53 562.664C134.278 563.18 134.152 563.78 134.152 564.464C134.152 565.16 134.278 565.766 134.53 566.282C134.782 566.786 135.136 567.182 135.592 567.47C136.048 567.758 136.57 567.902 137.158 567.902ZM149.019 569.216C148.503 569.216 148.035 569.144 147.615 569C147.207 568.844 146.847 568.64 146.535 568.388C146.223 568.136 145.965 567.842 145.761 567.506L145.635 569H144.267V556.04H145.779V561.422C146.067 560.954 146.481 560.552 147.021 560.216C147.561 559.88 148.227 559.712 149.019 559.712C149.895 559.712 150.663 559.922 151.323 560.342C151.983 560.75 152.493 561.314 152.853 562.034C153.225 562.742 153.411 563.552 153.411 564.464C153.411 565.376 153.225 566.192 152.853 566.912C152.493 567.632 151.983 568.196 151.323 568.604C150.663 569.012 149.895 569.216 149.019 569.216ZM148.839 567.902C149.427 567.902 149.949 567.758 150.405 567.47C150.861 567.182 151.215 566.786 151.467 566.282C151.731 565.766 151.863 565.16 151.863 564.464C151.863 563.78 151.731 563.18 151.467 562.664C151.215 562.148 150.861 561.746 150.405 561.458C149.949 561.17 149.427 561.026 148.839 561.026C148.239 561.026 147.711 561.17 147.255 561.458C146.799 561.746 146.445 562.148 146.193 562.664C145.941 563.18 145.815 563.78 145.815 564.464C145.815 565.16 145.941 565.766 146.193 566.282C146.445 566.786 146.799 567.182 147.255 567.47C147.711 567.758 148.239 567.902 148.839 567.902ZM158.486 569.216C157.754 569.216 157.142 569.09 156.65 568.838C156.158 568.574 155.792 568.232 155.552 567.812C155.312 567.38 155.192 566.912 155.192 566.408C155.192 565.796 155.348 565.28 155.66 564.86C155.984 564.428 156.434 564.104 157.01 563.888C157.598 563.66 158.288 563.546 159.08 563.546H161.474C161.474 562.982 161.384 562.514 161.204 562.142C161.036 561.758 160.784 561.47 160.448 561.278C160.124 561.086 159.716 560.99 159.224 560.99C158.648 560.99 158.15 561.134 157.73 561.422C157.31 561.71 157.052 562.136 156.956 562.7H155.408C155.48 562.052 155.696 561.512 156.056 561.08C156.428 560.636 156.896 560.3 157.46 560.072C158.024 559.832 158.612 559.712 159.224 559.712C160.064 559.712 160.76 559.868 161.312 560.18C161.876 560.48 162.296 560.906 162.572 561.458C162.848 561.998 162.986 562.64 162.986 563.384V569H161.636L161.546 567.398C161.426 567.65 161.27 567.89 161.078 568.118C160.898 568.334 160.682 568.526 160.43 568.694C160.178 568.85 159.89 568.976 159.566 569.072C159.254 569.168 158.894 569.216 158.486 569.216ZM158.72 567.938C159.14 567.938 159.518 567.854 159.854 567.686C160.202 567.506 160.496 567.266 160.736 566.966C160.976 566.654 161.156 566.312 161.276 565.94C161.408 565.568 161.474 565.178 161.474 564.77V564.716H159.206C158.618 564.716 158.144 564.788 157.784 564.932C157.424 565.064 157.166 565.256 157.01 565.508C156.854 565.748 156.776 566.024 156.776 566.336C156.776 566.66 156.848 566.942 156.992 567.182C157.148 567.422 157.37 567.608 157.658 567.74C157.958 567.872 158.312 567.938 158.72 567.938ZM169.411 569.216C168.559 569.216 167.791 569.018 167.107 568.622C166.435 568.226 165.907 567.674 165.523 566.966C165.139 566.246 164.947 565.418 164.947 564.482C164.947 563.522 165.139 562.688 165.523 561.98C165.907 561.272 166.435 560.72 167.107 560.324C167.791 559.916 168.559 559.712 169.411 559.712C170.491 559.712 171.391 559.994 172.111 560.558C172.831 561.11 173.287 561.854 173.479 562.79H171.931C171.811 562.226 171.517 561.788 171.049 561.476C170.581 561.164 170.029 561.008 169.393 561.008C168.877 561.008 168.397 561.14 167.953 561.404C167.509 561.656 167.155 562.04 166.891 562.556C166.627 563.072 166.495 563.708 166.495 564.464C166.495 565.028 166.573 565.532 166.729 565.976C166.885 566.408 167.095 566.768 167.359 567.056C167.623 567.344 167.929 567.566 168.277 567.722C168.637 567.866 169.009 567.938 169.393 567.938C169.825 567.938 170.215 567.872 170.563 567.74C170.911 567.596 171.205 567.386 171.445 567.11C171.685 566.834 171.847 566.51 171.931 566.138H173.479C173.287 567.05 172.825 567.794 172.093 568.37C171.373 568.934 170.479 569.216 169.411 569.216ZM181.206 569L176.886 564.032L180.828 559.928H182.682L178.164 564.572L178.182 563.492L183.132 569H181.206ZM175.626 569V556.04H177.138V569H175.626ZM183.509 571.214L184.553 567.236H186.119L184.553 571.214H183.509ZM196.725 569.216C195.873 569.216 195.117 569.018 194.457 568.622C193.809 568.226 193.299 567.674 192.927 566.966C192.555 566.246 192.369 565.412 192.369 564.464C192.369 563.504 192.549 562.67 192.909 561.962C193.281 561.254 193.797 560.702 194.457 560.306C195.129 559.91 195.897 559.712 196.761 559.712C197.649 559.712 198.399 559.91 199.011 560.306C199.635 560.702 200.109 561.224 200.433 561.872C200.769 562.508 200.937 563.21 200.937 563.978C200.937 564.098 200.937 564.224 200.937 564.356C200.937 564.488 200.931 564.638 200.919 564.806H193.503V563.636H199.461C199.425 562.808 199.149 562.16 198.633 561.692C198.129 561.224 197.493 560.99 196.725 560.99C196.209 560.99 195.729 561.11 195.285 561.35C194.853 561.578 194.505 561.92 194.241 562.376C193.977 562.82 193.845 563.378 193.845 564.05V564.554C193.845 565.298 193.977 565.922 194.241 566.426C194.517 566.93 194.871 567.308 195.303 567.56C195.747 567.812 196.221 567.938 196.725 567.938C197.361 567.938 197.883 567.8 198.291 567.524C198.711 567.236 199.011 566.852 199.191 566.372H200.685C200.541 566.912 200.289 567.398 199.929 567.83C199.569 568.262 199.119 568.604 198.579 568.856C198.051 569.096 197.433 569.216 196.725 569.216ZM205.236 569L201.798 559.928H203.382L206.118 567.542L208.872 559.928H210.42L206.982 569H205.236ZM215.639 569.216C214.787 569.216 214.031 569.018 213.371 568.622C212.723 568.226 212.213 567.674 211.841 566.966C211.469 566.246 211.283 565.412 211.283 564.464C211.283 563.504 211.463 562.67 211.823 561.962C212.195 561.254 212.711 560.702 213.371 560.306C214.043 559.91 214.811 559.712 215.675 559.712C216.563 559.712 217.313 559.91 217.925 560.306C218.549 560.702 219.023 561.224 219.347 561.872C219.683 562.508 219.851 563.21 219.851 563.978C219.851 564.098 219.851 564.224 219.851 564.356C219.851 564.488 219.845 564.638 219.833 564.806H212.417V563.636H218.375C218.339 562.808 218.063 562.16 217.547 561.692C217.043 561.224 216.407 560.99 215.639 560.99C215.123 560.99 214.643 561.11 214.199 561.35C213.767 561.578 213.419 561.92 213.155 562.376C212.891 562.82 212.759 563.378 212.759 564.05V564.554C212.759 565.298 212.891 565.922 213.155 566.426C213.431 566.93 213.785 567.308 214.217 567.56C214.661 567.812 215.135 567.938 215.639 567.938C216.275 567.938 216.797 567.8 217.205 567.524C217.625 567.236 217.925 566.852 218.105 566.372H219.599C219.455 566.912 219.203 567.398 218.843 567.83C218.483 568.262 218.033 568.604 217.493 568.856C216.965 569.096 216.347 569.216 215.639 569.216ZM221.892 569V559.928H223.26L223.332 561.512C223.62 560.948 224.028 560.51 224.556 560.198C225.096 559.874 225.708 559.712 226.392 559.712C227.1 559.712 227.712 559.856 228.228 560.144C228.744 560.42 229.146 560.846 229.434 561.422C229.722 561.986 229.866 562.706 229.866 563.582V569H228.354V563.744C228.354 562.832 228.15 562.148 227.742 561.692C227.346 561.236 226.782 561.008 226.05 561.008C225.546 561.008 225.096 561.134 224.7 561.386C224.304 561.626 223.986 561.98 223.746 562.448C223.518 562.904 223.404 563.474 223.404 564.158V569H221.892ZM235.792 569C235.252 569 234.784 568.916 234.388 568.748C233.992 568.58 233.686 568.298 233.47 567.902C233.266 567.494 233.164 566.948 233.164 566.264V561.206H231.58V559.928H233.164L233.362 557.732H234.676V559.928H237.304V561.206H234.676V566.264C234.676 566.828 234.79 567.212 235.018 567.416C235.246 567.608 235.648 567.704 236.224 567.704H237.196V569H235.792ZM242.697 569.216C241.941 569.216 241.281 569.09 240.717 568.838C240.165 568.586 239.721 568.238 239.385 567.794C239.061 567.338 238.863 566.804 238.791 566.192H240.339C240.399 566.504 240.525 566.792 240.717 567.056C240.909 567.32 241.167 567.536 241.491 567.704C241.827 567.86 242.235 567.938 242.715 567.938C243.135 567.938 243.483 567.878 243.759 567.758C244.035 567.626 244.239 567.452 244.371 567.236C244.515 567.02 244.587 566.786 244.587 566.534C244.587 566.162 244.497 565.88 244.317 565.688C244.149 565.496 243.897 565.346 243.561 565.238C243.225 565.118 242.817 565.016 242.337 564.932C241.941 564.86 241.551 564.764 241.167 564.644C240.783 564.524 240.441 564.368 240.141 564.176C239.841 563.972 239.601 563.726 239.421 563.438C239.253 563.15 239.169 562.796 239.169 562.376C239.169 561.86 239.301 561.404 239.565 561.008C239.829 560.6 240.207 560.282 240.699 560.054C241.203 559.826 241.785 559.712 242.445 559.712C243.417 559.712 244.203 559.946 244.803 560.414C245.403 560.882 245.757 561.56 245.865 562.448H244.371C244.311 561.992 244.113 561.638 243.777 561.386C243.453 561.122 243.003 560.99 242.427 560.99C241.863 560.99 241.431 561.104 241.131 561.332C240.843 561.56 240.699 561.86 240.699 562.232C240.699 562.472 240.777 562.688 240.933 562.88C241.101 563.06 241.341 563.216 241.653 563.348C241.977 563.48 242.373 563.588 242.841 563.672C243.441 563.78 243.987 563.924 244.479 564.104C244.971 564.284 245.367 564.554 245.667 564.914C245.979 565.262 246.135 565.76 246.135 566.408C246.135 566.972 245.991 567.464 245.703 567.884C245.427 568.304 245.031 568.634 244.515 568.874C243.999 569.102 243.393 569.216 242.697 569.216ZM247.124 571.214L248.168 567.236H249.734L248.168 571.214H247.124ZM259.315 569.216C258.583 569.216 257.971 569.09 257.479 568.838C256.987 568.574 256.621 568.232 256.381 567.812C256.141 567.38 256.021 566.912 256.021 566.408C256.021 565.796 256.177 565.28 256.489 564.86C256.813 564.428 257.263 564.104 257.839 563.888C258.427 563.66 259.117 563.546 259.909 563.546H262.303C262.303 562.982 262.213 562.514 262.033 562.142C261.865 561.758 261.613 561.47 261.277 561.278C260.953 561.086 260.545 560.99 260.053 560.99C259.477 560.99 258.979 561.134 258.559 561.422C258.139 561.71 257.881 562.136 257.785 562.7H256.237C256.309 562.052 256.525 561.512 256.885 561.08C257.257 560.636 257.725 560.3 258.289 560.072C258.853 559.832 259.441 559.712 260.053 559.712C260.893 559.712 261.589 559.868 262.141 560.18C262.705 560.48 263.125 560.906 263.401 561.458C263.677 561.998 263.815 562.64 263.815 563.384V569H262.465L262.375 567.398C262.255 567.65 262.099 567.89 261.907 568.118C261.727 568.334 261.511 568.526 261.259 568.694C261.007 568.85 260.719 568.976 260.395 569.072C260.083 569.168 259.723 569.216 259.315 569.216ZM259.549 567.938C259.969 567.938 260.347 567.854 260.683 567.686C261.031 567.506 261.325 567.266 261.565 566.966C261.805 566.654 261.985 566.312 262.105 565.94C262.237 565.568 262.303 565.178 262.303 564.77V564.716H260.035C259.447 564.716 258.973 564.788 258.613 564.932C258.253 565.064 257.995 565.256 257.839 565.508C257.683 565.748 257.605 566.024 257.605 566.336C257.605 566.66 257.677 566.942 257.821 567.182C257.977 567.422 258.199 567.608 258.487 567.74C258.787 567.872 259.141 567.938 259.549 567.938ZM266.154 569V559.928H267.522L267.594 561.512C267.882 560.948 268.29 560.51 268.818 560.198C269.358 559.874 269.97 559.712 270.654 559.712C271.362 559.712 271.974 559.856 272.49 560.144C273.006 560.42 273.408 560.846 273.696 561.422C273.984 561.986 274.128 562.706 274.128 563.582V569H272.616V563.744C272.616 562.832 272.412 562.148 272.004 561.692C271.608 561.236 271.044 561.008 270.312 561.008C269.808 561.008 269.358 561.134 268.962 561.386C268.566 561.626 268.248 561.98 268.008 562.448C267.78 562.904 267.666 563.474 267.666 564.158V569H266.154ZM280.485 569.216C279.609 569.216 278.841 569.012 278.181 568.604C277.521 568.184 277.011 567.614 276.651 566.894C276.291 566.174 276.111 565.358 276.111 564.446C276.111 563.534 276.291 562.724 276.651 562.016C277.011 561.296 277.521 560.732 278.181 560.324C278.853 559.916 279.627 559.712 280.503 559.712C281.247 559.712 281.895 559.862 282.447 560.162C283.011 560.462 283.443 560.882 283.743 561.422V556.04H285.255V569H283.887L283.761 567.506C283.569 567.806 283.323 568.088 283.023 568.352C282.723 568.604 282.363 568.814 281.943 568.982C281.523 569.138 281.037 569.216 280.485 569.216ZM280.665 567.902C281.265 567.902 281.793 567.758 282.249 567.47C282.705 567.182 283.059 566.786 283.311 566.282C283.563 565.766 283.689 565.16 283.689 564.464C283.689 563.78 283.563 563.18 283.311 562.664C283.059 562.148 282.705 561.746 282.249 561.458C281.793 561.17 281.265 561.026 280.665 561.026C280.077 561.026 279.555 561.17 279.099 561.458C278.643 561.746 278.289 562.148 278.037 562.664C277.785 563.18 277.659 563.78 277.659 564.464C277.659 565.16 277.785 565.766 278.037 566.282C278.289 566.786 278.643 567.182 279.099 567.47C279.555 567.758 280.077 567.902 280.665 567.902ZM295.166 569L291.728 559.928H293.312L296.048 567.542L298.802 559.928H300.35L296.912 569H295.166ZM305.641 569.216C304.801 569.216 304.045 569.024 303.373 568.64C302.701 568.244 302.173 567.692 301.789 566.984C301.405 566.264 301.213 565.43 301.213 564.482C301.213 563.51 301.405 562.67 301.789 561.962C302.185 561.242 302.719 560.69 303.391 560.306C304.075 559.91 304.837 559.712 305.677 559.712C306.541 559.712 307.303 559.91 307.963 560.306C308.635 560.69 309.163 561.242 309.547 561.962C309.943 562.67 310.141 563.504 310.141 564.464C310.141 565.424 309.943 566.264 309.547 566.984C309.151 567.692 308.617 568.244 307.945 568.64C307.273 569.024 306.505 569.216 305.641 569.216ZM305.659 567.92C306.175 567.92 306.655 567.794 307.099 567.542C307.543 567.278 307.903 566.888 308.179 566.372C308.455 565.856 308.593 565.22 308.593 564.464C308.593 563.696 308.455 563.06 308.179 562.556C307.915 562.04 307.561 561.656 307.117 561.404C306.685 561.14 306.205 561.008 305.677 561.008C305.173 561.008 304.693 561.14 304.237 561.404C303.793 561.656 303.433 562.04 303.157 562.556C302.893 563.06 302.761 563.696 302.761 564.464C302.761 565.22 302.893 565.856 303.157 566.372C303.433 566.888 303.787 567.278 304.219 567.542C304.663 567.794 305.143 567.92 305.659 567.92ZM315.473 569C314.933 569 314.465 568.916 314.069 568.748C313.673 568.58 313.367 568.298 313.151 567.902C312.947 567.494 312.845 566.948 312.845 566.264V561.206H311.261V559.928H312.845L313.043 557.732H314.357V559.928H316.985V561.206H314.357V566.264C314.357 566.828 314.471 567.212 314.699 567.416C314.927 567.608 315.329 567.704 315.905 567.704H316.877V569H315.473ZM319.102 569V559.928H320.614V569H319.102ZM319.858 558.002C319.558 558.002 319.306 557.906 319.102 557.714C318.91 557.51 318.814 557.258 318.814 556.958C318.814 556.658 318.91 556.418 319.102 556.238C319.306 556.046 319.558 555.95 319.858 555.95C320.146 555.95 320.392 556.046 320.596 556.238C320.8 556.418 320.902 556.658 320.902 556.958C320.902 557.258 320.8 557.51 320.596 557.714C320.392 557.906 320.146 558.002 319.858 558.002ZM323.282 569V559.928H324.65L324.722 561.512C325.01 560.948 325.418 560.51 325.946 560.198C326.486 559.874 327.098 559.712 327.782 559.712C328.49 559.712 329.102 559.856 329.618 560.144C330.134 560.42 330.536 560.846 330.824 561.422C331.112 561.986 331.256 562.706 331.256 563.582V569H329.744V563.744C329.744 562.832 329.54 562.148 329.132 561.692C328.736 561.236 328.172 561.008 327.44 561.008C326.936 561.008 326.486 561.134 326.09 561.386C325.694 561.626 325.376 561.98 325.136 562.448C324.908 562.904 324.794 563.474 324.794 564.158V569H323.282ZM337.182 573.176C336.366 573.176 335.646 573.068 335.022 572.852C334.398 572.648 333.906 572.33 333.546 571.898C333.198 571.466 333.024 570.932 333.024 570.296C333.024 570.032 333.078 569.744 333.186 569.432C333.306 569.12 333.504 568.814 333.78 568.514C334.068 568.214 334.47 567.944 334.986 567.704L336.03 568.316C335.406 568.58 334.992 568.88 334.788 569.216C334.596 569.552 334.5 569.864 334.5 570.152C334.5 570.548 334.614 570.878 334.842 571.142C335.082 571.406 335.4 571.604 335.796 571.736C336.204 571.868 336.666 571.934 337.182 571.934C337.686 571.934 338.124 571.856 338.496 571.7C338.868 571.556 339.156 571.352 339.36 571.088C339.564 570.824 339.666 570.518 339.666 570.17C339.666 569.762 339.51 569.414 339.198 569.126C338.886 568.85 338.298 568.688 337.434 568.64C336.726 568.592 336.132 568.526 335.652 568.442C335.184 568.358 334.788 568.262 334.464 568.154C334.152 568.034 333.888 567.902 333.672 567.758C333.468 567.614 333.282 567.464 333.114 567.308V566.894L334.878 565.148L336.174 565.616L334.374 567.254L334.608 566.624C334.74 566.72 334.866 566.81 334.986 566.894C335.106 566.978 335.268 567.05 335.472 567.11C335.688 567.17 335.976 567.224 336.336 567.272C336.696 567.32 337.176 567.368 337.776 567.416C338.592 567.476 339.246 567.62 339.738 567.848C340.242 568.076 340.602 568.382 340.818 568.766C341.046 569.15 341.16 569.6 341.16 570.116C341.16 570.62 341.016 571.106 340.728 571.574C340.452 572.042 340.02 572.426 339.432 572.726C338.844 573.026 338.094 573.176 337.182 573.176ZM337.164 566.174C336.408 566.174 335.76 566.03 335.22 565.742C334.692 565.454 334.29 565.07 334.014 564.59C333.738 564.11 333.6 563.57 333.6 562.97C333.6 562.382 333.738 561.848 334.014 561.368C334.302 560.888 334.71 560.504 335.238 560.216C335.766 559.916 336.408 559.766 337.164 559.766C337.92 559.766 338.562 559.916 339.09 560.216C339.618 560.504 340.02 560.888 340.296 561.368C340.572 561.848 340.71 562.382 340.71 562.97C340.71 563.57 340.572 564.11 340.296 564.59C340.02 565.07 339.618 565.454 339.09 565.742C338.562 566.03 337.92 566.174 337.164 566.174ZM337.164 564.932C337.8 564.932 338.304 564.764 338.676 564.428C339.06 564.092 339.252 563.606 339.252 562.97C339.252 562.346 339.06 561.866 338.676 561.53C338.304 561.194 337.8 561.026 337.164 561.026C336.528 561.026 336.012 561.194 335.616 561.53C335.232 561.866 335.04 562.346 335.04 562.97C335.04 563.606 335.232 564.092 335.616 564.428C336 564.764 336.516 564.932 337.164 564.932ZM338.622 561.26L338.172 559.982H341.88V561.116L338.622 561.26ZM135.924 592.216C135.084 592.216 134.328 592.024 133.656 591.64C132.984 591.244 132.456 590.692 132.072 589.984C131.688 589.264 131.496 588.43 131.496 587.482C131.496 586.51 131.688 585.67 132.072 584.962C132.468 584.242 133.002 583.69 133.674 583.306C134.358 582.91 135.12 582.712 135.96 582.712C136.824 582.712 137.586 582.91 138.246 583.306C138.918 583.69 139.446 584.242 139.83 584.962C140.226 585.67 140.424 586.504 140.424 587.464C140.424 588.424 140.226 589.264 139.83 589.984C139.434 590.692 138.9 591.244 138.228 591.64C137.556 592.024 136.788 592.216 135.924 592.216ZM135.942 590.92C136.458 590.92 136.938 590.794 137.382 590.542C137.826 590.278 138.186 589.888 138.462 589.372C138.738 588.856 138.876 588.22 138.876 587.464C138.876 586.696 138.738 586.06 138.462 585.556C138.198 585.04 137.844 584.656 137.4 584.404C136.968 584.14 136.488 584.008 135.96 584.008C135.456 584.008 134.976 584.14 134.52 584.404C134.076 584.656 133.716 585.04 133.44 585.556C133.176 586.06 133.044 586.696 133.044 587.464C133.044 588.22 133.176 588.856 133.44 589.372C133.716 589.888 134.07 590.278 134.502 590.542C134.946 590.794 135.426 590.92 135.942 590.92ZM142.544 595.96V582.928H143.912L144.038 584.404C144.23 584.116 144.476 583.846 144.776 583.594C145.076 583.33 145.436 583.12 145.856 582.964C146.276 582.796 146.756 582.712 147.296 582.712C148.184 582.712 148.952 582.922 149.6 583.342C150.26 583.762 150.77 584.332 151.13 585.052C151.502 585.76 151.688 586.57 151.688 587.482C151.688 588.394 151.502 589.21 151.13 589.93C150.77 590.638 150.26 591.196 149.6 591.604C148.94 592.012 148.166 592.216 147.278 592.216C146.546 592.216 145.898 592.066 145.334 591.766C144.782 591.466 144.356 591.046 144.056 590.506V595.96H142.544ZM147.116 590.902C147.704 590.902 148.226 590.758 148.682 590.47C149.138 590.182 149.492 589.786 149.744 589.282C150.008 588.766 150.14 588.16 150.14 587.464C150.14 586.78 150.008 586.18 149.744 585.664C149.492 585.148 149.138 584.746 148.682 584.458C148.226 584.17 147.704 584.026 147.116 584.026C146.516 584.026 145.988 584.17 145.532 584.458C145.076 584.746 144.722 585.148 144.47 585.664C144.218 586.18 144.092 586.78 144.092 587.464C144.092 588.16 144.218 588.766 144.47 589.282C144.722 589.786 145.076 590.182 145.532 590.47C145.988 590.758 146.516 590.902 147.116 590.902ZM153.812 595.96V582.928H155.18L155.306 584.404C155.498 584.116 155.744 583.846 156.044 583.594C156.344 583.33 156.704 583.12 157.124 582.964C157.544 582.796 158.024 582.712 158.564 582.712C159.452 582.712 160.22 582.922 160.868 583.342C161.528 583.762 162.038 584.332 162.398 585.052C162.77 585.76 162.956 586.57 162.956 587.482C162.956 588.394 162.77 589.21 162.398 589.93C162.038 590.638 161.528 591.196 160.868 591.604C160.208 592.012 159.434 592.216 158.546 592.216C157.814 592.216 157.166 592.066 156.602 591.766C156.05 591.466 155.624 591.046 155.324 590.506V595.96H153.812ZM158.384 590.902C158.972 590.902 159.494 590.758 159.95 590.47C160.406 590.182 160.76 589.786 161.012 589.282C161.276 588.766 161.408 588.16 161.408 587.464C161.408 586.78 161.276 586.18 161.012 585.664C160.76 585.148 160.406 584.746 159.95 584.458C159.494 584.17 158.972 584.026 158.384 584.026C157.784 584.026 157.256 584.17 156.8 584.458C156.344 584.746 155.99 585.148 155.738 585.664C155.486 586.18 155.36 586.78 155.36 587.464C155.36 588.16 155.486 588.766 155.738 589.282C155.99 589.786 156.344 590.182 156.8 590.47C157.256 590.758 157.784 590.902 158.384 590.902ZM169.129 592.216C168.289 592.216 167.533 592.024 166.861 591.64C166.189 591.244 165.661 590.692 165.277 589.984C164.893 589.264 164.701 588.43 164.701 587.482C164.701 586.51 164.893 585.67 165.277 584.962C165.673 584.242 166.207 583.69 166.879 583.306C167.563 582.91 168.325 582.712 169.165 582.712C170.029 582.712 170.791 582.91 171.451 583.306C172.123 583.69 172.651 584.242 173.035 584.962C173.431 585.67 173.629 586.504 173.629 587.464C173.629 588.424 173.431 589.264 173.035 589.984C172.639 590.692 172.105 591.244 171.433 591.64C170.761 592.024 169.993 592.216 169.129 592.216ZM169.147 590.92C169.663 590.92 170.143 590.794 170.587 590.542C171.031 590.278 171.391 589.888 171.667 589.372C171.943 588.856 172.081 588.22 172.081 587.464C172.081 586.696 171.943 586.06 171.667 585.556C171.403 585.04 171.049 584.656 170.605 584.404C170.173 584.14 169.693 584.008 169.165 584.008C168.661 584.008 168.181 584.14 167.725 584.404C167.281 584.656 166.921 585.04 166.645 585.556C166.381 586.06 166.249 586.696 166.249 587.464C166.249 588.22 166.381 588.856 166.645 589.372C166.921 589.888 167.275 590.278 167.707 590.542C168.151 590.794 168.631 590.92 169.147 590.92ZM175.749 592V582.928H177.117L177.225 584.656C177.429 584.248 177.687 583.9 177.999 583.612C178.323 583.324 178.707 583.102 179.151 582.946C179.607 582.79 180.123 582.712 180.699 582.712V584.296H180.141C179.757 584.296 179.391 584.35 179.043 584.458C178.695 584.554 178.383 584.716 178.107 584.944C177.843 585.172 177.633 585.484 177.477 585.88C177.333 586.264 177.261 586.744 177.261 587.32V592H175.749ZM185.975 592C185.435 592 184.967 591.916 184.571 591.748C184.175 591.58 183.869 591.298 183.653 590.902C183.449 590.494 183.347 589.948 183.347 589.264V584.206H181.763V582.928H183.347L183.545 580.732H184.859V582.928H187.487V584.206H184.859V589.264C184.859 589.828 184.973 590.212 185.201 590.416C185.429 590.608 185.831 590.704 186.407 590.704H187.379V592H185.975ZM192.754 592.216C192.058 592.216 191.446 592.078 190.918 591.802C190.402 591.526 190 591.1 189.712 590.524C189.436 589.948 189.298 589.228 189.298 588.364V582.928H190.81V588.202C190.81 589.102 191.008 589.78 191.404 590.236C191.8 590.692 192.358 590.92 193.078 590.92C193.582 590.92 194.038 590.8 194.446 590.56C194.854 590.308 195.172 589.954 195.4 589.498C195.64 589.03 195.76 588.46 195.76 587.788V582.928H197.272V592H195.904L195.814 590.416C195.538 590.98 195.13 591.424 194.59 591.748C194.05 592.06 193.438 592.216 192.754 592.216ZM199.779 592V582.928H201.147L201.219 584.512C201.507 583.948 201.915 583.51 202.443 583.198C202.983 582.874 203.595 582.712 204.279 582.712C204.987 582.712 205.599 582.856 206.115 583.144C206.631 583.42 207.033 583.846 207.321 584.422C207.609 584.986 207.753 585.706 207.753 586.582V592H206.241V586.744C206.241 585.832 206.037 585.148 205.629 584.692C205.233 584.236 204.669 584.008 203.937 584.008C203.433 584.008 202.983 584.134 202.587 584.386C202.191 584.626 201.873 584.98 201.633 585.448C201.405 585.904 201.291 586.474 201.291 587.158V592H199.779ZM210.258 592V582.928H211.77V592H210.258ZM211.014 581.002C210.714 581.002 210.462 580.906 210.258 580.714C210.066 580.51 209.97 580.258 209.97 579.958C209.97 579.658 210.066 579.418 210.258 579.238C210.462 579.046 210.714 578.95 211.014 578.95C211.302 578.95 211.548 579.046 211.752 579.238C211.956 579.418 212.058 579.658 212.058 579.958C212.058 580.258 211.956 580.51 211.752 580.714C211.548 580.906 211.302 581.002 211.014 581.002ZM218.003 592C217.463 592 216.995 591.916 216.599 591.748C216.203 591.58 215.897 591.298 215.681 590.902C215.477 590.494 215.375 589.948 215.375 589.264V584.206H213.791V582.928H215.375L215.573 580.732H216.887V582.928H219.515V584.206H216.887V589.264C216.887 589.828 217.001 590.212 217.229 590.416C217.457 590.608 217.859 590.704 218.435 590.704H219.407V592H218.003ZM221.632 592V582.928H223.144V592H221.632ZM222.388 581.002C222.088 581.002 221.836 580.906 221.632 580.714C221.44 580.51 221.344 580.258 221.344 579.958C221.344 579.658 221.44 579.418 221.632 579.238C221.836 579.046 222.088 578.95 222.388 578.95C222.676 578.95 222.922 579.046 223.126 579.238C223.33 579.418 223.432 579.658 223.432 579.958C223.432 580.258 223.33 580.51 223.126 580.714C222.922 580.906 222.676 581.002 222.388 581.002ZM229.79 592.216C228.938 592.216 228.182 592.018 227.522 591.622C226.874 591.226 226.364 590.674 225.992 589.966C225.62 589.246 225.434 588.412 225.434 587.464C225.434 586.504 225.614 585.67 225.974 584.962C226.346 584.254 226.862 583.702 227.522 583.306C228.194 582.91 228.962 582.712 229.826 582.712C230.714 582.712 231.464 582.91 232.076 583.306C232.7 583.702 233.174 584.224 233.498 584.872C233.834 585.508 234.002 586.21 234.002 586.978C234.002 587.098 234.002 587.224 234.002 587.356C234.002 587.488 233.996 587.638 233.984 587.806H226.568V586.636H232.526C232.49 585.808 232.214 585.16 231.698 584.692C231.194 584.224 230.558 583.99 229.79 583.99C229.274 583.99 228.794 584.11 228.35 584.35C227.918 584.578 227.57 584.92 227.306 585.376C227.042 585.82 226.91 586.378 226.91 587.05V587.554C226.91 588.298 227.042 588.922 227.306 589.426C227.582 589.93 227.936 590.308 228.368 590.56C228.812 590.812 229.286 590.938 229.79 590.938C230.426 590.938 230.948 590.8 231.356 590.524C231.776 590.236 232.076 589.852 232.256 589.372H233.75C233.606 589.912 233.354 590.398 232.994 590.83C232.634 591.262 232.184 591.604 231.644 591.856C231.116 592.096 230.498 592.216 229.79 592.216ZM239.462 592.216C238.706 592.216 238.046 592.09 237.482 591.838C236.93 591.586 236.486 591.238 236.15 590.794C235.826 590.338 235.628 589.804 235.556 589.192H237.104C237.164 589.504 237.29 589.792 237.482 590.056C237.674 590.32 237.932 590.536 238.256 590.704C238.592 590.86 239 590.938 239.48 590.938C239.9 590.938 240.248 590.878 240.524 590.758C240.8 590.626 241.004 590.452 241.136 590.236C241.28 590.02 241.352 589.786 241.352 589.534C241.352 589.162 241.262 588.88 241.082 588.688C240.914 588.496 240.662 588.346 240.326 588.238C239.99 588.118 239.582 588.016 239.102 587.932C238.706 587.86 238.316 587.764 237.932 587.644C237.548 587.524 237.206 587.368 236.906 587.176C236.606 586.972 236.366 586.726 236.186 586.438C236.018 586.15 235.934 585.796 235.934 585.376C235.934 584.86 236.066 584.404 236.33 584.008C236.594 583.6 236.972 583.282 237.464 583.054C237.968 582.826 238.55 582.712 239.21 582.712C240.182 582.712 240.968 582.946 241.568 583.414C242.168 583.882 242.522 584.56 242.63 585.448H241.136C241.076 584.992 240.878 584.638 240.542 584.386C240.218 584.122 239.768 583.99 239.192 583.99C238.628 583.99 238.196 584.104 237.896 584.332C237.608 584.56 237.464 584.86 237.464 585.232C237.464 585.472 237.542 585.688 237.698 585.88C237.866 586.06 238.106 586.216 238.418 586.348C238.742 586.48 239.138 586.588 239.606 586.672C240.206 586.78 240.752 586.924 241.244 587.104C241.736 587.284 242.132 587.554 242.432 587.914C242.744 588.262 242.9 588.76 242.9 589.408C242.9 589.972 242.756 590.464 242.468 590.884C242.192 591.304 241.796 591.634 241.28 591.874C240.764 592.102 240.158 592.216 239.462 592.216ZM245.617 592.09C245.317 592.09 245.065 591.994 244.861 591.802C244.669 591.598 244.573 591.352 244.573 591.064C244.573 590.776 244.669 590.536 244.861 590.344C245.065 590.14 245.317 590.038 245.617 590.038C245.917 590.038 246.163 590.14 246.355 590.344C246.547 590.536 246.643 590.776 246.643 591.064C246.643 591.352 246.547 591.598 246.355 591.802C246.163 591.994 245.917 592.09 245.617 592.09Z" fill="white"/>
</svg>
