<svg width="369" height="550" viewBox="0 0 369 550" fill="none" xmlns="http://www.w3.org/2000/svg">
<mask id="path-1-outside-1_777_1095" maskUnits="userSpaceOnUse" x="71" y="91" width="218" height="342" fill="black">
<rect fill="white" x="71" y="91" width="218" height="342"/>
<path d="M244.869 321.554H286.377C285.324 344.112 280.737 363.588 272.616 379.98C264.646 396.223 252.99 408.705 237.65 417.428C222.461 426.15 203.437 430.512 180.577 430.512C164.185 430.512 149.371 427.278 136.137 420.812C122.902 414.345 111.548 405.096 102.073 393.064C92.749 380.883 85.6055 366.295 80.6426 349.301C75.6797 332.307 73.1982 313.207 73.1982 292.002V231.319C73.1982 210.265 75.6797 191.24 80.6426 174.246C85.7559 157.252 93.0498 142.739 102.524 130.708C112.149 118.526 123.805 109.202 137.49 102.735C151.326 96.2686 166.967 93.0352 184.412 93.0352C205.768 93.0352 223.814 97.3213 238.553 105.894C253.441 114.315 264.871 126.723 272.842 143.115C280.963 159.357 285.475 179.284 286.377 202.896H244.869C243.816 185.601 241.109 171.539 236.748 160.711C232.387 149.732 225.92 141.687 217.348 136.573C208.926 131.31 197.947 128.678 184.412 128.678C172.381 128.678 161.929 131.084 153.056 135.896C144.333 140.709 137.114 147.627 131.399 156.65C125.835 165.523 121.624 176.276 118.767 188.909C116.06 201.392 114.706 215.378 114.706 230.868V292.002C114.706 306.439 115.834 319.899 118.09 332.382C120.496 344.864 124.256 355.843 129.369 365.317C134.633 374.642 141.476 381.936 149.897 387.199C158.319 392.463 168.546 395.095 180.577 395.095C195.767 395.095 207.798 392.613 216.671 387.65C225.544 382.688 232.086 374.792 236.297 363.964C240.658 353.136 243.516 338.999 244.869 321.554Z"/>
</mask>
<path d="M244.869 321.554V319.554H243.018L242.875 321.399L244.869 321.554ZM286.377 321.554L288.375 321.647L288.472 319.554H286.377V321.554ZM272.616 379.98L270.824 379.093L270.821 379.099L272.616 379.98ZM237.65 417.428L236.662 415.689L236.654 415.693L237.65 417.428ZM102.073 393.064L100.485 394.28L100.493 394.291L100.502 394.302L102.073 393.064ZM80.6426 174.246L78.7274 173.67L78.725 173.678L78.7228 173.685L80.6426 174.246ZM102.524 130.708L100.955 129.468L100.953 129.471L102.524 130.708ZM137.49 102.735L136.643 100.923L136.636 100.927L137.49 102.735ZM238.553 105.894L237.547 107.622L237.558 107.628L237.568 107.634L238.553 105.894ZM272.842 143.115L271.043 143.99L271.048 144L271.053 144.01L272.842 143.115ZM286.377 202.896V204.896H288.455L288.375 202.819L286.377 202.896ZM244.869 202.896L242.873 203.017L242.987 204.896H244.869V202.896ZM236.748 160.711L234.889 161.449L234.893 161.458L236.748 160.711ZM217.348 136.573L216.288 138.269L216.305 138.28L216.323 138.291L217.348 136.573ZM153.056 135.896L152.102 134.138L152.096 134.142L152.09 134.145L153.056 135.896ZM131.399 156.65L129.71 155.58L129.705 155.588L131.399 156.65ZM118.767 188.909L116.816 188.468L116.814 188.477L116.812 188.485L118.767 188.909ZM118.09 332.382L116.122 332.738L116.124 332.749L116.126 332.76L118.09 332.382ZM129.369 365.317L127.609 366.267L127.618 366.284L127.627 366.301L129.369 365.317ZM236.297 363.964L234.442 363.217L234.437 363.228L234.433 363.239L236.297 363.964ZM244.869 323.554H286.377V319.554H244.869V323.554ZM284.379 321.46C283.336 343.806 278.797 362.999 270.824 379.093L274.408 380.868C282.677 364.177 287.312 344.419 288.375 321.647L284.379 321.46ZM270.821 379.099C263.022 394.991 251.643 407.17 236.662 415.689L238.639 419.166C254.337 410.24 266.269 397.454 274.412 380.862L270.821 379.099ZM236.654 415.693C221.847 424.197 203.191 428.512 180.577 428.512V432.512C203.682 432.512 223.075 428.104 238.646 419.162L236.654 415.693ZM180.577 428.512C164.454 428.512 149.946 425.333 137.015 419.015L135.259 422.608C148.796 429.223 163.915 432.512 180.577 432.512V428.512ZM137.015 419.015C124.061 412.685 112.941 403.632 103.645 391.827L100.502 394.302C110.155 406.56 121.743 416.004 135.259 422.608L137.015 419.015ZM103.661 391.849C94.5084 379.891 87.4666 365.533 82.5624 348.74L78.7228 349.861C83.7443 367.056 90.9896 381.875 100.485 394.28L103.661 391.849ZM82.5624 348.74C77.662 331.96 75.1982 313.054 75.1982 292.002H71.1982C71.1982 313.361 73.6974 332.653 78.7228 349.861L82.5624 348.74ZM75.1982 292.002V231.319H71.1982V292.002H75.1982ZM75.1982 231.319C75.1982 210.42 77.6616 191.588 82.5624 174.807L78.7228 173.685C73.6978 190.892 71.1982 210.11 71.1982 231.319H75.1982ZM82.5578 174.822C87.6102 158.031 94.7987 143.751 104.096 131.945L100.953 129.471C91.3009 141.727 83.9016 156.473 78.7274 173.67L82.5578 174.822ZM104.094 131.948C113.533 120.002 124.945 110.875 138.345 104.544L136.636 100.927C122.664 107.529 110.766 117.051 100.955 129.468L104.094 131.948ZM138.337 104.547C151.873 98.2208 167.218 95.0352 184.412 95.0352V91.0352C166.716 91.0352 150.78 94.3163 136.643 100.923L138.337 104.547ZM184.412 95.0352C205.502 95.0352 223.182 99.2673 237.547 107.622L239.558 104.165C224.447 95.3752 206.033 91.0352 184.412 91.0352V95.0352ZM237.568 107.634C252.08 115.843 263.237 127.937 271.043 143.99L274.64 142.241C266.505 125.509 254.803 112.788 239.537 104.153L237.568 107.634ZM271.053 144.01C279.014 159.933 283.484 179.563 284.378 202.972L288.375 202.819C287.465 179.005 282.911 158.782 274.631 142.221L271.053 144.01ZM286.377 200.896H244.869V204.896H286.377V200.896ZM246.865 202.774C245.805 185.358 243.074 171.063 238.603 159.964L234.893 161.458C239.145 172.015 241.827 185.843 242.873 203.017L246.865 202.774ZM238.607 159.973C234.114 148.662 227.389 140.234 218.372 134.856L216.323 138.291C224.451 143.139 230.66 150.802 234.889 161.449L238.607 159.973ZM218.408 134.877C209.572 129.355 198.191 126.678 184.412 126.678V130.678C197.704 130.678 208.279 133.264 216.288 138.269L218.408 134.877ZM184.412 126.678C172.112 126.678 161.319 129.139 152.102 134.138L154.009 137.655C162.538 133.029 172.65 130.678 184.412 130.678V126.678ZM152.09 134.145C143.051 139.132 135.591 146.294 129.71 155.58L133.089 157.72C138.637 148.96 145.615 142.286 154.022 137.648L152.09 134.145ZM129.705 155.588C123.996 164.691 119.712 175.665 116.816 188.468L120.717 189.35C123.536 176.888 127.674 166.356 133.094 157.713L129.705 155.588ZM116.812 188.485C114.069 201.133 112.706 215.264 112.706 230.868H116.706C116.706 215.491 118.05 201.65 120.721 189.333L116.812 188.485ZM112.706 230.868V292.002H116.706V230.868H112.706ZM112.706 292.002C112.706 306.543 113.842 320.123 116.122 332.738L120.058 332.026C117.826 319.676 116.706 306.336 116.706 292.002H112.706ZM116.126 332.76C118.564 345.407 122.384 356.585 127.609 366.267L131.129 364.368C126.128 355.101 122.428 344.321 120.054 332.003L116.126 332.76ZM127.627 366.301C133.042 375.892 140.111 383.441 148.837 388.895L150.957 385.503C142.841 380.43 136.223 373.391 131.111 364.334L127.627 366.301ZM148.837 388.895C157.639 394.396 168.251 397.095 180.577 397.095V393.095C168.841 393.095 159 390.53 150.957 385.503L148.837 388.895ZM180.577 397.095C195.952 397.095 208.364 394.588 217.647 389.396L215.695 385.905C207.232 390.638 195.581 393.095 180.577 393.095V397.095ZM217.647 389.396C226.983 384.174 233.807 375.885 238.161 364.689L234.433 363.239C230.365 373.699 224.105 381.201 215.695 385.905L217.647 389.396ZM238.152 364.711C242.617 353.624 245.501 339.266 246.863 321.708L242.875 321.399C241.53 338.732 238.699 352.647 234.442 363.217L238.152 364.711Z" fill="white" mask="url(#path-1-outside-1_777_1095)"/>
<path d="M10.1681 524L7.09606 512.8H8.53606L10.9521 522.4L13.6881 512.8H15.1921L17.8641 522.432L20.3121 512.8H21.7521L18.6161 524H17.0801L14.4081 514.736L11.6721 524H10.1681ZM25.9919 524.192C25.2346 524.192 24.5626 524.016 23.9759 523.664C23.3999 523.312 22.9466 522.821 22.6159 522.192C22.2853 521.552 22.1199 520.811 22.1199 519.968C22.1199 519.115 22.2799 518.373 22.5999 517.744C22.9306 517.115 23.3893 516.624 23.9759 516.272C24.5733 515.92 25.2559 515.744 26.0239 515.744C26.8133 515.744 27.4799 515.92 28.0239 516.272C28.5786 516.624 28.9999 517.088 29.2879 517.664C29.5866 518.229 29.7359 518.853 29.7359 519.536C29.7359 519.643 29.7359 519.755 29.7359 519.872C29.7359 519.989 29.7306 520.123 29.7199 520.272H23.1279V519.232H28.4239C28.3919 518.496 28.1466 517.92 27.6879 517.504C27.2399 517.088 26.6746 516.88 25.9919 516.88C25.5333 516.88 25.1066 516.987 24.7119 517.2C24.3279 517.403 24.0186 517.707 23.7839 518.112C23.5493 518.507 23.4319 519.003 23.4319 519.6V520.048C23.4319 520.709 23.5493 521.264 23.7839 521.712C24.0293 522.16 24.3439 522.496 24.7279 522.72C25.1226 522.944 25.5439 523.056 25.9919 523.056C26.5573 523.056 27.0213 522.933 27.3839 522.688C27.7573 522.432 28.0239 522.091 28.1839 521.664H29.5119C29.3839 522.144 29.1599 522.576 28.8399 522.96C28.5199 523.344 28.1199 523.648 27.6399 523.872C27.1706 524.085 26.6213 524.192 25.9919 524.192ZM35.7997 527.52V515.936H37.0157L37.1277 517.248C37.2984 516.992 37.517 516.752 37.7837 516.528C38.0504 516.293 38.3704 516.107 38.7437 515.968C39.117 515.819 39.5437 515.744 40.0237 515.744C40.813 515.744 41.4957 515.931 42.0717 516.304C42.6584 516.677 43.1117 517.184 43.4317 517.824C43.7624 518.453 43.9277 519.173 43.9277 519.984C43.9277 520.795 43.7624 521.52 43.4317 522.16C43.1117 522.789 42.6584 523.285 42.0717 523.648C41.485 524.011 40.797 524.192 40.0077 524.192C39.357 524.192 38.781 524.059 38.2797 523.792C37.789 523.525 37.4104 523.152 37.1437 522.672V527.52H35.7997ZM39.8637 523.024C40.3864 523.024 40.8504 522.896 41.2557 522.64C41.661 522.384 41.9757 522.032 42.1997 521.584C42.4344 521.125 42.5517 520.587 42.5517 519.968C42.5517 519.36 42.4344 518.827 42.1997 518.368C41.9757 517.909 41.661 517.552 41.2557 517.296C40.8504 517.04 40.3864 516.912 39.8637 516.912C39.3304 516.912 38.861 517.04 38.4557 517.296C38.0504 517.552 37.7357 517.909 37.5117 518.368C37.2877 518.827 37.1757 519.36 37.1757 519.968C37.1757 520.587 37.2877 521.125 37.5117 521.584C37.7357 522.032 38.0504 522.384 38.4557 522.64C38.861 522.896 39.3304 523.024 39.8637 523.024ZM45.8153 524V515.936H47.0313L47.1273 517.472C47.3086 517.109 47.538 516.8 47.8153 516.544C48.1033 516.288 48.4446 516.091 48.8393 515.952C49.2446 515.813 49.7033 515.744 50.2153 515.744V517.152H49.7193C49.378 517.152 49.0526 517.2 48.7433 517.296C48.434 517.381 48.1566 517.525 47.9113 517.728C47.6766 517.931 47.49 518.208 47.3513 518.56C47.2233 518.901 47.1593 519.328 47.1593 519.84V524H45.8153ZM51.8652 524V515.936H53.2092V524H51.8652ZM52.5372 514.224C52.2705 514.224 52.0465 514.139 51.8652 513.968C51.6945 513.787 51.6092 513.563 51.6092 513.296C51.6092 513.029 51.6945 512.816 51.8652 512.656C52.0465 512.485 52.2705 512.4 52.5372 512.4C52.7932 512.4 53.0119 512.485 53.1932 512.656C53.3745 512.816 53.4652 513.029 53.4652 513.296C53.4652 513.563 53.3745 513.787 53.1932 513.968C53.0119 514.139 52.7932 514.224 52.5372 514.224ZM59.1809 524.192C58.4343 524.192 57.7623 524.021 57.1649 523.68C56.5676 523.328 56.0983 522.837 55.7569 522.208C55.4156 521.568 55.2449 520.827 55.2449 519.984C55.2449 519.12 55.4156 518.373 55.7569 517.744C56.1089 517.104 56.5836 516.613 57.1809 516.272C57.7889 515.92 58.4663 515.744 59.2129 515.744C59.9809 515.744 60.6583 515.92 61.2449 516.272C61.8423 516.613 62.3116 517.104 62.6529 517.744C63.0049 518.373 63.1809 519.115 63.1809 519.968C63.1809 520.821 63.0049 521.568 62.6529 522.208C62.3009 522.837 61.8263 523.328 61.2289 523.68C60.6316 524.021 59.9489 524.192 59.1809 524.192ZM59.1969 523.04C59.6556 523.04 60.0823 522.928 60.4769 522.704C60.8716 522.469 61.1916 522.123 61.4369 521.664C61.6823 521.205 61.8049 520.64 61.8049 519.968C61.8049 519.285 61.6823 518.72 61.4369 518.272C61.2023 517.813 60.8876 517.472 60.4929 517.248C60.1089 517.013 59.6823 516.896 59.2129 516.896C58.7649 516.896 58.3383 517.013 57.9329 517.248C57.5383 517.472 57.2183 517.813 56.9729 518.272C56.7383 518.72 56.6209 519.285 56.6209 519.968C56.6209 520.64 56.7383 521.205 56.9729 521.664C57.2183 522.123 57.5329 522.469 57.9169 522.704C58.3116 522.928 58.7383 523.04 59.1969 523.04ZM65.0653 524V515.936H66.2813L66.3773 517.472C66.5586 517.109 66.788 516.8 67.0653 516.544C67.3533 516.288 67.6946 516.091 68.0893 515.952C68.4946 515.813 68.9533 515.744 69.4653 515.744V517.152H68.9693C68.628 517.152 68.3026 517.2 67.9933 517.296C67.684 517.381 67.4066 517.525 67.1613 517.728C66.9266 517.931 66.74 518.208 66.6013 518.56C66.4733 518.901 66.4093 519.328 66.4093 519.84V524H65.0653ZM71.1152 524V515.936H72.4592V524H71.1152ZM71.7872 514.224C71.5205 514.224 71.2965 514.139 71.1152 513.968C70.9445 513.787 70.8592 513.563 70.8592 513.296C70.8592 513.029 70.9445 512.816 71.1152 512.656C71.2965 512.485 71.5205 512.4 71.7872 512.4C72.0432 512.4 72.2619 512.485 72.4432 512.656C72.6245 512.816 72.7152 513.029 72.7152 513.296C72.7152 513.563 72.6245 513.787 72.4432 513.968C72.2619 514.139 72.0432 514.224 71.7872 514.224ZM77.9989 524C77.5189 524 77.1029 523.925 76.7509 523.776C76.3989 523.627 76.1269 523.376 75.9349 523.024C75.7536 522.661 75.6629 522.176 75.6629 521.568V517.072H74.2549V515.936H75.6629L75.8389 513.984H77.0069V515.936H79.3429V517.072H77.0069V521.568C77.0069 522.069 77.1083 522.411 77.3109 522.592C77.5136 522.763 77.8709 522.848 78.3829 522.848H79.2469V524H77.9989ZM81.2246 524V515.936H82.5686V524H81.2246ZM81.8966 514.224C81.6299 514.224 81.4059 514.139 81.2246 513.968C81.0539 513.787 80.9686 513.563 80.9686 513.296C80.9686 513.029 81.0539 512.816 81.2246 512.656C81.4059 512.485 81.6299 512.4 81.8966 512.4C82.1526 512.4 82.3712 512.485 82.5526 512.656C82.7339 512.816 82.8246 513.029 82.8246 513.296C82.8246 513.563 82.7339 513.787 82.5526 513.968C82.3712 514.139 82.1526 514.224 81.8966 514.224ZM84.3963 524V522.896L88.8603 517.056H84.4763V515.936H90.3963V517.04L85.9163 522.88H90.4763V524H84.3963ZM95.8044 524.192C95.0471 524.192 94.3751 524.016 93.7884 523.664C93.2124 523.312 92.7591 522.821 92.4284 522.192C92.0978 521.552 91.9324 520.811 91.9324 519.968C91.9324 519.115 92.0924 518.373 92.4124 517.744C92.7431 517.115 93.2018 516.624 93.7884 516.272C94.3858 515.92 95.0684 515.744 95.8364 515.744C96.6258 515.744 97.2924 515.92 97.8364 516.272C98.3911 516.624 98.8124 517.088 99.1004 517.664C99.3991 518.229 99.5484 518.853 99.5484 519.536C99.5484 519.643 99.5484 519.755 99.5484 519.872C99.5484 519.989 99.5431 520.123 99.5324 520.272H92.9404V519.232H98.2364C98.2044 518.496 97.9591 517.92 97.5004 517.504C97.0524 517.088 96.4871 516.88 95.8044 516.88C95.3458 516.88 94.9191 516.987 94.5244 517.2C94.1404 517.403 93.8311 517.707 93.5964 518.112C93.3618 518.507 93.2444 519.003 93.2444 519.6V520.048C93.2444 520.709 93.3618 521.264 93.5964 521.712C93.8418 522.16 94.1564 522.496 94.5404 522.72C94.9351 522.944 95.3564 523.056 95.8044 523.056C96.3698 523.056 96.8338 522.933 97.1964 522.688C97.5698 522.432 97.8364 522.091 97.9964 521.664H99.3244C99.1964 522.144 98.9724 522.576 98.6524 522.96C98.3324 523.344 97.9324 523.648 97.4524 523.872C96.9831 524.085 96.4338 524.192 95.8044 524.192ZM106.06 524V514.688C106.06 514.176 106.146 513.76 106.316 513.44C106.487 513.109 106.738 512.869 107.068 512.72C107.41 512.56 107.826 512.48 108.316 512.48H109.228V513.632H108.524C108.13 513.632 107.842 513.712 107.66 513.872C107.49 514.032 107.404 514.315 107.404 514.72V524H106.06ZM104.828 517.072V515.936H109.436V517.072H104.828ZM111.05 524V515.936H112.266L112.362 517.472C112.543 517.109 112.772 516.8 113.05 516.544C113.338 516.288 113.679 516.091 114.074 515.952C114.479 515.813 114.938 515.744 115.45 515.744V517.152H114.954C114.612 517.152 114.287 517.2 113.978 517.296C113.668 517.381 113.391 517.525 113.146 517.728C112.911 517.931 112.724 518.208 112.586 518.56C112.458 518.901 112.394 519.328 112.394 519.84V524H111.05ZM120.211 524.192C119.453 524.192 118.781 524.016 118.195 523.664C117.619 523.312 117.165 522.821 116.835 522.192C116.504 521.552 116.339 520.811 116.339 519.968C116.339 519.115 116.499 518.373 116.819 517.744C117.149 517.115 117.608 516.624 118.195 516.272C118.792 515.92 119.475 515.744 120.243 515.744C121.032 515.744 121.699 515.92 122.243 516.272C122.797 516.624 123.219 517.088 123.507 517.664C123.805 518.229 123.955 518.853 123.955 519.536C123.955 519.643 123.955 519.755 123.955 519.872C123.955 519.989 123.949 520.123 123.939 520.272H117.347V519.232H122.643C122.611 518.496 122.365 517.92 121.907 517.504C121.459 517.088 120.893 516.88 120.211 516.88C119.752 516.88 119.325 516.987 118.931 517.2C118.547 517.403 118.237 517.707 118.003 518.112C117.768 518.507 117.651 519.003 117.651 519.6V520.048C117.651 520.709 117.768 521.264 118.003 521.712C118.248 522.16 118.563 522.496 118.947 522.72C119.341 522.944 119.763 523.056 120.211 523.056C120.776 523.056 121.24 522.933 121.603 522.688C121.976 522.432 122.243 522.091 122.403 521.664H123.731C123.603 522.144 123.379 522.576 123.059 522.96C122.739 523.344 122.339 523.648 121.859 523.872C121.389 524.085 120.84 524.192 120.211 524.192ZM129.304 524.192C128.547 524.192 127.875 524.016 127.288 523.664C126.712 523.312 126.259 522.821 125.928 522.192C125.598 521.552 125.432 520.811 125.432 519.968C125.432 519.115 125.592 518.373 125.912 517.744C126.243 517.115 126.702 516.624 127.288 516.272C127.886 515.92 128.568 515.744 129.336 515.744C130.126 515.744 130.792 515.92 131.336 516.272C131.891 516.624 132.312 517.088 132.6 517.664C132.899 518.229 133.048 518.853 133.048 519.536C133.048 519.643 133.048 519.755 133.048 519.872C133.048 519.989 133.043 520.123 133.032 520.272H126.44V519.232H131.736C131.704 518.496 131.459 517.92 131 517.504C130.552 517.088 129.987 516.88 129.304 516.88C128.846 516.88 128.419 516.987 128.024 517.2C127.64 517.403 127.331 517.707 127.096 518.112C126.862 518.507 126.744 519.003 126.744 519.6V520.048C126.744 520.709 126.862 521.264 127.096 521.712C127.342 522.16 127.656 522.496 128.04 522.72C128.435 522.944 128.856 523.056 129.304 523.056C129.87 523.056 130.334 522.933 130.696 522.688C131.07 522.432 131.336 522.091 131.496 521.664H132.824C132.696 522.144 132.472 522.576 132.152 522.96C131.832 523.344 131.432 523.648 130.952 523.872C130.483 524.085 129.934 524.192 129.304 524.192ZM138.414 524.192C137.636 524.192 136.953 524.011 136.366 523.648C135.78 523.275 135.326 522.768 135.006 522.128C134.686 521.488 134.526 520.763 134.526 519.952C134.526 519.141 134.686 518.421 135.006 517.792C135.326 517.152 135.78 516.651 136.366 516.288C136.964 515.925 137.652 515.744 138.43 515.744C139.092 515.744 139.668 515.877 140.158 516.144C140.66 516.411 141.044 516.784 141.31 517.264V512.48H142.654V524H141.438L141.326 522.672C141.156 522.939 140.937 523.189 140.67 523.424C140.404 523.648 140.084 523.835 139.71 523.984C139.337 524.123 138.905 524.192 138.414 524.192ZM138.574 523.024C139.108 523.024 139.577 522.896 139.982 522.64C140.388 522.384 140.702 522.032 140.926 521.584C141.15 521.125 141.262 520.587 141.262 519.968C141.262 519.36 141.15 518.827 140.926 518.368C140.702 517.909 140.388 517.552 139.982 517.296C139.577 517.04 139.108 516.912 138.574 516.912C138.052 516.912 137.588 517.04 137.182 517.296C136.777 517.552 136.462 517.909 136.238 518.368C136.014 518.827 135.902 519.36 135.902 519.968C135.902 520.587 136.014 521.125 136.238 521.584C136.462 522.032 136.777 522.384 137.182 522.64C137.588 522.896 138.052 523.024 138.574 523.024ZM148.493 524.192C147.747 524.192 147.075 524.021 146.477 523.68C145.88 523.328 145.411 522.837 145.069 522.208C144.728 521.568 144.557 520.827 144.557 519.984C144.557 519.12 144.728 518.373 145.069 517.744C145.421 517.104 145.896 516.613 146.493 516.272C147.101 515.92 147.779 515.744 148.525 515.744C149.293 515.744 149.971 515.92 150.557 516.272C151.155 516.613 151.624 517.104 151.965 517.744C152.317 518.373 152.493 519.115 152.493 519.968C152.493 520.821 152.317 521.568 151.965 522.208C151.613 522.837 151.139 523.328 150.541 523.68C149.944 524.021 149.261 524.192 148.493 524.192ZM148.509 523.04C148.968 523.04 149.395 522.928 149.789 522.704C150.184 522.469 150.504 522.123 150.749 521.664C150.995 521.205 151.117 520.64 151.117 519.968C151.117 519.285 150.995 518.72 150.749 518.272C150.515 517.813 150.2 517.472 149.805 517.248C149.421 517.013 148.995 516.896 148.525 516.896C148.077 516.896 147.651 517.013 147.245 517.248C146.851 517.472 146.531 517.813 146.285 518.272C146.051 518.72 145.933 519.285 145.933 519.968C145.933 520.64 146.051 521.205 146.285 521.664C146.531 522.123 146.845 522.469 147.229 522.704C147.624 522.928 148.051 523.04 148.509 523.04ZM154.378 524V515.936H155.594L155.674 517.088C155.93 516.672 156.271 516.347 156.698 516.112C157.135 515.867 157.61 515.744 158.122 515.744C158.538 515.744 158.911 515.803 159.242 515.92C159.583 516.027 159.882 516.197 160.138 516.432C160.394 516.656 160.602 516.944 160.762 517.296C161.039 516.805 161.418 516.427 161.898 516.16C162.388 515.883 162.911 515.744 163.466 515.744C164.084 515.744 164.623 515.872 165.082 516.128C165.551 516.373 165.908 516.752 166.154 517.264C166.41 517.765 166.538 518.405 166.538 519.184V524H165.21V519.328C165.21 518.517 165.044 517.909 164.714 517.504C164.383 517.099 163.919 516.896 163.322 516.896C162.906 516.896 162.532 517.008 162.202 517.232C161.871 517.445 161.61 517.76 161.418 518.176C161.226 518.592 161.13 519.104 161.13 519.712V524H159.786V519.328C159.786 518.517 159.62 517.909 159.29 517.504C158.959 517.099 158.49 516.896 157.882 516.896C157.476 516.896 157.108 517.008 156.778 517.232C156.458 517.445 156.202 517.76 156.01 518.176C155.818 518.592 155.722 519.104 155.722 519.712V524H154.378ZM175.502 524.192C174.851 524.192 174.307 524.08 173.87 523.856C173.432 523.621 173.107 523.317 172.894 522.944C172.68 522.56 172.574 522.144 172.574 521.696C172.574 521.152 172.712 520.693 172.99 520.32C173.278 519.936 173.678 519.648 174.19 519.456C174.712 519.253 175.326 519.152 176.03 519.152H178.158C178.158 518.651 178.078 518.235 177.918 517.904C177.768 517.563 177.544 517.307 177.246 517.136C176.958 516.965 176.595 516.88 176.158 516.88C175.646 516.88 175.203 517.008 174.83 517.264C174.456 517.52 174.227 517.899 174.142 518.4H172.766C172.83 517.824 173.022 517.344 173.342 516.96C173.672 516.565 174.088 516.267 174.59 516.064C175.091 515.851 175.614 515.744 176.158 515.744C176.904 515.744 177.523 515.883 178.014 516.16C178.515 516.427 178.888 516.805 179.134 517.296C179.379 517.776 179.502 518.347 179.502 519.008V524H178.302L178.222 522.576C178.115 522.8 177.976 523.013 177.806 523.216C177.646 523.408 177.454 523.579 177.23 523.728C177.006 523.867 176.75 523.979 176.462 524.064C176.184 524.149 175.864 524.192 175.502 524.192ZM175.71 523.056C176.083 523.056 176.419 522.981 176.718 522.832C177.027 522.672 177.288 522.459 177.502 522.192C177.715 521.915 177.875 521.611 177.982 521.28C178.099 520.949 178.158 520.603 178.158 520.24V520.192H176.142C175.619 520.192 175.198 520.256 174.878 520.384C174.558 520.501 174.328 520.672 174.19 520.896C174.051 521.109 173.982 521.355 173.982 521.632C173.982 521.92 174.046 522.171 174.174 522.384C174.312 522.597 174.51 522.763 174.766 522.88C175.032 522.997 175.347 523.056 175.71 523.056ZM181.581 524V515.936H182.797L182.861 517.344C183.117 516.843 183.48 516.453 183.949 516.176C184.429 515.888 184.973 515.744 185.581 515.744C186.21 515.744 186.754 515.872 187.213 516.128C187.672 516.373 188.029 516.752 188.285 517.264C188.541 517.765 188.669 518.405 188.669 519.184V524H187.325V519.328C187.325 518.517 187.144 517.909 186.781 517.504C186.429 517.099 185.928 516.896 185.277 516.896C184.829 516.896 184.429 517.008 184.077 517.232C183.725 517.445 183.442 517.76 183.229 518.176C183.026 518.581 182.925 519.088 182.925 519.696V524H181.581ZM194.32 524.192C193.542 524.192 192.859 524.011 192.272 523.648C191.686 523.275 191.232 522.768 190.912 522.128C190.592 521.488 190.432 520.763 190.432 519.952C190.432 519.141 190.592 518.421 190.912 517.792C191.232 517.152 191.686 516.651 192.272 516.288C192.87 515.925 193.558 515.744 194.336 515.744C194.998 515.744 195.574 515.877 196.064 516.144C196.566 516.411 196.95 516.784 197.216 517.264V512.48H198.56V524H197.344L197.232 522.672C197.062 522.939 196.843 523.189 196.576 523.424C196.31 523.648 195.99 523.835 195.616 523.984C195.243 524.123 194.811 524.192 194.32 524.192ZM194.48 523.024C195.014 523.024 195.483 522.896 195.888 522.64C196.294 522.384 196.608 522.032 196.832 521.584C197.056 521.125 197.168 520.587 197.168 519.968C197.168 519.36 197.056 518.827 196.832 518.368C196.608 517.909 196.294 517.552 195.888 517.296C195.483 517.04 195.014 516.912 194.48 516.912C193.958 516.912 193.494 517.04 193.088 517.296C192.683 517.552 192.368 517.909 192.144 518.368C191.92 518.827 191.808 519.36 191.808 519.968C191.808 520.587 191.92 521.125 192.144 521.584C192.368 522.032 192.683 522.384 193.088 522.64C193.494 522.896 193.958 523.024 194.48 523.024ZM207.674 524.192C207.023 524.192 206.479 524.08 206.042 523.856C205.604 523.621 205.279 523.317 205.066 522.944C204.852 522.56 204.746 522.144 204.746 521.696C204.746 521.152 204.884 520.693 205.162 520.32C205.45 519.936 205.85 519.648 206.362 519.456C206.884 519.253 207.498 519.152 208.202 519.152H210.33C210.33 518.651 210.25 518.235 210.09 517.904C209.94 517.563 209.716 517.307 209.418 517.136C209.13 516.965 208.767 516.88 208.33 516.88C207.818 516.88 207.375 517.008 207.002 517.264C206.628 517.52 206.399 517.899 206.314 518.4H204.938C205.002 517.824 205.194 517.344 205.514 516.96C205.844 516.565 206.26 516.267 206.762 516.064C207.263 515.851 207.786 515.744 208.33 515.744C209.076 515.744 209.695 515.883 210.186 516.16C210.687 516.427 211.06 516.805 211.306 517.296C211.551 517.776 211.674 518.347 211.674 519.008V524H210.474L210.394 522.576C210.287 522.8 210.148 523.013 209.978 523.216C209.818 523.408 209.626 523.579 209.402 523.728C209.178 523.867 208.922 523.979 208.634 524.064C208.356 524.149 208.036 524.192 207.674 524.192ZM207.882 523.056C208.255 523.056 208.591 522.981 208.89 522.832C209.199 522.672 209.46 522.459 209.674 522.192C209.887 521.915 210.047 521.611 210.154 521.28C210.271 520.949 210.33 520.603 210.33 520.24V520.192H208.314C207.791 520.192 207.37 520.256 207.05 520.384C206.73 520.501 206.5 520.672 206.362 520.896C206.223 521.109 206.154 521.355 206.154 521.632C206.154 521.92 206.218 522.171 206.346 522.384C206.484 522.597 206.682 522.763 206.938 522.88C207.204 522.997 207.519 523.056 207.882 523.056ZM213.753 527.52V515.936H214.969L215.081 517.248C215.251 516.992 215.47 516.752 215.737 516.528C216.003 516.293 216.323 516.107 216.697 515.968C217.07 515.819 217.497 515.744 217.977 515.744C218.766 515.744 219.449 515.931 220.025 516.304C220.611 516.677 221.065 517.184 221.385 517.824C221.715 518.453 221.881 519.173 221.881 519.984C221.881 520.795 221.715 521.52 221.385 522.16C221.065 522.789 220.611 523.285 220.025 523.648C219.438 524.011 218.75 524.192 217.961 524.192C217.31 524.192 216.734 524.059 216.233 523.792C215.742 523.525 215.363 523.152 215.097 522.672V527.52H213.753ZM217.817 523.024C218.339 523.024 218.803 522.896 219.209 522.64C219.614 522.384 219.929 522.032 220.153 521.584C220.387 521.125 220.505 520.587 220.505 519.968C220.505 519.36 220.387 518.827 220.153 518.368C219.929 517.909 219.614 517.552 219.209 517.296C218.803 517.04 218.339 516.912 217.817 516.912C217.283 516.912 216.814 517.04 216.409 517.296C216.003 517.552 215.689 517.909 215.465 518.368C215.241 518.827 215.129 519.36 215.129 519.968C215.129 520.587 215.241 521.125 215.465 521.584C215.689 522.032 216.003 522.384 216.409 522.64C216.814 522.896 217.283 523.024 217.817 523.024ZM223.768 527.52V515.936H224.984L225.096 517.248C225.267 516.992 225.486 516.752 225.752 516.528C226.019 516.293 226.339 516.107 226.712 515.968C227.086 515.819 227.512 515.744 227.992 515.744C228.782 515.744 229.464 515.931 230.04 516.304C230.627 516.677 231.08 517.184 231.4 517.824C231.731 518.453 231.896 519.173 231.896 519.984C231.896 520.795 231.731 521.52 231.4 522.16C231.08 522.789 230.627 523.285 230.04 523.648C229.454 524.011 228.766 524.192 227.976 524.192C227.326 524.192 226.75 524.059 226.248 523.792C225.758 523.525 225.379 523.152 225.112 522.672V527.52H223.768ZM227.832 523.024C228.355 523.024 228.819 522.896 229.224 522.64C229.63 522.384 229.944 522.032 230.168 521.584C230.403 521.125 230.52 520.587 230.52 519.968C230.52 519.36 230.403 518.827 230.168 518.368C229.944 517.909 229.63 517.552 229.224 517.296C228.819 517.04 228.355 516.912 227.832 516.912C227.299 516.912 226.83 517.04 226.424 517.296C226.019 517.552 225.704 517.909 225.48 518.368C225.256 518.827 225.144 519.36 225.144 519.968C225.144 520.587 225.256 521.125 225.48 521.584C225.704 522.032 226.019 522.384 226.424 522.64C226.83 522.896 227.299 523.024 227.832 523.024ZM233.784 524V515.936H235L235.096 517.472C235.277 517.109 235.507 516.8 235.784 516.544C236.072 516.288 236.413 516.091 236.808 515.952C237.213 515.813 237.672 515.744 238.184 515.744V517.152H237.688C237.347 517.152 237.021 517.2 236.712 517.296C236.403 517.381 236.125 517.525 235.88 517.728C235.645 517.931 235.459 518.208 235.32 518.56C235.192 518.901 235.128 519.328 235.128 519.84V524H233.784ZM242.945 524.192C242.188 524.192 241.516 524.016 240.929 523.664C240.353 523.312 239.9 522.821 239.569 522.192C239.238 521.552 239.073 520.811 239.073 519.968C239.073 519.115 239.233 518.373 239.553 517.744C239.884 517.115 240.342 516.624 240.929 516.272C241.526 515.92 242.209 515.744 242.977 515.744C243.766 515.744 244.433 515.92 244.977 516.272C245.532 516.624 245.953 517.088 246.241 517.664C246.54 518.229 246.689 518.853 246.689 519.536C246.689 519.643 246.689 519.755 246.689 519.872C246.689 519.989 246.684 520.123 246.673 520.272H240.081V519.232H245.377C245.345 518.496 245.1 517.92 244.641 517.504C244.193 517.088 243.628 516.88 242.945 516.88C242.486 516.88 242.06 516.987 241.665 517.2C241.281 517.403 240.972 517.707 240.737 518.112C240.502 518.507 240.385 519.003 240.385 519.6V520.048C240.385 520.709 240.502 521.264 240.737 521.712C240.982 522.16 241.297 522.496 241.681 522.72C242.076 522.944 242.497 523.056 242.945 523.056C243.51 523.056 243.974 522.933 244.337 522.688C244.71 522.432 244.977 522.091 245.137 521.664H246.465C246.337 522.144 246.113 522.576 245.793 522.96C245.473 523.344 245.073 523.648 244.593 523.872C244.124 524.085 243.574 524.192 242.945 524.192ZM252.135 524.192C251.377 524.192 250.695 524.016 250.087 523.664C249.489 523.312 249.02 522.821 248.679 522.192C248.337 521.552 248.167 520.816 248.167 519.984C248.167 519.131 248.337 518.389 248.679 517.76C249.02 517.131 249.489 516.64 250.087 516.288C250.695 515.925 251.377 515.744 252.135 515.744C253.095 515.744 253.895 515.995 254.535 516.496C255.175 516.987 255.58 517.648 255.751 518.48H254.375C254.268 517.979 254.007 517.589 253.591 517.312C253.175 517.035 252.684 516.896 252.119 516.896C251.66 516.896 251.233 517.013 250.839 517.248C250.444 517.472 250.129 517.813 249.895 518.272C249.66 518.731 249.543 519.296 249.543 519.968C249.543 520.469 249.612 520.917 249.751 521.312C249.889 521.696 250.076 522.016 250.311 522.272C250.545 522.528 250.817 522.725 251.127 522.864C251.447 522.992 251.777 523.056 252.119 523.056C252.503 523.056 252.849 522.997 253.159 522.88C253.468 522.752 253.729 522.565 253.943 522.32C254.156 522.075 254.3 521.787 254.375 521.456H255.751C255.58 522.267 255.169 522.928 254.519 523.44C253.879 523.941 253.084 524.192 252.135 524.192ZM257.787 524V515.936H259.131V524H257.787ZM258.459 514.224C258.192 514.224 257.968 514.139 257.787 513.968C257.616 513.787 257.531 513.563 257.531 513.296C257.531 513.029 257.616 512.816 257.787 512.656C257.968 512.485 258.192 512.4 258.459 512.4C258.715 512.4 258.934 512.485 259.115 512.656C259.296 512.816 259.387 513.029 259.387 513.296C259.387 513.563 259.296 513.787 259.115 513.968C258.934 514.139 258.715 514.224 258.459 514.224ZM264.127 524.192C263.476 524.192 262.932 524.08 262.495 523.856C262.057 523.621 261.732 523.317 261.519 522.944C261.305 522.56 261.199 522.144 261.199 521.696C261.199 521.152 261.337 520.693 261.615 520.32C261.903 519.936 262.303 519.648 262.815 519.456C263.337 519.253 263.951 519.152 264.655 519.152H266.783C266.783 518.651 266.703 518.235 266.543 517.904C266.393 517.563 266.169 517.307 265.871 517.136C265.583 516.965 265.22 516.88 264.783 516.88C264.271 516.88 263.828 517.008 263.455 517.264C263.081 517.52 262.852 517.899 262.767 518.4H261.391C261.455 517.824 261.647 517.344 261.967 516.96C262.297 516.565 262.713 516.267 263.215 516.064C263.716 515.851 264.239 515.744 264.783 515.744C265.529 515.744 266.148 515.883 266.639 516.16C267.14 516.427 267.513 516.805 267.759 517.296C268.004 517.776 268.127 518.347 268.127 519.008V524H266.927L266.847 522.576C266.74 522.8 266.601 523.013 266.431 523.216C266.271 523.408 266.079 523.579 265.855 523.728C265.631 523.867 265.375 523.979 265.087 524.064C264.809 524.149 264.489 524.192 264.127 524.192ZM264.335 523.056C264.708 523.056 265.044 522.981 265.343 522.832C265.652 522.672 265.913 522.459 266.127 522.192C266.34 521.915 266.5 521.611 266.607 521.28C266.724 520.949 266.783 520.603 266.783 520.24V520.192H264.767C264.244 520.192 263.823 520.256 263.503 520.384C263.183 520.501 262.953 520.672 262.815 520.896C262.676 521.109 262.607 521.355 262.607 521.632C262.607 521.92 262.671 522.171 262.799 522.384C262.937 522.597 263.135 522.763 263.391 522.88C263.657 522.997 263.972 523.056 264.335 523.056ZM273.155 524C272.675 524 272.259 523.925 271.907 523.776C271.555 523.627 271.283 523.376 271.091 523.024C270.91 522.661 270.819 522.176 270.819 521.568V517.072H269.411V515.936H270.819L270.995 513.984H272.163V515.936H274.499V517.072H272.163V521.568C272.163 522.069 272.265 522.411 272.467 522.592C272.67 522.763 273.027 522.848 273.539 522.848H274.403V524H273.155ZM276.381 524V515.936H277.725V524H276.381ZM277.053 514.224C276.786 514.224 276.562 514.139 276.381 513.968C276.21 513.787 276.125 513.563 276.125 513.296C276.125 513.029 276.21 512.816 276.381 512.656C276.562 512.485 276.786 512.4 277.053 512.4C277.309 512.4 277.527 512.485 277.709 512.656C277.89 512.816 277.981 513.029 277.981 513.296C277.981 513.563 277.89 513.787 277.709 513.968C277.527 514.139 277.309 514.224 277.053 514.224ZM283.697 524.192C282.95 524.192 282.278 524.021 281.681 523.68C281.083 523.328 280.614 522.837 280.273 522.208C279.931 521.568 279.761 520.827 279.761 519.984C279.761 519.12 279.931 518.373 280.273 517.744C280.625 517.104 281.099 516.613 281.697 516.272C282.305 515.92 282.982 515.744 283.729 515.744C284.497 515.744 285.174 515.92 285.761 516.272C286.358 516.613 286.827 517.104 287.169 517.744C287.521 518.373 287.697 519.115 287.697 519.968C287.697 520.821 287.521 521.568 287.169 522.208C286.817 522.837 286.342 523.328 285.745 523.68C285.147 524.021 284.465 524.192 283.697 524.192ZM283.713 523.04C284.171 523.04 284.598 522.928 284.993 522.704C285.387 522.469 285.707 522.123 285.953 521.664C286.198 521.205 286.321 520.64 286.321 519.968C286.321 519.285 286.198 518.72 285.953 518.272C285.718 517.813 285.403 517.472 285.009 517.248C284.625 517.013 284.198 516.896 283.729 516.896C283.281 516.896 282.854 517.013 282.449 517.248C282.054 517.472 281.734 517.813 281.489 518.272C281.254 518.72 281.137 519.285 281.137 519.968C281.137 520.64 281.254 521.205 281.489 521.664C281.734 522.123 282.049 522.469 282.433 522.704C282.827 522.928 283.254 523.04 283.713 523.04ZM289.581 524V515.936H290.797L290.861 517.344C291.117 516.843 291.48 516.453 291.949 516.176C292.429 515.888 292.973 515.744 293.581 515.744C294.21 515.744 294.754 515.872 295.213 516.128C295.672 516.373 296.029 516.752 296.285 517.264C296.541 517.765 296.669 518.405 296.669 519.184V524H295.325V519.328C295.325 518.517 295.144 517.909 294.781 517.504C294.429 517.099 293.928 516.896 293.277 516.896C292.829 516.896 292.429 517.008 292.077 517.232C291.725 517.445 291.442 517.76 291.229 518.176C291.026 518.581 290.925 519.088 290.925 519.696V524H289.581ZM303.466 524V514.688C303.466 514.176 303.552 513.76 303.722 513.44C303.893 513.109 304.144 512.869 304.474 512.72C304.816 512.56 305.232 512.48 305.722 512.48H306.634V513.632H305.93C305.536 513.632 305.248 513.712 305.066 513.872C304.896 514.032 304.81 514.315 304.81 514.72V524H303.466ZM302.234 517.072V515.936H306.842V517.072H302.234ZM311.743 524.192C310.997 524.192 310.325 524.021 309.727 523.68C309.13 523.328 308.661 522.837 308.319 522.208C307.978 521.568 307.807 520.827 307.807 519.984C307.807 519.12 307.978 518.373 308.319 517.744C308.671 517.104 309.146 516.613 309.743 516.272C310.351 515.92 311.029 515.744 311.775 515.744C312.543 515.744 313.221 515.92 313.807 516.272C314.405 516.613 314.874 517.104 315.215 517.744C315.567 518.373 315.743 519.115 315.743 519.968C315.743 520.821 315.567 521.568 315.215 522.208C314.863 522.837 314.389 523.328 313.791 523.68C313.194 524.021 312.511 524.192 311.743 524.192ZM311.759 523.04C312.218 523.04 312.645 522.928 313.039 522.704C313.434 522.469 313.754 522.123 313.999 521.664C314.245 521.205 314.367 520.64 314.367 519.968C314.367 519.285 314.245 518.72 313.999 518.272C313.765 517.813 313.45 517.472 313.055 517.248C312.671 517.013 312.245 516.896 311.775 516.896C311.327 516.896 310.901 517.013 310.495 517.248C310.101 517.472 309.781 517.813 309.535 518.272C309.301 518.72 309.183 519.285 309.183 519.968C309.183 520.64 309.301 521.205 309.535 521.664C309.781 522.123 310.095 522.469 310.479 522.704C310.874 522.928 311.301 523.04 311.759 523.04ZM317.628 524V515.936H318.844L318.94 517.472C319.121 517.109 319.35 516.8 319.628 516.544C319.916 516.288 320.257 516.091 320.652 515.952C321.057 515.813 321.516 515.744 322.028 515.744V517.152H321.532C321.19 517.152 320.865 517.2 320.556 517.296C320.246 517.381 319.969 517.525 319.724 517.728C319.489 517.931 319.302 518.208 319.164 518.56C319.036 518.901 318.972 519.328 318.972 519.84V524H317.628ZM332.024 524.192C331.565 524.192 331.149 524.128 330.776 524C330.413 523.861 330.093 523.68 329.816 523.456C329.538 523.232 329.309 522.971 329.128 522.672L329.016 524H327.8V512.48H329.144V517.264C329.4 516.848 329.768 516.491 330.248 516.192C330.728 515.893 331.32 515.744 332.024 515.744C332.802 515.744 333.485 515.931 334.072 516.304C334.658 516.667 335.112 517.168 335.432 517.808C335.762 518.437 335.928 519.157 335.928 519.968C335.928 520.779 335.762 521.504 335.432 522.144C335.112 522.784 334.658 523.285 334.072 523.648C333.485 524.011 332.802 524.192 332.024 524.192ZM331.864 523.024C332.386 523.024 332.85 522.896 333.256 522.64C333.661 522.384 333.976 522.032 334.2 521.584C334.434 521.125 334.552 520.587 334.552 519.968C334.552 519.36 334.434 518.827 334.2 518.368C333.976 517.909 333.661 517.552 333.256 517.296C332.85 517.04 332.386 516.912 331.864 516.912C331.33 516.912 330.861 517.04 330.456 517.296C330.05 517.552 329.736 517.909 329.512 518.368C329.288 518.827 329.176 519.36 329.176 519.968C329.176 520.587 329.288 521.125 329.512 521.584C329.736 522.032 330.05 522.384 330.456 522.64C330.861 522.896 331.33 523.024 331.864 523.024ZM341.415 524.192C340.669 524.192 339.997 524.021 339.399 523.68C338.802 523.328 338.333 522.837 337.991 522.208C337.65 521.568 337.479 520.827 337.479 519.984C337.479 519.12 337.65 518.373 337.991 517.744C338.343 517.104 338.818 516.613 339.415 516.272C340.023 515.92 340.701 515.744 341.447 515.744C342.215 515.744 342.893 515.92 343.479 516.272C344.077 516.613 344.546 517.104 344.887 517.744C345.239 518.373 345.415 519.115 345.415 519.968C345.415 520.821 345.239 521.568 344.887 522.208C344.535 522.837 344.061 523.328 343.463 523.68C342.866 524.021 342.183 524.192 341.415 524.192ZM341.431 523.04C341.89 523.04 342.317 522.928 342.711 522.704C343.106 522.469 343.426 522.123 343.671 521.664C343.917 521.205 344.039 520.64 344.039 519.968C344.039 519.285 343.917 518.72 343.671 518.272C343.437 517.813 343.122 517.472 342.727 517.248C342.343 517.013 341.917 516.896 341.447 516.896C340.999 516.896 340.573 517.013 340.167 517.248C339.773 517.472 339.453 517.813 339.207 518.272C338.973 518.72 338.855 519.285 338.855 519.968C338.855 520.64 338.973 521.205 339.207 521.664C339.453 522.123 339.767 522.469 340.151 522.704C340.546 522.928 340.973 523.04 341.431 523.04ZM350.155 524C349.675 524 349.259 523.925 348.907 523.776C348.555 523.627 348.283 523.376 348.091 523.024C347.91 522.661 347.819 522.176 347.819 521.568V517.072H346.411V515.936H347.819L347.995 513.984H349.163V515.936H351.499V517.072H349.163V521.568C349.163 522.069 349.265 522.411 349.467 522.592C349.67 522.763 350.027 522.848 350.539 522.848H351.403V524H350.155ZM353.253 524V512.48H354.597V517.296C354.863 516.816 355.237 516.437 355.717 516.16C356.207 515.883 356.741 515.744 357.317 515.744C357.935 515.744 358.474 515.872 358.933 516.128C359.391 516.373 359.743 516.752 359.989 517.264C360.234 517.776 360.357 518.421 360.357 519.2V524H359.029V519.344C359.029 518.533 358.858 517.925 358.517 517.52C358.175 517.104 357.679 516.896 357.029 516.896C356.57 516.896 356.154 517.008 355.781 517.232C355.418 517.456 355.13 517.776 354.917 518.192C354.703 518.608 354.597 519.12 354.597 519.728V524H353.253ZM119.494 545.192C118.737 545.192 118.054 545.016 117.446 544.664C116.849 544.312 116.38 543.821 116.038 543.192C115.697 542.552 115.526 541.816 115.526 540.984C115.526 540.131 115.697 539.389 116.038 538.76C116.38 538.131 116.849 537.64 117.446 537.288C118.054 536.925 118.737 536.744 119.494 536.744C120.454 536.744 121.254 536.995 121.894 537.496C122.534 537.987 122.94 538.648 123.11 539.48H121.734C121.628 538.979 121.366 538.589 120.95 538.312C120.534 538.035 120.044 537.896 119.478 537.896C119.02 537.896 118.593 538.013 118.198 538.248C117.804 538.472 117.489 538.813 117.254 539.272C117.02 539.731 116.902 540.296 116.902 540.968C116.902 541.469 116.972 541.917 117.11 542.312C117.249 542.696 117.436 543.016 117.67 543.272C117.905 543.528 118.177 543.725 118.486 543.864C118.806 543.992 119.137 544.056 119.478 544.056C119.862 544.056 120.209 543.997 120.518 543.88C120.828 543.752 121.089 543.565 121.302 543.32C121.516 543.075 121.66 542.787 121.734 542.456H123.11C122.94 543.267 122.529 543.928 121.878 544.44C121.238 544.941 120.444 545.192 119.494 545.192ZM125.018 545V536.936H126.234L126.33 538.472C126.512 538.109 126.741 537.8 127.018 537.544C127.306 537.288 127.648 537.091 128.042 536.952C128.448 536.813 128.906 536.744 129.418 536.744V538.152H128.922C128.581 538.152 128.256 538.2 127.946 538.296C127.637 538.381 127.36 538.525 127.114 538.728C126.88 538.931 126.693 539.208 126.554 539.56C126.426 539.901 126.362 540.328 126.362 540.84V545H125.018ZM134.179 545.192C133.422 545.192 132.75 545.016 132.163 544.664C131.587 544.312 131.134 543.821 130.803 543.192C130.473 542.552 130.307 541.811 130.307 540.968C130.307 540.115 130.467 539.373 130.787 538.744C131.118 538.115 131.577 537.624 132.163 537.272C132.761 536.92 133.443 536.744 134.211 536.744C135.001 536.744 135.667 536.92 136.211 537.272C136.766 537.624 137.187 538.088 137.475 538.664C137.774 539.229 137.923 539.853 137.923 540.536C137.923 540.643 137.923 540.755 137.923 540.872C137.923 540.989 137.918 541.123 137.907 541.272H131.315V540.232H136.611C136.579 539.496 136.334 538.92 135.875 538.504C135.427 538.088 134.862 537.88 134.179 537.88C133.721 537.88 133.294 537.987 132.899 538.2C132.515 538.403 132.206 538.707 131.971 539.112C131.737 539.507 131.619 540.003 131.619 540.6V541.048C131.619 541.709 131.737 542.264 131.971 542.712C132.217 543.16 132.531 543.496 132.915 543.72C133.31 543.944 133.731 544.056 134.179 544.056C134.745 544.056 135.209 543.933 135.571 543.688C135.945 543.432 136.211 543.091 136.371 542.664H137.699C137.571 543.144 137.347 543.576 137.027 543.96C136.707 544.344 136.307 544.648 135.827 544.872C135.358 545.085 134.809 545.192 134.179 545.192ZM142.361 545.192C141.711 545.192 141.167 545.08 140.729 544.856C140.292 544.621 139.967 544.317 139.753 543.944C139.54 543.56 139.433 543.144 139.433 542.696C139.433 542.152 139.572 541.693 139.849 541.32C140.137 540.936 140.537 540.648 141.049 540.456C141.572 540.253 142.185 540.152 142.889 540.152H145.017C145.017 539.651 144.937 539.235 144.777 538.904C144.628 538.563 144.404 538.307 144.105 538.136C143.817 537.965 143.455 537.88 143.017 537.88C142.505 537.88 142.063 538.008 141.689 538.264C141.316 538.52 141.087 538.899 141.001 539.4H139.625C139.689 538.824 139.881 538.344 140.201 537.96C140.532 537.565 140.948 537.267 141.449 537.064C141.951 536.851 142.473 536.744 143.017 536.744C143.764 536.744 144.383 536.883 144.873 537.16C145.375 537.427 145.748 537.805 145.993 538.296C146.239 538.776 146.361 539.347 146.361 540.008V545H145.161L145.081 543.576C144.975 543.8 144.836 544.013 144.665 544.216C144.505 544.408 144.313 544.579 144.089 544.728C143.865 544.867 143.609 544.979 143.321 545.064C143.044 545.149 142.724 545.192 142.361 545.192ZM142.569 544.056C142.943 544.056 143.279 543.981 143.577 543.832C143.887 543.672 144.148 543.459 144.361 543.192C144.575 542.915 144.735 542.611 144.841 542.28C144.959 541.949 145.017 541.603 145.017 541.24V541.192H143.001C142.479 541.192 142.057 541.256 141.737 541.384C141.417 541.501 141.188 541.672 141.049 541.896C140.911 542.109 140.841 542.355 140.841 542.632C140.841 542.92 140.905 543.171 141.033 543.384C141.172 543.597 141.369 543.763 141.625 543.88C141.892 543.997 142.207 544.056 142.569 544.056ZM151.39 545C150.91 545 150.494 544.925 150.142 544.776C149.79 544.627 149.518 544.376 149.326 544.024C149.144 543.661 149.054 543.176 149.054 542.568V538.072H147.646V536.936H149.054L149.23 534.984H150.398V536.936H152.734V538.072H150.398V542.568C150.398 543.069 150.499 543.411 150.702 543.592C150.904 543.763 151.262 543.848 151.774 543.848H152.638V545H151.39ZM157.868 545.192C157.122 545.192 156.45 545.021 155.852 544.68C155.255 544.328 154.786 543.837 154.444 543.208C154.103 542.568 153.932 541.827 153.932 540.984C153.932 540.12 154.103 539.373 154.444 538.744C154.796 538.104 155.271 537.613 155.868 537.272C156.476 536.92 157.154 536.744 157.9 536.744C158.668 536.744 159.346 536.92 159.932 537.272C160.53 537.613 160.999 538.104 161.34 538.744C161.692 539.373 161.868 540.115 161.868 540.968C161.868 541.821 161.692 542.568 161.34 543.208C160.988 543.837 160.514 544.328 159.916 544.68C159.319 545.021 158.636 545.192 157.868 545.192ZM157.884 544.04C158.343 544.04 158.77 543.928 159.164 543.704C159.559 543.469 159.879 543.123 160.124 542.664C160.37 542.205 160.492 541.64 160.492 540.968C160.492 540.285 160.37 539.72 160.124 539.272C159.89 538.813 159.575 538.472 159.18 538.248C158.796 538.013 158.37 537.896 157.9 537.896C157.452 537.896 157.026 538.013 156.62 538.248C156.226 538.472 155.906 538.813 155.66 539.272C155.426 539.72 155.308 540.285 155.308 540.968C155.308 541.64 155.426 542.205 155.66 542.664C155.906 543.123 156.22 543.469 156.604 543.704C156.999 543.928 157.426 544.04 157.884 544.04ZM163.753 545V536.936H164.969L165.065 538.472C165.246 538.109 165.475 537.8 165.753 537.544C166.041 537.288 166.382 537.091 166.777 536.952C167.182 536.813 167.641 536.744 168.153 536.744V538.152H167.657C167.315 538.152 166.99 538.2 166.681 538.296C166.371 538.381 166.094 538.525 165.849 538.728C165.614 538.931 165.427 539.208 165.289 539.56C165.161 539.901 165.097 540.328 165.097 540.84V545H163.753ZM172.715 545.192C172.043 545.192 171.456 545.08 170.955 544.856C170.464 544.632 170.069 544.323 169.771 543.928C169.483 543.523 169.307 543.048 169.243 542.504H170.619C170.672 542.781 170.784 543.037 170.955 543.272C171.125 543.507 171.355 543.699 171.643 543.848C171.941 543.987 172.304 544.056 172.731 544.056C173.104 544.056 173.413 544.003 173.659 543.896C173.904 543.779 174.085 543.624 174.203 543.432C174.331 543.24 174.395 543.032 174.395 542.808C174.395 542.477 174.315 542.227 174.155 542.056C174.005 541.885 173.781 541.752 173.483 541.656C173.184 541.549 172.821 541.459 172.395 541.384C172.043 541.32 171.696 541.235 171.355 541.128C171.013 541.021 170.709 540.883 170.443 540.712C170.176 540.531 169.963 540.312 169.803 540.056C169.653 539.8 169.579 539.485 169.579 539.112C169.579 538.653 169.696 538.248 169.931 537.896C170.165 537.533 170.501 537.251 170.939 537.048C171.387 536.845 171.904 536.744 172.491 536.744C173.355 536.744 174.053 536.952 174.587 537.368C175.12 537.784 175.435 538.387 175.531 539.176H174.203C174.149 538.771 173.973 538.456 173.675 538.232C173.387 537.997 172.987 537.88 172.475 537.88C171.973 537.88 171.589 537.981 171.323 538.184C171.067 538.387 170.939 538.653 170.939 538.984C170.939 539.197 171.008 539.389 171.147 539.56C171.296 539.72 171.509 539.859 171.787 539.976C172.075 540.093 172.427 540.189 172.843 540.264C173.376 540.36 173.861 540.488 174.299 540.648C174.736 540.808 175.088 541.048 175.355 541.368C175.632 541.677 175.771 542.12 175.771 542.696C175.771 543.197 175.643 543.635 175.387 544.008C175.141 544.381 174.789 544.675 174.331 544.888C173.872 545.091 173.333 545.192 172.715 545.192ZM184.58 545.192C183.929 545.192 183.385 545.08 182.948 544.856C182.511 544.621 182.185 544.317 181.972 543.944C181.759 543.56 181.652 543.144 181.652 542.696C181.652 542.152 181.791 541.693 182.068 541.32C182.356 540.936 182.756 540.648 183.268 540.456C183.791 540.253 184.404 540.152 185.108 540.152H187.236C187.236 539.651 187.156 539.235 186.996 538.904C186.847 538.563 186.623 538.307 186.324 538.136C186.036 537.965 185.673 537.88 185.236 537.88C184.724 537.88 184.281 538.008 183.908 538.264C183.535 538.52 183.305 538.899 183.22 539.4H181.844C181.908 538.824 182.1 538.344 182.42 537.96C182.751 537.565 183.167 537.267 183.668 537.064C184.169 536.851 184.692 536.744 185.236 536.744C185.983 536.744 186.601 536.883 187.092 537.16C187.593 537.427 187.967 537.805 188.212 538.296C188.457 538.776 188.58 539.347 188.58 540.008V545H187.38L187.3 543.576C187.193 543.8 187.055 544.013 186.884 544.216C186.724 544.408 186.532 544.579 186.308 544.728C186.084 544.867 185.828 544.979 185.54 545.064C185.263 545.149 184.943 545.192 184.58 545.192ZM184.788 544.056C185.161 544.056 185.497 543.981 185.796 543.832C186.105 543.672 186.367 543.459 186.58 543.192C186.793 542.915 186.953 542.611 187.06 542.28C187.177 541.949 187.236 541.603 187.236 541.24V541.192H185.22C184.697 541.192 184.276 541.256 183.956 541.384C183.636 541.501 183.407 541.672 183.268 541.896C183.129 542.109 183.06 542.355 183.06 542.632C183.06 542.92 183.124 543.171 183.252 543.384C183.391 543.597 183.588 543.763 183.844 543.88C184.111 543.997 184.425 544.056 184.788 544.056ZM190.659 545V536.936H191.875L191.939 538.344C192.195 537.843 192.558 537.453 193.027 537.176C193.507 536.888 194.051 536.744 194.659 536.744C195.288 536.744 195.832 536.872 196.291 537.128C196.75 537.373 197.107 537.752 197.363 538.264C197.619 538.765 197.747 539.405 197.747 540.184V545H196.403V540.328C196.403 539.517 196.222 538.909 195.859 538.504C195.507 538.099 195.006 537.896 194.355 537.896C193.907 537.896 193.507 538.008 193.155 538.232C192.803 538.445 192.52 538.76 192.307 539.176C192.104 539.581 192.003 540.088 192.003 540.696V545H190.659ZM203.399 545.192C202.62 545.192 201.937 545.011 201.351 544.648C200.764 544.275 200.311 543.768 199.991 543.128C199.671 542.488 199.511 541.763 199.511 540.952C199.511 540.141 199.671 539.421 199.991 538.792C200.311 538.152 200.764 537.651 201.351 537.288C201.948 536.925 202.636 536.744 203.415 536.744C204.076 536.744 204.652 536.877 205.143 537.144C205.644 537.411 206.028 537.784 206.295 538.264V533.48H207.639V545H206.423L206.311 543.672C206.14 543.939 205.921 544.189 205.655 544.424C205.388 544.648 205.068 544.835 204.695 544.984C204.321 545.123 203.889 545.192 203.399 545.192ZM203.559 544.024C204.092 544.024 204.561 543.896 204.967 543.64C205.372 543.384 205.687 543.032 205.911 542.584C206.135 542.125 206.247 541.587 206.247 540.968C206.247 540.36 206.135 539.827 205.911 539.368C205.687 538.909 205.372 538.552 204.967 538.296C204.561 538.04 204.092 537.912 203.559 537.912C203.036 537.912 202.572 538.04 202.167 538.296C201.761 538.552 201.447 538.909 201.223 539.368C200.999 539.827 200.887 540.36 200.887 540.968C200.887 541.587 200.999 542.125 201.223 542.584C201.447 543.032 201.761 543.384 202.167 543.64C202.572 543.896 203.036 544.024 203.559 544.024ZM217.056 545.192C216.437 545.192 215.893 545.069 215.424 544.824C214.965 544.579 214.608 544.2 214.352 543.688C214.106 543.176 213.984 542.536 213.984 541.768V536.936H215.328V541.624C215.328 542.424 215.504 543.027 215.856 543.432C216.208 543.837 216.704 544.04 217.344 544.04C217.792 544.04 218.197 543.933 218.56 543.72C218.922 543.496 219.205 543.181 219.408 542.776C219.621 542.36 219.728 541.853 219.728 541.256V536.936H221.072V545H219.856L219.776 543.592C219.53 544.093 219.168 544.488 218.688 544.776C218.208 545.053 217.664 545.192 217.056 545.192ZM226.34 545.192C225.668 545.192 225.081 545.08 224.58 544.856C224.089 544.632 223.694 544.323 223.396 543.928C223.108 543.523 222.932 543.048 222.868 542.504H224.244C224.297 542.781 224.409 543.037 224.58 543.272C224.75 543.507 224.98 543.699 225.268 543.848C225.566 543.987 225.929 544.056 226.356 544.056C226.729 544.056 227.038 544.003 227.284 543.896C227.529 543.779 227.71 543.624 227.828 543.432C227.956 543.24 228.02 543.032 228.02 542.808C228.02 542.477 227.94 542.227 227.78 542.056C227.63 541.885 227.406 541.752 227.108 541.656C226.809 541.549 226.446 541.459 226.02 541.384C225.668 541.32 225.321 541.235 224.98 541.128C224.638 541.021 224.334 540.883 224.068 540.712C223.801 540.531 223.588 540.312 223.428 540.056C223.278 539.8 223.204 539.485 223.204 539.112C223.204 538.653 223.321 538.248 223.556 537.896C223.79 537.533 224.126 537.251 224.564 537.048C225.012 536.845 225.529 536.744 226.116 536.744C226.98 536.744 227.678 536.952 228.212 537.368C228.745 537.784 229.06 538.387 229.156 539.176H227.828C227.774 538.771 227.598 538.456 227.3 538.232C227.012 537.997 226.612 537.88 226.1 537.88C225.598 537.88 225.214 537.981 224.948 538.184C224.692 538.387 224.564 538.653 224.564 538.984C224.564 539.197 224.633 539.389 224.772 539.56C224.921 539.72 225.134 539.859 225.412 539.976C225.7 540.093 226.052 540.189 226.468 540.264C227.001 540.36 227.486 540.488 227.924 540.648C228.361 540.808 228.713 541.048 228.98 541.368C229.257 541.677 229.396 542.12 229.396 542.696C229.396 543.197 229.268 543.635 229.012 544.008C228.766 544.381 228.414 544.675 227.956 544.888C227.497 545.091 226.958 545.192 226.34 545.192ZM234.867 545.192C234.11 545.192 233.438 545.016 232.851 544.664C232.275 544.312 231.822 543.821 231.491 543.192C231.16 542.552 230.995 541.811 230.995 540.968C230.995 540.115 231.155 539.373 231.475 538.744C231.806 538.115 232.264 537.624 232.851 537.272C233.448 536.92 234.131 536.744 234.899 536.744C235.688 536.744 236.355 536.92 236.899 537.272C237.454 537.624 237.875 538.088 238.163 538.664C238.462 539.229 238.611 539.853 238.611 540.536C238.611 540.643 238.611 540.755 238.611 540.872C238.611 540.989 238.606 541.123 238.595 541.272H232.003V540.232H237.299C237.267 539.496 237.022 538.92 236.563 538.504C236.115 538.088 235.55 537.88 234.867 537.88C234.408 537.88 233.982 537.987 233.587 538.2C233.203 538.403 232.894 538.707 232.659 539.112C232.424 539.507 232.307 540.003 232.307 540.6V541.048C232.307 541.709 232.424 542.264 232.659 542.712C232.904 543.16 233.219 543.496 233.603 543.72C233.998 543.944 234.419 544.056 234.867 544.056C235.432 544.056 235.896 543.933 236.259 543.688C236.632 543.432 236.899 543.091 237.059 542.664H238.387C238.259 543.144 238.035 543.576 237.715 543.96C237.395 544.344 236.995 544.648 236.515 544.872C236.046 545.085 235.496 545.192 234.867 545.192ZM240.425 545V536.936H241.641L241.737 538.472C241.918 538.109 242.147 537.8 242.425 537.544C242.713 537.288 243.054 537.091 243.449 536.952C243.854 536.813 244.313 536.744 244.825 536.744V538.152H244.329C243.987 538.152 243.662 538.2 243.353 538.296C243.043 538.381 242.766 538.525 242.521 538.728C242.286 538.931 242.099 539.208 241.961 539.56C241.833 539.901 241.769 540.328 241.769 540.84V545H240.425ZM249.387 545.192C248.715 545.192 248.128 545.08 247.627 544.856C247.136 544.632 246.741 544.323 246.443 543.928C246.155 543.523 245.979 543.048 245.915 542.504H247.291C247.344 542.781 247.456 543.037 247.627 543.272C247.797 543.507 248.027 543.699 248.315 543.848C248.613 543.987 248.976 544.056 249.403 544.056C249.776 544.056 250.085 544.003 250.331 543.896C250.576 543.779 250.757 543.624 250.875 543.432C251.003 543.24 251.067 543.032 251.067 542.808C251.067 542.477 250.987 542.227 250.827 542.056C250.677 541.885 250.453 541.752 250.155 541.656C249.856 541.549 249.493 541.459 249.067 541.384C248.715 541.32 248.368 541.235 248.027 541.128C247.685 541.021 247.381 540.883 247.115 540.712C246.848 540.531 246.635 540.312 246.475 540.056C246.325 539.8 246.251 539.485 246.251 539.112C246.251 538.653 246.368 538.248 246.603 537.896C246.837 537.533 247.173 537.251 247.611 537.048C248.059 536.845 248.576 536.744 249.163 536.744C250.027 536.744 250.725 536.952 251.259 537.368C251.792 537.784 252.107 538.387 252.203 539.176H250.875C250.821 538.771 250.645 538.456 250.347 538.232C250.059 537.997 249.659 537.88 249.147 537.88C248.645 537.88 248.261 537.981 247.995 538.184C247.739 538.387 247.611 538.653 247.611 538.984C247.611 539.197 247.68 539.389 247.819 539.56C247.968 539.72 248.181 539.859 248.459 539.976C248.747 540.093 249.099 540.189 249.515 540.264C250.048 540.36 250.533 540.488 250.971 540.648C251.408 540.808 251.76 541.048 252.027 541.368C252.304 541.677 252.443 542.12 252.443 542.696C252.443 543.197 252.315 543.635 252.059 544.008C251.813 544.381 251.461 544.675 251.003 544.888C250.544 545.091 250.005 545.192 249.387 545.192Z" fill="white"/>
<path d="M9.192 485.288C7.512 485.288 6.064 484.928 4.848 484.208C3.648 483.472 2.72 482.456 2.064 481.16C1.424 479.848 1.104 478.336 1.104 476.624C1.104 474.912 1.424 473.4 2.064 472.088C2.72 470.776 3.648 469.752 4.848 469.016C6.064 468.28 7.512 467.912 9.192 467.912C11.224 467.912 12.888 468.416 14.184 469.424C15.48 470.432 16.288 471.856 16.608 473.696H13.08C12.872 472.8 12.432 472.104 11.76 471.608C11.104 471.096 10.24 470.84 9.168 470.84C8.176 470.84 7.32 471.08 6.6 471.56C5.896 472.024 5.352 472.688 4.968 473.552C4.584 474.4 4.392 475.424 4.392 476.624C4.392 477.808 4.584 478.832 4.968 479.696C5.352 480.56 5.896 481.224 6.6 481.688C7.32 482.152 8.176 482.384 9.168 482.384C10.24 482.384 11.104 482.152 11.76 481.688C12.416 481.208 12.848 480.544 13.056 479.696H16.608C16.288 481.44 15.48 482.808 14.184 483.8C12.888 484.792 11.224 485.288 9.192 485.288ZM22.0147 485V468.2H28.2787C29.6387 468.2 30.7587 468.432 31.6388 468.896C32.5188 469.36 33.1748 469.984 33.6068 470.768C34.0388 471.536 34.2548 472.392 34.2548 473.336C34.2548 474.232 34.0468 475.072 33.6308 475.856C33.2147 476.624 32.5587 477.248 31.6627 477.728C30.7827 478.192 29.6467 478.424 28.2548 478.424H25.2547V485H22.0147ZM30.7267 485L27.2707 477.608H30.7747L34.4227 485H30.7267ZM25.2547 476.072H28.0868C29.0627 476.072 29.7827 475.832 30.2468 475.352C30.7107 474.872 30.9427 474.24 30.9427 473.456C30.9427 472.672 30.7107 472.056 30.2468 471.608C29.7987 471.144 29.0787 470.912 28.0868 470.912H25.2547V476.072ZM39.7954 485V468.2H50.8354V470.816H43.0354V475.208H50.1154V477.728H43.0354V482.384H50.8354V485H39.7954ZM55.2996 485L61.4436 468.2H65.1156L71.2356 485H67.8036L63.2676 471.896L58.7076 485H55.2996ZM58.0116 481.184L58.8756 478.664H67.4196L68.2596 481.184H58.0116ZM78.2139 485V470.816H73.2939V468.2H86.3259V470.816H81.4299V485H78.2139ZM98.4517 485.288C96.8197 485.288 95.3797 484.92 94.1317 484.184C92.8837 483.448 91.9077 482.432 91.2037 481.136C90.4997 479.824 90.1477 478.312 90.1477 476.6C90.1477 474.888 90.4997 473.384 91.2037 472.088C91.9077 470.776 92.8837 469.752 94.1317 469.016C95.3797 468.28 96.8197 467.912 98.4517 467.912C100.1 467.912 101.548 468.28 102.796 469.016C104.044 469.752 105.012 470.776 105.7 472.088C106.404 473.384 106.756 474.888 106.756 476.6C106.756 478.312 106.404 479.824 105.7 481.136C105.012 482.432 104.044 483.448 102.796 484.184C101.548 484.92 100.1 485.288 98.4517 485.288ZM98.4517 482.384C99.4757 482.384 100.356 482.152 101.092 481.688C101.844 481.208 102.428 480.536 102.844 479.672C103.26 478.808 103.468 477.784 103.468 476.6C103.468 475.4 103.26 474.376 102.844 473.528C102.428 472.664 101.844 472 101.092 471.536C100.356 471.072 99.4757 470.84 98.4517 470.84C97.4437 470.84 96.5637 471.072 95.8117 471.536C95.0597 472 94.4757 472.664 94.0597 473.528C93.6437 474.376 93.4357 475.4 93.4357 476.6C93.4357 477.784 93.6437 478.808 94.0597 479.672C94.4757 480.536 95.0597 481.208 95.8117 481.688C96.5637 482.152 97.4437 482.384 98.4517 482.384ZM112.16 485V468.2H118.424C119.784 468.2 120.904 468.432 121.784 468.896C122.664 469.36 123.32 469.984 123.752 470.768C124.184 471.536 124.4 472.392 124.4 473.336C124.4 474.232 124.192 475.072 123.776 475.856C123.36 476.624 122.704 477.248 121.808 477.728C120.928 478.192 119.792 478.424 118.4 478.424H115.4V485H112.16ZM120.872 485L117.416 477.608H120.92L124.568 485H120.872ZM115.4 476.072H118.232C119.208 476.072 119.928 475.832 120.392 475.352C120.856 474.872 121.088 474.24 121.088 473.456C121.088 472.672 120.856 472.056 120.392 471.608C119.944 471.144 119.224 470.912 118.232 470.912H115.4V476.072ZM135.725 485.288C134.509 485.288 133.421 485.08 132.461 484.664C131.517 484.248 130.765 483.64 130.205 482.84C129.661 482.04 129.381 481.072 129.365 479.936H132.797C132.813 480.432 132.941 480.88 133.181 481.28C133.421 481.68 133.749 482 134.165 482.24C134.597 482.464 135.109 482.576 135.701 482.576C136.213 482.576 136.653 482.496 137.021 482.336C137.405 482.16 137.701 481.92 137.909 481.616C138.117 481.312 138.221 480.952 138.221 480.536C138.221 480.056 138.101 479.656 137.861 479.336C137.637 479.016 137.317 478.744 136.901 478.52C136.501 478.296 136.029 478.096 135.485 477.92C134.957 477.728 134.397 477.528 133.805 477.32C132.477 476.888 131.461 476.312 130.757 475.592C130.069 474.872 129.725 473.92 129.725 472.736C129.725 471.728 129.965 470.864 130.445 470.144C130.941 469.424 131.621 468.872 132.485 468.488C133.349 468.104 134.333 467.912 135.437 467.912C136.573 467.912 137.565 468.112 138.413 468.512C139.277 468.896 139.957 469.456 140.453 470.192C140.965 470.928 141.229 471.792 141.245 472.784H137.789C137.773 472.416 137.661 472.072 137.453 471.752C137.261 471.416 136.989 471.152 136.637 470.96C136.285 470.752 135.869 470.648 135.389 470.648C134.973 470.632 134.589 470.696 134.237 470.84C133.901 470.984 133.629 471.2 133.421 471.488C133.229 471.76 133.133 472.104 133.133 472.52C133.133 472.92 133.229 473.256 133.421 473.528C133.629 473.8 133.909 474.04 134.261 474.248C134.613 474.44 135.029 474.624 135.509 474.8C135.989 474.96 136.509 475.128 137.069 475.304C137.901 475.592 138.669 475.936 139.373 476.336C140.077 476.72 140.637 477.224 141.053 477.848C141.469 478.472 141.677 479.296 141.677 480.32C141.677 481.2 141.445 482.016 140.981 482.768C140.517 483.52 139.845 484.128 138.965 484.592C138.101 485.056 137.021 485.288 135.725 485.288ZM168.001 485L158.881 475.928C158.145 475.192 157.625 474.528 157.321 473.936C157.017 473.328 156.865 472.688 156.865 472.016C156.865 471.248 157.057 470.552 157.441 469.928C157.825 469.304 158.385 468.816 159.121 468.464C159.873 468.096 160.769 467.912 161.809 467.912C162.849 467.912 163.721 468.104 164.425 468.488C165.145 468.872 165.689 469.376 166.057 470C166.441 470.624 166.625 471.328 166.609 472.112H163.513C163.513 471.536 163.345 471.104 163.009 470.816C162.673 470.528 162.257 470.384 161.761 470.384C161.217 470.384 160.777 470.536 160.441 470.84C160.121 471.128 159.961 471.512 159.961 471.992C159.961 472.376 160.081 472.776 160.321 473.192C160.561 473.608 160.929 474.072 161.425 474.584L171.865 485H168.001ZM160.705 485.264C159.473 485.264 158.401 485.056 157.489 484.64C156.593 484.208 155.897 483.608 155.401 482.84C154.905 482.072 154.657 481.168 154.657 480.128C154.657 479.328 154.825 478.584 155.161 477.896C155.497 477.192 156.001 476.576 156.673 476.048C157.345 475.504 158.177 475.072 159.169 474.752L160.393 474.368L161.809 476.384L160.705 476.744C159.729 477.064 159.001 477.496 158.521 478.04C158.057 478.584 157.825 479.216 157.825 479.936C157.825 480.432 157.945 480.888 158.185 481.304C158.425 481.704 158.777 482.024 159.241 482.264C159.705 482.504 160.249 482.624 160.873 482.624C161.737 482.624 162.513 482.432 163.201 482.048C163.889 481.664 164.553 481.048 165.193 480.2C165.481 479.816 165.769 479.384 166.057 478.904C166.345 478.424 166.633 477.888 166.921 477.296L167.425 476.264H170.713L169.897 477.92C169.497 478.752 169.089 479.512 168.673 480.2C168.257 480.888 167.825 481.496 167.377 482.024C166.465 483.16 165.465 483.984 164.377 484.496C163.305 485.008 162.081 485.264 160.705 485.264ZM191.536 485.288C190.304 485.288 189.184 485.04 188.176 484.544C187.168 484.048 186.368 483.304 185.776 482.312C185.184 481.32 184.888 480.056 184.888 478.52V468.2H188.128V478.544C188.128 479.376 188.264 480.08 188.536 480.656C188.808 481.216 189.2 481.632 189.712 481.904C190.24 482.176 190.864 482.312 191.584 482.312C192.32 482.312 192.944 482.176 193.456 481.904C193.984 481.632 194.384 481.216 194.656 480.656C194.928 480.08 195.064 479.376 195.064 478.544V468.2H198.304V478.52C198.304 480.056 198 481.32 197.392 482.312C196.784 483.304 195.96 484.048 194.92 484.544C193.896 485.04 192.768 485.288 191.536 485.288ZM209.886 485.288C208.67 485.288 207.582 485.08 206.622 484.664C205.678 484.248 204.926 483.64 204.366 482.84C203.822 482.04 203.542 481.072 203.526 479.936H206.958C206.974 480.432 207.102 480.88 207.342 481.28C207.582 481.68 207.91 482 208.326 482.24C208.758 482.464 209.27 482.576 209.862 482.576C210.374 482.576 210.814 482.496 211.182 482.336C211.566 482.16 211.862 481.92 212.07 481.616C212.278 481.312 212.382 480.952 212.382 480.536C212.382 480.056 212.262 479.656 212.022 479.336C211.798 479.016 211.478 478.744 211.062 478.52C210.662 478.296 210.19 478.096 209.646 477.92C209.118 477.728 208.558 477.528 207.966 477.32C206.638 476.888 205.622 476.312 204.918 475.592C204.23 474.872 203.886 473.92 203.886 472.736C203.886 471.728 204.126 470.864 204.606 470.144C205.102 469.424 205.782 468.872 206.646 468.488C207.51 468.104 208.494 467.912 209.598 467.912C210.734 467.912 211.726 468.112 212.574 468.512C213.438 468.896 214.118 469.456 214.614 470.192C215.126 470.928 215.39 471.792 215.406 472.784H211.95C211.934 472.416 211.822 472.072 211.614 471.752C211.422 471.416 211.15 471.152 210.798 470.96C210.446 470.752 210.03 470.648 209.55 470.648C209.134 470.632 208.75 470.696 208.398 470.84C208.062 470.984 207.79 471.2 207.582 471.488C207.39 471.76 207.294 472.104 207.294 472.52C207.294 472.92 207.39 473.256 207.582 473.528C207.79 473.8 208.07 474.04 208.422 474.248C208.774 474.44 209.19 474.624 209.67 474.8C210.15 474.96 210.67 475.128 211.23 475.304C212.062 475.592 212.83 475.936 213.534 476.336C214.238 476.72 214.798 477.224 215.214 477.848C215.63 478.472 215.838 479.296 215.838 480.32C215.838 481.2 215.606 482.016 215.142 482.768C214.678 483.52 214.006 484.128 213.126 484.592C212.262 485.056 211.182 485.288 209.886 485.288ZM221.226 485V468.2H232.266V470.816H224.466V475.208H231.546V477.728H224.466V482.384H232.266V485H221.226ZM237.858 485V468.2H244.122C245.482 468.2 246.602 468.432 247.482 468.896C248.362 469.36 249.018 469.984 249.45 470.768C249.882 471.536 250.098 472.392 250.098 473.336C250.098 474.232 249.89 475.072 249.474 475.856C249.058 476.624 248.402 477.248 247.506 477.728C246.626 478.192 245.49 478.424 244.098 478.424H241.098V485H237.858ZM246.57 485L243.114 477.608H246.618L250.266 485H246.57ZM241.098 476.072H243.93C244.906 476.072 245.626 475.832 246.09 475.352C246.554 474.872 246.786 474.24 246.786 473.456C246.786 472.672 246.554 472.056 246.09 471.608C245.642 471.144 244.922 470.912 243.93 470.912H241.098V476.072ZM261.423 485.288C260.207 485.288 259.119 485.08 258.159 484.664C257.215 484.248 256.463 483.64 255.903 482.84C255.359 482.04 255.079 481.072 255.063 479.936H258.495C258.511 480.432 258.639 480.88 258.879 481.28C259.119 481.68 259.447 482 259.863 482.24C260.295 482.464 260.807 482.576 261.399 482.576C261.911 482.576 262.351 482.496 262.719 482.336C263.103 482.16 263.399 481.92 263.607 481.616C263.815 481.312 263.919 480.952 263.919 480.536C263.919 480.056 263.799 479.656 263.559 479.336C263.335 479.016 263.015 478.744 262.599 478.52C262.199 478.296 261.727 478.096 261.183 477.92C260.655 477.728 260.095 477.528 259.503 477.32C258.175 476.888 257.159 476.312 256.455 475.592C255.767 474.872 255.423 473.92 255.423 472.736C255.423 471.728 255.663 470.864 256.143 470.144C256.639 469.424 257.319 468.872 258.183 468.488C259.047 468.104 260.031 467.912 261.135 467.912C262.271 467.912 263.263 468.112 264.111 468.512C264.975 468.896 265.655 469.456 266.151 470.192C266.663 470.928 266.927 471.792 266.943 472.784H263.487C263.471 472.416 263.359 472.072 263.151 471.752C262.959 471.416 262.687 471.152 262.335 470.96C261.983 470.752 261.567 470.648 261.087 470.648C260.671 470.632 260.287 470.696 259.935 470.84C259.599 470.984 259.327 471.2 259.119 471.488C258.927 471.76 258.831 472.104 258.831 472.52C258.831 472.92 258.927 473.256 259.119 473.528C259.327 473.8 259.607 474.04 259.959 474.248C260.311 474.44 260.727 474.624 261.207 474.8C261.687 474.96 262.207 475.128 262.767 475.304C263.599 475.592 264.367 475.936 265.071 476.336C265.775 476.72 266.335 477.224 266.751 477.848C267.167 478.472 267.375 479.296 267.375 480.32C267.375 481.2 267.143 482.016 266.679 482.768C266.215 483.52 265.543 484.128 264.663 484.592C263.799 485.056 262.719 485.288 261.423 485.288ZM281.052 485V468.2H291.996V470.816H284.292V475.304H290.46V477.848H284.292V485H281.052ZM297.028 485V468.2H300.268V485H297.028ZM306.207 485V468.2H312.471C313.831 468.2 314.951 468.432 315.831 468.896C316.711 469.36 317.367 469.984 317.799 470.768C318.231 471.536 318.447 472.392 318.447 473.336C318.447 474.232 318.239 475.072 317.823 475.856C317.407 476.624 316.751 477.248 315.855 477.728C314.975 478.192 313.839 478.424 312.447 478.424H309.447V485H306.207ZM314.919 485L311.463 477.608H314.967L318.615 485H314.919ZM309.447 476.072H312.279C313.255 476.072 313.975 475.832 314.439 475.352C314.903 474.872 315.135 474.24 315.135 473.456C315.135 472.672 314.903 472.056 314.439 471.608C313.991 471.144 313.271 470.912 312.279 470.912H309.447V476.072ZM329.771 485.288C328.555 485.288 327.467 485.08 326.507 484.664C325.563 484.248 324.811 483.64 324.251 482.84C323.707 482.04 323.427 481.072 323.411 479.936H326.843C326.859 480.432 326.987 480.88 327.227 481.28C327.467 481.68 327.795 482 328.211 482.24C328.643 482.464 329.155 482.576 329.747 482.576C330.259 482.576 330.699 482.496 331.067 482.336C331.451 482.16 331.747 481.92 331.955 481.616C332.163 481.312 332.267 480.952 332.267 480.536C332.267 480.056 332.147 479.656 331.907 479.336C331.683 479.016 331.363 478.744 330.947 478.52C330.547 478.296 330.075 478.096 329.531 477.92C329.003 477.728 328.443 477.528 327.851 477.32C326.523 476.888 325.507 476.312 324.803 475.592C324.115 474.872 323.771 473.92 323.771 472.736C323.771 471.728 324.011 470.864 324.491 470.144C324.987 469.424 325.667 468.872 326.531 468.488C327.395 468.104 328.379 467.912 329.483 467.912C330.619 467.912 331.611 468.112 332.459 468.512C333.323 468.896 334.003 469.456 334.499 470.192C335.011 470.928 335.275 471.792 335.291 472.784H331.835C331.819 472.416 331.707 472.072 331.499 471.752C331.307 471.416 331.035 471.152 330.683 470.96C330.331 470.752 329.915 470.648 329.435 470.648C329.019 470.632 328.635 470.696 328.283 470.84C327.947 470.984 327.675 471.2 327.467 471.488C327.275 471.76 327.179 472.104 327.179 472.52C327.179 472.92 327.275 473.256 327.467 473.528C327.675 473.8 327.955 474.04 328.307 474.248C328.659 474.44 329.075 474.624 329.555 474.8C330.035 474.96 330.555 475.128 331.115 475.304C331.947 475.592 332.715 475.936 333.419 476.336C334.123 476.72 334.683 477.224 335.099 477.848C335.515 478.472 335.723 479.296 335.723 480.32C335.723 481.2 335.491 482.016 335.027 482.768C334.563 483.52 333.891 484.128 333.011 484.592C332.147 485.056 331.067 485.288 329.771 485.288ZM344.86 485V470.816H339.94V468.2H352.972V470.816H348.076V485H344.86ZM359.3 485.12C358.692 485.12 358.204 484.944 357.836 484.592C357.468 484.224 357.284 483.776 357.284 483.248C357.284 482.72 357.468 482.28 357.836 481.928C358.204 481.56 358.692 481.376 359.3 481.376C359.876 481.376 360.348 481.56 360.716 481.928C361.084 482.28 361.268 482.72 361.268 483.248C361.268 483.776 361.084 484.224 360.716 484.592C360.348 484.944 359.876 485.12 359.3 485.12ZM359.3 476.336C358.692 476.336 358.204 476.16 357.836 475.808C357.468 475.44 357.284 474.992 357.284 474.464C357.284 473.936 357.468 473.496 357.836 473.144C358.204 472.776 358.692 472.592 359.3 472.592C359.876 472.592 360.348 472.776 360.716 473.144C361.084 473.496 361.268 473.936 361.268 474.464C361.268 474.992 361.084 475.44 360.716 475.808C360.348 476.16 359.876 476.336 359.3 476.336Z" fill="white"/>
</svg>
