<svg width="369" height="600" viewBox="0 0 369 600" fill="none" xmlns="http://www.w3.org/2000/svg">
<mask id="path-1-outside-1_777_1096" maskUnits="userSpaceOnUse" x="77" y="93" width="226" height="342" fill="black">
<rect fill="white" x="77" y="93" width="226" height="342"/>
<path d="M300.047 235.35V292.423C300.047 315.583 297.49 335.961 292.377 353.557C287.414 371.002 280.12 385.59 270.495 397.32C260.87 409.051 249.29 417.849 235.755 423.714C222.22 429.579 206.955 432.512 189.961 432.512C173.568 432.512 158.604 429.579 145.069 423.714C131.534 417.849 119.879 409.051 110.104 397.32C100.328 385.59 92.7334 371.002 87.3193 353.557C82.0557 335.961 79.4238 315.583 79.4238 292.423V235.35C79.4238 212.189 82.0557 191.887 87.3193 174.441C92.583 156.846 100.103 142.183 109.878 130.452C119.653 118.722 131.309 109.924 144.844 104.059C158.379 98.043 173.343 95.0352 189.735 95.0352C206.729 95.0352 221.994 98.043 235.529 104.059C249.215 109.924 260.795 118.722 270.27 130.452C279.895 142.183 287.264 156.846 292.377 174.441C297.49 191.887 300.047 212.189 300.047 235.35ZM258.99 292.423V234.898C258.99 216.852 257.486 201.361 254.479 188.428C251.471 175.344 247.034 164.666 241.169 156.395C235.304 148.123 228.085 142.032 219.513 138.122C210.94 134.062 201.015 132.031 189.735 132.031C179.058 132.031 169.433 134.062 160.86 138.122C152.438 142.032 145.22 148.123 139.204 156.395C133.188 164.666 128.526 175.344 125.218 188.428C122.06 201.361 120.48 216.852 120.48 234.898V292.423C120.48 310.62 122.06 326.261 125.218 339.345C128.526 352.278 133.188 362.956 139.204 371.378C145.37 379.649 152.739 385.815 161.312 389.876C169.884 393.786 179.434 395.741 189.961 395.741C201.24 395.741 211.166 393.786 219.738 389.876C228.461 385.815 235.68 379.649 241.395 371.378C247.26 362.956 251.621 352.278 254.479 339.345C257.486 326.261 258.99 310.62 258.99 292.423Z"/>
</mask>
<path d="M292.377 353.557L290.456 352.999L290.453 353.009L292.377 353.557ZM87.3193 353.557L85.4032 354.13L85.4062 354.14L85.4092 354.149L87.3193 353.557ZM87.3193 174.441L89.2341 175.019L89.2354 175.015L87.3193 174.441ZM144.844 104.059L145.639 105.894L145.648 105.89L145.656 105.886L144.844 104.059ZM235.529 104.059L234.717 105.886L234.729 105.892L234.741 105.897L235.529 104.059ZM270.27 130.452L268.714 131.709L268.718 131.715L268.723 131.721L270.27 130.452ZM292.377 174.441L290.456 175L290.458 175.004L292.377 174.441ZM254.479 188.428L252.529 188.876L252.531 188.881L254.479 188.428ZM219.513 138.122L218.657 139.93L218.67 139.936L218.683 139.942L219.513 138.122ZM160.86 138.122L161.703 139.936L161.71 139.933L161.717 139.93L160.86 138.122ZM125.218 188.428L123.279 187.937L123.277 187.945L123.275 187.953L125.218 188.428ZM125.218 339.345L123.274 339.814L123.277 339.827L123.28 339.84L125.218 339.345ZM139.204 371.378L137.577 372.54L137.588 372.557L137.601 372.573L139.204 371.378ZM161.312 389.876L160.455 391.683L160.468 391.69L160.482 391.696L161.312 389.876ZM219.738 389.876L220.568 391.696L220.575 391.692L220.582 391.689L219.738 389.876ZM241.395 371.378L239.753 370.235L239.749 370.241L241.395 371.378ZM254.479 339.345L252.529 338.897L252.527 338.905L252.526 338.913L254.479 339.345ZM298.047 235.35V292.423H302.047V235.35H298.047ZM298.047 292.423C298.047 315.441 295.505 335.625 290.456 352.999L294.298 354.115C299.475 336.297 302.047 315.725 302.047 292.423H298.047ZM290.453 353.009C285.551 370.242 278.369 384.57 268.949 396.052L272.041 398.589C281.871 386.609 289.277 371.762 294.301 354.104L290.453 353.009ZM268.949 396.052C259.52 407.544 248.195 416.144 234.96 421.879L236.55 425.549C250.386 419.554 262.221 410.558 272.041 398.589L268.949 396.052ZM234.96 421.879C221.711 427.62 206.723 430.512 189.961 430.512V434.512C207.187 434.512 222.729 431.538 236.55 425.549L234.96 421.879ZM189.961 430.512C173.811 430.512 159.122 427.624 145.865 421.879L144.274 425.549C158.087 431.535 173.325 434.512 189.961 434.512V430.512ZM145.865 421.879C132.627 416.142 121.222 407.539 111.64 396.04L108.567 398.601C118.535 410.563 130.442 419.555 144.274 425.549L145.865 421.879ZM111.64 396.04C102.063 384.547 94.5805 370.206 89.2295 352.964L85.4092 354.149C90.8863 371.798 98.5934 386.632 108.567 398.601L111.64 396.04ZM89.2354 352.983C84.0397 335.615 81.4238 315.437 81.4238 292.423H77.4238C77.4238 315.729 80.0716 336.307 85.4032 354.13L89.2354 352.983ZM81.4238 292.423V235.35H77.4238V292.423H81.4238ZM81.4238 235.35C81.4238 212.335 84.0398 192.234 89.2341 175.019L85.4046 173.864C80.0715 191.539 77.4238 212.044 77.4238 235.35H81.4238ZM89.2354 175.015C94.437 157.626 101.843 143.218 111.414 131.733L108.341 129.172C98.3617 141.148 90.729 156.065 85.4032 173.868L89.2354 175.015ZM111.414 131.733C120.997 120.234 132.401 111.63 145.639 105.894L144.049 102.223C130.216 108.218 118.31 117.21 108.341 129.172L111.414 131.733ZM145.656 105.886C158.909 99.9958 173.593 97.0352 189.735 97.0352V93.0352C173.093 93.0352 157.848 96.0901 144.031 102.231L145.656 105.886ZM189.735 97.0352C206.491 97.0352 221.473 99.9998 234.717 105.886L236.342 102.231C222.516 96.0861 206.968 93.0352 189.735 93.0352V97.0352ZM234.741 105.897C248.123 111.632 259.441 120.229 268.714 131.709L271.825 129.195C262.149 117.215 250.306 108.216 236.317 102.22L234.741 105.897ZM268.723 131.721C278.145 143.204 285.403 157.611 290.456 175L294.298 173.883C289.124 156.081 281.644 141.162 271.816 129.184L268.723 131.721ZM290.458 175.004C295.505 192.225 298.047 212.33 298.047 235.35H302.047C302.047 212.048 299.475 191.549 294.296 173.879L290.458 175.004ZM260.99 292.423V234.898H256.99V292.423H260.99ZM260.99 234.898C260.99 216.75 259.479 201.099 256.427 187.975L252.531 188.881C255.494 201.624 256.99 216.954 256.99 234.898H260.99ZM256.428 187.98C253.379 174.719 248.857 163.779 242.8 155.238L239.537 157.551C245.211 165.553 249.562 175.968 252.529 188.876L256.428 187.98ZM242.8 155.238C236.747 146.701 229.26 140.37 220.343 136.302L218.683 139.942C226.91 143.694 233.86 149.545 239.537 157.551L242.8 155.238ZM220.369 136.315C211.483 132.106 201.255 130.031 189.735 130.031V134.031C200.774 134.031 210.398 136.018 218.657 139.93L220.369 136.315ZM189.735 130.031C178.799 130.031 168.876 132.112 160.004 136.315L161.717 139.93C169.989 136.011 179.316 134.031 189.735 134.031V130.031ZM160.018 136.308C151.257 140.376 143.781 146.7 137.587 155.218L140.822 157.571C146.658 149.546 153.62 143.689 161.703 139.936L160.018 136.308ZM137.587 155.218C131.382 163.75 126.631 174.681 123.279 187.937L127.157 188.918C130.422 176.006 134.995 165.582 140.822 157.571L137.587 155.218ZM123.275 187.953C120.068 201.086 118.48 216.744 118.48 234.898H122.48C122.48 216.959 124.051 201.637 127.161 188.902L123.275 187.953ZM118.48 234.898V292.423H122.48V234.898H118.48ZM118.48 292.423C118.48 310.727 120.068 326.533 123.274 339.814L127.162 338.875C124.051 325.988 122.48 310.513 122.48 292.423H118.48ZM123.28 339.84C126.633 352.947 131.382 363.868 137.577 372.54L140.832 370.215C134.995 362.044 130.42 351.609 127.155 338.849L123.28 339.84ZM137.601 372.573C143.944 381.083 151.562 387.471 160.455 391.683L162.168 388.069C153.916 384.16 146.796 378.216 140.808 370.183L137.601 372.573ZM160.482 391.696C169.343 395.738 179.181 397.741 189.961 397.741V393.741C179.686 393.741 170.424 391.834 162.142 388.056L160.482 391.696ZM189.961 397.741C201.471 397.741 211.689 395.746 220.568 391.696L218.908 388.056C210.643 391.827 201.009 393.741 189.961 393.741V397.741ZM220.582 391.689C229.642 387.472 237.132 381.065 243.04 372.515L239.749 370.241C234.227 378.234 227.28 384.159 218.894 388.063L220.582 391.689ZM243.036 372.521C249.087 363.832 253.533 352.894 256.431 339.776L252.526 338.913C249.709 351.662 245.433 362.08 239.753 370.235L243.036 372.521ZM256.428 339.793C259.479 326.52 260.99 310.721 260.99 292.423H256.99C256.99 310.519 255.494 326.001 252.529 338.897L256.428 339.793Z" fill="white" mask="url(#path-1-outside-1_777_1096)"/>
<path d="M9.408 506.288C7.776 506.288 6.336 505.92 5.088 505.184C3.84 504.448 2.864 503.432 2.16 502.136C1.456 500.824 1.104 499.312 1.104 497.6C1.104 495.888 1.456 494.384 2.16 493.088C2.864 491.776 3.84 490.752 5.088 490.016C6.336 489.28 7.776 488.912 9.408 488.912C11.056 488.912 12.504 489.28 13.752 490.016C15 490.752 15.968 491.776 16.656 493.088C17.36 494.384 17.712 495.888 17.712 497.6C17.712 499.312 17.36 500.824 16.656 502.136C15.968 503.432 15 504.448 13.752 505.184C12.504 505.92 11.056 506.288 9.408 506.288ZM9.408 503.384C10.432 503.384 11.312 503.152 12.048 502.688C12.8 502.208 13.384 501.536 13.8 500.672C14.216 499.808 14.424 498.784 14.424 497.6C14.424 496.4 14.216 495.376 13.8 494.528C13.384 493.664 12.8 493 12.048 492.536C11.312 492.072 10.432 491.84 9.408 491.84C8.4 491.84 7.52 492.072 6.768 492.536C6.016 493 5.432 493.664 5.016 494.528C4.6 495.376 4.392 496.4 4.392 497.6C4.392 498.784 4.6 499.808 5.016 500.672C5.432 501.536 6.016 502.208 6.768 502.688C7.52 503.152 8.4 503.384 9.408 503.384ZM23.1163 506V489.2H26.3563L34.0843 500.792V489.2H37.3243V506H34.0843L26.3563 494.432V506H23.1163ZM43.2407 506V489.2H54.2807V491.816H46.4807V496.208H53.5607V498.728H46.4807V503.384H54.2807V506H43.2407ZM74.6653 506.288C73.4333 506.288 72.3133 506.04 71.3053 505.544C70.2973 505.048 69.4973 504.304 68.9053 503.312C68.3133 502.32 68.0173 501.056 68.0173 499.52V489.2H71.2573V499.544C71.2573 500.376 71.3933 501.08 71.6653 501.656C71.9373 502.216 72.3293 502.632 72.8413 502.904C73.3693 503.176 73.9933 503.312 74.7133 503.312C75.4493 503.312 76.0733 503.176 76.5853 502.904C77.1133 502.632 77.5133 502.216 77.7853 501.656C78.0573 501.08 78.1933 500.376 78.1933 499.544V489.2H81.4333V499.52C81.4333 501.056 81.1293 502.32 80.5213 503.312C79.9133 504.304 79.0893 505.048 78.0493 505.544C77.0253 506.04 75.8973 506.288 74.6653 506.288ZM87.231 506V489.2H90.471L98.199 500.792V489.2H101.439V506H98.199L90.471 494.432V506H87.231ZM107.355 506V489.2H110.595V506H107.355ZM116.534 506V489.2H127.478V491.816H119.774V496.304H125.942V498.848H119.774V506H116.534ZM132.51 506V489.2H135.75V506H132.51ZM141.689 506V489.2H152.729V491.816H144.929V496.208H152.009V498.728H144.929V503.384H152.729V506H141.689ZM158.322 506V489.2H163.938C165.89 489.2 167.498 489.552 168.762 490.256C170.042 490.944 170.986 491.92 171.594 493.184C172.218 494.432 172.53 495.904 172.53 497.6C172.53 499.296 172.218 500.776 171.594 502.04C170.986 503.288 170.05 504.264 168.786 504.968C167.522 505.656 165.906 506 163.938 506H158.322ZM161.562 503.216H163.77C165.146 503.216 166.226 502.992 167.01 502.544C167.81 502.096 168.378 501.456 168.714 500.624C169.05 499.776 169.218 498.768 169.218 497.6C169.218 496.416 169.05 495.408 168.714 494.576C168.378 493.728 167.81 493.08 167.01 492.632C166.226 492.184 165.146 491.96 163.77 491.96H161.562V503.216ZM186.219 506V489.2H192.507C193.867 489.2 194.995 489.432 195.891 489.896C196.787 490.36 197.451 490.984 197.883 491.768C198.315 492.552 198.531 493.448 198.531 494.456C198.531 495.384 198.323 496.24 197.907 497.024C197.491 497.808 196.835 498.448 195.939 498.944C195.043 499.424 193.899 499.664 192.507 499.664H189.459V506H186.219ZM189.459 497.048H192.315C193.355 497.048 194.099 496.816 194.547 496.352C195.011 495.872 195.243 495.24 195.243 494.456C195.243 493.624 195.011 492.984 194.547 492.536C194.099 492.072 193.355 491.84 192.315 491.84H189.459V497.048ZM203.601 506V489.2H206.841V503.48H214.209V506H203.601ZM218.496 506L224.64 489.2H228.312L234.432 506H231L226.464 492.896L221.904 506H218.496ZM221.208 502.184L222.072 499.664H230.616L231.456 502.184H221.208ZM241.41 506V491.816H236.49V489.2H249.522V491.816H244.626V506H241.41ZM254.459 506V489.2H265.403V491.816H257.699V496.304H263.867V498.848H257.699V506H254.459ZM278.186 506.288C276.554 506.288 275.114 505.92 273.866 505.184C272.618 504.448 271.642 503.432 270.938 502.136C270.234 500.824 269.882 499.312 269.882 497.6C269.882 495.888 270.234 494.384 270.938 493.088C271.642 491.776 272.618 490.752 273.866 490.016C275.114 489.28 276.554 488.912 278.186 488.912C279.834 488.912 281.282 489.28 282.53 490.016C283.778 490.752 284.746 491.776 285.434 493.088C286.138 494.384 286.49 495.888 286.49 497.6C286.49 499.312 286.138 500.824 285.434 502.136C284.746 503.432 283.778 504.448 282.53 505.184C281.282 505.92 279.834 506.288 278.186 506.288ZM278.186 503.384C279.21 503.384 280.09 503.152 280.826 502.688C281.578 502.208 282.162 501.536 282.578 500.672C282.994 499.808 283.202 498.784 283.202 497.6C283.202 496.4 282.994 495.376 282.578 494.528C282.162 493.664 281.578 493 280.826 492.536C280.09 492.072 279.21 491.84 278.186 491.84C277.178 491.84 276.298 492.072 275.546 492.536C274.794 493 274.21 493.664 273.794 494.528C273.378 495.376 273.17 496.4 273.17 497.6C273.17 498.784 273.378 499.808 273.794 500.672C274.21 501.536 274.794 502.208 275.546 502.688C276.298 503.152 277.178 503.384 278.186 503.384ZM291.895 506V489.2H298.159C299.519 489.2 300.639 489.432 301.519 489.896C302.399 490.36 303.055 490.984 303.487 491.768C303.919 492.536 304.135 493.392 304.135 494.336C304.135 495.232 303.927 496.072 303.511 496.856C303.095 497.624 302.439 498.248 301.543 498.728C300.663 499.192 299.527 499.424 298.135 499.424H295.135V506H291.895ZM300.607 506L297.151 498.608H300.655L304.303 506H300.607ZM295.135 497.072H297.967C298.943 497.072 299.663 496.832 300.127 496.352C300.591 495.872 300.823 495.24 300.823 494.456C300.823 493.672 300.591 493.056 300.127 492.608C299.679 492.144 298.959 491.912 297.967 491.912H295.135V497.072ZM309.675 506V489.2H313.539L318.675 499.688L323.763 489.2H327.627V506H324.387V494.72L319.947 503.648H317.379L312.915 494.72V506H309.675ZM334.965 506.12C334.357 506.12 333.869 505.944 333.501 505.592C333.133 505.224 332.949 504.776 332.949 504.248C332.949 503.72 333.133 503.28 333.501 502.928C333.869 502.56 334.357 502.376 334.965 502.376C335.541 502.376 336.013 502.56 336.381 502.928C336.749 503.28 336.933 503.72 336.933 504.248C336.933 504.776 336.749 505.224 336.381 505.592C336.013 505.944 335.541 506.12 334.965 506.12ZM334.965 497.336C334.357 497.336 333.869 497.16 333.501 496.808C333.133 496.44 332.949 495.992 332.949 495.464C332.949 494.936 333.133 494.496 333.501 494.144C333.869 493.776 334.357 493.592 334.965 493.592C335.541 493.592 336.013 493.776 336.381 494.144C336.749 494.496 336.933 494.936 336.933 495.464C336.933 495.992 336.749 496.44 336.381 496.808C336.013 497.16 335.541 497.336 334.965 497.336Z" fill="white"/>
<path d="M7.07266 549V536.4H14.8667V537.642H8.58466V542.034H14.3267V543.258H8.58466V547.758H14.8667V549H7.07266ZM19.7704 549L16.3324 539.928H17.9164L20.6524 547.542L23.4064 539.928H24.9544L21.5164 549H19.7704ZM30.1735 549.216C29.3215 549.216 28.5655 549.018 27.9055 548.622C27.2575 548.226 26.7475 547.674 26.3755 546.966C26.0035 546.246 25.8175 545.412 25.8175 544.464C25.8175 543.504 25.9975 542.67 26.3575 541.962C26.7295 541.254 27.2455 540.702 27.9055 540.306C28.5775 539.91 29.3455 539.712 30.2095 539.712C31.0975 539.712 31.8475 539.91 32.4595 540.306C33.0835 540.702 33.5575 541.224 33.8815 541.872C34.2175 542.508 34.3855 543.21 34.3855 543.978C34.3855 544.098 34.3855 544.224 34.3855 544.356C34.3855 544.488 34.3795 544.638 34.3675 544.806H26.9515V543.636H32.9095C32.8735 542.808 32.5975 542.16 32.0815 541.692C31.5775 541.224 30.9415 540.99 30.1735 540.99C29.6575 540.99 29.1775 541.11 28.7335 541.35C28.3015 541.578 27.9535 541.92 27.6895 542.376C27.4255 542.82 27.2935 543.378 27.2935 544.05V544.554C27.2935 545.298 27.4255 545.922 27.6895 546.426C27.9655 546.93 28.3195 547.308 28.7515 547.56C29.1955 547.812 29.6695 547.938 30.1735 547.938C30.8095 547.938 31.3315 547.8 31.7395 547.524C32.1595 547.236 32.4595 546.852 32.6395 546.372H34.1335C33.9895 546.912 33.7375 547.398 33.3775 547.83C33.0175 548.262 32.5675 548.604 32.0275 548.856C31.4995 549.096 30.8815 549.216 30.1735 549.216ZM36.426 549V539.928H37.794L37.902 541.656C38.106 541.248 38.364 540.9 38.676 540.612C39 540.324 39.384 540.102 39.828 539.946C40.284 539.79 40.8 539.712 41.376 539.712V541.296H40.818C40.434 541.296 40.068 541.35 39.72 541.458C39.372 541.554 39.06 541.716 38.784 541.944C38.52 542.172 38.31 542.484 38.154 542.88C38.01 543.264 37.938 543.744 37.938 544.32V549H36.426ZM44.0781 552.96L46.2921 547.992H45.7701L42.2061 539.928H43.8441L46.7961 546.858L49.8921 539.928H51.4581L45.6621 552.96H44.0781ZM56.6541 549C56.1141 549 55.6461 548.916 55.2501 548.748C54.8541 548.58 54.5481 548.298 54.3321 547.902C54.1281 547.494 54.0261 546.948 54.0261 546.264V541.206H52.4421V539.928H54.0261L54.2241 537.732H55.5381V539.928H58.1661V541.206H55.5381V546.264C55.5381 546.828 55.6521 547.212 55.8801 547.416C56.1081 547.608 56.5101 547.704 57.0861 547.704H58.0581V549H56.6541ZM60.1389 549V536.04H61.6509V541.458C61.9509 540.918 62.3709 540.492 62.9109 540.18C63.4629 539.868 64.0629 539.712 64.7109 539.712C65.4069 539.712 66.0129 539.856 66.5289 540.144C67.0449 540.42 67.4409 540.846 67.7169 541.422C67.9929 541.998 68.1309 542.724 68.1309 543.6V549H66.6369V543.762C66.6369 542.85 66.4449 542.166 66.0609 541.71C65.6769 541.242 65.1189 541.008 64.3869 541.008C63.8709 541.008 63.4029 541.134 62.9829 541.386C62.5749 541.638 62.2509 541.998 62.0109 542.466C61.7709 542.934 61.6509 543.51 61.6509 544.194V549H60.1389ZM70.6364 549V539.928H72.1484V549H70.6364ZM71.3924 538.002C71.0924 538.002 70.8404 537.906 70.6364 537.714C70.4444 537.51 70.3484 537.258 70.3484 536.958C70.3484 536.658 70.4444 536.418 70.6364 536.238C70.8404 536.046 71.0924 535.95 71.3924 535.95C71.6804 535.95 71.9264 536.046 72.1304 536.238C72.3344 536.418 72.4364 536.658 72.4364 536.958C72.4364 537.258 72.3344 537.51 72.1304 537.714C71.9264 537.906 71.6804 538.002 71.3924 538.002ZM74.8166 549V539.928H76.1846L76.2566 541.512C76.5446 540.948 76.9526 540.51 77.4806 540.198C78.0206 539.874 78.6326 539.712 79.3166 539.712C80.0246 539.712 80.6366 539.856 81.1526 540.144C81.6686 540.42 82.0706 540.846 82.3586 541.422C82.6466 541.986 82.7906 542.706 82.7906 543.582V549H81.2786V543.744C81.2786 542.832 81.0746 542.148 80.6666 541.692C80.2706 541.236 79.7066 541.008 78.9746 541.008C78.4706 541.008 78.0206 541.134 77.6246 541.386C77.2286 541.626 76.9106 541.98 76.6706 542.448C76.4426 542.904 76.3286 543.474 76.3286 544.158V549H74.8166ZM88.7166 553.176C87.9006 553.176 87.1806 553.068 86.5566 552.852C85.9326 552.648 85.4406 552.33 85.0806 551.898C84.7326 551.466 84.5586 550.932 84.5586 550.296C84.5586 550.032 84.6126 549.744 84.7206 549.432C84.8406 549.12 85.0386 548.814 85.3146 548.514C85.6026 548.214 86.0046 547.944 86.5206 547.704L87.5646 548.316C86.9406 548.58 86.5266 548.88 86.3226 549.216C86.1306 549.552 86.0346 549.864 86.0346 550.152C86.0346 550.548 86.1486 550.878 86.3766 551.142C86.6166 551.406 86.9346 551.604 87.3306 551.736C87.7386 551.868 88.2006 551.934 88.7166 551.934C89.2206 551.934 89.6586 551.856 90.0306 551.7C90.4026 551.556 90.6906 551.352 90.8946 551.088C91.0986 550.824 91.2006 550.518 91.2006 550.17C91.2006 549.762 91.0446 549.414 90.7326 549.126C90.4206 548.85 89.8326 548.688 88.9686 548.64C88.2606 548.592 87.6666 548.526 87.1866 548.442C86.7186 548.358 86.3226 548.262 85.9986 548.154C85.6866 548.034 85.4226 547.902 85.2066 547.758C85.0026 547.614 84.8166 547.464 84.6486 547.308V546.894L86.4126 545.148L87.7086 545.616L85.9086 547.254L86.1426 546.624C86.2746 546.72 86.4006 546.81 86.5206 546.894C86.6406 546.978 86.8026 547.05 87.0066 547.11C87.2226 547.17 87.5106 547.224 87.8706 547.272C88.2306 547.32 88.7106 547.368 89.3106 547.416C90.1266 547.476 90.7806 547.62 91.2726 547.848C91.7766 548.076 92.1366 548.382 92.3526 548.766C92.5806 549.15 92.6946 549.6 92.6946 550.116C92.6946 550.62 92.5506 551.106 92.2626 551.574C91.9866 552.042 91.5546 552.426 90.9666 552.726C90.3786 553.026 89.6286 553.176 88.7166 553.176ZM88.6986 546.174C87.9426 546.174 87.2946 546.03 86.7546 545.742C86.2266 545.454 85.8246 545.07 85.5486 544.59C85.2726 544.11 85.1346 543.57 85.1346 542.97C85.1346 542.382 85.2726 541.848 85.5486 541.368C85.8366 540.888 86.2446 540.504 86.7726 540.216C87.3006 539.916 87.9426 539.766 88.6986 539.766C89.4546 539.766 90.0966 539.916 90.6246 540.216C91.1526 540.504 91.5546 540.888 91.8306 541.368C92.1066 541.848 92.2446 542.382 92.2446 542.97C92.2446 543.57 92.1066 544.11 91.8306 544.59C91.5546 545.07 91.1526 545.454 90.6246 545.742C90.0966 546.03 89.4546 546.174 88.6986 546.174ZM88.6986 544.932C89.3346 544.932 89.8386 544.764 90.2106 544.428C90.5946 544.092 90.7866 543.606 90.7866 542.97C90.7866 542.346 90.5946 541.866 90.2106 541.53C89.8386 541.194 89.3346 541.026 88.6986 541.026C88.0626 541.026 87.5466 541.194 87.1506 541.53C86.7666 541.866 86.5746 542.346 86.5746 542.97C86.5746 543.606 86.7666 544.092 87.1506 544.428C87.5346 544.764 88.0506 544.932 88.6986 544.932ZM90.1566 541.26L89.7066 539.982H93.4146V541.116L90.1566 541.26ZM100.961 552.96L103.175 547.992H102.653L99.0889 539.928H100.727L103.679 546.858L106.775 539.928H108.341L102.545 552.96H100.961ZM113.179 549.216C112.339 549.216 111.583 549.024 110.911 548.64C110.239 548.244 109.711 547.692 109.327 546.984C108.943 546.264 108.751 545.43 108.751 544.482C108.751 543.51 108.943 542.67 109.327 541.962C109.723 541.242 110.257 540.69 110.929 540.306C111.613 539.91 112.375 539.712 113.215 539.712C114.079 539.712 114.841 539.91 115.501 540.306C116.173 540.69 116.701 541.242 117.085 541.962C117.481 542.67 117.679 543.504 117.679 544.464C117.679 545.424 117.481 546.264 117.085 546.984C116.689 547.692 116.155 548.244 115.483 548.64C114.811 549.024 114.043 549.216 113.179 549.216ZM113.197 547.92C113.713 547.92 114.193 547.794 114.637 547.542C115.081 547.278 115.441 546.888 115.717 546.372C115.993 545.856 116.131 545.22 116.131 544.464C116.131 543.696 115.993 543.06 115.717 542.556C115.453 542.04 115.099 541.656 114.655 541.404C114.223 541.14 113.743 541.008 113.215 541.008C112.711 541.008 112.231 541.14 111.775 541.404C111.331 541.656 110.971 542.04 110.695 542.556C110.431 543.06 110.299 543.696 110.299 544.464C110.299 545.22 110.431 545.856 110.695 546.372C110.971 546.888 111.325 547.278 111.757 547.542C112.201 547.794 112.681 547.92 113.197 547.92ZM123.093 549.216C122.397 549.216 121.785 549.078 121.257 548.802C120.741 548.526 120.339 548.1 120.051 547.524C119.775 546.948 119.637 546.228 119.637 545.364V539.928H121.149V545.202C121.149 546.102 121.347 546.78 121.743 547.236C122.139 547.692 122.697 547.92 123.417 547.92C123.921 547.92 124.377 547.8 124.785 547.56C125.193 547.308 125.511 546.954 125.739 546.498C125.979 546.03 126.099 545.46 126.099 544.788V539.928H127.611V549H126.243L126.153 547.416C125.877 547.98 125.469 548.424 124.929 548.748C124.389 549.06 123.777 549.216 123.093 549.216ZM134.899 549V539.928H136.267L136.339 541.512C136.627 540.948 137.035 540.51 137.563 540.198C138.103 539.874 138.715 539.712 139.399 539.712C140.107 539.712 140.719 539.856 141.235 540.144C141.751 540.42 142.153 540.846 142.441 541.422C142.729 541.986 142.873 542.706 142.873 543.582V549H141.361V543.744C141.361 542.832 141.157 542.148 140.749 541.692C140.353 541.236 139.789 541.008 139.057 541.008C138.553 541.008 138.103 541.134 137.707 541.386C137.311 541.626 136.993 541.98 136.753 542.448C136.525 542.904 136.411 543.474 136.411 544.158V549H134.899ZM149.213 549.216C148.361 549.216 147.605 549.018 146.945 548.622C146.297 548.226 145.787 547.674 145.415 546.966C145.043 546.246 144.857 545.412 144.857 544.464C144.857 543.504 145.037 542.67 145.397 541.962C145.769 541.254 146.285 540.702 146.945 540.306C147.617 539.91 148.385 539.712 149.249 539.712C150.137 539.712 150.887 539.91 151.499 540.306C152.123 540.702 152.597 541.224 152.921 541.872C153.257 542.508 153.425 543.21 153.425 543.978C153.425 544.098 153.425 544.224 153.425 544.356C153.425 544.488 153.419 544.638 153.407 544.806H145.991V543.636H151.949C151.913 542.808 151.637 542.16 151.121 541.692C150.617 541.224 149.981 540.99 149.213 540.99C148.697 540.99 148.217 541.11 147.773 541.35C147.341 541.578 146.993 541.92 146.729 542.376C146.465 542.82 146.333 543.378 146.333 544.05V544.554C146.333 545.298 146.465 545.922 146.729 546.426C147.005 546.93 147.359 547.308 147.791 547.56C148.235 547.812 148.709 547.938 149.213 547.938C149.849 547.938 150.371 547.8 150.779 547.524C151.199 547.236 151.499 546.852 151.679 546.372H153.173C153.029 546.912 152.777 547.398 152.417 547.83C152.057 548.262 151.607 548.604 151.067 548.856C150.539 549.096 149.921 549.216 149.213 549.216ZM159.443 549.216C158.591 549.216 157.835 549.018 157.175 548.622C156.527 548.226 156.017 547.674 155.645 546.966C155.273 546.246 155.087 545.412 155.087 544.464C155.087 543.504 155.267 542.67 155.627 541.962C155.999 541.254 156.515 540.702 157.175 540.306C157.847 539.91 158.615 539.712 159.479 539.712C160.367 539.712 161.117 539.91 161.729 540.306C162.353 540.702 162.827 541.224 163.151 541.872C163.487 542.508 163.655 543.21 163.655 543.978C163.655 544.098 163.655 544.224 163.655 544.356C163.655 544.488 163.649 544.638 163.637 544.806H156.221V543.636H162.179C162.143 542.808 161.867 542.16 161.351 541.692C160.847 541.224 160.211 540.99 159.443 540.99C158.927 540.99 158.447 541.11 158.003 541.35C157.571 541.578 157.223 541.92 156.959 542.376C156.695 542.82 156.563 543.378 156.563 544.05V544.554C156.563 545.298 156.695 545.922 156.959 546.426C157.235 546.93 157.589 547.308 158.021 547.56C158.465 547.812 158.939 547.938 159.443 547.938C160.079 547.938 160.601 547.8 161.009 547.524C161.429 547.236 161.729 546.852 161.909 546.372H163.403C163.259 546.912 163.007 547.398 162.647 547.83C162.287 548.262 161.837 548.604 161.297 548.856C160.769 549.096 160.151 549.216 159.443 549.216ZM169.692 549.216C168.816 549.216 168.048 549.012 167.388 548.604C166.728 548.184 166.218 547.614 165.858 546.894C165.498 546.174 165.318 545.358 165.318 544.446C165.318 543.534 165.498 542.724 165.858 542.016C166.218 541.296 166.728 540.732 167.388 540.324C168.06 539.916 168.834 539.712 169.71 539.712C170.454 539.712 171.102 539.862 171.654 540.162C172.218 540.462 172.65 540.882 172.95 541.422V536.04H174.462V549H173.094L172.968 547.506C172.776 547.806 172.53 548.088 172.23 548.352C171.93 548.604 171.57 548.814 171.15 548.982C170.73 549.138 170.244 549.216 169.692 549.216ZM169.872 547.902C170.472 547.902 171 547.758 171.456 547.47C171.912 547.182 172.266 546.786 172.518 546.282C172.77 545.766 172.896 545.16 172.896 544.464C172.896 543.78 172.77 543.18 172.518 542.664C172.266 542.148 171.912 541.746 171.456 541.458C171 541.17 170.472 541.026 169.872 541.026C169.284 541.026 168.762 541.17 168.306 541.458C167.85 541.746 167.496 542.148 167.244 542.664C166.992 543.18 166.866 543.78 166.866 544.464C166.866 545.16 166.992 545.766 167.244 546.282C167.496 546.786 167.85 547.182 168.306 547.47C168.762 547.758 169.284 547.902 169.872 547.902ZM175.793 551.214L176.837 547.236H178.403L176.837 551.214H175.793ZM187.983 549.216C187.251 549.216 186.639 549.09 186.147 548.838C185.655 548.574 185.289 548.232 185.049 547.812C184.809 547.38 184.689 546.912 184.689 546.408C184.689 545.796 184.845 545.28 185.157 544.86C185.481 544.428 185.931 544.104 186.507 543.888C187.095 543.66 187.785 543.546 188.577 543.546H190.971C190.971 542.982 190.881 542.514 190.701 542.142C190.533 541.758 190.281 541.47 189.945 541.278C189.621 541.086 189.213 540.99 188.721 540.99C188.145 540.99 187.647 541.134 187.227 541.422C186.807 541.71 186.549 542.136 186.453 542.7H184.905C184.977 542.052 185.193 541.512 185.553 541.08C185.925 540.636 186.393 540.3 186.957 540.072C187.521 539.832 188.109 539.712 188.721 539.712C189.561 539.712 190.257 539.868 190.809 540.18C191.373 540.48 191.793 540.906 192.069 541.458C192.345 541.998 192.483 542.64 192.483 543.384V549H191.133L191.043 547.398C190.923 547.65 190.767 547.89 190.575 548.118C190.395 548.334 190.179 548.526 189.927 548.694C189.675 548.85 189.387 548.976 189.063 549.072C188.751 549.168 188.391 549.216 187.983 549.216ZM188.217 547.938C188.637 547.938 189.015 547.854 189.351 547.686C189.699 547.506 189.993 547.266 190.233 546.966C190.473 546.654 190.653 546.312 190.773 545.94C190.905 545.568 190.971 545.178 190.971 544.77V544.716H188.703C188.115 544.716 187.641 544.788 187.281 544.932C186.921 545.064 186.663 545.256 186.507 545.508C186.351 545.748 186.273 546.024 186.273 546.336C186.273 546.66 186.345 546.942 186.489 547.182C186.645 547.422 186.867 547.608 187.155 547.74C187.455 547.872 187.809 547.938 188.217 547.938ZM194.823 549V536.04H196.335V549H194.823ZM198.83 549V536.04H200.342V549H198.83ZM207.763 549V539.928H209.275V549H207.763ZM208.519 538.002C208.219 538.002 207.967 537.906 207.763 537.714C207.571 537.51 207.475 537.258 207.475 536.958C207.475 536.658 207.571 536.418 207.763 536.238C207.967 536.046 208.219 535.95 208.519 535.95C208.807 535.95 209.053 536.046 209.257 536.238C209.461 536.418 209.563 536.658 209.563 536.958C209.563 537.258 209.461 537.51 209.257 537.714C209.053 537.906 208.807 538.002 208.519 538.002ZM211.944 549V539.928H213.312L213.384 541.512C213.672 540.948 214.08 540.51 214.608 540.198C215.148 539.874 215.76 539.712 216.444 539.712C217.152 539.712 217.764 539.856 218.28 540.144C218.796 540.42 219.198 540.846 219.486 541.422C219.774 541.986 219.918 542.706 219.918 543.582V549H218.406V543.744C218.406 542.832 218.202 542.148 217.794 541.692C217.398 541.236 216.834 541.008 216.102 541.008C215.598 541.008 215.148 541.134 214.752 541.386C214.356 541.626 214.038 541.98 213.798 542.448C213.57 542.904 213.456 543.474 213.456 544.158V549H211.944ZM231.111 549.216C230.271 549.216 229.515 549.024 228.843 548.64C228.171 548.244 227.643 547.692 227.259 546.984C226.875 546.264 226.683 545.43 226.683 544.482C226.683 543.51 226.875 542.67 227.259 541.962C227.655 541.242 228.189 540.69 228.861 540.306C229.545 539.91 230.307 539.712 231.147 539.712C232.011 539.712 232.773 539.91 233.433 540.306C234.105 540.69 234.633 541.242 235.017 541.962C235.413 542.67 235.611 543.504 235.611 544.464C235.611 545.424 235.413 546.264 235.017 546.984C234.621 547.692 234.087 548.244 233.415 548.64C232.743 549.024 231.975 549.216 231.111 549.216ZM231.129 547.92C231.645 547.92 232.125 547.794 232.569 547.542C233.013 547.278 233.373 546.888 233.649 546.372C233.925 545.856 234.063 545.22 234.063 544.464C234.063 543.696 233.925 543.06 233.649 542.556C233.385 542.04 233.031 541.656 232.587 541.404C232.155 541.14 231.675 541.008 231.147 541.008C230.643 541.008 230.163 541.14 229.707 541.404C229.263 541.656 228.903 542.04 228.627 542.556C228.363 543.06 228.231 543.696 228.231 544.464C228.231 545.22 228.363 545.856 228.627 546.372C228.903 546.888 229.257 547.278 229.689 547.542C230.133 547.794 230.613 547.92 231.129 547.92ZM237.731 549V539.928H239.099L239.171 541.512C239.459 540.948 239.867 540.51 240.395 540.198C240.935 539.874 241.547 539.712 242.231 539.712C242.939 539.712 243.551 539.856 244.067 540.144C244.583 540.42 244.985 540.846 245.273 541.422C245.561 541.986 245.705 542.706 245.705 543.582V549H244.193V543.744C244.193 542.832 243.989 542.148 243.581 541.692C243.185 541.236 242.621 541.008 241.889 541.008C241.385 541.008 240.935 541.134 240.539 541.386C240.143 541.626 239.825 541.98 239.585 542.448C239.357 542.904 239.243 543.474 239.243 544.158V549H237.731ZM252.045 549.216C251.193 549.216 250.437 549.018 249.777 548.622C249.129 548.226 248.619 547.674 248.247 546.966C247.875 546.246 247.689 545.412 247.689 544.464C247.689 543.504 247.869 542.67 248.229 541.962C248.601 541.254 249.117 540.702 249.777 540.306C250.449 539.91 251.217 539.712 252.081 539.712C252.969 539.712 253.719 539.91 254.331 540.306C254.955 540.702 255.429 541.224 255.753 541.872C256.089 542.508 256.257 543.21 256.257 543.978C256.257 544.098 256.257 544.224 256.257 544.356C256.257 544.488 256.251 544.638 256.239 544.806H248.823V543.636H254.781C254.745 542.808 254.469 542.16 253.953 541.692C253.449 541.224 252.813 540.99 252.045 540.99C251.529 540.99 251.049 541.11 250.605 541.35C250.173 541.578 249.825 541.92 249.561 542.376C249.297 542.82 249.165 543.378 249.165 544.05V544.554C249.165 545.298 249.297 545.922 249.561 546.426C249.837 546.93 250.191 547.308 250.623 547.56C251.067 547.812 251.541 547.938 252.045 547.938C252.681 547.938 253.203 547.8 253.611 547.524C254.031 547.236 254.331 546.852 254.511 546.372H256.005C255.861 546.912 255.609 547.398 255.249 547.83C254.889 548.262 254.439 548.604 253.899 548.856C253.371 549.096 252.753 549.216 252.045 549.216ZM263.078 552.96V539.928H264.446L264.572 541.404C264.764 541.116 265.01 540.846 265.31 540.594C265.61 540.33 265.97 540.12 266.39 539.964C266.81 539.796 267.29 539.712 267.83 539.712C268.718 539.712 269.486 539.922 270.134 540.342C270.794 540.762 271.304 541.332 271.664 542.052C272.036 542.76 272.222 543.57 272.222 544.482C272.222 545.394 272.036 546.21 271.664 546.93C271.304 547.638 270.794 548.196 270.134 548.604C269.474 549.012 268.7 549.216 267.812 549.216C267.08 549.216 266.432 549.066 265.868 548.766C265.316 548.466 264.89 548.046 264.59 547.506V552.96H263.078ZM267.65 547.902C268.238 547.902 268.76 547.758 269.216 547.47C269.672 547.182 270.026 546.786 270.278 546.282C270.542 545.766 270.674 545.16 270.674 544.464C270.674 543.78 270.542 543.18 270.278 542.664C270.026 542.148 269.672 541.746 269.216 541.458C268.76 541.17 268.238 541.026 267.65 541.026C267.05 541.026 266.522 541.17 266.066 541.458C265.61 541.746 265.256 542.148 265.004 542.664C264.752 543.18 264.626 543.78 264.626 544.464C264.626 545.16 264.752 545.766 265.004 546.282C265.256 546.786 265.61 547.182 266.066 547.47C266.522 547.758 267.05 547.902 267.65 547.902ZM274.346 549V536.04H275.858V549H274.346ZM281.306 549.216C280.574 549.216 279.962 549.09 279.47 548.838C278.978 548.574 278.612 548.232 278.372 547.812C278.132 547.38 278.012 546.912 278.012 546.408C278.012 545.796 278.168 545.28 278.48 544.86C278.804 544.428 279.254 544.104 279.83 543.888C280.418 543.66 281.108 543.546 281.9 543.546H284.294C284.294 542.982 284.204 542.514 284.024 542.142C283.856 541.758 283.604 541.47 283.268 541.278C282.944 541.086 282.536 540.99 282.044 540.99C281.468 540.99 280.97 541.134 280.55 541.422C280.13 541.71 279.872 542.136 279.776 542.7H278.228C278.3 542.052 278.516 541.512 278.876 541.08C279.248 540.636 279.716 540.3 280.28 540.072C280.844 539.832 281.432 539.712 282.044 539.712C282.884 539.712 283.58 539.868 284.132 540.18C284.696 540.48 285.116 540.906 285.392 541.458C285.668 541.998 285.806 542.64 285.806 543.384V549H284.456L284.366 547.398C284.246 547.65 284.09 547.89 283.898 548.118C283.718 548.334 283.502 548.526 283.25 548.694C282.998 548.85 282.71 548.976 282.386 549.072C282.074 549.168 281.714 549.216 281.306 549.216ZM281.54 547.938C281.96 547.938 282.338 547.854 282.674 547.686C283.022 547.506 283.316 547.266 283.556 546.966C283.796 546.654 283.976 546.312 284.096 545.94C284.228 545.568 284.294 545.178 284.294 544.77V544.716H282.026C281.438 544.716 280.964 544.788 280.604 544.932C280.244 545.064 279.986 545.256 279.83 545.508C279.674 545.748 279.596 546.024 279.596 546.336C279.596 546.66 279.668 546.942 279.812 547.182C279.968 547.422 280.19 547.608 280.478 547.74C280.778 547.872 281.132 547.938 281.54 547.938ZM292.231 549.216C291.379 549.216 290.611 549.018 289.927 548.622C289.255 548.226 288.727 547.674 288.343 546.966C287.959 546.246 287.767 545.418 287.767 544.482C287.767 543.522 287.959 542.688 288.343 541.98C288.727 541.272 289.255 540.72 289.927 540.324C290.611 539.916 291.379 539.712 292.231 539.712C293.311 539.712 294.211 539.994 294.931 540.558C295.651 541.11 296.107 541.854 296.299 542.79H294.751C294.631 542.226 294.337 541.788 293.869 541.476C293.401 541.164 292.849 541.008 292.213 541.008C291.697 541.008 291.217 541.14 290.773 541.404C290.329 541.656 289.975 542.04 289.711 542.556C289.447 543.072 289.315 543.708 289.315 544.464C289.315 545.028 289.393 545.532 289.549 545.976C289.705 546.408 289.915 546.768 290.179 547.056C290.443 547.344 290.749 547.566 291.097 547.722C291.457 547.866 291.829 547.938 292.213 547.938C292.645 547.938 293.035 547.872 293.383 547.74C293.731 547.596 294.025 547.386 294.265 547.11C294.505 546.834 294.667 546.51 294.751 546.138H296.299C296.107 547.05 295.645 547.794 294.913 548.37C294.193 548.934 293.299 549.216 292.231 549.216ZM302.424 549.216C301.572 549.216 300.816 549.018 300.156 548.622C299.508 548.226 298.998 547.674 298.626 546.966C298.254 546.246 298.068 545.412 298.068 544.464C298.068 543.504 298.248 542.67 298.608 541.962C298.98 541.254 299.496 540.702 300.156 540.306C300.828 539.91 301.596 539.712 302.46 539.712C303.348 539.712 304.098 539.91 304.71 540.306C305.334 540.702 305.808 541.224 306.132 541.872C306.468 542.508 306.636 543.21 306.636 543.978C306.636 544.098 306.636 544.224 306.636 544.356C306.636 544.488 306.63 544.638 306.618 544.806H299.202V543.636H305.16C305.124 542.808 304.848 542.16 304.332 541.692C303.828 541.224 303.192 540.99 302.424 540.99C301.908 540.99 301.428 541.11 300.984 541.35C300.552 541.578 300.204 541.92 299.94 542.376C299.676 542.82 299.544 543.378 299.544 544.05V544.554C299.544 545.298 299.676 545.922 299.94 546.426C300.216 546.93 300.57 547.308 301.002 547.56C301.446 547.812 301.92 547.938 302.424 547.938C303.06 547.938 303.582 547.8 303.99 547.524C304.41 547.236 304.71 546.852 304.89 546.372H306.384C306.24 546.912 305.988 547.398 305.628 547.83C305.268 548.262 304.818 548.604 304.278 548.856C303.75 549.096 303.132 549.216 302.424 549.216ZM308.712 544.32V543.042H321.816V544.32H308.712ZM324.895 549V538.524C324.895 537.948 324.991 537.48 325.183 537.12C325.375 536.748 325.657 536.478 326.029 536.31C326.413 536.13 326.881 536.04 327.433 536.04H328.459V537.336H327.667C327.223 537.336 326.899 537.426 326.695 537.606C326.503 537.786 326.407 538.104 326.407 538.56V549H324.895ZM323.509 541.206V539.928H328.693V541.206H323.509ZM330.508 549V539.928H331.876L331.984 541.656C332.188 541.248 332.446 540.9 332.758 540.612C333.082 540.324 333.466 540.102 333.91 539.946C334.366 539.79 334.882 539.712 335.458 539.712V541.296H334.9C334.516 541.296 334.15 541.35 333.802 541.458C333.454 541.554 333.142 541.716 332.866 541.944C332.602 542.172 332.392 542.484 332.236 542.88C332.092 543.264 332.02 543.744 332.02 544.32V549H330.508ZM340.886 549.216C340.046 549.216 339.29 549.024 338.618 548.64C337.946 548.244 337.418 547.692 337.034 546.984C336.65 546.264 336.458 545.43 336.458 544.482C336.458 543.51 336.65 542.67 337.034 541.962C337.43 541.242 337.964 540.69 338.636 540.306C339.32 539.91 340.082 539.712 340.922 539.712C341.786 539.712 342.548 539.91 343.208 540.306C343.88 540.69 344.408 541.242 344.792 541.962C345.188 542.67 345.386 543.504 345.386 544.464C345.386 545.424 345.188 546.264 344.792 546.984C344.396 547.692 343.862 548.244 343.19 548.64C342.518 549.024 341.75 549.216 340.886 549.216ZM340.904 547.92C341.42 547.92 341.9 547.794 342.344 547.542C342.788 547.278 343.148 546.888 343.424 546.372C343.7 545.856 343.838 545.22 343.838 544.464C343.838 543.696 343.7 543.06 343.424 542.556C343.16 542.04 342.806 541.656 342.362 541.404C341.93 541.14 341.45 541.008 340.922 541.008C340.418 541.008 339.938 541.14 339.482 541.404C339.038 541.656 338.678 542.04 338.402 542.556C338.138 543.06 338.006 543.696 338.006 544.464C338.006 545.22 338.138 545.856 338.402 546.372C338.678 546.888 339.032 547.278 339.464 547.542C339.908 547.794 340.388 547.92 340.904 547.92ZM347.506 549V539.928H348.874L348.964 541.224C349.252 540.756 349.636 540.39 350.116 540.126C350.608 539.85 351.142 539.712 351.718 539.712C352.186 539.712 352.606 539.778 352.978 539.91C353.362 540.03 353.698 540.222 353.986 540.486C354.274 540.738 354.508 541.062 354.688 541.458C355 540.906 355.426 540.48 355.966 540.18C356.518 539.868 357.106 539.712 357.73 539.712C358.426 539.712 359.032 539.856 359.548 540.144C360.076 540.42 360.478 540.846 360.754 541.422C361.042 541.986 361.186 542.706 361.186 543.582V549H359.692V543.744C359.692 542.832 359.506 542.148 359.134 541.692C358.762 541.236 358.24 541.008 357.568 541.008C357.1 541.008 356.68 541.134 356.308 541.386C355.936 541.626 355.642 541.98 355.426 542.448C355.21 542.916 355.102 543.492 355.102 544.176V549H353.59V543.744C353.59 542.832 353.404 542.148 353.032 541.692C352.66 541.236 352.132 541.008 351.448 541.008C350.992 541.008 350.578 541.134 350.206 541.386C349.846 541.626 349.558 541.98 349.342 542.448C349.126 542.916 349.018 543.492 349.018 544.176V549H347.506ZM25.0364 572.216C24.2804 572.216 23.6204 572.09 23.0564 571.838C22.5044 571.586 22.0604 571.238 21.7244 570.794C21.4004 570.338 21.2024 569.804 21.1304 569.192H22.6784C22.7384 569.504 22.8644 569.792 23.0564 570.056C23.2484 570.32 23.5064 570.536 23.8304 570.704C24.1664 570.86 24.5744 570.938 25.0544 570.938C25.4744 570.938 25.8224 570.878 26.0984 570.758C26.3744 570.626 26.5784 570.452 26.7104 570.236C26.8544 570.02 26.9264 569.786 26.9264 569.534C26.9264 569.162 26.8364 568.88 26.6564 568.688C26.4884 568.496 26.2364 568.346 25.9004 568.238C25.5644 568.118 25.1564 568.016 24.6764 567.932C24.2804 567.86 23.8904 567.764 23.5064 567.644C23.1224 567.524 22.7804 567.368 22.4804 567.176C22.1804 566.972 21.9404 566.726 21.7604 566.438C21.5924 566.15 21.5084 565.796 21.5084 565.376C21.5084 564.86 21.6404 564.404 21.9044 564.008C22.1684 563.6 22.5464 563.282 23.0384 563.054C23.5424 562.826 24.1244 562.712 24.7844 562.712C25.7564 562.712 26.5424 562.946 27.1424 563.414C27.7424 563.882 28.0964 564.56 28.2044 565.448H26.7104C26.6504 564.992 26.4524 564.638 26.1164 564.386C25.7924 564.122 25.3424 563.99 24.7664 563.99C24.2024 563.99 23.7704 564.104 23.4704 564.332C23.1824 564.56 23.0384 564.86 23.0384 565.232C23.0384 565.472 23.1164 565.688 23.2724 565.88C23.4404 566.06 23.6804 566.216 23.9924 566.348C24.3164 566.48 24.7124 566.588 25.1804 566.672C25.7804 566.78 26.3264 566.924 26.8184 567.104C27.3104 567.284 27.7064 567.554 28.0064 567.914C28.3184 568.262 28.4744 568.76 28.4744 569.408C28.4744 569.972 28.3304 570.464 28.0424 570.884C27.7664 571.304 27.3704 571.634 26.8544 571.874C26.3384 572.102 25.7324 572.216 25.0364 572.216ZM34.6296 572.216C33.7776 572.216 33.0216 572.018 32.3616 571.622C31.7136 571.226 31.2036 570.674 30.8316 569.966C30.4596 569.246 30.2736 568.412 30.2736 567.464C30.2736 566.504 30.4536 565.67 30.8136 564.962C31.1856 564.254 31.7016 563.702 32.3616 563.306C33.0336 562.91 33.8016 562.712 34.6656 562.712C35.5536 562.712 36.3036 562.91 36.9156 563.306C37.5396 563.702 38.0136 564.224 38.3376 564.872C38.6736 565.508 38.8416 566.21 38.8416 566.978C38.8416 567.098 38.8416 567.224 38.8416 567.356C38.8416 567.488 38.8356 567.638 38.8236 567.806H31.4076V566.636H37.3656C37.3296 565.808 37.0536 565.16 36.5376 564.692C36.0336 564.224 35.3976 563.99 34.6296 563.99C34.1136 563.99 33.6336 564.11 33.1896 564.35C32.7576 564.578 32.4096 564.92 32.1456 565.376C31.8816 565.82 31.7496 566.378 31.7496 567.05V567.554C31.7496 568.298 31.8816 568.922 32.1456 569.426C32.4216 569.93 32.7756 570.308 33.2076 570.56C33.6516 570.812 34.1256 570.938 34.6296 570.938C35.2656 570.938 35.7876 570.8 36.1956 570.524C36.6156 570.236 36.9156 569.852 37.0956 569.372H38.5896C38.4456 569.912 38.1936 570.398 37.8336 570.83C37.4736 571.262 37.0236 571.604 36.4836 571.856C35.9556 572.096 35.3376 572.216 34.6296 572.216ZM40.8821 572V562.928H42.2501L42.3221 564.512C42.6101 563.948 43.0181 563.51 43.5461 563.198C44.0861 562.874 44.6981 562.712 45.3821 562.712C46.0901 562.712 46.7021 562.856 47.2181 563.144C47.7341 563.42 48.1361 563.846 48.4241 564.422C48.7121 564.986 48.8561 565.706 48.8561 566.582V572H47.3441V566.744C47.3441 565.832 47.1401 565.148 46.7321 564.692C46.3361 564.236 45.7721 564.008 45.0401 564.008C44.5361 564.008 44.0861 564.134 43.6901 564.386C43.2941 564.626 42.9761 564.98 42.7361 565.448C42.5081 565.904 42.3941 566.474 42.3941 567.158V572H40.8821ZM54.638 572.216C53.882 572.216 53.222 572.09 52.658 571.838C52.106 571.586 51.662 571.238 51.326 570.794C51.002 570.338 50.804 569.804 50.732 569.192H52.28C52.34 569.504 52.466 569.792 52.658 570.056C52.85 570.32 53.108 570.536 53.432 570.704C53.768 570.86 54.176 570.938 54.656 570.938C55.076 570.938 55.424 570.878 55.7 570.758C55.976 570.626 56.18 570.452 56.312 570.236C56.456 570.02 56.528 569.786 56.528 569.534C56.528 569.162 56.438 568.88 56.258 568.688C56.09 568.496 55.838 568.346 55.502 568.238C55.166 568.118 54.758 568.016 54.278 567.932C53.882 567.86 53.492 567.764 53.108 567.644C52.724 567.524 52.382 567.368 52.082 567.176C51.782 566.972 51.542 566.726 51.362 566.438C51.194 566.15 51.11 565.796 51.11 565.376C51.11 564.86 51.242 564.404 51.506 564.008C51.77 563.6 52.148 563.282 52.64 563.054C53.144 562.826 53.726 562.712 54.386 562.712C55.358 562.712 56.144 562.946 56.744 563.414C57.344 563.882 57.698 564.56 57.806 565.448H56.312C56.252 564.992 56.054 564.638 55.718 564.386C55.394 564.122 54.944 563.99 54.368 563.99C53.804 563.99 53.372 564.104 53.072 564.332C52.784 564.56 52.64 564.86 52.64 565.232C52.64 565.472 52.718 565.688 52.874 565.88C53.042 566.06 53.282 566.216 53.594 566.348C53.918 566.48 54.314 566.588 54.782 566.672C55.382 566.78 55.928 566.924 56.42 567.104C56.912 567.284 57.308 567.554 57.608 567.914C57.92 568.262 58.076 568.76 58.076 569.408C58.076 569.972 57.932 570.464 57.644 570.884C57.368 571.304 56.972 571.634 56.456 571.874C55.94 572.102 55.334 572.216 54.638 572.216ZM63.5472 572.216C62.8512 572.216 62.2392 572.078 61.7112 571.802C61.1952 571.526 60.7932 571.1 60.5052 570.524C60.2292 569.948 60.0912 569.228 60.0912 568.364V562.928H61.6032V568.202C61.6032 569.102 61.8012 569.78 62.1972 570.236C62.5932 570.692 63.1512 570.92 63.8712 570.92C64.3752 570.92 64.8312 570.8 65.2392 570.56C65.6472 570.308 65.9652 569.954 66.1932 569.498C66.4332 569.03 66.5532 568.46 66.5532 567.788V562.928H68.0652V572H66.6972L66.6072 570.416C66.3312 570.98 65.9232 571.424 65.3832 571.748C64.8432 572.06 64.2312 572.216 63.5472 572.216ZM73.5235 572.216C72.7915 572.216 72.1795 572.09 71.6875 571.838C71.1955 571.574 70.8295 571.232 70.5895 570.812C70.3495 570.38 70.2295 569.912 70.2295 569.408C70.2295 568.796 70.3855 568.28 70.6975 567.86C71.0215 567.428 71.4715 567.104 72.0475 566.888C72.6355 566.66 73.3255 566.546 74.1175 566.546H76.5115C76.5115 565.982 76.4215 565.514 76.2415 565.142C76.0735 564.758 75.8215 564.47 75.4855 564.278C75.1615 564.086 74.7535 563.99 74.2615 563.99C73.6855 563.99 73.1875 564.134 72.7675 564.422C72.3475 564.71 72.0895 565.136 71.9935 565.7H70.4455C70.5175 565.052 70.7335 564.512 71.0935 564.08C71.4655 563.636 71.9335 563.3 72.4975 563.072C73.0615 562.832 73.6495 562.712 74.2615 562.712C75.1015 562.712 75.7975 562.868 76.3495 563.18C76.9135 563.48 77.3335 563.906 77.6095 564.458C77.8855 564.998 78.0235 565.64 78.0235 566.384V572H76.6735L76.5835 570.398C76.4635 570.65 76.3075 570.89 76.1155 571.118C75.9355 571.334 75.7195 571.526 75.4675 571.694C75.2155 571.85 74.9275 571.976 74.6035 572.072C74.2915 572.168 73.9315 572.216 73.5235 572.216ZM73.7575 570.938C74.1775 570.938 74.5555 570.854 74.8915 570.686C75.2395 570.506 75.5335 570.266 75.7735 569.966C76.0135 569.654 76.1935 569.312 76.3135 568.94C76.4455 568.568 76.5115 568.178 76.5115 567.77V567.716H74.2435C73.6555 567.716 73.1815 567.788 72.8215 567.932C72.4615 568.064 72.2035 568.256 72.0475 568.508C71.8915 568.748 71.8135 569.024 71.8135 569.336C71.8135 569.66 71.8855 569.942 72.0295 570.182C72.1855 570.422 72.4075 570.608 72.6955 570.74C72.9955 570.872 73.3495 570.938 73.7575 570.938ZM80.3625 572V559.04H81.8745V572H80.3625ZM93.2376 572.216C92.3856 572.216 91.6176 572.018 90.9336 571.622C90.2616 571.226 89.7336 570.674 89.3496 569.966C88.9656 569.246 88.7736 568.418 88.7736 567.482C88.7736 566.522 88.9656 565.688 89.3496 564.98C89.7336 564.272 90.2616 563.72 90.9336 563.324C91.6176 562.916 92.3856 562.712 93.2376 562.712C94.3176 562.712 95.2176 562.994 95.9376 563.558C96.6576 564.11 97.1136 564.854 97.3056 565.79H95.7576C95.6376 565.226 95.3436 564.788 94.8756 564.476C94.4076 564.164 93.8556 564.008 93.2196 564.008C92.7036 564.008 92.2236 564.14 91.7796 564.404C91.3356 564.656 90.9816 565.04 90.7176 565.556C90.4536 566.072 90.3216 566.708 90.3216 567.464C90.3216 568.028 90.3996 568.532 90.5556 568.976C90.7116 569.408 90.9216 569.768 91.1856 570.056C91.4496 570.344 91.7556 570.566 92.1036 570.722C92.4636 570.866 92.8356 570.938 93.2196 570.938C93.6516 570.938 94.0416 570.872 94.3896 570.74C94.7376 570.596 95.0316 570.386 95.2716 570.11C95.5116 569.834 95.6736 569.51 95.7576 569.138H97.3056C97.1136 570.05 96.6516 570.794 95.9196 571.37C95.1996 571.934 94.3056 572.216 93.2376 572.216ZM103.502 572.216C102.662 572.216 101.906 572.024 101.234 571.64C100.562 571.244 100.034 570.692 99.6504 569.984C99.2664 569.264 99.0744 568.43 99.0744 567.482C99.0744 566.51 99.2664 565.67 99.6504 564.962C100.046 564.242 100.58 563.69 101.252 563.306C101.936 562.91 102.698 562.712 103.538 562.712C104.402 562.712 105.164 562.91 105.824 563.306C106.496 563.69 107.024 564.242 107.408 564.962C107.804 565.67 108.002 566.504 108.002 567.464C108.002 568.424 107.804 569.264 107.408 569.984C107.012 570.692 106.478 571.244 105.806 571.64C105.134 572.024 104.366 572.216 103.502 572.216ZM103.52 570.92C104.036 570.92 104.516 570.794 104.96 570.542C105.404 570.278 105.764 569.888 106.04 569.372C106.316 568.856 106.454 568.22 106.454 567.464C106.454 566.696 106.316 566.06 106.04 565.556C105.776 565.04 105.422 564.656 104.978 564.404C104.546 564.14 104.066 564.008 103.538 564.008C103.034 564.008 102.554 564.14 102.098 564.404C101.654 564.656 101.294 565.04 101.018 565.556C100.754 566.06 100.622 566.696 100.622 567.464C100.622 568.22 100.754 568.856 101.018 569.372C101.294 569.888 101.648 570.278 102.08 570.542C102.524 570.794 103.004 570.92 103.52 570.92ZM110.122 572V562.928H111.49L111.562 564.512C111.85 563.948 112.258 563.51 112.786 563.198C113.326 562.874 113.938 562.712 114.622 562.712C115.33 562.712 115.942 562.856 116.458 563.144C116.974 563.42 117.376 563.846 117.664 564.422C117.952 564.986 118.096 565.706 118.096 566.582V572H116.584V566.744C116.584 565.832 116.38 565.148 115.972 564.692C115.576 564.236 115.012 564.008 114.28 564.008C113.776 564.008 113.326 564.134 112.93 564.386C112.534 564.626 112.216 564.98 111.976 565.448C111.748 565.904 111.634 566.474 111.634 567.158V572H110.122ZM124.022 572C123.482 572 123.014 571.916 122.618 571.748C122.222 571.58 121.916 571.298 121.7 570.902C121.496 570.494 121.394 569.948 121.394 569.264V564.206H119.81V562.928H121.394L121.592 560.732H122.906V562.928H125.534V564.206H122.906V569.264C122.906 569.828 123.02 570.212 123.248 570.416C123.476 570.608 123.878 570.704 124.454 570.704H125.426V572H124.022ZM131.239 572.216C130.387 572.216 129.631 572.018 128.971 571.622C128.323 571.226 127.813 570.674 127.441 569.966C127.069 569.246 126.883 568.412 126.883 567.464C126.883 566.504 127.063 565.67 127.423 564.962C127.795 564.254 128.311 563.702 128.971 563.306C129.643 562.91 130.411 562.712 131.275 562.712C132.163 562.712 132.913 562.91 133.525 563.306C134.149 563.702 134.623 564.224 134.947 564.872C135.283 565.508 135.451 566.21 135.451 566.978C135.451 567.098 135.451 567.224 135.451 567.356C135.451 567.488 135.445 567.638 135.433 567.806H128.017V566.636H133.975C133.939 565.808 133.663 565.16 133.147 564.692C132.643 564.224 132.007 563.99 131.239 563.99C130.723 563.99 130.243 564.11 129.799 564.35C129.367 564.578 129.019 564.92 128.755 565.376C128.491 565.82 128.359 566.378 128.359 567.05V567.554C128.359 568.298 128.491 568.922 128.755 569.426C129.031 569.93 129.385 570.308 129.817 570.56C130.261 570.812 130.735 570.938 131.239 570.938C131.875 570.938 132.397 570.8 132.805 570.524C133.225 570.236 133.525 569.852 133.705 569.372H135.199C135.055 569.912 134.803 570.398 134.443 570.83C134.083 571.262 133.633 571.604 133.093 571.856C132.565 572.096 131.947 572.216 131.239 572.216ZM137.491 572V562.928H138.859L138.931 564.512C139.219 563.948 139.627 563.51 140.155 563.198C140.695 562.874 141.307 562.712 141.991 562.712C142.699 562.712 143.311 562.856 143.827 563.144C144.343 563.42 144.745 563.846 145.033 564.422C145.321 564.986 145.465 565.706 145.465 566.582V572H143.953V566.744C143.953 565.832 143.749 565.148 143.341 564.692C142.945 564.236 142.381 564.008 141.649 564.008C141.145 564.008 140.695 564.134 140.299 564.386C139.903 564.626 139.585 564.98 139.345 565.448C139.117 565.904 139.003 566.474 139.003 567.158V572H137.491ZM151.391 572C150.851 572 150.383 571.916 149.987 571.748C149.591 571.58 149.285 571.298 149.069 570.902C148.865 570.494 148.763 569.948 148.763 569.264V564.206H147.179V562.928H148.763L148.961 560.732H150.275V562.928H152.903V564.206H150.275V569.264C150.275 569.828 150.389 570.212 150.617 570.416C150.845 570.608 151.247 570.704 151.823 570.704H152.795V572H151.391ZM163.221 572C162.681 572 162.213 571.916 161.817 571.748C161.421 571.58 161.115 571.298 160.899 570.902C160.695 570.494 160.593 569.948 160.593 569.264V564.206H159.009V562.928H160.593L160.791 560.732H162.105V562.928H164.733V564.206H162.105V569.264C162.105 569.828 162.219 570.212 162.447 570.416C162.675 570.608 163.077 570.704 163.653 570.704H164.625V572H163.221ZM170.51 572.216C169.67 572.216 168.914 572.024 168.242 571.64C167.57 571.244 167.042 570.692 166.658 569.984C166.274 569.264 166.082 568.43 166.082 567.482C166.082 566.51 166.274 565.67 166.658 564.962C167.054 564.242 167.588 563.69 168.26 563.306C168.944 562.91 169.706 562.712 170.546 562.712C171.41 562.712 172.172 562.91 172.832 563.306C173.504 563.69 174.032 564.242 174.416 564.962C174.812 565.67 175.01 566.504 175.01 567.464C175.01 568.424 174.812 569.264 174.416 569.984C174.02 570.692 173.486 571.244 172.814 571.64C172.142 572.024 171.374 572.216 170.51 572.216ZM170.528 570.92C171.044 570.92 171.524 570.794 171.968 570.542C172.412 570.278 172.772 569.888 173.048 569.372C173.324 568.856 173.462 568.22 173.462 567.464C173.462 566.696 173.324 566.06 173.048 565.556C172.784 565.04 172.43 564.656 171.986 564.404C171.554 564.14 171.074 564.008 170.546 564.008C170.042 564.008 169.562 564.14 169.106 564.404C168.662 564.656 168.302 565.04 168.026 565.556C167.762 566.06 167.63 566.696 167.63 567.464C167.63 568.22 167.762 568.856 168.026 569.372C168.302 569.888 168.656 570.278 169.088 570.542C169.532 570.794 170.012 570.92 170.528 570.92ZM185.475 576.176C184.659 576.176 183.939 576.068 183.315 575.852C182.691 575.648 182.199 575.33 181.839 574.898C181.491 574.466 181.317 573.932 181.317 573.296C181.317 573.032 181.371 572.744 181.479 572.432C181.599 572.12 181.797 571.814 182.073 571.514C182.361 571.214 182.763 570.944 183.279 570.704L184.323 571.316C183.699 571.58 183.285 571.88 183.081 572.216C182.889 572.552 182.793 572.864 182.793 573.152C182.793 573.548 182.907 573.878 183.135 574.142C183.375 574.406 183.693 574.604 184.089 574.736C184.497 574.868 184.959 574.934 185.475 574.934C185.979 574.934 186.417 574.856 186.789 574.7C187.161 574.556 187.449 574.352 187.653 574.088C187.857 573.824 187.959 573.518 187.959 573.17C187.959 572.762 187.803 572.414 187.491 572.126C187.179 571.85 186.591 571.688 185.727 571.64C185.019 571.592 184.425 571.526 183.945 571.442C183.477 571.358 183.081 571.262 182.757 571.154C182.445 571.034 182.181 570.902 181.965 570.758C181.761 570.614 181.575 570.464 181.407 570.308V569.894L183.171 568.148L184.467 568.616L182.667 570.254L182.901 569.624C183.033 569.72 183.159 569.81 183.279 569.894C183.399 569.978 183.561 570.05 183.765 570.11C183.981 570.17 184.269 570.224 184.629 570.272C184.989 570.32 185.469 570.368 186.069 570.416C186.885 570.476 187.539 570.62 188.031 570.848C188.535 571.076 188.895 571.382 189.111 571.766C189.339 572.15 189.453 572.6 189.453 573.116C189.453 573.62 189.309 574.106 189.021 574.574C188.745 575.042 188.313 575.426 187.725 575.726C187.137 576.026 186.387 576.176 185.475 576.176ZM185.457 569.174C184.701 569.174 184.053 569.03 183.513 568.742C182.985 568.454 182.583 568.07 182.307 567.59C182.031 567.11 181.893 566.57 181.893 565.97C181.893 565.382 182.031 564.848 182.307 564.368C182.595 563.888 183.003 563.504 183.531 563.216C184.059 562.916 184.701 562.766 185.457 562.766C186.213 562.766 186.855 562.916 187.383 563.216C187.911 563.504 188.313 563.888 188.589 564.368C188.865 564.848 189.003 565.382 189.003 565.97C189.003 566.57 188.865 567.11 188.589 567.59C188.313 568.07 187.911 568.454 187.383 568.742C186.855 569.03 186.213 569.174 185.457 569.174ZM185.457 567.932C186.093 567.932 186.597 567.764 186.969 567.428C187.353 567.092 187.545 566.606 187.545 565.97C187.545 565.346 187.353 564.866 186.969 564.53C186.597 564.194 186.093 564.026 185.457 564.026C184.821 564.026 184.305 564.194 183.909 564.53C183.525 564.866 183.333 565.346 183.333 565.97C183.333 566.606 183.525 567.092 183.909 567.428C184.293 567.764 184.809 567.932 185.457 567.932ZM186.915 564.26L186.465 562.982H190.173V564.116L186.915 564.26ZM194.9 572.216C194.168 572.216 193.556 572.09 193.064 571.838C192.572 571.574 192.206 571.232 191.966 570.812C191.726 570.38 191.606 569.912 191.606 569.408C191.606 568.796 191.762 568.28 192.074 567.86C192.398 567.428 192.848 567.104 193.424 566.888C194.012 566.66 194.702 566.546 195.494 566.546H197.888C197.888 565.982 197.798 565.514 197.618 565.142C197.45 564.758 197.198 564.47 196.862 564.278C196.538 564.086 196.13 563.99 195.638 563.99C195.062 563.99 194.564 564.134 194.144 564.422C193.724 564.71 193.466 565.136 193.37 565.7H191.822C191.894 565.052 192.11 564.512 192.47 564.08C192.842 563.636 193.31 563.3 193.874 563.072C194.438 562.832 195.026 562.712 195.638 562.712C196.478 562.712 197.174 562.868 197.726 563.18C198.29 563.48 198.71 563.906 198.986 564.458C199.262 564.998 199.4 565.64 199.4 566.384V572H198.05L197.96 570.398C197.84 570.65 197.684 570.89 197.492 571.118C197.312 571.334 197.096 571.526 196.844 571.694C196.592 571.85 196.304 571.976 195.98 572.072C195.668 572.168 195.308 572.216 194.9 572.216ZM195.134 570.938C195.554 570.938 195.932 570.854 196.268 570.686C196.616 570.506 196.91 570.266 197.15 569.966C197.39 569.654 197.57 569.312 197.69 568.94C197.822 568.568 197.888 568.178 197.888 567.77V567.716H195.62C195.032 567.716 194.558 567.788 194.198 567.932C193.838 568.064 193.58 568.256 193.424 568.508C193.268 568.748 193.19 569.024 193.19 569.336C193.19 569.66 193.262 569.942 193.406 570.182C193.562 570.422 193.784 570.608 194.072 570.74C194.372 570.872 194.726 570.938 195.134 570.938ZM201.739 572V562.928H203.107L203.197 564.224C203.485 563.756 203.869 563.39 204.349 563.126C204.841 562.85 205.375 562.712 205.951 562.712C206.419 562.712 206.839 562.778 207.211 562.91C207.595 563.03 207.931 563.222 208.219 563.486C208.507 563.738 208.741 564.062 208.921 564.458C209.233 563.906 209.659 563.48 210.199 563.18C210.751 562.868 211.339 562.712 211.963 562.712C212.659 562.712 213.265 562.856 213.781 563.144C214.309 563.42 214.711 563.846 214.987 564.422C215.275 564.986 215.419 565.706 215.419 566.582V572H213.925V566.744C213.925 565.832 213.739 565.148 213.367 564.692C212.995 564.236 212.473 564.008 211.801 564.008C211.333 564.008 210.913 564.134 210.541 564.386C210.169 564.626 209.875 564.98 209.659 565.448C209.443 565.916 209.335 566.492 209.335 567.176V572H207.823V566.744C207.823 565.832 207.637 565.148 207.265 564.692C206.893 564.236 206.365 564.008 205.681 564.008C205.225 564.008 204.811 564.134 204.439 564.386C204.079 564.626 203.791 564.98 203.575 565.448C203.359 565.916 203.251 566.492 203.251 567.176V572H201.739ZM217.915 572V562.928H219.427V572H217.915ZM218.671 561.002C218.371 561.002 218.119 560.906 217.915 560.714C217.723 560.51 217.627 560.258 217.627 559.958C217.627 559.658 217.723 559.418 217.915 559.238C218.119 559.046 218.371 558.95 218.671 558.95C218.959 558.95 219.205 559.046 219.409 559.238C219.613 559.418 219.715 559.658 219.715 559.958C219.715 560.258 219.613 560.51 219.409 560.714C219.205 560.906 218.959 561.002 218.671 561.002ZM222.095 572V562.928H223.463L223.535 564.512C223.823 563.948 224.231 563.51 224.759 563.198C225.299 562.874 225.911 562.712 226.595 562.712C227.303 562.712 227.915 562.856 228.431 563.144C228.947 563.42 229.349 563.846 229.637 564.422C229.925 564.986 230.069 565.706 230.069 566.582V572H228.557V566.744C228.557 565.832 228.353 565.148 227.945 564.692C227.549 564.236 226.985 564.008 226.253 564.008C225.749 564.008 225.299 564.134 224.903 564.386C224.507 564.626 224.189 564.98 223.949 565.448C223.721 565.904 223.607 566.474 223.607 567.158V572H222.095ZM235.995 576.176C235.179 576.176 234.459 576.068 233.835 575.852C233.211 575.648 232.719 575.33 232.359 574.898C232.011 574.466 231.837 573.932 231.837 573.296C231.837 573.032 231.891 572.744 231.999 572.432C232.119 572.12 232.317 571.814 232.593 571.514C232.881 571.214 233.283 570.944 233.799 570.704L234.843 571.316C234.219 571.58 233.805 571.88 233.601 572.216C233.409 572.552 233.313 572.864 233.313 573.152C233.313 573.548 233.427 573.878 233.655 574.142C233.895 574.406 234.213 574.604 234.609 574.736C235.017 574.868 235.479 574.934 235.995 574.934C236.499 574.934 236.937 574.856 237.309 574.7C237.681 574.556 237.969 574.352 238.173 574.088C238.377 573.824 238.479 573.518 238.479 573.17C238.479 572.762 238.323 572.414 238.011 572.126C237.699 571.85 237.111 571.688 236.247 571.64C235.539 571.592 234.945 571.526 234.465 571.442C233.997 571.358 233.601 571.262 233.277 571.154C232.965 571.034 232.701 570.902 232.485 570.758C232.281 570.614 232.095 570.464 231.927 570.308V569.894L233.691 568.148L234.987 568.616L233.187 570.254L233.421 569.624C233.553 569.72 233.679 569.81 233.799 569.894C233.919 569.978 234.081 570.05 234.285 570.11C234.501 570.17 234.789 570.224 235.149 570.272C235.509 570.32 235.989 570.368 236.589 570.416C237.405 570.476 238.059 570.62 238.551 570.848C239.055 571.076 239.415 571.382 239.631 571.766C239.859 572.15 239.973 572.6 239.973 573.116C239.973 573.62 239.829 574.106 239.541 574.574C239.265 575.042 238.833 575.426 238.245 575.726C237.657 576.026 236.907 576.176 235.995 576.176ZM235.977 569.174C235.221 569.174 234.573 569.03 234.033 568.742C233.505 568.454 233.103 568.07 232.827 567.59C232.551 567.11 232.413 566.57 232.413 565.97C232.413 565.382 232.551 564.848 232.827 564.368C233.115 563.888 233.523 563.504 234.051 563.216C234.579 562.916 235.221 562.766 235.977 562.766C236.733 562.766 237.375 562.916 237.903 563.216C238.431 563.504 238.833 563.888 239.109 564.368C239.385 564.848 239.523 565.382 239.523 565.97C239.523 566.57 239.385 567.11 239.109 567.59C238.833 568.07 238.431 568.454 237.903 568.742C237.375 569.03 236.733 569.174 235.977 569.174ZM235.977 567.932C236.613 567.932 237.117 567.764 237.489 567.428C237.873 567.092 238.065 566.606 238.065 565.97C238.065 565.346 237.873 564.866 237.489 564.53C237.117 564.194 236.613 564.026 235.977 564.026C235.341 564.026 234.825 564.194 234.429 564.53C234.045 564.866 233.853 565.346 233.853 565.97C233.853 566.606 234.045 567.092 234.429 567.428C234.813 567.764 235.329 567.932 235.977 567.932ZM237.435 564.26L236.985 562.982H240.693V564.116L237.435 564.26ZM250.201 572.216C249.469 572.216 248.857 572.09 248.365 571.838C247.873 571.574 247.507 571.232 247.267 570.812C247.027 570.38 246.907 569.912 246.907 569.408C246.907 568.796 247.063 568.28 247.375 567.86C247.699 567.428 248.149 567.104 248.725 566.888C249.313 566.66 250.003 566.546 250.795 566.546H253.189C253.189 565.982 253.099 565.514 252.919 565.142C252.751 564.758 252.499 564.47 252.163 564.278C251.839 564.086 251.431 563.99 250.939 563.99C250.363 563.99 249.865 564.134 249.445 564.422C249.025 564.71 248.767 565.136 248.671 565.7H247.123C247.195 565.052 247.411 564.512 247.771 564.08C248.143 563.636 248.611 563.3 249.175 563.072C249.739 562.832 250.327 562.712 250.939 562.712C251.779 562.712 252.475 562.868 253.027 563.18C253.591 563.48 254.011 563.906 254.287 564.458C254.563 564.998 254.701 565.64 254.701 566.384V572H253.351L253.261 570.398C253.141 570.65 252.985 570.89 252.793 571.118C252.613 571.334 252.397 571.526 252.145 571.694C251.893 571.85 251.605 571.976 251.281 572.072C250.969 572.168 250.609 572.216 250.201 572.216ZM250.435 570.938C250.855 570.938 251.233 570.854 251.569 570.686C251.917 570.506 252.211 570.266 252.451 569.966C252.691 569.654 252.871 569.312 252.991 568.94C253.123 568.568 253.189 568.178 253.189 567.77V567.716H250.921C250.333 567.716 249.859 567.788 249.499 567.932C249.139 568.064 248.881 568.256 248.725 568.508C248.569 568.748 248.491 569.024 248.491 569.336C248.491 569.66 248.563 569.942 248.707 570.182C248.863 570.422 249.085 570.608 249.373 570.74C249.673 570.872 250.027 570.938 250.435 570.938ZM257.04 572V562.928H258.408L258.48 564.512C258.768 563.948 259.176 563.51 259.704 563.198C260.244 562.874 260.856 562.712 261.54 562.712C262.248 562.712 262.86 562.856 263.376 563.144C263.892 563.42 264.294 563.846 264.582 564.422C264.87 564.986 265.014 565.706 265.014 566.582V572H263.502V566.744C263.502 565.832 263.298 565.148 262.89 564.692C262.494 564.236 261.93 564.008 261.198 564.008C260.694 564.008 260.244 564.134 259.848 564.386C259.452 564.626 259.134 564.98 258.894 565.448C258.666 565.904 258.552 566.474 258.552 567.158V572H257.04ZM271.372 572.216C270.496 572.216 269.728 572.012 269.068 571.604C268.408 571.184 267.898 570.614 267.538 569.894C267.178 569.174 266.998 568.358 266.998 567.446C266.998 566.534 267.178 565.724 267.538 565.016C267.898 564.296 268.408 563.732 269.068 563.324C269.74 562.916 270.514 562.712 271.39 562.712C272.134 562.712 272.782 562.862 273.334 563.162C273.898 563.462 274.33 563.882 274.63 564.422V559.04H276.142V572H274.774L274.648 570.506C274.456 570.806 274.21 571.088 273.91 571.352C273.61 571.604 273.25 571.814 272.83 571.982C272.41 572.138 271.924 572.216 271.372 572.216ZM271.552 570.902C272.152 570.902 272.68 570.758 273.136 570.47C273.592 570.182 273.946 569.786 274.198 569.282C274.45 568.766 274.576 568.16 274.576 567.464C274.576 566.78 274.45 566.18 274.198 565.664C273.946 565.148 273.592 564.746 273.136 564.458C272.68 564.17 272.152 564.026 271.552 564.026C270.964 564.026 270.442 564.17 269.986 564.458C269.53 564.746 269.176 565.148 268.924 565.664C268.672 566.18 268.546 566.78 268.546 567.464C268.546 568.16 268.672 568.766 268.924 569.282C269.176 569.786 269.53 570.182 269.986 570.47C270.442 570.758 270.964 570.902 271.552 570.902ZM287.007 576.176C286.191 576.176 285.471 576.068 284.847 575.852C284.223 575.648 283.731 575.33 283.371 574.898C283.023 574.466 282.849 573.932 282.849 573.296C282.849 573.032 282.903 572.744 283.011 572.432C283.131 572.12 283.329 571.814 283.605 571.514C283.893 571.214 284.295 570.944 284.811 570.704L285.855 571.316C285.231 571.58 284.817 571.88 284.613 572.216C284.421 572.552 284.325 572.864 284.325 573.152C284.325 573.548 284.439 573.878 284.667 574.142C284.907 574.406 285.225 574.604 285.621 574.736C286.029 574.868 286.491 574.934 287.007 574.934C287.511 574.934 287.949 574.856 288.321 574.7C288.693 574.556 288.981 574.352 289.185 574.088C289.389 573.824 289.491 573.518 289.491 573.17C289.491 572.762 289.335 572.414 289.023 572.126C288.711 571.85 288.123 571.688 287.259 571.64C286.551 571.592 285.957 571.526 285.477 571.442C285.009 571.358 284.613 571.262 284.289 571.154C283.977 571.034 283.713 570.902 283.497 570.758C283.293 570.614 283.107 570.464 282.939 570.308V569.894L284.703 568.148L285.999 568.616L284.199 570.254L284.433 569.624C284.565 569.72 284.691 569.81 284.811 569.894C284.931 569.978 285.093 570.05 285.297 570.11C285.513 570.17 285.801 570.224 286.161 570.272C286.521 570.32 287.001 570.368 287.601 570.416C288.417 570.476 289.071 570.62 289.563 570.848C290.067 571.076 290.427 571.382 290.643 571.766C290.871 572.15 290.985 572.6 290.985 573.116C290.985 573.62 290.841 574.106 290.553 574.574C290.277 575.042 289.845 575.426 289.257 575.726C288.669 576.026 287.919 576.176 287.007 576.176ZM286.989 569.174C286.233 569.174 285.585 569.03 285.045 568.742C284.517 568.454 284.115 568.07 283.839 567.59C283.563 567.11 283.425 566.57 283.425 565.97C283.425 565.382 283.563 564.848 283.839 564.368C284.127 563.888 284.535 563.504 285.063 563.216C285.591 562.916 286.233 562.766 286.989 562.766C287.745 562.766 288.387 562.916 288.915 563.216C289.443 563.504 289.845 563.888 290.121 564.368C290.397 564.848 290.535 565.382 290.535 565.97C290.535 566.57 290.397 567.11 290.121 567.59C289.845 568.07 289.443 568.454 288.915 568.742C288.387 569.03 287.745 569.174 286.989 569.174ZM286.989 567.932C287.625 567.932 288.129 567.764 288.501 567.428C288.885 567.092 289.077 566.606 289.077 565.97C289.077 565.346 288.885 564.866 288.501 564.53C288.129 564.194 287.625 564.026 286.989 564.026C286.353 564.026 285.837 564.194 285.441 564.53C285.057 564.866 284.865 565.346 284.865 565.97C284.865 566.606 285.057 567.092 285.441 567.428C285.825 567.764 286.341 567.932 286.989 567.932ZM288.447 564.26L287.997 562.982H291.705V564.116L288.447 564.26ZM297.106 572.216C296.254 572.216 295.498 572.018 294.838 571.622C294.19 571.226 293.68 570.674 293.308 569.966C292.936 569.246 292.75 568.412 292.75 567.464C292.75 566.504 292.93 565.67 293.29 564.962C293.662 564.254 294.178 563.702 294.838 563.306C295.51 562.91 296.278 562.712 297.142 562.712C298.03 562.712 298.78 562.91 299.392 563.306C300.016 563.702 300.49 564.224 300.814 564.872C301.15 565.508 301.318 566.21 301.318 566.978C301.318 567.098 301.318 567.224 301.318 567.356C301.318 567.488 301.312 567.638 301.3 567.806H293.884V566.636H299.842C299.806 565.808 299.53 565.16 299.014 564.692C298.51 564.224 297.874 563.99 297.106 563.99C296.59 563.99 296.11 564.11 295.666 564.35C295.234 564.578 294.886 564.92 294.622 565.376C294.358 565.82 294.226 566.378 294.226 567.05V567.554C294.226 568.298 294.358 568.922 294.622 569.426C294.898 569.93 295.252 570.308 295.684 570.56C296.128 570.812 296.602 570.938 297.106 570.938C297.742 570.938 298.264 570.8 298.672 570.524C299.092 570.236 299.392 569.852 299.572 569.372H301.066C300.922 569.912 300.67 570.398 300.31 570.83C299.95 571.262 299.5 571.604 298.96 571.856C298.432 572.096 297.814 572.216 297.106 572.216ZM303.359 572V562.928H304.727L304.799 564.512C305.087 563.948 305.495 563.51 306.023 563.198C306.563 562.874 307.175 562.712 307.859 562.712C308.567 562.712 309.179 562.856 309.695 563.144C310.211 563.42 310.613 563.846 310.901 564.422C311.189 564.986 311.333 565.706 311.333 566.582V572H309.821V566.744C309.821 565.832 309.617 565.148 309.209 564.692C308.813 564.236 308.249 564.008 307.517 564.008C307.013 564.008 306.563 564.134 306.167 564.386C305.771 564.626 305.453 564.98 305.213 565.448C304.985 565.904 304.871 566.474 304.871 567.158V572H303.359ZM316.989 572.216C316.293 572.216 315.681 572.078 315.153 571.802C314.637 571.526 314.235 571.1 313.947 570.524C313.671 569.948 313.533 569.228 313.533 568.364V562.928H315.045V568.202C315.045 569.102 315.243 569.78 315.639 570.236C316.035 570.692 316.593 570.92 317.313 570.92C317.817 570.92 318.273 570.8 318.681 570.56C319.089 570.308 319.407 569.954 319.635 569.498C319.875 569.03 319.995 568.46 319.995 567.788V562.928H321.507V572H320.139L320.049 570.416C319.773 570.98 319.365 571.424 318.825 571.748C318.285 572.06 317.673 572.216 316.989 572.216ZM324.157 572V562.928H325.669V572H324.157ZM324.913 561.002C324.613 561.002 324.361 560.906 324.157 560.714C323.965 560.51 323.869 560.258 323.869 559.958C323.869 559.658 323.965 559.418 324.157 559.238C324.361 559.046 324.613 558.95 324.913 558.95C325.201 558.95 325.447 559.046 325.651 559.238C325.855 559.418 325.957 559.658 325.957 559.958C325.957 560.258 325.855 560.51 325.651 560.714C325.447 560.906 325.201 561.002 324.913 561.002ZM328.337 572V562.928H329.705L329.777 564.512C330.065 563.948 330.473 563.51 331.001 563.198C331.541 562.874 332.153 562.712 332.837 562.712C333.545 562.712 334.157 562.856 334.673 563.144C335.189 563.42 335.591 563.846 335.879 564.422C336.167 564.986 336.311 565.706 336.311 566.582V572H334.799V566.744C334.799 565.832 334.595 565.148 334.187 564.692C333.791 564.236 333.227 564.008 332.495 564.008C331.991 564.008 331.541 564.134 331.145 564.386C330.749 564.626 330.431 564.98 330.191 565.448C329.963 565.904 329.849 566.474 329.849 567.158V572H328.337ZM342.651 572.216C341.799 572.216 341.043 572.018 340.383 571.622C339.735 571.226 339.225 570.674 338.853 569.966C338.481 569.246 338.295 568.412 338.295 567.464C338.295 566.504 338.475 565.67 338.835 564.962C339.207 564.254 339.723 563.702 340.383 563.306C341.055 562.91 341.823 562.712 342.687 562.712C343.575 562.712 344.325 562.91 344.937 563.306C345.561 563.702 346.035 564.224 346.359 564.872C346.695 565.508 346.863 566.21 346.863 566.978C346.863 567.098 346.863 567.224 346.863 567.356C346.863 567.488 346.857 567.638 346.845 567.806H339.429V566.636H345.387C345.351 565.808 345.075 565.16 344.559 564.692C344.055 564.224 343.419 563.99 342.651 563.99C342.135 563.99 341.655 564.11 341.211 564.35C340.779 564.578 340.431 564.92 340.167 565.376C339.903 565.82 339.771 566.378 339.771 567.05V567.554C339.771 568.298 339.903 568.922 340.167 569.426C340.443 569.93 340.797 570.308 341.229 570.56C341.673 570.812 342.147 570.938 342.651 570.938C343.287 570.938 343.809 570.8 344.217 570.524C344.637 570.236 344.937 569.852 345.117 569.372H346.611C346.467 569.912 346.215 570.398 345.855 570.83C345.495 571.262 345.045 571.604 344.505 571.856C343.977 572.096 343.359 572.216 342.651 572.216ZM133.812 595V585.928H135.324V595H133.812ZM134.568 584.002C134.268 584.002 134.016 583.906 133.812 583.714C133.62 583.51 133.524 583.258 133.524 582.958C133.524 582.658 133.62 582.418 133.812 582.238C134.016 582.046 134.268 581.95 134.568 581.95C134.856 581.95 135.102 582.046 135.306 582.238C135.51 582.418 135.612 582.658 135.612 582.958C135.612 583.258 135.51 583.51 135.306 583.714C135.102 583.906 134.856 584.002 134.568 584.002ZM137.992 595V585.928H139.36L139.432 587.512C139.72 586.948 140.128 586.51 140.656 586.198C141.196 585.874 141.808 585.712 142.492 585.712C143.2 585.712 143.812 585.856 144.328 586.144C144.844 586.42 145.246 586.846 145.534 587.422C145.822 587.986 145.966 588.706 145.966 589.582V595H144.454V589.744C144.454 588.832 144.25 588.148 143.842 587.692C143.446 587.236 142.882 587.008 142.15 587.008C141.646 587.008 141.196 587.134 140.8 587.386C140.404 587.626 140.086 587.98 139.846 588.448C139.618 588.904 139.504 589.474 139.504 590.158V595H137.992ZM151.892 595C151.352 595 150.884 594.916 150.488 594.748C150.092 594.58 149.786 594.298 149.57 593.902C149.366 593.494 149.264 592.948 149.264 592.264V587.206H147.68V585.928H149.264L149.462 583.732H150.776V585.928H153.404V587.206H150.776V592.264C150.776 592.828 150.89 593.212 151.118 593.416C151.346 593.608 151.748 593.704 152.324 593.704H153.296V595H151.892ZM159.109 595.216C158.257 595.216 157.501 595.018 156.841 594.622C156.193 594.226 155.683 593.674 155.311 592.966C154.939 592.246 154.753 591.412 154.753 590.464C154.753 589.504 154.933 588.67 155.293 587.962C155.665 587.254 156.181 586.702 156.841 586.306C157.513 585.91 158.281 585.712 159.145 585.712C160.033 585.712 160.783 585.91 161.395 586.306C162.019 586.702 162.493 587.224 162.817 587.872C163.153 588.508 163.321 589.21 163.321 589.978C163.321 590.098 163.321 590.224 163.321 590.356C163.321 590.488 163.315 590.638 163.303 590.806H155.887V589.636H161.845C161.809 588.808 161.533 588.16 161.017 587.692C160.513 587.224 159.877 586.99 159.109 586.99C158.593 586.99 158.113 587.11 157.669 587.35C157.237 587.578 156.889 587.92 156.625 588.376C156.361 588.82 156.229 589.378 156.229 590.05V590.554C156.229 591.298 156.361 591.922 156.625 592.426C156.901 592.93 157.255 593.308 157.687 593.56C158.131 593.812 158.605 593.938 159.109 593.938C159.745 593.938 160.267 593.8 160.675 593.524C161.095 593.236 161.395 592.852 161.575 592.372H163.069C162.925 592.912 162.673 593.398 162.313 593.83C161.953 594.262 161.503 594.604 160.963 594.856C160.435 595.096 159.817 595.216 159.109 595.216ZM165.362 595V585.928H166.73L166.838 587.656C167.042 587.248 167.3 586.9 167.612 586.612C167.936 586.324 168.32 586.102 168.764 585.946C169.22 585.79 169.736 585.712 170.312 585.712V587.296H169.754C169.37 587.296 169.004 587.35 168.656 587.458C168.308 587.554 167.996 587.716 167.72 587.944C167.456 588.172 167.246 588.484 167.09 588.88C166.946 589.264 166.874 589.744 166.874 590.32V595H165.362ZM174.976 595.216C174.244 595.216 173.632 595.09 173.14 594.838C172.648 594.574 172.282 594.232 172.042 593.812C171.802 593.38 171.682 592.912 171.682 592.408C171.682 591.796 171.838 591.28 172.15 590.86C172.474 590.428 172.924 590.104 173.5 589.888C174.088 589.66 174.778 589.546 175.57 589.546H177.964C177.964 588.982 177.874 588.514 177.694 588.142C177.526 587.758 177.274 587.47 176.938 587.278C176.614 587.086 176.206 586.99 175.714 586.99C175.138 586.99 174.64 587.134 174.22 587.422C173.8 587.71 173.542 588.136 173.446 588.7H171.898C171.97 588.052 172.186 587.512 172.546 587.08C172.918 586.636 173.386 586.3 173.95 586.072C174.514 585.832 175.102 585.712 175.714 585.712C176.554 585.712 177.25 585.868 177.802 586.18C178.366 586.48 178.786 586.906 179.062 587.458C179.338 587.998 179.476 588.64 179.476 589.384V595H178.126L178.036 593.398C177.916 593.65 177.76 593.89 177.568 594.118C177.388 594.334 177.172 594.526 176.92 594.694C176.668 594.85 176.38 594.976 176.056 595.072C175.744 595.168 175.384 595.216 174.976 595.216ZM175.21 593.938C175.63 593.938 176.008 593.854 176.344 593.686C176.692 593.506 176.986 593.266 177.226 592.966C177.466 592.654 177.646 592.312 177.766 591.94C177.898 591.568 177.964 591.178 177.964 590.77V590.716H175.696C175.108 590.716 174.634 590.788 174.274 590.932C173.914 591.064 173.656 591.256 173.5 591.508C173.344 591.748 173.266 592.024 173.266 592.336C173.266 592.66 173.338 592.942 173.482 593.182C173.638 593.422 173.86 593.608 174.148 593.74C174.448 593.872 174.802 593.938 175.21 593.938ZM185.901 595.216C185.049 595.216 184.281 595.018 183.597 594.622C182.925 594.226 182.397 593.674 182.013 592.966C181.629 592.246 181.437 591.418 181.437 590.482C181.437 589.522 181.629 588.688 182.013 587.98C182.397 587.272 182.925 586.72 183.597 586.324C184.281 585.916 185.049 585.712 185.901 585.712C186.981 585.712 187.881 585.994 188.601 586.558C189.321 587.11 189.777 587.854 189.969 588.79H188.421C188.301 588.226 188.007 587.788 187.539 587.476C187.071 587.164 186.519 587.008 185.883 587.008C185.367 587.008 184.887 587.14 184.443 587.404C183.999 587.656 183.645 588.04 183.381 588.556C183.117 589.072 182.985 589.708 182.985 590.464C182.985 591.028 183.063 591.532 183.219 591.976C183.375 592.408 183.585 592.768 183.849 593.056C184.113 593.344 184.419 593.566 184.767 593.722C185.127 593.866 185.499 593.938 185.883 593.938C186.315 593.938 186.705 593.872 187.053 593.74C187.401 593.596 187.695 593.386 187.935 593.11C188.175 592.834 188.337 592.51 188.421 592.138H189.969C189.777 593.05 189.315 593.794 188.583 594.37C187.863 594.934 186.969 595.216 185.901 595.216ZM195.433 595C194.893 595 194.425 594.916 194.029 594.748C193.633 594.58 193.327 594.298 193.111 593.902C192.907 593.494 192.805 592.948 192.805 592.264V587.206H191.221V585.928H192.805L193.003 583.732H194.317V585.928H196.945V587.206H194.317V592.264C194.317 592.828 194.431 593.212 194.659 593.416C194.887 593.608 195.289 593.704 195.865 593.704H196.837V595H195.433ZM199.062 595V585.928H200.574V595H199.062ZM199.818 584.002C199.518 584.002 199.266 583.906 199.062 583.714C198.87 583.51 198.774 583.258 198.774 582.958C198.774 582.658 198.87 582.418 199.062 582.238C199.266 582.046 199.518 581.95 199.818 581.95C200.106 581.95 200.352 582.046 200.556 582.238C200.76 582.418 200.862 582.658 200.862 582.958C200.862 583.258 200.76 583.51 200.556 583.714C200.352 583.906 200.106 584.002 199.818 584.002ZM207.292 595.216C206.452 595.216 205.696 595.024 205.024 594.64C204.352 594.244 203.824 593.692 203.44 592.984C203.056 592.264 202.864 591.43 202.864 590.482C202.864 589.51 203.056 588.67 203.44 587.962C203.836 587.242 204.37 586.69 205.042 586.306C205.726 585.91 206.488 585.712 207.328 585.712C208.192 585.712 208.954 585.91 209.614 586.306C210.286 586.69 210.814 587.242 211.198 587.962C211.594 588.67 211.792 589.504 211.792 590.464C211.792 591.424 211.594 592.264 211.198 592.984C210.802 593.692 210.268 594.244 209.596 594.64C208.924 595.024 208.156 595.216 207.292 595.216ZM207.31 593.92C207.826 593.92 208.306 593.794 208.75 593.542C209.194 593.278 209.554 592.888 209.83 592.372C210.106 591.856 210.244 591.22 210.244 590.464C210.244 589.696 210.106 589.06 209.83 588.556C209.566 588.04 209.212 587.656 208.768 587.404C208.336 587.14 207.856 587.008 207.328 587.008C206.824 587.008 206.344 587.14 205.888 587.404C205.444 587.656 205.084 588.04 204.808 588.556C204.544 589.06 204.412 589.696 204.412 590.464C204.412 591.22 204.544 591.856 204.808 592.372C205.084 592.888 205.438 593.278 205.87 593.542C206.314 593.794 206.794 593.92 207.31 593.92ZM213.912 595V585.928H215.28L215.352 587.512C215.64 586.948 216.048 586.51 216.576 586.198C217.116 585.874 217.728 585.712 218.412 585.712C219.12 585.712 219.732 585.856 220.248 586.144C220.764 586.42 221.166 586.846 221.454 587.422C221.742 587.986 221.886 588.706 221.886 589.582V595H220.374V589.744C220.374 588.832 220.17 588.148 219.762 587.692C219.366 587.236 218.802 587.008 218.07 587.008C217.566 587.008 217.116 587.134 216.72 587.386C216.324 587.626 216.006 587.98 215.766 588.448C215.538 588.904 215.424 589.474 215.424 590.158V595H213.912ZM227.668 595.216C226.912 595.216 226.252 595.09 225.688 594.838C225.136 594.586 224.692 594.238 224.356 593.794C224.032 593.338 223.834 592.804 223.762 592.192H225.31C225.37 592.504 225.496 592.792 225.688 593.056C225.88 593.32 226.138 593.536 226.462 593.704C226.798 593.86 227.206 593.938 227.686 593.938C228.106 593.938 228.454 593.878 228.73 593.758C229.006 593.626 229.21 593.452 229.342 593.236C229.486 593.02 229.558 592.786 229.558 592.534C229.558 592.162 229.468 591.88 229.288 591.688C229.12 591.496 228.868 591.346 228.532 591.238C228.196 591.118 227.788 591.016 227.308 590.932C226.912 590.86 226.522 590.764 226.138 590.644C225.754 590.524 225.412 590.368 225.112 590.176C224.812 589.972 224.572 589.726 224.392 589.438C224.224 589.15 224.14 588.796 224.14 588.376C224.14 587.86 224.272 587.404 224.536 587.008C224.8 586.6 225.178 586.282 225.67 586.054C226.174 585.826 226.756 585.712 227.416 585.712C228.388 585.712 229.174 585.946 229.774 586.414C230.374 586.882 230.728 587.56 230.836 588.448H229.342C229.282 587.992 229.084 587.638 228.748 587.386C228.424 587.122 227.974 586.99 227.398 586.99C226.834 586.99 226.402 587.104 226.102 587.332C225.814 587.56 225.67 587.86 225.67 588.232C225.67 588.472 225.748 588.688 225.904 588.88C226.072 589.06 226.312 589.216 226.624 589.348C226.948 589.48 227.344 589.588 227.812 589.672C228.412 589.78 228.958 589.924 229.45 590.104C229.942 590.284 230.338 590.554 230.638 590.914C230.95 591.262 231.106 591.76 231.106 592.408C231.106 592.972 230.962 593.464 230.674 593.884C230.398 594.304 230.002 594.634 229.486 594.874C228.97 595.102 228.364 595.216 227.668 595.216ZM233.823 595.09C233.523 595.09 233.271 594.994 233.067 594.802C232.875 594.598 232.779 594.352 232.779 594.064C232.779 593.776 232.875 593.536 233.067 593.344C233.271 593.14 233.523 593.038 233.823 593.038C234.123 593.038 234.369 593.14 234.561 593.344C234.753 593.536 234.849 593.776 234.849 594.064C234.849 594.352 234.753 594.598 234.561 594.802C234.369 594.994 234.123 595.09 233.823 595.09Z" fill="white"/>
</svg>
