<svg width="1156" height="1852" viewBox="0 0 1156 1852" fill="none" xmlns="http://www.w3.org/2000/svg">
<path d="M206.95 1C-57.0497 1 -78.0498 371 206.95 371" stroke="#CD7F32"/>
<path d="M206 1H716" stroke="#CD7F32"/>
<path d="M212.95 741C-51.0497 741 -72.0498 1111 212.95 1111" stroke="#CD7F32"/>
<path d="M212 741H819" stroke="#CD7F32"/>
<path d="M216.95 1481C-47.0497 1481 -68.0498 1851 216.95 1851" stroke="#CD7F32"/>
<path d="M216 1481H823" stroke="#CD7F32"/>
<path d="M812.05 371C1076.05 371 1097.05 741 812.05 741" stroke="#CD7F32"/>
<path d="M813 371H206" stroke="#CD7F32"/>
<path d="M818.05 1111C1082.05 1111 1103.05 1481 818.05 1481" stroke="#CD7F32"/>
<path d="M819 1111H212" stroke="#CD7F32"/>
<path d="M216 1851H1155.5" stroke="#CD7F32"/>
</svg>
