<svg width="617" height="106" viewBox="0 0 617 106" fill="none" xmlns="http://www.w3.org/2000/svg">
<mask id="path-1-outside-1_5_9" maskUnits="userSpaceOnUse" x="0" y="0" width="617" height="106" fill="black">
<rect fill="white" width="617" height="106"/>
<path d="M33.84 103.68C27.4933 103.68 21.8933 102.467 17.04 100.04C12.28 97.6133 8.59333 94.0667 5.98 89.4C3.36667 84.64 2.06 78.9 2.06 72.18H20.96C20.96 75.1667 21.38 77.78 22.22 80.02C23.1533 82.1667 24.5067 83.8467 26.28 85.06C28.1467 86.18 30.5267 86.74 33.42 86.74C36.22 86.74 38.46 86.2267 40.14 85.2C41.9133 84.08 43.1733 82.54 43.92 80.58C44.76 78.5267 45.18 76.1 45.18 73.3V3.99999H64.08V73.3C64.08 83.1 61.3267 90.6133 55.82 95.84C50.4067 101.067 43.08 103.68 33.84 103.68ZM128.622 103.68C119.102 103.68 110.702 101.533 103.422 97.24C96.1422 92.9467 90.4489 87.02 86.3422 79.46C82.2355 71.8067 80.1822 62.9867 80.1822 53C80.1822 43.0133 82.2355 34.24 86.3422 26.68C90.4489 19.0267 96.1422 13.0533 103.422 8.76C110.702 4.46667 119.102 2.32 128.622 2.32C138.236 2.32 146.682 4.46667 153.962 8.76C161.242 13.0533 166.889 19.0267 170.902 26.68C175.009 34.24 177.062 43.0133 177.062 53C177.062 62.9867 175.009 71.8067 170.902 79.46C166.889 87.02 161.242 92.9467 153.962 97.24C146.682 101.533 138.236 103.68 128.622 103.68ZM128.622 86.74C134.596 86.74 139.729 85.3867 144.022 82.68C148.409 79.88 151.816 75.96 154.242 70.92C156.669 65.88 157.882 59.9067 157.882 53C157.882 46 156.669 40.0267 154.242 35.08C151.816 30.04 148.409 26.1667 144.022 23.46C139.729 20.7533 134.596 19.4 128.622 19.4C122.742 19.4 117.609 20.7533 113.222 23.46C108.836 26.1667 105.429 30.04 103.002 35.08C100.576 40.0267 99.3622 46 99.3622 53C99.3622 59.9067 100.576 65.88 103.002 70.92C105.429 75.96 108.836 79.88 113.222 82.68C117.609 85.3867 122.742 86.74 128.622 86.74ZM193.187 102V3.99999H212.087V102H193.187ZM231.332 102V3.99999H250.232L295.312 71.62V3.99999H314.212V102H295.312L250.232 34.52V102H231.332ZM389.093 102V19.26H360.393V3.99999H436.413V19.26H407.853V102H389.093ZM511.548 102V3.99999H530.448V102H511.548ZM449.808 102V3.99999H468.708V102H449.808ZM466.048 59.58V44.32H514.768V59.58H466.048ZM549.75 102V3.99999H614.15V19.26H568.65V44.88H609.95V59.58H568.65V86.74H614.15V102H549.75Z"/>
</mask>
<path d="M17.04 100.04L16.1316 101.822L16.1386 101.825L16.1456 101.829L17.04 100.04ZM5.98 89.4L4.22684 90.3625L4.23089 90.3699L4.23499 90.3772L5.98 89.4ZM2.06 72.18V70.18H0.0600002V72.18H2.06ZM20.96 72.18H22.96V70.18H20.96V72.18ZM22.22 80.02L20.3473 80.7222L20.3654 80.7703L20.3859 80.8175L22.22 80.02ZM26.28 85.06L25.1506 86.7106L25.1999 86.7443L25.251 86.775L26.28 85.06ZM40.14 85.2L41.1829 86.9066L41.1955 86.8989L41.208 86.891L40.14 85.2ZM43.92 80.58L42.0689 79.8227L42.0597 79.8453L42.051 79.868L43.92 80.58ZM45.18 3.99999V1.99999H43.18V3.99999H45.18ZM64.08 3.99999H66.08V1.99999H64.08V3.99999ZM55.82 95.84L54.4431 94.3894L54.437 94.3953L54.4308 94.4012L55.82 95.84ZM33.84 101.68C27.7513 101.68 22.4666 100.517 17.9344 98.2511L16.1456 101.829C21.3201 104.416 27.2354 105.68 33.84 105.68V101.68ZM17.9484 98.2582C13.5411 96.0113 10.1454 92.7448 7.72501 88.4228L4.23499 90.3772C7.04131 95.3885 11.0189 99.2153 16.1316 101.822L17.9484 98.2582ZM7.73316 88.4375C5.31591 84.0346 4.06 78.6424 4.06 72.18H0.0600002C0.0600002 79.1576 1.41743 85.2454 4.22684 90.3625L7.73316 88.4375ZM2.06 74.18H20.96V70.18H2.06V74.18ZM18.96 72.18C18.96 75.3492 19.4051 78.2097 20.3473 80.7222L24.0927 79.3177C23.3549 77.3503 22.96 74.9841 22.96 72.18H18.96ZM20.3859 80.8175C21.4553 83.2771 23.0392 85.266 25.1506 86.7106L27.4094 83.4094C25.9741 82.4274 24.8514 81.0562 24.0541 79.2225L20.3859 80.8175ZM25.251 86.775C27.5147 88.1332 30.28 88.74 33.42 88.74V84.74C30.7733 84.74 28.7786 84.2268 27.309 83.345L25.251 86.775ZM33.42 88.74C36.4405 88.74 39.0832 88.1897 41.1829 86.9066L39.0971 83.4934C37.8368 84.2636 35.9995 84.74 33.42 84.74V88.74ZM41.208 86.891C43.3472 85.5399 44.8883 83.6564 45.789 81.292L42.051 79.868C41.4584 81.4236 40.4795 82.6201 39.072 83.509L41.208 86.891ZM45.7711 81.3373C46.7315 78.9896 47.18 76.2942 47.18 73.3H43.18C43.18 75.9058 42.7885 78.0637 42.0689 79.8227L45.7711 81.3373ZM47.18 73.3V3.99999H43.18V73.3H47.18ZM45.18 5.99999H64.08V1.99999H45.18V5.99999ZM62.08 3.99999V73.3H66.08V3.99999H62.08ZM62.08 73.3C62.08 82.7195 59.4446 89.6422 54.4431 94.3894L57.1969 97.2906C63.2087 91.5844 66.08 83.4805 66.08 73.3H62.08ZM54.4308 94.4012C49.4714 99.1896 42.6866 101.68 33.84 101.68V105.68C43.4734 105.68 51.3419 102.944 57.2092 97.2788L54.4308 94.4012ZM103.422 97.24L102.406 98.9627L103.422 97.24ZM86.3422 79.46L84.5798 80.4056L84.5847 80.4147L86.3422 79.46ZM86.3422 26.68L88.0997 27.6347L88.1045 27.6256L86.3422 26.68ZM153.962 8.76L152.946 10.4827L153.962 8.76ZM170.902 26.68L169.131 27.6088L169.138 27.6218L169.145 27.6347L170.902 26.68ZM170.902 79.46L169.14 78.5144L169.136 78.5222L170.902 79.46ZM153.962 97.24L152.946 95.5173L153.962 97.24ZM144.022 82.68L145.089 84.3719L145.098 84.3658L144.022 82.68ZM154.242 70.92L156.044 71.7876L154.242 70.92ZM154.242 35.08L152.44 35.9476L152.443 35.9542L152.447 35.9608L154.242 35.08ZM144.022 23.46L142.956 25.1518L142.964 25.157L142.972 25.1621L144.022 23.46ZM113.222 23.46L112.172 21.7579V21.7579L113.222 23.46ZM103.002 35.08L104.798 35.9608L104.801 35.9543L104.804 35.9476L103.002 35.08ZM103.002 70.92L101.2 71.7876L103.002 70.92ZM113.222 82.68L112.146 84.3658L112.159 84.3741L112.172 84.3821L113.222 82.68ZM128.622 101.68C119.413 101.68 111.373 99.607 104.438 95.5173L102.406 98.9627C110.032 103.46 118.791 105.68 128.622 105.68V101.68ZM104.438 95.5173C97.4762 91.4115 92.0366 85.7529 88.0996 78.5053L84.5847 80.4147C88.8611 88.2871 94.8082 94.4818 102.406 98.9627L104.438 95.5173ZM88.1045 78.5144C84.1758 71.1928 82.1822 62.7065 82.1822 53H78.1822C78.1822 63.2668 80.2952 72.4206 84.5799 80.4056L88.1045 78.5144ZM82.1822 53C82.1822 43.2929 84.176 34.8576 88.0996 27.6347L84.5847 25.7253C80.295 33.6224 78.1822 42.7338 78.1822 53H82.1822ZM88.1045 27.6256C92.0432 20.2854 97.4824 14.5849 104.438 10.4827L102.406 7.03727C94.802 11.5218 88.8545 17.768 84.5799 25.7344L88.1045 27.6256ZM104.438 10.4827C111.373 6.39302 119.413 4.32 128.622 4.32V0.32C118.791 0.32 110.032 2.54031 102.406 7.03727L104.438 10.4827ZM128.622 4.32C137.928 4.32 146.014 6.39477 152.946 10.4827L154.978 7.03727C147.35 2.53856 138.543 0.32 128.622 0.32V4.32ZM152.946 10.4827C159.898 14.5825 165.286 20.2775 169.131 27.6088L172.673 25.7512C168.491 17.7759 162.586 11.5242 154.978 7.03727L152.946 10.4827ZM169.145 27.6347C173.068 34.8576 175.062 43.2929 175.062 53H179.062C179.062 42.7338 176.949 33.6224 172.66 25.7253L169.145 27.6347ZM175.062 53C175.062 62.7065 173.069 71.1928 169.14 78.5144L172.665 80.4056C176.949 72.4206 179.062 63.2668 179.062 53H175.062ZM169.136 78.5222C165.293 85.7607 159.904 91.4138 152.946 95.5173L154.978 98.9627C162.58 94.4795 168.485 88.2793 172.669 80.3978L169.136 78.5222ZM152.946 95.5173C146.014 99.6052 137.928 101.68 128.622 101.68V105.68C138.543 105.68 147.35 103.461 154.978 98.9627L152.946 95.5173ZM128.622 88.74C134.905 88.74 140.423 87.3132 145.089 84.3718L142.956 80.9881C139.034 83.4602 134.286 84.74 128.622 84.74V88.74ZM145.098 84.3658C149.822 81.3508 153.469 77.1364 156.044 71.7876L152.44 70.0524C150.162 74.7836 146.996 78.4092 142.946 80.9942L145.098 84.3658ZM156.044 71.7876C158.628 66.421 159.882 60.1381 159.882 53H155.882C155.882 59.6752 154.71 65.339 152.44 70.0524L156.044 71.7876ZM159.882 53C159.882 45.7748 158.63 39.4838 156.038 34.1992L152.447 35.9608C154.707 40.5695 155.882 46.2252 155.882 53H159.882ZM156.044 34.2124C153.466 28.8587 149.812 24.6823 145.072 21.7579L142.972 25.1621C147.006 27.651 150.165 31.2213 152.44 35.9476L156.044 34.2124ZM145.089 21.7681C140.423 18.8268 134.905 17.4 128.622 17.4V21.4C134.286 21.4 139.034 22.6798 142.956 25.1518L145.089 21.7681ZM128.622 17.4C122.425 17.4 116.917 18.8302 112.172 21.7579L114.272 25.1621C118.301 22.6764 123.06 21.4 128.622 21.4V17.4ZM112.172 21.7579C107.432 24.6823 103.778 28.8587 101.2 34.2124L104.804 35.9476C107.08 31.2213 110.239 27.651 114.272 25.1621L112.172 21.7579ZM101.207 34.1992C98.6141 39.4838 97.3622 45.7748 97.3622 53H101.362C101.362 46.2252 102.537 40.5695 104.798 35.9608L101.207 34.1992ZM97.3622 53C97.3622 60.1381 98.6163 66.421 101.2 71.7876L104.804 70.0524C102.535 65.339 101.362 59.6752 101.362 53H97.3622ZM101.2 71.7876C103.776 77.1364 107.423 81.3508 112.146 84.3658L114.298 80.9942C110.248 78.4092 107.082 74.7836 104.804 70.0524L101.2 71.7876ZM112.172 84.3821C116.917 87.3098 122.425 88.74 128.622 88.74V84.74C123.06 84.74 118.301 83.4636 114.272 80.9779L112.172 84.3821ZM193.187 102H191.187V104H193.187V102ZM193.187 3.99999V1.99999H191.187V3.99999H193.187ZM212.087 3.99999H214.087V1.99999H212.087V3.99999ZM212.087 102V104H214.087V102H212.087ZM195.187 102V3.99999H191.187V102H195.187ZM193.187 5.99999H212.087V1.99999H193.187V5.99999ZM210.087 3.99999V102H214.087V3.99999H210.087ZM212.087 100H193.187V104H212.087V100ZM231.332 102H229.332V104H231.332V102ZM231.332 3.99999V1.99999H229.332V3.99999H231.332ZM250.232 3.99999L251.896 2.89059L251.302 1.99999H250.232V3.99999ZM295.312 71.62L293.648 72.7294L297.312 78.2255V71.62H295.312ZM295.312 3.99999V1.99999H293.312V3.99999H295.312ZM314.212 3.99999H316.212V1.99999H314.212V3.99999ZM314.212 102V104H316.212V102H314.212ZM295.312 102L293.649 103.111L294.243 104H295.312V102ZM250.232 34.52L251.895 33.409L248.232 27.9258V34.52H250.232ZM250.232 102V104H252.232V102H250.232ZM233.332 102V3.99999H229.332V102H233.332ZM231.332 5.99999H250.232V1.99999H231.332V5.99999ZM248.568 5.10939L293.648 72.7294L296.976 70.5106L251.896 2.89059L248.568 5.10939ZM297.312 71.62V3.99999H293.312V71.62H297.312ZM295.312 5.99999H314.212V1.99999H295.312V5.99999ZM312.212 3.99999V102H316.212V3.99999H312.212ZM314.212 100H295.312V104H314.212V100ZM296.975 100.889L251.895 33.409L248.569 35.631L293.649 103.111L296.975 100.889ZM248.232 34.52V102H252.232V34.52H248.232ZM250.232 100H231.332V104H250.232V100ZM389.093 102H387.093V104H389.093V102ZM389.093 19.26H391.093V17.26H389.093V19.26ZM360.393 19.26H358.393V21.26H360.393V19.26ZM360.393 3.99999V1.99999H358.393V3.99999H360.393ZM436.413 3.99999H438.413V1.99999H436.413V3.99999ZM436.413 19.26V21.26H438.413V19.26H436.413ZM407.853 19.26V17.26H405.853V19.26H407.853ZM407.853 102V104H409.853V102H407.853ZM391.093 102V19.26H387.093V102H391.093ZM389.093 17.26H360.393V21.26H389.093V17.26ZM362.393 19.26V3.99999H358.393V19.26H362.393ZM360.393 5.99999H436.413V1.99999H360.393V5.99999ZM434.413 3.99999V19.26H438.413V3.99999H434.413ZM436.413 17.26H407.853V21.26H436.413V17.26ZM405.853 19.26V102H409.853V19.26H405.853ZM407.853 100H389.093V104H407.853V100ZM511.548 102H509.548V104H511.548V102ZM511.548 3.99999V1.99999H509.548V3.99999H511.548ZM530.448 3.99999H532.448V1.99999H530.448V3.99999ZM530.448 102V104H532.448V102H530.448ZM449.808 102H447.808V104H449.808V102ZM449.808 3.99999V1.99999H447.808V3.99999H449.808ZM468.708 3.99999H470.708V1.99999H468.708V3.99999ZM468.708 102V104H470.708V102H468.708ZM466.048 59.58H464.048V61.58H466.048V59.58ZM466.048 44.32V42.32H464.048V44.32H466.048ZM514.768 44.32H516.768V42.32H514.768V44.32ZM514.768 59.58V61.58H516.768V59.58H514.768ZM513.548 102V3.99999H509.548V102H513.548ZM511.548 5.99999H530.448V1.99999H511.548V5.99999ZM528.448 3.99999V102H532.448V3.99999H528.448ZM530.448 100H511.548V104H530.448V100ZM451.808 102V3.99999H447.808V102H451.808ZM449.808 5.99999H468.708V1.99999H449.808V5.99999ZM466.708 3.99999V102H470.708V3.99999H466.708ZM468.708 100H449.808V104H468.708V100ZM468.048 59.58V44.32H464.048V59.58H468.048ZM466.048 46.32H514.768V42.32H466.048V46.32ZM512.768 44.32V59.58H516.768V44.32H512.768ZM514.768 57.58H466.048V61.58H514.768V57.58ZM549.75 102H547.75V104H549.75V102ZM549.75 3.99999V1.99999H547.75V3.99999H549.75ZM614.15 3.99999H616.15V1.99999H614.15V3.99999ZM614.15 19.26V21.26H616.15V19.26H614.15ZM568.65 19.26V17.26H566.65V19.26H568.65ZM568.65 44.88H566.65V46.88H568.65V44.88ZM609.95 44.88H611.95V42.88H609.95V44.88ZM609.95 59.58V61.58H611.95V59.58H609.95ZM568.65 59.58V57.58H566.65V59.58H568.65ZM568.65 86.74H566.65V88.74H568.65V86.74ZM614.15 86.74H616.15V84.74H614.15V86.74ZM614.15 102V104H616.15V102H614.15ZM551.75 102V3.99999H547.75V102H551.75ZM549.75 5.99999H614.15V1.99999H549.75V5.99999ZM612.15 3.99999V19.26H616.15V3.99999H612.15ZM614.15 17.26H568.65V21.26H614.15V17.26ZM566.65 19.26V44.88H570.65V19.26H566.65ZM568.65 46.88H609.95V42.88H568.65V46.88ZM607.95 44.88V59.58H611.95V44.88H607.95ZM609.95 57.58H568.65V61.58H609.95V57.58ZM566.65 59.58V86.74H570.65V59.58H566.65ZM568.65 88.74H614.15V84.74H568.65V88.74ZM612.15 86.74V102H616.15V86.74H612.15ZM614.15 100H549.75V104H614.15V100Z" fill="white" mask="url(#path-1-outside-1_5_9)"/>
</svg>
