<svg width="347" height="122" viewBox="0 0 347 122" fill="none" xmlns="http://www.w3.org/2000/svg">
<g filter="url(#filter0_d_102_210)">
<mask id="path-1-outside-1_102_210" maskUnits="userSpaceOnUse" x="4" y="0" width="339" height="114" fill="black">
<rect fill="white" x="4" width="339" height="114"/>
<path d="M5.04 113V0.999992H30.8L65.04 70.92L98.96 0.999992H124.72V113H103.12V37.8L73.52 97.32H56.4L26.64 37.8V113H5.04ZM139.239 113L180.199 0.999992H204.679L245.479 113H222.599L192.359 25.64L161.959 113H139.239ZM157.319 87.56L163.079 70.76H220.039L225.639 87.56H157.319ZM260.196 113V0.999992H302.116C311.183 0.999992 318.703 2.54666 324.676 5.64C330.65 8.73333 335.076 12.8933 337.956 18.12C340.836 23.3467 342.276 29.32 342.276 36.04C342.276 42.2267 340.89 47.9333 338.116 53.16C335.343 58.3867 330.97 62.6533 324.996 65.96C319.023 69.16 311.396 70.76 302.116 70.76H281.796V113H260.196ZM281.796 53.32H300.836C307.77 53.32 312.73 51.7733 315.716 48.68C318.81 45.48 320.356 41.2667 320.356 36.04C320.356 30.4933 318.81 26.2267 315.716 23.24C312.73 20.1467 307.77 18.6 300.836 18.6H281.796V53.32Z"/>
</mask>
<path d="M5.04 113H4.54V113.5H5.04V113ZM5.04 0.999992V0.499992H4.54V0.999992H5.04ZM30.8 0.999992L31.2491 0.780094L31.1119 0.499992H30.8V0.999992ZM65.04 70.92L64.591 71.1399L65.0421 72.0612L65.4899 71.1382L65.04 70.92ZM98.96 0.999992V0.499992H98.6468L98.5101 0.781754L98.96 0.999992ZM124.72 0.999992H125.22V0.499992H124.72V0.999992ZM124.72 113V113.5H125.22V113H124.72ZM103.12 113H102.62V113.5H103.12V113ZM103.12 37.8H103.62L102.672 37.5774L103.12 37.8ZM73.52 97.32V97.82H73.8298L73.9677 97.5426L73.52 97.32ZM56.4 97.32L55.9528 97.5436L56.091 97.82H56.4V97.32ZM26.64 37.8L27.0872 37.5764L26.14 37.8H26.64ZM26.64 113V113.5H27.14V113H26.64ZM5.54 113V0.999992H4.54V113H5.54ZM5.04 1.49999H30.8V0.499992H5.04V1.49999ZM30.351 1.21989L64.591 71.1399L65.4891 70.7001L31.2491 0.780094L30.351 1.21989ZM65.4899 71.1382L99.4099 1.21823L98.5101 0.781754L64.5901 70.7018L65.4899 71.1382ZM98.96 1.49999H124.72V0.499992H98.96V1.49999ZM124.22 0.999992V113H125.22V0.999992H124.22ZM124.72 112.5H103.12V113.5H124.72V112.5ZM103.62 113V37.8H102.62V113H103.62ZM102.672 37.5774L73.0723 97.0974L73.9677 97.5426L103.568 38.0226L102.672 37.5774ZM73.52 96.82H56.4V97.82H73.52V96.82ZM56.8472 97.0964L27.0872 37.5764L26.1928 38.0236L55.9528 97.5436L56.8472 97.0964ZM26.14 37.8V113H27.14V37.8H26.14ZM26.64 112.5H5.04V113.5H26.64V112.5ZM139.239 113L138.769 112.828L138.523 113.5H139.239V113ZM180.199 0.999992V0.499992H179.849L179.729 0.828259L180.199 0.999992ZM204.679 0.999992L205.149 0.82885L205.029 0.499992H204.679V0.999992ZM245.479 113V113.5H246.193L245.949 112.829L245.479 113ZM222.599 113L222.126 113.164L222.243 113.5H222.599V113ZM192.359 25.64L192.831 25.4764L192.36 24.1151L191.887 25.4757L192.359 25.64ZM161.959 113V113.5H162.314L162.431 113.164L161.959 113ZM157.319 87.56L156.846 87.3978L156.619 88.06H157.319V87.56ZM163.079 70.76V70.26H162.722L162.606 70.5978L163.079 70.76ZM220.039 70.76L220.513 70.6019L220.399 70.26H220.039V70.76ZM225.639 87.56V88.06H226.332L226.113 87.4019L225.639 87.56ZM139.708 113.172L180.668 1.17173L179.729 0.828259L138.769 112.828L139.708 113.172ZM180.199 1.49999H204.679V0.499992H180.199V1.49999ZM204.209 1.17113L245.009 113.171L245.949 112.829L205.149 0.82885L204.209 1.17113ZM245.479 112.5H222.599V113.5H245.479V112.5ZM223.071 112.836L192.831 25.4764L191.886 25.8036L222.126 113.164L223.071 112.836ZM191.887 25.4757L161.487 112.836L162.431 113.164L192.831 25.8043L191.887 25.4757ZM161.959 112.5H139.239V113.5H161.959V112.5ZM157.792 87.7222L163.552 70.9222L162.606 70.5978L156.846 87.3978L157.792 87.7222ZM163.079 71.26H220.039V70.26H163.079V71.26ZM219.564 70.9181L225.164 87.7181L226.113 87.4019L220.513 70.6019L219.564 70.9181ZM225.639 87.06H157.319V88.06H225.639V87.06ZM260.196 113H259.696V113.5H260.196V113ZM260.196 0.999992V0.499992H259.696V0.999992H260.196ZM324.676 5.64L324.446 6.084L324.676 5.64ZM337.956 18.12L338.394 17.8787L337.956 18.12ZM338.116 53.16L338.558 53.3944L338.116 53.16ZM324.996 65.96L325.232 66.4008L325.238 66.3974L324.996 65.96ZM281.796 70.76V70.26H281.296V70.76H281.796ZM281.796 113V113.5H282.296V113H281.796ZM281.796 53.32H281.296V53.82H281.796V53.32ZM315.716 48.68L315.357 48.3325L315.357 48.3327L315.716 48.68ZM315.716 23.24L315.357 23.5873L315.363 23.5936L315.369 23.5997L315.716 23.24ZM281.796 18.6V18.1H281.296V18.6H281.796ZM260.696 113V0.999992H259.696V113H260.696ZM260.196 1.49999H302.116V0.499992H260.196V1.49999ZM302.116 1.49999C311.129 1.49999 318.564 3.03799 324.446 6.084L324.906 5.196C318.841 2.05533 311.236 0.499992 302.116 0.499992V1.49999ZM324.446 6.084C330.343 9.13782 334.692 13.232 337.518 18.3613L338.394 17.8787C335.461 12.5546 330.956 8.32884 324.906 5.196L324.446 6.084ZM337.518 18.3613C340.353 23.5051 341.776 29.3936 341.776 36.04H342.776C342.776 29.2464 341.32 23.1882 338.394 17.8787L337.518 18.3613ZM341.776 36.04C341.776 42.1488 340.408 47.7745 337.675 52.9256L338.558 53.3944C341.371 48.0922 342.776 42.3045 342.776 36.04H341.776ZM337.675 52.9256C334.953 58.0541 330.656 62.2554 324.754 65.5226L325.238 66.3974C331.283 63.0512 335.733 58.7192 338.558 53.3944L337.675 52.9256ZM324.76 65.5193C318.881 68.6687 311.343 70.26 302.116 70.26V71.26C311.45 71.26 319.165 69.6513 325.232 66.4007L324.76 65.5193ZM302.116 70.26H281.796V71.26H302.116V70.26ZM281.296 70.76V113H282.296V70.76H281.296ZM281.796 112.5H260.196V113.5H281.796V112.5ZM281.796 53.82H300.836V52.82H281.796V53.82ZM300.836 53.82C307.825 53.82 312.951 52.2638 316.076 49.0273L315.357 48.3327C312.508 51.2829 307.714 52.82 300.836 52.82V53.82ZM316.076 49.0275C319.275 45.7182 320.856 41.3721 320.856 36.04H319.856C319.856 41.1612 318.344 45.2418 315.357 48.3325L316.076 49.0275ZM320.856 36.04C320.856 30.399 319.281 25.9865 316.064 22.8803L315.369 23.5997C318.339 26.4668 319.856 30.5876 319.856 36.04H320.856ZM316.076 22.8927C312.951 19.6562 307.825 18.1 300.836 18.1V19.1C307.714 19.1 312.508 20.6371 315.357 23.5873L316.076 22.8927ZM300.836 18.1H281.796V19.1H300.836V18.1ZM281.296 18.6V53.32H282.296V18.6H281.296Z" fill="white" mask="url(#path-1-outside-1_102_210)"/>
</g>
<defs>
<filter id="filter0_d_102_210" x="0.540039" y="0.5" width="346.236" height="121" filterUnits="userSpaceOnUse" color-interpolation-filters="sRGB">
<feFlood flood-opacity="0" result="BackgroundImageFix"/>
<feColorMatrix in="SourceAlpha" type="matrix" values="0 0 0 0 0 0 0 0 0 0 0 0 0 0 0 0 0 0 127 0" result="hardAlpha"/>
<feOffset dy="4"/>
<feGaussianBlur stdDeviation="2"/>
<feComposite in2="hardAlpha" operator="out"/>
<feColorMatrix type="matrix" values="0 0 0 0 0 0 0 0 0 0 0 0 0 0 0 0 0 0 0.25 0"/>
<feBlend mode="normal" in2="BackgroundImageFix" result="effect1_dropShadow_102_210"/>
<feBlend mode="normal" in="SourceGraphic" in2="effect1_dropShadow_102_210" result="shape"/>
</filter>
</defs>
</svg>
