<svg width="350" height="124" viewBox="0 0 350 124" fill="none" xmlns="http://www.w3.org/2000/svg">
<g filter="url(#filter0_d_102_210)">
<mask id="path-1-outside-1_102_210" maskUnits="userSpaceOnUse" x="4" y="0" width="342" height="116" fill="black">
<rect fill="white" x="4" width="342" height="116"/>
<path d="M6.04 114V1.99999H31.8L66.04 71.92L99.96 1.99999H125.72V114H104.12V38.8L74.52 98.32H57.4L27.64 38.8V114H6.04ZM140.239 114L181.199 1.99999H205.679L246.479 114H223.599L193.359 26.64L162.959 114H140.239ZM158.319 88.56L164.079 71.76H221.039L226.639 88.56H158.319ZM261.196 114V1.99999H303.116C312.183 1.99999 319.703 3.54666 325.676 6.64C331.65 9.73333 336.076 13.8933 338.956 19.12C341.836 24.3467 343.276 30.32 343.276 37.04C343.276 43.2267 341.89 48.9333 339.116 54.16C336.343 59.3867 331.97 63.6533 325.996 66.96C320.023 70.16 312.396 71.76 303.116 71.76H282.796V114H261.196ZM282.796 54.32H301.836C308.77 54.32 313.73 52.7733 316.716 49.68C319.81 46.48 321.356 42.2667 321.356 37.04C321.356 31.4933 319.81 27.2267 316.716 24.24C313.73 21.1467 308.77 19.6 301.836 19.6H282.796V54.32Z"/>
</mask>
<path d="M6.04 114H4.04V116H6.04V114ZM6.04 1.99999V-7.62939e-06H4.04V1.99999H6.04ZM31.8 1.99999L33.5962 1.12039L33.0475 -7.62939e-06H31.8V1.99999ZM66.04 71.92L64.2438 72.7996L66.0484 76.4848L67.8394 72.7929L66.04 71.92ZM99.96 1.99999V-7.62939e-06H98.7073L98.1606 1.12704L99.96 1.99999ZM125.72 1.99999H127.72V-7.62939e-06H125.72V1.99999ZM125.72 114V116H127.72V114H125.72ZM104.12 114H102.12V116H104.12V114ZM104.12 38.8H106.12L102.329 37.9094L104.12 38.8ZM74.52 98.32V100.32H75.759L76.3108 99.2106L74.52 98.32ZM57.4 98.32L55.6111 99.2144L56.1639 100.32H57.4V98.32ZM27.64 38.8L29.4289 37.9056L25.64 38.8H27.64ZM27.64 114V116H29.64V114H27.64ZM8.04 114V1.99999H4.04V114H8.04ZM6.04 3.99999H31.8V-7.62939e-06H6.04V3.99999ZM30.0038 2.87959L64.2438 72.7996L67.8362 71.0404L33.5962 1.12039L30.0038 2.87959ZM67.8394 72.7929L101.759 2.87294L98.1606 1.12704L64.2406 71.0471L67.8394 72.7929ZM99.96 3.99999H125.72V-7.62939e-06H99.96V3.99999ZM123.72 1.99999V114H127.72V1.99999H123.72ZM125.72 112H104.12V116H125.72V112ZM106.12 114V38.8H102.12V114H106.12ZM102.329 37.9094L72.7292 97.4294L76.3108 99.2106L105.911 39.6906L102.329 37.9094ZM74.52 96.32H57.4V100.32H74.52V96.32ZM59.1889 97.4256L29.4289 37.9056L25.8511 39.6944L55.6111 99.2144L59.1889 97.4256ZM25.64 38.8V114H29.64V38.8H25.64ZM27.64 112H6.04V116H27.64V112ZM140.239 114L138.36 113.313L137.378 116H140.239V114ZM181.199 1.99999V-7.62939e-06H179.801L179.32 1.31306L181.199 1.99999ZM205.679 1.99999L207.558 1.31543L207.079 -7.62939e-06H205.679V1.99999ZM246.479 114V116H249.336L248.358 113.315L246.479 114ZM223.599 114L221.709 114.654L222.175 116H223.599V114ZM193.359 26.64L195.249 25.9858L193.364 20.5403L191.47 25.9827L193.359 26.64ZM162.959 114V116H164.38L164.848 114.657L162.959 114ZM158.319 88.56L156.427 87.9113L155.519 90.56H158.319V88.56ZM164.079 71.76V69.76H162.65L162.187 71.1114L164.079 71.76ZM221.039 71.76L222.936 71.1275L222.48 69.76H221.039V71.76ZM226.639 88.56V90.56H229.414L228.536 87.9275L226.639 88.56ZM142.117 114.687L183.077 2.68692L179.32 1.31306L138.36 113.313L142.117 114.687ZM181.199 3.99999H205.679V-7.62939e-06H181.199V3.99999ZM203.8 2.68456L244.6 114.685L248.358 113.315L207.558 1.31543L203.8 2.68456ZM246.479 112H223.599V116H246.479V112ZM225.489 113.346L195.249 25.9858L191.469 27.2942L221.709 114.654L225.489 113.346ZM191.47 25.9827L161.07 113.343L164.848 114.657L195.248 27.2973L191.47 25.9827ZM162.959 112H140.239V116H162.959V112ZM160.211 89.2086L165.971 72.4086L162.187 71.1114L156.427 87.9113L160.211 89.2086ZM164.079 73.76H221.039V69.76H164.079V73.76ZM219.141 72.3925L224.741 89.1925L228.536 87.9275L222.936 71.1275L219.141 72.3925ZM226.639 86.56H158.319V90.56H226.639V86.56ZM261.196 114H259.196V116H261.196V114ZM261.196 1.99999V-7.62939e-06H259.196V1.99999H261.196ZM325.676 6.64L324.757 8.41599H324.757L325.676 6.64ZM338.956 19.12L340.708 18.1548L338.956 19.12ZM339.116 54.16L340.883 55.0974L339.116 54.16ZM325.996 66.96L326.941 68.723L326.953 68.7165L326.965 68.7098L325.996 66.96ZM282.796 71.76V69.76H280.796V71.76H282.796ZM282.796 114V116H284.796V114H282.796ZM282.796 54.32H280.796V56.32H282.796V54.32ZM316.716 49.68L315.278 48.29L315.277 48.2908L316.716 49.68ZM316.716 24.24L315.277 25.6292L315.302 25.6544L315.327 25.6788L316.716 24.24ZM282.796 19.6V17.6H280.796V19.6H282.796ZM263.196 114V1.99999H259.196V114H263.196ZM261.196 3.99999H303.116V-7.62939e-06H261.196V3.99999ZM303.116 3.99999C311.969 3.99999 319.149 5.51199 324.757 8.41599L326.596 4.86401C320.257 1.58134 312.397 -7.62939e-06 303.116 -7.62939e-06V3.99999ZM324.757 8.41599C330.425 11.3513 334.539 15.2481 337.205 20.0852L340.708 18.1548C337.613 12.5385 332.874 8.11538 326.596 4.86401L324.757 8.41599ZM337.205 20.0852C339.902 24.9805 341.276 30.6143 341.276 37.04H345.276C345.276 30.0257 343.771 23.7128 340.708 18.1548L337.205 20.0852ZM341.276 37.04C341.276 42.9152 339.963 48.2979 337.35 53.2226L340.883 55.0974C343.817 49.5687 345.276 43.5381 345.276 37.04H341.276ZM337.35 53.2226C334.785 58.0566 330.715 62.0617 325.028 65.2102L326.965 68.7098C333.224 65.245 337.901 60.7168 340.883 55.0974L337.35 53.2226ZM325.052 65.197C319.456 68.1946 312.183 69.76 303.116 69.76V73.76C312.61 73.76 320.59 72.1254 326.941 68.723L325.052 65.197ZM303.116 69.76H282.796V73.76H303.116V69.76ZM280.796 71.76V114H284.796V71.76H280.796ZM282.796 112H261.196V116H282.796V112ZM282.796 56.32H301.836V52.32H282.796V56.32ZM301.836 56.32C308.992 56.32 314.616 54.7351 318.155 51.0692L315.277 48.2908C312.844 50.8115 308.547 52.32 301.836 52.32V56.32ZM318.154 51.07C321.67 47.4328 323.356 42.6884 323.356 37.04H319.356C319.356 41.8449 317.949 45.5272 315.278 48.29L318.154 51.07ZM323.356 37.04C323.356 31.1161 321.694 26.2659 318.105 22.8012L315.327 25.6788C317.925 28.1874 319.356 31.8706 319.356 37.04H323.356ZM318.155 22.8508C314.616 19.1849 308.992 17.6 301.836 17.6V21.6C308.547 21.6 312.844 23.1085 315.277 25.6292L318.155 22.8508ZM301.836 17.6H282.796V21.6H301.836V17.6ZM280.796 19.6V54.32H284.796V19.6H280.796Z" fill="white" mask="url(#path-1-outside-1_102_210)"/>
</g>
<defs>
<filter id="filter0_d_102_210" x="0.0400391" y="0" width="349.236" height="124" filterUnits="userSpaceOnUse" color-interpolation-filters="sRGB">
<feFlood flood-opacity="0" result="BackgroundImageFix"/>
<feColorMatrix in="SourceAlpha" type="matrix" values="0 0 0 0 0 0 0 0 0 0 0 0 0 0 0 0 0 0 127 0" result="hardAlpha"/>
<feOffset dy="4"/>
<feGaussianBlur stdDeviation="2"/>
<feComposite in2="hardAlpha" operator="out"/>
<feColorMatrix type="matrix" values="0 0 0 0 0 0 0 0 0 0 0 0 0 0 0 0 0 0 0.25 0"/>
<feBlend mode="normal" in2="BackgroundImageFix" result="effect1_dropShadow_102_210"/>
<feBlend mode="normal" in="SourceGraphic" in2="effect1_dropShadow_102_210" result="shape"/>
</filter>
</defs>
</svg>
