<svg width="145" height="219" viewBox="0 0 145 219" fill="none" xmlns="http://www.w3.org/2000/svg">
<mask id="path-1-outside-1_189_593" maskUnits="userSpaceOnUse" x="0" y="0" width="145" height="219" fill="black">
<rect fill="white" width="145" height="219"/>
<path d="M142.437 91.4406V127.749C142.437 142.483 140.811 155.447 137.558 166.641C134.401 177.739 129.761 187.02 123.637 194.482C117.514 201.945 110.147 207.542 101.537 211.273C92.9258 215.005 83.2148 216.87 72.4035 216.87C61.975 216.87 52.4553 215.005 43.8446 211.273C35.2339 207.542 27.8191 201.945 21.6002 194.482C15.3813 187.02 10.5498 177.739 7.10547 166.641C3.75685 155.447 2.08254 142.483 2.08254 127.749V91.4406C2.08254 76.7066 3.75685 63.7905 7.10547 52.6923C10.4541 41.4983 15.2378 32.17 21.4567 24.7074C27.6756 17.2447 35.0904 11.6478 43.7011 7.91645C52.3118 4.08946 61.8315 2.17596 72.26 2.17596C83.0713 2.17596 92.7823 4.08946 101.393 7.91645C110.099 11.6478 117.466 17.2447 123.494 24.7074C129.617 32.17 134.305 41.4983 137.558 52.6923C140.811 63.7905 142.437 76.7066 142.437 91.4406ZM116.318 127.749V91.1535C116.318 79.6726 115.362 69.8181 113.448 61.59C111.535 53.2663 108.712 46.4734 104.981 41.2113C101.249 35.9492 96.6571 32.0743 91.2036 29.5868C85.7502 27.0036 79.4356 25.712 72.26 25.712C65.4671 25.712 59.3439 27.0036 53.8905 29.5868C48.5327 32.0743 43.9403 35.9492 40.1133 41.2113C36.2863 46.4734 33.3204 53.2663 31.2155 61.59C29.2063 69.8181 28.2018 79.6726 28.2018 91.1535V127.749C28.2018 139.326 29.2063 149.276 31.2155 157.6C33.3204 165.828 36.2863 172.621 40.1133 177.978C44.0359 183.241 48.724 187.163 54.1775 189.746C59.6309 192.234 65.7063 193.478 72.4035 193.478C79.5791 193.478 85.8937 192.234 91.3471 189.746C96.8963 187.163 101.489 183.241 105.124 177.978C108.856 172.621 111.63 165.828 113.448 157.6C115.362 149.276 116.318 139.326 116.318 127.749Z"/>
</mask>
<path d="M137.558 166.641L135.637 166.083L135.634 166.094L137.558 166.641ZM7.10547 166.641L5.18937 167.214L5.1923 167.224L5.19534 167.234L7.10547 166.641ZM7.10547 52.6923L9.02021 53.27L9.02157 53.2655L7.10547 52.6923ZM43.7011 7.91645L44.4963 9.75156L44.5048 9.74786L44.5134 9.74408L43.7011 7.91645ZM101.393 7.91645L100.581 9.74408L100.593 9.74949L100.605 9.75475L101.393 7.91645ZM123.494 24.7074L121.938 25.9641L121.943 25.9701L121.948 25.976L123.494 24.7074ZM137.558 52.6923L135.638 53.2504L135.639 53.2548L137.558 52.6923ZM113.448 61.59L111.499 62.0381L111.5 62.0431L113.448 61.59ZM91.2036 29.5868L90.3475 31.3943L90.3605 31.4005L90.3736 31.4064L91.2036 29.5868ZM53.8904 29.5868L54.7327 31.4008L54.7397 31.3976L54.7466 31.3943L53.8904 29.5868ZM31.2155 61.59L29.2766 61.0997L29.2745 61.1076L29.2726 61.1156L31.2155 61.59ZM31.2155 157.6L29.2714 158.069L29.2745 158.082L29.2779 158.095L31.2155 157.6ZM40.1133 177.978L38.4858 179.141L38.4976 179.157L38.5098 179.174L40.1133 177.978ZM54.1775 189.746L53.3213 191.554L53.3343 191.56L53.3475 191.566L54.1775 189.746ZM91.3471 189.746L92.1771 191.566L92.1842 191.563L92.1912 191.56L91.3471 189.746ZM105.124 177.978L103.483 176.835L103.479 176.842L105.124 177.978ZM113.448 157.6L111.499 157.152L111.497 157.16L111.495 157.168L113.448 157.6ZM140.437 91.4406V127.749H144.437V91.4406H140.437ZM140.437 127.749C140.437 142.342 138.826 155.111 135.638 166.083L139.479 167.199C142.796 155.783 144.437 142.625 144.437 127.749H140.437ZM135.634 166.094C132.538 176.979 128.01 186 122.091 193.214L125.184 195.751C131.511 188.039 136.264 178.5 139.482 167.188L135.634 166.094ZM122.091 193.214C116.164 200.438 109.052 205.837 100.741 209.438L102.332 213.108C111.243 209.247 118.865 203.452 125.184 195.751L122.091 193.214ZM100.741 209.438C92.4169 213.045 82.9825 214.87 72.4035 214.87V218.87C83.447 218.87 93.4347 216.964 102.332 213.108L100.741 209.438ZM72.4035 214.87C62.218 214.87 52.973 213.049 44.6398 209.438L43.0494 213.108C51.9377 216.96 61.732 218.87 72.4035 218.87V214.87ZM44.6398 209.438C36.3264 205.836 29.1625 200.433 23.1366 193.202L20.0638 195.763C26.4756 203.457 34.1413 209.248 43.0494 213.108L44.6398 209.438ZM23.1366 193.202C17.116 185.977 12.3968 176.943 9.0156 166.048L5.19534 167.234C8.7027 178.535 13.6466 188.062 20.0638 195.763L23.1366 193.202ZM9.02157 166.068C5.74088 155.101 4.08254 142.337 4.08254 127.749H0.0825405C0.0825405 142.629 1.77281 155.793 5.18937 167.214L9.02157 166.068ZM4.08254 127.749V91.4406H0.0825405V127.749H4.08254ZM4.08254 91.4406C4.08254 76.8521 5.74101 64.1382 9.02021 53.27L5.19073 52.1145C1.77268 63.4429 0.0825405 76.5612 0.0825405 91.4406H4.08254ZM9.02157 53.2655C12.3081 42.279 16.9786 33.2051 22.9931 25.9878L19.9202 23.427C13.497 31.1349 8.60007 40.7176 5.18937 52.1191L9.02157 53.2655ZM22.9931 25.9878C29.019 18.7567 36.1829 13.354 44.4963 9.75156L42.9059 6.08134C33.9978 9.94149 26.3321 15.7328 19.9202 23.427L22.9931 25.9878ZM44.5134 9.74408C52.8423 6.04234 62.0812 4.17596 72.26 4.17596V0.175964C61.5817 0.175964 51.7814 2.13659 42.8888 6.08883L44.5134 9.74408ZM72.26 4.17596C82.8325 4.17596 92.2607 6.0463 100.581 9.74408L102.205 6.08883C93.3038 2.13262 83.3101 0.175964 72.26 0.175964V4.17596ZM100.605 9.75475C109.008 13.356 116.113 18.7516 121.938 25.9641L125.05 23.4507C118.82 15.7379 111.191 9.93957 102.181 6.07816L100.605 9.75475ZM121.948 25.976C127.868 33.1909 132.445 42.2634 135.638 53.2504L139.479 52.1342C136.166 40.7332 131.366 31.1491 125.04 23.4388L121.948 25.976ZM135.639 53.2548C138.826 64.1284 140.437 76.8477 140.437 91.4406H144.437C144.437 76.5656 142.796 63.4527 139.477 52.1297L135.639 53.2548ZM118.318 127.749V91.1535H114.318V127.749H118.318ZM118.318 91.1535C118.318 79.5705 117.354 69.5557 115.396 61.137L111.5 62.0431C113.369 70.0804 114.318 79.7746 114.318 91.1535H118.318ZM115.397 61.1419C113.443 52.6417 110.535 45.5867 106.612 40.0544L103.349 42.3681C106.889 47.3601 109.626 53.891 111.499 62.0381L115.397 61.1419ZM106.612 40.0544C102.693 34.5273 97.8324 30.4122 92.0336 27.7672L90.3736 31.4064C95.4818 33.7365 99.806 37.3711 103.349 42.3681L106.612 40.0544ZM92.0598 27.7793C86.2928 25.0476 79.6764 23.712 72.26 23.712V27.712C79.1949 27.712 85.2075 28.9596 90.3475 31.3943L92.0598 27.7793ZM72.26 23.712C65.2084 23.712 58.7872 25.0542 53.0343 27.7793L54.7466 31.3943C59.9006 28.9529 65.7258 27.712 72.26 27.712V23.712ZM53.0482 27.7728C47.3515 30.4177 42.502 34.5264 38.4958 40.0349L41.7308 42.3876C45.3785 37.372 49.7138 33.731 54.7327 31.4008L53.0482 27.7728ZM38.4958 40.0349C34.4794 45.5575 31.425 52.6037 29.2766 61.0997L33.1545 62.0803C35.2158 53.9289 38.0932 47.3893 41.7308 42.3876L38.4958 40.0349ZM29.2726 61.1156C27.2148 69.5427 26.2018 79.5652 26.2018 91.1535H30.2018C30.2018 79.78 31.1979 70.0934 33.1584 62.0645L29.2726 61.1156ZM26.2018 91.1535V127.749H30.2018V91.1535H26.2018ZM26.2018 127.749C26.2018 139.433 27.2147 149.549 29.2714 158.069L33.1597 157.13C31.198 149.003 30.2018 139.219 30.2018 127.749H26.2018ZM29.2779 158.095C31.4271 166.497 34.4801 173.533 38.4858 179.141L41.7407 176.816C38.0924 171.708 35.2136 165.159 33.1531 157.104L29.2779 158.095ZM38.5098 179.174C42.6103 184.674 47.547 188.819 53.3213 191.554L55.0336 187.939C49.901 185.508 45.4616 181.807 41.7168 176.783L38.5098 179.174ZM53.3475 191.566C59.0906 194.186 65.4537 195.478 72.4035 195.478V191.478C65.9589 191.478 60.1713 190.282 55.0075 187.927L53.3475 191.566ZM72.4035 195.478C79.81 195.478 86.4169 194.194 92.1771 191.566L90.5171 187.927C85.3705 190.274 79.3483 191.478 72.4035 191.478V195.478ZM92.1912 191.56C98.0777 188.819 102.941 184.656 106.77 179.115L103.479 176.842C100.036 181.825 95.7149 185.507 90.5031 187.933L92.1912 191.56ZM106.766 179.121C110.683 173.497 113.542 166.444 115.401 158.031L111.495 157.168C109.718 165.212 107.028 171.745 103.483 176.835L106.766 179.121ZM115.397 158.048C117.354 149.536 118.318 139.427 118.318 127.749H114.318C114.318 139.224 113.369 149.016 111.499 157.152L115.397 158.048Z" fill="white" mask="url(#path-1-outside-1_189_593)"/>
</svg>
