<svg width="539" height="79" viewBox="0 0 539 79" fill="none" xmlns="http://www.w3.org/2000/svg">
<g opacity="0.3">
<mask id="path-1-outside-1_584_2069" maskUnits="userSpaceOnUse" x="0" y="0" width="539" height="79" fill="black">
<rect fill="white" width="539" height="79"/>
<path d="M37.768 77.248C30.696 77.248 24.456 75.6533 19.048 72.464C13.64 69.2747 9.41067 64.872 6.36 59.256C3.30933 53.5707 1.784 47.0187 1.784 39.6C1.784 32.1813 3.30933 25.664 6.36 20.048C9.41067 14.3627 13.64 9.92533 19.048 6.736C24.456 3.54667 30.696 1.952 37.768 1.952C44.9093 1.952 51.184 3.54667 56.592 6.736C62 9.92533 66.1947 14.3627 69.176 20.048C72.2267 25.664 73.752 32.1813 73.752 39.6C73.752 47.0187 72.2267 53.5707 69.176 59.256C66.1947 64.872 62 69.2747 56.592 72.464C51.184 75.6533 44.9093 77.248 37.768 77.248ZM37.768 64.664C42.2053 64.664 46.0187 63.6587 49.208 61.648C52.4667 59.568 54.9973 56.656 56.8 52.912C58.6027 49.168 59.504 44.7307 59.504 39.6C59.504 34.4 58.6027 29.9627 56.8 26.288C54.9973 22.544 52.4667 19.6667 49.208 17.656C46.0187 15.6453 42.2053 14.64 37.768 14.64C33.4 14.64 29.5867 15.6453 26.328 17.656C23.0693 19.6667 20.5387 22.544 18.736 26.288C16.9333 29.9627 16.032 34.4 16.032 39.6C16.032 44.7307 16.9333 49.168 18.736 52.912C20.5387 56.656 23.0693 59.568 26.328 61.648C29.5867 63.6587 33.4 64.664 37.768 64.664ZM85.7307 76V3.2H112.979C118.872 3.2 123.76 4.20533 127.643 6.216C131.525 8.22667 134.403 10.9307 136.275 14.328C138.147 17.7253 139.083 21.608 139.083 25.976C139.083 29.9973 138.181 33.7067 136.379 37.104C134.576 40.5013 131.733 43.2747 127.851 45.424C123.968 47.504 119.011 48.544 112.979 48.544H99.7707V76H85.7307ZM99.7707 37.208H112.147C116.653 37.208 119.877 36.2027 121.819 34.192C123.829 32.112 124.835 29.3733 124.835 25.976C124.835 22.3707 123.829 19.5973 121.819 17.656C119.877 15.6453 116.653 14.64 112.147 14.64H99.7707V37.208ZM149.614 76V3.2H197.454V14.536H163.654V33.568H194.334V44.488H163.654V64.664H197.454V76H149.614ZM210.246 76V3.2H237.39C243.284 3.2 248.137 4.20533 251.95 6.216C255.764 8.22667 258.606 10.9307 260.478 14.328C262.35 17.656 263.286 21.3653 263.286 25.456C263.286 29.3387 262.385 32.9787 260.582 36.376C258.78 39.704 255.937 42.408 252.054 44.488C248.241 46.4987 243.318 47.504 237.286 47.504H224.286V76H210.246ZM247.998 76L233.022 43.968H248.206L264.014 76H247.998ZM224.286 37.312H236.558C240.788 37.312 243.908 36.272 245.918 34.192C247.929 32.112 248.934 29.3733 248.934 25.976C248.934 22.5787 247.929 19.9093 245.918 17.968C243.977 15.9573 240.857 14.952 236.558 14.952H224.286V37.312ZM270.968 76L297.592 3.2H313.504L340.024 76H325.152L305.496 19.216L285.736 76H270.968ZM282.72 59.464L286.464 48.544H323.488L327.128 59.464H282.72ZM358.823 76V14.536H337.503V3.2H393.975V14.536H372.759V76H358.823ZM435.081 77.248C428.009 77.248 421.769 75.6533 416.361 72.464C410.953 69.2747 406.723 64.872 403.673 59.256C400.622 53.5707 399.097 47.0187 399.097 39.6C399.097 32.1813 400.622 25.664 403.673 20.048C406.723 14.3627 410.953 9.92533 416.361 6.736C421.769 3.54667 428.009 1.952 435.081 1.952C442.222 1.952 448.497 3.54667 453.905 6.736C459.313 9.92533 463.507 14.3627 466.489 20.048C469.539 25.664 471.065 32.1813 471.065 39.6C471.065 47.0187 469.539 53.5707 466.489 59.256C463.507 64.872 459.313 69.2747 453.905 72.464C448.497 75.6533 442.222 77.248 435.081 77.248ZM435.081 64.664C439.518 64.664 443.331 63.6587 446.521 61.648C449.779 59.568 452.31 56.656 454.113 52.912C455.915 49.168 456.817 44.7307 456.817 39.6C456.817 34.4 455.915 29.9627 454.113 26.288C452.31 22.544 449.779 19.6667 446.521 17.656C443.331 15.6453 439.518 14.64 435.081 14.64C430.713 14.64 426.899 15.6453 423.641 17.656C420.382 19.6667 417.851 22.544 416.049 26.288C414.246 29.9627 413.345 34.4 413.345 39.6C413.345 44.7307 414.246 49.168 416.049 52.912C417.851 56.656 420.382 59.568 423.641 61.648C426.899 63.6587 430.713 64.664 435.081 64.664ZM483.043 76V3.2H510.187C516.081 3.2 520.934 4.20533 524.747 6.216C528.561 8.22667 531.403 10.9307 533.275 14.328C535.147 17.656 536.083 21.3653 536.083 25.456C536.083 29.3387 535.182 32.9787 533.379 36.376C531.577 39.704 528.734 42.408 524.851 44.488C521.038 46.4987 516.115 47.504 510.083 47.504H497.083V76H483.043ZM520.795 76L505.819 43.968H521.003L536.811 76H520.795ZM497.083 37.312H509.355C513.585 37.312 516.705 36.272 518.715 34.192C520.726 32.112 521.731 29.3733 521.731 25.976C521.731 22.5787 520.726 19.9093 518.715 17.968C516.774 15.9573 513.654 14.952 509.355 14.952H497.083V37.312Z"/>
</mask>
<path d="M19.048 72.464L18.54 73.3254L19.048 72.464ZM6.36 59.256L5.47883 59.7288L5.48128 59.7333L6.36 59.256ZM6.36 20.048L7.23874 20.5253L7.24116 20.5208L6.36 20.048ZM56.592 6.736L56.084 7.59737L56.592 6.736ZM69.176 20.048L68.2904 20.5124L68.2938 20.5189L68.2973 20.5253L69.176 20.048ZM69.176 59.256L68.2948 58.7832L68.2927 58.7871L69.176 59.256ZM56.592 72.464L56.084 71.6026L56.592 72.464ZM49.208 61.648L49.7413 62.4939L49.746 62.4909L49.208 61.648ZM56.8 52.912L57.701 53.3458V53.3458L56.8 52.912ZM56.8 26.288L55.899 26.7218L55.9022 26.7284L56.8 26.288ZM49.208 17.656L48.6747 18.502L48.6829 18.507L49.208 17.656ZM26.328 17.656L25.8029 16.805L26.328 17.656ZM18.736 26.288L19.6338 26.7284L19.637 26.7218L18.736 26.288ZM18.736 52.912L17.835 53.3458V53.3458L18.736 52.912ZM26.328 61.648L25.79 62.4909L25.7964 62.495L25.8029 62.499L26.328 61.648ZM37.768 76.248C30.8516 76.248 24.7913 74.6902 19.556 71.6026L18.54 73.3254C24.1207 76.6165 30.5404 78.248 37.768 78.248V76.248ZM19.556 71.6026C14.307 68.5071 10.2045 64.2384 7.23872 58.7787L5.48128 59.7333C8.61681 65.5056 12.973 70.0423 18.54 73.3254L19.556 71.6026ZM7.24116 58.7832C4.27949 53.2637 2.784 46.8786 2.784 39.6H0.784C0.784 47.1587 2.33917 53.8776 5.47884 59.7288L7.24116 58.7832ZM2.784 39.6C2.784 32.3211 4.27959 25.9728 7.23872 20.5253L5.48128 19.5707C2.33907 25.3552 0.784 32.0416 0.784 39.6H2.784ZM7.24116 20.5208C10.2078 14.992 14.3101 10.6911 19.556 7.59737L18.54 5.87463C12.9699 9.15957 8.6135 13.7333 5.47884 19.5752L7.24116 20.5208ZM19.556 7.59737C24.7913 4.50984 30.8516 2.952 37.768 2.952V0.952C30.5404 0.952 24.1207 2.58349 18.54 5.87463L19.556 7.59737ZM37.768 2.952C44.7557 2.952 50.8501 4.51072 56.084 7.59737L57.1 5.87463C51.5179 2.58261 45.063 0.952 37.768 0.952V2.952ZM56.084 7.59737C61.3279 10.6899 65.3935 14.9881 68.2904 20.5124L70.0616 19.5836C66.9959 13.7373 62.6721 9.16077 57.1 5.87463L56.084 7.59737ZM68.2973 20.5253C71.2564 25.9728 72.752 32.3211 72.752 39.6H74.752C74.752 32.0416 73.1969 25.3552 70.0547 19.5707L68.2973 20.5253ZM72.752 39.6C72.752 46.8786 71.2565 53.2637 68.2948 58.7832L70.0572 59.7288C73.1968 53.8776 74.752 47.1587 74.752 39.6H72.752ZM68.2927 58.7871C65.3967 64.2424 61.331 68.5083 56.084 71.6026L57.1 73.3254C62.669 70.0411 66.9926 65.5016 70.0593 59.7249L68.2927 58.7871ZM56.084 71.6026C50.8501 74.6893 44.7557 76.248 37.768 76.248V78.248C45.063 78.248 51.5179 76.6174 57.1 73.3254L56.084 71.6026ZM37.768 65.664C42.3602 65.664 46.3659 64.6219 49.7413 62.4939L48.6747 60.8021C45.6715 62.6954 42.0505 63.664 37.768 63.664V65.664ZM49.746 62.4909C53.1731 60.3034 55.824 57.2442 57.701 53.3458L55.899 52.4782C54.1707 56.0678 51.7602 58.8326 48.67 60.8051L49.746 62.4909ZM57.701 53.3458C59.5823 49.4385 60.504 44.8464 60.504 39.6H58.504C58.504 44.615 57.623 48.8975 55.899 52.4782L57.701 53.3458ZM60.504 39.6C60.504 34.2874 59.5834 29.6913 57.6978 25.8476L55.9022 26.7284C57.622 30.2341 58.504 34.5126 58.504 39.6H60.504ZM57.701 25.8542C55.8228 21.9533 53.1682 18.9245 49.7331 16.805L48.6829 18.507C51.7651 20.4088 54.1719 23.1347 55.899 26.7218L57.701 25.8542ZM49.7413 16.8101C46.3659 14.6821 42.3602 13.64 37.768 13.64V15.64C42.0505 15.64 45.6715 16.6086 48.6747 18.5019L49.7413 16.8101ZM37.768 13.64C33.2412 13.64 29.2407 14.6838 25.8029 16.805L26.8531 18.507C29.9327 16.6069 33.5588 15.64 37.768 15.64V13.64ZM25.8029 16.805C22.3678 18.9245 19.7132 21.9533 17.835 25.8542L19.637 26.7218C21.3641 23.1347 23.7709 20.4088 26.8531 18.507L25.8029 16.805ZM17.8382 25.8476C15.9526 29.6913 15.032 34.2874 15.032 39.6H17.032C17.032 34.5126 17.914 30.2341 19.6338 26.7284L17.8382 25.8476ZM15.032 39.6C15.032 44.8464 15.9537 49.4385 17.835 53.3458L19.637 52.4782C17.913 48.8975 17.032 44.615 17.032 39.6H15.032ZM17.835 53.3458C19.712 57.2442 22.3629 60.3034 25.79 62.4909L26.866 60.8051C23.7758 58.8326 21.3653 56.0678 19.637 52.4782L17.835 53.3458ZM25.8029 62.499C29.2407 64.6202 33.2412 65.664 37.768 65.664V63.664C33.5588 63.664 29.9327 62.6971 26.8531 60.797L25.8029 62.499ZM85.7307 76H84.7307V77H85.7307V76ZM85.7307 3.2V2.2H84.7307V3.2H85.7307ZM127.643 6.216L127.183 7.10399L127.643 6.216ZM136.275 14.328L137.151 13.8454L136.275 14.328ZM136.379 37.104L137.262 37.5727L136.379 37.104ZM127.851 45.424L128.323 46.3056L128.335 46.2989L127.851 45.424ZM99.7707 48.544V47.544H98.7707V48.544H99.7707ZM99.7707 76V77H100.771V76H99.7707ZM99.7707 37.208H98.7707V38.208H99.7707V37.208ZM121.819 34.192L121.1 33.497L121.099 33.4974L121.819 34.192ZM121.819 17.656L121.099 18.3506L121.111 18.3632L121.124 18.3754L121.819 17.656ZM99.7707 14.64V13.64H98.7707V14.64H99.7707ZM86.7307 76V3.2H84.7307V76H86.7307ZM85.7307 4.2H112.979V2.2H85.7307V4.2ZM112.979 4.2C118.765 4.2 123.483 5.18799 127.183 7.10399L128.103 5.32801C124.037 3.22267 118.979 2.2 112.979 2.2V4.2ZM127.183 7.10399C130.913 9.03564 133.634 11.6081 135.399 14.8106L137.151 13.8454C135.171 10.2533 132.138 7.41769 128.103 5.32801L127.183 7.10399ZM135.399 14.8106C137.18 18.0423 138.083 21.7551 138.083 25.976H140.083C140.083 21.4609 139.114 17.4084 137.151 13.8454L135.399 14.8106ZM138.083 25.976C138.083 29.8416 137.218 33.389 135.495 36.6353L137.262 37.5727C139.145 34.0244 140.083 30.153 140.083 25.976H138.083ZM135.495 36.6353C133.797 39.8363 131.106 42.4788 127.366 44.5491L128.335 46.2989C132.36 44.0705 135.355 41.1664 137.262 37.5727L135.495 36.6353ZM127.378 44.5425C123.685 46.5213 118.904 47.544 112.979 47.544V49.544C119.118 49.544 124.251 48.4867 128.323 46.3055L127.378 44.5425ZM112.979 47.544H99.7707V49.544H112.979V47.544ZM98.7707 48.544V76H100.771V48.544H98.7707ZM99.7707 75H85.7307V77H99.7707V75ZM99.7707 38.208H112.147V36.208H99.7707V38.208ZM112.147 38.208C116.764 38.208 120.32 37.1836 122.538 34.8866L121.099 33.4974C119.434 35.2218 116.542 36.208 112.147 36.208V38.208ZM122.538 34.887C124.76 32.5884 125.835 29.5842 125.835 25.976H123.835C123.835 29.1625 122.899 31.6356 121.1 33.497L122.538 34.887ZM125.835 25.976C125.835 22.182 124.772 19.117 122.513 16.9366L121.124 18.3754C122.887 20.0777 123.835 22.5593 123.835 25.976H125.835ZM122.538 16.9614C120.32 14.6644 116.764 13.64 112.147 13.64V15.64C116.542 15.64 119.434 16.6262 121.099 18.3506L122.538 16.9614ZM112.147 13.64H99.7707V15.64H112.147V13.64ZM98.7707 14.64V37.208H100.771V14.64H98.7707ZM149.613 76H148.613V77H149.613V76ZM149.613 3.2V2.2H148.613V3.2H149.613ZM197.454 3.2H198.454V2.2H197.454V3.2ZM197.454 14.536V15.536H198.454V14.536H197.454ZM163.654 14.536V13.536H162.654V14.536H163.654ZM163.654 33.568H162.654V34.568H163.654V33.568ZM194.333 33.568H195.333V32.568H194.333V33.568ZM194.333 44.488V45.488H195.333V44.488H194.333ZM163.654 44.488V43.488H162.654V44.488H163.654ZM163.654 64.664H162.654V65.664H163.654V64.664ZM197.454 64.664H198.454V63.664H197.454V64.664ZM197.454 76V77H198.454V76H197.454ZM150.613 76V3.2H148.613V76H150.613ZM149.613 4.2H197.454V2.2H149.613V4.2ZM196.454 3.2V14.536H198.454V3.2H196.454ZM197.454 13.536H163.654V15.536H197.454V13.536ZM162.654 14.536V33.568H164.654V14.536H162.654ZM163.654 34.568H194.333V32.568H163.654V34.568ZM193.333 33.568V44.488H195.333V33.568H193.333ZM194.333 43.488H163.654V45.488H194.333V43.488ZM162.654 44.488V64.664H164.654V44.488H162.654ZM163.654 65.664H197.454V63.664H163.654V65.664ZM196.454 64.664V76H198.454V64.664H196.454ZM197.454 75H149.613V77H197.454V75ZM210.246 76H209.246V77H210.246V76ZM210.246 3.2V2.2H209.246V3.2H210.246ZM251.95 6.216L251.484 7.10057V7.10057L251.95 6.216ZM260.478 14.328L259.602 14.8106L259.607 14.8183L260.478 14.328ZM260.582 36.376L261.462 36.8523L261.466 36.8447L260.582 36.376ZM252.054 44.488L252.521 45.3726L252.527 45.3695L252.054 44.488ZM224.286 47.504V46.504H223.286V47.504H224.286ZM224.286 76V77H225.286V76H224.286ZM247.998 76L247.092 76.4235L247.362 77H247.998V76ZM233.022 43.968V42.968H231.451L232.116 44.3915L233.022 43.968ZM248.206 43.968L249.103 43.5255L248.828 42.968H248.206V43.968ZM264.014 76V77H265.623L264.911 75.5574L264.014 76ZM224.286 37.312H223.286V38.312H224.286V37.312ZM245.918 34.192L246.637 34.887L245.918 34.192ZM245.918 17.968L245.199 18.6626L245.211 18.6752L245.224 18.6874L245.918 17.968ZM224.286 14.952V13.952H223.286V14.952H224.286ZM211.246 76V3.2H209.246V76H211.246ZM210.246 4.2H237.39V2.2H210.246V4.2ZM237.39 4.2C243.178 4.2 247.857 5.18837 251.484 7.10057L252.417 5.33143C248.417 3.22229 243.389 2.2 237.39 2.2V4.2ZM251.484 7.10057C255.144 9.03064 257.835 11.6031 259.602 14.8106L261.354 13.8454C259.378 10.2582 256.383 7.42269 252.417 5.33143L251.484 7.10057ZM259.607 14.8183C261.389 17.9859 262.286 21.5244 262.286 25.456H264.286C264.286 21.2062 263.312 17.3261 261.35 13.8377L259.607 14.8183ZM262.286 25.456C262.286 29.1769 261.424 32.6557 259.699 35.9073L261.466 36.8447C263.346 33.3016 264.286 29.5005 264.286 25.456H262.286ZM259.703 35.8997C258.008 39.029 255.321 41.6034 251.582 43.6065L252.527 45.3695C256.553 43.2126 259.551 40.379 261.462 36.8523L259.703 35.8997ZM251.588 43.6034C247.964 45.5141 243.217 46.504 237.286 46.504V48.504C243.42 48.504 248.518 47.4832 252.521 45.3726L251.588 43.6034ZM237.286 46.504H224.286V48.504H237.286V46.504ZM223.286 47.504V76H225.286V47.504H223.286ZM224.286 75H210.246V77H224.286V75ZM248.904 75.5765L233.928 43.5445L232.116 44.3915L247.092 76.4235L248.904 75.5765ZM233.022 44.968H248.206V42.968H233.022V44.968ZM247.31 44.4105L263.118 76.4426L264.911 75.5574L249.103 43.5255L247.31 44.4105ZM264.014 75H247.998V77H264.014V75ZM224.286 38.312H236.558V36.312H224.286V38.312ZM236.558 38.312C240.933 38.312 244.366 37.2368 246.637 34.887L245.199 33.497C243.449 35.3072 240.642 36.312 236.558 36.312V38.312ZM246.637 34.887C248.859 32.5884 249.934 29.5842 249.934 25.976H247.934C247.934 29.1625 246.999 31.6356 245.199 33.497L246.637 34.887ZM249.934 25.976C249.934 22.37 248.86 19.4179 246.613 17.2486L245.224 18.6874C246.998 20.4008 247.934 22.7873 247.934 25.976H249.934ZM246.638 17.2734C244.427 14.984 240.985 13.952 236.558 13.952V15.952C240.729 15.952 243.527 16.9306 245.199 18.6626L246.638 17.2734ZM236.558 13.952H224.286V15.952H236.558V13.952ZM223.286 14.952V37.312H225.286V14.952H223.286ZM270.968 76L270.029 75.6565L269.537 77H270.968V76ZM297.592 3.2V2.2H296.893L296.653 2.85653L297.592 3.2ZM313.504 3.2L314.443 2.85771L314.204 2.2H313.504V3.2ZM340.024 76V77H341.452L340.963 75.6577L340.024 76ZM325.152 76L324.207 76.3271L324.44 77H325.152V76ZM305.496 19.216L306.441 18.8889L305.498 16.1661L304.551 18.8873L305.496 19.216ZM285.736 76V77H286.447L286.68 76.3287L285.736 76ZM282.72 59.464L281.774 59.1397L281.32 60.464H282.72V59.464ZM286.464 48.544V47.544H285.749L285.518 48.2197L286.464 48.544ZM323.488 48.544L324.436 48.2278L324.208 47.544H323.488V48.544ZM327.128 59.464V60.464H328.515L328.076 59.1478L327.128 59.464ZM271.907 76.3435L298.531 3.54346L296.653 2.85653L270.029 75.6565L271.907 76.3435ZM297.592 4.2H313.504V2.2H297.592V4.2ZM312.564 3.54228L339.084 76.3423L340.963 75.6577L314.443 2.85771L312.564 3.54228ZM340.024 75H325.152V77H340.024V75ZM326.097 75.6729L306.441 18.8889L304.551 19.5431L324.207 76.3271L326.097 75.6729ZM304.551 18.8873L284.791 75.6713L286.68 76.3287L306.44 19.5447L304.551 18.8873ZM285.736 75H270.968V77H285.736V75ZM283.666 59.7883L287.41 48.8683L285.518 48.2197L281.774 59.1397L283.666 59.7883ZM286.464 49.544H323.488V47.544H286.464V49.544ZM322.539 48.8602L326.179 59.7802L328.076 59.1478L324.436 48.2278L322.539 48.8602ZM327.128 58.464H282.72V60.464H327.128V58.464ZM358.823 76H357.823V77H358.823V76ZM358.823 14.536H359.823V13.536H358.823V14.536ZM337.503 14.536H336.503V15.536H337.503V14.536ZM337.503 3.2V2.2H336.503V3.2H337.503ZM393.975 3.2H394.975V2.2H393.975V3.2ZM393.975 14.536V15.536H394.975V14.536H393.975ZM372.759 14.536V13.536H371.759V14.536H372.759ZM372.759 76V77H373.759V76H372.759ZM359.823 76V14.536H357.823V76H359.823ZM358.823 13.536H337.503V15.536H358.823V13.536ZM338.503 14.536V3.2H336.503V14.536H338.503ZM337.503 4.2H393.975V2.2H337.503V4.2ZM392.975 3.2V14.536H394.975V3.2H392.975ZM393.975 13.536H372.759V15.536H393.975V13.536ZM371.759 14.536V76H373.759V14.536H371.759ZM372.759 75H358.823V77H372.759V75ZM416.361 72.464L415.853 73.3254L416.361 72.464ZM403.672 59.256L402.791 59.7288L402.794 59.7333L403.672 59.256ZM403.672 20.048L404.551 20.5253L404.554 20.5208L403.672 20.048ZM453.905 6.736L453.397 7.59737L453.905 6.736ZM466.488 20.048L465.603 20.5124L465.606 20.5189L465.61 20.5253L466.488 20.048ZM466.488 59.256L465.607 58.7832L465.605 58.7871L466.488 59.256ZM453.905 72.464L453.397 71.6026L453.905 72.464ZM446.521 61.648L447.054 62.4939L447.059 62.4909L446.521 61.648ZM454.113 52.912L455.014 53.3458V53.3458L454.113 52.912ZM454.113 26.288L453.211 26.7218L453.215 26.7284L454.113 26.288ZM446.521 17.656L445.987 18.502L445.995 18.507L446.521 17.656ZM423.641 17.656L423.115 16.805L423.641 17.656ZM416.048 26.288L416.946 26.7284L416.949 26.7218L416.048 26.288ZM416.048 52.912L415.147 53.3458V53.3458L416.048 52.912ZM423.641 61.648L423.102 62.4909L423.109 62.495L423.115 62.499L423.641 61.648ZM435.081 76.248C428.164 76.248 422.104 74.6902 416.868 71.6026L415.853 73.3254C421.433 76.6165 427.853 78.248 435.081 78.248V76.248ZM416.868 71.6026C411.62 68.5071 407.517 64.2384 404.551 58.7787L402.794 59.7333C405.929 65.5056 410.285 70.0423 415.853 73.3254L416.868 71.6026ZM404.554 58.7832C401.592 53.2637 400.096 46.8786 400.096 39.6H398.096C398.096 47.1587 399.652 53.8776 402.791 59.7288L404.554 58.7832ZM400.096 39.6C400.096 32.3211 401.592 25.9728 404.551 20.5253L402.794 19.5707C399.652 25.3552 398.096 32.0416 398.096 39.6H400.096ZM404.554 20.5208C407.52 14.992 411.623 10.6911 416.868 7.59737L415.853 5.87463C410.282 9.15957 405.926 13.7333 402.791 19.5752L404.554 20.5208ZM416.868 7.59737C422.104 4.50984 428.164 2.952 435.081 2.952V0.952C427.853 0.952 421.433 2.58349 415.853 5.87463L416.868 7.59737ZM435.081 2.952C442.068 2.952 448.163 4.51072 453.397 7.59737L454.412 5.87463C448.83 2.58261 442.375 0.952 435.081 0.952V2.952ZM453.397 7.59737C458.64 10.6899 462.706 14.9881 465.603 20.5124L467.374 19.5836C464.308 13.7373 459.985 9.16077 454.412 5.87463L453.397 7.59737ZM465.61 20.5253C468.569 25.9728 470.065 32.3211 470.065 39.6H472.065C472.065 32.0416 470.509 25.3552 467.367 19.5707L465.61 20.5253ZM470.065 39.6C470.065 46.8786 468.569 53.2637 465.607 58.7832L467.37 59.7288C470.509 53.8776 472.065 47.1587 472.065 39.6H470.065ZM465.605 58.7871C462.709 64.2424 458.643 68.5083 453.397 71.6026L454.412 73.3254C459.982 70.0411 464.305 65.5016 467.372 59.7249L465.605 58.7871ZM453.397 71.6026C448.163 74.6893 442.068 76.248 435.081 76.248V78.248C442.375 78.248 448.83 76.6174 454.412 73.3254L453.397 71.6026ZM435.081 65.664C439.673 65.664 443.678 64.6219 447.054 62.4939L445.987 60.8021C442.984 62.6954 439.363 63.664 435.081 63.664V65.664ZM447.059 62.4909C450.486 60.3034 453.137 57.2442 455.014 53.3458L453.212 52.4782C451.483 56.0678 449.073 58.8326 445.982 60.8051L447.059 62.4909ZM455.014 53.3458C456.895 49.4385 457.816 44.8464 457.816 39.6H455.816C455.816 44.615 454.936 48.8975 453.212 52.4782L455.014 53.3458ZM457.816 39.6C457.816 34.2874 456.896 29.6913 455.01 25.8476L453.215 26.7284C454.934 30.2341 455.816 34.5126 455.816 39.6H457.816ZM455.014 25.8542C453.135 21.9533 450.481 18.9245 447.046 16.805L445.995 18.507C449.078 20.4088 451.484 23.1347 453.212 26.7218L455.014 25.8542ZM447.054 16.8101C443.678 14.6821 439.673 13.64 435.081 13.64V15.64C439.363 15.64 442.984 16.6086 445.987 18.5019L447.054 16.8101ZM435.081 13.64C430.554 13.64 426.553 14.6838 423.115 16.805L424.166 18.507C427.245 16.6069 430.871 15.64 435.081 15.64V13.64ZM423.115 16.805C419.68 18.9245 417.026 21.9533 415.147 25.8542L416.949 26.7218C418.677 23.1347 421.083 20.4088 424.166 18.507L423.115 16.805ZM415.151 25.8476C413.265 29.6913 412.345 34.2874 412.345 39.6H414.345C414.345 34.5126 415.227 30.2341 416.946 26.7284L415.151 25.8476ZM412.345 39.6C412.345 44.8464 413.266 49.4385 415.147 53.3458L416.949 52.4782C415.225 48.8975 414.345 44.615 414.345 39.6H412.345ZM415.147 53.3458C417.025 57.2442 419.675 60.3034 423.102 62.4909L424.179 60.8051C421.088 58.8326 418.678 56.0678 416.949 52.4782L415.147 53.3458ZM423.115 62.499C426.553 64.6202 430.554 65.664 435.081 65.664V63.664C430.871 63.664 427.245 62.6971 424.166 60.797L423.115 62.499ZM483.043 76H482.043V77H483.043V76ZM483.043 3.2V2.2H482.043V3.2H483.043ZM524.747 6.216L524.281 7.10057V7.10057L524.747 6.216ZM533.275 14.328L532.399 14.8106L532.404 14.8183L533.275 14.328ZM533.379 36.376L534.259 36.8523L534.263 36.8447L533.379 36.376ZM524.851 44.488L525.318 45.3726L525.323 45.3695L524.851 44.488ZM497.083 47.504V46.504H496.083V47.504H497.083ZM497.083 76V77H498.083V76H497.083ZM520.795 76L519.889 76.4235L520.159 77H520.795V76ZM505.819 43.968V42.968H504.248L504.913 44.3915L505.819 43.968ZM521.003 43.968L521.9 43.5255L521.625 42.968H521.003V43.968ZM536.811 76V77H538.42L537.708 75.5574L536.811 76ZM497.083 37.312H496.083V38.312H497.083V37.312ZM518.715 34.192L519.434 34.887L518.715 34.192ZM518.715 17.968L517.996 18.6626L518.008 18.6752L518.021 18.6874L518.715 17.968ZM497.083 14.952V13.952H496.083V14.952H497.083ZM484.043 76V3.2H482.043V76H484.043ZM483.043 4.2H510.187V2.2H483.043V4.2ZM510.187 4.2C515.975 4.2 520.654 5.18837 524.281 7.10057L525.214 5.33143C521.214 3.22229 516.186 2.2 510.187 2.2V4.2ZM524.281 7.10057C527.941 9.03064 530.632 11.6031 532.399 14.8106L534.151 13.8454C532.174 10.2582 529.18 7.42269 525.214 5.33143L524.281 7.10057ZM532.404 14.8183C534.185 17.9859 535.083 21.5244 535.083 25.456H537.083C537.083 21.2062 536.109 17.3261 534.147 13.8377L532.404 14.8183ZM535.083 25.456C535.083 29.1769 534.221 32.6557 532.496 35.9073L534.263 36.8447C536.143 33.3016 537.083 29.5005 537.083 25.456H535.083ZM532.5 35.8997C530.805 39.029 528.118 41.6034 524.379 43.6065L525.323 45.3695C529.35 43.2126 532.348 40.379 534.258 36.8523L532.5 35.8997ZM524.385 43.6034C520.761 45.5141 516.014 46.504 510.083 46.504V48.504C516.216 48.504 521.315 47.4832 525.318 45.3726L524.385 43.6034ZM510.083 46.504H497.083V48.504H510.083V46.504ZM496.083 47.504V76H498.083V47.504H496.083ZM497.083 75H483.043V77H497.083V75ZM521.701 75.5765L506.725 43.5445L504.913 44.3915L519.889 76.4235L521.701 75.5765ZM505.819 44.968H521.003V42.968H505.819V44.968ZM520.106 44.4105L535.914 76.4426L537.708 75.5574L521.9 43.5255L520.106 44.4105ZM536.811 75H520.795V77H536.811V75ZM497.083 38.312H509.355V36.312H497.083V38.312ZM509.355 38.312C513.73 38.312 517.163 37.2368 519.434 34.887L517.996 33.497C516.246 35.3072 513.439 36.312 509.355 36.312V38.312ZM519.434 34.887C521.656 32.5884 522.731 29.5842 522.731 25.976H520.731C520.731 29.1625 519.796 31.6356 517.996 33.497L519.434 34.887ZM522.731 25.976C522.731 22.37 521.657 19.4179 519.41 17.2486L518.021 18.6874C519.795 20.4008 520.731 22.7873 520.731 25.976H522.731ZM519.435 17.2734C517.224 14.984 513.782 13.952 509.355 13.952V15.952C513.526 15.952 516.324 16.9306 517.996 18.6626L519.435 17.2734ZM509.355 13.952H497.083V15.952H509.355V13.952ZM496.083 14.952V37.312H498.083V14.952H496.083Z" fill="#7C7C7C" mask="url(#path-1-outside-1_584_2069)"/>
</g>
</svg>
