<svg width="101" height="101" viewBox="0 0 101 101" fill="none" xmlns="http://www.w3.org/2000/svg">
<path fill-rule="evenodd" clip-rule="evenodd" d="M7.57495 50.5002C7.57495 56.1372 8.68524 61.719 10.8424 66.9269C12.9996 72.1348 16.1614 76.8668 20.1474 80.8528C24.1333 84.8387 28.8654 88.0005 34.0733 90.1577C39.2812 92.3149 44.863 93.4252 50.5 93.4252C56.1369 93.4252 61.7187 92.3149 66.9266 90.1577C72.1345 88.0005 76.8666 84.8387 80.8525 80.8528C84.8385 76.8668 88.0003 72.1348 90.1575 66.9269C92.3147 61.719 93.4249 56.1372 93.4249 50.5002C93.4249 39.1158 88.9025 28.1976 80.8525 20.1476C72.8025 12.0976 61.8844 7.5752 50.5 7.5752C39.1155 7.5752 28.1974 12.0976 20.1474 20.1476C12.0974 28.1976 7.57495 39.1158 7.57495 50.5002ZM88.3749 50.5002C88.3749 60.5453 84.3846 70.1789 77.2816 77.2819C70.1787 84.3848 60.545 88.3752 50.5 88.3752C40.4549 88.3752 30.8212 84.3848 23.7183 77.2819C16.6153 70.1789 12.625 60.5453 12.625 50.5002C12.625 40.4551 16.6153 30.8215 23.7183 23.7185C30.8212 16.6156 40.4549 12.6252 50.5 12.6252C60.545 12.6252 70.1787 16.6156 77.2816 23.7185C84.3846 30.8215 88.3749 40.4551 88.3749 50.5002Z" fill="white"/>
<path fill-rule="evenodd" clip-rule="evenodd" d="M32.825 50.5006C32.825 72.7004 40.1071 90.9006 50.5 90.9006C60.8929 90.9006 68.1749 72.7004 68.1749 50.5006C68.1749 28.3008 60.8929 10.1006 50.5 10.1006C40.1071 10.1006 32.825 28.3008 32.825 50.5006ZM63.125 50.5006C63.125 70.14 56.8377 85.8506 50.5 85.8506C44.1622 85.8506 37.875 70.14 37.875 50.5006C37.875 30.8611 44.1622 15.1506 50.5 15.1506C56.8377 15.1506 63.125 30.8611 63.125 50.5006Z" fill="white"/>
<path d="M18.8616 26.8262L22.2451 23.0791C22.7838 23.5639 23.3612 24.0369 23.9773 24.4981C30.6332 29.4875 41.1372 32.5276 52.5855 32.5276C62.3472 32.5276 71.4574 30.3208 78.1133 26.5182C79.6466 25.6502 81.0956 24.6409 82.4411 23.5033L85.7236 27.3413C84.2153 28.6307 82.5152 29.8158 80.6231 30.8965C73.1643 35.1638 63.1905 37.5777 52.5855 37.5777C40.112 37.5777 28.5374 34.2295 20.9473 28.5382C20.2269 27.9971 19.5309 27.4293 18.8616 26.8262ZM18.8616 74.2356L22.2451 77.9726C22.7838 77.4844 23.3612 77.0131 23.9773 76.5586C30.6332 71.5692 41.1372 68.5291 52.5855 68.5291C62.3472 68.5291 71.4574 70.7309 78.1133 74.5386C79.736 75.4712 81.1786 76.4744 82.4411 77.5484L85.7236 73.7104C84.1379 72.369 82.4303 71.1788 80.6231 70.1552C73.1643 65.893 63.1905 63.4791 52.5855 63.4791C40.112 63.4791 28.5374 66.8272 20.9473 72.5135C20.2066 73.069 19.5114 73.6464 18.8616 74.2356ZM10.0999 53.0256V47.9756H90.8999V53.0256H10.0999Z" fill="white"/>
</svg>
