<svg width="142" height="221" viewBox="0 0 142 221" fill="none" xmlns="http://www.w3.org/2000/svg">
<g filter="url(#filter0_d_189_594)">
<mask id="path-1-outside-1_189_594" maskUnits="userSpaceOnUse" x="4" y="0" width="134" height="213" fill="black">
<rect fill="white" x="4" width="134" height="213"/>
<path d="M6.67493 2.04621H65.0844C78.6702 2.04621 90.0555 4.43808 99.2403 9.22182C108.521 14.0056 115.505 21.0855 120.193 30.4616C124.977 39.7421 127.369 51.1752 127.369 64.761C127.369 74.3285 125.79 83.0828 122.633 91.0238C119.476 98.8691 114.883 105.566 108.856 111.115C102.828 116.569 95.509 120.635 86.8983 123.314L79.7227 126.328H27.6277L27.3407 103.796H64.7974C72.8341 103.796 79.5313 102.074 84.8891 98.6299C90.2469 95.09 94.2652 90.3541 96.9441 84.4222C99.623 78.4904 100.962 71.9367 100.962 64.761C100.962 56.7244 99.7665 49.6923 97.3747 43.6648C94.9828 37.6372 91.1558 32.997 85.8937 29.7441C80.7272 26.3954 73.7908 24.7211 65.0844 24.7211H33.0812V211H6.67493V2.04621ZM106.99 211L65.3714 116.282L92.7823 116.138L135.262 209.278V211H106.99Z"/>
</mask>
<path d="M6.67493 2.04621V0.0462074H4.67493V2.04621H6.67493ZM99.2403 9.22182L98.3164 10.9957L98.324 10.9995L99.2403 9.22182ZM120.193 30.4616L118.404 31.3561L118.41 31.3671L118.415 31.378L120.193 30.4616ZM122.633 91.0238L124.488 91.7705L124.491 91.7627L122.633 91.0238ZM108.856 111.115L110.197 112.599L110.204 112.593L110.21 112.587L108.856 111.115ZM86.8983 123.314L86.3041 121.404L86.2124 121.433L86.1238 121.47L86.8983 123.314ZM79.7226 126.328V128.328H80.1256L80.4971 128.172L79.7226 126.328ZM27.6277 126.328L25.6279 126.353L25.653 128.328H27.6277V126.328ZM27.3407 103.796V101.796H25.3151L25.3409 103.822L27.3407 103.796ZM84.8891 98.6299L85.9706 100.312L85.9811 100.306L85.9916 100.299L84.8891 98.6299ZM85.8937 29.7441L84.8059 31.4224L84.8238 31.434L84.842 31.4453L85.8937 29.7441ZM33.0812 24.7211V22.7211H31.0812V24.7211H33.0812ZM33.0812 211V213H35.0812V211H33.0812ZM6.67493 211H4.67493V213H6.67493V211ZM106.99 211L105.159 211.805L105.684 213H106.99V211ZM65.3714 116.282L65.361 114.282L62.3151 114.298L63.5404 117.086L65.3714 116.282ZM92.7823 116.138L94.6019 115.308L94.0652 114.132L92.7718 114.138L92.7823 116.138ZM135.262 209.278H137.262V208.843L137.082 208.448L135.262 209.278ZM135.262 211V213H137.262V211H135.262ZM6.67493 4.04621H65.0844V0.0462074H6.67493V4.04621ZM65.0844 4.04621C78.4453 4.04621 89.4919 6.39954 98.3164 10.9957L100.164 7.44799C90.6192 2.47662 78.8952 0.0462074 65.0844 0.0462074V4.04621ZM98.324 10.9995C107.226 15.588 113.905 22.3578 118.404 31.3561L121.982 29.5672C117.105 19.8132 109.816 12.4231 100.157 7.4441L98.324 10.9995ZM118.415 31.378C123.016 40.3027 125.369 51.4012 125.369 64.761H129.369C129.369 50.9492 126.938 39.1814 121.971 29.5453L118.415 31.378ZM125.369 64.761C125.369 74.1057 123.828 82.6055 120.774 90.2849L124.491 91.7627C127.753 83.5601 129.369 74.5514 129.369 64.761H125.369ZM120.777 90.2771C117.727 97.8558 113.303 104.303 107.501 109.644L110.21 112.587C116.464 106.83 121.224 99.8824 124.488 91.7705L120.777 90.2771ZM107.514 109.632C101.724 114.871 94.6682 118.802 86.3041 121.404L87.4924 125.224C96.3498 122.468 103.932 118.267 110.197 112.599L107.514 109.632ZM86.1238 121.47L78.9482 124.484L80.4971 128.172L87.6727 125.158L86.1238 121.47ZM79.7226 124.328H27.6277V128.328H79.7226V124.328ZM29.6276 126.302L29.3405 103.771L25.3409 103.822L25.6279 126.353L29.6276 126.302ZM27.3407 105.796H64.7974V101.796H27.3407V105.796ZM64.7974 105.796C73.1177 105.796 80.2154 104.012 85.9706 100.312L83.8076 96.9476C78.8472 100.136 72.5504 101.796 64.7974 101.796V105.796ZM85.9916 100.299C91.669 96.5475 95.9348 91.5165 98.7669 85.2454L95.1214 83.599C92.5957 89.1917 88.8248 93.6324 83.7866 96.9613L85.9916 100.299ZM98.7669 85.2454C101.574 79.0294 102.962 72.1912 102.962 64.761H98.9625C98.9625 71.6821 97.6719 77.9514 95.1214 83.599L98.7669 85.2454ZM102.962 64.761C102.962 56.5302 101.738 49.2382 99.2336 42.9271L95.5157 44.4024C97.795 50.1464 98.9625 56.9185 98.9625 64.761H102.962ZM99.2336 42.9271C96.6914 36.5206 92.5915 31.5332 86.9453 28.0429L84.842 31.4453C89.7201 34.4608 93.2742 38.7539 95.5157 44.4024L99.2336 42.9271ZM86.9815 28.0658C81.383 24.4371 74.0239 22.7211 65.0844 22.7211V26.7211C73.5577 26.7211 80.0715 28.3538 84.8059 31.4224L86.9815 28.0658ZM65.0844 22.7211H33.0812V26.7211H65.0844V22.7211ZM31.0812 24.7211V211H35.0812V24.7211H31.0812ZM33.0812 209H6.67493V213H33.0812V209ZM8.67493 211V2.04621H4.67493V211H8.67493ZM108.821 210.195L67.2025 115.477L63.5404 117.086L105.159 211.805L108.821 210.195ZM65.3819 118.282L92.7927 118.138L92.7718 114.138L65.361 114.282L65.3819 118.282ZM90.9626 116.968L133.442 210.108L137.082 208.448L94.6019 115.308L90.9626 116.968ZM133.262 209.278V211H137.262V209.278H133.262ZM135.262 209H106.99V213H135.262V209Z" fill="white" mask="url(#path-1-outside-1_189_594)"/>
</g>
<defs>
<filter id="filter0_d_189_594" x="0.675049" y="0.0461426" width="140.587" height="220.954" filterUnits="userSpaceOnUse" color-interpolation-filters="sRGB">
<feFlood flood-opacity="0" result="BackgroundImageFix"/>
<feColorMatrix in="SourceAlpha" type="matrix" values="0 0 0 0 0 0 0 0 0 0 0 0 0 0 0 0 0 0 127 0" result="hardAlpha"/>
<feOffset dy="4"/>
<feGaussianBlur stdDeviation="2"/>
<feComposite in2="hardAlpha" operator="out"/>
<feColorMatrix type="matrix" values="0 0 0 0 0 0 0 0 0 0 0 0 0 0 0 0 0 0 0.25 0"/>
<feBlend mode="normal" in2="BackgroundImageFix" result="effect1_dropShadow_189_594"/>
<feBlend mode="normal" in="SourceGraphic" in2="effect1_dropShadow_189_594" result="shape"/>
</filter>
</defs>
</svg>
