<svg width="430" height="118" viewBox="0 0 430 118" fill="none" xmlns="http://www.w3.org/2000/svg">
<mask id="path-1-outside-1_3_62" maskUnits="userSpaceOnUse" x="0" y="0" width="430" height="118" fill="black">
<rect fill="white" width="430" height="118"/>
<path d="M1.04 115V2.99999H42.8C51.8667 2.99999 59.3333 4.54666 65.2 7.64C71.0667 10.7333 75.44 14.8933 78.32 20.12C81.2 25.24 82.64 30.9467 82.64 37.24C82.64 43.2133 81.2533 48.8133 78.48 54.04C75.7067 59.16 71.3333 63.32 65.36 66.52C59.4933 69.6133 51.92 71.16 42.64 71.16H22.64V115H1.04ZM59.12 115L36.08 65.72H59.44L83.76 115H59.12ZM22.64 55.48H41.52C48.0267 55.48 52.8267 53.88 55.92 50.68C59.0133 47.48 60.56 43.2667 60.56 38.04C60.56 32.8133 59.0133 28.7067 55.92 25.72C52.9333 22.6267 48.1333 21.08 41.52 21.08H22.64V55.48ZM153.658 116.92C142.778 116.92 133.178 114.467 124.858 109.56C116.538 104.653 110.031 97.88 105.338 89.24C100.644 80.4933 98.2975 70.4133 98.2975 59C98.2975 47.5867 100.644 37.56 105.338 28.92C110.031 20.1733 116.538 13.3467 124.858 8.44C133.178 3.53333 142.778 1.08 153.658 1.08C164.644 1.08 174.298 3.53333 182.618 8.44C190.938 13.3467 197.391 20.1733 201.978 28.92C206.671 37.56 209.018 47.5867 209.018 59C209.018 70.4133 206.671 80.4933 201.978 89.24C197.391 97.88 190.938 104.653 182.618 109.56C174.298 114.467 164.644 116.92 153.658 116.92ZM153.658 97.56C160.484 97.56 166.351 96.0133 171.258 92.92C176.271 89.72 180.164 85.24 182.938 79.48C185.711 73.72 187.098 66.8933 187.098 59C187.098 51 185.711 44.1733 182.938 38.52C180.164 32.76 176.271 28.3333 171.258 25.24C166.351 22.1467 160.484 20.6 153.658 20.6C146.938 20.6 141.071 22.1467 136.058 25.24C131.044 28.3333 127.151 32.76 124.378 38.52C121.604 44.1733 120.218 51 120.218 59C120.218 66.8933 121.604 73.72 124.378 79.48C127.151 85.24 131.044 89.72 136.058 92.92C141.071 96.0133 146.938 97.56 153.658 97.56ZM212.895 115L253.855 2.99999H278.335L319.135 115H296.255L266.015 27.64L235.615 115H212.895ZM230.975 89.56L236.735 72.76H293.695L299.295 89.56H230.975ZM333.853 115V2.99999H371.293C384.306 2.99999 395.026 5.34666 403.453 10.04C411.986 14.6267 418.279 21.1333 422.333 29.56C426.493 37.88 428.573 47.6933 428.573 59C428.573 70.3067 426.493 80.1733 422.333 88.6C418.279 96.92 412.039 103.427 403.612 108.12C395.186 112.707 384.413 115 371.293 115H333.853ZM355.453 96.44H370.173C379.346 96.44 386.546 94.9467 391.773 91.96C397.106 88.9733 400.893 84.7067 403.133 79.16C405.373 73.5067 406.493 66.7867 406.493 59C406.493 51.1067 405.373 44.3867 403.133 38.84C400.893 33.1867 397.106 28.8667 391.773 25.88C386.546 22.8933 379.346 21.4 370.173 21.4H355.453V96.44Z"/>
</mask>
<path d="M1.04 115H0.540001V115.5H1.04V115ZM1.04 2.99999V2.49999H0.540001V2.99999H1.04ZM65.2 7.64L64.9668 8.08228L65.2 7.64ZM78.32 20.12L77.8821 20.3613L77.8842 20.3651L78.32 20.12ZM78.48 54.04L78.9197 54.2781L78.9217 54.2744L78.48 54.04ZM65.36 66.52L65.5932 66.9623L65.5961 66.9607L65.36 66.52ZM22.64 71.16V70.66H22.14V71.16H22.64ZM22.64 115V115.5H23.14V115H22.64ZM59.12 115L58.6671 115.212L58.8018 115.5H59.12V115ZM36.08 65.72V65.22H35.2943L35.6271 65.9318L36.08 65.72ZM59.44 65.72L59.8884 65.4987L59.7508 65.22H59.44V65.72ZM83.76 115V115.5H84.5643L84.2084 114.779L83.76 115ZM22.64 55.48H22.14V55.98H22.64V55.48ZM55.92 50.68L56.2795 51.0275H56.2795L55.92 50.68ZM55.92 25.72L55.5603 26.0673L55.5664 26.0736L55.5727 26.0797L55.92 25.72ZM22.64 21.08V20.58H22.14V21.08H22.64ZM1.54 115V2.99999H0.540001V115H1.54ZM1.04 3.49999H42.8V2.49999H1.04V3.49999ZM42.8 3.49999C51.8138 3.49999 59.1935 5.03819 64.9668 8.08228L65.4332 7.19772C59.4732 4.05514 51.9196 2.49999 42.8 2.49999V3.49999ZM64.9668 8.08228C70.757 11.1353 75.0544 15.2296 77.8821 20.3613L78.7579 19.8787C75.8256 14.5571 71.3763 10.3313 65.4332 7.19772L64.9668 8.08228ZM77.8842 20.3651C80.7191 25.405 82.14 31.0262 82.14 37.24H83.14C83.14 30.8671 81.6809 25.075 78.7558 19.8749L77.8842 20.3651ZM82.14 37.24C82.14 43.1324 80.773 48.6519 78.0383 53.8056L78.9217 54.2744C81.7337 48.9748 83.14 43.2942 83.14 37.24H82.14ZM78.0404 53.8019C75.3208 58.8225 71.0255 62.9177 65.1239 66.0793L65.5961 66.9607C71.6412 63.7223 76.0925 59.4975 78.9197 54.2781L78.0404 53.8019ZM65.1268 66.0777C59.3549 69.1211 51.8693 70.66 42.64 70.66V71.66C51.9707 71.66 59.6317 70.1056 65.5932 66.9623L65.1268 66.0777ZM42.64 70.66H22.64V71.66H42.64V70.66ZM22.14 71.16V115H23.14V71.16H22.14ZM22.64 114.5H1.04V115.5H22.64V114.5ZM59.5729 114.788L36.5329 65.5082L35.6271 65.9318L58.6671 115.212L59.5729 114.788ZM36.08 66.22H59.44V65.22H36.08V66.22ZM58.9916 65.9413L83.3116 115.221L84.2084 114.779L59.8884 65.4987L58.9916 65.9413ZM83.76 114.5H59.12V115.5H83.76V114.5ZM22.64 55.98H41.52V54.98H22.64V55.98ZM41.52 55.98C48.0994 55.98 53.0558 54.3624 56.2795 51.0275L55.5605 50.3325C52.5976 53.3976 47.954 54.98 41.52 54.98V55.98ZM56.2795 51.0275C59.4785 47.7182 61.06 43.3721 61.06 38.04H60.06C60.06 43.1612 58.5482 47.2418 55.5605 50.3325L56.2795 51.0275ZM61.06 38.04C61.06 32.709 59.4787 28.4609 56.2673 25.3603L55.5727 26.0797C58.548 28.9524 60.06 32.9176 60.06 38.04H61.06ZM56.2797 25.3727C53.1585 22.14 48.1972 20.58 41.52 20.58V21.58C48.0695 21.58 52.7082 23.1133 55.5603 26.0673L56.2797 25.3727ZM41.52 20.58H22.64V21.58H41.52V20.58ZM22.14 21.08V55.48H23.14V21.08H22.14ZM124.857 109.56L124.604 109.991L124.857 109.56ZM105.338 89.24L104.897 89.4764L104.898 89.4787L105.338 89.24ZM105.338 28.92L105.777 29.1587L105.778 29.1564L105.338 28.92ZM182.618 8.44L182.364 8.87068L182.618 8.44ZM201.978 28.92L201.535 29.1522L201.538 29.1587L201.978 28.92ZM201.978 89.24L201.537 89.0036L201.536 89.0056L201.978 89.24ZM182.618 109.56L182.364 109.129L182.618 109.56ZM171.258 92.92L171.524 93.343L171.527 93.3415L171.258 92.92ZM182.938 79.48L183.388 79.6969L182.938 79.48ZM182.938 38.52L182.487 38.7369L182.489 38.7402L182.938 38.52ZM171.258 25.24L170.991 25.663L170.995 25.6655L171.258 25.24ZM136.057 25.24L135.795 24.8145L136.057 25.24ZM124.378 38.52L124.826 38.7402L124.828 38.7369L124.378 38.52ZM124.378 79.48L123.927 79.6969L124.378 79.48ZM136.057 92.92L135.788 93.3415L135.795 93.3455L136.057 92.92ZM153.658 116.42C142.855 116.42 133.345 113.985 125.111 109.129L124.604 109.991C133.01 114.948 142.7 117.42 153.658 117.42V116.42ZM125.111 109.129C116.871 104.27 110.428 97.5632 105.777 89.0013L104.898 89.4787C109.634 98.1968 116.204 105.037 124.604 109.991L125.111 109.129ZM105.778 89.0036C101.129 80.3399 98.7975 70.3433 98.7975 59H97.7975C97.7975 70.4834 100.159 80.6468 104.897 89.4764L105.778 89.0036ZM98.7975 59C98.7975 47.6565 101.129 37.7144 105.777 29.1587L104.898 28.6813C100.159 37.4056 97.7975 47.5168 97.7975 59H98.7975ZM105.778 29.1564C110.429 20.488 116.873 13.7295 125.111 8.87068L124.604 8.00932C116.202 12.9638 109.632 19.8587 104.897 28.6836L105.778 29.1564ZM125.111 8.87068C133.345 4.01492 142.855 1.58 153.658 1.58V0.579998C142.7 0.579998 133.01 3.05174 124.604 8.00932L125.111 8.87068ZM153.658 1.58C164.567 1.58 174.131 4.01536 182.364 8.87068L182.871 8.00932C174.464 3.0513 164.721 0.579998 153.658 0.579998V1.58ZM182.364 8.87068C190.601 13.7289 196.99 20.486 201.535 29.1522L202.42 28.6878C197.791 19.8606 191.274 12.9644 182.871 8.00932L182.364 8.87068ZM201.538 29.1587C206.186 37.7144 208.518 47.6565 208.518 59H209.518C209.518 47.5168 207.156 37.4056 202.417 28.6813L201.538 29.1587ZM208.518 59C208.518 70.3433 206.186 80.3399 201.537 89.0036L202.418 89.4764C207.156 80.6468 209.518 70.4834 209.518 59H208.518ZM201.536 89.0056C196.992 97.5652 190.603 104.27 182.364 109.129L182.871 109.991C191.272 105.037 197.79 98.1948 202.419 89.4744L201.536 89.0056ZM182.364 109.129C174.131 113.985 164.567 116.42 153.658 116.42V117.42C164.721 117.42 174.464 114.949 182.871 109.991L182.364 109.129ZM153.658 98.06C160.562 98.06 166.524 96.495 171.524 93.343L170.991 92.497C166.177 95.5317 160.407 97.06 153.658 97.06V98.06ZM171.527 93.3415C176.624 90.0877 180.577 85.5341 183.388 79.6969L182.487 79.2631C179.751 84.9459 175.918 89.3523 170.988 92.4985L171.527 93.3415ZM183.388 79.6969C186.201 73.8552 187.598 66.9512 187.598 59H186.598C186.598 66.8355 185.221 73.5847 182.487 79.2631L183.388 79.6969ZM187.598 59C187.598 50.9437 186.201 44.0376 183.386 38.2998L182.489 38.7402C185.22 44.309 186.598 51.0563 186.598 59H187.598ZM183.388 38.3031C180.577 32.4647 176.622 27.9622 171.52 24.8145L170.995 25.6655C175.92 28.7044 179.751 33.0553 182.487 38.7369L183.388 38.3031ZM171.524 24.817C166.524 21.665 160.562 20.1 153.658 20.1V21.1C160.407 21.1 166.177 22.6283 170.991 25.663L171.524 24.817ZM153.658 20.1C146.858 20.1 140.898 21.6659 135.795 24.8145L136.32 25.6655C141.244 22.6274 147.017 21.1 153.658 21.1V20.1ZM135.795 24.8145C130.693 27.9622 126.738 32.4647 123.927 38.3031L124.828 38.7369C127.564 33.0553 131.395 28.7044 136.32 25.6655L135.795 24.8145ZM123.929 38.2998C121.114 44.0376 119.717 50.9437 119.717 59H120.717C120.717 51.0563 122.095 44.309 124.826 38.7402L123.929 38.2998ZM119.717 59C119.717 66.9512 121.114 73.8552 123.927 79.6969L124.828 79.2631C122.094 73.5847 120.717 66.8355 120.717 59H119.717ZM123.927 79.6969C126.738 85.5341 130.691 90.0877 135.788 93.3415L136.327 92.4985C131.397 89.3523 127.564 84.9459 124.828 79.2631L123.927 79.6969ZM135.795 93.3455C140.898 96.4941 146.858 98.06 153.658 98.06V97.06C147.017 97.06 141.244 95.5326 136.32 92.4945L135.795 93.3455ZM212.895 115L212.425 114.828L212.18 115.5H212.895V115ZM253.855 2.99999V2.49999H253.505L253.385 2.82826L253.855 2.99999ZM278.335 2.99999L278.805 2.82885L278.685 2.49999H278.335V2.99999ZM319.135 115V115.5H319.849L319.605 114.829L319.135 115ZM296.255 115L295.783 115.164L295.899 115.5H296.255V115ZM266.015 27.64L266.487 27.4764L266.016 26.1151L265.543 27.4757L266.015 27.64ZM235.615 115V115.5H235.97L236.087 115.164L235.615 115ZM230.975 89.56L230.502 89.3978L230.275 90.06H230.975V89.56ZM236.735 72.76V72.26H236.378L236.262 72.5978L236.735 72.76ZM293.695 72.76L294.169 72.6019L294.055 72.26H293.695V72.76ZM299.295 89.56V90.06H299.989L299.769 89.4019L299.295 89.56ZM213.365 115.172L254.325 3.17173L253.385 2.82826L212.425 114.828L213.365 115.172ZM253.855 3.49999H278.335V2.49999H253.855V3.49999ZM277.865 3.17113L318.665 115.171L319.605 114.829L278.805 2.82885L277.865 3.17113ZM319.135 114.5H296.255V115.5H319.135V114.5ZM296.728 114.836L266.487 27.4764L265.543 27.8036L295.783 115.164L296.728 114.836ZM265.543 27.4757L235.143 114.836L236.087 115.164L266.487 27.8043L265.543 27.4757ZM235.615 114.5H212.895V115.5H235.615V114.5ZM231.448 89.7222L237.208 72.9222L236.262 72.5978L230.502 89.3978L231.448 89.7222ZM236.735 73.26H293.695V72.26H236.735V73.26ZM293.221 72.9181L298.821 89.7181L299.769 89.4019L294.169 72.6019L293.221 72.9181ZM299.295 89.06H230.975V90.06H299.295V89.06ZM333.853 115H333.353V115.5H333.853V115ZM333.853 2.99999V2.49999H333.353V2.99999H333.853ZM403.453 10.04L403.209 10.4769L403.216 10.4804L403.453 10.04ZM422.333 29.56L421.882 29.7768L421.885 29.7836L422.333 29.56ZM422.333 88.6L421.884 88.3787L421.883 88.381L422.333 88.6ZM403.612 108.12L403.852 108.559L403.856 108.557L403.612 108.12ZM355.453 96.44H354.953V96.94H355.453V96.44ZM391.772 91.96L391.528 91.5237L391.524 91.5259L391.772 91.96ZM403.133 79.16L403.596 79.3472L403.597 79.3442L403.133 79.16ZM403.133 38.84L402.668 39.0242L402.669 39.0272L403.133 38.84ZM391.772 25.88L391.524 26.3141L391.528 26.3162L391.772 25.88ZM355.453 21.4V20.9H354.953V21.4H355.453ZM334.353 115V2.99999H333.353V115H334.353ZM333.853 3.49999H371.293V2.49999H333.853V3.49999ZM371.293 3.49999C384.249 3.49999 394.878 5.83688 403.209 10.4768L403.696 9.60318C395.173 4.85644 384.362 2.49999 371.293 2.49999V3.49999ZM403.216 10.4804C411.66 15.0189 417.876 21.449 421.882 29.7767L422.783 29.3433C418.682 20.8177 412.312 14.2344 403.689 9.59959L403.216 10.4804ZM421.885 29.7836C426.004 38.0208 428.073 47.7545 428.073 59H429.073C429.073 47.6322 426.981 37.7392 422.78 29.3364L421.885 29.7836ZM428.073 59C428.073 70.2453 426.004 80.0334 421.884 88.3787L422.781 88.8213C426.981 80.3132 429.073 70.368 429.073 59H428.073ZM421.883 88.381C417.876 96.605 411.71 103.037 403.369 107.683L403.856 108.557C412.368 103.816 418.682 97.235 422.782 88.819L421.883 88.381ZM403.373 107.681C395.042 112.216 384.358 114.5 371.293 114.5V115.5C384.467 115.5 395.33 113.198 403.852 108.559L403.373 107.681ZM371.293 114.5H333.853V115.5H371.293V114.5ZM355.453 96.94H370.172V95.94H355.453V96.94ZM370.172 96.94C379.391 96.94 386.689 95.4408 392.021 92.3941L391.524 91.5259C386.403 94.4525 379.301 95.94 370.172 95.94V96.94ZM392.017 92.3963C397.447 89.3553 401.312 85.0019 403.596 79.3472L402.669 78.9728C400.473 84.4114 396.765 88.5914 391.528 91.5237L392.017 92.3963ZM403.597 79.3442C405.866 73.6183 406.992 66.8328 406.992 59H405.992C405.992 66.7405 404.879 73.395 402.668 78.9758L403.597 79.3442ZM406.992 59C406.992 51.0619 405.866 44.2746 403.596 38.6528L402.669 39.0272C404.879 44.4987 405.992 51.1514 405.992 59H406.992ZM403.597 38.6558C401.315 32.895 397.45 28.4863 392.017 25.4437L391.528 26.3162C396.762 29.2471 400.47 33.4783 402.668 39.0242L403.597 38.6558ZM392.021 25.4459C386.689 22.3992 379.391 20.9 370.172 20.9V21.9C379.301 21.9 386.403 23.3875 391.524 26.3141L392.021 25.4459ZM370.172 20.9H355.453V21.9H370.172V20.9ZM354.953 21.4V96.44H355.953V21.4H354.953Z" fill="white" mask="url(#path-1-outside-1_3_62)"/>
</svg>
