<svg width="331" height="106" viewBox="0 0 331 106" fill="none" xmlns="http://www.w3.org/2000/svg">
<mask id="path-1-outside-1_48_28" maskUnits="userSpaceOnUse" x="0" y="0" width="331" height="106" fill="black">
<rect fill="white" width="331" height="106"/>
<path d="M39.4 103.68C32.3067 103.68 25.96 102.467 20.36 100.04C14.8533 97.6133 10.4667 94.0667 7.2 89.4C4.02667 84.7333 2.39333 79.0867 2.3 72.46H22.32C22.4133 75.3533 23.16 77.9667 24.56 80.3C25.96 82.6333 27.8733 84.5 30.3 85.9C32.82 87.2067 35.8067 87.86 39.26 87.86C42.2467 87.86 44.8133 87.3933 46.96 86.46C49.2 85.4333 50.9267 84.0333 52.14 82.26C53.3533 80.4867 53.96 78.3867 53.96 75.96C53.96 73.16 53.26 70.8267 51.86 68.96C50.5533 67.0933 48.6867 65.5067 46.26 64.2C43.9267 62.8933 41.1733 61.7267 38 60.7C34.92 59.58 31.6533 58.4133 28.2 57.2C20.4533 54.68 14.5267 51.32 10.42 47.12C6.40667 42.92 4.4 37.3667 4.4 30.46C4.4 24.58 5.8 19.54 8.6 15.34C11.4933 11.14 15.46 7.92 20.5 5.68C25.54 3.44 31.28 2.32 37.72 2.32C44.3467 2.32 50.1333 3.48666 55.08 5.81999C60.12 8.05999 64.0867 11.3267 66.98 15.62C69.9667 19.9133 71.5067 24.9533 71.6 30.74H51.44C51.3467 28.5933 50.6933 26.5867 49.48 24.72C48.36 22.76 46.7733 21.22 44.72 20.1C42.6667 18.8867 40.24 18.28 37.44 18.28C35.0133 18.1867 32.7733 18.56 30.72 19.4C28.76 20.24 27.1733 21.5 25.96 23.18C24.84 24.7667 24.28 26.7733 24.28 29.2C24.28 31.5333 24.84 33.4933 25.96 35.08C27.1733 36.6667 28.8067 38.0667 30.86 39.28C32.9133 40.4 35.34 41.4733 38.14 42.5C40.94 43.4333 43.9733 44.4133 47.24 45.44C52.0933 47.12 56.5733 49.1267 60.68 51.46C64.7867 53.7 68.0533 56.64 70.48 60.28C72.9067 63.92 74.12 68.7267 74.12 74.7C74.12 79.8333 72.7667 84.5933 70.06 88.98C67.3533 93.3667 63.4333 96.9133 58.3 99.62C53.26 102.327 46.96 103.68 39.4 103.68ZM112.015 102V19.26H83.3152V3.99999H159.335V19.26H130.775V102H112.015ZM155.76 102L191.6 3.99999H213.02L248.72 102H228.7L202.24 25.56L175.64 102H155.76ZM171.58 79.74L176.62 65.04H226.46L231.36 79.74H171.58ZM275.316 102V67.56L242.276 3.99999H263.696L286.796 52.44H283.016L305.976 3.99999H327.256L294.216 67.56V102H275.316Z"/>
</mask>
<path d="M20.36 100.04L19.5535 101.87L19.5648 101.875L20.36 100.04ZM7.2 89.4L5.54615 90.5246L5.55377 90.5358L5.56154 90.5469L7.2 89.4ZM2.3 72.46V70.46H0.271633L0.300199 72.4882L2.3 72.46ZM22.32 72.46L24.319 72.3955L24.2565 70.46H22.32V72.46ZM24.56 80.3L22.845 81.329L24.56 80.3ZM30.3 85.9L29.3006 87.6324L29.3395 87.6548L29.3794 87.6755L30.3 85.9ZM46.96 86.46L47.7575 88.2941L47.7755 88.2863L47.7933 88.2781L46.96 86.46ZM52.14 82.26L53.7906 83.3894L52.14 82.26ZM51.86 68.96L50.2215 70.1069L50.2403 70.1338L50.26 70.16L51.86 68.96ZM46.26 64.2L45.2828 65.945L45.2972 65.9531L45.3118 65.9609L46.26 64.2ZM38 60.7L37.3165 62.5796L37.3502 62.5918L37.3844 62.6029L38 60.7ZM28.2 57.2L28.863 55.3131L28.8409 55.3053L28.8187 55.2981L28.2 57.2ZM10.42 47.12L8.97402 48.5017L8.98196 48.51L8.98999 48.5182L10.42 47.12ZM8.6 15.34L6.95298 14.2054L6.94435 14.2179L6.9359 14.2306L8.6 15.34ZM55.08 5.82L54.2268 7.62886L54.2471 7.63847L54.2677 7.64762L55.08 5.82ZM66.98 15.62L65.3215 16.7377L65.3297 16.75L65.3382 16.7621L66.98 15.62ZM71.6 30.74V32.74H73.6325L73.5997 30.7077L71.6 30.74ZM51.44 30.74L49.4419 30.8269L49.5251 32.74H51.44V30.74ZM49.48 24.72L47.7435 25.7123L47.7719 25.762L47.8031 25.81L49.48 24.72ZM44.72 20.1L43.7025 21.8218L43.7321 21.8393L43.7623 21.8558L44.72 20.1ZM37.44 18.28L37.3631 20.2785L37.4016 20.28H37.44V18.28ZM30.72 19.4L29.9627 17.5489L29.9474 17.5552L29.9322 17.5617L30.72 19.4ZM25.96 23.18L24.3386 22.009L24.3323 22.0178L24.3261 22.0266L25.96 23.18ZM25.96 35.08L24.3261 36.2334L24.3481 36.2646L24.3713 36.2949L25.96 35.08ZM30.86 39.28L29.8425 41.0019L29.8721 41.0193L29.9023 41.0358L30.86 39.28ZM38.14 42.5L37.4515 44.3778L37.4794 44.388L37.5075 44.3974L38.14 42.5ZM47.24 45.44L47.8942 43.55L47.8671 43.5406L47.8397 43.532L47.24 45.44ZM60.68 51.46L59.692 53.1989L59.7071 53.2075L59.7223 53.2158L60.68 51.46ZM70.48 60.28L68.8159 61.3894L70.48 60.28ZM70.06 88.98L71.7621 90.0302L70.06 88.98ZM58.3 99.62L57.3672 97.8509L57.3605 97.8544L57.3537 97.858L58.3 99.62ZM39.4 101.68C32.5363 101.68 26.4668 100.507 21.1552 98.2049L19.5648 101.875C25.4532 104.427 32.0771 105.68 39.4 105.68V101.68ZM21.1665 98.2098C15.9747 95.9219 11.8835 92.6031 8.83846 88.2531L5.56154 90.5469C9.04986 95.5302 13.7319 99.3047 19.5535 101.87L21.1665 98.2098ZM8.85385 88.2754C5.93682 83.9856 4.3886 78.7367 4.2998 72.4318L0.300199 72.4882C0.398065 79.4366 2.11651 85.481 5.54615 90.5246L8.85385 88.2754ZM2.3 74.46H22.32V70.46H2.3V74.46ZM20.321 72.5245C20.4246 75.7358 21.2586 78.6849 22.845 81.329L26.275 79.271C25.0614 77.2484 24.402 74.9709 24.319 72.3955L20.321 72.5245ZM22.845 81.329C24.4252 83.9626 26.5886 86.0678 29.3006 87.6324L31.2994 84.1676C29.1581 82.9322 27.4948 81.304 26.275 79.271L22.845 81.329ZM29.3794 87.6755C32.239 89.1583 35.5548 89.86 39.26 89.86V85.86C36.0585 85.86 33.401 85.255 31.2206 84.1245L29.3794 87.6755ZM39.26 89.86C42.4482 89.86 45.3 89.3626 47.7575 88.2941L46.1626 84.6259C44.3267 85.4241 42.0451 85.86 39.26 85.86V89.86ZM47.7933 88.2781C50.3139 87.1229 52.3438 85.504 53.7906 83.3894L50.4894 81.1306C49.5096 82.5627 48.0861 83.7438 46.1267 84.6419L47.7933 88.2781ZM53.7906 83.3894C55.2603 81.2414 55.96 78.7357 55.96 75.96H51.96C51.96 78.0377 51.4464 79.7319 50.4894 81.1306L53.7906 83.3894ZM55.96 75.96C55.96 72.8163 55.1684 70.0379 53.46 67.76L50.26 70.16C51.3516 71.6155 51.96 73.5037 51.96 75.96H55.96ZM53.4985 67.8131C51.9791 65.6425 49.8528 63.8631 47.2082 62.4391L45.3118 65.9609C47.5205 67.1502 49.1276 68.5441 50.2215 70.1069L53.4985 67.8131ZM47.2372 62.455C44.7648 61.0704 41.8851 59.8549 38.6156 58.7971L37.3844 62.6029C40.4616 63.5985 43.0886 64.7162 45.2828 65.945L47.2372 62.455ZM38.6835 58.8204C35.5959 57.6977 32.3224 56.5285 28.863 55.3131L27.537 59.0869C30.9843 60.2981 34.2441 61.4623 37.3165 62.5796L38.6835 58.8204ZM28.8187 55.2981C21.2668 52.8415 15.6606 49.619 11.85 45.7218L8.98999 48.5182C13.3927 53.021 19.6399 56.5185 27.5813 59.1019L28.8187 55.2981ZM11.866 45.7383C8.27392 41.9791 6.4 36.9556 6.4 30.46H2.4C2.4 37.7777 4.53941 43.8608 8.97402 48.5017L11.866 45.7383ZM6.4 30.46C6.4 24.9082 7.7174 20.2695 10.2641 16.4494L6.9359 14.2306C3.88261 18.8105 2.4 24.2518 2.4 30.46H6.4ZM10.247 16.4746C12.9143 12.6028 16.5806 9.61058 21.3123 7.50762L19.6877 3.85238C14.3394 6.22941 10.0724 9.67723 6.95298 14.2054L10.247 16.4746ZM21.3123 7.50762C26.0573 5.39874 31.5134 4.32 37.72 4.32V0.32C31.0466 0.32 25.0227 1.48125 19.6877 3.85238L21.3123 7.50762ZM37.72 4.32C44.113 4.32 49.5974 5.44518 54.2268 7.62886L55.9332 4.01113C50.6693 1.52815 44.5803 0.32 37.72 0.32V4.32ZM54.2677 7.64762C58.988 9.74551 62.6518 12.7763 65.3215 16.7377L68.6385 14.5023C65.5215 9.87699 61.252 6.37448 55.8923 3.99237L54.2677 7.64762ZM65.3382 16.7621C68.074 20.6949 69.5126 25.3388 69.6003 30.7723L73.5997 30.7077C73.5007 24.5678 71.8593 19.1318 68.6218 14.4779L65.3382 16.7621ZM71.6 28.74H51.44V32.74H71.6V28.74ZM53.4381 30.6531C53.3287 28.1361 52.5576 25.785 51.1569 23.63L47.8031 25.81C48.829 27.3883 49.3647 29.0505 49.4419 30.8269L53.4381 30.6531ZM51.2165 23.7277C49.9058 21.434 48.044 19.6349 45.6777 18.3442L43.7623 21.8558C45.5027 22.8051 46.8142 24.086 47.7435 25.7123L51.2165 23.7277ZM45.7375 18.3781C43.326 16.9532 40.535 16.28 37.44 16.28V20.28C39.945 20.28 42.0073 20.8201 43.7025 21.8218L45.7375 18.3781ZM37.5169 16.2815C34.8321 16.1782 32.3046 16.5909 29.9627 17.5489L31.4773 21.2511C33.2421 20.5291 35.1946 20.1951 37.3631 20.2785L37.5169 16.2815ZM29.9322 17.5617C27.6491 18.5402 25.7706 20.0263 24.3386 22.009L27.5814 24.351C28.5761 22.9737 29.8709 21.9398 31.5078 21.2383L29.9322 17.5617ZM24.3261 22.0266C22.9143 24.0267 22.28 26.4642 22.28 29.2H26.28C26.28 27.0825 26.7657 25.5066 27.5939 24.3334L24.3261 22.0266ZM22.28 29.2C22.28 31.8614 22.9232 34.2459 24.3261 36.2334L27.5939 33.9266C26.7568 32.7407 26.28 31.2052 26.28 29.2H22.28ZM24.3713 36.2949C25.7678 38.1212 27.61 39.6826 29.8425 41.0019L31.8775 37.5581C30.0033 36.4507 28.5788 35.2122 27.5487 33.8651L24.3713 36.2949ZM29.9023 41.0358C32.062 42.2138 34.5827 43.3259 37.4515 44.3778L38.8285 40.6222C36.0973 39.6208 33.7647 38.5862 31.8177 37.5242L29.9023 41.0358ZM37.5075 44.3974C40.32 45.3349 43.3644 46.3184 46.6404 47.348L47.8397 43.532C44.5823 42.5083 41.56 41.5318 38.7725 40.6026L37.5075 44.3974ZM46.5858 47.33C51.3334 48.9734 55.7005 50.931 59.692 53.1989L61.668 49.7211C57.4462 47.3223 52.8533 45.2666 47.8942 43.55L46.5858 47.33ZM59.7223 53.2158C63.5649 55.3117 66.5813 58.0374 68.8159 61.3894L72.1441 59.1706C69.5254 55.2426 66.0085 52.0883 61.6377 49.7042L59.7223 53.2158ZM68.8159 61.3894C70.9569 64.6009 72.12 68.9813 72.12 74.7H76.12C76.12 68.472 74.8564 63.2391 72.1441 59.1706L68.8159 61.3894ZM72.12 74.7C72.12 79.4608 70.8707 83.8574 68.3579 87.9298L71.7621 90.0302C74.6627 85.3293 76.12 80.2059 76.12 74.7H72.12ZM68.3579 87.9298C65.8616 91.9755 62.2251 95.2894 57.3672 97.8509L59.2328 101.389C64.6415 98.5373 68.8451 94.7578 71.7621 90.0302L68.3579 87.9298ZM57.3537 97.858C52.6832 100.366 46.7321 101.68 39.4 101.68V105.68C47.1879 105.68 53.8368 104.287 59.2463 101.382L57.3537 97.858ZM112.015 102H110.015V104H112.015V102ZM112.015 19.26H114.015V17.26H112.015V19.26ZM83.3152 19.26H81.3152V21.26H83.3152V19.26ZM83.3152 3.99999V1.99999H81.3152V3.99999H83.3152ZM159.335 3.99999H161.335V1.99999H159.335V3.99999ZM159.335 19.26V21.26H161.335V19.26H159.335ZM130.775 19.26V17.26H128.775V19.26H130.775ZM130.775 102V104H132.775V102H130.775ZM114.015 102V19.26H110.015V102H114.015ZM112.015 17.26H83.3152V21.26H112.015V17.26ZM85.3152 19.26V3.99999H81.3152V19.26H85.3152ZM83.3152 5.99999H159.335V1.99999H83.3152V5.99999ZM157.335 3.99999V19.26H161.335V3.99999H157.335ZM159.335 17.26H130.775V21.26H159.335V17.26ZM128.775 19.26V102H132.775V19.26H128.775ZM130.775 100H112.015V104H130.775V100ZM155.76 102L153.881 101.313L152.899 104H155.76V102ZM191.6 3.99999V1.99999H190.202L189.721 3.31306L191.6 3.99999ZM213.02 3.99999L214.899 3.31543L214.42 1.99999H213.02V3.99999ZM248.72 102V104H251.577L250.599 101.315L248.72 102ZM228.7 102L226.81 102.654L227.276 104H228.7V102ZM202.24 25.56L204.13 24.9058L202.245 19.4603L200.351 24.9027L202.24 25.56ZM175.64 102V104H177.061L177.529 102.657L175.64 102ZM171.58 79.74L169.688 79.0913L168.78 81.74H171.58V79.74ZM176.62 65.04V63.04H175.191L174.728 64.3913L176.62 65.04ZM226.46 65.04L228.357 64.4075L227.901 63.04H226.46V65.04ZM231.36 79.74V81.74H234.135L233.257 79.1075L231.36 79.74ZM157.638 102.687L193.478 4.68692L189.721 3.31306L153.881 101.313L157.638 102.687ZM191.6 5.99999H213.02V1.99999H191.6V5.99999ZM211.141 4.68456L246.84 102.685L250.599 101.315L214.899 3.31543L211.141 4.68456ZM248.72 100H228.7V104H248.72V100ZM230.59 101.346L204.13 24.9058L200.35 26.2142L226.81 102.654L230.59 101.346ZM200.351 24.9027L173.751 101.343L177.529 102.657L204.129 26.2173L200.351 24.9027ZM175.64 100H155.76V104H175.64V100ZM173.472 80.3886L178.512 65.6887L174.728 64.3913L169.688 79.0913L173.472 80.3886ZM176.62 67.04H226.46V63.04H176.62V67.04ZM224.562 65.6725L229.462 80.3725L233.257 79.1075L228.357 64.4075L224.562 65.6725ZM231.36 77.74H171.58V81.74H231.36V77.74ZM275.316 102H273.316V104H275.316V102ZM275.316 67.56H277.316V67.0712L277.091 66.6375L275.316 67.56ZM242.276 3.99999V1.99999H238.983L240.502 4.92245L242.276 3.99999ZM263.696 3.99999L265.502 3.13911L264.958 1.99999H263.696V3.99999ZM286.796 52.44V54.44H289.966L288.602 51.5791L286.796 52.44ZM283.016 52.44L281.209 51.5834L279.855 54.44H283.016V52.44ZM305.976 3.99999V1.99999H304.711L304.169 3.14337L305.976 3.99999ZM327.256 3.99999L329.031 4.92245L330.55 1.99999H327.256V3.99999ZM294.216 67.56L292.442 66.6375L292.216 67.0712V67.56H294.216ZM294.216 102V104H296.216V102H294.216ZM277.316 102V67.56H273.316V102H277.316ZM277.091 66.6375L244.051 3.07753L240.502 4.92245L273.542 68.4825L277.091 66.6375ZM242.276 5.99999H263.696V1.99999H242.276V5.99999ZM261.891 4.86087L284.991 53.3009L288.602 51.5791L265.502 3.13911L261.891 4.86087ZM286.796 50.44H283.016V54.44H286.796V50.44ZM284.824 53.2966L307.784 4.85661L304.169 3.14337L281.209 51.5834L284.824 53.2966ZM305.976 5.99999H327.256V1.99999H305.976V5.99999ZM325.482 3.07753L292.442 66.6375L295.991 68.4825L329.031 4.92245L325.482 3.07753ZM292.216 67.56V102H296.216V67.56H292.216ZM294.216 100H275.316V104H294.216V100Z" fill="white" mask="url(#path-1-outside-1_48_28)"/>
</svg>
