<svg width="737" height="101" viewBox="0 0 737 101" fill="none" xmlns="http://www.w3.org/2000/svg">
<mask id="path-1-outside-1_102_714" maskUnits="userSpaceOnUse" x="0" y="0" width="737" height="101" fill="black">
<rect fill="white" width="737" height="101"/>
<path d="M30.9583 96V14.2649H3.88598V5.32716H68.9114V14.2649H41.839V96H30.9583ZM118.058 97.5544C109.336 97.5544 101.65 95.6114 95.001 91.7254C88.4381 87.7531 83.2999 82.2695 79.5867 75.2748C75.9597 68.1937 74.1463 59.9899 74.1463 50.6636C74.1463 41.4236 75.9597 33.3062 79.5867 26.3114C83.2999 19.2303 88.4381 13.7036 95.001 9.73127C101.65 5.75894 109.336 3.77277 118.058 3.77277C126.952 3.77277 134.681 5.75894 141.244 9.73127C147.807 13.7036 152.902 19.2303 156.529 26.3114C160.242 33.3062 162.099 41.4236 162.099 50.6636C162.099 59.9899 160.242 68.1937 156.529 75.2748C152.902 82.2695 147.807 87.7531 141.244 91.7254C134.681 95.6114 126.952 97.5544 118.058 97.5544ZM118.058 87.969C124.621 87.969 130.363 86.5009 135.286 83.5649C140.294 80.5424 144.137 76.2679 146.814 70.7411C149.577 65.1281 150.959 58.4355 150.959 50.6636C150.959 42.8916 149.577 36.2423 146.814 30.7156C144.137 25.1025 140.294 20.8279 135.286 17.8918C130.363 14.9558 124.621 13.4877 118.058 13.4877C111.581 13.4877 105.839 14.9558 100.83 17.8918C95.9078 20.8279 92.065 25.1025 89.3016 30.7156C86.6246 36.2423 85.2861 42.8916 85.2861 50.6636C85.2861 58.4355 86.6246 65.1281 89.3016 70.7411C92.065 76.2679 95.9078 80.5424 100.83 83.5649C105.839 86.5009 111.581 87.969 118.058 87.969ZM177.956 96V5.32716H188.836V46.389L226.66 5.32716H240.39L206.712 41.4668L240.908 96H227.696L198.94 49.8864L188.836 60.6376V96H177.956ZM253.601 96V5.32716H309.688V14.2649H264.481V45.8709H305.802V54.6791H264.481V87.0622H309.688V96H253.601ZM326.842 96V5.32716H337.723L386.039 77.995V5.32716H396.919V96H386.039L337.723 23.3322V96H326.842ZM456.816 97.5544C448.094 97.5544 440.409 95.6114 433.759 91.7254C427.196 87.7531 422.058 82.2695 418.345 75.2748C414.718 68.1937 412.904 59.9899 412.904 50.6636C412.904 41.4236 414.718 33.3062 418.345 26.3114C422.058 19.2303 427.196 13.7036 433.759 9.73127C440.409 5.75894 448.094 3.77277 456.816 3.77277C465.711 3.77277 473.439 5.75894 480.002 9.73127C486.565 13.7036 491.66 19.2303 495.287 26.3114C499 33.3062 500.857 41.4236 500.857 50.6636C500.857 59.9899 499 68.1937 495.287 75.2748C491.66 82.2695 486.565 87.7531 480.002 91.7254C473.439 95.6114 465.711 97.5544 456.816 97.5544ZM456.816 87.969C463.379 87.969 469.122 86.5009 474.044 83.5649C479.052 80.5424 482.895 76.2679 485.572 70.7411C488.336 65.1281 489.717 58.4355 489.717 50.6636C489.717 42.8916 488.336 36.2423 485.572 30.7156C482.895 25.1025 479.052 20.8279 474.044 17.8918C469.122 14.9558 463.379 13.4877 456.816 13.4877C450.339 13.4877 444.597 14.9558 439.588 17.8918C434.666 20.8279 430.823 25.1025 428.06 30.7156C425.383 36.2423 424.044 42.8916 424.044 50.6636C424.044 58.4355 425.383 65.1281 428.06 70.7411C430.823 76.2679 434.666 80.5424 439.588 83.5649C444.597 86.5009 450.339 87.969 456.816 87.969ZM516.714 96V5.32716H529.408L561.402 68.6686L593.527 5.32716H606.35V96H595.47V24.7571L565.548 83.3058H557.387L527.594 25.0161V96H516.714ZM625.627 96V5.32716H636.508V96H625.627ZM695.365 97.5544C686.556 97.5544 678.914 95.6114 672.437 91.7254C666.047 87.7531 661.125 82.2695 657.671 75.2748C654.216 68.1937 652.489 59.9899 652.489 50.6636C652.489 41.3372 654.216 33.1767 657.671 26.1819C661.125 19.1008 666.047 13.6172 672.437 9.73127C678.914 5.75894 686.556 3.77277 695.365 3.77277C705.727 3.77277 714.147 6.23389 720.623 11.1561C727.1 16.0784 731.245 23.03 733.059 32.0109H721.012C719.63 26.3978 716.824 21.9073 712.592 18.5395C708.361 15.0853 702.618 13.3582 695.365 13.3582C688.888 13.3582 683.275 14.8694 678.525 17.8918C673.776 20.8279 670.106 25.1025 667.515 30.7156C664.924 36.2423 663.629 42.8916 663.629 50.6636C663.629 58.4355 664.924 65.1281 667.515 70.7411C670.106 76.2679 673.776 80.5424 678.525 83.5649C683.275 86.5009 688.888 87.969 695.365 87.969C702.618 87.969 708.361 86.3282 712.592 83.0467C716.824 79.6789 719.63 75.2316 721.012 69.7049H733.059C731.245 78.4267 727.1 85.2488 720.623 90.171C714.147 95.0933 705.727 97.5544 695.365 97.5544Z"/>
</mask>
<path d="M30.9583 96H27.9583V99H30.9583V96ZM30.9583 14.2649H33.9583V11.2649H30.9583V14.2649ZM3.88598 14.2649H0.885979V17.2649H3.88598V14.2649ZM3.88598 5.32716V2.32716H0.885979V5.32716H3.88598ZM68.9114 5.32716H71.9114V2.32716H68.9114V5.32716ZM68.9114 14.2649V17.2649H71.9114V14.2649H68.9114ZM41.839 14.2649V11.2649H38.839V14.2649H41.839ZM41.839 96V99H44.839V96H41.839ZM33.9583 96V14.2649H27.9583V96H33.9583ZM30.9583 11.2649H3.88598V17.2649H30.9583V11.2649ZM6.88598 14.2649V5.32716H0.885979V14.2649H6.88598ZM3.88598 8.32716H68.9114V2.32716H3.88598V8.32716ZM65.9114 5.32716V14.2649H71.9114V5.32716H65.9114ZM68.9114 11.2649H41.839V17.2649H68.9114V11.2649ZM38.839 14.2649V96H44.839V14.2649H38.839ZM41.839 93H30.9583V99H41.839V93ZM95.001 91.7254L93.4476 94.2919L93.4674 94.3039L93.4873 94.3155L95.001 91.7254ZM79.5867 75.2748L76.9165 76.6424L76.9266 76.662L76.9369 76.6814L79.5867 75.2748ZM79.5867 26.3114L76.9298 24.9182L76.9234 24.9305L79.5867 26.3114ZM95.001 9.73127L93.4625 7.15585L93.455 7.16029L93.4476 7.16477L95.001 9.73127ZM141.244 9.73127L142.798 7.16477L142.798 7.16477L141.244 9.73127ZM156.529 26.3114L153.859 27.6791L153.869 27.6987L153.879 27.7181L156.529 26.3114ZM156.529 75.2748L153.872 73.8815L153.866 73.8938L156.529 75.2748ZM141.244 91.7254L142.773 94.3068L142.785 94.2994L142.798 94.2919L141.244 91.7254ZM135.286 83.5649L136.823 86.1413L136.829 86.1374L136.836 86.1334L135.286 83.5649ZM146.814 70.7411L144.123 69.4161L144.118 69.4247L144.114 69.4334L146.814 70.7411ZM146.814 30.7156L144.106 32.007L144.118 32.0322L144.131 32.0572L146.814 30.7156ZM135.286 17.8918L133.749 20.4683L133.759 20.4741L133.769 20.4799L135.286 17.8918ZM100.83 17.8918L99.3129 15.3037L99.303 15.3095L99.2932 15.3154L100.83 17.8918ZM89.3016 30.7156L86.6101 29.3905L86.6059 29.3991L86.6017 29.4078L89.3016 30.7156ZM89.3016 70.7411L86.5938 72.0326L86.6058 72.0578L86.6183 72.0828L89.3016 70.7411ZM100.83 83.5649L99.2602 86.1214L99.2864 86.1374L99.3129 86.153L100.83 83.5649ZM118.058 94.5544C109.796 94.5544 102.646 92.7188 96.5147 89.1353L93.4873 94.3155C100.654 98.504 108.876 100.554 118.058 100.554V94.5544ZM96.5545 89.1589C90.4704 85.4765 85.7043 80.4006 82.2364 73.8681L76.9369 76.6814C80.8956 84.1385 86.4057 90.0297 93.4476 94.2919L96.5545 89.1589ZM82.2568 73.9072C78.8811 67.3166 77.1463 59.5962 77.1463 50.6636H71.1463C71.1463 60.3837 73.0384 69.0707 76.9165 76.6424L82.2568 73.9072ZM77.1463 50.6636C77.1463 41.8213 78.8795 34.1924 82.2499 27.6924L76.9234 24.9305C73.04 32.42 71.1463 41.0259 71.1463 50.6636H77.1463ZM82.2435 27.7047C85.714 21.0865 90.4796 15.9746 96.5545 12.2978L93.4476 7.16477C86.3965 11.4326 80.8858 17.3742 76.9298 24.9182L82.2435 27.7047ZM96.5396 12.3067C102.667 8.646 109.808 6.77277 118.058 6.77277V0.772771C108.864 0.772771 100.633 2.87187 93.4625 7.15585L96.5396 12.3067ZM118.058 6.77277C126.493 6.77277 133.667 8.65168 139.691 12.2978L142.798 7.16477C135.696 2.8662 127.411 0.772771 118.058 0.772771V6.77277ZM139.691 12.2978C145.759 15.9708 150.476 21.0742 153.859 27.6791L159.199 24.9438C155.328 17.3865 149.855 11.4364 142.798 7.16477L139.691 12.2978ZM153.879 27.7181C157.327 34.2126 159.099 41.832 159.099 50.6636H165.099C165.099 41.0151 163.158 32.3998 159.179 24.9048L153.879 27.7181ZM159.099 50.6636C159.099 59.5855 157.325 67.2966 153.872 73.8815L159.186 76.668C163.159 69.0907 165.099 60.3943 165.099 50.6636H159.099ZM153.866 73.8938C150.486 80.4128 145.769 85.4802 139.691 89.1589L142.798 94.2919C149.846 90.0259 155.319 84.1263 159.192 76.6557L153.866 73.8938ZM139.716 89.144C133.688 92.7133 126.505 94.5544 118.058 94.5544V100.554C127.4 100.554 135.675 98.5095 142.773 94.3068L139.716 89.144ZM118.058 90.969C125.082 90.969 131.371 89.3929 136.823 86.1413L133.749 80.9884C129.355 83.609 124.16 84.969 118.058 84.969V90.969ZM136.836 86.1334C142.367 82.7956 146.597 78.071 149.514 72.0489L144.114 69.4334C141.677 74.4647 138.222 78.2893 133.736 80.9963L136.836 86.1334ZM149.506 72.0662C152.515 65.9532 153.959 58.7862 153.959 50.6636H147.959C147.959 58.0849 146.64 64.3029 144.123 69.4161L149.506 72.0662ZM153.959 50.6636C153.959 42.5429 152.516 35.4106 149.497 29.3739L144.131 32.0572C146.639 37.074 147.959 43.2403 147.959 50.6636H153.959ZM149.522 29.4241C146.606 23.31 142.366 18.5652 136.803 15.3037L133.769 20.4799C138.222 23.0906 141.668 26.895 144.106 32.007L149.522 29.4241ZM136.823 15.3154C131.371 12.0638 125.082 10.4877 118.058 10.4877V16.4877C124.16 16.4877 129.355 17.8477 133.749 20.4683L136.823 15.3154ZM118.058 10.4877C111.111 10.4877 104.833 12.0677 99.3129 15.3037L102.347 20.4799C106.844 17.8438 112.051 16.4877 118.058 16.4877V10.4877ZM99.2932 15.3154C93.8278 18.5754 89.605 23.3071 86.6101 29.3905L91.9931 32.0406C94.5249 26.8979 97.9877 23.0804 102.367 20.4683L99.2932 15.3154ZM86.6017 29.4078C83.6819 35.4357 82.2861 42.5554 82.2861 50.6636H88.2861C88.2861 43.2278 89.5673 37.0489 92.0016 32.0233L86.6017 29.4078ZM82.2861 50.6636C82.2861 58.7737 83.6826 65.9283 86.5938 72.0326L92.0094 69.4497C89.5666 64.3278 88.2861 58.0974 88.2861 50.6636H82.2861ZM86.6183 72.0828C89.614 78.074 93.8271 82.7853 99.2602 86.1214L102.4 81.0084C97.9884 78.2996 94.516 74.4617 91.9849 69.3995L86.6183 72.0828ZM99.3129 86.153C104.833 89.389 111.111 90.969 118.058 90.969V84.969C112.051 84.969 106.844 83.6129 102.347 80.9768L99.3129 86.153ZM177.956 96H174.956V99H177.956V96ZM177.956 5.32716V2.32716H174.956V5.32716H177.956ZM188.836 5.32716H191.836V2.32716H188.836V5.32716ZM188.836 46.389H185.836V54.0738L191.043 48.4215L188.836 46.389ZM226.66 5.32716V2.32716H225.344L224.453 3.29463L226.66 5.32716ZM240.39 5.32716L242.585 7.37243L247.287 2.32716H240.39V5.32716ZM206.712 41.4668L204.517 39.4215L202.946 41.1078L204.17 43.0606L206.712 41.4668ZM240.908 96V99H246.331L243.45 94.4062L240.908 96ZM227.696 96L225.15 97.5874L226.031 99H227.696V96ZM198.94 49.8864L201.485 48.299L199.423 44.9916L196.754 47.8319L198.94 49.8864ZM188.836 60.6376L186.65 58.5831L185.836 59.4492V60.6376H188.836ZM188.836 96V99H191.836V96H188.836ZM180.956 96V5.32716H174.956V96H180.956ZM177.956 8.32716H188.836V2.32716H177.956V8.32716ZM185.836 5.32716V46.389H191.836V5.32716H185.836ZM191.043 48.4215L228.866 7.35968L224.453 3.29463L186.63 44.3565L191.043 48.4215ZM226.66 8.32716H240.39V2.32716H226.66V8.32716ZM238.196 3.28189L204.517 39.4215L208.907 43.512L242.585 7.37243L238.196 3.28189ZM204.17 43.0606L238.367 97.5938L243.45 94.4062L209.253 39.873L204.17 43.0606ZM240.908 93H227.696V99H240.908V93ZM230.242 94.4126L201.485 48.299L196.394 51.4738L225.15 97.5874L230.242 94.4126ZM196.754 47.8319L186.65 58.5831L191.022 62.692L201.126 51.9408L196.754 47.8319ZM185.836 60.6376V96H191.836V60.6376H185.836ZM188.836 93H177.956V99H188.836V93ZM253.601 96H250.601V99H253.601V96ZM253.601 5.32716V2.32716H250.601V5.32716H253.601ZM309.688 5.32716H312.688V2.32716H309.688V5.32716ZM309.688 14.2649V17.2649H312.688V14.2649H309.688ZM264.481 14.2649V11.2649H261.481V14.2649H264.481ZM264.481 45.8709H261.481V48.8709H264.481V45.8709ZM305.802 45.8709H308.802V42.8709H305.802V45.8709ZM305.802 54.6791V57.6791H308.802V54.6791H305.802ZM264.481 54.6791V51.6791H261.481V54.6791H264.481ZM264.481 87.0622H261.481V90.0622H264.481V87.0622ZM309.688 87.0622H312.688V84.0622H309.688V87.0622ZM309.688 96V99H312.688V96H309.688ZM256.601 96V5.32716H250.601V96H256.601ZM253.601 8.32716H309.688V2.32716H253.601V8.32716ZM306.688 5.32716V14.2649H312.688V5.32716H306.688ZM309.688 11.2649H264.481V17.2649H309.688V11.2649ZM261.481 14.2649V45.8709H267.481V14.2649H261.481ZM264.481 48.8709H305.802V42.8709H264.481V48.8709ZM302.802 45.8709V54.6791H308.802V45.8709H302.802ZM305.802 51.6791H264.481V57.6791H305.802V51.6791ZM261.481 54.6791V87.0622H267.481V54.6791H261.481ZM264.481 90.0622H309.688V84.0622H264.481V90.0622ZM306.688 87.0622V96H312.688V87.0622H306.688ZM309.688 93H253.601V99H309.688V93ZM326.842 96H323.842V99H326.842V96ZM326.842 5.32716V2.32716H323.842V5.32716H326.842ZM337.723 5.32716L340.221 3.66614L339.331 2.32716H337.723V5.32716ZM386.039 77.995L383.54 79.656L389.039 87.9254V77.995H386.039ZM386.039 5.32716V2.32716H383.039V5.32716H386.039ZM396.919 5.32716H399.919V2.32716H396.919V5.32716ZM396.919 96V99H399.919V96H396.919ZM386.039 96L383.54 97.661L384.431 99H386.039V96ZM337.723 23.3322L340.221 21.6712L334.723 13.4018V23.3322H337.723ZM337.723 96V99H340.723V96H337.723ZM329.842 96V5.32716H323.842V96H329.842ZM326.842 8.32716H337.723V2.32716H326.842V8.32716ZM335.225 6.98817L383.54 79.656L388.537 76.3339L340.221 3.66614L335.225 6.98817ZM389.039 77.995V5.32716H383.039V77.995H389.039ZM386.039 8.32716H396.919V2.32716H386.039V8.32716ZM393.919 5.32716V96H399.919V5.32716H393.919ZM396.919 93H386.039V99H396.919V93ZM388.537 94.339L340.221 21.6712L335.225 24.9932L383.54 97.661L388.537 94.339ZM334.723 23.3322V96H340.723V23.3322H334.723ZM337.723 93H326.842V99H337.723V93ZM433.759 91.7254L432.206 94.2919L432.226 94.3039L432.246 94.3155L433.759 91.7254ZM418.345 75.2748L415.675 76.6424L415.685 76.662L415.695 76.6814L418.345 75.2748ZM418.345 26.3114L415.688 24.9182L415.682 24.9305L418.345 26.3114ZM433.759 9.73127L432.221 7.15585L432.213 7.16029L432.206 7.16477L433.759 9.73127ZM480.002 9.73127L481.556 7.16477L481.556 7.16477L480.002 9.73127ZM495.287 26.3114L492.617 27.6791L492.627 27.6987L492.637 27.7181L495.287 26.3114ZM495.287 75.2748L492.63 73.8815L492.624 73.8938L495.287 75.2748ZM480.002 91.7254L481.531 94.3068L481.543 94.2994L481.556 94.2919L480.002 91.7254ZM474.044 83.5649L475.581 86.1413L475.587 86.1374L475.594 86.1334L474.044 83.5649ZM485.572 70.7411L482.881 69.4161L482.877 69.4247L482.872 69.4334L485.572 70.7411ZM485.572 30.7156L482.864 32.007L482.876 32.0322L482.889 32.0572L485.572 30.7156ZM474.044 17.8918L472.507 20.4683L472.517 20.4741L472.527 20.4799L474.044 17.8918ZM439.588 17.8918L438.071 15.3037L438.061 15.3095L438.051 15.3154L439.588 17.8918ZM428.06 30.7156L425.368 29.3905L425.364 29.3991L425.36 29.4078L428.06 30.7156ZM428.06 70.7411L425.352 72.0326L425.364 72.0578L425.376 72.0828L428.06 70.7411ZM439.588 83.5649L438.018 86.1214L438.045 86.1374L438.071 86.153L439.588 83.5649ZM456.816 94.5544C448.554 94.5544 441.405 92.7188 435.273 89.1353L432.246 94.3155C439.412 98.504 447.634 100.554 456.816 100.554V94.5544ZM435.313 89.1589C429.229 85.4765 424.462 80.4006 420.995 73.8681L415.695 76.6814C419.654 84.1385 425.164 90.0297 432.206 94.2919L435.313 89.1589ZM421.015 73.9072C417.639 67.3166 415.904 59.5962 415.904 50.6636H409.904C409.904 60.3837 411.797 69.0707 415.675 76.6424L421.015 73.9072ZM415.904 50.6636C415.904 41.8213 417.638 34.1924 421.008 27.6924L415.682 24.9305C411.798 32.42 409.904 41.0259 409.904 50.6636H415.904ZM421.002 27.7047C424.472 21.0865 429.238 15.9746 435.313 12.2978L432.206 7.16477C425.155 11.4326 419.644 17.3742 415.688 24.9182L421.002 27.7047ZM435.298 12.3067C441.425 8.646 448.566 6.77277 456.816 6.77277V0.772771C447.622 0.772771 439.392 2.87187 432.221 7.15585L435.298 12.3067ZM456.816 6.77277C465.252 6.77277 472.425 8.65168 478.449 12.2978L481.556 7.16477C474.454 2.8662 466.17 0.772771 456.816 0.772771V6.77277ZM478.449 12.2978C484.517 15.9708 489.234 21.0742 492.617 27.6791L497.957 24.9438C494.087 17.3865 488.613 11.4364 481.556 7.16477L478.449 12.2978ZM492.637 27.7181C496.085 34.2126 497.857 41.832 497.857 50.6636H503.857C503.857 41.0151 501.916 32.3998 497.937 24.9048L492.637 27.7181ZM497.857 50.6636C497.857 59.5855 496.083 67.2966 492.63 73.8815L497.944 76.668C501.918 69.0907 503.857 60.3943 503.857 50.6636H497.857ZM492.624 73.8938C489.244 80.4128 484.527 85.4802 478.449 89.1589L481.556 94.2919C488.604 90.0259 494.077 84.1263 497.95 76.6557L492.624 73.8938ZM478.474 89.144C472.446 92.7133 465.263 94.5544 456.816 94.5544V100.554C466.158 100.554 474.433 98.5095 481.531 94.3068L478.474 89.144ZM456.816 90.969C463.84 90.969 470.13 89.3929 475.581 86.1413L472.507 80.9884C468.114 83.609 462.918 84.969 456.816 84.969V90.969ZM475.594 86.1334C481.125 82.7956 485.355 78.071 488.272 72.0489L482.872 69.4334C480.435 74.4647 476.98 78.2893 472.494 80.9963L475.594 86.1334ZM488.264 72.0662C491.273 65.9532 492.717 58.7862 492.717 50.6636H486.717C486.717 58.0849 485.398 64.3029 482.881 69.4161L488.264 72.0662ZM492.717 50.6636C492.717 42.5429 491.274 35.4106 488.256 29.3739L482.889 32.0572C485.397 37.074 486.717 43.2403 486.717 50.6636H492.717ZM488.28 29.4241C485.364 23.31 481.125 18.5652 475.561 15.3037L472.527 20.4799C476.98 23.0906 480.426 26.895 482.864 32.007L488.28 29.4241ZM475.581 15.3154C470.13 12.0638 463.84 10.4877 456.816 10.4877V16.4877C462.918 16.4877 468.114 17.8477 472.507 20.4683L475.581 15.3154ZM456.816 10.4877C449.869 10.4877 443.591 12.0677 438.071 15.3037L441.105 20.4799C445.602 17.8438 450.81 16.4877 456.816 16.4877V10.4877ZM438.051 15.3154C432.586 18.5754 428.363 23.3071 425.368 29.3905L430.751 32.0406C433.283 26.8979 436.746 23.0804 441.125 20.4683L438.051 15.3154ZM425.36 29.4078C422.44 35.4357 421.044 42.5554 421.044 50.6636H427.044C427.044 43.2278 428.325 37.0489 430.76 32.0233L425.36 29.4078ZM421.044 50.6636C421.044 58.7737 422.441 65.9283 425.352 72.0326L430.768 69.4497C428.325 64.3278 427.044 58.0974 427.044 50.6636H421.044ZM425.376 72.0828C428.372 78.074 432.585 82.7853 438.018 86.1214L441.158 81.0084C436.747 78.2996 433.274 74.4617 430.743 69.3995L425.376 72.0828ZM438.071 86.153C443.591 89.389 449.869 90.969 456.816 90.969V84.969C450.81 84.969 445.602 83.6129 441.105 80.9768L438.071 86.153ZM516.714 96H513.714V99H516.714V96ZM516.714 5.32716V2.32716H513.714V5.32716H516.714ZM529.408 5.32716L532.086 3.97458L531.254 2.32716H529.408V5.32716ZM561.402 68.6686L558.725 70.0212L561.397 75.3119L564.078 70.0256L561.402 68.6686ZM593.527 5.32716V2.32716H591.684L590.851 3.97022L593.527 5.32716ZM606.35 5.32716H609.35V2.32716H606.35V5.32716ZM606.35 96V99H609.35V96H606.35ZM595.47 96H592.47V99H595.47V96ZM595.47 24.7571H598.47L592.798 23.3918L595.47 24.7571ZM565.548 83.3058V86.3058H567.383L568.219 84.671L565.548 83.3058ZM557.387 83.3058L554.716 84.6711L555.551 86.3058H557.387V83.3058ZM527.594 25.0161L530.266 23.6508L524.594 25.0161H527.594ZM527.594 96V99H530.594V96H527.594ZM519.714 96V5.32716H513.714V96H519.714ZM516.714 8.32716H529.408V2.32716H516.714V8.32716ZM526.73 6.67974L558.725 70.0212L564.08 67.316L532.086 3.97458L526.73 6.67974ZM564.078 70.0256L596.202 6.6841L590.851 3.97022L558.727 67.3117L564.078 70.0256ZM593.527 8.32716H606.35V2.32716H593.527V8.32716ZM603.35 5.32716V96H609.35V5.32716H603.35ZM606.35 93H595.47V99H606.35V93ZM598.47 96V24.7571H592.47V96H598.47ZM592.798 23.3918L562.876 81.9406L568.219 84.671L598.141 26.1223L592.798 23.3918ZM565.548 80.3058H557.387V86.3058H565.548V80.3058ZM560.058 81.9405L530.266 23.6508L524.923 26.3815L554.716 84.6711L560.058 81.9405ZM524.594 25.0161V96H530.594V25.0161H524.594ZM527.594 93H516.714V99H527.594V93ZM625.627 96H622.627V99H625.627V96ZM625.627 5.32716V2.32716H622.627V5.32716H625.627ZM636.508 5.32716H639.508V2.32716H636.508V5.32716ZM636.508 96V99H639.508V96H636.508ZM628.627 96V5.32716H622.627V96H628.627ZM625.627 8.32716H636.508V2.32716H625.627V8.32716ZM633.508 5.32716V96H639.508V5.32716H633.508ZM636.508 93H625.627V99H636.508V93ZM672.437 91.7254L670.853 94.2733L670.874 94.2857L670.894 94.2979L672.437 91.7254ZM657.671 75.2748L654.974 76.59L654.977 76.5966L654.981 76.6031L657.671 75.2748ZM657.671 26.1819L660.36 27.5103L660.364 27.5037L660.367 27.4972L657.671 26.1819ZM672.437 9.73127L673.996 12.2946L674.006 12.2886L672.437 9.73127ZM720.623 11.1561L718.808 13.5446L718.808 13.5446L720.623 11.1561ZM733.059 32.0109V35.0109H736.725L735.999 31.4171L733.059 32.0109ZM721.012 32.0109L718.099 32.7279L718.661 35.0109H721.012V32.0109ZM712.592 18.5395L710.695 20.8635L710.71 20.8752L710.724 20.8868L712.592 18.5395ZM678.525 17.8918L680.103 20.4436L680.119 20.4333L680.136 20.4228L678.525 17.8918ZM667.515 30.7156L670.231 31.9889L670.235 31.9808L670.239 31.9727L667.515 30.7156ZM667.515 70.7411L664.791 71.9983L664.795 72.0064L664.799 72.0144L667.515 70.7411ZM678.525 83.5649L676.915 86.0959L676.931 86.1064L676.948 86.1167L678.525 83.5649ZM712.592 83.0467L714.431 85.4174L714.446 85.4058L714.461 85.394L712.592 83.0467ZM721.012 69.7049V66.7049H718.67L718.102 68.9773L721.012 69.7049ZM733.059 69.7049L735.996 70.3156L736.746 66.7049H733.059V69.7049ZM720.623 90.171L718.808 87.7825L718.808 87.7825L720.623 90.171ZM695.365 94.5544C687.008 94.5544 679.918 92.7155 673.981 89.1529L670.894 94.2979C677.909 98.5073 686.104 100.554 695.365 100.554V94.5544ZM674.021 89.1776C668.124 85.5119 663.576 80.4589 660.36 73.9464L654.981 76.6031C658.673 84.0802 663.97 89.9943 670.853 94.2733L674.021 89.1776ZM660.367 73.9595C657.146 67.3567 655.489 59.6172 655.489 50.6636H649.489C649.489 60.3626 651.287 69.0306 654.974 76.59L660.367 73.9595ZM655.489 50.6636C655.489 41.7088 657.146 34.0188 660.36 27.5103L654.981 24.8536C651.286 32.3346 649.489 40.9657 649.489 50.6636H655.489ZM660.367 27.4972C663.583 20.9034 668.123 15.8657 673.996 12.2945L670.879 7.16801C663.971 11.3688 658.666 17.2981 654.974 24.8666L660.367 27.4972ZM674.006 12.2886C679.939 8.64929 687.02 6.77277 695.365 6.77277V0.772771C686.092 0.772771 677.888 2.86858 670.869 7.17396L674.006 12.2886ZM695.365 6.77277C705.253 6.77277 712.982 9.1164 718.808 13.5446L722.439 8.76764C715.312 3.35138 706.201 0.772771 695.365 0.772771V6.77277ZM718.808 13.5446C724.63 17.9691 728.429 24.2422 730.118 32.6047L735.999 31.4171C734.061 21.8177 729.57 14.1876 722.439 8.76764L718.808 13.5446ZM733.059 29.0109H721.012V35.0109H733.059V29.0109ZM723.925 31.2938C722.397 25.0842 719.248 20.0024 714.461 16.1922L710.724 20.8868C714.4 23.8122 716.864 27.7114 718.099 32.7279L723.925 31.2938ZM714.49 16.2155C709.569 12.1989 703.082 10.3582 695.365 10.3582V16.3582C702.155 16.3582 707.153 17.9716 710.695 20.8635L714.49 16.2155ZM695.365 10.3582C688.405 10.3582 682.215 11.9881 676.915 15.3608L680.136 20.4228C684.335 17.7507 689.371 16.3582 695.365 16.3582V10.3582ZM676.948 15.34C671.644 18.6185 667.601 23.3701 664.791 29.4584L670.239 31.9727C672.61 26.8348 675.907 23.0373 680.103 20.4436L676.948 15.34ZM664.799 29.4423C661.977 35.4608 660.629 42.5678 660.629 50.6636H666.629C666.629 43.2154 667.871 37.0237 670.231 31.9889L664.799 29.4423ZM660.629 50.6636C660.629 58.7613 661.978 65.9034 664.791 71.9983L670.239 69.484C667.871 64.3528 666.629 58.1097 666.629 50.6636H660.629ZM664.799 72.0144C667.61 78.0117 671.644 82.7419 676.915 86.0959L680.136 81.0339C675.907 78.343 672.602 74.5241 670.231 69.4678L664.799 72.0144ZM676.948 86.1167C682.243 89.39 688.421 90.969 695.365 90.969V84.969C689.354 84.969 684.307 83.6119 680.103 81.0131L676.948 86.1167ZM695.365 90.969C703.05 90.969 709.514 89.2302 714.431 85.4174L710.754 80.6761C707.208 83.4263 702.187 84.969 695.365 84.969V90.969ZM714.461 85.394C719.237 81.5926 722.39 76.5624 723.922 70.4325L718.102 68.9773C716.871 73.9008 714.411 77.7652 710.724 80.6995L714.461 85.394ZM721.012 72.7049H733.059V66.7049H721.012V72.7049ZM730.121 69.0942C728.44 77.1801 724.652 83.3411 718.808 87.7825L722.439 92.5595C729.548 87.1565 734.05 79.6734 735.996 70.3156L730.121 69.0942ZM718.808 87.7825C712.982 92.2108 705.253 94.5544 695.365 94.5544V100.554C706.201 100.554 715.312 97.9758 722.439 92.5595L718.808 87.7825Z" fill="white" mask="url(#path-1-outside-1_102_714)"/>
</svg>
