<svg width="114" height="114" viewBox="0 0 114 114" fill="none" xmlns="http://www.w3.org/2000/svg">
<path d="M92.625 14.25H21.375L0 39.1875L57 106.875L114 39.1875L92.625 14.25ZM33.06 35.625H12.4688L23.2987 22.9425L33.06 35.625ZM45.7425 35.625L57 22.515L68.2575 35.625H45.7425ZM71.25 42.75L57 90.345L42.75 42.75H71.25ZM37.4775 42.75L50.9438 88.635L12.3263 42.75H37.4775ZM76.5938 42.75H101.745L63.0563 88.635L76.5938 42.75ZM81.0112 35.625L90.7725 22.9425L101.531 35.625H80.8688H81.0112ZM85.5 21.375L75.24 34.2712L64.8375 21.375H85.5ZM38.6887 34.4137L28.5 21.375H49.1625L38.6887 34.4137Z" fill="white"/>
</svg>
