<svg width="654" height="120" viewBox="0 0 654 120" fill="none" xmlns="http://www.w3.org/2000/svg">
<mask id="path-1-outside-1_102_743" maskUnits="userSpaceOnUse" x="0" y="0" width="654" height="120" fill="black">
<rect fill="white" width="654" height="120"/>
<path d="M32.6 116L3.16 3.99999H26.2L45.72 91.52L68.76 3.99999H92.6L115 91.52L134.68 3.99999H157.88L127.64 116H101.88L80.44 34.4L58.2 116H32.6ZM172.853 116V3.99999H194.453V116H172.853ZM242.526 116V21.44H209.726V3.99999H296.606V21.44H263.966V116H242.526ZM382.475 116V3.99999H404.075V116H382.475ZM311.915 116V3.99999H333.515V116H311.915ZM330.475 67.52V50.08H386.155V67.52H330.475ZM507.15 117.92C498.937 117.92 491.47 116.267 484.75 112.96C478.03 109.653 472.697 104.693 468.75 98.08C464.803 91.4667 462.83 83.04 462.83 72.8V3.99999H484.43V72.96C484.43 78.5067 485.337 83.2 487.15 87.04C488.963 90.7733 491.577 93.5467 494.99 95.36C498.51 97.1733 502.67 98.08 507.47 98.08C512.377 98.08 516.537 97.1733 519.95 95.36C523.47 93.5467 526.137 90.7733 527.95 87.04C529.763 83.2 530.67 78.5067 530.67 72.96V3.99999H552.27V72.8C552.27 83.04 550.243 91.4667 546.19 98.08C542.137 104.693 536.643 109.653 529.71 112.96C522.883 116.267 515.363 117.92 507.15 117.92ZM611.881 117.92C603.775 117.92 596.521 116.533 590.121 113.76C583.828 110.987 578.815 106.933 575.081 101.6C571.455 96.2667 569.588 89.8133 569.481 82.24H592.361C592.468 85.5467 593.321 88.5333 594.921 91.2C596.521 93.8667 598.708 96 601.481 97.6C604.361 99.0933 607.775 99.84 611.721 99.84C615.135 99.84 618.068 99.3067 620.521 98.24C623.081 97.0667 625.055 95.4667 626.441 93.44C627.828 91.4133 628.521 89.0133 628.521 86.24C628.521 83.04 627.721 80.3733 626.121 78.24C624.628 76.1067 622.495 74.2933 619.721 72.8C617.055 71.3067 613.908 69.9733 610.281 68.8C606.761 67.52 603.028 66.1867 599.081 64.8C590.228 61.92 583.455 58.08 578.761 53.28C574.175 48.48 571.881 42.1333 571.881 34.24C571.881 27.52 573.481 21.76 576.681 16.96C579.988 12.16 584.521 8.48 590.281 5.92C596.041 3.36 602.601 2.08 609.961 2.08C617.535 2.08 624.148 3.41333 629.801 6.07999C635.561 8.63999 640.095 12.3733 643.401 17.28C646.815 22.1867 648.575 27.9467 648.681 34.56H625.641C625.535 32.1067 624.788 29.8133 623.401 27.68C622.121 25.44 620.308 23.68 617.961 22.4C615.615 21.0133 612.841 20.32 609.641 20.32C606.868 20.2133 604.308 20.64 601.961 21.6C599.721 22.56 597.908 24 596.521 25.92C595.241 27.7333 594.601 30.0267 594.601 32.8C594.601 35.4667 595.241 37.7067 596.521 39.52C597.908 41.3333 599.775 42.9333 602.121 44.32C604.468 45.6 607.241 46.8267 610.441 48C613.641 49.0667 617.108 50.1867 620.841 51.36C626.388 53.28 631.508 55.5733 636.201 58.24C640.895 60.8 644.628 64.16 647.401 68.32C650.175 72.48 651.561 77.9733 651.561 84.8C651.561 90.6667 650.015 96.1067 646.921 101.12C643.828 106.133 639.348 110.187 633.481 113.28C627.721 116.373 620.521 117.92 611.881 117.92Z"/>
</mask>
<path d="M32.6 116L30.6657 116.508L31.0578 118H32.6V116ZM3.16 3.99999V1.99999H0.566346L1.22571 4.50843L3.16 3.99999ZM26.2 3.99999L28.152 3.56462L27.8031 1.99999H26.2V3.99999ZM45.72 91.52L43.768 91.9554L47.6541 92.0292L45.72 91.52ZM68.76 3.99999V1.99999H67.2184L66.8259 3.49083L68.76 3.99999ZM92.6 3.99999L94.5376 3.50409L94.1526 1.99999H92.6V3.99999ZM115 91.52L113.062 92.0159L116.951 91.9588L115 91.52ZM134.68 3.99999V1.99999H133.08L132.729 3.56122L134.68 3.99999ZM157.88 3.99999L159.811 4.52132L160.492 1.99999H157.88V3.99999ZM127.64 116V118H129.172L129.571 116.521L127.64 116ZM101.88 116L99.9457 116.508L100.338 118H101.88V116ZM80.44 34.4L82.3743 33.8918L80.4754 26.6644L78.5104 33.8741L80.44 34.4ZM58.2 116V118H59.7279L60.1296 116.526L58.2 116ZM34.5343 115.492L5.09429 3.49155L1.22571 4.50843L30.6657 116.508L34.5343 115.492ZM3.16 5.99999H26.2V1.99999H3.16V5.99999ZM24.248 4.43536L43.768 91.9554L47.672 91.0846L28.152 3.56462L24.248 4.43536ZM47.6541 92.0292L70.6941 4.50915L66.8259 3.49083L43.7859 91.0108L47.6541 92.0292ZM68.76 5.99999H92.6V1.99999H68.76V5.99999ZM90.6625 4.49589L113.062 92.0159L116.938 91.0241L94.5376 3.50409L90.6625 4.49589ZM116.951 91.9588L136.631 4.43876L132.729 3.56122L113.049 91.0812L116.951 91.9588ZM134.68 5.99999H157.88V1.99999H134.68V5.99999ZM155.949 3.47866L125.709 115.479L129.571 116.521L159.811 4.52132L155.949 3.47866ZM127.64 114H101.88V118H127.64V114ZM103.814 115.492L82.3743 33.8918L78.5057 34.9082L99.9457 116.508L103.814 115.492ZM78.5104 33.8741L56.2704 115.474L60.1296 116.526L82.3696 34.9259L78.5104 33.8741ZM58.2 114H32.6V118H58.2V114ZM172.853 116H170.853V118H172.853V116ZM172.853 3.99999V1.99999H170.853V3.99999H172.853ZM194.452 3.99999H196.452V1.99999H194.452V3.99999ZM194.452 116V118H196.452V116H194.452ZM174.853 116V3.99999H170.853V116H174.853ZM172.853 5.99999H194.452V1.99999H172.853V5.99999ZM192.452 3.99999V116H196.452V3.99999H192.452ZM194.452 114H172.853V118H194.452V114ZM242.526 116H240.526V118H242.526V116ZM242.526 21.44H244.526V19.44H242.526V21.44ZM209.726 21.44H207.726V23.44H209.726V21.44ZM209.726 3.99999V1.99999H207.726V3.99999H209.726ZM296.606 3.99999H298.606V1.99999H296.606V3.99999ZM296.606 21.44V23.44H298.606V21.44H296.606ZM263.966 21.44V19.44H261.966V21.44H263.966ZM263.966 116V118H265.966V116H263.966ZM244.526 116V21.44H240.526V116H244.526ZM242.526 19.44H209.726V23.44H242.526V19.44ZM211.726 21.44V3.99999H207.726V21.44H211.726ZM209.726 5.99999H296.606V1.99999H209.726V5.99999ZM294.606 3.99999V21.44H298.606V3.99999H294.606ZM296.606 19.44H263.966V23.44H296.606V19.44ZM261.966 21.44V116H265.966V21.44H261.966ZM263.966 114H242.526V118H263.966V114ZM382.475 116H380.475V118H382.475V116ZM382.475 3.99999V1.99999H380.475V3.99999H382.475ZM404.075 3.99999H406.075V1.99999H404.075V3.99999ZM404.075 116V118H406.075V116H404.075ZM311.915 116H309.915V118H311.915V116ZM311.915 3.99999V1.99999H309.915V3.99999H311.915ZM333.515 3.99999H335.515V1.99999H333.515V3.99999ZM333.515 116V118H335.515V116H333.515ZM330.475 67.52H328.475V69.52H330.475V67.52ZM330.475 50.08V48.08H328.475V50.08H330.475ZM386.155 50.08H388.155V48.08H386.155V50.08ZM386.155 67.52V69.52H388.155V67.52H386.155ZM384.475 116V3.99999H380.475V116H384.475ZM382.475 5.99999H404.075V1.99999H382.475V5.99999ZM402.075 3.99999V116H406.075V3.99999H402.075ZM404.075 114H382.475V118H404.075V114ZM313.915 116V3.99999H309.915V116H313.915ZM311.915 5.99999H333.515V1.99999H311.915V5.99999ZM331.515 3.99999V116H335.515V3.99999H331.515ZM333.515 114H311.915V118H333.515V114ZM332.475 67.52V50.08H328.475V67.52H332.475ZM330.475 52.08H386.155V48.08H330.475V52.08ZM384.155 50.08V67.52H388.155V50.08H384.155ZM386.155 65.52H330.475V69.52H386.155V65.52ZM484.75 112.96L483.867 114.755L484.75 112.96ZM468.75 98.08L467.033 99.1049L468.75 98.08ZM462.83 3.99999V1.99999H460.83V3.99999H462.83ZM484.43 3.99999H486.43V1.99999H484.43V3.99999ZM487.15 87.04L485.341 87.894L485.346 87.9039L485.351 87.9138L487.15 87.04ZM494.99 95.36L494.052 97.1262L494.063 97.1322L494.074 97.138L494.99 95.36ZM519.95 95.36L519.034 93.582L519.023 93.5878L519.012 93.5938L519.95 95.36ZM527.95 87.04L529.749 87.9138L529.754 87.9039L529.758 87.894L527.95 87.04ZM530.67 3.99999V1.99999H528.67V3.99999H530.67ZM552.27 3.99999H554.27V1.99999H552.27V3.99999ZM546.19 98.08L547.895 99.1251L546.19 98.08ZM529.71 112.96L528.849 111.155L528.838 111.16L529.71 112.96ZM507.15 115.92C499.213 115.92 492.053 114.324 485.633 111.165L483.867 114.755C490.887 118.209 498.661 119.92 507.15 119.92V115.92ZM485.633 111.165C479.27 108.034 474.222 103.347 470.467 97.0551L467.033 99.1049C471.171 106.04 476.79 111.272 483.867 114.755L485.633 111.165ZM470.467 97.0551C466.757 90.8377 464.83 82.7946 464.83 72.8H460.83C460.83 83.2854 462.85 92.0956 467.033 99.1049L470.467 97.0551ZM464.83 72.8V3.99999H460.83V72.8H464.83ZM462.83 5.99999H484.43V1.99999H462.83V5.99999ZM482.43 3.99999V72.96H486.43V3.99999H482.43ZM482.43 72.96C482.43 78.7153 483.37 83.7183 485.341 87.894L488.958 86.186C487.304 82.6817 486.43 78.2981 486.43 72.96H482.43ZM485.351 87.9138C487.335 91.9985 490.236 95.0991 494.052 97.1262L495.928 93.5938C492.917 91.9942 490.592 89.5482 488.949 86.1662L485.351 87.9138ZM494.074 97.138C497.931 99.125 502.418 100.08 507.47 100.08V96.08C502.922 96.08 499.089 95.2216 495.906 93.582L494.074 97.138ZM507.47 100.08C512.618 100.08 517.119 99.1289 520.888 97.1262L519.012 93.5938C515.955 95.2177 512.136 96.08 507.47 96.08V100.08ZM520.866 97.138C524.79 95.1166 527.757 92.016 529.749 87.9138L526.151 86.1662C524.517 89.5307 522.15 91.9767 519.034 93.582L520.866 97.138ZM529.758 87.894C531.73 83.7183 532.67 78.7153 532.67 72.96H528.67C528.67 78.2981 527.796 82.6817 526.141 86.186L529.758 87.894ZM532.67 72.96V3.99999H528.67V72.96H532.67ZM530.67 5.99999H552.27V1.99999H530.67V5.99999ZM550.27 3.99999V72.8H554.27V3.99999H550.27ZM550.27 72.8C550.27 82.7863 548.293 90.8216 544.485 97.0349L547.895 99.1251C552.194 92.1117 554.27 83.2937 554.27 72.8H550.27ZM544.485 97.0349C540.631 103.322 535.43 108.016 528.849 111.155L530.571 114.765C537.857 111.29 543.642 106.065 547.895 99.1251L544.485 97.0349ZM528.838 111.16C522.305 114.324 515.087 115.92 507.15 115.92V119.92C515.64 119.92 523.461 118.209 530.582 114.76L528.838 111.16ZM590.121 113.76L589.315 115.59L589.326 115.595L590.121 113.76ZM575.081 101.6L573.427 102.725L573.435 102.736L573.443 102.747L575.081 101.6ZM569.481 82.24V80.24H567.453L567.481 82.2682L569.481 82.24ZM592.361 82.24L594.36 82.1755L594.298 80.24H592.361V82.24ZM594.921 91.2L593.206 92.229L594.921 91.2ZM601.481 97.6L600.482 99.3324L600.521 99.3548L600.561 99.3755L601.481 97.6ZM620.521 98.24L621.319 100.074L621.337 100.066L621.355 100.058L620.521 98.24ZM626.441 93.44L628.092 94.5694L626.441 93.44ZM626.121 78.24L624.483 79.3869L624.502 79.4138L624.521 79.44L626.121 78.24ZM619.721 72.8L618.744 74.545L618.758 74.5531L618.773 74.5609L619.721 72.8ZM610.281 68.8L609.598 70.6796L609.631 70.6918L609.666 70.7029L610.281 68.8ZM599.081 64.8L599.744 62.9131L599.722 62.9053L599.7 62.8981L599.081 64.8ZM578.761 53.28L577.315 54.6617L577.323 54.67L577.331 54.6782L578.761 53.28ZM576.681 16.96L575.034 15.8254L575.026 15.8379L575.017 15.8506L576.681 16.96ZM629.801 6.07999L628.948 7.88886L628.968 7.89847L628.989 7.90762L629.801 6.07999ZM643.401 17.28L641.743 18.3977L641.751 18.41L641.759 18.4221L643.401 17.28ZM648.681 34.56V36.56H650.714L650.681 34.5277L648.681 34.56ZM625.641 34.56L623.643 34.6469L623.726 36.56H625.641V34.56ZM623.401 27.68L621.665 28.6723L621.693 28.722L621.724 28.77L623.401 27.68ZM617.961 22.4L616.944 24.1218L616.973 24.1393L617.004 24.1558L617.961 22.4ZM609.641 20.32L609.564 22.3185L609.603 22.32H609.641V20.32ZM601.961 21.6L601.204 19.7489L601.189 19.7552L601.173 19.7617L601.961 21.6ZM596.521 25.92L594.9 24.749L594.894 24.7578L594.887 24.7666L596.521 25.92ZM596.521 39.52L594.887 40.6734L594.909 40.7046L594.933 40.7349L596.521 39.52ZM602.121 44.32L601.104 46.0418L601.133 46.0593L601.164 46.0758L602.121 44.32ZM610.441 48L609.753 49.8778L609.781 49.888L609.809 49.8974L610.441 48ZM620.841 51.36L621.495 49.47L621.468 49.4606L621.441 49.452L620.841 51.36ZM636.201 58.24L635.213 59.9789L635.228 59.9875L635.244 59.9958L636.201 58.24ZM647.401 68.32L645.737 69.4294L647.401 68.32ZM646.921 101.12L648.623 102.17L646.921 101.12ZM633.481 113.28L632.548 111.511L632.542 111.514L632.535 111.518L633.481 113.28ZM611.881 115.92C604.004 115.92 597.028 114.573 590.916 111.925L589.326 115.595C596.014 118.493 603.545 119.92 611.881 119.92V115.92ZM590.928 111.93C584.949 109.295 580.231 105.47 576.72 100.453L573.443 102.747C577.398 108.397 582.707 112.678 589.315 115.59L590.928 111.93ZM576.735 100.475C573.365 95.519 571.583 89.4633 571.481 82.2118L567.481 82.2682C567.593 90.1633 569.544 97.0144 573.427 102.725L576.735 100.475ZM569.481 84.24H592.361V80.24H569.481V84.24ZM590.362 82.3045C590.479 85.9291 591.42 89.2516 593.206 92.229L596.636 90.171C595.223 87.8151 594.457 85.1642 594.36 82.1755L590.362 82.3045ZM593.206 92.229C594.986 95.196 597.423 97.5677 600.482 99.3324L602.481 95.8676C599.993 94.4323 598.056 92.5374 596.636 90.171L593.206 92.229ZM600.561 99.3755C603.78 101.045 607.523 101.84 611.721 101.84V97.84C608.026 97.84 604.942 97.1417 602.402 95.8245L600.561 99.3755ZM611.721 101.84C615.336 101.84 618.555 101.276 621.319 100.074L619.724 96.4059C617.581 97.3374 614.933 97.84 611.721 97.84V101.84ZM621.355 100.058C624.195 98.7562 626.472 96.9373 628.092 94.5694L624.791 92.3106C623.638 93.996 621.967 95.3771 619.688 96.4219L621.355 100.058ZM628.092 94.5694C629.735 92.1681 630.521 89.3624 630.521 86.24H626.521C626.521 88.6643 625.921 90.6586 624.791 92.3106L628.092 94.5694ZM630.521 86.24C630.521 82.6963 629.63 79.5845 627.721 77.04L624.521 79.44C625.813 81.1621 626.521 83.3837 626.521 86.24H630.521ZM627.76 77.0931C626.054 74.6559 623.661 72.6497 620.669 71.0391L618.773 74.5609C621.328 75.9369 623.202 77.5575 624.483 79.3869L627.76 77.0931ZM620.698 71.055C617.893 69.4837 614.62 68.1015 610.897 66.8971L609.666 70.7029C613.196 71.8451 616.216 73.1296 618.744 74.545L620.698 71.055ZM610.965 66.9204C607.437 65.6377 603.697 64.3019 599.744 62.9131L598.418 66.6869C602.359 68.0714 606.085 69.4023 609.598 70.6796L610.965 66.9204ZM599.7 62.8981C591.041 60.0815 584.589 56.379 580.191 51.8818L577.331 54.6782C582.321 59.781 589.414 63.7585 598.463 66.7019L599.7 62.8981ZM580.207 51.8983C576.042 47.5391 573.881 41.7223 573.881 34.24H569.881C569.881 42.5444 572.307 49.4208 577.315 54.6617L580.207 51.8983ZM573.881 34.24C573.881 27.8482 575.399 22.4895 578.345 18.0694L575.017 15.8506C571.564 21.0305 569.881 27.1918 569.881 34.24H573.881ZM578.328 18.0946C581.409 13.6228 585.642 10.1706 591.094 7.74762L589.469 4.09237C583.401 6.78941 578.567 10.6972 575.034 15.8254L578.328 18.0946ZM591.094 7.74762C596.559 5.31874 602.835 4.08 609.961 4.08V0.079998C602.368 0.079998 595.524 1.40126 589.469 4.09237L591.094 7.74762ZM609.961 4.08C617.301 4.08 623.612 5.37185 628.948 7.88886L630.654 4.27113C624.684 1.45481 617.768 0.079998 609.961 0.079998V4.08ZM628.989 7.90762C634.429 10.3255 638.66 13.823 641.743 18.3977L645.06 16.1623C641.529 10.9237 636.693 6.95448 630.614 4.25237L628.989 7.90762ZM641.759 18.4221C644.922 22.9682 646.581 28.3322 646.682 34.5923L650.681 34.5277C650.569 27.5612 648.707 21.4051 645.043 16.1379L641.759 18.4221ZM648.681 32.56H625.641V36.56H648.681V32.56ZM627.639 34.4731C627.517 31.6495 626.652 29.0117 625.078 26.59L621.724 28.77C622.924 30.615 623.553 32.5639 623.643 34.6469L627.639 34.4731ZM625.138 26.6877C623.667 24.114 621.579 22.0949 618.919 20.6442L617.004 24.1558C619.037 25.2651 620.575 26.766 621.665 28.6723L625.138 26.6877ZM618.979 20.6781C616.274 19.0798 613.136 18.32 609.641 18.32V22.32C612.546 22.32 614.955 22.9468 616.944 24.1218L618.979 20.6781ZM609.718 18.3215C606.687 18.2049 603.839 18.6709 601.204 19.7489L602.719 23.4511C604.777 22.6091 607.049 22.2218 609.564 22.3185L609.718 18.3215ZM601.173 19.7617C598.61 20.8602 596.505 22.5263 594.9 24.749L598.143 27.091C599.311 25.4737 600.832 24.2598 602.749 23.4383L601.173 19.7617ZM594.887 24.7666C593.315 26.9933 592.601 29.7175 592.601 32.8H596.601C596.601 30.3358 597.167 28.4733 598.155 27.0734L594.887 24.7666ZM592.601 32.8C592.601 35.7948 593.324 38.4593 594.887 40.6734L598.155 38.3666C597.158 36.954 596.601 35.1386 596.601 32.8H592.601ZM594.933 40.7349C596.502 42.7878 598.578 44.5493 601.104 46.0418L603.139 42.5981C600.971 41.3174 599.313 39.8788 598.11 38.3051L594.933 40.7349ZM601.164 46.0758C603.617 47.4138 606.484 48.6792 609.753 49.8778L611.13 46.1222C607.999 44.9741 605.319 43.7862 603.079 42.5642L601.164 46.0758ZM609.809 49.8974C613.021 50.9682 616.499 52.0917 620.242 53.268L621.441 49.452C617.717 48.2816 614.261 47.1651 611.074 46.1026L609.809 49.8974ZM620.187 53.25C625.628 55.1334 630.635 57.3777 635.213 59.9789L637.189 56.5011C632.381 53.769 627.148 51.4266 621.495 49.47L620.187 53.25ZM635.244 59.9958C639.673 62.4117 643.156 65.5574 645.737 69.4294L649.065 67.2106C646.1 62.7626 642.116 59.1883 637.159 56.4842L635.244 59.9958ZM645.737 69.4294C648.225 73.1609 649.561 78.228 649.561 84.8H653.561C653.561 77.7187 652.124 71.7991 649.065 67.2106L645.737 69.4294ZM649.561 84.8C649.561 90.2941 648.119 95.3707 645.219 100.07L648.623 102.17C651.911 96.8426 653.561 91.0392 653.561 84.8H649.561ZM645.219 100.07C642.336 104.742 638.14 108.563 632.548 111.511L634.414 115.049C640.556 111.811 645.32 107.524 648.623 102.17L645.219 100.07ZM632.535 111.518C627.144 114.413 620.293 115.92 611.881 115.92V119.92C620.749 119.92 628.298 118.334 634.427 115.042L632.535 111.518Z" fill="white" mask="url(#path-1-outside-1_102_743)"/>
</svg>
